<?xml version="1.0" encoding="UTF-8" standalone="no"?>
<!DOCTYPE svg PUBLIC "-//W3C//DTD SVG 1.1//EN"
 "http://www.w3.org/Graphics/SVG/1.1/DTD/svg11.dtd">
<!-- Generated by graphviz version 8.1.0 (20230707.0739)
 -->
<!-- Title: generate_key Pages: 1 -->
<svg width="303pt" height="180pt"
 viewBox="0.00 0.00 302.75 180.00" xmlns="http://www.w3.org/2000/svg" xmlns:xlink="http://www.w3.org/1999/xlink">
<g id="graph0" class="graph" transform="scale(1 1) rotate(0) translate(4 176)">
<title>generate_key</title>
<!-- Node1 -->
<g id="Node000001" class="node">
<title>Node1</title>
<g id="a_Node000001"><a xlink:title="Generate a new AES 256 key for a file.">
<polygon fill="#999999" stroke="#666666" points="74.5,-96 0,-96 0,-76 74.5,-76 74.5,-96"/>
<text text-anchor="middle" x="37.25" y="-82.5" font-family="Helvetica,sans-Serif" font-size="10.00">generate_key</text>
</a>
</g>
</g>
<!-- Node2 -->
<g id="Node000002" class="node">
<title>Node2</title>
<g id="a_Node000002"><a xlink:href="$crypt-utils_8c.html#a53b5762e00daafcc3644c03e2fd9b2c4" xlink:title="Force new entropy in /dev/urandom.">
<polygon fill="white" stroke="#666666" points="185,-172 115.75,-172 115.75,-152 185,-152 185,-172"/>
<text text-anchor="middle" x="150.38" y="-158.5" font-family="Helvetica,sans-Serif" font-size="10.00">add_entropy</text>
</a>
</g>
</g>
<!-- Node1&#45;&gt;Node2 -->
<g id="edge13_Node000001_Node000002" class="edge">
<title>Node1&#45;&gt;Node2</title>
<g id="a_edge13_Node000001_Node000002"><a xlink:title=" ">
<path fill="none" stroke="#63b8ff" d="M49.45,-96.08C63.19,-108.15 87.51,-128.54 110.5,-143 112.46,-144.23 114.52,-145.45 116.62,-146.63"/>
<polygon fill="#63b8ff" stroke="#63b8ff" points="114.44,-149.96 124.91,-151.54 117.7,-143.77 114.44,-149.96"/>
</a>
</g>
</g>
<!-- Node3 -->
<g id="Node000003" class="node">
<title>Node3</title>
<g id="a_Node000003"><a xlink:href="$crypt-utils_8c.html#aa377df016f593aa771013264acc9b86b" xlink:title="Verify if there is enough entropy in the system to generate a key.">
<polygon fill="white" stroke="#666666" points="190.25,-134 110.5,-134 110.5,-114 190.25,-114 190.25,-134"/>
<text text-anchor="middle" x="150.38" y="-120.5" font-family="Helvetica,sans-Serif" font-size="10.00">check_entropy</text>
</a>
</g>
</g>
<!-- Node1&#45;&gt;Node3 -->
<g id="edge14_Node000001_Node000003" class="edge">
<title>Node1&#45;&gt;Node3</title>
<g id="a_edge14_Node000001_Node000003"><a xlink:title=" ">
<path fill="none" stroke="#63b8ff" d="M68.91,-96.48C81.18,-100.68 95.49,-105.57 108.61,-110.06"/>
<polygon fill="#63b8ff" stroke="#63b8ff" points="107.22,-113.63 117.82,-113.55 109.49,-107 107.22,-113.63"/>
</a>
</g>
</g>
<!-- Node4 -->
<g id="Node000004" class="node">
<title>Node4</title>
<g id="a_Node000004"><a xlink:href="$crypt-utils_8c.html#a36c2342a7c47b8f41bf628bf473b1c97" xlink:title="Check if a given key is valid.">
<polygon fill="white" stroke="#666666" points="185.38,-96 115.38,-96 115.38,-76 185.38,-76 185.38,-96"/>
<text text-anchor="middle" x="150.38" y="-82.5" font-family="Helvetica,sans-Serif" font-size="10.00">is_valid_key</text>
</a>
</g>
</g>
<!-- Node1&#45;&gt;Node4 -->
<g id="edge15_Node000001_Node000004" class="edge">
<title>Node1&#45;&gt;Node4</title>
<g id="a_edge15_Node000001_Node000004"><a xlink:title=" ">
<path fill="none" stroke="#63b8ff" d="M74.94,-86C84.31,-86 94.5,-86 104.24,-86"/>
<polygon fill="#63b8ff" stroke="#63b8ff" points="103.98,-89.5 113.98,-86 103.98,-82.5 103.98,-89.5"/>
</a>
</g>
</g>
<!-- Node5 -->
<g id="Node000005" class="node">
<title>Node5</title>
<g id="a_Node000005"><a xlink:href="$tcfs__utils_8c.html#a62b66e43a7ad8b8cf9fcad67f71a7a8b" xlink:title="Logs a formatted message to a file with timestamp.">
<polygon fill="white" stroke="#666666" points="294.75,-39 226.25,-39 226.25,-19 294.75,-19 294.75,-39"/>
<text text-anchor="middle" x="260.5" y="-25.5" font-family="Helvetica,sans-Serif" font-size="10.00">logMessage</text>
</a>
</g>
</g>
<!-- Node1&#45;&gt;Node5 -->
<g id="edge16_Node000001_Node000005" class="edge">
<title>Node1&#45;&gt;Node5</title>
<g id="a_edge16_Node000001_Node000005"><a xlink:title=" ">
<path fill="none" stroke="#63b8ff" d="M74.99,-76.28C86.37,-73.29 98.95,-69.99 110.5,-67 145.72,-57.88 185.66,-47.7 215.32,-40.18"/>
<polygon fill="#63b8ff" stroke="#63b8ff" points="215.92,-43.38 224.75,-37.53 214.2,-36.6 215.92,-43.38"/>
</a>
</g>
</g>
<!-- Node6 -->
<g id="Node000006" class="node">
<title>Node6</title>
<g id="a_Node000006"><a xlink:href="$tcfs__utils_8c.html#a8c1c24299a2b01f6157b051cb56ebc52" xlink:title="Print the value of an AES key.">
<polygon fill="white" stroke="#666666" points="188.75,-20 112,-20 112,0 188.75,0 188.75,-20"/>
<text text-anchor="middle" x="150.38" y="-6.5" font-family="Helvetica,sans-Serif" font-size="10.00">print_aes_key</text>
</a>
</g>
</g>
<!-- Node1&#45;&gt;Node6 -->
<g id="edge17_Node000001_Node000006" class="edge">
<title>Node1&#45;&gt;Node6</title>
<g id="a_edge17_Node000001_Node000006"><a xlink:title=" ">
<path fill="none" stroke="#63b8ff" d="M52.16,-75.54C66.56,-64.82 89.8,-47.81 110.5,-34 114.36,-31.42 118.49,-28.77 122.55,-26.21"/>
<polygon fill="#63b8ff" stroke="#63b8ff" points="124.13,-28.73 130.79,-20.49 120.45,-22.78 124.13,-28.73"/>
</a>
</g>
</g>
<!-- Node6&#45;&gt;Node5 -->
<g id="edge18_Node000006_Node000005" class="edge">
<title>Node6&#45;&gt;Node5</title>
<g id="a_edge18_Node000006_Node000005"><a xlink:title=" ">
<path fill="none" stroke="#63b8ff" d="M189.19,-16.65C197.58,-18.12 206.55,-19.7 215.18,-21.21"/>
<polygon fill="#63b8ff" stroke="#63b8ff" points="214.4,-24.8 224.85,-23.09 215.61,-17.91 214.4,-24.8"/>
</a>
</g>
</g>
</g>
</svg>
