<?xml version="1.0" encoding="UTF-8" standalone="no"?>
<!DOCTYPE svg PUBLIC "-//W3C//DTD SVG 1.1//EN"
 "http://www.w3.org/Graphics/SVG/1.1/DTD/svg11.dtd">
<!-- Generated by graphviz version 8.1.0 (20230707.0739)
 -->
<!-- Title: decrypt_path Pages: 1 -->
<svg width="474pt" height="85pt"
 viewBox="0.00 0.00 474.00 85.00" xmlns="http://www.w3.org/2000/svg" xmlns:xlink="http://www.w3.org/1999/xlink">
<g id="graph0" class="graph" transform="scale(1 1) rotate(0) translate(4 81)">
<title>decrypt_path</title>
<!-- Node1 -->
<g id="Node000001" class="node">
<title>Node1</title>
<g id="a_Node000001"><a xlink:title="Decrypts each part of the given encrypted path using a specified key.">
<polygon fill="#999999" stroke="#666666" points="72.25,-20 0,-20 0,0 72.25,0 72.25,-20"/>
<text text-anchor="middle" x="36.12" y="-6.5" font-family="Helvetica,sans-Serif" font-size="10.00">decrypt_path</text>
</a>
</g>
</g>
<!-- Node2 -->
<g id="Node000002" class="node">
<title>Node2</title>
<g id="a_Node000002"><a xlink:href="$crypt-utils_8c.html#a3b003481e5c188ac1d6f63e09e6f3a34" xlink:title=" ">
<polygon fill="white" stroke="#666666" points="248,-39 108.25,-39 108.25,-19 248,-19 248,-39"/>
<text text-anchor="middle" x="178.12" y="-25.5" font-family="Helvetica,sans-Serif" font-size="10.00">decrypt_file_name_with_hex</text>
</a>
</g>
</g>
<!-- Node1&#45;&gt;Node2 -->
<g id="edge13_Node000001_Node000002" class="edge">
<title>Node1&#45;&gt;Node2</title>
<g id="a_edge13_Node000001_Node000002"><a xlink:title=" ">
<path fill="none" stroke="#63b8ff" d="M72.45,-14.79C80.17,-15.84 88.64,-16.99 97.31,-18.17"/>
<polygon fill="#63b8ff" stroke="#63b8ff" points="96.58,-21.74 106.96,-19.61 97.52,-14.8 96.58,-21.74"/>
</a>
</g>
</g>
<!-- Node4 -->
<g id="Node000004" class="node">
<title>Node4</title>
<g id="a_Node000004"><a xlink:href="$tcfs__utils_8c.html#a62b66e43a7ad8b8cf9fcad67f71a7a8b" xlink:title="Logs a formatted message to a file with timestamp.">
<polygon fill="white" stroke="#666666" points="466,-39 397.5,-39 397.5,-19 466,-19 466,-39"/>
<text text-anchor="middle" x="431.75" y="-25.5" font-family="Helvetica,sans-Serif" font-size="10.00">logMessage</text>
</a>
</g>
</g>
<!-- Node1&#45;&gt;Node4 -->
<g id="edge18_Node000001_Node000004" class="edge">
<title>Node1&#45;&gt;Node4</title>
<g id="a_edge18_Node000001_Node000004"><a xlink:title=" ">
<path fill="none" stroke="#63b8ff" d="M72.37,-6.94C132.16,-2.42 257.13,4.06 361.5,-10 370.65,-11.23 380.29,-13.34 389.39,-15.72"/>
<polygon fill="#63b8ff" stroke="#63b8ff" points="388.18,-19.29 398.75,-18.59 390.05,-12.54 388.18,-19.29"/>
</a>
</g>
</g>
<!-- Node3 -->
<g id="Node000003" class="node">
<title>Node3</title>
<g id="a_Node000003"><a xlink:href="$crypt-utils_8c.html#a22f528907ee4f078e333501b747d5435" xlink:title="Decrypt the *ciphertext string using a AES 256 key.">
<polygon fill="white" stroke="#666666" points="361.5,-77 284,-77 284,-57 361.5,-57 361.5,-77"/>
<text text-anchor="middle" x="322.75" y="-63.5" font-family="Helvetica,sans-Serif" font-size="10.00">decrypt_string</text>
</a>
</g>
</g>
<!-- Node2&#45;&gt;Node3 -->
<g id="edge14_Node000002_Node000003" class="edge">
<title>Node2&#45;&gt;Node3</title>
<g id="a_edge14_Node000002_Node000003"><a xlink:title=" ">
<path fill="none" stroke="#63b8ff" d="M218.48,-39.48C235.35,-43.98 255.24,-49.28 273.03,-54.02"/>
<polygon fill="#63b8ff" stroke="#63b8ff" points="271.95,-57.62 282.51,-56.81 273.75,-50.86 271.95,-57.62"/>
</a>
</g>
</g>
<!-- Node5 -->
<g id="Node000005" class="node">
<title>Node5</title>
<g id="a_Node000005"><a xlink:href="$tcfs__utils_8c.html#a6de1cb8448198da94080ad32d7e4eabf" xlink:title="Convert a hexadecimal string to its ASCII representation.">
<polygon fill="white" stroke="#666666" points="360,-39 285.5,-39 285.5,-19 360,-19 360,-39"/>
<text text-anchor="middle" x="322.75" y="-25.5" font-family="Helvetica,sans-Serif" font-size="10.00">hex_to_string</text>
</a>
</g>
</g>
<!-- Node2&#45;&gt;Node5 -->
<g id="edge16_Node000002_Node000005" class="edge">
<title>Node2&#45;&gt;Node5</title>
<g id="a_edge16_Node000002_Node000005"><a xlink:title=" ">
<path fill="none" stroke="#63b8ff" d="M248.35,-29C257.23,-29 266.16,-29 274.57,-29"/>
<polygon fill="#63b8ff" stroke="#63b8ff" points="274.3,-32.5 284.3,-29 274.3,-25.5 274.3,-32.5"/>
</a>
</g>
</g>
<!-- Node3&#45;&gt;Node4 -->
<g id="edge15_Node000003_Node000004" class="edge">
<title>Node3&#45;&gt;Node4</title>
<g id="a_edge15_Node000003_Node000004"><a xlink:title=" ">
<path fill="none" stroke="#63b8ff" d="M353.27,-56.52C364.97,-52.36 378.59,-47.52 391.12,-43.07"/>
<polygon fill="#63b8ff" stroke="#63b8ff" points="392.07,-46.09 400.32,-39.45 389.73,-39.5 392.07,-46.09"/>
</a>
</g>
</g>
<!-- Node5&#45;&gt;Node4 -->
<g id="edge17_Node000005_Node000004" class="edge">
<title>Node5&#45;&gt;Node4</title>
<g id="a_edge17_Node000005_Node000004"><a xlink:title=" ">
<path fill="none" stroke="#63b8ff" d="M360.27,-29C368.7,-29 377.76,-29 386.48,-29"/>
<polygon fill="#63b8ff" stroke="#63b8ff" points="386.27,-32.5 396.27,-29 386.27,-25.5 386.27,-32.5"/>
</a>
</g>
</g>
</g>
</svg>
