<?xml version="1.0" encoding="UTF-8" standalone="no"?>
<!DOCTYPE svg PUBLIC "-//W3C//DTD SVG 1.1//EN"
 "http://www.w3.org/Graphics/SVG/1.1/DTD/svg11.dtd">
<!-- Generated by graphviz version 8.1.0 (20230707.0739)
 -->
<!-- Title: decrypt_string Pages: 1 -->
<svg width="536pt" height="142pt"
 viewBox="0.00 0.00 535.50 142.00" xmlns="http://www.w3.org/2000/svg" xmlns:xlink="http://www.w3.org/1999/xlink">
<g id="graph0" class="graph" transform="scale(1 1) rotate(0) translate(4 138)">
<title>decrypt_string</title>
<!-- Node1 -->
<g id="Node000001" class="node">
<title>Node1</title>
<g id="a_Node000001"><a xlink:title="Decrypt the *ciphertext string using a AES 256 key.">
<polygon fill="#999999" stroke="#666666" points="527.5,-58 450,-58 450,-38 527.5,-38 527.5,-58"/>
<text text-anchor="middle" x="488.75" y="-44.5" font-family="Helvetica,sans-Serif" font-size="10.00">decrypt_string</text>
</a>
</g>
</g>
<!-- Node2 -->
<g id="Node000002" class="node">
<title>Node2</title>
<g id="a_Node000002"><a xlink:href="$crypt-utils_8c.html#a3b003481e5c188ac1d6f63e09e6f3a34" xlink:title=" ">
<polygon fill="white" stroke="#666666" points="414,-96 274.25,-96 274.25,-76 414,-76 414,-96"/>
<text text-anchor="middle" x="344.12" y="-82.5" font-family="Helvetica,sans-Serif" font-size="10.00">decrypt_file_name_with_hex</text>
</a>
</g>
</g>
<!-- Node1&#45;&gt;Node2 -->
<g id="edge15_Node000001_Node000002" class="edge">
<title>Node1&#45;&gt;Node2</title>
<g id="a_edge15_Node000001_Node000002"><a xlink:title=" ">
<path fill="none" stroke="#63b8ff" d="M439.04,-60.98C421.24,-65.72 401.33,-71.02 384.45,-75.52"/>
<polygon fill="#63b8ff" stroke="#63b8ff" points="439.77,-64.14 448.53,-58.18 437.97,-57.38 439.77,-64.14"/>
</a>
</g>
</g>
<!-- Node6 -->
<g id="Node000006" class="node">
<title>Node6</title>
<g id="a_Node000006"><a xlink:href="$tcfs_8c.html#a745384a010e20b082db26e16702a0129" xlink:title="Reads data from an open file.">
<polygon fill="white" stroke="#666666" points="372.38,-58 315.88,-58 315.88,-38 372.38,-38 372.38,-58"/>
<text text-anchor="middle" x="344.12" y="-44.5" font-family="Helvetica,sans-Serif" font-size="10.00">tcfs_read</text>
</a>
</g>
</g>
<!-- Node1&#45;&gt;Node6 -->
<g id="edge20_Node000001_Node000006" class="edge">
<title>Node1&#45;&gt;Node6</title>
<g id="a_edge20_Node000001_Node000006"><a xlink:title=" ">
<path fill="none" stroke="#63b8ff" d="M438.65,-48C416.55,-48 391.29,-48 372.6,-48"/>
<polygon fill="#63b8ff" stroke="#63b8ff" points="438.53,-51.5 448.53,-48 438.53,-44.5 438.53,-51.5"/>
</a>
</g>
</g>
<!-- Node7 -->
<g id="Node000007" class="node">
<title>Node7</title>
<g id="a_Node000007"><a xlink:href="$tcfs_8c.html#adaba2baa5a036b8f77ec187599498a66" xlink:title="Writes data to an open file.">
<polygon fill="white" stroke="#666666" points="373.5,-20 314.75,-20 314.75,0 373.5,0 373.5,-20"/>
<text text-anchor="middle" x="344.12" y="-6.5" font-family="Helvetica,sans-Serif" font-size="10.00">tcfs_write</text>
</a>
</g>
</g>
<!-- Node1&#45;&gt;Node7 -->
<g id="edge21_Node000001_Node000007" class="edge">
<title>Node1&#45;&gt;Node7</title>
<g id="a_edge21_Node000001_Node000007"><a xlink:title=" ">
<path fill="none" stroke="#63b8ff" d="M439.17,-35.06C417.47,-29.28 392.64,-22.66 373.94,-17.68"/>
<polygon fill="#63b8ff" stroke="#63b8ff" points="437.97,-38.62 448.53,-37.82 439.77,-31.86 437.97,-38.62"/>
</a>
</g>
</g>
<!-- Node3 -->
<g id="Node000003" class="node">
<title>Node3</title>
<g id="a_Node000003"><a xlink:href="$crypt-utils_8c.html#a1899c23a523d11ed1cb5601eabdb023d" xlink:title="Decrypts each part of the given encrypted path using a specified key.">
<polygon fill="white" stroke="#666666" points="206.75,-134 134.5,-134 134.5,-114 206.75,-114 206.75,-134"/>
<text text-anchor="middle" x="170.62" y="-120.5" font-family="Helvetica,sans-Serif" font-size="10.00">decrypt_path</text>
</a>
</g>
</g>
<!-- Node2&#45;&gt;Node3 -->
<g id="edge16_Node000002_Node000003" class="edge">
<title>Node2&#45;&gt;Node3</title>
<g id="a_edge16_Node000002_Node000003"><a xlink:title=" ">
<path fill="none" stroke="#63b8ff" d="M285.34,-98.8C259.41,-104.55 229.66,-111.14 207.09,-116.14"/>
<polygon fill="#63b8ff" stroke="#63b8ff" points="285.8,-102.06 294.81,-96.48 284.29,-95.23 285.8,-102.06"/>
</a>
</g>
</g>
<!-- Node4 -->
<g id="Node000004" class="node">
<title>Node4</title>
<g id="a_Node000004"><a xlink:href="$tcfs_8c.html#a1a713549c892f56a6522e6487c581d69" xlink:title="Reads a directory.">
<polygon fill="white" stroke="#666666" points="67,-115 0,-115 0,-95 67,-95 67,-115"/>
<text text-anchor="middle" x="33.5" y="-101.5" font-family="Helvetica,sans-Serif" font-size="10.00">tcfs_readdir</text>
</a>
</g>
</g>
<!-- Node2&#45;&gt;Node4 -->
<g id="edge19_Node000002_Node000004" class="edge">
<title>Node2&#45;&gt;Node4</title>
<g id="a_edge19_Node000002_Node000004"><a xlink:title=" ">
<path fill="none" stroke="#63b8ff" d="M263.03,-90.93C199.27,-94.86 113.32,-100.15 67.13,-102.99"/>
<polygon fill="#63b8ff" stroke="#63b8ff" points="263.1,-94.37 272.86,-90.26 262.67,-87.39 263.1,-94.37"/>
</a>
</g>
</g>
<!-- Node5 -->
<g id="Node000005" class="node">
<title>Node5</title>
<g id="a_Node000005"><a xlink:href="$crypt-utils_8c.html#a373f8aedbcd8b6ce22fe7bdfeb2961c2" xlink:title="Decrypts the given encrypted filename with its path using a specified key.">
<polygon fill="white" stroke="#666666" points="238.25,-58 103,-58 103,-38 238.25,-38 238.25,-58"/>
<text text-anchor="middle" x="170.62" y="-44.5" font-family="Helvetica,sans-Serif" font-size="10.00">decrypt_path_and_filename</text>
</a>
</g>
</g>
<!-- Node2&#45;&gt;Node5 -->
<g id="edge18_Node000002_Node000005" class="edge">
<title>Node2&#45;&gt;Node5</title>
<g id="a_edge18_Node000002_Node000005"><a xlink:title=" ">
<path fill="none" stroke="#63b8ff" d="M285.12,-73.15C263.52,-68.36 239.29,-62.99 218.79,-58.45"/>
<polygon fill="#63b8ff" stroke="#63b8ff" points="284.29,-76.77 294.81,-75.52 285.8,-69.94 284.29,-76.77"/>
</a>
</g>
</g>
<!-- Node3&#45;&gt;Node4 -->
<g id="edge17_Node000003_Node000004" class="edge">
<title>Node3&#45;&gt;Node4</title>
<g id="a_edge17_Node000003_Node000004"><a xlink:title=" ">
<path fill="none" stroke="#63b8ff" d="M123.33,-117.49C104.96,-114.91 84.25,-111.99 67.45,-109.63"/>
<polygon fill="#63b8ff" stroke="#63b8ff" points="122.73,-121.08 133.12,-119.01 123.71,-114.15 122.73,-121.08"/>
</a>
</g>
</g>
</g>
</svg>
