<?xml version="1.0" encoding="UTF-8" standalone="no"?>
<!DOCTYPE svg PUBLIC "-//W3C//DTD SVG 1.1//EN"
 "http://www.w3.org/Graphics/SVG/1.1/DTD/svg11.dtd">
<!-- Generated by graphviz version 8.1.0 (20230707.0739)
 -->
<!-- Title: check_entropy Pages: 1 -->
<svg width="299pt" height="28pt"
 viewBox="0.00 0.00 299.00 28.00" xmlns="http://www.w3.org/2000/svg" xmlns:xlink="http://www.w3.org/1999/xlink">
<g id="graph0" class="graph" transform="scale(1 1) rotate(0) translate(4 24)">
<title>check_entropy</title>
<!-- Node1 -->
<g id="Node000001" class="node">
<title>Node1</title>
<g id="a_Node000001"><a xlink:title="Verify if there is enough entropy in the system to generate a key.">
<polygon fill="#999999" stroke="#666666" points="291,-20 211.25,-20 211.25,0 291,0 291,-20"/>
<text text-anchor="middle" x="251.12" y="-6.5" font-family="Helvetica,sans-Serif" font-size="10.00">check_entropy</text>
</a>
</g>
</g>
<!-- Node2 -->
<g id="Node000002" class="node">
<title>Node2</title>
<g id="a_Node000002"><a xlink:href="$crypt-utils_8c.html#a8845f5705eaafda836aac91d5881876f" xlink:title="Generate a new AES 256 key for a file.">
<polygon fill="white" stroke="#666666" points="175.25,-20 100.75,-20 100.75,0 175.25,0 175.25,-20"/>
<text text-anchor="middle" x="138" y="-6.5" font-family="Helvetica,sans-Serif" font-size="10.00">generate_key</text>
</a>
</g>
</g>
<!-- Node1&#45;&gt;Node2 -->
<g id="edge5_Node000001_Node000002" class="edge">
<title>Node1&#45;&gt;Node2</title>
<g id="a_edge5_Node000001_Node000002"><a xlink:title=" ">
<path fill="none" stroke="#63b8ff" d="M200.21,-10C191.93,-10 183.47,-10 175.59,-10"/>
<polygon fill="#63b8ff" stroke="#63b8ff" points="199.95,-13.5 209.95,-10 199.95,-6.5 199.95,-13.5"/>
</a>
</g>
</g>
<!-- Node3 -->
<g id="Node000003" class="node">
<title>Node3</title>
<g id="a_Node000003"><a xlink:href="$tcfs_8c.html#ad973ad9d6ab7d6276bf85cd8fecd0657" xlink:title="Create and open a file.">
<polygon fill="white" stroke="#666666" points="64.75,-20 0,-20 0,0 64.75,0 64.75,-20"/>
<text text-anchor="middle" x="32.38" y="-6.5" font-family="Helvetica,sans-Serif" font-size="10.00">tcfs_create</text>
</a>
</g>
</g>
<!-- Node2&#45;&gt;Node3 -->
<g id="edge6_Node000002_Node000003" class="edge">
<title>Node2&#45;&gt;Node3</title>
<g id="a_edge6_Node000002_Node000003"><a xlink:title=" ">
<path fill="none" stroke="#63b8ff" d="M89.68,-10C81.36,-10 72.88,-10 65.11,-10"/>
<polygon fill="#63b8ff" stroke="#63b8ff" points="89.47,-13.5 99.47,-10 89.47,-6.5 89.47,-13.5"/>
</a>
</g>
</g>
</g>
</svg>
