<?xml version="1.0" encoding="UTF-8" standalone="no"?>
<!DOCTYPE svg PUBLIC "-//W3C//DTD SVG 1.1//EN"
 "http://www.w3.org/Graphics/SVG/1.1/DTD/svg11.dtd">
<!-- Generated by graphviz version 8.1.0 (20230707.0739)
 -->
<!-- Title: is_valid_key Pages: 1 -->
<svg width="289pt" height="104pt"
 viewBox="0.00 0.00 289.25 104.00" xmlns="http://www.w3.org/2000/svg" xmlns:xlink="http://www.w3.org/1999/xlink">
<g id="graph0" class="graph" transform="scale(1 1) rotate(0) translate(4 100)">
<title>is_valid_key</title>
<!-- Node1 -->
<g id="Node000001" class="node">
<title>Node1</title>
<g id="a_Node000001"><a xlink:title="Check if a given key is valid.">
<polygon fill="#999999" stroke="#666666" points="281.25,-58 211.25,-58 211.25,-38 281.25,-38 281.25,-58"/>
<text text-anchor="middle" x="246.25" y="-44.5" font-family="Helvetica,sans-Serif" font-size="10.00">is_valid_key</text>
</a>
</g>
</g>
<!-- Node2 -->
<g id="Node000002" class="node">
<title>Node2</title>
<g id="a_Node000002"><a xlink:href="$crypt-utils_8c.html#a8845f5705eaafda836aac91d5881876f" xlink:title="Generate a new AES 256 key for a file.">
<polygon fill="white" stroke="#666666" points="175.25,-96 100.75,-96 100.75,-76 175.25,-76 175.25,-96"/>
<text text-anchor="middle" x="138" y="-82.5" font-family="Helvetica,sans-Serif" font-size="10.00">generate_key</text>
</a>
</g>
</g>
<!-- Node1&#45;&gt;Node2 -->
<g id="edge9_Node000001_Node000002" class="edge">
<title>Node1&#45;&gt;Node2</title>
<g id="a_edge9_Node000001_Node000002"><a xlink:title=" ">
<path fill="none" stroke="#63b8ff" d="M205.8,-62.11C193.35,-66.56 179.82,-71.4 168.22,-75.55"/>
<polygon fill="#63b8ff" stroke="#63b8ff" points="206.7,-65.15 214.94,-58.48 204.34,-58.56 206.7,-65.15"/>
</a>
</g>
</g>
<!-- Node3 -->
<g id="Node000003" class="node">
<title>Node3</title>
<g id="a_Node000003"><a xlink:href="$tcfs_8c.html#ad973ad9d6ab7d6276bf85cd8fecd0657" xlink:title="Create and open a file.">
<polygon fill="white" stroke="#666666" points="64.75,-77 0,-77 0,-57 64.75,-57 64.75,-77"/>
<text text-anchor="middle" x="32.38" y="-63.5" font-family="Helvetica,sans-Serif" font-size="10.00">tcfs_create</text>
</a>
</g>
</g>
<!-- Node1&#45;&gt;Node3 -->
<g id="edge12_Node000001_Node000003" class="edge">
<title>Node1&#45;&gt;Node3</title>
<g id="a_edge12_Node000001_Node000003"><a xlink:title=" ">
<path fill="none" stroke="#63b8ff" d="M200.25,-52.04C159.59,-55.68 100.77,-60.96 64.91,-64.17"/>
<polygon fill="#63b8ff" stroke="#63b8ff" points="200.56,-55.43 210.21,-51.05 199.94,-48.46 200.56,-55.43"/>
</a>
</g>
</g>
<!-- Node4 -->
<g id="Node000004" class="node">
<title>Node4</title>
<g id="a_Node000004"><a xlink:href="$tcfs_8c.html#a0ddf1224851353fc92bfbff6f499fa97" xlink:title="Main entry point for TCFS.">
<polygon fill="white" stroke="#666666" points="156.5,-20 119.5,-20 119.5,0 156.5,0 156.5,-20"/>
<text text-anchor="middle" x="138" y="-6.5" font-family="Helvetica,sans-Serif" font-size="10.00">main</text>
</a>
</g>
</g>
<!-- Node1&#45;&gt;Node4 -->
<g id="edge11_Node000001_Node000004" class="edge">
<title>Node1&#45;&gt;Node4</title>
<g id="a_edge11_Node000001_Node000004"><a xlink:title=" ">
<path fill="none" stroke="#63b8ff" d="M205.8,-33.89C189,-27.88 170.25,-21.18 156.9,-16.4"/>
<polygon fill="#63b8ff" stroke="#63b8ff" points="204.34,-37.44 214.94,-37.52 206.7,-30.85 204.34,-37.44"/>
</a>
</g>
</g>
<!-- Node2&#45;&gt;Node3 -->
<g id="edge10_Node000002_Node000003" class="edge">
<title>Node2&#45;&gt;Node3</title>
<g id="a_edge10_Node000002_Node000003"><a xlink:title=" ">
<path fill="none" stroke="#63b8ff" d="M89.68,-77.32C81.36,-75.8 72.88,-74.24 65.11,-72.82"/>
<polygon fill="#63b8ff" stroke="#63b8ff" points="89,-80.94 99.47,-79.3 90.26,-74.06 89,-80.94"/>
</a>
</g>
</g>
</g>
</svg>
