<?xml version="1.0" encoding="UTF-8" standalone="no"?>
<!DOCTYPE svg PUBLIC "-//W3C//DTD SVG 1.1//EN"
 "http://www.w3.org/Graphics/SVG/1.1/DTD/svg11.dtd">
<!-- Generated by graphviz version 8.1.0 (20230707.0739)
 -->
<!-- Title: userspace&#45;module/utils/crypt&#45;utils/crypt&#45;utils.h Pages: 1 -->
<svg width="947pt" height="164pt"
 viewBox="0.00 0.00 947.00 164.00" xmlns="http://www.w3.org/2000/svg" xmlns:xlink="http://www.w3.org/1999/xlink">
<g id="graph0" class="graph" transform="scale(1 1) rotate(0) translate(4 160)">
<title>userspace&#45;module/utils/crypt&#45;utils/crypt&#45;utils.h</title>
<!-- Node1 -->
<g id="Node000001" class="node">
<title>Node1</title>
<g id="a_Node000001"><a xlink:title="Header file for crypt&#45;utils.c, which provides functions for encryption and decryption using AES&#45;256,...">
<polygon fill="#999999" stroke="#666666" points="386.38,-156 269.88,-156 269.88,-124 386.38,-124 386.38,-156"/>
<text text-anchor="start" x="277.88" y="-142.5" font-family="Helvetica,sans-Serif" font-size="10.00">userspace&#45;module/utils</text>
<text text-anchor="middle" x="328.12" y="-130.5" font-family="Helvetica,sans-Serif" font-size="10.00">/crypt&#45;utils/crypt&#45;utils.h</text>
</a>
</g>
</g>
<!-- Node2 -->
<g id="Node000002" class="node">
<title>Node2</title>
<g id="a_Node000002"><a xlink:title=" ">
<polygon fill="#e0e0e0" stroke="#999999" points="48.25,-82 0,-82 0,-62 48.25,-62 48.25,-82"/>
<text text-anchor="middle" x="24.12" y="-68.5" font-family="Helvetica,sans-Serif" font-size="10.00">ctype.h</text>
</a>
</g>
</g>
<!-- Node1&#45;&gt;Node2 -->
<g id="edge43_Node000001_Node000002" class="edge">
<title>Node1&#45;&gt;Node2</title>
<g id="a_edge43_Node000001_Node000002"><a xlink:title=" ">
<path fill="none" stroke="#63b8ff" d="M269.51,-132.12C213.93,-124.62 128.56,-110.59 57.12,-88 55.62,-87.53 54.1,-87 52.58,-86.44"/>
<polygon fill="#63b8ff" stroke="#63b8ff" points="54.24,-82.93 43.66,-82.37 51.59,-89.41 54.24,-82.93"/>
</a>
</g>
</g>
<!-- Node3 -->
<g id="Node000003" class="node">
<title>Node3</title>
<g id="a_Node000003"><a xlink:title=" ">
<polygon fill="#e0e0e0" stroke="#999999" points="116,-82 66.25,-82 66.25,-62 116,-62 116,-82"/>
<text text-anchor="middle" x="91.12" y="-68.5" font-family="Helvetica,sans-Serif" font-size="10.00">libgen.h</text>
</a>
</g>
</g>
<!-- Node1&#45;&gt;Node3 -->
<g id="edge44_Node000001_Node000003" class="edge">
<title>Node1&#45;&gt;Node3</title>
<g id="a_edge44_Node000001_Node000003"><a xlink:title=" ">
<path fill="none" stroke="#63b8ff" d="M269.57,-125.79C229.89,-116.38 176.44,-102.82 130.12,-88 128.37,-87.44 126.57,-86.84 124.77,-86.22"/>
<polygon fill="#63b8ff" stroke="#63b8ff" points="126.07,-82.6 115.48,-82.48 123.69,-89.18 126.07,-82.6"/>
</a>
</g>
</g>
<!-- Node4 -->
<g id="Node000004" class="node">
<title>Node4</title>
<g id="a_Node000004"><a xlink:title=" ">
<polygon fill="#e0e0e0" stroke="#999999" points="126.75,-20 81.5,-20 81.5,0 126.75,0 126.75,-20"/>
<text text-anchor="middle" x="104.12" y="-6.5" font-family="Helvetica,sans-Serif" font-size="10.00">stdio.h</text>
</a>
</g>
</g>
<!-- Node1&#45;&gt;Node4 -->
<g id="edge45_Node000001_Node000004" class="edge">
<title>Node1&#45;&gt;Node4</title>
<g id="a_edge45_Node000001_Node000004"><a xlink:title=" ">
<path fill="none" stroke="#63b8ff" d="M285.7,-123.55C262.47,-114.42 233.52,-101.93 209.12,-88 177.46,-69.92 144.01,-44.06 123.6,-27.39"/>
<polygon fill="#63b8ff" stroke="#63b8ff" points="126.13,-24.12 116.19,-20.45 121.67,-29.51 126.13,-24.12"/>
</a>
</g>
</g>
<!-- Node5 -->
<g id="Node000005" class="node">
<title>Node5</title>
<g id="a_Node000005"><a xlink:title=" ">
<polygon fill="#e0e0e0" stroke="#999999" points="191.88,-20 144.38,-20 144.38,0 191.88,0 191.88,-20"/>
<text text-anchor="middle" x="168.12" y="-6.5" font-family="Helvetica,sans-Serif" font-size="10.00">stdlib.h</text>
</a>
</g>
</g>
<!-- Node1&#45;&gt;Node5 -->
<g id="edge46_Node000001_Node000005" class="edge">
<title>Node1&#45;&gt;Node5</title>
<g id="a_edge46_Node000001_Node000005"><a xlink:title=" ">
<path fill="none" stroke="#63b8ff" d="M300.92,-123.5C285,-113.99 264.82,-101.14 248.12,-88 224.13,-69.11 199.21,-44.12 183.68,-27.81"/>
<polygon fill="#63b8ff" stroke="#63b8ff" points="186.88,-26.03 177.48,-21.15 181.78,-30.83 186.88,-26.03"/>
</a>
</g>
</g>
<!-- Node6 -->
<g id="Node000006" class="node">
<title>Node6</title>
<g id="a_Node000006"><a xlink:title=" ">
<polygon fill="#e0e0e0" stroke="#999999" points="258.25,-20 210,-20 210,0 258.25,0 258.25,-20"/>
<text text-anchor="middle" x="234.12" y="-6.5" font-family="Helvetica,sans-Serif" font-size="10.00">string.h</text>
</a>
</g>
</g>
<!-- Node1&#45;&gt;Node6 -->
<g id="edge47_Node000001_Node000006" class="edge">
<title>Node1&#45;&gt;Node6</title>
<g id="a_edge47_Node000001_Node000006"><a xlink:title=" ">
<path fill="none" stroke="#63b8ff" d="M306.57,-123.58C294.7,-114.28 280.34,-101.62 270.12,-88 256.75,-70.16 246.62,-46.55 240.56,-30.2"/>
<polygon fill="#63b8ff" stroke="#63b8ff" points="243.66,-29.46 237.03,-21.2 237.06,-31.79 243.66,-29.46"/>
</a>
</g>
</g>
<!-- Node7 -->
<g id="Node000007" class="node">
<title>Node7</title>
<g id="a_Node000007"><a xlink:title=" ">
<polygon fill="#e0e0e0" stroke="#999999" points="458.12,-82 388.12,-82 388.12,-62 458.12,-62 458.12,-82"/>
<text text-anchor="middle" x="423.12" y="-68.5" font-family="Helvetica,sans-Serif" font-size="10.00">sys/mman.h</text>
</a>
</g>
</g>
<!-- Node1&#45;&gt;Node7 -->
<g id="edge48_Node000001_Node000007" class="edge">
<title>Node1&#45;&gt;Node7</title>
<g id="a_edge48_Node000001_Node000007"><a xlink:title=" ">
<path fill="none" stroke="#63b8ff" d="M350.16,-123.69C365.41,-113.1 385.63,-99.05 400.92,-88.42"/>
<polygon fill="#63b8ff" stroke="#63b8ff" points="402.5,-90.9 408.72,-82.32 398.51,-85.15 402.5,-90.9"/>
</a>
</g>
</g>
<!-- Node8 -->
<g id="Node000008" class="node">
<title>Node8</title>
<g id="a_Node000008"><a xlink:title=" ">
<polygon fill="#e0e0e0" stroke="#999999" points="326.38,-20 275.88,-20 275.88,0 326.38,0 326.38,-20"/>
<text text-anchor="middle" x="301.12" y="-6.5" font-family="Helvetica,sans-Serif" font-size="10.00">unistd.h</text>
</a>
</g>
</g>
<!-- Node1&#45;&gt;Node8 -->
<g id="edge49_Node000001_Node000008" class="edge">
<title>Node1&#45;&gt;Node8</title>
<g id="a_edge49_Node000001_Node000008"><a xlink:title=" ">
<path fill="none" stroke="#63b8ff" d="M305.9,-123.53C295.02,-114.56 283.02,-102.23 277.12,-88 269.04,-68.47 278.83,-45.21 288.23,-29.4"/>
<polygon fill="#63b8ff" stroke="#63b8ff" points="291.68,-31.5 294.16,-21.2 285.8,-27.71 291.68,-31.5"/>
</a>
</g>
</g>
<!-- Node9 -->
<g id="Node000009" class="node">
<title>Node9</title>
<g id="a_Node000009"><a xlink:title=" ">
<polygon fill="#e0e0e0" stroke="#999999" points="552.5,-82 475.75,-82 475.75,-62 552.5,-62 552.5,-82"/>
<text text-anchor="middle" x="514.12" y="-68.5" font-family="Helvetica,sans-Serif" font-size="10.00">openssl/aes.h</text>
</a>
</g>
</g>
<!-- Node1&#45;&gt;Node9 -->
<g id="edge50_Node000001_Node000009" class="edge">
<title>Node1&#45;&gt;Node9</title>
<g id="a_edge50_Node000001_Node000009"><a xlink:title=" ">
<path fill="none" stroke="#63b8ff" d="M371.73,-123.53C403.81,-112.14 446.94,-96.84 477.3,-86.07"/>
<polygon fill="#63b8ff" stroke="#63b8ff" points="478.21,-89.1 486.46,-82.46 475.87,-82.51 478.21,-89.1"/>
</a>
</g>
</g>
<!-- Node10 -->
<g id="Node000010" class="node">
<title>Node10</title>
<g id="a_Node000010"><a xlink:title=" ">
<polygon fill="#e0e0e0" stroke="#999999" points="644,-82 570.25,-82 570.25,-62 644,-62 644,-82"/>
<text text-anchor="middle" x="607.12" y="-68.5" font-family="Helvetica,sans-Serif" font-size="10.00">openssl/bio.h</text>
</a>
</g>
</g>
<!-- Node1&#45;&gt;Node10 -->
<g id="edge51_Node000001_Node000010" class="edge">
<title>Node1&#45;&gt;Node10</title>
<g id="a_edge51_Node000001_Node000010"><a xlink:title=" ">
<path fill="none" stroke="#63b8ff" d="M386.45,-127.91C433.81,-118.51 502.18,-104.02 561.12,-88 563.75,-87.29 566.45,-86.51 569.15,-85.71"/>
<polygon fill="#63b8ff" stroke="#63b8ff" points="570.01,-88.8 578.53,-82.49 567.94,-82.11 570.01,-88.8"/>
</a>
</g>
</g>
<!-- Node11 -->
<g id="Node000011" class="node">
<title>Node11</title>
<g id="a_Node000011"><a xlink:title=" ">
<polygon fill="#e0e0e0" stroke="#999999" points="746.62,-82 661.62,-82 661.62,-62 746.62,-62 746.62,-82"/>
<text text-anchor="middle" x="704.12" y="-68.5" font-family="Helvetica,sans-Serif" font-size="10.00">openssl/buffer.h</text>
</a>
</g>
</g>
<!-- Node1&#45;&gt;Node11 -->
<g id="edge52_Node000001_Node000011" class="edge">
<title>Node1&#45;&gt;Node11</title>
<g id="a_edge52_Node000001_Node000011"><a xlink:title=" ">
<path fill="none" stroke="#63b8ff" d="M386.68,-132.15C452.09,-123.96 560.9,-108.71 653.12,-88 656.7,-87.2 660.39,-86.28 664.08,-85.31"/>
<polygon fill="#63b8ff" stroke="#63b8ff" points="664.66,-88.51 673.36,-82.46 662.79,-81.76 664.66,-88.51"/>
</a>
</g>
</g>
<!-- Node12 -->
<g id="Node000012" class="node">
<title>Node12</title>
<g id="a_Node000012"><a xlink:title=" ">
<polygon fill="#e0e0e0" stroke="#999999" points="841.5,-82 764.75,-82 764.75,-62 841.5,-62 841.5,-82"/>
<text text-anchor="middle" x="803.12" y="-68.5" font-family="Helvetica,sans-Serif" font-size="10.00">openssl/evp.h</text>
</a>
</g>
</g>
<!-- Node1&#45;&gt;Node12 -->
<g id="edge53_Node000001_Node000012" class="edge">
<title>Node1&#45;&gt;Node12</title>
<g id="a_edge53_Node000001_Node000012"><a xlink:title=" ">
<path fill="none" stroke="#63b8ff" d="M386.86,-135.55C469.88,-129.88 625.96,-116.26 756.12,-88 759.37,-87.3 762.71,-86.46 766.04,-85.55"/>
<polygon fill="#63b8ff" stroke="#63b8ff" points="766.92,-88.65 775.52,-82.46 764.94,-81.93 766.92,-88.65"/>
</a>
</g>
</g>
<!-- Node13 -->
<g id="Node000013" class="node">
<title>Node13</title>
<g id="a_Node000013"><a xlink:title=" ">
<polygon fill="#e0e0e0" stroke="#999999" points="939,-82 859.25,-82 859.25,-62 939,-62 939,-82"/>
<text text-anchor="middle" x="899.12" y="-68.5" font-family="Helvetica,sans-Serif" font-size="10.00">openssl/rand.h</text>
</a>
</g>
</g>
<!-- Node1&#45;&gt;Node13 -->
<g id="edge54_Node000001_Node000013" class="edge">
<title>Node1&#45;&gt;Node13</title>
<g id="a_edge54_Node000001_Node000013"><a xlink:title=" ">
<path fill="none" stroke="#63b8ff" d="M386.62,-137.09C483.74,-133.07 684.04,-121.19 850.12,-88 853.77,-87.27 857.53,-86.38 861.27,-85.4"/>
<polygon fill="#63b8ff" stroke="#63b8ff" points="861.98,-88.56 870.64,-82.47 860.07,-81.82 861.98,-88.56"/>
</a>
</g>
</g>
<!-- Node14 -->
<g id="Node000014" class="node">
<title>Node14</title>
<g id="a_Node000014"><a xlink:href="$tcfs__utils_8h.html" xlink:title="Header file containing utility functions used by TCFS (Transparent Cryptographic Filesystem)">
<polygon fill="white" stroke="#666666" points="370.25,-88 286,-88 286,-56 370.25,-56 370.25,-88"/>
<text text-anchor="start" x="294" y="-74.5" font-family="Helvetica,sans-Serif" font-size="10.00">../tcfs_utils/tcfs</text>
<text text-anchor="middle" x="328.12" y="-62.5" font-family="Helvetica,sans-Serif" font-size="10.00">_utils.h</text>
</a>
</g>
</g>
<!-- Node1&#45;&gt;Node14 -->
<g id="edge55_Node000001_Node000014" class="edge">
<title>Node1&#45;&gt;Node14</title>
<g id="a_edge55_Node000001_Node000014"><a xlink:title=" ">
<path fill="none" stroke="#63b8ff" d="M328.12,-123.69C328.12,-116.36 328.12,-107.38 328.12,-99.02"/>
<polygon fill="#63b8ff" stroke="#63b8ff" points="331.63,-99.22 328.12,-89.22 324.63,-99.22 331.63,-99.22"/>
</a>
</g>
</g>
<!-- Node14&#45;&gt;Node4 -->
<g id="edge58_Node000014_Node000004" class="edge">
<title>Node14&#45;&gt;Node4</title>
<g id="a_edge58_Node000014_Node000004"><a xlink:title=" ">
<path fill="none" stroke="#63b8ff" d="M285.88,-60.15C249.02,-50.61 193.83,-36.17 137.63,-20.65"/>
<polygon fill="#63b8ff" stroke="#63b8ff" points="138.7,-17.04 128.13,-17.75 136.83,-23.79 138.7,-17.04"/>
</a>
</g>
</g>
<!-- Node14&#45;&gt;Node5 -->
<g id="edge59_Node000014_Node000005" class="edge">
<title>Node14&#45;&gt;Node5</title>
<g id="a_edge59_Node000014_Node000005"><a xlink:title=" ">
<path fill="none" stroke="#63b8ff" d="M286.92,-55.55C260.67,-45.7 227.07,-33.1 202.3,-23.82"/>
<polygon fill="#63b8ff" stroke="#63b8ff" points="203.87,-20.29 193.28,-20.06 201.41,-26.85 203.87,-20.29"/>
</a>
</g>
</g>
<!-- Node14&#45;&gt;Node6 -->
<g id="edge60_Node000014_Node000006" class="edge">
<title>Node14&#45;&gt;Node6</title>
<g id="a_edge60_Node000014_Node000006"><a xlink:title=" ">
<path fill="none" stroke="#63b8ff" d="M303.92,-55.55C289.77,-46.52 272,-35.17 257.92,-26.19"/>
<polygon fill="#63b8ff" stroke="#63b8ff" points="260.18,-22.84 249.86,-20.41 256.41,-28.74 260.18,-22.84"/>
</a>
</g>
</g>
<!-- Node14&#45;&gt;Node8 -->
<g id="edge62_Node000014_Node000008" class="edge">
<title>Node14&#45;&gt;Node8</title>
<g id="a_edge62_Node000014_Node000008"><a xlink:title=" ">
<path fill="none" stroke="#63b8ff" d="M321.17,-55.55C317.7,-47.82 313.45,-38.4 309.77,-30.21"/>
<polygon fill="#63b8ff" stroke="#63b8ff" points="312.65,-29.09 305.36,-21.41 306.27,-31.96 312.65,-29.09"/>
</a>
</g>
</g>
<!-- Node15 -->
<g id="Node000015" class="node">
<title>Node15</title>
<g id="a_Node000015"><a xlink:title=" ">
<polygon fill="#e0e0e0" stroke="#999999" points="390.12,-20 344.12,-20 344.12,0 390.12,0 390.12,-20"/>
<text text-anchor="middle" x="367.12" y="-6.5" font-family="Helvetica,sans-Serif" font-size="10.00">errno.h</text>
</a>
</g>
</g>
<!-- Node14&#45;&gt;Node15 -->
<g id="edge56_Node000014_Node000015" class="edge">
<title>Node14&#45;&gt;Node15</title>
<g id="a_edge56_Node000014_Node000015"><a xlink:title=" ">
<path fill="none" stroke="#63b8ff" d="M338.17,-55.55C343.36,-47.56 349.73,-37.76 355.17,-29.39"/>
<polygon fill="#63b8ff" stroke="#63b8ff" points="358.49,-31.7 361.01,-21.41 352.63,-27.88 358.49,-31.7"/>
</a>
</g>
</g>
<!-- Node16 -->
<g id="Node000016" class="node">
<title>Node16</title>
<g id="a_Node000016"><a xlink:title=" ">
<polygon fill="#e0e0e0" stroke="#999999" points="450.25,-20 408,-20 408,0 450.25,0 450.25,-20"/>
<text text-anchor="middle" x="429.12" y="-6.5" font-family="Helvetica,sans-Serif" font-size="10.00">pwd.h</text>
</a>
</g>
</g>
<!-- Node14&#45;&gt;Node16 -->
<g id="edge57_Node000014_Node000016" class="edge">
<title>Node14&#45;&gt;Node16</title>
<g id="a_edge57_Node000014_Node000016"><a xlink:title=" ">
<path fill="none" stroke="#63b8ff" d="M354.14,-55.55C369.48,-46.43 388.8,-34.96 403.99,-25.93"/>
<polygon fill="#63b8ff" stroke="#63b8ff" points="405.48,-28.52 412.29,-20.41 401.9,-22.51 405.48,-28.52"/>
</a>
</g>
</g>
<!-- Node17 -->
<g id="Node000017" class="node">
<title>Node17</title>
<g id="a_Node000017"><a xlink:title=" ">
<polygon fill="#e0e0e0" stroke="#999999" points="530.38,-20 467.88,-20 467.88,0 530.38,0 530.38,-20"/>
<text text-anchor="middle" x="499.12" y="-6.5" font-family="Helvetica,sans-Serif" font-size="10.00">sys/xattr.h</text>
</a>
</g>
</g>
<!-- Node14&#45;&gt;Node17 -->
<g id="edge61_Node000014_Node000017" class="edge">
<title>Node14&#45;&gt;Node17</title>
<g id="a_edge61_Node000014_Node000017"><a xlink:title=" ">
<path fill="none" stroke="#63b8ff" d="M370.39,-56.17C398.51,-46.3 435.09,-33.47 462.06,-24"/>
<polygon fill="#63b8ff" stroke="#63b8ff" points="462.98,-27.04 471.26,-20.43 460.66,-20.44 462.98,-27.04"/>
</a>
</g>
</g>
<!-- Node18 -->
<g id="Node000018" class="node">
<title>Node18</title>
<g id="a_Node000018"><a xlink:title=" ">
<polygon fill="#e0e0e0" stroke="#999999" points="604,-20 548.25,-20 548.25,0 604,0 604,-20"/>
<text text-anchor="middle" x="576.12" y="-6.5" font-family="Helvetica,sans-Serif" font-size="10.00">stdbool.h</text>
</a>
</g>
</g>
<!-- Node14&#45;&gt;Node18 -->
<g id="edge63_Node000014_Node000018" class="edge">
<title>Node14&#45;&gt;Node18</title>
<g id="a_edge63_Node000014_Node000018"><a xlink:title=" ">
<path fill="none" stroke="#63b8ff" d="M370.64,-58.27C373.51,-57.48 376.36,-56.72 379.12,-56 446.51,-38.53 466.39,-36.75 537.47,-20.34"/>
<polygon fill="#63b8ff" stroke="#63b8ff" points="537.91,-23.6 546.86,-17.93 536.32,-16.79 537.91,-23.6"/>
</a>
</g>
</g>
</g>
</svg>
