<?xml version="1.0" encoding="UTF-8" standalone="no"?>
<!DOCTYPE svg PUBLIC "-//W3C//DTD SVG 1.1//EN"
 "http://www.w3.org/Graphics/SVG/1.1/DTD/svg11.dtd">
<!-- Generated by graphviz version 8.1.0 (20230707.0739)
 -->
<!-- Title: encrypt_path_and_filename Pages: 1 -->
<svg width="364pt" height="332pt"
 viewBox="0.00 0.00 363.50 332.00" xmlns="http://www.w3.org/2000/svg" xmlns:xlink="http://www.w3.org/1999/xlink">
<g id="graph0" class="graph" transform="scale(1 1) rotate(0) translate(4 328)">
<title>encrypt_path_and_filename</title>
<!-- Node1 -->
<g id="Node000001" class="node">
<title>Node1</title>
<g id="a_Node000001"><a xlink:title="Encrypts the given filename with its path using a specified key.">
<polygon fill="#999999" stroke="#666666" points="355.5,-172 220.25,-172 220.25,-152 355.5,-152 355.5,-172"/>
<text text-anchor="middle" x="287.88" y="-158.5" font-family="Helvetica,sans-Serif" font-size="10.00">encrypt_path_and_filename</text>
</a>
</g>
</g>
<!-- Node2 -->
<g id="Node000002" class="node">
<title>Node2</title>
<g id="a_Node000002"><a xlink:href="$tcfs_8c.html#ad973ad9d6ab7d6276bf85cd8fecd0657" xlink:title="Create and open a file.">
<polygon fill="white" stroke="#666666" points="171.88,-324 107.12,-324 107.12,-304 171.88,-304 171.88,-324"/>
<text text-anchor="middle" x="139.5" y="-310.5" font-family="Helvetica,sans-Serif" font-size="10.00">tcfs_create</text>
</a>
</g>
</g>
<!-- Node1&#45;&gt;Node2 -->
<g id="edge23_Node000001_Node000002" class="edge">
<title>Node1&#45;&gt;Node2</title>
<g id="a_edge23_Node000001_Node000002"><a xlink:title=" ">
<path fill="none" stroke="#63b8ff" d="M276.04,-181.72C259.54,-210.15 225.65,-262.76 184.25,-295 179.94,-298.36 174.94,-301.25 169.9,-303.69"/>
<polygon fill="#63b8ff" stroke="#63b8ff" points="279.42,-183.85 281.31,-173.42 273.33,-180.4 279.42,-183.85"/>
</a>
</g>
</g>
<!-- Node3 -->
<g id="Node000003" class="node">
<title>Node3</title>
<g id="a_Node000003"><a xlink:href="$tcfs_8c.html#a014853840814f4d5225e2e28e129f9e5" xlink:title="Synchronizes file contents.">
<polygon fill="white" stroke="#666666" points="170.38,-286 108.62,-286 108.62,-266 170.38,-266 170.38,-286"/>
<text text-anchor="middle" x="139.5" y="-272.5" font-family="Helvetica,sans-Serif" font-size="10.00">tcfs_fsync</text>
</a>
</g>
</g>
<!-- Node1&#45;&gt;Node3 -->
<g id="edge24_Node000001_Node000003" class="edge">
<title>Node1&#45;&gt;Node3</title>
<g id="a_edge24_Node000001_Node000003"><a xlink:title=" ">
<path fill="none" stroke="#63b8ff" d="M270.64,-180.38C251.58,-201.11 218.23,-234.82 184.25,-257 179.4,-260.17 173.93,-263.02 168.54,-265.5"/>
<polygon fill="#63b8ff" stroke="#63b8ff" points="272.78,-183.13 276.9,-173.36 267.59,-178.43 272.78,-183.13"/>
</a>
</g>
</g>
<!-- Node4 -->
<g id="Node000004" class="node">
<title>Node4</title>
<g id="a_Node000004"><a xlink:href="$tcfs_8c.html#a6a031c4e3c6dd59051c09789c4666657" xlink:title="Get extended attribute data.">
<polygon fill="white" stroke="#666666" points="174.88,-248 104.12,-248 104.12,-228 174.88,-228 174.88,-248"/>
<text text-anchor="middle" x="139.5" y="-234.5" font-family="Helvetica,sans-Serif" font-size="10.00">tcfs_getxattr</text>
</a>
</g>
</g>
<!-- Node1&#45;&gt;Node4 -->
<g id="edge25_Node000001_Node000004" class="edge">
<title>Node1&#45;&gt;Node4</title>
<g id="a_edge25_Node000001_Node000004"><a xlink:title=" ">
<path fill="none" stroke="#63b8ff" d="M260.04,-177.85C239.55,-189.71 210.48,-206.06 184.25,-219 178.31,-221.93 171.81,-224.89 165.68,-227.56"/>
<polygon fill="#63b8ff" stroke="#63b8ff" points="261.48,-180.48 268.36,-172.42 257.95,-174.43 261.48,-180.48"/>
</a>
</g>
</g>
<!-- Node7 -->
<g id="Node000007" class="node">
<title>Node7</title>
<g id="a_Node000007"><a xlink:href="$tcfs_8c.html#a271df7bd878f5ed132e1f98487e8aebd" xlink:title="Creates a hard link.">
<polygon fill="white" stroke="#666666" points="165.88,-210 113.12,-210 113.12,-190 165.88,-190 165.88,-210"/>
<text text-anchor="middle" x="139.5" y="-196.5" font-family="Helvetica,sans-Serif" font-size="10.00">tcfs_link</text>
</a>
</g>
</g>
<!-- Node1&#45;&gt;Node7 -->
<g id="edge28_Node000001_Node000007" class="edge">
<title>Node1&#45;&gt;Node7</title>
<g id="a_edge28_Node000001_Node000007"><a xlink:title=" ">
<path fill="none" stroke="#63b8ff" d="M235.92,-175.23C212.3,-181.36 185.28,-188.38 166.03,-193.37"/>
<polygon fill="#63b8ff" stroke="#63b8ff" points="236.69,-178.38 245.49,-172.48 234.93,-171.61 236.69,-178.38"/>
</a>
</g>
</g>
<!-- Node8 -->
<g id="Node000008" class="node">
<title>Node8</title>
<g id="a_Node000008"><a xlink:href="$tcfs_8c.html#ae6edcf6a80467925a9a2112172395de1" xlink:title="Lists extended attributes.">
<polygon fill="white" stroke="#666666" points="174.5,-172 104.5,-172 104.5,-152 174.5,-152 174.5,-172"/>
<text text-anchor="middle" x="139.5" y="-158.5" font-family="Helvetica,sans-Serif" font-size="10.00">tcfs_listxattr</text>
</a>
</g>
</g>
<!-- Node1&#45;&gt;Node8 -->
<g id="edge29_Node000001_Node000008" class="edge">
<title>Node1&#45;&gt;Node8</title>
<g id="a_edge29_Node000001_Node000008"><a xlink:title=" ">
<path fill="none" stroke="#63b8ff" d="M209.43,-162C197.27,-162 185.28,-162 174.78,-162"/>
<polygon fill="#63b8ff" stroke="#63b8ff" points="209.11,-165.5 219.11,-162 209.11,-158.5 209.11,-165.5"/>
</a>
</g>
</g>
<!-- Node9 -->
<g id="Node000009" class="node">
<title>Node9</title>
<g id="a_Node000009"><a xlink:href="$tcfs_8c.html#a1241e1fcfe6bb4a5d49d8c8d4e737bcd" xlink:title="Releases an open file.">
<polygon fill="white" stroke="#666666" points="174.12,-134 104.88,-134 104.88,-114 174.12,-114 174.12,-134"/>
<text text-anchor="middle" x="139.5" y="-120.5" font-family="Helvetica,sans-Serif" font-size="10.00">tcfs_release</text>
</a>
</g>
</g>
<!-- Node1&#45;&gt;Node9 -->
<g id="edge30_Node000001_Node000009" class="edge">
<title>Node1&#45;&gt;Node9</title>
<g id="a_edge30_Node000001_Node000009"><a xlink:title=" ">
<path fill="none" stroke="#63b8ff" d="M236.08,-148.81C215.65,-143.51 192.64,-137.54 174.32,-132.78"/>
<polygon fill="#63b8ff" stroke="#63b8ff" points="234.93,-152.39 245.49,-151.52 236.69,-145.62 234.93,-152.39"/>
</a>
</g>
</g>
<!-- Node10 -->
<g id="Node000010" class="node">
<title>Node10</title>
<g id="a_Node000010"><a xlink:href="$tcfs_8c.html#acfe2c6a9467bd25a5ba6dc1a65209262" xlink:title="Remove an extended attribute.">
<polygon fill="white" stroke="#666666" points="184.25,-96 94.75,-96 94.75,-76 184.25,-76 184.25,-96"/>
<text text-anchor="middle" x="139.5" y="-82.5" font-family="Helvetica,sans-Serif" font-size="10.00">tcfs_removexattr</text>
</a>
</g>
</g>
<!-- Node1&#45;&gt;Node10 -->
<g id="edge31_Node000001_Node000010" class="edge">
<title>Node1&#45;&gt;Node10</title>
<g id="a_edge31_Node000001_Node000010"><a xlink:title=" ">
<path fill="none" stroke="#63b8ff" d="M260.04,-146.15C239.55,-134.29 210.48,-117.94 184.25,-105 178.31,-102.07 171.81,-99.11 165.68,-96.44"/>
<polygon fill="#63b8ff" stroke="#63b8ff" points="257.95,-149.57 268.36,-151.58 261.48,-143.52 257.95,-149.57"/>
</a>
</g>
</g>
<!-- Node11 -->
<g id="Node000011" class="node">
<title>Node11</title>
<g id="a_Node000011"><a xlink:href="$tcfs_8c.html#aee96b732a1569a607e63bac6fbe5c403" xlink:title="Renames a file or a directory.">
<polygon fill="white" stroke="#666666" points="174.5,-58 104.5,-58 104.5,-38 174.5,-38 174.5,-58"/>
<text text-anchor="middle" x="139.5" y="-44.5" font-family="Helvetica,sans-Serif" font-size="10.00">tcfs_rename</text>
</a>
</g>
</g>
<!-- Node1&#45;&gt;Node11 -->
<g id="edge32_Node000001_Node000011" class="edge">
<title>Node1&#45;&gt;Node11</title>
<g id="a_edge32_Node000001_Node000011"><a xlink:title=" ">
<path fill="none" stroke="#63b8ff" d="M270.64,-143.62C251.58,-122.89 218.23,-89.18 184.25,-67 179.4,-63.83 173.93,-60.98 168.54,-58.5"/>
<polygon fill="#63b8ff" stroke="#63b8ff" points="267.59,-145.57 276.9,-150.64 272.78,-140.87 267.59,-145.57"/>
</a>
</g>
</g>
<!-- Node12 -->
<g id="Node000012" class="node">
<title>Node12</title>
<g id="a_Node000012"><a xlink:href="$tcfs_8c.html#ac1d223f9b998d5af6bec3947d03be0fc" xlink:title="Creates a symbolic link.">
<polygon fill="white" stroke="#666666" points="175.25,-20 103.75,-20 103.75,0 175.25,0 175.25,-20"/>
<text text-anchor="middle" x="139.5" y="-6.5" font-family="Helvetica,sans-Serif" font-size="10.00">tcfs_symlink</text>
</a>
</g>
</g>
<!-- Node1&#45;&gt;Node12 -->
<g id="edge33_Node000001_Node000012" class="edge">
<title>Node1&#45;&gt;Node12</title>
<g id="a_edge33_Node000001_Node000012"><a xlink:title=" ">
<path fill="none" stroke="#63b8ff" d="M276.04,-142.28C259.54,-113.85 225.65,-61.24 184.25,-29 179.94,-25.64 174.94,-22.75 169.9,-20.31"/>
<polygon fill="#63b8ff" stroke="#63b8ff" points="273.33,-143.6 281.31,-150.58 279.42,-140.15 273.33,-143.6"/>
</a>
</g>
</g>
<!-- Node5 -->
<g id="Node000005" class="node">
<title>Node5</title>
<g id="a_Node000005"><a xlink:href="$tcfs_8c.html#a745384a010e20b082db26e16702a0129" xlink:title="Reads data from an open file.">
<polygon fill="white" stroke="#666666" points="57.62,-267 1.12,-267 1.12,-247 57.62,-247 57.62,-267"/>
<text text-anchor="middle" x="29.38" y="-253.5" font-family="Helvetica,sans-Serif" font-size="10.00">tcfs_read</text>
</a>
</g>
</g>
<!-- Node4&#45;&gt;Node5 -->
<g id="edge26_Node000004_Node000005" class="edge">
<title>Node4&#45;&gt;Node5</title>
<g id="a_edge26_Node000004_Node000005"><a xlink:title=" ">
<path fill="none" stroke="#63b8ff" d="M92.98,-246C81.06,-248.09 68.58,-250.29 57.92,-252.16"/>
<polygon fill="#63b8ff" stroke="#63b8ff" points="93.45,-249.29 102.69,-244.12 92.24,-242.4 93.45,-249.29"/>
</a>
</g>
</g>
<!-- Node6 -->
<g id="Node000006" class="node">
<title>Node6</title>
<g id="a_Node000006"><a xlink:href="$tcfs_8c.html#adaba2baa5a036b8f77ec187599498a66" xlink:title="Writes data to an open file.">
<polygon fill="white" stroke="#666666" points="58.75,-229 0,-229 0,-209 58.75,-209 58.75,-229"/>
<text text-anchor="middle" x="29.38" y="-215.5" font-family="Helvetica,sans-Serif" font-size="10.00">tcfs_write</text>
</a>
</g>
</g>
<!-- Node4&#45;&gt;Node6 -->
<g id="edge27_Node000004_Node000006" class="edge">
<title>Node4&#45;&gt;Node6</title>
<g id="a_edge27_Node000004_Node000006"><a xlink:title=" ">
<path fill="none" stroke="#63b8ff" d="M92.9,-229.99C81.39,-227.97 69.37,-225.85 58.97,-224.03"/>
<polygon fill="#63b8ff" stroke="#63b8ff" points="92.24,-233.6 102.69,-231.88 93.45,-226.71 92.24,-233.6"/>
</a>
</g>
</g>
</g>
</svg>
