<?xml version="1.0" encoding="UTF-8" standalone="no"?>
<!DOCTYPE svg PUBLIC "-//W3C//DTD SVG 1.1//EN"
 "http://www.w3.org/Graphics/SVG/1.1/DTD/svg11.dtd">
<!-- Generated by graphviz version 8.1.0 (20230707.0739)
 -->
<!-- Title: encrypt_path Pages: 1 -->
<svg width="290pt" height="636pt"
 viewBox="0.00 0.00 290.00 636.00" xmlns="http://www.w3.org/2000/svg" xmlns:xlink="http://www.w3.org/1999/xlink">
<g id="graph0" class="graph" transform="scale(1 1) rotate(0) translate(4 632)">
<title>encrypt_path</title>
<!-- Node1 -->
<g id="Node000001" class="node">
<title>Node1</title>
<g id="a_Node000001"><a xlink:title="Encrypts each part of the given path using a specified key.">
<polygon fill="#999999" stroke="#666666" points="282,-324 209.75,-324 209.75,-304 282,-304 282,-324"/>
<text text-anchor="middle" x="245.88" y="-310.5" font-family="Helvetica,sans-Serif" font-size="10.00">encrypt_path</text>
</a>
</g>
</g>
<!-- Node2 -->
<g id="Node000002" class="node">
<title>Node2</title>
<g id="a_Node000002"><a xlink:href="$tcfs_8c.html#a76af7857833338c73b9cafdce59ca01d" xlink:title="Checks file access permissions.">
<polygon fill="white" stroke="#666666" points="171.88,-628 102.62,-628 102.62,-608 171.88,-608 171.88,-628"/>
<text text-anchor="middle" x="137.25" y="-614.5" font-family="Helvetica,sans-Serif" font-size="10.00">tcfs_access</text>
</a>
</g>
</g>
<!-- Node1&#45;&gt;Node2 -->
<g id="edge39_Node000001_Node000002" class="edge">
<title>Node1&#45;&gt;Node2</title>
<g id="a_edge39_Node000001_Node000002"><a xlink:title=" ">
<path fill="none" stroke="#63b8ff" d="M244.48,-335.48C242.55,-385.41 231.84,-511.34 173.75,-594 169.9,-599.48 164.37,-604.07 158.82,-607.72"/>
<polygon fill="#63b8ff" stroke="#63b8ff" points="248,-335.59 244.8,-325.49 241.01,-335.38 248,-335.59"/>
</a>
</g>
</g>
<!-- Node3 -->
<g id="Node000003" class="node">
<title>Node3</title>
<g id="a_Node000003"><a xlink:href="$tcfs_8c.html#adaba2baa5a036b8f77ec187599498a66" xlink:title="Writes data to an open file.">
<polygon fill="white" stroke="#666666" points="61.75,-609 3,-609 3,-589 61.75,-589 61.75,-609"/>
<text text-anchor="middle" x="32.38" y="-595.5" font-family="Helvetica,sans-Serif" font-size="10.00">tcfs_write</text>
</a>
</g>
</g>
<!-- Node1&#45;&gt;Node3 -->
<g id="edge57_Node000001_Node000003" class="edge">
<title>Node1&#45;&gt;Node3</title>
<g id="a_edge57_Node000001_Node000003"><a xlink:title=" ">
<path fill="none" stroke="#63b8ff" d="M245.29,-335.24C245,-382.76 237.39,-498.37 173.75,-561 143.88,-590.4 93.72,-597.65 62.15,-599.11"/>
<polygon fill="#63b8ff" stroke="#63b8ff" points="248.78,-335.44 245.23,-325.46 241.78,-335.48 248.78,-335.44"/>
</a>
</g>
</g>
<!-- Node4 -->
<g id="Node000004" class="node">
<title>Node4</title>
<g id="a_Node000004"><a xlink:href="$tcfs_8c.html#a3cb10be0f6147667dc0e757636e9892f" xlink:title="Changes the permissions of a file.">
<polygon fill="white" stroke="#666666" points="170.75,-552 103.75,-552 103.75,-532 170.75,-532 170.75,-552"/>
<text text-anchor="middle" x="137.25" y="-538.5" font-family="Helvetica,sans-Serif" font-size="10.00">tcfs_chmod</text>
</a>
</g>
</g>
<!-- Node1&#45;&gt;Node4 -->
<g id="edge41_Node000001_Node000004" class="edge">
<title>Node1&#45;&gt;Node4</title>
<g id="a_edge41_Node000001_Node000004"><a xlink:title=" ">
<path fill="none" stroke="#63b8ff" d="M242.8,-335.21C237.81,-376.03 221.72,-466.47 173.75,-523 170.86,-526.41 167.19,-529.3 163.32,-531.73"/>
<polygon fill="#63b8ff" stroke="#63b8ff" points="246.37,-335.77 244,-325.44 239.42,-334.99 246.37,-335.77"/>
</a>
</g>
</g>
<!-- Node5 -->
<g id="Node000005" class="node">
<title>Node5</title>
<g id="a_Node000005"><a xlink:href="$tcfs_8c.html#afff31b61fa0723502cf85922816f14f9" xlink:title="Changes the owner and group of a file.">
<polygon fill="white" stroke="#666666" points="170.38,-514 104.12,-514 104.12,-494 170.38,-494 170.38,-514"/>
<text text-anchor="middle" x="137.25" y="-500.5" font-family="Helvetica,sans-Serif" font-size="10.00">tcfs_chown</text>
</a>
</g>
</g>
<!-- Node1&#45;&gt;Node5 -->
<g id="edge42_Node000001_Node000005" class="edge">
<title>Node1&#45;&gt;Node5</title>
<g id="a_edge42_Node000001_Node000005"><a xlink:title=" ">
<path fill="none" stroke="#63b8ff" d="M240.96,-334.89C233.47,-369.78 214.14,-440.48 173.75,-485 170.74,-488.31 167.02,-491.16 163.13,-493.56"/>
<polygon fill="#63b8ff" stroke="#63b8ff" points="244.58,-335.64 243.13,-325.14 237.72,-334.25 244.58,-335.64"/>
</a>
</g>
</g>
<!-- Node6 -->
<g id="Node000006" class="node">
<title>Node6</title>
<g id="a_Node000006"><a xlink:href="$tcfs_8c.html#a411eac4511d0eae4ce78a2fd3d22ac8c" xlink:title="Gets file attributes.">
<polygon fill="white" stroke="#666666" points="170,-476 104.5,-476 104.5,-456 170,-456 170,-476"/>
<text text-anchor="middle" x="137.25" y="-462.5" font-family="Helvetica,sans-Serif" font-size="10.00">tcfs_getattr</text>
</a>
</g>
</g>
<!-- Node1&#45;&gt;Node6 -->
<g id="edge43_Node000001_Node000006" class="edge">
<title>Node1&#45;&gt;Node6</title>
<g id="a_edge43_Node000001_Node000006"><a xlink:title=" ">
<path fill="none" stroke="#63b8ff" d="M238.19,-334.56C228.1,-362.88 206.62,-414.12 173.75,-447 170.49,-450.26 166.55,-453.11 162.5,-455.53"/>
<polygon fill="#63b8ff" stroke="#63b8ff" points="241.78,-335.86 241.71,-325.26 235.16,-333.59 241.78,-335.86"/>
</a>
</g>
</g>
<!-- Node7 -->
<g id="Node000007" class="node">
<title>Node7</title>
<g id="a_Node000007"><a xlink:href="$tcfs_8c.html#a682b553345b6d872453d1ace7339bb9e" xlink:title="Creates a directory.">
<polygon fill="white" stroke="#666666" points="168.12,-438 106.38,-438 106.38,-418 168.12,-418 168.12,-438"/>
<text text-anchor="middle" x="137.25" y="-424.5" font-family="Helvetica,sans-Serif" font-size="10.00">tcfs_mkdir</text>
</a>
</g>
</g>
<!-- Node1&#45;&gt;Node7 -->
<g id="edge44_Node000001_Node000007" class="edge">
<title>Node1&#45;&gt;Node7</title>
<g id="a_edge44_Node000001_Node000007"><a xlink:title=" ">
<path fill="none" stroke="#63b8ff" d="M233.71,-333.69C221.2,-354.43 199.28,-387.06 173.75,-409 170.04,-412.19 165.7,-415.05 161.36,-417.53"/>
<polygon fill="#63b8ff" stroke="#63b8ff" points="237.18,-335.7 239.22,-325.3 231.14,-332.16 237.18,-335.7"/>
</a>
</g>
</g>
<!-- Node8 -->
<g id="Node000008" class="node">
<title>Node8</title>
<g id="a_Node000008"><a xlink:href="$tcfs_8c.html#a151f53359474a95c52f5e79d438869bd" xlink:title="Creates a regular file or a special file (block or character).">
<polygon fill="white" stroke="#666666" points="170.75,-400 103.75,-400 103.75,-380 170.75,-380 170.75,-400"/>
<text text-anchor="middle" x="137.25" y="-386.5" font-family="Helvetica,sans-Serif" font-size="10.00">tcfs_mknod</text>
</a>
</g>
</g>
<!-- Node1&#45;&gt;Node8 -->
<g id="edge45_Node000001_Node000008" class="edge">
<title>Node1&#45;&gt;Node8</title>
<g id="a_edge45_Node000001_Node000008"><a xlink:title=" ">
<path fill="none" stroke="#63b8ff" d="M225.03,-331.55C211.17,-343.39 191.95,-358.98 173.75,-371 169.2,-374 164.13,-376.94 159.27,-379.57"/>
<polygon fill="#63b8ff" stroke="#63b8ff" points="227.04,-333.57 232.3,-324.38 222.45,-328.28 227.04,-333.57"/>
</a>
</g>
</g>
<!-- Node9 -->
<g id="Node000009" class="node">
<title>Node9</title>
<g id="a_Node000009"><a xlink:href="$tcfs_8c.html#af0c6a7d66189cc1e9fbfafba5255e60d" xlink:title="Opens a file.">
<polygon fill="white" stroke="#666666" points="166.62,-362 107.88,-362 107.88,-342 166.62,-342 166.62,-362"/>
<text text-anchor="middle" x="137.25" y="-348.5" font-family="Helvetica,sans-Serif" font-size="10.00">tcfs_open</text>
</a>
</g>
</g>
<!-- Node1&#45;&gt;Node9 -->
<g id="edge46_Node000001_Node000009" class="edge">
<title>Node1&#45;&gt;Node9</title>
<g id="a_edge46_Node000001_Node000009"><a xlink:title=" ">
<path fill="none" stroke="#63b8ff" d="M205.11,-328.17C192.4,-332.7 178.59,-337.62 166.84,-341.81"/>
<polygon fill="#63b8ff" stroke="#63b8ff" points="206.21,-331.14 214.46,-324.48 203.86,-324.54 206.21,-331.14"/>
</a>
</g>
</g>
<!-- Node10 -->
<g id="Node000010" class="node">
<title>Node10</title>
<g id="a_Node000010"><a xlink:href="$tcfs_8c.html#a92ebab5be45b159c2850a47a5072b58d" xlink:title="Opens a directory.">
<polygon fill="white" stroke="#666666" points="171.88,-324 102.62,-324 102.62,-304 171.88,-304 171.88,-324"/>
<text text-anchor="middle" x="137.25" y="-310.5" font-family="Helvetica,sans-Serif" font-size="10.00">tcfs_opendir</text>
</a>
</g>
</g>
<!-- Node1&#45;&gt;Node10 -->
<g id="edge47_Node000001_Node000010" class="edge">
<title>Node1&#45;&gt;Node10</title>
<g id="a_edge47_Node000001_Node000010"><a xlink:title=" ">
<path fill="none" stroke="#63b8ff" d="M198.4,-314C189.58,-314 180.5,-314 172.15,-314"/>
<polygon fill="#63b8ff" stroke="#63b8ff" points="198.37,-317.5 208.37,-314 198.37,-310.5 198.37,-317.5"/>
</a>
</g>
</g>
<!-- Node11 -->
<g id="Node000011" class="node">
<title>Node11</title>
<g id="a_Node000011"><a xlink:href="$tcfs_8c.html#a745384a010e20b082db26e16702a0129" xlink:title="Reads data from an open file.">
<polygon fill="white" stroke="#666666" points="165.5,-286 109,-286 109,-266 165.5,-266 165.5,-286"/>
<text text-anchor="middle" x="137.25" y="-272.5" font-family="Helvetica,sans-Serif" font-size="10.00">tcfs_read</text>
</a>
</g>
</g>
<!-- Node1&#45;&gt;Node11 -->
<g id="edge48_Node000001_Node000011" class="edge">
<title>Node1&#45;&gt;Node11</title>
<g id="a_edge48_Node000001_Node000011"><a xlink:title=" ">
<path fill="none" stroke="#63b8ff" d="M205.24,-299.87C192.1,-295.19 177.76,-290.08 165.74,-285.8"/>
<polygon fill="#63b8ff" stroke="#63b8ff" points="203.86,-303.46 214.46,-303.52 206.21,-296.86 203.86,-303.46"/>
</a>
</g>
</g>
<!-- Node12 -->
<g id="Node000012" class="node">
<title>Node12</title>
<g id="a_Node000012"><a xlink:href="$tcfs_8c.html#a1a713549c892f56a6522e6487c581d69" xlink:title="Reads a directory.">
<polygon fill="white" stroke="#666666" points="170.75,-248 103.75,-248 103.75,-228 170.75,-228 170.75,-248"/>
<text text-anchor="middle" x="137.25" y="-234.5" font-family="Helvetica,sans-Serif" font-size="10.00">tcfs_readdir</text>
</a>
</g>
</g>
<!-- Node1&#45;&gt;Node12 -->
<g id="edge49_Node000001_Node000012" class="edge">
<title>Node1&#45;&gt;Node12</title>
<g id="a_edge49_Node000001_Node000012"><a xlink:title=" ">
<path fill="none" stroke="#63b8ff" d="M225.03,-296.45C211.17,-284.61 191.95,-269.02 173.75,-257 169.2,-254 164.13,-251.06 159.27,-248.43"/>
<polygon fill="#63b8ff" stroke="#63b8ff" points="222.45,-299.72 232.3,-303.62 227.04,-294.43 222.45,-299.72"/>
</a>
</g>
</g>
<!-- Node13 -->
<g id="Node000013" class="node">
<title>Node13</title>
<g id="a_Node000013"><a xlink:href="$tcfs_8c.html#acb1e081efcbf61b6f34e8bbdf7af8979" xlink:title="Reads the target of a symbolic link.">
<polygon fill="white" stroke="#666666" points="173,-210 101.5,-210 101.5,-190 173,-190 173,-210"/>
<text text-anchor="middle" x="137.25" y="-196.5" font-family="Helvetica,sans-Serif" font-size="10.00">tcfs_readlink</text>
</a>
</g>
</g>
<!-- Node1&#45;&gt;Node13 -->
<g id="edge50_Node000001_Node000013" class="edge">
<title>Node1&#45;&gt;Node13</title>
<g id="a_edge50_Node000001_Node000013"><a xlink:title=" ">
<path fill="none" stroke="#63b8ff" d="M233.71,-294.31C221.2,-273.57 199.28,-240.94 173.75,-219 170.04,-215.81 165.7,-212.95 161.36,-210.47"/>
<polygon fill="#63b8ff" stroke="#63b8ff" points="231.14,-295.84 239.22,-302.7 237.18,-292.3 231.14,-295.84"/>
</a>
</g>
</g>
<!-- Node14 -->
<g id="Node000014" class="node">
<title>Node14</title>
<g id="a_Node000014"><a xlink:href="$tcfs_8c.html#a2853593dded66a922afbdc36afb15a50" xlink:title="Removes a directory.">
<polygon fill="white" stroke="#666666" points="167,-172 107.5,-172 107.5,-152 167,-152 167,-172"/>
<text text-anchor="middle" x="137.25" y="-158.5" font-family="Helvetica,sans-Serif" font-size="10.00">tcfs_rmdir</text>
</a>
</g>
</g>
<!-- Node1&#45;&gt;Node14 -->
<g id="edge51_Node000001_Node000014" class="edge">
<title>Node1&#45;&gt;Node14</title>
<g id="a_edge51_Node000001_Node000014"><a xlink:title=" ">
<path fill="none" stroke="#63b8ff" d="M238.19,-293.44C228.1,-265.12 206.62,-213.88 173.75,-181 170.49,-177.74 166.55,-174.89 162.5,-172.47"/>
<polygon fill="#63b8ff" stroke="#63b8ff" points="235.16,-294.41 241.71,-302.74 241.78,-292.14 235.16,-294.41"/>
</a>
</g>
</g>
<!-- Node15 -->
<g id="Node000015" class="node">
<title>Node15</title>
<g id="a_Node000015"><a xlink:href="$tcfs_8c.html#ad3c328fdcd93c8203e1ce9c785fd3a14" xlink:title="Sets extended attributes.">
<polygon fill="white" stroke="#666666" points="172.62,-134 101.88,-134 101.88,-114 172.62,-114 172.62,-134"/>
<text text-anchor="middle" x="137.25" y="-120.5" font-family="Helvetica,sans-Serif" font-size="10.00">tcfs_setxattr</text>
</a>
</g>
</g>
<!-- Node1&#45;&gt;Node15 -->
<g id="edge52_Node000001_Node000015" class="edge">
<title>Node1&#45;&gt;Node15</title>
<g id="a_edge52_Node000001_Node000015"><a xlink:title=" ">
<path fill="none" stroke="#63b8ff" d="M240.96,-293.11C233.47,-258.22 214.14,-187.52 173.75,-143 170.74,-139.69 167.02,-136.84 163.13,-134.44"/>
<polygon fill="#63b8ff" stroke="#63b8ff" points="237.72,-293.75 243.13,-302.86 244.58,-292.36 237.72,-293.75"/>
</a>
</g>
</g>
<!-- Node17 -->
<g id="Node000017" class="node">
<title>Node17</title>
<g id="a_Node000017"><a xlink:href="$tcfs_8c.html#a7e7f7a65b4e76cc96505d0c6d62fba9c" xlink:title="Truncates or extends the size of a file.">
<polygon fill="white" stroke="#666666" points="173.75,-96 100.75,-96 100.75,-76 173.75,-76 173.75,-96"/>
<text text-anchor="middle" x="137.25" y="-82.5" font-family="Helvetica,sans-Serif" font-size="10.00">tcfs_truncate</text>
</a>
</g>
</g>
<!-- Node1&#45;&gt;Node17 -->
<g id="edge54_Node000001_Node000017" class="edge">
<title>Node1&#45;&gt;Node17</title>
<g id="a_edge54_Node000001_Node000017"><a xlink:title=" ">
<path fill="none" stroke="#63b8ff" d="M242.8,-292.79C237.81,-251.97 221.72,-161.53 173.75,-105 170.86,-101.59 167.19,-98.7 163.32,-96.27"/>
<polygon fill="#63b8ff" stroke="#63b8ff" points="239.42,-293.01 244,-302.56 246.37,-292.23 239.42,-293.01"/>
</a>
</g>
</g>
<!-- Node18 -->
<g id="Node000018" class="node">
<title>Node18</title>
<g id="a_Node000018"><a xlink:href="$tcfs_8c.html#ac6d3a8a626363a6f98de64e585968b09" xlink:title="Removes a file.">
<polygon fill="white" stroke="#666666" points="168.88,-58 105.62,-58 105.62,-38 168.88,-38 168.88,-58"/>
<text text-anchor="middle" x="137.25" y="-44.5" font-family="Helvetica,sans-Serif" font-size="10.00">tcfs_unlink</text>
</a>
</g>
</g>
<!-- Node1&#45;&gt;Node18 -->
<g id="edge55_Node000001_Node000018" class="edge">
<title>Node1&#45;&gt;Node18</title>
<g id="a_edge55_Node000001_Node000018"><a xlink:title=" ">
<path fill="none" stroke="#63b8ff" d="M244.16,-292.83C241.56,-246.75 229.52,-135.98 173.75,-67 171.03,-63.63 167.54,-60.78 163.82,-58.39"/>
<polygon fill="#63b8ff" stroke="#63b8ff" points="240.71,-292.96 244.66,-302.79 247.7,-292.64 240.71,-292.96"/>
</a>
</g>
</g>
<!-- Node19 -->
<g id="Node000019" class="node">
<title>Node19</title>
<g id="a_Node000019"><a xlink:href="$tcfs_8c.html#aca5dccf989dfc270ca31e1d8b20bb60e" xlink:title="Modify the access and modification timestamps of a file in the TCFS file system.">
<polygon fill="white" stroke="#666666" points="173.38,-20 101.12,-20 101.12,0 173.38,0 173.38,-20"/>
<text text-anchor="middle" x="137.25" y="-6.5" font-family="Helvetica,sans-Serif" font-size="10.00">tcfs_utimens</text>
</a>
</g>
</g>
<!-- Node1&#45;&gt;Node19 -->
<g id="edge56_Node000001_Node000019" class="edge">
<title>Node1&#45;&gt;Node19</title>
<g id="a_edge56_Node000001_Node000019"><a xlink:title=" ">
<path fill="none" stroke="#63b8ff" d="M245.17,-292.75C244.81,-241.73 237.31,-110.57 173.75,-29 171.09,-25.58 167.63,-22.7 163.92,-20.31"/>
<polygon fill="#63b8ff" stroke="#63b8ff" points="241.67,-292.65 245.15,-302.66 248.67,-292.66 241.67,-292.65"/>
</a>
</g>
</g>
<!-- Node2&#45;&gt;Node3 -->
<g id="edge40_Node000002_Node000003" class="edge">
<title>Node2&#45;&gt;Node3</title>
<g id="a_edge40_Node000002_Node000003"><a xlink:title=" ">
<path fill="none" stroke="#63b8ff" d="M91.64,-609.76C81.64,-607.91 71.3,-606 62.15,-604.31"/>
<polygon fill="#63b8ff" stroke="#63b8ff" points="90.81,-613.35 101.28,-611.73 92.08,-606.47 90.81,-613.35"/>
</a>
</g>
</g>
<!-- Node16 -->
<g id="Node000016" class="node">
<title>Node16</title>
<g id="a_Node000016"><a xlink:href="$tcfs_8c.html#ad973ad9d6ab7d6276bf85cd8fecd0657" xlink:title="Create and open a file.">
<polygon fill="white" stroke="#666666" points="64.75,-134 0,-134 0,-114 64.75,-114 64.75,-134"/>
<text text-anchor="middle" x="32.38" y="-120.5" font-family="Helvetica,sans-Serif" font-size="10.00">tcfs_create</text>
</a>
</g>
</g>
<!-- Node15&#45;&gt;Node16 -->
<g id="edge53_Node000015_Node000016" class="edge">
<title>Node15&#45;&gt;Node16</title>
<g id="a_edge53_Node000015_Node000016"><a xlink:title=" ">
<path fill="none" stroke="#63b8ff" d="M90.67,-124C82.02,-124 73.15,-124 65.05,-124"/>
<polygon fill="#63b8ff" stroke="#63b8ff" points="90.42,-127.5 100.42,-124 90.42,-120.5 90.42,-127.5"/>
</a>
</g>
</g>
</g>
</svg>
