<?xml version="1.0" encoding="UTF-8" standalone="no"?>
<!DOCTYPE svg PUBLIC "-//W3C//DTD SVG 1.1//EN"
 "http://www.w3.org/Graphics/SVG/1.1/DTD/svg11.dtd">
<!-- Generated by graphviz version 8.1.0 (20230707.0739)
 -->
<!-- Title: userspace&#45;module/utils/crypt&#45;utils/crypt&#45;utils.c Pages: 1 -->
<svg width="947pt" height="220pt"
 viewBox="0.00 0.00 947.00 220.00" xmlns="http://www.w3.org/2000/svg" xmlns:xlink="http://www.w3.org/1999/xlink">
<g id="graph0" class="graph" transform="scale(1 1) rotate(0) translate(4 216)">
<title>userspace&#45;module/utils/crypt&#45;utils/crypt&#45;utils.c</title>
<!-- Node1 -->
<g id="Node000001" class="node">
<title>Node1</title>
<g id="a_Node000001"><a xlink:title="Implementation file for cryptographic utility functions.">
<polygon fill="#999999" stroke="#666666" points="386.38,-212 269.88,-212 269.88,-180 386.38,-180 386.38,-212"/>
<text text-anchor="start" x="277.88" y="-198.5" font-family="Helvetica,sans-Serif" font-size="10.00">userspace&#45;module/utils</text>
<text text-anchor="middle" x="328.12" y="-186.5" font-family="Helvetica,sans-Serif" font-size="10.00">/crypt&#45;utils/crypt&#45;utils.c</text>
</a>
</g>
</g>
<!-- Node2 -->
<g id="Node000002" class="node">
<title>Node2</title>
<g id="a_Node000002"><a xlink:href="$crypt-utils_8h.html" xlink:title="Header file for crypt&#45;utils.c, which provides functions for encryption and decryption using AES&#45;256,...">
<polygon fill="white" stroke="#666666" points="361.62,-144 294.62,-144 294.62,-124 361.62,-124 361.62,-144"/>
<text text-anchor="middle" x="328.12" y="-130.5" font-family="Helvetica,sans-Serif" font-size="10.00">crypt&#45;utils.h</text>
</a>
</g>
</g>
<!-- Node1&#45;&gt;Node2 -->
<g id="edge45_Node000001_Node000002" class="edge">
<title>Node1&#45;&gt;Node2</title>
<g id="a_edge45_Node000001_Node000002"><a xlink:title=" ">
<path fill="none" stroke="#63b8ff" d="M328.12,-179.55C328.12,-172.17 328.12,-163.24 328.12,-155.32"/>
<polygon fill="#63b8ff" stroke="#63b8ff" points="331.63,-155.41 328.12,-145.41 324.63,-155.41 331.63,-155.41"/>
</a>
</g>
</g>
<!-- Node3 -->
<g id="Node000003" class="node">
<title>Node3</title>
<g id="a_Node000003"><a xlink:title=" ">
<polygon fill="#e0e0e0" stroke="#999999" points="48.25,-82 0,-82 0,-62 48.25,-62 48.25,-82"/>
<text text-anchor="middle" x="24.12" y="-68.5" font-family="Helvetica,sans-Serif" font-size="10.00">ctype.h</text>
</a>
</g>
</g>
<!-- Node2&#45;&gt;Node3 -->
<g id="edge46_Node000002_Node000003" class="edge">
<title>Node2&#45;&gt;Node3</title>
<g id="a_edge46_Node000002_Node000003"><a xlink:title=" ">
<path fill="none" stroke="#63b8ff" d="M294.53,-130.27C242.66,-125.43 140.39,-113.35 57.12,-88 55.62,-87.54 54.09,-87.03 52.57,-86.48"/>
<polygon fill="#63b8ff" stroke="#63b8ff" points="54.22,-82.97 43.64,-82.44 51.59,-89.45 54.22,-82.97"/>
</a>
</g>
</g>
<!-- Node4 -->
<g id="Node000004" class="node">
<title>Node4</title>
<g id="a_Node000004"><a xlink:title=" ">
<polygon fill="#e0e0e0" stroke="#999999" points="116,-82 66.25,-82 66.25,-62 116,-62 116,-82"/>
<text text-anchor="middle" x="91.12" y="-68.5" font-family="Helvetica,sans-Serif" font-size="10.00">libgen.h</text>
</a>
</g>
</g>
<!-- Node2&#45;&gt;Node4 -->
<g id="edge47_Node000002_Node000004" class="edge">
<title>Node2&#45;&gt;Node4</title>
<g id="a_edge47_Node000002_Node000004"><a xlink:title=" ">
<path fill="none" stroke="#63b8ff" d="M294.46,-126.88C254.75,-119.31 186.95,-105.29 130.12,-88 128.23,-87.42 126.29,-86.8 124.35,-86.14"/>
<polygon fill="#63b8ff" stroke="#63b8ff" points="125.63,-82.52 115.03,-82.44 123.26,-89.11 125.63,-82.52"/>
</a>
</g>
</g>
<!-- Node5 -->
<g id="Node000005" class="node">
<title>Node5</title>
<g id="a_Node000005"><a xlink:title=" ">
<polygon fill="#e0e0e0" stroke="#999999" points="126.75,-20 81.5,-20 81.5,0 126.75,0 126.75,-20"/>
<text text-anchor="middle" x="104.12" y="-6.5" font-family="Helvetica,sans-Serif" font-size="10.00">stdio.h</text>
</a>
</g>
</g>
<!-- Node2&#45;&gt;Node5 -->
<g id="edge48_Node000002_Node000005" class="edge">
<title>Node2&#45;&gt;Node5</title>
<g id="a_edge48_Node000002_Node000005"><a xlink:title=" ">
<path fill="none" stroke="#63b8ff" d="M294.32,-123.65C268.93,-115.92 233.74,-103.67 205.12,-88 173.91,-70.9 141.9,-44.75 122.51,-27.76"/>
<polygon fill="#63b8ff" stroke="#63b8ff" points="125.1,-25.49 115.3,-21.45 120.44,-30.71 125.1,-25.49"/>
</a>
</g>
</g>
<!-- Node6 -->
<g id="Node000006" class="node">
<title>Node6</title>
<g id="a_Node000006"><a xlink:title=" ">
<polygon fill="#e0e0e0" stroke="#999999" points="191.88,-20 144.38,-20 144.38,0 191.88,0 191.88,-20"/>
<text text-anchor="middle" x="168.12" y="-6.5" font-family="Helvetica,sans-Serif" font-size="10.00">stdlib.h</text>
</a>
</g>
</g>
<!-- Node2&#45;&gt;Node6 -->
<g id="edge49_Node000002_Node000006" class="edge">
<title>Node2&#45;&gt;Node6</title>
<g id="a_edge49_Node000002_Node000006"><a xlink:title=" ">
<path fill="none" stroke="#63b8ff" d="M307.29,-123.56C290.12,-115.33 265.53,-102.46 246.12,-88 221.96,-69.99 197.84,-44.79 182.96,-28.19"/>
<polygon fill="#63b8ff" stroke="#63b8ff" points="186.31,-26.56 177.07,-21.38 181.06,-31.19 186.31,-26.56"/>
</a>
</g>
</g>
<!-- Node7 -->
<g id="Node000007" class="node">
<title>Node7</title>
<g id="a_Node000007"><a xlink:title=" ">
<polygon fill="#e0e0e0" stroke="#999999" points="258.25,-20 210,-20 210,0 258.25,0 258.25,-20"/>
<text text-anchor="middle" x="234.12" y="-6.5" font-family="Helvetica,sans-Serif" font-size="10.00">string.h</text>
</a>
</g>
</g>
<!-- Node2&#45;&gt;Node7 -->
<g id="edge50_Node000002_Node000007" class="edge">
<title>Node2&#45;&gt;Node7</title>
<g id="a_edge50_Node000002_Node000007"><a xlink:title=" ">
<path fill="none" stroke="#63b8ff" d="M311.56,-123.53C298.63,-115.45 280.93,-102.81 269.12,-88 255.29,-70.65 245.6,-46.95 239.97,-30.44"/>
<polygon fill="#63b8ff" stroke="#63b8ff" points="243.11,-29.78 236.73,-21.33 236.45,-31.92 243.11,-29.78"/>
</a>
</g>
</g>
<!-- Node8 -->
<g id="Node000008" class="node">
<title>Node8</title>
<g id="a_Node000008"><a xlink:title=" ">
<polygon fill="#e0e0e0" stroke="#999999" points="458.12,-82 388.12,-82 388.12,-62 458.12,-62 458.12,-82"/>
<text text-anchor="middle" x="423.12" y="-68.5" font-family="Helvetica,sans-Serif" font-size="10.00">sys/mman.h</text>
</a>
</g>
</g>
<!-- Node2&#45;&gt;Node8 -->
<g id="edge51_Node000002_Node000008" class="edge">
<title>Node2&#45;&gt;Node8</title>
<g id="a_edge51_Node000002_Node000008"><a xlink:title=" ">
<path fill="none" stroke="#63b8ff" d="M342.97,-123.62C358.03,-114.11 381.57,-99.24 399.26,-88.08"/>
<polygon fill="#63b8ff" stroke="#63b8ff" points="400.8,-90.61 407.39,-82.31 397.06,-84.69 400.8,-90.61"/>
</a>
</g>
</g>
<!-- Node9 -->
<g id="Node000009" class="node">
<title>Node9</title>
<g id="a_Node000009"><a xlink:title=" ">
<polygon fill="#e0e0e0" stroke="#999999" points="326.38,-20 275.88,-20 275.88,0 326.38,0 326.38,-20"/>
<text text-anchor="middle" x="301.12" y="-6.5" font-family="Helvetica,sans-Serif" font-size="10.00">unistd.h</text>
</a>
</g>
</g>
<!-- Node2&#45;&gt;Node9 -->
<g id="edge52_Node000002_Node000009" class="edge">
<title>Node2&#45;&gt;Node9</title>
<g id="a_edge52_Node000002_Node000009"><a xlink:title=" ">
<path fill="none" stroke="#63b8ff" d="M311.4,-123.6C299.38,-115.8 284.12,-103.5 277.12,-88 268.35,-68.55 278.52,-44.98 288.2,-29.08"/>
<polygon fill="#63b8ff" stroke="#63b8ff" points="291.42,-31.55 293.98,-21.27 285.57,-27.71 291.42,-31.55"/>
</a>
</g>
</g>
<!-- Node10 -->
<g id="Node000010" class="node">
<title>Node10</title>
<g id="a_Node000010"><a xlink:title=" ">
<polygon fill="#e0e0e0" stroke="#999999" points="552.5,-82 475.75,-82 475.75,-62 552.5,-62 552.5,-82"/>
<text text-anchor="middle" x="514.12" y="-68.5" font-family="Helvetica,sans-Serif" font-size="10.00">openssl/aes.h</text>
</a>
</g>
</g>
<!-- Node2&#45;&gt;Node10 -->
<g id="edge53_Node000002_Node000010" class="edge">
<title>Node2&#45;&gt;Node10</title>
<g id="a_edge53_Node000002_Node000010"><a xlink:title=" ">
<path fill="none" stroke="#63b8ff" d="M357.19,-123.62C388.76,-113.44 439.39,-97.11 474.58,-85.76"/>
<polygon fill="#63b8ff" stroke="#63b8ff" points="475.52,-88.81 483.96,-82.41 473.37,-82.15 475.52,-88.81"/>
</a>
</g>
</g>
<!-- Node11 -->
<g id="Node000011" class="node">
<title>Node11</title>
<g id="a_Node000011"><a xlink:title=" ">
<polygon fill="#e0e0e0" stroke="#999999" points="644,-82 570.25,-82 570.25,-62 644,-62 644,-82"/>
<text text-anchor="middle" x="607.12" y="-68.5" font-family="Helvetica,sans-Serif" font-size="10.00">openssl/bio.h</text>
</a>
</g>
</g>
<!-- Node2&#45;&gt;Node11 -->
<g id="edge54_Node000002_Node000011" class="edge">
<title>Node2&#45;&gt;Node11</title>
<g id="a_edge54_Node000002_Node000011"><a xlink:title=" ">
<path fill="none" stroke="#63b8ff" d="M361.99,-127.82C407.6,-120.53 491.12,-106.1 561.12,-88 563.93,-87.28 566.81,-86.48 569.69,-85.63"/>
<polygon fill="#63b8ff" stroke="#63b8ff" points="570.52,-88.73 579.05,-82.45 568.46,-82.04 570.52,-88.73"/>
</a>
</g>
</g>
<!-- Node12 -->
<g id="Node000012" class="node">
<title>Node12</title>
<g id="a_Node000012"><a xlink:title=" ">
<polygon fill="#e0e0e0" stroke="#999999" points="746.62,-82 661.62,-82 661.62,-62 746.62,-62 746.62,-82"/>
<text text-anchor="middle" x="704.12" y="-68.5" font-family="Helvetica,sans-Serif" font-size="10.00">openssl/buffer.h</text>
</a>
</g>
</g>
<!-- Node2&#45;&gt;Node12 -->
<g id="edge55_Node000002_Node000012" class="edge">
<title>Node2&#45;&gt;Node12</title>
<g id="a_edge55_Node000002_Node000012"><a xlink:title=" ">
<path fill="none" stroke="#63b8ff" d="M362.1,-129.97C421.56,-124.3 548.15,-110.57 653.12,-88 656.75,-87.22 660.5,-86.31 664.24,-85.34"/>
<polygon fill="#63b8ff" stroke="#63b8ff" points="664.94,-88.5 673.65,-82.48 663.08,-81.76 664.94,-88.5"/>
</a>
</g>
</g>
<!-- Node13 -->
<g id="Node000013" class="node">
<title>Node13</title>
<g id="a_Node000013"><a xlink:title=" ">
<polygon fill="#e0e0e0" stroke="#999999" points="841.5,-82 764.75,-82 764.75,-62 841.5,-62 841.5,-82"/>
<text text-anchor="middle" x="803.12" y="-68.5" font-family="Helvetica,sans-Serif" font-size="10.00">openssl/evp.h</text>
</a>
</g>
</g>
<!-- Node2&#45;&gt;Node13 -->
<g id="edge56_Node000002_Node000013" class="edge">
<title>Node2&#45;&gt;Node13</title>
<g id="a_edge56_Node000002_Node000013"><a xlink:title=" ">
<path fill="none" stroke="#63b8ff" d="M362.06,-131.78C434.93,-128.66 611.53,-118.34 756.12,-88 759.56,-87.28 763.1,-86.4 766.63,-85.44"/>
<polygon fill="#63b8ff" stroke="#63b8ff" points="767.43,-88.56 776.03,-82.37 765.45,-81.85 767.43,-88.56"/>
</a>
</g>
</g>
<!-- Node14 -->
<g id="Node000014" class="node">
<title>Node14</title>
<g id="a_Node000014"><a xlink:title=" ">
<polygon fill="#e0e0e0" stroke="#999999" points="939,-82 859.25,-82 859.25,-62 939,-62 939,-82"/>
<text text-anchor="middle" x="899.12" y="-68.5" font-family="Helvetica,sans-Serif" font-size="10.00">openssl/rand.h</text>
</a>
</g>
</g>
<!-- Node2&#45;&gt;Node14 -->
<g id="edge57_Node000002_Node000014" class="edge">
<title>Node2&#45;&gt;Node14</title>
<g id="a_edge57_Node000002_Node000014"><a xlink:title=" ">
<path fill="none" stroke="#63b8ff" d="M362.05,-132.54C445.74,-130.89 668.4,-123.24 850.12,-88 853.82,-87.28 857.63,-86.4 861.41,-85.41"/>
<polygon fill="#63b8ff" stroke="#63b8ff" points="862.24,-88.53 870.91,-82.44 860.34,-81.8 862.24,-88.53"/>
</a>
</g>
</g>
<!-- Node15 -->
<g id="Node000015" class="node">
<title>Node15</title>
<g id="a_Node000015"><a xlink:href="$tcfs__utils_8h.html" xlink:title="Header file containing utility functions used by TCFS (Transparent Cryptographic Filesystem)">
<polygon fill="white" stroke="#666666" points="370.25,-88 286,-88 286,-56 370.25,-56 370.25,-88"/>
<text text-anchor="start" x="294" y="-74.5" font-family="Helvetica,sans-Serif" font-size="10.00">../tcfs_utils/tcfs</text>
<text text-anchor="middle" x="328.12" y="-62.5" font-family="Helvetica,sans-Serif" font-size="10.00">_utils.h</text>
</a>
</g>
</g>
<!-- Node2&#45;&gt;Node15 -->
<g id="edge58_Node000002_Node000015" class="edge">
<title>Node2&#45;&gt;Node15</title>
<g id="a_edge58_Node000002_Node000015"><a xlink:title=" ">
<path fill="none" stroke="#63b8ff" d="M328.12,-123.62C328.12,-117.02 328.12,-107.84 328.12,-99.11"/>
<polygon fill="#63b8ff" stroke="#63b8ff" points="331.63,-99.14 328.12,-89.14 324.63,-99.14 331.63,-99.14"/>
</a>
</g>
</g>
<!-- Node15&#45;&gt;Node5 -->
<g id="edge61_Node000015_Node000005" class="edge">
<title>Node15&#45;&gt;Node5</title>
<g id="a_edge61_Node000015_Node000005"><a xlink:title=" ">
<path fill="none" stroke="#63b8ff" d="M285.88,-60.15C249.02,-50.61 193.83,-36.17 137.63,-20.65"/>
<polygon fill="#63b8ff" stroke="#63b8ff" points="138.7,-17.04 128.13,-17.75 136.83,-23.79 138.7,-17.04"/>
</a>
</g>
</g>
<!-- Node15&#45;&gt;Node6 -->
<g id="edge62_Node000015_Node000006" class="edge">
<title>Node15&#45;&gt;Node6</title>
<g id="a_edge62_Node000015_Node000006"><a xlink:title=" ">
<path fill="none" stroke="#63b8ff" d="M286.92,-55.55C260.67,-45.7 227.07,-33.1 202.3,-23.82"/>
<polygon fill="#63b8ff" stroke="#63b8ff" points="203.87,-20.29 193.28,-20.06 201.41,-26.85 203.87,-20.29"/>
</a>
</g>
</g>
<!-- Node15&#45;&gt;Node7 -->
<g id="edge63_Node000015_Node000007" class="edge">
<title>Node15&#45;&gt;Node7</title>
<g id="a_edge63_Node000015_Node000007"><a xlink:title=" ">
<path fill="none" stroke="#63b8ff" d="M303.92,-55.55C289.77,-46.52 272,-35.17 257.92,-26.19"/>
<polygon fill="#63b8ff" stroke="#63b8ff" points="260.18,-22.84 249.86,-20.41 256.41,-28.74 260.18,-22.84"/>
</a>
</g>
</g>
<!-- Node15&#45;&gt;Node9 -->
<g id="edge65_Node000015_Node000009" class="edge">
<title>Node15&#45;&gt;Node9</title>
<g id="a_edge65_Node000015_Node000009"><a xlink:title=" ">
<path fill="none" stroke="#63b8ff" d="M321.17,-55.55C317.7,-47.82 313.45,-38.4 309.77,-30.21"/>
<polygon fill="#63b8ff" stroke="#63b8ff" points="312.65,-29.09 305.36,-21.41 306.27,-31.96 312.65,-29.09"/>
</a>
</g>
</g>
<!-- Node16 -->
<g id="Node000016" class="node">
<title>Node16</title>
<g id="a_Node000016"><a xlink:title=" ">
<polygon fill="#e0e0e0" stroke="#999999" points="390.12,-20 344.12,-20 344.12,0 390.12,0 390.12,-20"/>
<text text-anchor="middle" x="367.12" y="-6.5" font-family="Helvetica,sans-Serif" font-size="10.00">errno.h</text>
</a>
</g>
</g>
<!-- Node15&#45;&gt;Node16 -->
<g id="edge59_Node000015_Node000016" class="edge">
<title>Node15&#45;&gt;Node16</title>
<g id="a_edge59_Node000015_Node000016"><a xlink:title=" ">
<path fill="none" stroke="#63b8ff" d="M338.17,-55.55C343.36,-47.56 349.73,-37.76 355.17,-29.39"/>
<polygon fill="#63b8ff" stroke="#63b8ff" points="358.49,-31.7 361.01,-21.41 352.63,-27.88 358.49,-31.7"/>
</a>
</g>
</g>
<!-- Node17 -->
<g id="Node000017" class="node">
<title>Node17</title>
<g id="a_Node000017"><a xlink:title=" ">
<polygon fill="#e0e0e0" stroke="#999999" points="450.25,-20 408,-20 408,0 450.25,0 450.25,-20"/>
<text text-anchor="middle" x="429.12" y="-6.5" font-family="Helvetica,sans-Serif" font-size="10.00">pwd.h</text>
</a>
</g>
</g>
<!-- Node15&#45;&gt;Node17 -->
<g id="edge60_Node000015_Node000017" class="edge">
<title>Node15&#45;&gt;Node17</title>
<g id="a_edge60_Node000015_Node000017"><a xlink:title=" ">
<path fill="none" stroke="#63b8ff" d="M354.14,-55.55C369.48,-46.43 388.8,-34.96 403.99,-25.93"/>
<polygon fill="#63b8ff" stroke="#63b8ff" points="405.48,-28.52 412.29,-20.41 401.9,-22.51 405.48,-28.52"/>
</a>
</g>
</g>
<!-- Node18 -->
<g id="Node000018" class="node">
<title>Node18</title>
<g id="a_Node000018"><a xlink:title=" ">
<polygon fill="#e0e0e0" stroke="#999999" points="530.38,-20 467.88,-20 467.88,0 530.38,0 530.38,-20"/>
<text text-anchor="middle" x="499.12" y="-6.5" font-family="Helvetica,sans-Serif" font-size="10.00">sys/xattr.h</text>
</a>
</g>
</g>
<!-- Node15&#45;&gt;Node18 -->
<g id="edge64_Node000015_Node000018" class="edge">
<title>Node15&#45;&gt;Node18</title>
<g id="a_edge64_Node000015_Node000018"><a xlink:title=" ">
<path fill="none" stroke="#63b8ff" d="M370.39,-56.17C398.51,-46.3 435.09,-33.47 462.06,-24"/>
<polygon fill="#63b8ff" stroke="#63b8ff" points="462.98,-27.04 471.26,-20.43 460.66,-20.44 462.98,-27.04"/>
</a>
</g>
</g>
<!-- Node19 -->
<g id="Node000019" class="node">
<title>Node19</title>
<g id="a_Node000019"><a xlink:title=" ">
<polygon fill="#e0e0e0" stroke="#999999" points="604,-20 548.25,-20 548.25,0 604,0 604,-20"/>
<text text-anchor="middle" x="576.12" y="-6.5" font-family="Helvetica,sans-Serif" font-size="10.00">stdbool.h</text>
</a>
</g>
</g>
<!-- Node15&#45;&gt;Node19 -->
<g id="edge66_Node000015_Node000019" class="edge">
<title>Node15&#45;&gt;Node19</title>
<g id="a_edge66_Node000015_Node000019"><a xlink:title=" ">
<path fill="none" stroke="#63b8ff" d="M370.64,-58.27C373.51,-57.48 376.36,-56.72 379.12,-56 446.51,-38.53 466.39,-36.75 537.47,-20.34"/>
<polygon fill="#63b8ff" stroke="#63b8ff" points="537.91,-23.6 546.86,-17.93 536.32,-16.79 537.91,-23.6"/>
</a>
</g>
</g>
</g>
</svg>
