<?xml version="1.0" encoding="UTF-8" standalone="no"?>
<!DOCTYPE svg PUBLIC "-//W3C//DTD SVG 1.1//EN"
 "http://www.w3.org/Graphics/SVG/1.1/DTD/svg11.dtd">
<!-- Generated by graphviz version 7.1.0 (0)
 -->
<!-- Title: daemon/daemon_utils/common_utils/print/print_utils.c Pages: 1 -->
<svg width="389pt" height="159pt"
 viewBox="0.00 0.00 389.00 159.00" xmlns="http://www.w3.org/2000/svg" xmlns:xlink="http://www.w3.org/1999/xlink">
<g id="graph0" class="graph" transform="scale(1 1) rotate(0) translate(4 155)">
<title>daemon/daemon_utils/common_utils/print/print_utils.c</title>
<!-- Node1 -->
<g id="Node000001" class="node">
<title>Node1</title>
<g id="a_Node000001"><a xlink:title="This file defines some QoL functions.">
<polygon fill="#999999" stroke="#666666" points="209.5,-151 97.5,-151 97.5,-110 209.5,-110 209.5,-151"/>
<text text-anchor="start" x="105.5" y="-139" font-family="Helvetica,sans-Serif" font-size="10.00">daemon/daemon_utils</text>
<text text-anchor="start" x="105.5" y="-128" font-family="Helvetica,sans-Serif" font-size="10.00">/common_utils/print</text>
<text text-anchor="middle" x="153.5" y="-117" font-family="Helvetica,sans-Serif" font-size="10.00">/print_utils.c</text>
</a>
</g>
</g>
<!-- Node2 -->
<g id="Node000002" class="node">
<title>Node2</title>
<g id="a_Node000002"><a xlink:href="$print__utils_8h_source.html" xlink:title=" ">
<polygon fill="white" stroke="#666666" points="187,-74 120,-74 120,-55 187,-55 187,-74"/>
<text text-anchor="middle" x="153.5" y="-62" font-family="Helvetica,sans-Serif" font-size="10.00">print_utils.h</text>
</a>
</g>
</g>
<!-- Node1&#45;&gt;Node2 -->
<g id="edge13_Node000001_Node000002" class="edge">
<title>Node1&#45;&gt;Node2</title>
<g id="a_edge13_Node000001_Node000002"><a xlink:title=" ">
<path fill="none" stroke="#63b8ff" d="M153.5,-109.6C153.5,-101.98 153.5,-93.3 153.5,-85.66"/>
<polygon fill="#63b8ff" stroke="#63b8ff" points="157,-85.68 153.5,-75.68 150,-85.68 157,-85.68"/>
</a>
</g>
</g>
<!-- Node3 -->
<g id="Node000003" class="node">
<title>Node3</title>
<g id="a_Node000003"><a xlink:title=" ">
<polygon fill="#e0e0e0" stroke="#999999" points="47,-19 0,-19 0,0 47,0 47,-19"/>
<text text-anchor="middle" x="23.5" y="-7" font-family="Helvetica,sans-Serif" font-size="10.00">errno.h</text>
</a>
</g>
</g>
<!-- Node2&#45;&gt;Node3 -->
<g id="edge14_Node000002_Node000003" class="edge">
<title>Node2&#45;&gt;Node3</title>
<g id="a_edge14_Node000002_Node000003"><a xlink:title=" ">
<path fill="none" stroke="#63b8ff" d="M131.45,-54.51C110.69,-46.04 79.34,-33.27 55.77,-23.66"/>
<polygon fill="#63b8ff" stroke="#63b8ff" points="57.21,-20.46 46.63,-19.93 54.57,-26.95 57.21,-20.46"/>
</a>
</g>
</g>
<!-- Node4 -->
<g id="Node000004" class="node">
<title>Node4</title>
<g id="a_Node000004"><a xlink:title=" ">
<polygon fill="#e0e0e0" stroke="#999999" points="111.5,-19 65.5,-19 65.5,0 111.5,0 111.5,-19"/>
<text text-anchor="middle" x="88.5" y="-7" font-family="Helvetica,sans-Serif" font-size="10.00">stdio.h</text>
</a>
</g>
</g>
<!-- Node2&#45;&gt;Node4 -->
<g id="edge15_Node000002_Node000004" class="edge">
<title>Node2&#45;&gt;Node4</title>
<g id="a_edge15_Node000002_Node000004"><a xlink:title=" ">
<path fill="none" stroke="#63b8ff" d="M142.47,-54.51C133.08,-46.85 119.35,-35.66 108.09,-26.47"/>
<polygon fill="#63b8ff" stroke="#63b8ff" points="110.5,-23.92 100.54,-20.31 106.07,-29.35 110.5,-23.92"/>
</a>
</g>
</g>
<!-- Node5 -->
<g id="Node000005" class="node">
<title>Node5</title>
<g id="a_Node000005"><a xlink:title=" ">
<polygon fill="#e0e0e0" stroke="#999999" points="177.5,-19 129.5,-19 129.5,0 177.5,0 177.5,-19"/>
<text text-anchor="middle" x="153.5" y="-7" font-family="Helvetica,sans-Serif" font-size="10.00">stdlib.h</text>
</a>
</g>
</g>
<!-- Node2&#45;&gt;Node5 -->
<g id="edge16_Node000002_Node000005" class="edge">
<title>Node2&#45;&gt;Node5</title>
<g id="a_edge16_Node000002_Node000005"><a xlink:title=" ">
<path fill="none" stroke="#63b8ff" d="M153.5,-54.75C153.5,-48.27 153.5,-39.16 153.5,-30.9"/>
<polygon fill="#63b8ff" stroke="#63b8ff" points="157,-30.96 153.5,-20.96 150,-30.96 157,-30.96"/>
</a>
</g>
</g>
<!-- Node6 -->
<g id="Node000006" class="node">
<title>Node6</title>
<g id="a_Node000006"><a xlink:title=" ">
<polygon fill="#e0e0e0" stroke="#999999" points="255.5,-19 195.5,-19 195.5,0 255.5,0 255.5,-19"/>
<text text-anchor="middle" x="225.5" y="-7" font-family="Helvetica,sans-Serif" font-size="10.00">sys/stat.h</text>
</a>
</g>
</g>
<!-- Node2&#45;&gt;Node6 -->
<g id="edge17_Node000002_Node000006" class="edge">
<title>Node2&#45;&gt;Node6</title>
<g id="a_edge17_Node000002_Node000006"><a xlink:title=" ">
<path fill="none" stroke="#63b8ff" d="M165.71,-54.51C176.33,-46.7 191.94,-35.21 204.54,-25.93"/>
<polygon fill="#63b8ff" stroke="#63b8ff" points="206.27,-29 212.25,-20.26 202.12,-23.36 206.27,-29"/>
</a>
</g>
</g>
<!-- Node7 -->
<g id="Node000007" class="node">
<title>Node7</title>
<g id="a_Node000007"><a xlink:title=" ">
<polygon fill="#e0e0e0" stroke="#999999" points="381,-19 274,-19 274,0 381,0 381,-19"/>
<text text-anchor="middle" x="327.5" y="-7" font-family="Helvetica,sans-Serif" font-size="10.00">systemd/sd&#45;journal.h</text>
</a>
</g>
</g>
<!-- Node2&#45;&gt;Node7 -->
<g id="edge18_Node000002_Node000007" class="edge">
<title>Node2&#45;&gt;Node7</title>
<g id="a_edge18_Node000002_Node000007"><a xlink:title=" ">
<path fill="none" stroke="#63b8ff" d="M183.02,-54.51C211.73,-45.76 255.55,-32.42 287.41,-22.71"/>
<polygon fill="#63b8ff" stroke="#63b8ff" points="288.14,-26.15 296.68,-19.89 286.1,-19.45 288.14,-26.15"/>
</a>
</g>
</g>
</g>
</svg>
