<?xml version="1.0" encoding="UTF-8" standalone="no"?>
<!DOCTYPE svg PUBLIC "-//W3C//DTD SVG 1.1//EN"
 "http://www.w3.org/Graphics/SVG/1.1/DTD/svg11.dtd">
<!-- Generated by graphviz version 7.1.0 (0)
 -->
<!-- Title: print_err Pages: 1 -->
<svg width="439pt" height="354pt"
 viewBox="0.00 0.00 439.00 354.21" xmlns="http://www.w3.org/2000/svg" xmlns:xlink="http://www.w3.org/1999/xlink">
<g id="graph0" class="graph" transform="scale(1 1) rotate(0) translate(4 350.21)">
<title>print_err</title>
<!-- Node1 -->
<g id="Node000001" class="node">
<title>Node1</title>
<g id="a_Node000001"><a xlink:title="Format and print data as an error.">
<polygon fill="#999999" stroke="#666666" points="431,-177.21 379,-177.21 379,-158.21 431,-158.21 431,-177.21"/>
<text text-anchor="middle" x="405" y="-165.21" font-family="Helvetica,sans-Serif" font-size="10.00">print_err</text>
</a>
</g>
</g>
<!-- Node2 -->
<g id="Node000002" class="node">
<title>Node2</title>
<g id="a_Node000002"><a xlink:href="$queue_8c.html#a1874b6e320d1e54d571c89766d046602" xlink:title="Dequeue a message from the queue and get is as a void* pointing to a structure that will be either &#160;&#160;...">
<polygon fill="white" stroke="#666666" points="320,-346.21 267,-346.21 267,-327.21 320,-327.21 320,-346.21"/>
<text text-anchor="middle" x="293.5" y="-334.21" font-family="Helvetica,sans-Serif" font-size="10.00">dequeue</text>
</a>
</g>
</g>
<!-- Node1&#45;&gt;Node2 -->
<g id="edge33_Node000001_Node000002" class="edge">
<title>Node1&#45;&gt;Node2</title>
<g id="a_edge33_Node000001_Node000002"><a xlink:title=" ">
<path fill="none" stroke="#63b8ff" d="M400.98,-188.89C395.29,-221.16 380.05,-282.71 343,-318.71 336.82,-324.72 328.45,-328.76 320.41,-331.45"/>
<polygon fill="#63b8ff" stroke="#63b8ff" points="404.4,-189.63 402.52,-179.2 397.49,-188.53 404.4,-189.63"/>
</a>
</g>
</g>
<!-- Node3 -->
<g id="Node000003" class="node">
<title>Node3</title>
<g id="a_Node000003"><a xlink:href="$queue_8c.html#ac51f5d595a9d7376eb0448116c99e1f4" xlink:title="Enqueues a message void* message on the queue.">
<polygon fill="white" stroke="#666666" points="320,-309.21 267,-309.21 267,-290.21 320,-290.21 320,-309.21"/>
<text text-anchor="middle" x="293.5" y="-297.21" font-family="Helvetica,sans-Serif" font-size="10.00">enqueue</text>
</a>
</g>
</g>
<!-- Node1&#45;&gt;Node3 -->
<g id="edge34_Node000001_Node000003" class="edge">
<title>Node1&#45;&gt;Node3</title>
<g id="a_edge34_Node000001_Node000003"><a xlink:title=" ">
<path fill="none" stroke="#63b8ff" d="M397.99,-188.34C389.6,-213.66 372.07,-256.35 343,-281.71 336.57,-287.32 328.23,-291.25 320.29,-293.97"/>
<polygon fill="#63b8ff" stroke="#63b8ff" points="401.29,-189.49 400.93,-178.9 394.61,-187.41 401.29,-189.49"/>
</a>
</g>
</g>
<!-- Node4 -->
<g id="Node000004" class="node">
<title>Node4</title>
<g id="a_Node000004"><a xlink:href="$redis_8c.html#a73711c0a9d0060337409d15dc44f5ad1" xlink:title="Fetch the user on the DB with key name.">
<polygon fill="white" stroke="#666666" points="343,-272.21 244,-272.21 244,-253.21 343,-253.21 343,-272.21"/>
<text text-anchor="middle" x="293.5" y="-260.21" font-family="Helvetica,sans-Serif" font-size="10.00">get_user_by_name</text>
</a>
</g>
</g>
<!-- Node1&#45;&gt;Node4 -->
<g id="edge35_Node000001_Node000004" class="edge">
<title>Node1&#45;&gt;Node4</title>
<g id="a_edge35_Node000001_Node000004"><a xlink:title=" ">
<path fill="none" stroke="#63b8ff" d="M391.03,-186.68C379.72,-202.16 362.16,-223.83 343,-238.71 335.88,-244.25 327.28,-249 319.31,-252.79"/>
<polygon fill="#63b8ff" stroke="#63b8ff" points="393.71,-188.95 396.64,-178.77 388,-184.91 393.71,-188.95"/>
</a>
</g>
</g>
<!-- Node5 -->
<g id="Node000005" class="node">
<title>Node5</title>
<g id="a_Node000005"><a xlink:href="$redis_8c.html#a2678c0575f2b6c944fd261255aeaebff" xlink:title="Remove a user from the DB using the name as key.">
<polygon fill="white" stroke="#666666" points="208,-253.21 119,-253.21 119,-234.21 208,-234.21 208,-253.21"/>
<text text-anchor="middle" x="163.5" y="-241.21" font-family="Helvetica,sans-Serif" font-size="10.00">remove_by_user</text>
</a>
</g>
</g>
<!-- Node1&#45;&gt;Node5 -->
<g id="edge48_Node000001_Node000005" class="edge">
<title>Node1&#45;&gt;Node5</title>
<g id="a_edge48_Node000001_Node000005"><a xlink:title=" ">
<path fill="none" stroke="#63b8ff" d="M381.81,-184.15C370.66,-191.72 356.64,-200.21 343,-205.71 298.93,-223.5 245.22,-233.49 208.3,-238.71"/>
<polygon fill="#63b8ff" stroke="#63b8ff" points="383.75,-187.07 389.91,-178.45 379.72,-181.34 383.75,-187.07"/>
</a>
</g>
</g>
<!-- Node6 -->
<g id="Node000006" class="node">
<title>Node6</title>
<g id="a_Node000006"><a xlink:href="$redis_8c.html#af0bf1bfc99afc940619371e3c76ab4f9" xlink:title="Fetch the user on the DB with key pid.">
<polygon fill="white" stroke="#666666" points="337.5,-196.21 249.5,-196.21 249.5,-177.21 337.5,-177.21 337.5,-196.21"/>
<text text-anchor="middle" x="293.5" y="-184.21" font-family="Helvetica,sans-Serif" font-size="10.00">get_user_by_pid</text>
</a>
</g>
</g>
<!-- Node1&#45;&gt;Node6 -->
<g id="edge37_Node000001_Node000006" class="edge">
<title>Node1&#45;&gt;Node6</title>
<g id="a_edge37_Node000001_Node000006"><a xlink:title=" ">
<path fill="none" stroke="#63b8ff" d="M367.49,-174.05C357.97,-175.7 347.61,-177.5 337.78,-179.21"/>
<polygon fill="#63b8ff" stroke="#63b8ff" points="367.86,-177.54 377.11,-172.38 366.66,-170.64 367.86,-177.54"/>
</a>
</g>
</g>
<!-- Node7 -->
<g id="Node000007" class="node">
<title>Node7</title>
<g id="a_Node000007"><a xlink:href="$redis_8c.html#a6b18d7ad2f1e8275106a5b39c0c7d216" xlink:title="Remove a user from the DB using the PID as key.">
<polygon fill="white" stroke="#666666" points="205,-177.21 122,-177.21 122,-158.21 205,-158.21 205,-177.21"/>
<text text-anchor="middle" x="163.5" y="-165.21" font-family="Helvetica,sans-Serif" font-size="10.00">remove_by_pid</text>
</a>
</g>
</g>
<!-- Node1&#45;&gt;Node7 -->
<g id="edge47_Node000001_Node000007" class="edge">
<title>Node1&#45;&gt;Node7</title>
<g id="a_edge47_Node000001_Node000007"><a xlink:title=" ">
<path fill="none" stroke="#63b8ff" d="M367.58,-167.71C323.87,-167.71 250.79,-167.71 205.24,-167.71"/>
<polygon fill="#63b8ff" stroke="#63b8ff" points="367.31,-171.22 377.31,-167.71 367.31,-164.22 367.31,-171.22"/>
</a>
</g>
</g>
<!-- Node9 -->
<g id="Node000009" class="node">
<title>Node9</title>
<g id="a_Node000009"><a xlink:href="$redis_8c.html#a1f6dc2f98a71a88567fe11fd9e2585ea" xlink:title="initialize the context for the Redis DB">
<polygon fill="white" stroke="#666666" points="327,-120.21 260,-120.21 260,-101.21 327,-101.21 327,-120.21"/>
<text text-anchor="middle" x="293.5" y="-108.21" font-family="Helvetica,sans-Serif" font-size="10.00">init_context</text>
</a>
</g>
</g>
<!-- Node1&#45;&gt;Node9 -->
<g id="edge40_Node000001_Node000009" class="edge">
<title>Node1&#45;&gt;Node9</title>
<g id="a_edge40_Node000001_Node000009"><a xlink:title=" ">
<path fill="none" stroke="#63b8ff" d="M375.85,-152.21C365.56,-146.61 353.79,-140.3 343,-134.71 333.82,-129.96 323.58,-124.86 314.88,-120.59"/>
<polygon fill="#63b8ff" stroke="#63b8ff" points="374.16,-155.27 384.61,-157 377.52,-149.13 374.16,-155.27"/>
</a>
</g>
</g>
<!-- Node11 -->
<g id="Node000011" class="node">
<title>Node11</title>
<g id="a_Node000011"><a xlink:href="$queue_8c.html#a6997b2cacf3d2e49bc848d0274e24b13" xlink:title="Initialize the message queue.">
<polygon fill="white" stroke="#666666" points="324,-46.21 263,-46.21 263,-27.21 324,-27.21 324,-46.21"/>
<text text-anchor="middle" x="293.5" y="-34.21" font-family="Helvetica,sans-Serif" font-size="10.00">init_queue</text>
</a>
</g>
</g>
<!-- Node1&#45;&gt;Node11 -->
<g id="edge42_Node000001_Node000011" class="edge">
<title>Node1&#45;&gt;Node11</title>
<g id="a_edge42_Node000001_Node000011"><a xlink:title=" ">
<path fill="none" stroke="#63b8ff" d="M397.69,-147.16C389.08,-122.33 371.4,-80.76 343,-55.71 337.64,-50.99 330.97,-47.37 324.31,-44.63"/>
<polygon fill="#63b8ff" stroke="#63b8ff" points="394.28,-148.01 400.72,-156.43 400.93,-145.83 394.28,-148.01"/>
</a>
</g>
</g>
<!-- Node12 -->
<g id="Node000012" class="node">
<title>Node12</title>
<g id="a_Node000012"><a xlink:href="$tcfs__daemon_8c.html#ae66f6b31b5ad750f1fe042a706a4e3d4" xlink:title="main function of the daemon. This will daemonize the program, spawn a thread to handle messages and h...">
<polygon fill="white" stroke="#666666" points="182.5,-36.21 144.5,-36.21 144.5,-17.21 182.5,-17.21 182.5,-36.21"/>
<text text-anchor="middle" x="163.5" y="-24.21" font-family="Helvetica,sans-Serif" font-size="10.00">main</text>
</a>
</g>
</g>
<!-- Node1&#45;&gt;Node12 -->
<g id="edge46_Node000001_Node000012" class="edge">
<title>Node1&#45;&gt;Node12</title>
<g id="a_edge46_Node000001_Node000012"><a xlink:title=" ">
<path fill="none" stroke="#63b8ff" d="M402.5,-146.38C398.84,-112.38 386.23,-46.8 343,-17.71 293.44,15.63 217.49,-6.26 182.85,-19.17"/>
<polygon fill="#63b8ff" stroke="#63b8ff" points="399.01,-146.56 403.38,-156.21 405.98,-145.94 399.01,-146.56"/>
</a>
</g>
</g>
<!-- Node13 -->
<g id="Node000013" class="node">
<title>Node13</title>
<g id="a_Node000013"><a xlink:href="$redis_8c.html#ac9878ee09b53700eb08c1f175873c30b" xlink:title="Insert a new user in the DB.">
<polygon fill="white" stroke="#666666" points="314,-83.21 273,-83.21 273,-64.21 314,-64.21 314,-83.21"/>
<text text-anchor="middle" x="293.5" y="-71.21" font-family="Helvetica,sans-Serif" font-size="10.00">insert</text>
</a>
</g>
</g>
<!-- Node1&#45;&gt;Node13 -->
<g id="edge44_Node000001_Node000013" class="edge">
<title>Node1&#45;&gt;Node13</title>
<g id="a_edge44_Node000001_Node000013"><a xlink:title=" ">
<path fill="none" stroke="#63b8ff" d="M392.44,-148.48C381.52,-131.75 363.77,-107.88 343,-92.71 334.38,-86.42 323.4,-81.89 314.07,-78.84"/>
<polygon fill="#63b8ff" stroke="#63b8ff" points="389.22,-149.95 397.51,-156.55 395.15,-146.22 389.22,-149.95"/>
</a>
</g>
</g>
<!-- Node4&#45;&gt;Node5 -->
<g id="edge36_Node000004_Node000005" class="edge">
<title>Node4&#45;&gt;Node5</title>
<g id="a_edge36_Node000004_Node000005"><a xlink:title=" ">
<path fill="none" stroke="#63b8ff" d="M232.59,-253.82C224.33,-252.6 215.98,-251.36 208.09,-250.18"/>
<polygon fill="#63b8ff" stroke="#63b8ff" points="231.84,-257.25 242.25,-255.26 232.87,-250.33 231.84,-257.25"/>
</a>
</g>
</g>
<!-- Node6&#45;&gt;Node7 -->
<g id="edge38_Node000006_Node000007" class="edge">
<title>Node6&#45;&gt;Node7</title>
<g id="a_edge38_Node000006_Node000007"><a xlink:title=" ">
<path fill="none" stroke="#63b8ff" d="M237.92,-178.61C226.95,-176.98 215.6,-175.3 205.2,-173.76"/>
<polygon fill="#63b8ff" stroke="#63b8ff" points="237.26,-182.05 247.67,-180.06 238.29,-175.13 237.26,-182.05"/>
</a>
</g>
</g>
<!-- Node8 -->
<g id="Node000008" class="node">
<title>Node8</title>
<g id="a_Node000008"><a xlink:href="$user__db_8c.html#a6e2fcf4aa637e61f69b1b601981663cf" xlink:title="Remove a user from the DB.">
<polygon fill="white" stroke="#666666" points="83,-177.21 0,-177.21 0,-158.21 83,-158.21 83,-177.21"/>
<text text-anchor="middle" x="41.5" y="-165.21" font-family="Helvetica,sans-Serif" font-size="10.00">unregister_user</text>
</a>
</g>
</g>
<!-- Node7&#45;&gt;Node8 -->
<g id="edge39_Node000007_Node000008" class="edge">
<title>Node7&#45;&gt;Node8</title>
<g id="a_edge39_Node000007_Node000008"><a xlink:title=" ">
<path fill="none" stroke="#63b8ff" d="M110.28,-167.71C101.24,-167.71 91.96,-167.71 83.28,-167.71"/>
<polygon fill="#63b8ff" stroke="#63b8ff" points="110.02,-171.22 120.02,-167.71 110.02,-164.22 110.02,-171.22"/>
</a>
</g>
</g>
<!-- Node10 -->
<g id="Node000010" class="node">
<title>Node10</title>
<g id="a_Node000010"><a xlink:href="$user__db_8c.html#a2ae8a82033440194ad80949cd4493971" xlink:title="Register or update a user in the db, this relies on the redis.c file.">
<polygon fill="white" stroke="#666666" points="200,-92.21 127,-92.21 127,-73.21 200,-73.21 200,-92.21"/>
<text text-anchor="middle" x="163.5" y="-80.21" font-family="Helvetica,sans-Serif" font-size="10.00">register_user</text>
</a>
</g>
</g>
<!-- Node9&#45;&gt;Node10 -->
<g id="edge41_Node000009_Node000010" class="edge">
<title>Node9&#45;&gt;Node10</title>
<g id="a_edge41_Node000009_Node000010"><a xlink:title=" ">
<path fill="none" stroke="#63b8ff" d="M248.42,-101.07C232.62,-97.62 215.03,-93.77 200.05,-90.49"/>
<polygon fill="#63b8ff" stroke="#63b8ff" points="247.54,-104.46 258.06,-103.18 249.04,-97.62 247.54,-104.46"/>
</a>
</g>
</g>
<!-- Node11&#45;&gt;Node12 -->
<g id="edge43_Node000011_Node000012" class="edge">
<title>Node11&#45;&gt;Node12</title>
<g id="a_edge43_Node000011_Node000012"><a xlink:title=" ">
<path fill="none" stroke="#63b8ff" d="M251.58,-33.52C228.51,-31.72 200.81,-29.55 182.94,-28.16"/>
<polygon fill="#63b8ff" stroke="#63b8ff" points="251.06,-36.99 261.3,-34.28 251.61,-30.01 251.06,-36.99"/>
</a>
</g>
</g>
<!-- Node13&#45;&gt;Node10 -->
<g id="edge45_Node000013_Node000010" class="edge">
<title>Node13&#45;&gt;Node10</title>
<g id="a_edge45_Node000013_Node000010"><a xlink:title=" ">
<path fill="none" stroke="#63b8ff" d="M261.21,-75.91C242.81,-77.21 219.47,-78.85 200.33,-80.2"/>
<polygon fill="#63b8ff" stroke="#63b8ff" points="261.26,-79.42 270.99,-75.23 260.77,-72.44 261.26,-79.42"/>
</a>
</g>
</g>
</g>
</svg>
