<?xml version="1.0" encoding="UTF-8" standalone="no"?>
<!DOCTYPE svg PUBLIC "-//W3C//DTD SVG 1.1//EN"
 "http://www.w3.org/Graphics/SVG/1.1/DTD/svg11.dtd">
<!-- Generated by graphviz version 7.1.0 (0)
 -->
<!-- Title: print_msg Pages: 1 -->
<svg width="580pt" height="518pt"
 viewBox="0.00 0.00 580.00 518.00" xmlns="http://www.w3.org/2000/svg" xmlns:xlink="http://www.w3.org/1999/xlink">
<g id="graph0" class="graph" transform="scale(1 1) rotate(0) translate(4 514)">
<title>print_msg</title>
<!-- Node1 -->
<g id="Node000001" class="node">
<title>Node1</title>
<g id="a_Node000001"><a xlink:title="Format and print data as a message.">
<polygon fill="#999999" stroke="#666666" points="572,-265 513,-265 513,-246 572,-246 572,-265"/>
<text text-anchor="middle" x="542.5" y="-253" font-family="Helvetica,sans-Serif" font-size="10.00">print_msg</text>
</a>
</g>
</g>
<!-- Node2 -->
<g id="Node000002" class="node">
<title>Node2</title>
<g id="a_Node000002"><a xlink:href="$queue_8c.html#a1874b6e320d1e54d571c89766d046602" xlink:title="Dequeue a message from the queue and get is as a void* pointing to a structure that will be either &#160;&#160;...">
<polygon fill="white" stroke="#666666" points="454.5,-510 401.5,-510 401.5,-491 454.5,-491 454.5,-510"/>
<text text-anchor="middle" x="428" y="-498" font-family="Helvetica,sans-Serif" font-size="10.00">dequeue</text>
</a>
</g>
</g>
<!-- Node1&#45;&gt;Node2 -->
<g id="edge49_Node000001_Node000002" class="edge">
<title>Node1&#45;&gt;Node2</title>
<g id="a_edge49_Node000001_Node000002"><a xlink:title=" ">
<path fill="none" stroke="#63b8ff" d="M541.52,-276.6C540.41,-320.63 531.71,-423.12 477,-482.5 471.09,-488.91 462.67,-493.06 454.53,-495.72"/>
<polygon fill="#63b8ff" stroke="#63b8ff" points="545.02,-276.7 541.64,-266.66 538.02,-276.62 545.02,-276.7"/>
</a>
</g>
</g>
<!-- Node3 -->
<g id="Node000003" class="node">
<title>Node3</title>
<g id="a_Node000003"><a xlink:href="$user__db_8c.html#ab57ffd0f0b23a847e766e762906af22e" xlink:title="Free the context of the DB.">
<polygon fill="white" stroke="#666666" points="468,-473 388,-473 388,-454 468,-454 468,-473"/>
<text text-anchor="middle" x="428" y="-461" font-family="Helvetica,sans-Serif" font-size="10.00">disconnect_db</text>
</a>
</g>
</g>
<!-- Node1&#45;&gt;Node3 -->
<g id="edge50_Node000001_Node000003" class="edge">
<title>Node1&#45;&gt;Node3</title>
<g id="a_edge50_Node000001_Node000003"><a xlink:title=" ">
<path fill="none" stroke="#63b8ff" d="M540.11,-276.56C536.47,-315.15 523.39,-397.63 477,-445.5 473.78,-448.82 469.89,-451.54 465.73,-453.76"/>
<polygon fill="#63b8ff" stroke="#63b8ff" points="543.59,-277.03 540.9,-266.78 536.61,-276.47 543.59,-277.03"/>
</a>
</g>
</g>
<!-- Node4 -->
<g id="Node000004" class="node">
<title>Node4</title>
<g id="a_Node000004"><a xlink:href="$queue_8c.html#ac51f5d595a9d7376eb0448116c99e1f4" xlink:title="Enqueues a message void* message on the queue.">
<polygon fill="white" stroke="#666666" points="454.5,-436 401.5,-436 401.5,-417 454.5,-417 454.5,-436"/>
<text text-anchor="middle" x="428" y="-424" font-family="Helvetica,sans-Serif" font-size="10.00">enqueue</text>
</a>
</g>
</g>
<!-- Node1&#45;&gt;Node4 -->
<g id="edge51_Node000001_Node000004" class="edge">
<title>Node1&#45;&gt;Node4</title>
<g id="a_edge51_Node000001_Node000004"><a xlink:title=" ">
<path fill="none" stroke="#63b8ff" d="M537.09,-276.52C529.62,-307.56 511.77,-365.94 477,-402.5 470.84,-408.98 462.55,-413.98 454.59,-417.69"/>
<polygon fill="#63b8ff" stroke="#63b8ff" points="540.49,-277.37 539.27,-266.85 533.66,-275.83 540.49,-277.37"/>
</a>
</g>
</g>
<!-- Node5 -->
<g id="Node000005" class="node">
<title>Node5</title>
<g id="a_Node000005"><a xlink:href="$redis_8c.html#a73711c0a9d0060337409d15dc44f5ad1" xlink:title="Fetch the user on the DB with key name.">
<polygon fill="white" stroke="#666666" points="343,-379 244,-379 244,-360 343,-360 343,-379"/>
<text text-anchor="middle" x="293.5" y="-367" font-family="Helvetica,sans-Serif" font-size="10.00">get_user_by_name</text>
</a>
</g>
</g>
<!-- Node1&#45;&gt;Node5 -->
<g id="edge52_Node000001_Node000005" class="edge">
<title>Node1&#45;&gt;Node5</title>
<g id="a_edge52_Node000001_Node000005"><a xlink:title=" ">
<path fill="none" stroke="#63b8ff" d="M536.56,-276.42C528.93,-303.45 511.41,-349.43 477,-369.5 431.84,-395.84 369.08,-388.22 330.17,-379.48"/>
<polygon fill="#63b8ff" stroke="#63b8ff" points="539.89,-277.51 539.02,-266.95 533.12,-275.75 539.89,-277.51"/>
</a>
</g>
</g>
<!-- Node7 -->
<g id="Node000007" class="node">
<title>Node7</title>
<g id="a_Node000007"><a xlink:href="$redis_8c.html#af0bf1bfc99afc940619371e3c76ab4f9" xlink:title="Fetch the user on the DB with key pid.">
<polygon fill="white" stroke="#666666" points="337.5,-322 249.5,-322 249.5,-303 337.5,-303 337.5,-322"/>
<text text-anchor="middle" x="293.5" y="-310" font-family="Helvetica,sans-Serif" font-size="10.00">get_user_by_pid</text>
</a>
</g>
</g>
<!-- Node1&#45;&gt;Node7 -->
<g id="edge54_Node000001_Node000007" class="edge">
<title>Node1&#45;&gt;Node7</title>
<g id="a_edge54_Node000001_Node000007"><a xlink:title=" ">
<path fill="none" stroke="#63b8ff" d="M516.17,-271.01C504.62,-277.41 490.52,-284.29 477,-288.5 430.77,-302.89 375.35,-308.66 337.8,-310.96"/>
<polygon fill="#63b8ff" stroke="#63b8ff" points="517.75,-274.14 524.67,-266.12 514.25,-268.07 517.75,-274.14"/>
</a>
</g>
</g>
<!-- Node8 -->
<g id="Node000008" class="node">
<title>Node8</title>
<g id="a_Node000008"><a xlink:href="$redis_8c.html#a6b18d7ad2f1e8275106a5b39c0c7d216" xlink:title="Remove a user from the DB using the PID as key.">
<polygon fill="white" stroke="#666666" points="205,-284 122,-284 122,-265 205,-265 205,-284"/>
<text text-anchor="middle" x="163.5" y="-272" font-family="Helvetica,sans-Serif" font-size="10.00">remove_by_pid</text>
</a>
</g>
</g>
<!-- Node1&#45;&gt;Node8 -->
<g id="edge71_Node000001_Node000008" class="edge">
<title>Node1&#45;&gt;Node8</title>
<g id="a_edge71_Node000001_Node000008"><a xlink:title=" ">
<path fill="none" stroke="#63b8ff" d="M501.23,-257.53C428.93,-261.17 277.92,-268.78 205.27,-272.45"/>
<polygon fill="#63b8ff" stroke="#63b8ff" points="501.22,-261.03 511.03,-257.04 500.87,-254.04 501.22,-261.03"/>
</a>
</g>
</g>
<!-- Node9 -->
<g id="Node000009" class="node">
<title>Node9</title>
<g id="a_Node000009"><a xlink:href="$user__db_8c.html#a6e2fcf4aa637e61f69b1b601981663cf" xlink:title="Remove a user from the DB.">
<polygon fill="white" stroke="#666666" points="83,-246 0,-246 0,-227 83,-227 83,-246"/>
<text text-anchor="middle" x="41.5" y="-234" font-family="Helvetica,sans-Serif" font-size="10.00">unregister_user</text>
</a>
</g>
</g>
<!-- Node1&#45;&gt;Node9 -->
<g id="edge72_Node000001_Node000009" class="edge">
<title>Node1&#45;&gt;Node9</title>
<g id="a_edge72_Node000001_Node000009"><a xlink:title=" ">
<path fill="none" stroke="#63b8ff" d="M501.03,-253.96C407.51,-250.4 177.28,-241.63 83.37,-238.06"/>
<polygon fill="#63b8ff" stroke="#63b8ff" points="500.88,-257.46 511,-254.34 501.14,-250.46 500.88,-257.46"/>
</a>
</g>
</g>
<!-- Node10 -->
<g id="Node000010" class="node">
<title>Node10</title>
<g id="a_Node000010"><a xlink:href="$tcfs__daemon_8c.html#a93d1097e4dd3c0735da3da2e89410090" xlink:title="Handle the termination if SIGTERM is received.">
<polygon fill="white" stroke="#666666" points="477,-208 379,-208 379,-189 477,-189 477,-208"/>
<text text-anchor="middle" x="428" y="-196" font-family="Helvetica,sans-Serif" font-size="10.00">handle_termination</text>
</a>
</g>
</g>
<!-- Node1&#45;&gt;Node10 -->
<g id="edge57_Node000001_Node000010" class="edge">
<title>Node1&#45;&gt;Node10</title>
<g id="a_edge57_Node000001_Node000010"><a xlink:title=" ">
<path fill="none" stroke="#63b8ff" d="M512.33,-240.5C501.28,-234.84 488.57,-228.35 477,-222.5 467.69,-217.79 457.34,-212.61 448.64,-208.27"/>
<polygon fill="#63b8ff" stroke="#63b8ff" points="510.49,-243.49 520.99,-244.94 513.69,-237.27 510.49,-243.49"/>
</a>
</g>
</g>
<!-- Node11 -->
<g id="Node000011" class="node">
<title>Node11</title>
<g id="a_Node000011"><a xlink:href="$tcfs__daemon_8c.html#ae66f6b31b5ad750f1fe042a706a4e3d4" xlink:title="main function of the daemon. This will daemonize the program, spawn a thread to handle messages and h...">
<polygon fill="white" stroke="#666666" points="312.5,-170 274.5,-170 274.5,-151 312.5,-151 312.5,-170"/>
<text text-anchor="middle" x="293.5" y="-158" font-family="Helvetica,sans-Serif" font-size="10.00">main</text>
</a>
</g>
</g>
<!-- Node1&#45;&gt;Node11 -->
<g id="edge66_Node000001_Node000011" class="edge">
<title>Node1&#45;&gt;Node11</title>
<g id="a_edge66_Node000001_Node000011"><a xlink:title=" ">
<path fill="none" stroke="#63b8ff" d="M530.45,-235.72C519.39,-218 500.66,-192.96 477,-180.5 422.86,-151.98 347.27,-154.99 312.86,-158.28"/>
<polygon fill="#63b8ff" stroke="#63b8ff" points="527.43,-237.5 535.54,-244.32 533.46,-233.93 527.43,-237.5"/>
</a>
</g>
</g>
<!-- Node12 -->
<g id="Node000012" class="node">
<title>Node12</title>
<g id="a_Node000012"><a xlink:href="$queue_8c.html#a6997b2cacf3d2e49bc848d0274e24b13" xlink:title="Initialize the message queue.">
<polygon fill="white" stroke="#666666" points="458.5,-132 397.5,-132 397.5,-113 458.5,-113 458.5,-132"/>
<text text-anchor="middle" x="428" y="-120" font-family="Helvetica,sans-Serif" font-size="10.00">init_queue</text>
</a>
</g>
</g>
<!-- Node1&#45;&gt;Node12 -->
<g id="edge59_Node000001_Node000012" class="edge">
<title>Node1&#45;&gt;Node12</title>
<g id="a_edge59_Node000001_Node000012"><a xlink:title=" ">
<path fill="none" stroke="#63b8ff" d="M533.55,-234.87C523.48,-211 504.11,-171.76 477,-146.5 470.86,-140.78 463.11,-136.12 455.63,-132.48"/>
<polygon fill="#63b8ff" stroke="#63b8ff" points="530.29,-236.14 537.28,-244.1 536.78,-233.52 530.29,-236.14"/>
</a>
</g>
</g>
<!-- Node13 -->
<g id="Node000013" class="node">
<title>Node13</title>
<g id="a_Node000013"><a xlink:href="$redis_8c.html#ac9878ee09b53700eb08c1f175873c30b" xlink:title="Insert a new user in the DB.">
<polygon fill="white" stroke="#666666" points="448.5,-95 407.5,-95 407.5,-76 448.5,-76 448.5,-95"/>
<text text-anchor="middle" x="428" y="-83" font-family="Helvetica,sans-Serif" font-size="10.00">insert</text>
</a>
</g>
</g>
<!-- Node1&#45;&gt;Node13 -->
<g id="edge61_Node000001_Node000013" class="edge">
<title>Node1&#45;&gt;Node13</title>
<g id="a_edge61_Node000001_Node000013"><a xlink:title=" ">
<path fill="none" stroke="#63b8ff" d="M538.06,-234.66C531.67,-202.3 515,-139.92 477,-103.5 469.29,-96.11 458.26,-91.69 448.72,-89.09"/>
<polygon fill="#63b8ff" stroke="#63b8ff" points="534.59,-235.12 539.82,-244.33 541.48,-233.87 534.59,-235.12"/>
</a>
</g>
</g>
<!-- Node14 -->
<g id="Node000014" class="node">
<title>Node14</title>
<g id="a_Node000014"><a xlink:href="$user__db_8c.html#a2ae8a82033440194ad80949cd4493971" xlink:title="Register or update a user in the db, this relies on the redis.c file.">
<polygon fill="white" stroke="#666666" points="330,-57 257,-57 257,-38 330,-38 330,-57"/>
<text text-anchor="middle" x="293.5" y="-45" font-family="Helvetica,sans-Serif" font-size="10.00">register_user</text>
</a>
</g>
</g>
<!-- Node1&#45;&gt;Node14 -->
<g id="edge70_Node000001_Node000014" class="edge">
<title>Node1&#45;&gt;Node14</title>
<g id="a_edge70_Node000001_Node000014"><a xlink:title=" ">
<path fill="none" stroke="#63b8ff" d="M541.2,-234.17C539.38,-194.16 529.25,-108.13 477,-66.5 435.4,-33.35 370.41,-35.36 330.25,-40.77"/>
<polygon fill="#63b8ff" stroke="#63b8ff" points="537.7,-234.24 541.5,-244.13 544.7,-234.03 537.7,-234.24"/>
</a>
</g>
</g>
<!-- Node15 -->
<g id="Node000015" class="node">
<title>Node15</title>
<g id="a_Node000015"><a xlink:href="$redis_8c.html#a8e6e1687d6351741ac3e353d23425f71" xlink:title="Internal function to simplify the casting of a json to a qm_user struct.">
<polygon fill="white" stroke="#666666" points="473.5,-360 382.5,-360 382.5,-341 473.5,-341 473.5,-360"/>
<text text-anchor="middle" x="428" y="-348" font-family="Helvetica,sans-Serif" font-size="10.00">json_to_qm_user</text>
</a>
</g>
</g>
<!-- Node1&#45;&gt;Node15 -->
<g id="edge63_Node000001_Node000015" class="edge">
<title>Node1&#45;&gt;Node15</title>
<g id="a_edge63_Node000001_Node000015"><a xlink:title=" ">
<path fill="none" stroke="#63b8ff" d="M527.55,-274.4C515.46,-289.83 496.82,-311.48 477,-326.5 469.72,-332.01 460.98,-336.82 452.97,-340.66"/>
<polygon fill="#63b8ff" stroke="#63b8ff" points="530.31,-276.56 533.59,-266.48 524.74,-272.31 530.31,-276.56"/>
</a>
</g>
</g>
<!-- Node16 -->
<g id="Node000016" class="node">
<title>Node16</title>
<g id="a_Node000016"><a xlink:href="$redis_8c.html#a7b5eb746d92734b57a71ce552363283d" xlink:title="For debugging only. Prints all the keys in the database.">
<polygon fill="white" stroke="#666666" points="466.5,-19 389.5,-19 389.5,0 466.5,0 466.5,-19"/>
<text text-anchor="middle" x="428" y="-7" font-family="Helvetica,sans-Serif" font-size="10.00">print_all_keys</text>
</a>
</g>
</g>
<!-- Node1&#45;&gt;Node16 -->
<g id="edge67_Node000001_Node000016" class="edge">
<title>Node1&#45;&gt;Node16</title>
<g id="a_edge67_Node000001_Node000016"><a xlink:title=" ">
<path fill="none" stroke="#63b8ff" d="M540.82,-234.43C538.39,-191.7 527.31,-93.84 477,-33.5 471.99,-27.49 465.1,-22.84 458.1,-19.3"/>
<polygon fill="#63b8ff" stroke="#63b8ff" points="537.32,-234.47 541.27,-244.3 544.31,-234.15 537.32,-234.47"/>
</a>
</g>
</g>
<!-- Node6 -->
<g id="Node000006" class="node">
<title>Node6</title>
<g id="a_Node000006"><a xlink:href="$redis_8c.html#a2678c0575f2b6c944fd261255aeaebff" xlink:title="Remove a user from the DB using the name as key.">
<polygon fill="white" stroke="#666666" points="208,-379 119,-379 119,-360 208,-360 208,-379"/>
<text text-anchor="middle" x="163.5" y="-367" font-family="Helvetica,sans-Serif" font-size="10.00">remove_by_user</text>
</a>
</g>
</g>
<!-- Node5&#45;&gt;Node6 -->
<g id="edge53_Node000005_Node000006" class="edge">
<title>Node5&#45;&gt;Node6</title>
<g id="a_edge53_Node000005_Node000006"><a xlink:title=" ">
<path fill="none" stroke="#63b8ff" d="M232.31,-369.5C224.14,-369.5 215.89,-369.5 208.09,-369.5"/>
<polygon fill="#63b8ff" stroke="#63b8ff" points="232.23,-373 242.23,-369.5 232.23,-366 232.23,-373"/>
</a>
</g>
</g>
<!-- Node7&#45;&gt;Node8 -->
<g id="edge55_Node000007_Node000008" class="edge">
<title>Node7&#45;&gt;Node8</title>
<g id="a_edge55_Node000007_Node000008"><a xlink:title=" ">
<path fill="none" stroke="#63b8ff" d="M247.87,-299.25C231.45,-294.38 213.16,-288.95 197.91,-284.42"/>
<polygon fill="#63b8ff" stroke="#63b8ff" points="246.84,-302.59 257.42,-302.09 248.83,-295.88 246.84,-302.59"/>
</a>
</g>
</g>
<!-- Node8&#45;&gt;Node9 -->
<g id="edge56_Node000008_Node000009" class="edge">
<title>Node8&#45;&gt;Node9</title>
<g id="a_edge56_Node000008_Node000009"><a xlink:title=" ">
<path fill="none" stroke="#63b8ff" d="M120.21,-261.11C104.94,-256.27 87.98,-250.9 73.82,-246.42"/>
<polygon fill="#63b8ff" stroke="#63b8ff" points="118.94,-264.38 129.53,-264.06 121.05,-257.7 118.94,-264.38"/>
</a>
</g>
</g>
<!-- Node10&#45;&gt;Node11 -->
<g id="edge58_Node000010_Node000011" class="edge">
<title>Node10&#45;&gt;Node11</title>
<g id="a_edge58_Node000010_Node000011"><a xlink:title=" ">
<path fill="none" stroke="#63b8ff" d="M381.35,-185.41C357.81,-178.66 330.42,-170.8 312.79,-165.75"/>
<polygon fill="#63b8ff" stroke="#63b8ff" points="380.15,-188.71 390.73,-188.1 382.08,-181.98 380.15,-188.71"/>
</a>
</g>
</g>
<!-- Node12&#45;&gt;Node11 -->
<g id="edge60_Node000012_Node000011" class="edge">
<title>Node12&#45;&gt;Node11</title>
<g id="a_edge60_Node000012_Node000011"><a xlink:title=" ">
<path fill="none" stroke="#63b8ff" d="M386.41,-134.14C361.81,-141.2 331.62,-149.85 312.72,-155.28"/>
<polygon fill="#63b8ff" stroke="#63b8ff" points="387.16,-137.57 395.81,-131.45 385.23,-130.84 387.16,-137.57"/>
</a>
</g>
</g>
<!-- Node13&#45;&gt;Node14 -->
<g id="edge62_Node000013_Node000014" class="edge">
<title>Node13&#45;&gt;Node14</title>
<g id="a_edge62_Node000013_Node000014"><a xlink:title=" ">
<path fill="none" stroke="#63b8ff" d="M396.15,-76.65C376.11,-70.9 349.93,-63.4 329.17,-57.44"/>
<polygon fill="#63b8ff" stroke="#63b8ff" points="395.13,-80 405.71,-79.39 397.06,-73.27 395.13,-80"/>
</a>
</g>
</g>
<!-- Node15&#45;&gt;Node5 -->
<g id="edge64_Node000015_Node000005" class="edge">
<title>Node15&#45;&gt;Node5</title>
<g id="a_edge64_Node000015_Node000005"><a xlink:title=" ">
<path fill="none" stroke="#63b8ff" d="M370.8,-358.56C361.69,-359.87 352.32,-361.21 343.4,-362.49"/>
<polygon fill="#63b8ff" stroke="#63b8ff" points="371.24,-362.03 380.64,-357.15 370.25,-355.1 371.24,-362.03"/>
</a>
</g>
</g>
<!-- Node15&#45;&gt;Node7 -->
<g id="edge65_Node000015_Node000007" class="edge">
<title>Node15&#45;&gt;Node7</title>
<g id="a_edge65_Node000015_Node000007"><a xlink:title=" ">
<path fill="none" stroke="#63b8ff" d="M381.29,-337.39C364.17,-332.48 345.03,-326.99 329.08,-322.42"/>
<polygon fill="#63b8ff" stroke="#63b8ff" points="380.15,-340.71 390.73,-340.1 382.08,-333.98 380.15,-340.71"/>
</a>
</g>
</g>
<!-- Node16&#45;&gt;Node9 -->
<g id="edge69_Node000016_Node000009" class="edge">
<title>Node16&#45;&gt;Node9</title>
<g id="a_edge69_Node000016_Node000009"><a xlink:title=" ">
<path fill="none" stroke="#63b8ff" d="M377.83,-5.72C339.5,-4.81 285.92,-8.13 244,-28.5 145.87,-76.19 69.32,-192.48 48.27,-226.81"/>
<polygon fill="#63b8ff" stroke="#63b8ff" points="377.58,-9.21 387.7,-6.07 377.83,-2.21 377.58,-9.21"/>
</a>
</g>
</g>
<!-- Node16&#45;&gt;Node14 -->
<g id="edge68_Node000016_Node000014" class="edge">
<title>Node16&#45;&gt;Node14</title>
<g id="a_edge68_Node000016_Node000014"><a xlink:title=" ">
<path fill="none" stroke="#63b8ff" d="M381.29,-22.61C364.17,-27.52 345.03,-33.01 329.08,-37.58"/>
<polygon fill="#63b8ff" stroke="#63b8ff" points="382.08,-26.02 390.73,-19.9 380.15,-19.29 382.08,-26.02"/>
</a>
</g>
</g>
</g>
</svg>
