<?xml version="1.0" encoding="UTF-8" standalone="no"?>
<!DOCTYPE svg PUBLIC "-//W3C//DTD SVG 1.1//EN"
 "http://www.w3.org/Graphics/SVG/1.1/DTD/svg11.dtd">
<!-- Generated by graphviz version 7.1.0 (0)
 -->
<!-- Title: qm_user Pages: 1 -->
<svg width="232pt" height="104pt"
 viewBox="0.00 0.00 231.50 104.00" xmlns="http://www.w3.org/2000/svg" xmlns:xlink="http://www.w3.org/1999/xlink">
<g id="graph0" class="graph" transform="scale(1 1) rotate(0) translate(4 100)">
<title>qm_user</title>
<!-- Node1 -->
<g id="Node000001" class="node">
<title>Node1</title>
<g id="a_Node000001"><a xlink:title="Represents a user message. &#160;Contains information about the user&#39;s operation, process ID,...">
<polygon fill="#999999" stroke="#666666" points="171.5,-19 117.5,-19 117.5,0 171.5,0 171.5,-19"/>
<text text-anchor="middle" x="144.5" y="-7" font-family="Helvetica,sans-Serif" font-size="10.00">qm_user</text>
</a>
</g>
</g>
<!-- Node2 -->
<g id="Node000002" class="node">
<title>Node2</title>
<g id="a_Node000002"><a xlink:title=" ">
<polygon fill="white" stroke="#bfbfbf" points="107,-96 0,-96 0,-77 107,-77 107,-96"/>
<text text-anchor="middle" x="53.5" y="-84" font-family="Helvetica,sans-Serif" font-size="10.00">enum user_operation</text>
</a>
</g>
</g>
<!-- Node2&#45;&gt;Node1 -->
<g id="edge7_Node000001_Node000002" class="edge">
<title>Node2&#45;&gt;Node1</title>
<g id="a_edge7_Node000001_Node000002"><a xlink:title=" ">
<path fill="none" stroke="#9a32cd" stroke-dasharray="5,2" d="M68.87,-68.54C78.14,-58.78 90.45,-46.58 102.5,-37 110.73,-30.46 120.66,-24.13 128.79,-19.3"/>
<polygon fill="#9a32cd" stroke="#9a32cd" points="66.58,-65.86 62.34,-75.57 71.71,-70.63 66.58,-65.86"/>
</a>
</g>
<text text-anchor="middle" x="121.5" y="-45.5" font-family="Helvetica,sans-Serif" font-size="10.00" fill="grey"> user_op</text>
</g>
<!-- Node3 -->
<g id="Node000003" class="node">
<title>Node3</title>
<g id="a_Node000003"><a xlink:title=" ">
<polygon fill="white" stroke="#bfbfbf" points="163.5,-96 125.5,-96 125.5,-77 163.5,-77 163.5,-96"/>
<text text-anchor="middle" x="144.5" y="-84" font-family="Helvetica,sans-Serif" font-size="10.00">pid_t</text>
</a>
</g>
</g>
<!-- Node3&#45;&gt;Node1 -->
<g id="edge8_Node000001_Node000003" class="edge">
<title>Node3&#45;&gt;Node1</title>
<g id="a_edge8_Node000001_Node000003"><a xlink:title=" ">
<path fill="none" stroke="#9a32cd" stroke-dasharray="5,2" d="M144.5,-65.42C144.5,-50.43 144.5,-30.66 144.5,-19.39"/>
<polygon fill="#9a32cd" stroke="#9a32cd" points="141,-65.09 144.5,-75.09 148,-65.09 141,-65.09"/>
</a>
</g>
<text text-anchor="middle" x="152.5" y="-45.5" font-family="Helvetica,sans-Serif" font-size="10.00" fill="grey"> pid</text>
</g>
<!-- Node4 -->
<g id="Node000004" class="node">
<title>Node4</title>
<g id="a_Node000004"><a xlink:title=" ">
<polygon fill="white" stroke="#bfbfbf" points="223.5,-96 181.5,-96 181.5,-77 223.5,-77 223.5,-96"/>
<text text-anchor="middle" x="202.5" y="-84" font-family="Helvetica,sans-Serif" font-size="10.00">char *</text>
</a>
</g>
</g>
<!-- Node4&#45;&gt;Node1 -->
<g id="edge9_Node000001_Node000004" class="edge">
<title>Node4&#45;&gt;Node1</title>
<g id="a_edge9_Node000001_Node000004"><a xlink:title=" ">
<path fill="none" stroke="#9a32cd" stroke-dasharray="5,2" d="M188.68,-67.63C176.92,-52.43 160.52,-31.22 151.37,-19.39"/>
<polygon fill="#9a32cd" stroke="#9a32cd" points="185.81,-69.64 194.69,-75.4 191.34,-65.35 185.81,-69.64"/>
</a>
</g>
<text text-anchor="middle" x="197" y="-51" font-family="Helvetica,sans-Serif" font-size="10.00" fill="grey"> pubkey</text>
<text text-anchor="middle" x="197" y="-40" font-family="Helvetica,sans-Serif" font-size="10.00" fill="grey">user</text>
</g>
</g>
</svg>
