<?xml version="1.0" encoding="UTF-8" standalone="no"?>
<!DOCTYPE svg PUBLIC "-//W3C//DTD SVG 1.1//EN"
 "http://www.w3.org/Graphics/SVG/1.1/DTD/svg11.dtd">
<!-- Generated by graphviz version 8.1.0 (20230707.0739)
 -->
<!-- Title: tcfs_listxattr Pages: 1 -->
<svg width="643pt" height="180pt"
 viewBox="0.00 0.00 643.00 180.00" xmlns="http://www.w3.org/2000/svg" xmlns:xlink="http://www.w3.org/1999/xlink">
<g id="graph0" class="graph" transform="scale(1 1) rotate(0) translate(4 176)">
<title>tcfs_listxattr</title>
<!-- Node1 -->
<g id="Node000001" class="node">
<title>Node1</title>
<g id="a_Node000001"><a xlink:title="Lists extended attributes.">
<polygon fill="#999999" stroke="#666666" points="70,-58 0,-58 0,-38 70,-38 70,-58"/>
<text text-anchor="middle" x="35" y="-44.5" font-family="Helvetica,sans-Serif" font-size="10.00">tcfs_listxattr</text>
</a>
</g>
</g>
<!-- Node2 -->
<g id="Node000002" class="node">
<title>Node2</title>
<g id="a_Node000002"><a xlink:href="$crypt-utils_8c.html#a5c45db4d3db3ef274fb6356e1a95e644" xlink:title="Encrypts the given filename with its path using a specified key.">
<polygon fill="white" stroke="#666666" points="241.25,-96 106,-96 106,-76 241.25,-76 241.25,-96"/>
<text text-anchor="middle" x="173.62" y="-82.5" font-family="Helvetica,sans-Serif" font-size="10.00">encrypt_path_and_filename</text>
</a>
</g>
</g>
<!-- Node1&#45;&gt;Node2 -->
<g id="edge17_Node000001_Node000002" class="edge">
<title>Node1&#45;&gt;Node2</title>
<g id="a_edge17_Node000001_Node000002"><a xlink:title=" ">
<path fill="none" stroke="#63b8ff" d="M70.48,-57.59C86.92,-62.16 106.86,-67.71 124.75,-72.68"/>
<polygon fill="#63b8ff" stroke="#63b8ff" points="123.71,-76.31 134.28,-75.61 125.58,-69.56 123.71,-76.31"/>
</a>
</g>
</g>
<!-- Node6 -->
<g id="Node000006" class="node">
<title>Node6</title>
<g id="a_Node000006"><a xlink:href="$tcfs__utils_8c.html#a62b66e43a7ad8b8cf9fcad67f71a7a8b" xlink:title="Logs a formatted message to a file with timestamp.">
<polygon fill="white" stroke="#666666" points="635,-96 566.5,-96 566.5,-76 635,-76 635,-96"/>
<text text-anchor="middle" x="600.75" y="-82.5" font-family="Helvetica,sans-Serif" font-size="10.00">logMessage</text>
</a>
</g>
</g>
<!-- Node1&#45;&gt;Node6 -->
<g id="edge23_Node000001_Node000006" class="edge">
<title>Node1&#45;&gt;Node6</title>
<g id="a_edge23_Node000001_Node000006"><a xlink:title=" ">
<path fill="none" stroke="#63b8ff" d="M70.42,-50.32C167.97,-56.9 446.25,-75.65 555.22,-83"/>
<polygon fill="#63b8ff" stroke="#63b8ff" points="554.93,-86.55 565.14,-83.73 555.4,-79.57 554.93,-86.55"/>
</a>
</g>
</g>
<!-- Node7 -->
<g id="Node000007" class="node">
<title>Node7</title>
<g id="a_Node000007"><a xlink:href="$tcfs__utils_8c.html#ac4ff59963f4a122c9f802c0c2bf2abc8" xlink:title="Prefix the realpath to the fuse path.">
<polygon fill="white" stroke="#666666" points="205.62,-20 141.62,-20 141.62,0 205.62,0 205.62,-20"/>
<text text-anchor="middle" x="173.62" y="-6.5" font-family="Helvetica,sans-Serif" font-size="10.00">prefix_path</text>
</a>
</g>
</g>
<!-- Node1&#45;&gt;Node7 -->
<g id="edge24_Node000001_Node000007" class="edge">
<title>Node1&#45;&gt;Node7</title>
<g id="a_edge24_Node000001_Node000007"><a xlink:title=" ">
<path fill="none" stroke="#63b8ff" d="M70.48,-38.41C88.89,-33.29 111.68,-26.95 131.06,-21.56"/>
<polygon fill="#63b8ff" stroke="#63b8ff" points="131.73,-24.73 140.43,-18.68 129.86,-17.98 131.73,-24.73"/>
</a>
</g>
</g>
<!-- Node3 -->
<g id="Node000003" class="node">
<title>Node3</title>
<g id="a_Node000003"><a xlink:href="$crypt-utils_8c.html#aa4a7facde8c6f63a7225c07e92232b2e" xlink:title=" ">
<polygon fill="white" stroke="#666666" points="417,-134 277.25,-134 277.25,-114 417,-114 417,-134"/>
<text text-anchor="middle" x="347.12" y="-120.5" font-family="Helvetica,sans-Serif" font-size="10.00">encrypt_file_name_with_hex</text>
</a>
</g>
</g>
<!-- Node2&#45;&gt;Node3 -->
<g id="edge18_Node000002_Node000003" class="edge">
<title>Node2&#45;&gt;Node3</title>
<g id="a_edge18_Node000002_Node000003"><a xlink:title=" ">
<path fill="none" stroke="#63b8ff" d="M221.94,-96.48C242.47,-101.03 266.7,-106.4 288.28,-111.18"/>
<polygon fill="#63b8ff" stroke="#63b8ff" points="287.44,-114.8 297.96,-113.55 288.96,-107.97 287.44,-114.8"/>
</a>
</g>
</g>
<!-- Node2&#45;&gt;Node6 -->
<g id="edge22_Node000002_Node000006" class="edge">
<title>Node2&#45;&gt;Node6</title>
<g id="a_edge22_Node000002_Node000006"><a xlink:title=" ">
<path fill="none" stroke="#63b8ff" d="M241.52,-86C329.15,-86 480.42,-86 555.22,-86"/>
<polygon fill="#63b8ff" stroke="#63b8ff" points="555.12,-89.5 565.12,-86 555.12,-82.5 555.12,-89.5"/>
</a>
</g>
</g>
<!-- Node4 -->
<g id="Node000004" class="node">
<title>Node4</title>
<g id="a_Node000004"><a xlink:href="$crypt-utils_8c.html#aa926098a8843cf0ab6bd7eb8b3bbd2e6" xlink:title="Encrypt the *plaintext string using a AES 256 key.">
<polygon fill="white" stroke="#666666" points="530.5,-172 453,-172 453,-152 530.5,-152 530.5,-172"/>
<text text-anchor="middle" x="491.75" y="-158.5" font-family="Helvetica,sans-Serif" font-size="10.00">encrypt_string</text>
</a>
</g>
</g>
<!-- Node3&#45;&gt;Node4 -->
<g id="edge19_Node000003_Node000004" class="edge">
<title>Node3&#45;&gt;Node4</title>
<g id="a_edge19_Node000003_Node000004"><a xlink:title=" ">
<path fill="none" stroke="#63b8ff" d="M387.48,-134.48C404.35,-138.98 424.24,-144.28 442.03,-149.02"/>
<polygon fill="#63b8ff" stroke="#63b8ff" points="440.95,-152.62 451.51,-151.81 442.75,-145.86 440.95,-152.62"/>
</a>
</g>
</g>
<!-- Node5 -->
<g id="Node000005" class="node">
<title>Node5</title>
<g id="a_Node000005"><a xlink:href="$tcfs__utils_8c.html#a819d57d5c053a25772508a943d1bcc48" xlink:title="Convert a string to its hexadecimal representation.">
<polygon fill="white" stroke="#666666" points="529,-134 454.5,-134 454.5,-114 529,-114 529,-134"/>
<text text-anchor="middle" x="491.75" y="-120.5" font-family="Helvetica,sans-Serif" font-size="10.00">string_to_hex</text>
</a>
</g>
</g>
<!-- Node3&#45;&gt;Node5 -->
<g id="edge20_Node000003_Node000005" class="edge">
<title>Node3&#45;&gt;Node5</title>
<g id="a_edge20_Node000003_Node000005"><a xlink:title=" ">
<path fill="none" stroke="#63b8ff" d="M417.35,-124C426.23,-124 435.16,-124 443.57,-124"/>
<polygon fill="#63b8ff" stroke="#63b8ff" points="443.3,-127.5 453.3,-124 443.3,-120.5 443.3,-127.5"/>
</a>
</g>
</g>
<!-- Node5&#45;&gt;Node6 -->
<g id="edge21_Node000005_Node000006" class="edge">
<title>Node5&#45;&gt;Node6</title>
<g id="a_edge21_Node000005_Node000006"><a xlink:title=" ">
<path fill="none" stroke="#63b8ff" d="M522.27,-113.52C533.97,-109.36 547.59,-104.52 560.12,-100.07"/>
<polygon fill="#63b8ff" stroke="#63b8ff" points="561.07,-103.09 569.32,-96.45 558.73,-96.5 561.07,-103.09"/>
</a>
</g>
</g>
</g>
</svg>
