<?xml version="1.0" encoding="UTF-8" standalone="no"?>
<!DOCTYPE svg PUBLIC "-//W3C//DTD SVG 1.1//EN"
 "http://www.w3.org/Graphics/SVG/1.1/DTD/svg11.dtd">
<!-- Generated by graphviz version 8.1.0 (20230707.0739)
 -->
<!-- Title: tcfs_mknod Pages: 1 -->
<svg width="577pt" height="180pt"
 viewBox="0.00 0.00 577.00 180.00" xmlns="http://www.w3.org/2000/svg" xmlns:xlink="http://www.w3.org/1999/xlink">
<g id="graph0" class="graph" transform="scale(1 1) rotate(0) translate(4 176)">
<title>tcfs_mknod</title>
<!-- Node1 -->
<g id="Node000001" class="node">
<title>Node1</title>
<g id="a_Node000001"><a xlink:title="Creates a regular file or a special file (block or character).">
<polygon fill="#999999" stroke="#666666" points="67,-58 0,-58 0,-38 67,-38 67,-58"/>
<text text-anchor="middle" x="33.5" y="-44.5" font-family="Helvetica,sans-Serif" font-size="10.00">tcfs_mknod</text>
</a>
</g>
</g>
<!-- Node2 -->
<g id="Node000002" class="node">
<title>Node2</title>
<g id="a_Node000002"><a xlink:href="$crypt-utils_8c.html#ad9b10366ade9f2129ec2613fdc76df80" xlink:title="Encrypts each part of the given path using a specified key.">
<polygon fill="white" stroke="#666666" points="175.25,-96 103,-96 103,-76 175.25,-76 175.25,-96"/>
<text text-anchor="middle" x="139.12" y="-82.5" font-family="Helvetica,sans-Serif" font-size="10.00">encrypt_path</text>
</a>
</g>
</g>
<!-- Node1&#45;&gt;Node2 -->
<g id="edge17_Node000001_Node000002" class="edge">
<title>Node1&#45;&gt;Node2</title>
<g id="a_edge17_Node000001_Node000002"><a xlink:title=" ">
<path fill="none" stroke="#63b8ff" d="M63.09,-58.48C74.3,-62.6 87.35,-67.38 99.38,-71.79"/>
<polygon fill="#63b8ff" stroke="#63b8ff" points="98.03,-75.39 108.63,-75.55 100.44,-68.82 98.03,-75.39"/>
</a>
</g>
</g>
<!-- Node6 -->
<g id="Node000006" class="node">
<title>Node6</title>
<g id="a_Node000006"><a xlink:href="$tcfs__utils_8c.html#a62b66e43a7ad8b8cf9fcad67f71a7a8b" xlink:title="Logs a formatted message to a file with timestamp.">
<polygon fill="white" stroke="#666666" points="569,-96 500.5,-96 500.5,-76 569,-76 569,-96"/>
<text text-anchor="middle" x="534.75" y="-82.5" font-family="Helvetica,sans-Serif" font-size="10.00">logMessage</text>
</a>
</g>
</g>
<!-- Node1&#45;&gt;Node6 -->
<g id="edge23_Node000001_Node000006" class="edge">
<title>Node1&#45;&gt;Node6</title>
<g id="a_edge23_Node000001_Node000006"><a xlink:title=" ">
<path fill="none" stroke="#63b8ff" d="M67.26,-50.49C154.15,-57.11 390.61,-75.1 489.42,-82.63"/>
<polygon fill="#63b8ff" stroke="#63b8ff" points="488.98,-86.18 499.22,-83.45 489.51,-79.2 488.98,-86.18"/>
</a>
</g>
</g>
<!-- Node7 -->
<g id="Node000007" class="node">
<title>Node7</title>
<g id="a_Node000007"><a xlink:href="$tcfs__utils_8c.html#ac4ff59963f4a122c9f802c0c2bf2abc8" xlink:title="Prefix the realpath to the fuse path.">
<polygon fill="white" stroke="#666666" points="171.12,-20 107.12,-20 107.12,0 171.12,0 171.12,-20"/>
<text text-anchor="middle" x="139.12" y="-6.5" font-family="Helvetica,sans-Serif" font-size="10.00">prefix_path</text>
</a>
</g>
</g>
<!-- Node1&#45;&gt;Node7 -->
<g id="edge24_Node000001_Node000007" class="edge">
<title>Node1&#45;&gt;Node7</title>
<g id="a_edge24_Node000001_Node000007"><a xlink:title=" ">
<path fill="none" stroke="#63b8ff" d="M63.09,-37.52C74.3,-33.4 87.35,-28.62 99.38,-24.21"/>
<polygon fill="#63b8ff" stroke="#63b8ff" points="100.44,-27.18 108.63,-20.45 98.03,-20.61 100.44,-27.18"/>
</a>
</g>
</g>
<!-- Node3 -->
<g id="Node000003" class="node">
<title>Node3</title>
<g id="a_Node000003"><a xlink:href="$crypt-utils_8c.html#aa4a7facde8c6f63a7225c07e92232b2e" xlink:title=" ">
<polygon fill="white" stroke="#666666" points="351,-134 211.25,-134 211.25,-114 351,-114 351,-134"/>
<text text-anchor="middle" x="281.12" y="-120.5" font-family="Helvetica,sans-Serif" font-size="10.00">encrypt_file_name_with_hex</text>
</a>
</g>
</g>
<!-- Node2&#45;&gt;Node3 -->
<g id="edge18_Node000002_Node000003" class="edge">
<title>Node2&#45;&gt;Node3</title>
<g id="a_edge18_Node000002_Node000003"><a xlink:title=" ">
<path fill="none" stroke="#63b8ff" d="M175.45,-95.59C192.38,-100.18 212.93,-105.76 231.32,-110.75"/>
<polygon fill="#63b8ff" stroke="#63b8ff" points="230.29,-114.37 240.86,-113.61 232.12,-107.62 230.29,-114.37"/>
</a>
</g>
</g>
<!-- Node2&#45;&gt;Node6 -->
<g id="edge22_Node000002_Node000006" class="edge">
<title>Node2&#45;&gt;Node6</title>
<g id="a_edge22_Node000002_Node000006"><a xlink:title=" ">
<path fill="none" stroke="#63b8ff" d="M175.4,-86C247.31,-86 410.69,-86 489.54,-86"/>
<polygon fill="#63b8ff" stroke="#63b8ff" points="489.09,-89.5 499.09,-86 489.09,-82.5 489.09,-89.5"/>
</a>
</g>
</g>
<!-- Node4 -->
<g id="Node000004" class="node">
<title>Node4</title>
<g id="a_Node000004"><a xlink:href="$crypt-utils_8c.html#aa926098a8843cf0ab6bd7eb8b3bbd2e6" xlink:title="Encrypt the *plaintext string using a AES 256 key.">
<polygon fill="white" stroke="#666666" points="464.5,-172 387,-172 387,-152 464.5,-152 464.5,-172"/>
<text text-anchor="middle" x="425.75" y="-158.5" font-family="Helvetica,sans-Serif" font-size="10.00">encrypt_string</text>
</a>
</g>
</g>
<!-- Node3&#45;&gt;Node4 -->
<g id="edge19_Node000003_Node000004" class="edge">
<title>Node3&#45;&gt;Node4</title>
<g id="a_edge19_Node000003_Node000004"><a xlink:title=" ">
<path fill="none" stroke="#63b8ff" d="M321.48,-134.48C338.35,-138.98 358.24,-144.28 376.03,-149.02"/>
<polygon fill="#63b8ff" stroke="#63b8ff" points="374.95,-152.62 385.51,-151.81 376.75,-145.86 374.95,-152.62"/>
</a>
</g>
</g>
<!-- Node5 -->
<g id="Node000005" class="node">
<title>Node5</title>
<g id="a_Node000005"><a xlink:href="$tcfs__utils_8c.html#a819d57d5c053a25772508a943d1bcc48" xlink:title="Convert a string to its hexadecimal representation.">
<polygon fill="white" stroke="#666666" points="463,-134 388.5,-134 388.5,-114 463,-114 463,-134"/>
<text text-anchor="middle" x="425.75" y="-120.5" font-family="Helvetica,sans-Serif" font-size="10.00">string_to_hex</text>
</a>
</g>
</g>
<!-- Node3&#45;&gt;Node5 -->
<g id="edge20_Node000003_Node000005" class="edge">
<title>Node3&#45;&gt;Node5</title>
<g id="a_edge20_Node000003_Node000005"><a xlink:title=" ">
<path fill="none" stroke="#63b8ff" d="M351.35,-124C360.23,-124 369.16,-124 377.57,-124"/>
<polygon fill="#63b8ff" stroke="#63b8ff" points="377.3,-127.5 387.3,-124 377.3,-120.5 377.3,-127.5"/>
</a>
</g>
</g>
<!-- Node5&#45;&gt;Node6 -->
<g id="edge21_Node000005_Node000006" class="edge">
<title>Node5&#45;&gt;Node6</title>
<g id="a_edge21_Node000005_Node000006"><a xlink:title=" ">
<path fill="none" stroke="#63b8ff" d="M456.27,-113.52C467.97,-109.36 481.59,-104.52 494.12,-100.07"/>
<polygon fill="#63b8ff" stroke="#63b8ff" points="495.07,-103.09 503.32,-96.45 492.73,-96.5 495.07,-103.09"/>
</a>
</g>
</g>
</g>
</svg>
