<?xml version="1.0" encoding="UTF-8" standalone="no"?>
<!DOCTYPE svg PUBLIC "-//W3C//DTD SVG 1.1//EN"
 "http://www.w3.org/Graphics/SVG/1.1/DTD/svg11.dtd">
<!-- Generated by graphviz version 7.1.0 (0)
 -->
<!-- Title: main Pages: 1 -->
<svg width="275pt" height="103pt"
 viewBox="0.00 0.00 275.00 103.00" xmlns="http://www.w3.org/2000/svg" xmlns:xlink="http://www.w3.org/1999/xlink">
<g id="graph0" class="graph" transform="scale(1 1) rotate(0) translate(4 99)">
<title>main</title>
<!-- Node1 -->
<g id="Node000001" class="node">
<title>Node1</title>
<g id="a_Node000001"><a xlink:title="main function of the daemon. This will daemonize the program, spawn a thread to handle messages and h...">
<polygon fill="#999999" stroke="#666666" points="38,-57 0,-57 0,-38 38,-38 38,-57"/>
<text text-anchor="middle" x="19" y="-45" font-family="Helvetica,sans-Serif" font-size="10.00">main</text>
</a>
</g>
</g>
<!-- Node2 -->
<g id="Node000002" class="node">
<title>Node2</title>
<g id="a_Node000002"><a xlink:href="$tcfs__daemon_8c.html#a93d1097e4dd3c0735da3da2e89410090" xlink:title="Handle the termination if SIGTERM is received.">
<polygon fill="white" stroke="#666666" points="172,-95 74,-95 74,-76 172,-76 172,-95"/>
<text text-anchor="middle" x="123" y="-83" font-family="Helvetica,sans-Serif" font-size="10.00">handle_termination</text>
</a>
</g>
</g>
<!-- Node1&#45;&gt;Node2 -->
<g id="edge9_Node000001_Node000002" class="edge">
<title>Node1&#45;&gt;Node2</title>
<g id="a_edge9_Node000001_Node000002"><a xlink:title=" ">
<path fill="none" stroke="#63b8ff" d="M38.24,-54.29C51.18,-59.12 69,-65.76 84.89,-71.67"/>
<polygon fill="#63b8ff" stroke="#63b8ff" points="83.47,-74.88 94.07,-75.09 85.92,-68.32 83.47,-74.88"/>
</a>
</g>
</g>
<!-- Node3 -->
<g id="Node000003" class="node">
<title>Node3</title>
<g id="a_Node000003"><a xlink:href="$print__utils_8c.html#a491dc14c94ed8cf706bb54880c50b2d0" xlink:title="Format and print data as a message.">
<polygon fill="white" stroke="#666666" points="267,-76 208,-76 208,-57 267,-57 267,-76"/>
<text text-anchor="middle" x="237.5" y="-64" font-family="Helvetica,sans-Serif" font-size="10.00">print_msg</text>
</a>
</g>
</g>
<!-- Node1&#45;&gt;Node3 -->
<g id="edge12_Node000001_Node000003" class="edge">
<title>Node1&#45;&gt;Node3</title>
<g id="a_edge12_Node000001_Node000003"><a xlink:title=" ">
<path fill="none" stroke="#63b8ff" d="M38.46,-49.12C73.24,-52.17 149.23,-58.84 196.31,-62.97"/>
<polygon fill="#63b8ff" stroke="#63b8ff" points="195.84,-66.44 206.11,-63.83 196.45,-59.47 195.84,-66.44"/>
</a>
</g>
</g>
<!-- Node4 -->
<g id="Node000004" class="node">
<title>Node4</title>
<g id="a_Node000004"><a xlink:href="$print__utils_8c.html#a650ab060ffe5dbc6c1a968a9cae3bded" xlink:title="Format and print data as an error.">
<polygon fill="white" stroke="#666666" points="149,-19 97,-19 97,0 149,0 149,-19"/>
<text text-anchor="middle" x="123" y="-7" font-family="Helvetica,sans-Serif" font-size="10.00">print_err</text>
</a>
</g>
</g>
<!-- Node1&#45;&gt;Node4 -->
<g id="edge11_Node000001_Node000004" class="edge">
<title>Node1&#45;&gt;Node4</title>
<g id="a_edge11_Node000001_Node000004"><a xlink:title=" ">
<path fill="none" stroke="#63b8ff" d="M38.24,-40.71C51.46,-35.78 69.78,-28.96 85.91,-22.94"/>
<polygon fill="#63b8ff" stroke="#63b8ff" points="87.08,-26.25 95.22,-19.48 84.63,-19.69 87.08,-26.25"/>
</a>
</g>
</g>
<!-- Node2&#45;&gt;Node3 -->
<g id="edge10_Node000002_Node000003" class="edge">
<title>Node2&#45;&gt;Node3</title>
<g id="a_edge10_Node000002_Node000003"><a xlink:title=" ">
<path fill="none" stroke="#63b8ff" d="M172.36,-77.33C180.35,-75.98 188.56,-74.6 196.32,-73.29"/>
<polygon fill="#63b8ff" stroke="#63b8ff" points="196.9,-76.74 206.17,-71.62 195.73,-69.84 196.9,-76.74"/>
</a>
</g>
</g>
</g>
</svg>
