<?xml version="1.0" encoding="UTF-8" standalone="no"?>
<!DOCTYPE svg PUBLIC "-//W3C//DTD SVG 1.1//EN"
 "http://www.w3.org/Graphics/SVG/1.1/DTD/svg11.dtd">
<!-- Generated by graphviz version 8.1.0 (20230707.0739)
 -->
<!-- Title: tcfs_read Pages: 1 -->
<svg width="748pt" height="360pt"
 viewBox="0.00 0.00 748.25 360.13" xmlns="http://www.w3.org/2000/svg" xmlns:xlink="http://www.w3.org/1999/xlink">
<g id="graph0" class="graph" transform="scale(1 1) rotate(0) translate(4 356.13)">
<title>tcfs_read</title>
<!-- Node1 -->
<g id="Node000001" class="node">
<title>Node1</title>
<g id="a_Node000001"><a xlink:title="Reads data from an open file.">
<polygon fill="#999999" stroke="#666666" points="56.5,-153 0,-153 0,-133 56.5,-133 56.5,-153"/>
<text text-anchor="middle" x="28.25" y="-139.5" font-family="Helvetica,sans-Serif" font-size="10.00">tcfs_read</text>
</a>
</g>
</g>
<!-- Node2 -->
<g id="Node000002" class="node">
<title>Node2</title>
<g id="a_Node000002"><a xlink:href="$crypt-utils_8c.html#a22f528907ee4f078e333501b747d5435" xlink:title="Decrypt the *ciphertext string using a AES 256 key.">
<polygon fill="white" stroke="#666666" points="491.12,-324 413.62,-324 413.62,-304 491.12,-304 491.12,-324"/>
<text text-anchor="middle" x="452.38" y="-310.5" font-family="Helvetica,sans-Serif" font-size="10.00">decrypt_string</text>
</a>
</g>
</g>
<!-- Node1&#45;&gt;Node2 -->
<g id="edge39_Node000001_Node000002" class="edge">
<title>Node1&#45;&gt;Node2</title>
<g id="a_edge39_Node000001_Node000002"><a xlink:title=" ">
<path fill="none" stroke="#63b8ff" d="M37.56,-153.43C48.72,-166.76 69.77,-189.7 92.5,-203 194.09,-262.45 330.81,-293.25 402.64,-306.24"/>
<polygon fill="#63b8ff" stroke="#63b8ff" points="401.71,-309.81 412.17,-308.1 402.93,-302.92 401.71,-309.81"/>
</a>
</g>
</g>
<!-- Node3 -->
<g id="Node000003" class="node">
<title>Node3</title>
<g id="a_Node000003"><a xlink:href="$tcfs__utils_8c.html#a62b66e43a7ad8b8cf9fcad67f71a7a8b" xlink:title="Logs a formatted message to a file with timestamp.">
<polygon fill="white" stroke="#666666" points="740.25,-248 671.75,-248 671.75,-228 740.25,-228 740.25,-248"/>
<text text-anchor="middle" x="706" y="-234.5" font-family="Helvetica,sans-Serif" font-size="10.00">logMessage</text>
</a>
</g>
</g>
<!-- Node1&#45;&gt;Node3 -->
<g id="edge50_Node000001_Node000003" class="edge">
<title>Node1&#45;&gt;Node3</title>
<g id="a_edge50_Node000001_Node000003"><a xlink:title=" ">
<path fill="none" stroke="#63b8ff" d="M34.77,-153.36C58.08,-195.54 152.97,-352 277.88,-352 277.88,-352 277.88,-352 453.38,-352 536.26,-352 563.73,-354.04 635.75,-313 659.79,-299.3 680.26,-274.43 692.57,-257.09"/>
<polygon fill="#63b8ff" stroke="#63b8ff" points="695.79,-259.59 698.55,-249.36 690.01,-255.64 695.79,-259.59"/>
</a>
</g>
</g>
<!-- Node4 -->
<g id="Node000004" class="node">
<title>Node4</title>
<g id="a_Node000004"><a xlink:href="$crypt-utils_8c.html#a94b5b388b3f00982ccee72b192077e76" xlink:title="High level function interface for performing AES encryption on FILE pointers Uses OpenSSL libcrypto E...">
<polygon fill="white" stroke="#666666" points="160.62,-96 107.12,-96 107.12,-76 160.62,-76 160.62,-96"/>
<text text-anchor="middle" x="133.88" y="-82.5" font-family="Helvetica,sans-Serif" font-size="10.00">do_crypt</text>
</a>
</g>
</g>
<!-- Node1&#45;&gt;Node4 -->
<g id="edge41_Node000001_Node000004" class="edge">
<title>Node1&#45;&gt;Node4</title>
<g id="a_edge41_Node000001_Node000004"><a xlink:title=" ">
<path fill="none" stroke="#63b8ff" d="M48.26,-132.55C63.96,-123.91 86.49,-111.51 104.36,-101.69"/>
<polygon fill="#63b8ff" stroke="#63b8ff" points="105.91,-104.27 112.99,-96.39 102.54,-98.14 105.91,-104.27"/>
</a>
</g>
</g>
<!-- Node5 -->
<g id="Node000005" class="node">
<title>Node5</title>
<g id="a_Node000005"><a xlink:href="$crypt-utils_8c.html#ad9b10366ade9f2129ec2613fdc76df80" xlink:title="Encrypts each part of the given path using a specified key.">
<polygon fill="white" stroke="#666666" points="315,-210 242.75,-210 242.75,-190 315,-190 315,-210"/>
<text text-anchor="middle" x="278.88" y="-196.5" font-family="Helvetica,sans-Serif" font-size="10.00">encrypt_path</text>
</a>
</g>
</g>
<!-- Node1&#45;&gt;Node5 -->
<g id="edge42_Node000001_Node000005" class="edge">
<title>Node1&#45;&gt;Node5</title>
<g id="a_edge42_Node000001_Node000005"><a xlink:title=" ">
<path fill="none" stroke="#63b8ff" d="M42.46,-153.32C54.7,-162.28 73.78,-174.76 92.5,-181 138.18,-196.22 193.39,-200.16 231.62,-200.8"/>
<polygon fill="#63b8ff" stroke="#63b8ff" points="231.38,-204.31 241.41,-200.9 231.45,-197.31 231.38,-204.31"/>
</a>
</g>
</g>
<!-- Node9 -->
<g id="Node000009" class="node">
<title>Node9</title>
<g id="a_Node000009"><a xlink:href="$tcfs_8c.html#a996d4e078d075e74e800288e6c92fd59" xlink:title="Get the size of a file in the TCFS file system.">
<polygon fill="white" stroke="#666666" points="159.88,-58 107.88,-58 107.88,-38 159.88,-38 159.88,-58"/>
<text text-anchor="middle" x="133.88" y="-44.5" font-family="Helvetica,sans-Serif" font-size="10.00">file_size</text>
</a>
</g>
</g>
<!-- Node1&#45;&gt;Node9 -->
<g id="edge48_Node000001_Node000009" class="edge">
<title>Node1&#45;&gt;Node9</title>
<g id="a_edge48_Node000001_Node000009"><a xlink:title=" ">
<path fill="none" stroke="#63b8ff" d="M35.68,-132.67C46.01,-116.8 67.65,-86.22 92.5,-67 94.34,-65.58 96.31,-64.22 98.34,-62.95"/>
<polygon fill="#63b8ff" stroke="#63b8ff" points="99.5,-65.75 106.55,-57.84 96.1,-59.63 99.5,-65.75"/>
</a>
</g>
</g>
<!-- Node10 -->
<g id="Node000010" class="node">
<title>Node10</title>
<g id="a_Node000010"><a xlink:href="$tcfs__utils_8c.html#aac1b7fab3a13b4cfcc0b34eb7511df55" xlink:title="Fetch the username of the current user.">
<polygon fill="white" stroke="#666666" points="175.25,-20 92.5,-20 92.5,0 175.25,0 175.25,-20"/>
<text text-anchor="middle" x="133.88" y="-6.5" font-family="Helvetica,sans-Serif" font-size="10.00">get_user_name</text>
</a>
</g>
</g>
<!-- Node1&#45;&gt;Node10 -->
<g id="edge49_Node000001_Node000010" class="edge">
<title>Node1&#45;&gt;Node10</title>
<g id="a_edge49_Node000001_Node000010"><a xlink:title=" ">
<path fill="none" stroke="#63b8ff" d="M32.48,-132.81C39.83,-111.07 59.77,-59.61 92.5,-29 93.52,-28.05 94.59,-27.13 95.71,-26.26"/>
<polygon fill="#63b8ff" stroke="#63b8ff" points="97.42,-28.68 103.92,-20.32 93.62,-22.8 97.42,-28.68"/>
</a>
</g>
</g>
<!-- Node11 -->
<g id="Node000011" class="node">
<title>Node11</title>
<g id="a_Node000011"><a xlink:href="$tcfs__utils_8c.html#ac4ff59963f4a122c9f802c0c2bf2abc8" xlink:title="Prefix the realpath to the fuse path.">
<polygon fill="white" stroke="#666666" points="310.88,-96 246.88,-96 246.88,-76 310.88,-76 310.88,-96"/>
<text text-anchor="middle" x="278.88" y="-82.5" font-family="Helvetica,sans-Serif" font-size="10.00">prefix_path</text>
</a>
</g>
</g>
<!-- Node1&#45;&gt;Node11 -->
<g id="edge51_Node000001_Node000011" class="edge">
<title>Node1&#45;&gt;Node11</title>
<g id="a_edge51_Node000001_Node000011"><a xlink:title=" ">
<path fill="none" stroke="#63b8ff" d="M56.81,-136.68C100.27,-126.72 185.03,-107.29 236.04,-95.59"/>
<polygon fill="#63b8ff" stroke="#63b8ff" points="236.73,-98.8 245.69,-93.15 235.16,-91.97 236.73,-98.8"/>
</a>
</g>
</g>
<!-- Node12 -->
<g id="Node000012" class="node">
<title>Node12</title>
<g id="a_Node000012"><a xlink:href="$tcfs_8c.html#a6a031c4e3c6dd59051c09789c4666657" xlink:title="Get extended attribute data.">
<polygon fill="white" stroke="#666666" points="169.25,-172 98.5,-172 98.5,-152 169.25,-152 169.25,-172"/>
<text text-anchor="middle" x="133.88" y="-158.5" font-family="Helvetica,sans-Serif" font-size="10.00">tcfs_getxattr</text>
</a>
</g>
</g>
<!-- Node1&#45;&gt;Node12 -->
<g id="edge52_Node000001_Node000012" class="edge">
<title>Node1&#45;&gt;Node12</title>
<g id="a_edge52_Node000001_Node000012"><a xlink:title=" ">
<path fill="none" stroke="#63b8ff" d="M56.75,-148.04C66.18,-149.77 77.01,-151.76 87.48,-153.68"/>
<polygon fill="#63b8ff" stroke="#63b8ff" points="86.72,-157.28 97.19,-155.64 87.98,-150.39 86.72,-157.28"/>
</a>
</g>
</g>
<!-- Node2&#45;&gt;Node3 -->
<g id="edge40_Node000002_Node000003" class="edge">
<title>Node2&#45;&gt;Node3</title>
<g id="a_edge40_Node000002_Node000003"><a xlink:title=" ">
<path fill="none" stroke="#63b8ff" d="M491.48,-314.54C529.4,-313.83 588.59,-309.25 635.75,-290 655.16,-282.08 673.97,-267.36 687.08,-255.59"/>
<polygon fill="#63b8ff" stroke="#63b8ff" points="688.88,-258.77 693.82,-249.39 684.11,-253.64 688.88,-258.77"/>
</a>
</g>
</g>
<!-- Node5&#45;&gt;Node3 -->
<g id="edge47_Node000005_Node000003" class="edge">
<title>Node5&#45;&gt;Node3</title>
<g id="a_edge47_Node000005_Node000003"><a xlink:title=" ">
<path fill="none" stroke="#63b8ff" d="M308.86,-210.47C369.43,-231.05 513.9,-273.41 635.75,-257 644.9,-255.77 654.54,-253.66 663.64,-251.28"/>
<polygon fill="#63b8ff" stroke="#63b8ff" points="664.3,-254.46 673,-248.41 662.43,-247.71 664.3,-254.46"/>
</a>
</g>
</g>
<!-- Node6 -->
<g id="Node000006" class="node">
<title>Node6</title>
<g id="a_Node000006"><a xlink:href="$crypt-utils_8c.html#aa4a7facde8c6f63a7225c07e92232b2e" xlink:title=" ">
<polygon fill="white" stroke="#666666" points="522.25,-210 382.5,-210 382.5,-190 522.25,-190 522.25,-210"/>
<text text-anchor="middle" x="452.38" y="-196.5" font-family="Helvetica,sans-Serif" font-size="10.00">encrypt_file_name_with_hex</text>
</a>
</g>
</g>
<!-- Node5&#45;&gt;Node6 -->
<g id="edge43_Node000005_Node000006" class="edge">
<title>Node5&#45;&gt;Node6</title>
<g id="a_edge43_Node000005_Node000006"><a xlink:title=" ">
<path fill="none" stroke="#63b8ff" d="M315.41,-200C331.72,-200 351.77,-200 371.41,-200"/>
<polygon fill="#63b8ff" stroke="#63b8ff" points="371.25,-203.5 381.25,-200 371.25,-196.5 371.25,-203.5"/>
</a>
</g>
</g>
<!-- Node7 -->
<g id="Node000007" class="node">
<title>Node7</title>
<g id="a_Node000007"><a xlink:href="$crypt-utils_8c.html#aa926098a8843cf0ab6bd7eb8b3bbd2e6" xlink:title="Encrypt the *plaintext string using a AES 256 key.">
<polygon fill="white" stroke="#666666" points="635.75,-248 558.25,-248 558.25,-228 635.75,-228 635.75,-248"/>
<text text-anchor="middle" x="597" y="-234.5" font-family="Helvetica,sans-Serif" font-size="10.00">encrypt_string</text>
</a>
</g>
</g>
<!-- Node6&#45;&gt;Node7 -->
<g id="edge44_Node000006_Node000007" class="edge">
<title>Node6&#45;&gt;Node7</title>
<g id="a_edge44_Node000006_Node000007"><a xlink:title=" ">
<path fill="none" stroke="#63b8ff" d="M492.73,-210.48C509.6,-214.98 529.49,-220.28 547.28,-225.02"/>
<polygon fill="#63b8ff" stroke="#63b8ff" points="546.2,-228.62 556.76,-227.81 548,-221.86 546.2,-228.62"/>
</a>
</g>
</g>
<!-- Node8 -->
<g id="Node000008" class="node">
<title>Node8</title>
<g id="a_Node000008"><a xlink:href="$tcfs__utils_8c.html#a819d57d5c053a25772508a943d1bcc48" xlink:title="Convert a string to its hexadecimal representation.">
<polygon fill="white" stroke="#666666" points="634.25,-210 559.75,-210 559.75,-190 634.25,-190 634.25,-210"/>
<text text-anchor="middle" x="597" y="-196.5" font-family="Helvetica,sans-Serif" font-size="10.00">string_to_hex</text>
</a>
</g>
</g>
<!-- Node6&#45;&gt;Node8 -->
<g id="edge45_Node000006_Node000008" class="edge">
<title>Node6&#45;&gt;Node8</title>
<g id="a_edge45_Node000006_Node000008"><a xlink:title=" ">
<path fill="none" stroke="#63b8ff" d="M522.6,-200C531.48,-200 540.41,-200 548.82,-200"/>
<polygon fill="#63b8ff" stroke="#63b8ff" points="548.55,-203.5 558.55,-200 548.55,-196.5 548.55,-203.5"/>
</a>
</g>
</g>
<!-- Node8&#45;&gt;Node3 -->
<g id="edge46_Node000008_Node000003" class="edge">
<title>Node8&#45;&gt;Node3</title>
<g id="a_edge46_Node000008_Node000003"><a xlink:title=" ">
<path fill="none" stroke="#63b8ff" d="M627.52,-210.48C639.22,-214.64 652.84,-219.48 665.37,-223.93"/>
<polygon fill="#63b8ff" stroke="#63b8ff" points="663.98,-227.5 674.57,-227.55 666.32,-220.91 663.98,-227.5"/>
</a>
</g>
</g>
<!-- Node12&#45;&gt;Node3 -->
<g id="edge56_Node000012_Node000003" class="edge">
<title>Node12&#45;&gt;Node3</title>
<g id="a_edge56_Node000012_Node000003"><a xlink:title=" ">
<path fill="none" stroke="#63b8ff" d="M167.79,-151.52C251.66,-126.85 477.87,-73.19 635.75,-156 662.33,-169.94 682.87,-198.79 694.46,-218.28"/>
<polygon fill="#63b8ff" stroke="#63b8ff" points="691.84,-219.76 699.82,-226.74 697.93,-216.31 691.84,-219.76"/>
</a>
</g>
</g>
<!-- Node12&#45;&gt;Node11 -->
<g id="edge57_Node000012_Node000011" class="edge">
<title>Node12&#45;&gt;Node11</title>
<g id="a_edge57_Node000012_Node000011"><a xlink:title=" ">
<path fill="none" stroke="#63b8ff" d="M153.26,-151.72C160.27,-147.64 168.24,-142.78 175.25,-138 191.99,-126.58 193.49,-119.78 211.25,-110 219.06,-105.7 227.79,-101.91 236.29,-98.69"/>
<polygon fill="#63b8ff" stroke="#63b8ff" points="237.24,-101.71 245.48,-95.04 234.88,-95.12 237.24,-101.71"/>
</a>
</g>
</g>
<!-- Node13 -->
<g id="Node000013" class="node">
<title>Node13</title>
<g id="a_Node000013"><a xlink:href="$crypt-utils_8c.html#a5c45db4d3db3ef274fb6356e1a95e644" xlink:title="Encrypts the given filename with its path using a specified key.">
<polygon fill="white" stroke="#666666" points="346.5,-172 211.25,-172 211.25,-152 346.5,-152 346.5,-172"/>
<text text-anchor="middle" x="278.88" y="-158.5" font-family="Helvetica,sans-Serif" font-size="10.00">encrypt_path_and_filename</text>
</a>
</g>
</g>
<!-- Node12&#45;&gt;Node13 -->
<g id="edge53_Node000012_Node000013" class="edge">
<title>Node12&#45;&gt;Node13</title>
<g id="a_edge53_Node000012_Node000013"><a xlink:title=" ">
<path fill="none" stroke="#63b8ff" d="M169.49,-162C178.85,-162 189.38,-162 200.09,-162"/>
<polygon fill="#63b8ff" stroke="#63b8ff" points="199.83,-165.5 209.83,-162 199.83,-158.5 199.83,-165.5"/>
</a>
</g>
</g>
<!-- Node13&#45;&gt;Node3 -->
<g id="edge55_Node000013_Node000003" class="edge">
<title>Node13&#45;&gt;Node3</title>
<g id="a_edge55_Node000013_Node000003"><a xlink:title=" ">
<path fill="none" stroke="#63b8ff" d="M346.74,-153.47C420.27,-146.79 540.61,-143.99 635.75,-181 656.9,-189.23 676.42,-206.56 689.3,-219.97"/>
<polygon fill="#63b8ff" stroke="#63b8ff" points="686.07,-221.71 695.42,-226.69 691.21,-216.97 686.07,-221.71"/>
</a>
</g>
</g>
<!-- Node13&#45;&gt;Node6 -->
<g id="edge54_Node000013_Node000006" class="edge">
<title>Node13&#45;&gt;Node6</title>
<g id="a_edge54_Node000013_Node000006"><a xlink:title=" ">
<path fill="none" stroke="#63b8ff" d="M327.19,-172.48C347.72,-177.03 371.95,-182.4 393.53,-187.18"/>
<polygon fill="#63b8ff" stroke="#63b8ff" points="392.69,-190.8 403.21,-189.55 394.21,-183.97 392.69,-190.8"/>
</a>
</g>
</g>
</g>
</svg>
