<?xml version="1.0" encoding="UTF-8" standalone="no"?>
<!DOCTYPE svg PUBLIC "-//W3C//DTD SVG 1.1//EN"
 "http://www.w3.org/Graphics/SVG/1.1/DTD/svg11.dtd">
<!-- Generated by graphviz version 8.1.0 (20230707.0739)
 -->
<!-- Title: setup_tcfs_mount_folder Pages: 1 -->
<svg width="288pt" height="66pt"
 viewBox="0.00 0.00 287.50 66.00" xmlns="http://www.w3.org/2000/svg" xmlns:xlink="http://www.w3.org/1999/xlink">
<g id="graph0" class="graph" transform="scale(1 1) rotate(0) translate(4 62)">
<title>setup_tcfs_mount_folder</title>
<!-- Node1 -->
<g id="Node000001" class="node">
<title>Node1</title>
<g id="a_Node000001"><a xlink:title="Creates the .tcfs folder in the user HOME. Then this creates a folder with a random name so that crea...">
<polygon fill="#999999" stroke="#666666" points="123.25,-39 0,-39 0,-19 123.25,-19 123.25,-39"/>
<text text-anchor="middle" x="61.62" y="-25.5" font-family="Helvetica,sans-Serif" font-size="10.00">setup_tcfs_mount_folder</text>
</a>
</g>
</g>
<!-- Node2 -->
<g id="Node000002" class="node">
<title>Node2</title>
<g id="a_Node000002"><a xlink:href="$tcfs__helper__tools_8c.html#ab3cdcc12b3bc92a382784027c94a2027" xlink:title="Check if a directory already exists. This function is marked as internal and should not be used by th...">
<polygon fill="white" stroke="#666666" points="261.88,-58 176.88,-58 176.88,-38 261.88,-38 261.88,-58"/>
<text text-anchor="middle" x="219.38" y="-44.5" font-family="Helvetica,sans-Serif" font-size="10.00">directory_exists</text>
</a>
</g>
</g>
<!-- Node1&#45;&gt;Node2 -->
<g id="edge5_Node000001_Node000002" class="edge">
<title>Node1&#45;&gt;Node2</title>
<g id="a_edge5_Node000001_Node000002"><a xlink:title=" ">
<path fill="none" stroke="#63b8ff" d="M123.73,-36.45C137.72,-38.16 152.47,-39.96 166.05,-41.62"/>
<polygon fill="#63b8ff" stroke="#63b8ff" points="165.3,-45.17 175.65,-42.91 166.15,-38.22 165.3,-45.17"/>
</a>
</g>
</g>
<!-- Node3 -->
<g id="Node000003" class="node">
<title>Node3</title>
<g id="a_Node000003"><a xlink:href="$tcfs__helper__tools_8c.html#a8ef1473d59fd1cfc680fe1b227604a02" xlink:title="Generate a random string that will be used as a folder name for the mount. This function is marked as...">
<polygon fill="white" stroke="#666666" points="279.5,-20 159.25,-20 159.25,0 279.5,0 279.5,-20"/>
<text text-anchor="middle" x="219.38" y="-6.5" font-family="Helvetica,sans-Serif" font-size="10.00">generate_random_string</text>
</a>
</g>
</g>
<!-- Node1&#45;&gt;Node3 -->
<g id="edge6_Node000001_Node000003" class="edge">
<title>Node1&#45;&gt;Node3</title>
<g id="a_edge6_Node000001_Node000003"><a xlink:title=" ">
<path fill="none" stroke="#63b8ff" d="M123.73,-21.55C131.79,-20.56 140.1,-19.55 148.3,-18.55"/>
<polygon fill="#63b8ff" stroke="#63b8ff" points="148.47,-21.93 157.97,-17.25 147.62,-14.98 148.47,-21.93"/>
</a>
</g>
</g>
</g>
</svg>
