<?xml version="1.0" encoding="UTF-8" standalone="no"?>
<!DOCTYPE svg PUBLIC "-//W3C//DTD SVG 1.1//EN"
 "http://www.w3.org/Graphics/SVG/1.1/DTD/svg11.dtd">
<!-- Generated by graphviz version 8.1.0 (20230707.0739)
 -->
<!-- Title: userspace&#45;module/utils/tcfs_utils/tcfs_utils.h Pages: 1 -->
<svg width="532pt" height="96pt"
 viewBox="0.00 0.00 531.88 96.00" xmlns="http://www.w3.org/2000/svg" xmlns:xlink="http://www.w3.org/1999/xlink">
<g id="graph0" class="graph" transform="scale(1 1) rotate(0) translate(4 92)">
<title>userspace&#45;module/utils/tcfs_utils/tcfs_utils.h</title>
<!-- Node1 -->
<g id="Node000001" class="node">
<title>Node1</title>
<g id="a_Node000001"><a xlink:title="Header file containing utility functions used by TCFS (Transparent Cryptographic Filesystem)">
<polygon fill="#999999" stroke="#666666" points="302.25,-88 185.75,-88 185.75,-56 302.25,-56 302.25,-88"/>
<text text-anchor="start" x="193.75" y="-74.5" font-family="Helvetica,sans-Serif" font-size="10.00">userspace&#45;module/utils</text>
<text text-anchor="middle" x="244" y="-62.5" font-family="Helvetica,sans-Serif" font-size="10.00">/tcfs_utils/tcfs_utils.h</text>
</a>
</g>
</g>
<!-- Node2 -->
<g id="Node000002" class="node">
<title>Node2</title>
<g id="a_Node000002"><a xlink:title=" ">
<polygon fill="#e0e0e0" stroke="#999999" points="46,-20 0,-20 0,0 46,0 46,-20"/>
<text text-anchor="middle" x="23" y="-6.5" font-family="Helvetica,sans-Serif" font-size="10.00">errno.h</text>
</a>
</g>
</g>
<!-- Node1&#45;&gt;Node2 -->
<g id="edge17_Node000001_Node000002" class="edge">
<title>Node1&#45;&gt;Node2</title>
<g id="a_edge17_Node000001_Node000002"><a xlink:title=" ">
<path fill="none" stroke="#63b8ff" d="M186.05,-55.53C151.12,-46.17 105.46,-33.86 56.83,-20.49"/>
<polygon fill="#63b8ff" stroke="#63b8ff" points="57.98,-16.9 47.41,-17.62 56.12,-23.65 57.98,-16.9"/>
</a>
</g>
</g>
<!-- Node3 -->
<g id="Node000003" class="node">
<title>Node3</title>
<g id="a_Node000003"><a xlink:title=" ">
<polygon fill="#e0e0e0" stroke="#999999" points="106.12,-20 63.88,-20 63.88,0 106.12,0 106.12,-20"/>
<text text-anchor="middle" x="85" y="-6.5" font-family="Helvetica,sans-Serif" font-size="10.00">pwd.h</text>
</a>
</g>
</g>
<!-- Node1&#45;&gt;Node3 -->
<g id="edge18_Node000001_Node000003" class="edge">
<title>Node1&#45;&gt;Node3</title>
<g id="a_edge18_Node000001_Node000003"><a xlink:title=" ">
<path fill="none" stroke="#63b8ff" d="M203.05,-55.55C176,-45.34 141.09,-32.17 116.27,-22.8"/>
<polygon fill="#63b8ff" stroke="#63b8ff" points="117.89,-19.29 107.3,-19.04 115.42,-25.84 117.89,-19.29"/>
</a>
</g>
</g>
<!-- Node4 -->
<g id="Node000004" class="node">
<title>Node4</title>
<g id="a_Node000004"><a xlink:title=" ">
<polygon fill="#e0e0e0" stroke="#999999" points="169.62,-20 124.38,-20 124.38,0 169.62,0 169.62,-20"/>
<text text-anchor="middle" x="147" y="-6.5" font-family="Helvetica,sans-Serif" font-size="10.00">stdio.h</text>
</a>
</g>
</g>
<!-- Node1&#45;&gt;Node4 -->
<g id="edge19_Node000001_Node000004" class="edge">
<title>Node1&#45;&gt;Node4</title>
<g id="a_edge19_Node000001_Node000004"><a xlink:title=" ">
<path fill="none" stroke="#63b8ff" d="M219.02,-55.55C204.43,-46.52 186.08,-35.17 171.56,-26.19"/>
<polygon fill="#63b8ff" stroke="#63b8ff" points="173.56,-22.69 163.21,-20.41 169.87,-28.65 173.56,-22.69"/>
</a>
</g>
</g>
<!-- Node5 -->
<g id="Node000005" class="node">
<title>Node5</title>
<g id="a_Node000005"><a xlink:title=" ">
<polygon fill="#e0e0e0" stroke="#999999" points="234.75,-20 187.25,-20 187.25,0 234.75,0 234.75,-20"/>
<text text-anchor="middle" x="211" y="-6.5" font-family="Helvetica,sans-Serif" font-size="10.00">stdlib.h</text>
</a>
</g>
</g>
<!-- Node1&#45;&gt;Node5 -->
<g id="edge20_Node000001_Node000005" class="edge">
<title>Node1&#45;&gt;Node5</title>
<g id="a_edge20_Node000001_Node000005"><a xlink:title=" ">
<path fill="none" stroke="#63b8ff" d="M235.5,-55.55C231.2,-47.74 225.95,-38.19 221.41,-29.94"/>
<polygon fill="#63b8ff" stroke="#63b8ff" points="224.06,-28.48 216.17,-21.41 217.93,-31.86 224.06,-28.48"/>
</a>
</g>
</g>
<!-- Node6 -->
<g id="Node000006" class="node">
<title>Node6</title>
<g id="a_Node000006"><a xlink:title=" ">
<polygon fill="#e0e0e0" stroke="#999999" points="301.12,-20 252.88,-20 252.88,0 301.12,0 301.12,-20"/>
<text text-anchor="middle" x="277" y="-6.5" font-family="Helvetica,sans-Serif" font-size="10.00">string.h</text>
</a>
</g>
</g>
<!-- Node1&#45;&gt;Node6 -->
<g id="edge21_Node000001_Node000006" class="edge">
<title>Node1&#45;&gt;Node6</title>
<g id="a_edge21_Node000001_Node000006"><a xlink:title=" ">
<path fill="none" stroke="#63b8ff" d="M252.5,-55.55C256.8,-47.74 262.05,-38.19 266.59,-29.94"/>
<polygon fill="#63b8ff" stroke="#63b8ff" points="270.07,-31.86 271.83,-21.41 263.94,-28.48 270.07,-31.86"/>
</a>
</g>
</g>
<!-- Node7 -->
<g id="Node000007" class="node">
<title>Node7</title>
<g id="a_Node000007"><a xlink:title=" ">
<polygon fill="#e0e0e0" stroke="#999999" points="381.25,-20 318.75,-20 318.75,0 381.25,0 381.25,-20"/>
<text text-anchor="middle" x="350" y="-6.5" font-family="Helvetica,sans-Serif" font-size="10.00">sys/xattr.h</text>
</a>
</g>
</g>
<!-- Node1&#45;&gt;Node7 -->
<g id="edge22_Node000001_Node000007" class="edge">
<title>Node1&#45;&gt;Node7</title>
<g id="a_edge22_Node000001_Node000007"><a xlink:title=" ">
<path fill="none" stroke="#63b8ff" d="M271.3,-55.55C287.55,-46.35 308.07,-34.74 324.07,-25.68"/>
<polygon fill="#63b8ff" stroke="#63b8ff" points="325.4,-28.38 332.38,-20.41 321.95,-22.29 325.4,-28.38"/>
</a>
</g>
</g>
<!-- Node8 -->
<g id="Node000008" class="node">
<title>Node8</title>
<g id="a_Node000008"><a xlink:title=" ">
<polygon fill="#e0e0e0" stroke="#999999" points="450.25,-20 399.75,-20 399.75,0 450.25,0 450.25,-20"/>
<text text-anchor="middle" x="425" y="-6.5" font-family="Helvetica,sans-Serif" font-size="10.00">unistd.h</text>
</a>
</g>
</g>
<!-- Node1&#45;&gt;Node8 -->
<g id="edge23_Node000001_Node000008" class="edge">
<title>Node1&#45;&gt;Node8</title>
<g id="a_edge23_Node000001_Node000008"><a xlink:title=" ">
<path fill="none" stroke="#63b8ff" d="M290.61,-55.55C321.35,-45.36 361.01,-32.21 389.26,-22.85"/>
<polygon fill="#63b8ff" stroke="#63b8ff" points="390.1,-25.93 398.49,-19.46 387.9,-19.28 390.1,-25.93"/>
</a>
</g>
</g>
<!-- Node9 -->
<g id="Node000009" class="node">
<title>Node9</title>
<g id="a_Node000009"><a xlink:title=" ">
<polygon fill="#e0e0e0" stroke="#999999" points="523.88,-20 468.12,-20 468.12,0 523.88,0 523.88,-20"/>
<text text-anchor="middle" x="496" y="-6.5" font-family="Helvetica,sans-Serif" font-size="10.00">stdbool.h</text>
</a>
</g>
</g>
<!-- Node1&#45;&gt;Node9 -->
<g id="edge24_Node000001_Node000009" class="edge">
<title>Node1&#45;&gt;Node9</title>
<g id="a_edge24_Node000001_Node000009"><a xlink:title=" ">
<path fill="none" stroke="#63b8ff" d="M302.42,-57.24C343.23,-47.6 399.25,-34.33 457.26,-20.41"/>
<polygon fill="#63b8ff" stroke="#63b8ff" points="457.82,-23.63 466.72,-17.9 456.18,-16.83 457.82,-23.63"/>
</a>
</g>
</g>
</g>
</svg>
