<?xml version="1.0" encoding="UTF-8" standalone="no"?>
<!DOCTYPE svg PUBLIC "-//W3C//DTD SVG 1.1//EN"
 "http://www.w3.org/Graphics/SVG/1.1/DTD/svg11.dtd">
<!-- Generated by graphviz version 8.1.0 (20230707.0739)
 -->
<!-- Title: tcfs_getattr Pages: 1 -->
<svg width="576pt" height="180pt"
 viewBox="0.00 0.00 575.50 180.00" xmlns="http://www.w3.org/2000/svg" xmlns:xlink="http://www.w3.org/1999/xlink">
<g id="graph0" class="graph" transform="scale(1 1) rotate(0) translate(4 176)">
<title>tcfs_getattr</title>
<!-- Node1 -->
<g id="Node000001" class="node">
<title>Node1</title>
<g id="a_Node000001"><a xlink:title="Gets file attributes.">
<polygon fill="#999999" stroke="#666666" points="65.5,-58 0,-58 0,-38 65.5,-38 65.5,-58"/>
<text text-anchor="middle" x="32.75" y="-44.5" font-family="Helvetica,sans-Serif" font-size="10.00">tcfs_getattr</text>
</a>
</g>
</g>
<!-- Node2 -->
<g id="Node000002" class="node">
<title>Node2</title>
<g id="a_Node000002"><a xlink:href="$crypt-utils_8c.html#ad9b10366ade9f2129ec2613fdc76df80" xlink:title="Encrypts each part of the given path using a specified key.">
<polygon fill="white" stroke="#666666" points="173.75,-96 101.5,-96 101.5,-76 173.75,-76 173.75,-96"/>
<text text-anchor="middle" x="137.62" y="-82.5" font-family="Helvetica,sans-Serif" font-size="10.00">encrypt_path</text>
</a>
</g>
</g>
<!-- Node1&#45;&gt;Node2 -->
<g id="edge17_Node000001_Node000002" class="edge">
<title>Node1&#45;&gt;Node2</title>
<g id="a_edge17_Node000001_Node000002"><a xlink:title=" ">
<path fill="none" stroke="#63b8ff" d="M62.13,-58.48C73.27,-62.6 86.21,-67.38 98.16,-71.79"/>
<polygon fill="#63b8ff" stroke="#63b8ff" points="96.74,-75.37 107.33,-75.55 99.17,-68.8 96.74,-75.37"/>
</a>
</g>
</g>
<!-- Node6 -->
<g id="Node000006" class="node">
<title>Node6</title>
<g id="a_Node000006"><a xlink:href="$tcfs__utils_8c.html#a62b66e43a7ad8b8cf9fcad67f71a7a8b" xlink:title="Logs a formatted message to a file with timestamp.">
<polygon fill="white" stroke="#666666" points="567.5,-96 499,-96 499,-76 567.5,-76 567.5,-96"/>
<text text-anchor="middle" x="533.25" y="-82.5" font-family="Helvetica,sans-Serif" font-size="10.00">logMessage</text>
</a>
</g>
</g>
<!-- Node1&#45;&gt;Node6 -->
<g id="edge23_Node000001_Node000006" class="edge">
<title>Node1&#45;&gt;Node6</title>
<g id="a_edge23_Node000001_Node000006"><a xlink:title=" ">
<path fill="none" stroke="#63b8ff" d="M65.69,-50.43C151.77,-57 388.73,-75.06 487.8,-82.61"/>
<polygon fill="#63b8ff" stroke="#63b8ff" points="487.38,-86.17 497.62,-83.44 487.92,-79.19 487.38,-86.17"/>
</a>
</g>
</g>
<!-- Node7 -->
<g id="Node000007" class="node">
<title>Node7</title>
<g id="a_Node000007"><a xlink:href="$tcfs__utils_8c.html#ac4ff59963f4a122c9f802c0c2bf2abc8" xlink:title="Prefix the realpath to the fuse path.">
<polygon fill="white" stroke="#666666" points="169.62,-20 105.62,-20 105.62,0 169.62,0 169.62,-20"/>
<text text-anchor="middle" x="137.62" y="-6.5" font-family="Helvetica,sans-Serif" font-size="10.00">prefix_path</text>
</a>
</g>
</g>
<!-- Node1&#45;&gt;Node7 -->
<g id="edge24_Node000001_Node000007" class="edge">
<title>Node1&#45;&gt;Node7</title>
<g id="a_edge24_Node000001_Node000007"><a xlink:title=" ">
<path fill="none" stroke="#63b8ff" d="M62.13,-37.52C73.27,-33.4 86.21,-28.62 98.16,-24.21"/>
<polygon fill="#63b8ff" stroke="#63b8ff" points="99.17,-27.2 107.33,-20.45 96.74,-20.63 99.17,-27.2"/>
</a>
</g>
</g>
<!-- Node3 -->
<g id="Node000003" class="node">
<title>Node3</title>
<g id="a_Node000003"><a xlink:href="$crypt-utils_8c.html#aa4a7facde8c6f63a7225c07e92232b2e" xlink:title=" ">
<polygon fill="white" stroke="#666666" points="349.5,-134 209.75,-134 209.75,-114 349.5,-114 349.5,-134"/>
<text text-anchor="middle" x="279.62" y="-120.5" font-family="Helvetica,sans-Serif" font-size="10.00">encrypt_file_name_with_hex</text>
</a>
</g>
</g>
<!-- Node2&#45;&gt;Node3 -->
<g id="edge18_Node000002_Node000003" class="edge">
<title>Node2&#45;&gt;Node3</title>
<g id="a_edge18_Node000002_Node000003"><a xlink:title=" ">
<path fill="none" stroke="#63b8ff" d="M173.95,-95.59C190.88,-100.18 211.43,-105.76 229.82,-110.75"/>
<polygon fill="#63b8ff" stroke="#63b8ff" points="228.79,-114.37 239.36,-113.61 230.62,-107.62 228.79,-114.37"/>
</a>
</g>
</g>
<!-- Node2&#45;&gt;Node6 -->
<g id="edge22_Node000002_Node000006" class="edge">
<title>Node2&#45;&gt;Node6</title>
<g id="a_edge22_Node000002_Node000006"><a xlink:title=" ">
<path fill="none" stroke="#63b8ff" d="M173.9,-86C245.81,-86 409.19,-86 488.04,-86"/>
<polygon fill="#63b8ff" stroke="#63b8ff" points="487.59,-89.5 497.59,-86 487.59,-82.5 487.59,-89.5"/>
</a>
</g>
</g>
<!-- Node4 -->
<g id="Node000004" class="node">
<title>Node4</title>
<g id="a_Node000004"><a xlink:href="$crypt-utils_8c.html#aa926098a8843cf0ab6bd7eb8b3bbd2e6" xlink:title="Encrypt the *plaintext string using a AES 256 key.">
<polygon fill="white" stroke="#666666" points="463,-172 385.5,-172 385.5,-152 463,-152 463,-172"/>
<text text-anchor="middle" x="424.25" y="-158.5" font-family="Helvetica,sans-Serif" font-size="10.00">encrypt_string</text>
</a>
</g>
</g>
<!-- Node3&#45;&gt;Node4 -->
<g id="edge19_Node000003_Node000004" class="edge">
<title>Node3&#45;&gt;Node4</title>
<g id="a_edge19_Node000003_Node000004"><a xlink:title=" ">
<path fill="none" stroke="#63b8ff" d="M319.98,-134.48C336.85,-138.98 356.74,-144.28 374.53,-149.02"/>
<polygon fill="#63b8ff" stroke="#63b8ff" points="373.45,-152.62 384.01,-151.81 375.25,-145.86 373.45,-152.62"/>
</a>
</g>
</g>
<!-- Node5 -->
<g id="Node000005" class="node">
<title>Node5</title>
<g id="a_Node000005"><a xlink:href="$tcfs__utils_8c.html#a819d57d5c053a25772508a943d1bcc48" xlink:title="Convert a string to its hexadecimal representation.">
<polygon fill="white" stroke="#666666" points="461.5,-134 387,-134 387,-114 461.5,-114 461.5,-134"/>
<text text-anchor="middle" x="424.25" y="-120.5" font-family="Helvetica,sans-Serif" font-size="10.00">string_to_hex</text>
</a>
</g>
</g>
<!-- Node3&#45;&gt;Node5 -->
<g id="edge20_Node000003_Node000005" class="edge">
<title>Node3&#45;&gt;Node5</title>
<g id="a_edge20_Node000003_Node000005"><a xlink:title=" ">
<path fill="none" stroke="#63b8ff" d="M349.85,-124C358.73,-124 367.66,-124 376.07,-124"/>
<polygon fill="#63b8ff" stroke="#63b8ff" points="375.8,-127.5 385.8,-124 375.8,-120.5 375.8,-127.5"/>
</a>
</g>
</g>
<!-- Node5&#45;&gt;Node6 -->
<g id="edge21_Node000005_Node000006" class="edge">
<title>Node5&#45;&gt;Node6</title>
<g id="a_edge21_Node000005_Node000006"><a xlink:title=" ">
<path fill="none" stroke="#63b8ff" d="M454.77,-113.52C466.47,-109.36 480.09,-104.52 492.62,-100.07"/>
<polygon fill="#63b8ff" stroke="#63b8ff" points="493.57,-103.09 501.82,-96.45 491.23,-96.5 493.57,-103.09"/>
</a>
</g>
</g>
</g>
</svg>
