<?xml version="1.0" encoding="UTF-8" standalone="no"?>
<!DOCTYPE svg PUBLIC "-//W3C//DTD SVG 1.1//EN"
 "http://www.w3.org/Graphics/SVG/1.1/DTD/svg11.dtd">
<!-- Generated by graphviz version 8.1.0 (20230707.0739)
 -->
<!-- Title: tcfs_unlink Pages: 1 -->
<svg width="573pt" height="180pt"
 viewBox="0.00 0.00 573.25 180.00" xmlns="http://www.w3.org/2000/svg" xmlns:xlink="http://www.w3.org/1999/xlink">
<g id="graph0" class="graph" transform="scale(1 1) rotate(0) translate(4 176)">
<title>tcfs_unlink</title>
<!-- Node1 -->
<g id="Node000001" class="node">
<title>Node1</title>
<g id="a_Node000001"><a xlink:title="Removes a file.">
<polygon fill="#999999" stroke="#666666" points="63.25,-58 0,-58 0,-38 63.25,-38 63.25,-58"/>
<text text-anchor="middle" x="31.62" y="-44.5" font-family="Helvetica,sans-Serif" font-size="10.00">tcfs_unlink</text>
</a>
</g>
</g>
<!-- Node2 -->
<g id="Node000002" class="node">
<title>Node2</title>
<g id="a_Node000002"><a xlink:href="$crypt-utils_8c.html#ad9b10366ade9f2129ec2613fdc76df80" xlink:title="Encrypts each part of the given path using a specified key.">
<polygon fill="white" stroke="#666666" points="171.5,-96 99.25,-96 99.25,-76 171.5,-76 171.5,-96"/>
<text text-anchor="middle" x="135.38" y="-82.5" font-family="Helvetica,sans-Serif" font-size="10.00">encrypt_path</text>
</a>
</g>
</g>
<!-- Node1&#45;&gt;Node2 -->
<g id="edge17_Node000001_Node000002" class="edge">
<title>Node1&#45;&gt;Node2</title>
<g id="a_edge17_Node000001_Node000002"><a xlink:title=" ">
<path fill="none" stroke="#63b8ff" d="M60.7,-58.48C71.71,-62.6 84.51,-67.38 96.33,-71.79"/>
<polygon fill="#63b8ff" stroke="#63b8ff" points="94.8,-75.33 105.39,-75.55 97.25,-68.77 94.8,-75.33"/>
</a>
</g>
</g>
<!-- Node6 -->
<g id="Node000006" class="node">
<title>Node6</title>
<g id="a_Node000006"><a xlink:href="$tcfs__utils_8c.html#a62b66e43a7ad8b8cf9fcad67f71a7a8b" xlink:title="Logs a formatted message to a file with timestamp.">
<polygon fill="white" stroke="#666666" points="565.25,-96 496.75,-96 496.75,-76 565.25,-76 565.25,-96"/>
<text text-anchor="middle" x="531" y="-82.5" font-family="Helvetica,sans-Serif" font-size="10.00">logMessage</text>
</a>
</g>
</g>
<!-- Node1&#45;&gt;Node6 -->
<g id="edge23_Node000001_Node000006" class="edge">
<title>Node1&#45;&gt;Node6</title>
<g id="a_edge23_Node000001_Node000006"><a xlink:title=" ">
<path fill="none" stroke="#63b8ff" d="M63.74,-50.38C148.93,-56.89 386.21,-75.01 485.46,-82.6"/>
<polygon fill="#63b8ff" stroke="#63b8ff" points="485.06,-86.15 495.3,-83.43 485.6,-79.17 485.06,-86.15"/>
</a>
</g>
</g>
<!-- Node7 -->
<g id="Node000007" class="node">
<title>Node7</title>
<g id="a_Node000007"><a xlink:href="$tcfs__utils_8c.html#ac4ff59963f4a122c9f802c0c2bf2abc8" xlink:title="Prefix the realpath to the fuse path.">
<polygon fill="white" stroke="#666666" points="167.38,-20 103.38,-20 103.38,0 167.38,0 167.38,-20"/>
<text text-anchor="middle" x="135.38" y="-6.5" font-family="Helvetica,sans-Serif" font-size="10.00">prefix_path</text>
</a>
</g>
</g>
<!-- Node1&#45;&gt;Node7 -->
<g id="edge24_Node000001_Node000007" class="edge">
<title>Node1&#45;&gt;Node7</title>
<g id="a_edge24_Node000001_Node000007"><a xlink:title=" ">
<path fill="none" stroke="#63b8ff" d="M60.7,-37.52C71.71,-33.4 84.51,-28.62 96.33,-24.21"/>
<polygon fill="#63b8ff" stroke="#63b8ff" points="97.25,-27.23 105.39,-20.45 94.8,-20.67 97.25,-27.23"/>
</a>
</g>
</g>
<!-- Node3 -->
<g id="Node000003" class="node">
<title>Node3</title>
<g id="a_Node000003"><a xlink:href="$crypt-utils_8c.html#aa4a7facde8c6f63a7225c07e92232b2e" xlink:title=" ">
<polygon fill="white" stroke="#666666" points="347.25,-134 207.5,-134 207.5,-114 347.25,-114 347.25,-134"/>
<text text-anchor="middle" x="277.38" y="-120.5" font-family="Helvetica,sans-Serif" font-size="10.00">encrypt_file_name_with_hex</text>
</a>
</g>
</g>
<!-- Node2&#45;&gt;Node3 -->
<g id="edge18_Node000002_Node000003" class="edge">
<title>Node2&#45;&gt;Node3</title>
<g id="a_edge18_Node000002_Node000003"><a xlink:title=" ">
<path fill="none" stroke="#63b8ff" d="M171.7,-95.59C188.63,-100.18 209.18,-105.76 227.57,-110.75"/>
<polygon fill="#63b8ff" stroke="#63b8ff" points="226.54,-114.37 237.11,-113.61 228.37,-107.62 226.54,-114.37"/>
</a>
</g>
</g>
<!-- Node2&#45;&gt;Node6 -->
<g id="edge22_Node000002_Node000006" class="edge">
<title>Node2&#45;&gt;Node6</title>
<g id="a_edge22_Node000002_Node000006"><a xlink:title=" ">
<path fill="none" stroke="#63b8ff" d="M171.65,-86C243.56,-86 406.94,-86 485.79,-86"/>
<polygon fill="#63b8ff" stroke="#63b8ff" points="485.34,-89.5 495.34,-86 485.34,-82.5 485.34,-89.5"/>
</a>
</g>
</g>
<!-- Node4 -->
<g id="Node000004" class="node">
<title>Node4</title>
<g id="a_Node000004"><a xlink:href="$crypt-utils_8c.html#aa926098a8843cf0ab6bd7eb8b3bbd2e6" xlink:title="Encrypt the *plaintext string using a AES 256 key.">
<polygon fill="white" stroke="#666666" points="460.75,-172 383.25,-172 383.25,-152 460.75,-152 460.75,-172"/>
<text text-anchor="middle" x="422" y="-158.5" font-family="Helvetica,sans-Serif" font-size="10.00">encrypt_string</text>
</a>
</g>
</g>
<!-- Node3&#45;&gt;Node4 -->
<g id="edge19_Node000003_Node000004" class="edge">
<title>Node3&#45;&gt;Node4</title>
<g id="a_edge19_Node000003_Node000004"><a xlink:title=" ">
<path fill="none" stroke="#63b8ff" d="M317.73,-134.48C334.6,-138.98 354.49,-144.28 372.28,-149.02"/>
<polygon fill="#63b8ff" stroke="#63b8ff" points="371.2,-152.62 381.76,-151.81 373,-145.86 371.2,-152.62"/>
</a>
</g>
</g>
<!-- Node5 -->
<g id="Node000005" class="node">
<title>Node5</title>
<g id="a_Node000005"><a xlink:href="$tcfs__utils_8c.html#a819d57d5c053a25772508a943d1bcc48" xlink:title="Convert a string to its hexadecimal representation.">
<polygon fill="white" stroke="#666666" points="459.25,-134 384.75,-134 384.75,-114 459.25,-114 459.25,-134"/>
<text text-anchor="middle" x="422" y="-120.5" font-family="Helvetica,sans-Serif" font-size="10.00">string_to_hex</text>
</a>
</g>
</g>
<!-- Node3&#45;&gt;Node5 -->
<g id="edge20_Node000003_Node000005" class="edge">
<title>Node3&#45;&gt;Node5</title>
<g id="a_edge20_Node000003_Node000005"><a xlink:title=" ">
<path fill="none" stroke="#63b8ff" d="M347.6,-124C356.48,-124 365.41,-124 373.82,-124"/>
<polygon fill="#63b8ff" stroke="#63b8ff" points="373.55,-127.5 383.55,-124 373.55,-120.5 373.55,-127.5"/>
</a>
</g>
</g>
<!-- Node5&#45;&gt;Node6 -->
<g id="edge21_Node000005_Node000006" class="edge">
<title>Node5&#45;&gt;Node6</title>
<g id="a_edge21_Node000005_Node000006"><a xlink:title=" ">
<path fill="none" stroke="#63b8ff" d="M452.52,-113.52C464.22,-109.36 477.84,-104.52 490.37,-100.07"/>
<polygon fill="#63b8ff" stroke="#63b8ff" points="491.32,-103.09 499.57,-96.45 488.98,-96.5 491.32,-103.09"/>
</a>
</g>
</g>
</g>
</svg>
