<?xml version="1.0" encoding="UTF-8" standalone="no"?>
<!DOCTYPE svg PUBLIC "-//W3C//DTD SVG 1.1//EN"
 "http://www.w3.org/Graphics/SVG/1.1/DTD/svg11.dtd">
<!-- Generated by graphviz version 8.1.0 (20230707.0739)
 -->
<!-- Title: tcfs_open Pages: 1 -->
<svg width="569pt" height="180pt"
 viewBox="0.00 0.00 568.75 180.00" xmlns="http://www.w3.org/2000/svg" xmlns:xlink="http://www.w3.org/1999/xlink">
<g id="graph0" class="graph" transform="scale(1 1) rotate(0) translate(4 176)">
<title>tcfs_open</title>
<!-- Node1 -->
<g id="Node000001" class="node">
<title>Node1</title>
<g id="a_Node000001"><a xlink:title="Opens a file.">
<polygon fill="#999999" stroke="#666666" points="58.75,-58 0,-58 0,-38 58.75,-38 58.75,-58"/>
<text text-anchor="middle" x="29.38" y="-44.5" font-family="Helvetica,sans-Serif" font-size="10.00">tcfs_open</text>
</a>
</g>
</g>
<!-- Node2 -->
<g id="Node000002" class="node">
<title>Node2</title>
<g id="a_Node000002"><a xlink:href="$crypt-utils_8c.html#ad9b10366ade9f2129ec2613fdc76df80" xlink:title="Encrypts each part of the given path using a specified key.">
<polygon fill="white" stroke="#666666" points="167,-96 94.75,-96 94.75,-76 167,-76 167,-96"/>
<text text-anchor="middle" x="130.88" y="-82.5" font-family="Helvetica,sans-Serif" font-size="10.00">encrypt_path</text>
</a>
</g>
</g>
<!-- Node1&#45;&gt;Node2 -->
<g id="edge17_Node000001_Node000002" class="edge">
<title>Node1&#45;&gt;Node2</title>
<g id="a_edge17_Node000001_Node000002"><a xlink:title=" ">
<path fill="none" stroke="#63b8ff" d="M57.83,-58.48C68.49,-62.55 80.86,-67.28 92.32,-71.66"/>
<polygon fill="#63b8ff" stroke="#63b8ff" points="90.92,-75.25 101.51,-75.55 93.42,-68.71 90.92,-75.25"/>
</a>
</g>
</g>
<!-- Node6 -->
<g id="Node000006" class="node">
<title>Node6</title>
<g id="a_Node000006"><a xlink:href="$tcfs__utils_8c.html#a62b66e43a7ad8b8cf9fcad67f71a7a8b" xlink:title="Logs a formatted message to a file with timestamp.">
<polygon fill="white" stroke="#666666" points="560.75,-96 492.25,-96 492.25,-76 560.75,-76 560.75,-96"/>
<text text-anchor="middle" x="526.5" y="-82.5" font-family="Helvetica,sans-Serif" font-size="10.00">logMessage</text>
</a>
</g>
</g>
<!-- Node1&#45;&gt;Node6 -->
<g id="edge23_Node000001_Node000006" class="edge">
<title>Node1&#45;&gt;Node6</title>
<g id="a_edge23_Node000001_Node000006"><a xlink:title=" ">
<path fill="none" stroke="#63b8ff" d="M59.14,-50.21C141.91,-56.56 381.14,-74.92 480.95,-82.58"/>
<polygon fill="#63b8ff" stroke="#63b8ff" points="480.61,-86.14 490.85,-83.42 481.15,-79.16 480.61,-86.14"/>
</a>
</g>
</g>
<!-- Node7 -->
<g id="Node000007" class="node">
<title>Node7</title>
<g id="a_Node000007"><a xlink:href="$tcfs__utils_8c.html#ac4ff59963f4a122c9f802c0c2bf2abc8" xlink:title="Prefix the realpath to the fuse path.">
<polygon fill="white" stroke="#666666" points="162.88,-20 98.88,-20 98.88,0 162.88,0 162.88,-20"/>
<text text-anchor="middle" x="130.88" y="-6.5" font-family="Helvetica,sans-Serif" font-size="10.00">prefix_path</text>
</a>
</g>
</g>
<!-- Node1&#45;&gt;Node7 -->
<g id="edge24_Node000001_Node000007" class="edge">
<title>Node1&#45;&gt;Node7</title>
<g id="a_edge24_Node000001_Node000007"><a xlink:title=" ">
<path fill="none" stroke="#63b8ff" d="M57.83,-37.52C68.49,-33.45 80.86,-28.72 92.32,-24.34"/>
<polygon fill="#63b8ff" stroke="#63b8ff" points="93.42,-27.29 101.51,-20.45 90.92,-20.75 93.42,-27.29"/>
</a>
</g>
</g>
<!-- Node3 -->
<g id="Node000003" class="node">
<title>Node3</title>
<g id="a_Node000003"><a xlink:href="$crypt-utils_8c.html#aa4a7facde8c6f63a7225c07e92232b2e" xlink:title=" ">
<polygon fill="white" stroke="#666666" points="342.75,-134 203,-134 203,-114 342.75,-114 342.75,-134"/>
<text text-anchor="middle" x="272.88" y="-120.5" font-family="Helvetica,sans-Serif" font-size="10.00">encrypt_file_name_with_hex</text>
</a>
</g>
</g>
<!-- Node2&#45;&gt;Node3 -->
<g id="edge18_Node000002_Node000003" class="edge">
<title>Node2&#45;&gt;Node3</title>
<g id="a_edge18_Node000002_Node000003"><a xlink:title=" ">
<path fill="none" stroke="#63b8ff" d="M167.2,-95.59C184.13,-100.18 204.68,-105.76 223.07,-110.75"/>
<polygon fill="#63b8ff" stroke="#63b8ff" points="222.04,-114.37 232.61,-113.61 223.87,-107.62 222.04,-114.37"/>
</a>
</g>
</g>
<!-- Node2&#45;&gt;Node6 -->
<g id="edge22_Node000002_Node000006" class="edge">
<title>Node2&#45;&gt;Node6</title>
<g id="a_edge22_Node000002_Node000006"><a xlink:title=" ">
<path fill="none" stroke="#63b8ff" d="M167.15,-86C239.06,-86 402.44,-86 481.29,-86"/>
<polygon fill="#63b8ff" stroke="#63b8ff" points="480.84,-89.5 490.84,-86 480.84,-82.5 480.84,-89.5"/>
</a>
</g>
</g>
<!-- Node4 -->
<g id="Node000004" class="node">
<title>Node4</title>
<g id="a_Node000004"><a xlink:href="$crypt-utils_8c.html#aa926098a8843cf0ab6bd7eb8b3bbd2e6" xlink:title="Encrypt the *plaintext string using a AES 256 key.">
<polygon fill="white" stroke="#666666" points="456.25,-172 378.75,-172 378.75,-152 456.25,-152 456.25,-172"/>
<text text-anchor="middle" x="417.5" y="-158.5" font-family="Helvetica,sans-Serif" font-size="10.00">encrypt_string</text>
</a>
</g>
</g>
<!-- Node3&#45;&gt;Node4 -->
<g id="edge19_Node000003_Node000004" class="edge">
<title>Node3&#45;&gt;Node4</title>
<g id="a_edge19_Node000003_Node000004"><a xlink:title=" ">
<path fill="none" stroke="#63b8ff" d="M313.23,-134.48C330.1,-138.98 349.99,-144.28 367.78,-149.02"/>
<polygon fill="#63b8ff" stroke="#63b8ff" points="366.7,-152.62 377.26,-151.81 368.5,-145.86 366.7,-152.62"/>
</a>
</g>
</g>
<!-- Node5 -->
<g id="Node000005" class="node">
<title>Node5</title>
<g id="a_Node000005"><a xlink:href="$tcfs__utils_8c.html#a819d57d5c053a25772508a943d1bcc48" xlink:title="Convert a string to its hexadecimal representation.">
<polygon fill="white" stroke="#666666" points="454.75,-134 380.25,-134 380.25,-114 454.75,-114 454.75,-134"/>
<text text-anchor="middle" x="417.5" y="-120.5" font-family="Helvetica,sans-Serif" font-size="10.00">string_to_hex</text>
</a>
</g>
</g>
<!-- Node3&#45;&gt;Node5 -->
<g id="edge20_Node000003_Node000005" class="edge">
<title>Node3&#45;&gt;Node5</title>
<g id="a_edge20_Node000003_Node000005"><a xlink:title=" ">
<path fill="none" stroke="#63b8ff" d="M343.1,-124C351.98,-124 360.91,-124 369.32,-124"/>
<polygon fill="#63b8ff" stroke="#63b8ff" points="369.05,-127.5 379.05,-124 369.05,-120.5 369.05,-127.5"/>
</a>
</g>
</g>
<!-- Node5&#45;&gt;Node6 -->
<g id="edge21_Node000005_Node000006" class="edge">
<title>Node5&#45;&gt;Node6</title>
<g id="a_edge21_Node000005_Node000006"><a xlink:title=" ">
<path fill="none" stroke="#63b8ff" d="M448.02,-113.52C459.72,-109.36 473.34,-104.52 485.87,-100.07"/>
<polygon fill="#63b8ff" stroke="#63b8ff" points="486.82,-103.09 495.07,-96.45 484.48,-96.5 486.82,-103.09"/>
</a>
</g>
</g>
</g>
</svg>
