<?xml version="1.0" encoding="UTF-8" standalone="no"?>
<!DOCTYPE svg PUBLIC "-//W3C//DTD SVG 1.1//EN"
 "http://www.w3.org/Graphics/SVG/1.1/DTD/svg11.dtd">
<!-- Generated by graphviz version 7.1.0 (0)
 -->
<!-- Title: main Pages: 1 -->
<svg width="534pt" height="346pt"
 viewBox="0.00 0.00 534.00 346.45" xmlns="http://www.w3.org/2000/svg" xmlns:xlink="http://www.w3.org/1999/xlink">
<g id="graph0" class="graph" transform="scale(1 1) rotate(0) translate(4 342.45)">
<title>main</title>
<!-- Node1 -->
<g id="Node000001" class="node">
<title>Node1</title>
<g id="a_Node000001"><a xlink:title="main function of the daemon. This will daemonize the program, spawn a thread to handle messages and h...">
<polygon fill="#999999" stroke="#666666" points="38,-209 0,-209 0,-190 38,-190 38,-209"/>
<text text-anchor="middle" x="19" y="-197" font-family="Helvetica,sans-Serif" font-size="10.00">main</text>
</a>
</g>
</g>
<!-- Node2 -->
<g id="Node000002" class="node">
<title>Node2</title>
<g id="a_Node000002"><a xlink:href="$tcfs__daemon__tools_8c.html#a24bb8f1eddd763598165ab8fa40fcdbd" xlink:title="Dequeue the latest message from the queue and handle it.">
<polygon fill="white" stroke="#666666" points="214,-228 74,-228 74,-209 214,-209 214,-228"/>
<text text-anchor="middle" x="144" y="-216" font-family="Helvetica,sans-Serif" font-size="10.00">handle_incoming_messages</text>
</a>
</g>
</g>
<!-- Node1&#45;&gt;Node2 -->
<g id="edge45_Node000001_Node000002" class="edge">
<title>Node1&#45;&gt;Node2</title>
<g id="a_edge45_Node000001_Node000002"><a xlink:title=" ">
<path fill="none" stroke="#63b8ff" d="M38.41,-202.34C46.47,-203.59 56.51,-205.14 67.16,-206.79"/>
<polygon fill="#63b8ff" stroke="#63b8ff" points="66.51,-210.23 76.92,-208.29 67.58,-203.31 66.51,-210.23"/>
</a>
</g>
</g>
<!-- Node4 -->
<g id="Node000004" class="node">
<title>Node4</title>
<g id="a_Node000004"><a xlink:href="$print__utils_8c.html#a650ab060ffe5dbc6c1a968a9cae3bded" xlink:title="Format and print data as an error.">
<polygon fill="white" stroke="#666666" points="415,-171 363,-171 363,-152 415,-152 415,-171"/>
<text text-anchor="middle" x="389" y="-159" font-family="Helvetica,sans-Serif" font-size="10.00">print_err</text>
</a>
</g>
</g>
<!-- Node1&#45;&gt;Node4 -->
<g id="edge65_Node000001_Node000004" class="edge">
<title>Node1&#45;&gt;Node4</title>
<g id="a_edge65_Node000001_Node000004"><a xlink:title=" ">
<path fill="none" stroke="#63b8ff" d="M38.48,-197.55C77.53,-193.44 171.33,-183.6 250,-175.5 284.38,-171.96 323.57,-167.99 351.39,-165.19"/>
<polygon fill="#63b8ff" stroke="#63b8ff" points="351.46,-168.7 361.06,-164.21 350.76,-161.73 351.46,-168.7"/>
</a>
</g>
</g>
<!-- Node5 -->
<g id="Node000005" class="node">
<title>Node5</title>
<g id="a_Node000005"><a xlink:href="$print__utils_8c.html#a491dc14c94ed8cf706bb54880c50b2d0" xlink:title="Format and print data as a message.">
<polygon fill="white" stroke="#666666" points="526,-171 467,-171 467,-152 526,-152 526,-171"/>
<text text-anchor="middle" x="496.5" y="-159" font-family="Helvetica,sans-Serif" font-size="10.00">print_msg</text>
</a>
</g>
</g>
<!-- Node1&#45;&gt;Node5 -->
<g id="edge66_Node000001_Node000005" class="edge">
<title>Node1&#45;&gt;Node5</title>
<g id="a_edge66_Node000001_Node000005"><a xlink:title=" ">
<path fill="none" stroke="#63b8ff" d="M21.87,-209.27C26.49,-230.48 40.58,-280.65 74,-303.5 161.23,-363.14 205.56,-329.5 311,-322.5 364.69,-318.94 387.92,-338.74 431,-306.5 471.51,-276.19 487.09,-214.76 492.66,-182.45"/>
<polygon fill="#63b8ff" stroke="#63b8ff" points="496.09,-183.17 494.16,-172.76 489.17,-182.11 496.09,-183.17"/>
</a>
</g>
</g>
<!-- Node7 -->
<g id="Node000007" class="node">
<title>Node7</title>
<g id="a_Node000007"><a xlink:href="$tcfs__daemon__tools_8c.html#ab143feba805d6beda83eb69560c3c923" xlink:title="Test if the daemon is working by sending some messages.">
<polygon fill="white" stroke="#666666" points="212.5,-114 75.5,-114 75.5,-95 212.5,-95 212.5,-114"/>
<text text-anchor="middle" x="144" y="-102" font-family="Helvetica,sans-Serif" font-size="10.00">handle_outgoing_messages</text>
</a>
</g>
</g>
<!-- Node1&#45;&gt;Node7 -->
<g id="edge52_Node000001_Node000007" class="edge">
<title>Node1&#45;&gt;Node7</title>
<g id="a_edge52_Node000001_Node000007"><a xlink:title=" ">
<path fill="none" stroke="#63b8ff" d="M29.01,-189.66C39.31,-178.7 56.96,-160.78 74,-147.5 86.83,-137.51 102.08,-127.8 114.98,-120.14"/>
<polygon fill="#63b8ff" stroke="#63b8ff" points="116.54,-123.29 123.42,-115.24 113.02,-117.24 116.54,-123.29"/>
</a>
</g>
</g>
<!-- Node10 -->
<g id="Node000010" class="node">
<title>Node10</title>
<g id="a_Node000010"><a xlink:href="$tcfs__daemon_8c.html#a93d1097e4dd3c0735da3da2e89410090" xlink:title="Handle the termination if SIGTERM is received.">
<polygon fill="white" stroke="#666666" points="193,-294 95,-294 95,-275 193,-275 193,-294"/>
<text text-anchor="middle" x="144" y="-282" font-family="Helvetica,sans-Serif" font-size="10.00">handle_termination</text>
</a>
</g>
</g>
<!-- Node1&#45;&gt;Node10 -->
<g id="edge60_Node000001_Node000010" class="edge">
<title>Node1&#45;&gt;Node10</title>
<g id="a_edge60_Node000001_Node000010"><a xlink:title=" ">
<path fill="none" stroke="#63b8ff" d="M33.72,-209.24C44.61,-216.95 60.24,-227.97 74,-237.5 88.91,-247.82 105.73,-259.28 119.02,-268.3"/>
<polygon fill="#63b8ff" stroke="#63b8ff" points="116.92,-271.1 127.16,-273.81 120.85,-265.31 116.92,-271.1"/>
</a>
</g>
</g>
<!-- Node11 -->
<g id="Node000011" class="node">
<title>Node11</title>
<g id="a_Node000011"><a xlink:href="$queue_8c.html#a6997b2cacf3d2e49bc848d0274e24b13" xlink:title="Initialize the message queue.">
<polygon fill="white" stroke="#666666" points="311,-19 250,-19 250,0 311,0 311,-19"/>
<text text-anchor="middle" x="280.5" y="-7" font-family="Helvetica,sans-Serif" font-size="10.00">init_queue</text>
</a>
</g>
</g>
<!-- Node1&#45;&gt;Node11 -->
<g id="edge62_Node000001_Node000011" class="edge">
<title>Node1&#45;&gt;Node11</title>
<g id="a_edge62_Node000001_Node000011"><a xlink:title=" ">
<path fill="none" stroke="#63b8ff" d="M21.98,-189.77C26.91,-168.02 41.69,-115.08 74,-85.5 120.59,-42.85 193.19,-23.55 238.47,-15.26"/>
<polygon fill="#63b8ff" stroke="#63b8ff" points="238.88,-18.74 248.14,-13.59 237.69,-11.84 238.88,-18.74"/>
</a>
</g>
</g>
<!-- Node3 -->
<g id="Node000003" class="node">
<title>Node3</title>
<g id="a_Node000003"><a xlink:href="$queue_8c.html#a1874b6e320d1e54d571c89766d046602" xlink:title="Dequeue a message from the queue and get is as a void* pointing to a structure that will be either &#160;&#160;...">
<polygon fill="white" stroke="#666666" points="307,-247 254,-247 254,-228 307,-228 307,-247"/>
<text text-anchor="middle" x="280.5" y="-235" font-family="Helvetica,sans-Serif" font-size="10.00">dequeue</text>
</a>
</g>
</g>
<!-- Node2&#45;&gt;Node3 -->
<g id="edge46_Node000002_Node000003" class="edge">
<title>Node2&#45;&gt;Node3</title>
<g id="a_edge46_Node000002_Node000003"><a xlink:title=" ">
<path fill="none" stroke="#63b8ff" d="M214.22,-228.28C223.87,-229.64 233.46,-231 242.2,-232.23"/>
<polygon fill="#63b8ff" stroke="#63b8ff" points="241.64,-235.69 252.03,-233.62 242.62,-228.75 241.64,-235.69"/>
</a>
</g>
</g>
<!-- Node2&#45;&gt;Node4 -->
<g id="edge50_Node000002_Node000004" class="edge">
<title>Node2&#45;&gt;Node4</title>
<g id="a_edge50_Node000002_Node000004"><a xlink:title=" ">
<path fill="none" stroke="#63b8ff" d="M187.61,-208.51C234.09,-197.6 307.71,-180.33 351.59,-170.04"/>
<polygon fill="#63b8ff" stroke="#63b8ff" points="352.19,-173.49 361.13,-167.8 350.59,-166.68 352.19,-173.49"/>
</a>
</g>
</g>
<!-- Node2&#45;&gt;Node5 -->
<g id="edge51_Node000002_Node000005" class="edge">
<title>Node2&#45;&gt;Node5</title>
<g id="a_edge51_Node000002_Node000005"><a xlink:title=" ">
<path fill="none" stroke="#63b8ff" d="M164.43,-228.49C212.71,-251.8 340.71,-304.33 431,-256.5 460.55,-240.84 479.07,-204.91 488.33,-182"/>
<polygon fill="#63b8ff" stroke="#63b8ff" points="491.54,-183.39 491.8,-172.8 484.99,-180.92 491.54,-183.39"/>
</a>
</g>
</g>
<!-- Node3&#45;&gt;Node4 -->
<g id="edge47_Node000003_Node000004" class="edge">
<title>Node3&#45;&gt;Node4</title>
<g id="a_edge47_Node000003_Node000004"><a xlink:title=" ">
<path fill="none" stroke="#63b8ff" d="M293.68,-227.68C311.08,-213.67 341.58,-189.21 347,-185.5 351.06,-182.72 355.45,-179.94 359.8,-177.3"/>
<polygon fill="#63b8ff" stroke="#63b8ff" points="361.55,-180.33 368.39,-172.24 358,-174.3 361.55,-180.33"/>
</a>
</g>
</g>
<!-- Node3&#45;&gt;Node5 -->
<g id="edge48_Node000003_Node000005" class="edge">
<title>Node3&#45;&gt;Node5</title>
<g id="a_edge48_Node000003_Node000005"><a xlink:title=" ">
<path fill="none" stroke="#63b8ff" d="M307.31,-228.33C344.54,-215.11 413.56,-190.6 456.87,-175.22"/>
<polygon fill="#63b8ff" stroke="#63b8ff" points="457.88,-178.57 466.13,-171.93 455.54,-171.98 457.88,-178.57"/>
</a>
</g>
</g>
<!-- Node6 -->
<g id="Node000006" class="node">
<title>Node6</title>
<g id="a_Node000006"><a xlink:href="$json__tools_8cpp.html#a513edf914a6a6141c7892d193d0c1f52" xlink:title="Cast a json string to a struct.">
<polygon fill="white" stroke="#666666" points="431,-247 347,-247 347,-228 431,-228 431,-247"/>
<text text-anchor="middle" x="389" y="-235" font-family="Helvetica,sans-Serif" font-size="10.00">string_to_struct</text>
</a>
</g>
</g>
<!-- Node3&#45;&gt;Node6 -->
<g id="edge49_Node000003_Node000006" class="edge">
<title>Node3&#45;&gt;Node6</title>
<g id="a_edge49_Node000003_Node000006"><a xlink:title=" ">
<path fill="none" stroke="#63b8ff" d="M307.28,-237.5C315.78,-237.5 325.56,-237.5 335.31,-237.5"/>
<polygon fill="#63b8ff" stroke="#63b8ff" points="335.16,-241 345.16,-237.5 335.16,-234 335.16,-241"/>
</a>
</g>
</g>
<!-- Node7&#45;&gt;Node4 -->
<g id="edge58_Node000007_Node000004" class="edge">
<title>Node7&#45;&gt;Node4</title>
<g id="a_edge58_Node000007_Node000004"><a xlink:title=" ">
<path fill="none" stroke="#63b8ff" d="M187.61,-114.49C234.09,-125.4 307.71,-142.67 351.59,-152.96"/>
<polygon fill="#63b8ff" stroke="#63b8ff" points="350.59,-156.32 361.13,-155.2 352.19,-149.51 350.59,-156.32"/>
</a>
</g>
</g>
<!-- Node7&#45;&gt;Node5 -->
<g id="edge59_Node000007_Node000005" class="edge">
<title>Node7&#45;&gt;Node5</title>
<g id="a_edge59_Node000007_Node000005"><a xlink:title=" ">
<path fill="none" stroke="#63b8ff" d="M164.43,-94.51C212.71,-71.2 340.71,-18.67 431,-66.5 460.55,-82.16 479.07,-118.09 488.33,-141"/>
<polygon fill="#63b8ff" stroke="#63b8ff" points="484.99,-142.08 491.8,-150.2 491.54,-139.61 484.99,-142.08"/>
</a>
</g>
</g>
<!-- Node8 -->
<g id="Node000008" class="node">
<title>Node8</title>
<g id="a_Node000008"><a xlink:href="$queue_8c.html#ac51f5d595a9d7376eb0448116c99e1f4" xlink:title="Enqueues a message void* message on the queue.">
<polygon fill="white" stroke="#666666" points="307,-95 254,-95 254,-76 307,-76 307,-95"/>
<text text-anchor="middle" x="280.5" y="-83" font-family="Helvetica,sans-Serif" font-size="10.00">enqueue</text>
</a>
</g>
</g>
<!-- Node7&#45;&gt;Node8 -->
<g id="edge53_Node000007_Node000008" class="edge">
<title>Node7&#45;&gt;Node8</title>
<g id="a_edge53_Node000007_Node000008"><a xlink:title=" ">
<path fill="none" stroke="#63b8ff" d="M212.64,-94.94C222.95,-93.49 233.24,-92.04 242.55,-90.72"/>
<polygon fill="#63b8ff" stroke="#63b8ff" points="242.84,-94.21 252.25,-89.35 241.86,-87.28 242.84,-94.21"/>
</a>
</g>
</g>
<!-- Node8&#45;&gt;Node4 -->
<g id="edge54_Node000008_Node000004" class="edge">
<title>Node8&#45;&gt;Node4</title>
<g id="a_edge54_Node000008_Node000004"><a xlink:title=" ">
<path fill="none" stroke="#63b8ff" d="M293.68,-95.32C311.08,-109.33 341.58,-133.79 347,-137.5 351.06,-140.28 355.45,-143.06 359.8,-145.7"/>
<polygon fill="#63b8ff" stroke="#63b8ff" points="358,-148.7 368.39,-150.76 361.55,-142.67 358,-148.7"/>
</a>
</g>
</g>
<!-- Node8&#45;&gt;Node5 -->
<g id="edge55_Node000008_Node000005" class="edge">
<title>Node8&#45;&gt;Node5</title>
<g id="a_edge55_Node000008_Node000005"><a xlink:title=" ">
<path fill="none" stroke="#63b8ff" d="M307.31,-94.67C344.54,-107.89 413.56,-132.4 456.87,-147.78"/>
<polygon fill="#63b8ff" stroke="#63b8ff" points="455.54,-151.02 466.13,-151.07 457.88,-144.43 455.54,-151.02"/>
</a>
</g>
</g>
<!-- Node9 -->
<g id="Node000009" class="node">
<title>Node9</title>
<g id="a_Node000009"><a xlink:href="$json__tools_8cpp.html#abe22bc6ace23fc8f7e186a824784765f" xlink:title="Cast a qm_user, qm_shared or qm_broad struct to a json string representing the struct.">
<polygon fill="white" stroke="#666666" points="428,-95 350,-95 350,-76 428,-76 428,-95"/>
<text text-anchor="middle" x="389" y="-83" font-family="Helvetica,sans-Serif" font-size="10.00">struct_to_json</text>
</a>
</g>
</g>
<!-- Node8&#45;&gt;Node9 -->
<g id="edge56_Node000008_Node000009" class="edge">
<title>Node8&#45;&gt;Node9</title>
<g id="a_edge56_Node000008_Node000009"><a xlink:title=" ">
<path fill="none" stroke="#63b8ff" d="M307.28,-85.5C316.59,-85.5 327.45,-85.5 338.13,-85.5"/>
<polygon fill="#63b8ff" stroke="#63b8ff" points="338.04,-89 348.04,-85.5 338.04,-82 338.04,-89"/>
</a>
</g>
</g>
<!-- Node9&#45;&gt;Node5 -->
<g id="edge57_Node000009_Node000005" class="edge">
<title>Node9&#45;&gt;Node5</title>
<g id="a_edge57_Node000009_Node000005"><a xlink:title=" ">
<path fill="none" stroke="#63b8ff" d="M408.32,-95.45C415.54,-99.57 423.8,-104.53 431,-109.5 446.66,-120.31 463.36,-133.83 475.84,-144.38"/>
<polygon fill="#63b8ff" stroke="#63b8ff" points="473.45,-146.94 483.33,-150.78 478,-141.62 473.45,-146.94"/>
</a>
</g>
</g>
<!-- Node10&#45;&gt;Node5 -->
<g id="edge61_Node000010_Node000005" class="edge">
<title>Node10&#45;&gt;Node5</title>
<g id="a_edge61_Node000010_Node000005"><a xlink:title=" ">
<path fill="none" stroke="#63b8ff" d="M180.19,-294.42C237.42,-308.39 352.18,-327.18 431,-279.5 466.32,-258.13 483.62,-209.98 490.94,-182.24"/>
<polygon fill="#63b8ff" stroke="#63b8ff" points="494.26,-183.44 493.21,-172.9 487.45,-181.79 494.26,-183.44"/>
</a>
</g>
</g>
<!-- Node11&#45;&gt;Node4 -->
<g id="edge63_Node000011_Node000004" class="edge">
<title>Node11&#45;&gt;Node4</title>
<g id="a_edge63_Node000011_Node000004"><a xlink:title=" ">
<path fill="none" stroke="#63b8ff" d="M288.36,-19.39C300.26,-36.54 325.52,-72.89 347,-103.5 356.11,-116.48 366.42,-131.06 374.42,-142.35"/>
<polygon fill="#63b8ff" stroke="#63b8ff" points="371.5,-144.29 380.14,-150.43 377.21,-140.25 371.5,-144.29"/>
</a>
</g>
</g>
<!-- Node11&#45;&gt;Node5 -->
<g id="edge64_Node000011_Node000005" class="edge">
<title>Node11&#45;&gt;Node5</title>
<g id="a_edge64_Node000011_Node000005"><a xlink:title=" ">
<path fill="none" stroke="#63b8ff" d="M311.47,-6.73C344.01,-5.32 395.99,-7.89 431,-33.5 466.85,-59.73 484.06,-111.61 491.2,-140.62"/>
<polygon fill="#63b8ff" stroke="#63b8ff" points="487.71,-141.06 493.33,-150.04 494.54,-139.51 487.71,-141.06"/>
</a>
</g>
</g>
</g>
</svg>
