<?xml version="1.0" encoding="UTF-8" standalone="no"?>
<!DOCTYPE svg PUBLIC "-//W3C//DTD SVG 1.1//EN"
 "http://www.w3.org/Graphics/SVG/1.1/DTD/svg11.dtd">
<!-- Generated by graphviz version 8.1.0 (20230707.0739)
 -->
<!-- Title: handle_remote_mount Pages: 1 -->
<svg width="352pt" height="66pt"
 viewBox="0.00 0.00 351.50 66.00" xmlns="http://www.w3.org/2000/svg" xmlns:xlink="http://www.w3.org/1999/xlink">
<g id="graph0" class="graph" transform="scale(1 1) rotate(0) translate(4 62)">
<title>handle_remote_mount</title>
<!-- Node1 -->
<g id="Node000001" class="node">
<title>Node1</title>
<g id="a_Node000001"><a xlink:title=" ">
<polygon fill="#999999" stroke="#666666" points="112,-39 0,-39 0,-19 112,-19 112,-39"/>
<text text-anchor="middle" x="56" y="-25.5" font-family="Helvetica,sans-Serif" font-size="10.00">handle_remote_mount</text>
</a>
</g>
</g>
<!-- Node2 -->
<g id="Node000002" class="node">
<title>Node2</title>
<g id="a_Node000002"><a xlink:href="$tcfs__helper__tools_8c.html#acfa06becac8f67e9f278cfcbf91cc51b" xlink:title=" ">
<polygon fill="white" stroke="#666666" points="251.75,-58 148,-58 148,-38 251.75,-38 251.75,-58"/>
<text text-anchor="middle" x="199.88" y="-44.5" font-family="Helvetica,sans-Serif" font-size="10.00">clearKeyboardBuffer</text>
</a>
</g>
</g>
<!-- Node1&#45;&gt;Node2 -->
<g id="edge7_Node000001_Node000002" class="edge">
<title>Node1&#45;&gt;Node2</title>
<g id="a_edge7_Node000001_Node000002"><a xlink:title=" ">
<path fill="none" stroke="#63b8ff" d="M112.26,-36.4C120.37,-37.49 128.78,-38.61 137.01,-39.72"/>
<polygon fill="#63b8ff" stroke="#63b8ff" points="136.33,-43.29 146.71,-41.15 137.26,-36.35 136.33,-43.29"/>
</a>
</g>
</g>
<!-- Node3 -->
<g id="Node000003" class="node">
<title>Node3</title>
<g id="a_Node000003"><a xlink:href="$tcfs__helper__tools_8c.html#a26931b8bdf24be94e03f4d77e991d063" xlink:title=" ">
<polygon fill="white" stroke="#666666" points="246.88,-20 152.88,-20 152.88,0 246.88,0 246.88,-20"/>
<text text-anchor="middle" x="199.88" y="-6.5" font-family="Helvetica,sans-Serif" font-size="10.00">mount_tcfs_folder</text>
</a>
</g>
</g>
<!-- Node1&#45;&gt;Node3 -->
<g id="edge8_Node000001_Node000003" class="edge">
<title>Node1&#45;&gt;Node3</title>
<g id="a_edge8_Node000001_Node000003"><a xlink:title=" ">
<path fill="none" stroke="#63b8ff" d="M112.26,-21.6C121.98,-20.3 132.12,-18.94 141.89,-17.63"/>
<polygon fill="#63b8ff" stroke="#63b8ff" points="142.27,-20.98 151.72,-16.18 141.34,-14.04 142.27,-20.98"/>
</a>
</g>
</g>
<!-- Node4 -->
<g id="Node000004" class="node">
<title>Node4</title>
<g id="a_Node000004"><a xlink:href="$tcfs__helper__tools_8c.html#a1bef5d2cdd74c07b3ae025c6424dfbd5" xlink:title="fetch the password of the current user. This function is marked as internal and should not be used by...">
<polygon fill="white" stroke="#666666" points="343.5,-20 287.75,-20 287.75,0 343.5,0 343.5,-20"/>
<text text-anchor="middle" x="315.62" y="-6.5" font-family="Helvetica,sans-Serif" font-size="10.00">get_pass</text>
</a>
</g>
</g>
<!-- Node3&#45;&gt;Node4 -->
<g id="edge9_Node000003_Node000004" class="edge">
<title>Node3&#45;&gt;Node4</title>
<g id="a_edge9_Node000003_Node000004"><a xlink:title=" ">
<path fill="none" stroke="#63b8ff" d="M247.14,-10C256.85,-10 266.98,-10 276.36,-10"/>
<polygon fill="#63b8ff" stroke="#63b8ff" points="276.34,-13.5 286.34,-10 276.34,-6.5 276.34,-13.5"/>
</a>
</g>
</g>
</g>
</svg>
