<?xml version="1.0" encoding="UTF-8" standalone="no"?>
<!DOCTYPE svg PUBLIC "-//W3C//DTD SVG 1.1//EN"
 "http://www.w3.org/Graphics/SVG/1.1/DTD/svg11.dtd">
<!-- Generated by graphviz version 8.1.0 (20230707.0739)
 -->
<!-- Title: get_pass Pages: 1 -->
<svg width="510pt" height="104pt"
 viewBox="0.00 0.00 509.50 104.00" xmlns="http://www.w3.org/2000/svg" xmlns:xlink="http://www.w3.org/1999/xlink">
<g id="graph0" class="graph" transform="scale(1 1) rotate(0) translate(4 100)">
<title>get_pass</title>
<!-- Node1 -->
<g id="Node000001" class="node">
<title>Node1</title>
<g id="a_Node000001"><a xlink:title="fetch the password of the current user. This function is marked as internal and should not be used by...">
<polygon fill="#999999" stroke="#666666" points="501.5,-58 445.75,-58 445.75,-38 501.5,-38 501.5,-58"/>
<text text-anchor="middle" x="473.62" y="-44.5" font-family="Helvetica,sans-Serif" font-size="10.00">get_pass</text>
</a>
</g>
</g>
<!-- Node2 -->
<g id="Node000002" class="node">
<title>Node2</title>
<g id="a_Node000002"><a xlink:href="$tcfs__helper__tools_8c.html#a26931b8bdf24be94e03f4d77e991d063" xlink:title=" ">
<polygon fill="white" stroke="#666666" points="409.75,-58 315.75,-58 315.75,-38 409.75,-38 409.75,-58"/>
<text text-anchor="middle" x="362.75" y="-44.5" font-family="Helvetica,sans-Serif" font-size="10.00">mount_tcfs_folder</text>
</a>
</g>
</g>
<!-- Node1&#45;&gt;Node2 -->
<g id="edge17_Node000001_Node000002" class="edge">
<title>Node1&#45;&gt;Node2</title>
<g id="a_edge17_Node000001_Node000002"><a xlink:title=" ">
<path fill="none" stroke="#63b8ff" d="M434.64,-48C426.71,-48 418.26,-48 410.06,-48"/>
<polygon fill="#63b8ff" stroke="#63b8ff" points="434.43,-51.5 444.43,-48 434.43,-44.5 434.43,-51.5"/>
</a>
</g>
</g>
<!-- Node3 -->
<g id="Node000003" class="node">
<title>Node3</title>
<g id="a_Node000003"><a xlink:href="$tcfs__helper__tools_8c.html#afaed41fa1136b829eb00a7de26a3739b" xlink:title=" ">
<polygon fill="white" stroke="#666666" points="276.75,-96 170.75,-96 170.75,-76 276.75,-76 276.75,-96"/>
<text text-anchor="middle" x="223.75" y="-82.5" font-family="Helvetica,sans-Serif" font-size="10.00">handle_folder_mount</text>
</a>
</g>
</g>
<!-- Node2&#45;&gt;Node3 -->
<g id="edge18_Node000002_Node000003" class="edge">
<title>Node2&#45;&gt;Node3</title>
<g id="a_edge18_Node000002_Node000003"><a xlink:title=" ">
<path fill="none" stroke="#63b8ff" d="M313.75,-61.31C296.93,-65.98 278.28,-71.15 262.43,-75.55"/>
<polygon fill="#63b8ff" stroke="#63b8ff" points="314.25,-64.53 322.95,-58.48 312.38,-57.78 314.25,-64.53"/>
</a>
</g>
</g>
<!-- Node6 -->
<g id="Node000006" class="node">
<title>Node6</title>
<g id="a_Node000006"><a xlink:href="$tcfs__helper__tools_8c.html#a816c2bcaa3d059abc79cb9b021957dbf" xlink:title=" ">
<polygon fill="white" stroke="#666666" points="274.88,-58 172.62,-58 172.62,-38 274.88,-38 274.88,-58"/>
<text text-anchor="middle" x="223.75" y="-44.5" font-family="Helvetica,sans-Serif" font-size="10.00">handle_local_mount</text>
</a>
</g>
</g>
<!-- Node2&#45;&gt;Node6 -->
<g id="edge21_Node000002_Node000006" class="edge">
<title>Node2&#45;&gt;Node6</title>
<g id="a_edge21_Node000002_Node000006"><a xlink:title=" ">
<path fill="none" stroke="#63b8ff" d="M304.58,-48C294.87,-48 284.84,-48 275.31,-48"/>
<polygon fill="#63b8ff" stroke="#63b8ff" points="304.37,-51.5 314.37,-48 304.37,-44.5 304.37,-51.5"/>
</a>
</g>
</g>
<!-- Node7 -->
<g id="Node000007" class="node">
<title>Node7</title>
<g id="a_Node000007"><a xlink:href="$tcfs__helper__tools_8c.html#aa5b1203d82818e149ae3ad3fd3840a40" xlink:title=" ">
<polygon fill="white" stroke="#666666" points="279.75,-20 167.75,-20 167.75,0 279.75,0 279.75,-20"/>
<text text-anchor="middle" x="223.75" y="-6.5" font-family="Helvetica,sans-Serif" font-size="10.00">handle_remote_mount</text>
</a>
</g>
</g>
<!-- Node2&#45;&gt;Node7 -->
<g id="edge23_Node000002_Node000007" class="edge">
<title>Node2&#45;&gt;Node7</title>
<g id="a_edge23_Node000002_Node000007"><a xlink:title=" ">
<path fill="none" stroke="#63b8ff" d="M313.75,-34.69C296.93,-30.02 278.28,-24.85 262.43,-20.45"/>
<polygon fill="#63b8ff" stroke="#63b8ff" points="312.38,-38.22 322.95,-37.52 314.25,-31.47 312.38,-38.22"/>
</a>
</g>
</g>
<!-- Node4 -->
<g id="Node000004" class="node">
<title>Node4</title>
<g id="a_Node000004"><a xlink:href="$tcfs__helper__tools_8c.html#a769edcf066efb97f5ae3a81e3507a793" xlink:title="Execute the mount of either a Network FS (for ex NFS), Local FS (for ex a block device),...">
<polygon fill="white" stroke="#666666" points="131.75,-58 73,-58 73,-38 131.75,-38 131.75,-58"/>
<text text-anchor="middle" x="102.38" y="-44.5" font-family="Helvetica,sans-Serif" font-size="10.00">do_mount</text>
</a>
</g>
</g>
<!-- Node3&#45;&gt;Node4 -->
<g id="edge19_Node000003_Node000004" class="edge">
<title>Node3&#45;&gt;Node4</title>
<g id="a_edge19_Node000003_Node000004"><a xlink:title=" ">
<path fill="none" stroke="#63b8ff" d="M179.72,-72.3C163.91,-67.27 146.4,-61.7 132.14,-57.16"/>
<polygon fill="#63b8ff" stroke="#63b8ff" points="178.22,-75.82 188.81,-75.52 180.35,-69.15 178.22,-75.82"/>
</a>
</g>
</g>
<!-- Node5 -->
<g id="Node000005" class="node">
<title>Node5</title>
<g id="a_Node000005"><a xlink:href="$user__tcfs_8c.html#a0ddf1224851353fc92bfbff6f499fa97" xlink:title="main function for the TCFS user helper program.">
<polygon fill="white" stroke="#666666" points="37,-58 0,-58 0,-38 37,-38 37,-58"/>
<text text-anchor="middle" x="18.5" y="-44.5" font-family="Helvetica,sans-Serif" font-size="10.00">main</text>
</a>
</g>
</g>
<!-- Node4&#45;&gt;Node5 -->
<g id="edge20_Node000004_Node000005" class="edge">
<title>Node4&#45;&gt;Node5</title>
<g id="a_edge20_Node000004_Node000005"><a xlink:title=" ">
<path fill="none" stroke="#63b8ff" d="M61.94,-48C53.29,-48 44.55,-48 37.27,-48"/>
<polygon fill="#63b8ff" stroke="#63b8ff" points="61.74,-51.5 71.74,-48 61.74,-44.5 61.74,-51.5"/>
</a>
</g>
</g>
<!-- Node6&#45;&gt;Node4 -->
<g id="edge22_Node000006_Node000004" class="edge">
<title>Node6&#45;&gt;Node4</title>
<g id="a_edge22_Node000006_Node000004"><a xlink:title=" ">
<path fill="none" stroke="#63b8ff" d="M161.74,-48C151.41,-48 141.14,-48 132.15,-48"/>
<polygon fill="#63b8ff" stroke="#63b8ff" points="161.47,-51.5 171.47,-48 161.47,-44.5 161.47,-51.5"/>
</a>
</g>
</g>
<!-- Node7&#45;&gt;Node4 -->
<g id="edge24_Node000007_Node000004" class="edge">
<title>Node7&#45;&gt;Node4</title>
<g id="a_edge24_Node000007_Node000004"><a xlink:title=" ">
<path fill="none" stroke="#63b8ff" d="M179.72,-23.7C163.91,-28.73 146.4,-34.3 132.14,-38.84"/>
<polygon fill="#63b8ff" stroke="#63b8ff" points="180.35,-26.85 188.81,-20.48 178.22,-20.18 180.35,-26.85"/>
</a>
</g>
</g>
</g>
</svg>
