<?xml version="1.0" encoding="UTF-8" standalone="no"?>
<!DOCTYPE svg PUBLIC "-//W3C//DTD SVG 1.1//EN"
 "http://www.w3.org/Graphics/SVG/1.1/DTD/svg11.dtd">
<!-- Generated by graphviz version 8.1.0 (20230707.0739)
 -->
<!-- Title: tcfs_readlink Pages: 1 -->
<svg width="582pt" height="180pt"
 viewBox="0.00 0.00 581.50 180.00" xmlns="http://www.w3.org/2000/svg" xmlns:xlink="http://www.w3.org/1999/xlink">
<g id="graph0" class="graph" transform="scale(1 1) rotate(0) translate(4 176)">
<title>tcfs_readlink</title>
<!-- Node1 -->
<g id="Node000001" class="node">
<title>Node1</title>
<g id="a_Node000001"><a xlink:title="Reads the target of a symbolic link.">
<polygon fill="#999999" stroke="#666666" points="71.5,-58 0,-58 0,-38 71.5,-38 71.5,-58"/>
<text text-anchor="middle" x="35.75" y="-44.5" font-family="Helvetica,sans-Serif" font-size="10.00">tcfs_readlink</text>
</a>
</g>
</g>
<!-- Node2 -->
<g id="Node000002" class="node">
<title>Node2</title>
<g id="a_Node000002"><a xlink:href="$crypt-utils_8c.html#ad9b10366ade9f2129ec2613fdc76df80" xlink:title="Encrypts each part of the given path using a specified key.">
<polygon fill="white" stroke="#666666" points="179.75,-96 107.5,-96 107.5,-76 179.75,-76 179.75,-96"/>
<text text-anchor="middle" x="143.62" y="-82.5" font-family="Helvetica,sans-Serif" font-size="10.00">encrypt_path</text>
</a>
</g>
</g>
<!-- Node1&#45;&gt;Node2 -->
<g id="edge17_Node000001_Node000002" class="edge">
<title>Node1&#45;&gt;Node2</title>
<g id="a_edge17_Node000001_Node000002"><a xlink:title=" ">
<path fill="none" stroke="#63b8ff" d="M65.96,-58.48C77.53,-62.64 91.01,-67.48 103.41,-71.93"/>
<polygon fill="#63b8ff" stroke="#63b8ff" points="101.91,-75.47 112.51,-75.55 104.28,-68.88 101.91,-75.47"/>
</a>
</g>
</g>
<!-- Node6 -->
<g id="Node000006" class="node">
<title>Node6</title>
<g id="a_Node000006"><a xlink:href="$tcfs__utils_8c.html#a62b66e43a7ad8b8cf9fcad67f71a7a8b" xlink:title="Logs a formatted message to a file with timestamp.">
<polygon fill="white" stroke="#666666" points="573.5,-96 505,-96 505,-76 573.5,-76 573.5,-96"/>
<text text-anchor="middle" x="539.25" y="-82.5" font-family="Helvetica,sans-Serif" font-size="10.00">logMessage</text>
</a>
</g>
</g>
<!-- Node1&#45;&gt;Node6 -->
<g id="edge23_Node000001_Node000006" class="edge">
<title>Node1&#45;&gt;Node6</title>
<g id="a_edge23_Node000001_Node000006"><a xlink:title=" ">
<path fill="none" stroke="#63b8ff" d="M71.62,-50.64C160.49,-57.38 395.39,-75.18 493.85,-82.64"/>
<polygon fill="#63b8ff" stroke="#63b8ff" points="493.37,-86.18 503.61,-83.45 493.9,-79.2 493.37,-86.18"/>
</a>
</g>
</g>
<!-- Node7 -->
<g id="Node000007" class="node">
<title>Node7</title>
<g id="a_Node000007"><a xlink:href="$tcfs__utils_8c.html#ac4ff59963f4a122c9f802c0c2bf2abc8" xlink:title="Prefix the realpath to the fuse path.">
<polygon fill="white" stroke="#666666" points="175.62,-20 111.62,-20 111.62,0 175.62,0 175.62,-20"/>
<text text-anchor="middle" x="143.62" y="-6.5" font-family="Helvetica,sans-Serif" font-size="10.00">prefix_path</text>
</a>
</g>
</g>
<!-- Node1&#45;&gt;Node7 -->
<g id="edge24_Node000001_Node000007" class="edge">
<title>Node1&#45;&gt;Node7</title>
<g id="a_edge24_Node000001_Node000007"><a xlink:title=" ">
<path fill="none" stroke="#63b8ff" d="M65.96,-37.52C77.53,-33.36 91.01,-28.52 103.41,-24.07"/>
<polygon fill="#63b8ff" stroke="#63b8ff" points="104.28,-27.12 112.51,-20.45 101.91,-20.53 104.28,-27.12"/>
</a>
</g>
</g>
<!-- Node3 -->
<g id="Node000003" class="node">
<title>Node3</title>
<g id="a_Node000003"><a xlink:href="$crypt-utils_8c.html#aa4a7facde8c6f63a7225c07e92232b2e" xlink:title=" ">
<polygon fill="white" stroke="#666666" points="355.5,-134 215.75,-134 215.75,-114 355.5,-114 355.5,-134"/>
<text text-anchor="middle" x="285.62" y="-120.5" font-family="Helvetica,sans-Serif" font-size="10.00">encrypt_file_name_with_hex</text>
</a>
</g>
</g>
<!-- Node2&#45;&gt;Node3 -->
<g id="edge18_Node000002_Node000003" class="edge">
<title>Node2&#45;&gt;Node3</title>
<g id="a_edge18_Node000002_Node000003"><a xlink:title=" ">
<path fill="none" stroke="#63b8ff" d="M179.95,-95.59C196.88,-100.18 217.43,-105.76 235.82,-110.75"/>
<polygon fill="#63b8ff" stroke="#63b8ff" points="234.79,-114.37 245.36,-113.61 236.62,-107.62 234.79,-114.37"/>
</a>
</g>
</g>
<!-- Node2&#45;&gt;Node6 -->
<g id="edge22_Node000002_Node000006" class="edge">
<title>Node2&#45;&gt;Node6</title>
<g id="a_edge22_Node000002_Node000006"><a xlink:title=" ">
<path fill="none" stroke="#63b8ff" d="M179.9,-86C251.81,-86 415.19,-86 494.04,-86"/>
<polygon fill="#63b8ff" stroke="#63b8ff" points="493.59,-89.5 503.59,-86 493.59,-82.5 493.59,-89.5"/>
</a>
</g>
</g>
<!-- Node4 -->
<g id="Node000004" class="node">
<title>Node4</title>
<g id="a_Node000004"><a xlink:href="$crypt-utils_8c.html#aa926098a8843cf0ab6bd7eb8b3bbd2e6" xlink:title="Encrypt the *plaintext string using a AES 256 key.">
<polygon fill="white" stroke="#666666" points="469,-172 391.5,-172 391.5,-152 469,-152 469,-172"/>
<text text-anchor="middle" x="430.25" y="-158.5" font-family="Helvetica,sans-Serif" font-size="10.00">encrypt_string</text>
</a>
</g>
</g>
<!-- Node3&#45;&gt;Node4 -->
<g id="edge19_Node000003_Node000004" class="edge">
<title>Node3&#45;&gt;Node4</title>
<g id="a_edge19_Node000003_Node000004"><a xlink:title=" ">
<path fill="none" stroke="#63b8ff" d="M325.98,-134.48C342.85,-138.98 362.74,-144.28 380.53,-149.02"/>
<polygon fill="#63b8ff" stroke="#63b8ff" points="379.45,-152.62 390.01,-151.81 381.25,-145.86 379.45,-152.62"/>
</a>
</g>
</g>
<!-- Node5 -->
<g id="Node000005" class="node">
<title>Node5</title>
<g id="a_Node000005"><a xlink:href="$tcfs__utils_8c.html#a819d57d5c053a25772508a943d1bcc48" xlink:title="Convert a string to its hexadecimal representation.">
<polygon fill="white" stroke="#666666" points="467.5,-134 393,-134 393,-114 467.5,-114 467.5,-134"/>
<text text-anchor="middle" x="430.25" y="-120.5" font-family="Helvetica,sans-Serif" font-size="10.00">string_to_hex</text>
</a>
</g>
</g>
<!-- Node3&#45;&gt;Node5 -->
<g id="edge20_Node000003_Node000005" class="edge">
<title>Node3&#45;&gt;Node5</title>
<g id="a_edge20_Node000003_Node000005"><a xlink:title=" ">
<path fill="none" stroke="#63b8ff" d="M355.85,-124C364.73,-124 373.66,-124 382.07,-124"/>
<polygon fill="#63b8ff" stroke="#63b8ff" points="381.8,-127.5 391.8,-124 381.8,-120.5 381.8,-127.5"/>
</a>
</g>
</g>
<!-- Node5&#45;&gt;Node6 -->
<g id="edge21_Node000005_Node000006" class="edge">
<title>Node5&#45;&gt;Node6</title>
<g id="a_edge21_Node000005_Node000006"><a xlink:title=" ">
<path fill="none" stroke="#63b8ff" d="M460.77,-113.52C472.47,-109.36 486.09,-104.52 498.62,-100.07"/>
<polygon fill="#63b8ff" stroke="#63b8ff" points="499.57,-103.09 507.82,-96.45 497.23,-96.5 499.57,-103.09"/>
</a>
</g>
</g>
</g>
</svg>
