<?xml version="1.0" encoding="UTF-8" standalone="no"?>
<!DOCTYPE svg PUBLIC "-//W3C//DTD SVG 1.1//EN"
 "http://www.w3.org/Graphics/SVG/1.1/DTD/svg11.dtd">
<!-- Generated by graphviz version 7.1.0 (0)
 -->
<!-- Title: main Pages: 1 -->
<svg width="275pt" height="123pt"
 viewBox="0.00 0.00 275.00 122.55" xmlns="http://www.w3.org/2000/svg" xmlns:xlink="http://www.w3.org/1999/xlink">
<g id="graph0" class="graph" transform="scale(1 1) rotate(0) translate(4 118.55)">
<title>main</title>
<!-- Node1 -->
<g id="Node000001" class="node">
<title>Node1</title>
<g id="a_Node000001"><a xlink:title="main function of the daemon. This will daemonize the program, spawn a thread to handle messages and h...">
<polygon fill="#999999" stroke="#666666" points="38,-57.55 0,-57.55 0,-38.55 38,-38.55 38,-57.55"/>
<text text-anchor="middle" x="19" y="-45.55" font-family="Helvetica,sans-Serif" font-size="10.00">main</text>
</a>
</g>
</g>
<!-- Node2 -->
<g id="Node000002" class="node">
<title>Node2</title>
<g id="a_Node000002"><a xlink:href="$tcfs__daemon_8c.html#a93d1097e4dd3c0735da3da2e89410090" xlink:title="Handle the termination if SIGTERM is received.">
<polygon fill="white" stroke="#666666" points="172,-114.55 74,-114.55 74,-95.55 172,-95.55 172,-114.55"/>
<text text-anchor="middle" x="123" y="-102.55" font-family="Helvetica,sans-Serif" font-size="10.00">handle_termination</text>
</a>
</g>
</g>
<!-- Node1&#45;&gt;Node2 -->
<g id="edge15_Node000001_Node000002" class="edge">
<title>Node1&#45;&gt;Node2</title>
<g id="a_edge15_Node000001_Node000002"><a xlink:title=" ">
<path fill="none" stroke="#63b8ff" d="M35.39,-57.94C46.08,-64.69 60.74,-73.7 74,-81.05 79.5,-84.1 85.44,-87.21 91.2,-90.14"/>
<polygon fill="#63b8ff" stroke="#63b8ff" points="89.38,-93.14 99.89,-94.48 92.51,-86.88 89.38,-93.14"/>
</a>
</g>
</g>
<!-- Node3 -->
<g id="Node000003" class="node">
<title>Node3</title>
<g id="a_Node000003"><a xlink:href="$print__utils_8c.html#a491dc14c94ed8cf706bb54880c50b2d0" xlink:title="Format and print data as a message.">
<polygon fill="white" stroke="#666666" points="267,-76.55 208,-76.55 208,-57.55 267,-57.55 267,-76.55"/>
<text text-anchor="middle" x="237.5" y="-64.55" font-family="Helvetica,sans-Serif" font-size="10.00">print_msg</text>
</a>
</g>
</g>
<!-- Node1&#45;&gt;Node3 -->
<g id="edge21_Node000001_Node000003" class="edge">
<title>Node1&#45;&gt;Node3</title>
<g id="a_edge21_Node000001_Node000003"><a xlink:title=" ">
<path fill="none" stroke="#63b8ff" d="M38.46,-49.67C73.24,-52.72 149.23,-59.39 196.31,-63.52"/>
<polygon fill="#63b8ff" stroke="#63b8ff" points="195.84,-67 206.11,-64.38 196.45,-60.02 195.84,-67"/>
</a>
</g>
</g>
<!-- Node4 -->
<g id="Node000004" class="node">
<title>Node4</title>
<g id="a_Node000004"><a xlink:href="$queue_8c.html#a6997b2cacf3d2e49bc848d0274e24b13" xlink:title="Initialize the message queue.">
<polygon fill="white" stroke="#666666" points="153.5,-38.55 92.5,-38.55 92.5,-19.55 153.5,-19.55 153.5,-38.55"/>
<text text-anchor="middle" x="123" y="-26.55" font-family="Helvetica,sans-Serif" font-size="10.00">init_queue</text>
</a>
</g>
</g>
<!-- Node1&#45;&gt;Node4 -->
<g id="edge17_Node000001_Node000004" class="edge">
<title>Node1&#45;&gt;Node4</title>
<g id="a_edge17_Node000001_Node000004"><a xlink:title=" ">
<path fill="none" stroke="#63b8ff" d="M38.24,-44.65C50.2,-42.43 66.33,-39.42 81.25,-36.64"/>
<polygon fill="#63b8ff" stroke="#63b8ff" points="81.65,-40.13 90.84,-34.86 80.37,-33.25 81.65,-40.13"/>
</a>
</g>
</g>
<!-- Node5 -->
<g id="Node000005" class="node">
<title>Node5</title>
<g id="a_Node000005"><a xlink:href="$print__utils_8c.html#a650ab060ffe5dbc6c1a968a9cae3bded" xlink:title="Format and print data as an error.">
<polygon fill="white" stroke="#666666" points="263.5,-19.55 211.5,-19.55 211.5,-0.55 263.5,-0.55 263.5,-19.55"/>
<text text-anchor="middle" x="237.5" y="-7.55" font-family="Helvetica,sans-Serif" font-size="10.00">print_err</text>
</a>
</g>
</g>
<!-- Node1&#45;&gt;Node5 -->
<g id="edge20_Node000001_Node000005" class="edge">
<title>Node1&#45;&gt;Node5</title>
<g id="a_edge20_Node000001_Node000005"><a xlink:title=" ">
<path fill="none" stroke="#63b8ff" d="M29.71,-38.36C39.79,-29.05 56.51,-15.59 74,-10.05 115.62,3.13 166.31,0.37 199.88,-3.87"/>
<polygon fill="#63b8ff" stroke="#63b8ff" points="199.12,-7.3 209.51,-5.2 200.08,-0.36 199.12,-7.3"/>
</a>
</g>
</g>
<!-- Node2&#45;&gt;Node3 -->
<g id="edge16_Node000002_Node000003" class="edge">
<title>Node2&#45;&gt;Node3</title>
<g id="a_edge16_Node000002_Node000003"><a xlink:title=" ">
<path fill="none" stroke="#63b8ff" d="M153.56,-95.07C166.84,-90.58 182.7,-85.22 196.99,-80.4"/>
<polygon fill="#63b8ff" stroke="#63b8ff" points="197.74,-83.84 206.09,-77.32 195.5,-77.21 197.74,-83.84"/>
</a>
</g>
</g>
<!-- Node4&#45;&gt;Node3 -->
<g id="edge19_Node000004_Node000003" class="edge">
<title>Node4&#45;&gt;Node3</title>
<g id="a_edge19_Node000004_Node000003"><a xlink:title=" ">
<path fill="none" stroke="#63b8ff" d="M153.56,-39.04C166.84,-43.52 182.7,-48.88 196.99,-53.7"/>
<polygon fill="#63b8ff" stroke="#63b8ff" points="195.5,-56.9 206.09,-56.78 197.74,-50.27 195.5,-56.9"/>
</a>
</g>
</g>
<!-- Node4&#45;&gt;Node5 -->
<g id="edge18_Node000004_Node000005" class="edge">
<title>Node4&#45;&gt;Node5</title>
<g id="a_edge18_Node000004_Node000005"><a xlink:title=" ">
<path fill="none" stroke="#63b8ff" d="M153.85,-24.01C168.07,-21.61 185.19,-18.72 200.15,-16.19"/>
<polygon fill="#63b8ff" stroke="#63b8ff" points="200.32,-19.71 209.6,-14.6 199.15,-12.81 200.32,-19.71"/>
</a>
</g>
</g>
</g>
</svg>
