<?xml version="1.0" encoding="UTF-8" standalone="no"?>
<!DOCTYPE svg PUBLIC "-//W3C//DTD SVG 1.1//EN"
 "http://www.w3.org/Graphics/SVG/1.1/DTD/svg11.dtd">
<!-- Generated by graphviz version 8.1.0 (20230707.0739)
 -->
<!-- Title: tcfs_release Pages: 1 -->
<svg width="642pt" height="180pt"
 viewBox="0.00 0.00 642.25 180.00" xmlns="http://www.w3.org/2000/svg" xmlns:xlink="http://www.w3.org/1999/xlink">
<g id="graph0" class="graph" transform="scale(1 1) rotate(0) translate(4 176)">
<title>tcfs_release</title>
<!-- Node1 -->
<g id="Node000001" class="node">
<title>Node1</title>
<g id="a_Node000001"><a xlink:title="Releases an open file.">
<polygon fill="#999999" stroke="#666666" points="69.25,-58 0,-58 0,-38 69.25,-38 69.25,-58"/>
<text text-anchor="middle" x="34.62" y="-44.5" font-family="Helvetica,sans-Serif" font-size="10.00">tcfs_release</text>
</a>
</g>
</g>
<!-- Node2 -->
<g id="Node000002" class="node">
<title>Node2</title>
<g id="a_Node000002"><a xlink:href="$crypt-utils_8c.html#a5c45db4d3db3ef274fb6356e1a95e644" xlink:title="Encrypts the given filename with its path using a specified key.">
<polygon fill="white" stroke="#666666" points="240.5,-96 105.25,-96 105.25,-76 240.5,-76 240.5,-96"/>
<text text-anchor="middle" x="172.88" y="-82.5" font-family="Helvetica,sans-Serif" font-size="10.00">encrypt_path_and_filename</text>
</a>
</g>
</g>
<!-- Node1&#45;&gt;Node2 -->
<g id="edge17_Node000001_Node000002" class="edge">
<title>Node1&#45;&gt;Node2</title>
<g id="a_edge17_Node000001_Node000002"><a xlink:title=" ">
<path fill="none" stroke="#63b8ff" d="M69.66,-57.49C86.05,-62.06 106,-67.63 123.9,-72.62"/>
<polygon fill="#63b8ff" stroke="#63b8ff" points="122.88,-76.25 133.45,-75.56 124.76,-69.5 122.88,-76.25"/>
</a>
</g>
</g>
<!-- Node6 -->
<g id="Node000006" class="node">
<title>Node6</title>
<g id="a_Node000006"><a xlink:href="$tcfs__utils_8c.html#a62b66e43a7ad8b8cf9fcad67f71a7a8b" xlink:title="Logs a formatted message to a file with timestamp.">
<polygon fill="white" stroke="#666666" points="634.25,-96 565.75,-96 565.75,-76 634.25,-76 634.25,-96"/>
<text text-anchor="middle" x="600" y="-82.5" font-family="Helvetica,sans-Serif" font-size="10.00">logMessage</text>
</a>
</g>
</g>
<!-- Node1&#45;&gt;Node6 -->
<g id="edge23_Node000001_Node000006" class="edge">
<title>Node1&#45;&gt;Node6</title>
<g id="a_edge23_Node000001_Node000006"><a xlink:title=" ">
<path fill="none" stroke="#63b8ff" d="M69.6,-50.29C166.67,-56.84 445.29,-75.63 554.41,-82.99"/>
<polygon fill="#63b8ff" stroke="#63b8ff" points="554.13,-86.55 564.34,-83.73 554.6,-79.56 554.13,-86.55"/>
</a>
</g>
</g>
<!-- Node7 -->
<g id="Node000007" class="node">
<title>Node7</title>
<g id="a_Node000007"><a xlink:href="$tcfs__utils_8c.html#ac4ff59963f4a122c9f802c0c2bf2abc8" xlink:title="Prefix the realpath to the fuse path.">
<polygon fill="white" stroke="#666666" points="204.88,-20 140.88,-20 140.88,0 204.88,0 204.88,-20"/>
<text text-anchor="middle" x="172.88" y="-6.5" font-family="Helvetica,sans-Serif" font-size="10.00">prefix_path</text>
</a>
</g>
</g>
<!-- Node1&#45;&gt;Node7 -->
<g id="edge24_Node000001_Node000007" class="edge">
<title>Node1&#45;&gt;Node7</title>
<g id="a_edge24_Node000001_Node000007"><a xlink:title=" ">
<path fill="none" stroke="#63b8ff" d="M69.66,-38.51C88.01,-33.39 110.82,-27.03 130.22,-21.62"/>
<polygon fill="#63b8ff" stroke="#63b8ff" points="130.92,-24.78 139.61,-18.72 129.04,-18.04 130.92,-24.78"/>
</a>
</g>
</g>
<!-- Node3 -->
<g id="Node000003" class="node">
<title>Node3</title>
<g id="a_Node000003"><a xlink:href="$crypt-utils_8c.html#aa4a7facde8c6f63a7225c07e92232b2e" xlink:title=" ">
<polygon fill="white" stroke="#666666" points="416.25,-134 276.5,-134 276.5,-114 416.25,-114 416.25,-134"/>
<text text-anchor="middle" x="346.38" y="-120.5" font-family="Helvetica,sans-Serif" font-size="10.00">encrypt_file_name_with_hex</text>
</a>
</g>
</g>
<!-- Node2&#45;&gt;Node3 -->
<g id="edge18_Node000002_Node000003" class="edge">
<title>Node2&#45;&gt;Node3</title>
<g id="a_edge18_Node000002_Node000003"><a xlink:title=" ">
<path fill="none" stroke="#63b8ff" d="M221.19,-96.48C241.72,-101.03 265.95,-106.4 287.53,-111.18"/>
<polygon fill="#63b8ff" stroke="#63b8ff" points="286.69,-114.8 297.21,-113.55 288.21,-107.97 286.69,-114.8"/>
</a>
</g>
</g>
<!-- Node2&#45;&gt;Node6 -->
<g id="edge22_Node000002_Node000006" class="edge">
<title>Node2&#45;&gt;Node6</title>
<g id="a_edge22_Node000002_Node000006"><a xlink:title=" ">
<path fill="none" stroke="#63b8ff" d="M240.77,-86C328.4,-86 479.67,-86 554.47,-86"/>
<polygon fill="#63b8ff" stroke="#63b8ff" points="554.37,-89.5 564.37,-86 554.37,-82.5 554.37,-89.5"/>
</a>
</g>
</g>
<!-- Node4 -->
<g id="Node000004" class="node">
<title>Node4</title>
<g id="a_Node000004"><a xlink:href="$crypt-utils_8c.html#aa926098a8843cf0ab6bd7eb8b3bbd2e6" xlink:title="Encrypt the *plaintext string using a AES 256 key.">
<polygon fill="white" stroke="#666666" points="529.75,-172 452.25,-172 452.25,-152 529.75,-152 529.75,-172"/>
<text text-anchor="middle" x="491" y="-158.5" font-family="Helvetica,sans-Serif" font-size="10.00">encrypt_string</text>
</a>
</g>
</g>
<!-- Node3&#45;&gt;Node4 -->
<g id="edge19_Node000003_Node000004" class="edge">
<title>Node3&#45;&gt;Node4</title>
<g id="a_edge19_Node000003_Node000004"><a xlink:title=" ">
<path fill="none" stroke="#63b8ff" d="M386.73,-134.48C403.6,-138.98 423.49,-144.28 441.28,-149.02"/>
<polygon fill="#63b8ff" stroke="#63b8ff" points="440.2,-152.62 450.76,-151.81 442,-145.86 440.2,-152.62"/>
</a>
</g>
</g>
<!-- Node5 -->
<g id="Node000005" class="node">
<title>Node5</title>
<g id="a_Node000005"><a xlink:href="$tcfs__utils_8c.html#a819d57d5c053a25772508a943d1bcc48" xlink:title="Convert a string to its hexadecimal representation.">
<polygon fill="white" stroke="#666666" points="528.25,-134 453.75,-134 453.75,-114 528.25,-114 528.25,-134"/>
<text text-anchor="middle" x="491" y="-120.5" font-family="Helvetica,sans-Serif" font-size="10.00">string_to_hex</text>
</a>
</g>
</g>
<!-- Node3&#45;&gt;Node5 -->
<g id="edge20_Node000003_Node000005" class="edge">
<title>Node3&#45;&gt;Node5</title>
<g id="a_edge20_Node000003_Node000005"><a xlink:title=" ">
<path fill="none" stroke="#63b8ff" d="M416.6,-124C425.48,-124 434.41,-124 442.82,-124"/>
<polygon fill="#63b8ff" stroke="#63b8ff" points="442.55,-127.5 452.55,-124 442.55,-120.5 442.55,-127.5"/>
</a>
</g>
</g>
<!-- Node5&#45;&gt;Node6 -->
<g id="edge21_Node000005_Node000006" class="edge">
<title>Node5&#45;&gt;Node6</title>
<g id="a_edge21_Node000005_Node000006"><a xlink:title=" ">
<path fill="none" stroke="#63b8ff" d="M521.52,-113.52C533.22,-109.36 546.84,-104.52 559.37,-100.07"/>
<polygon fill="#63b8ff" stroke="#63b8ff" points="560.32,-103.09 568.57,-96.45 557.98,-96.5 560.32,-103.09"/>
</a>
</g>
</g>
</g>
</svg>
