<?xml version="1.0" encoding="UTF-8" standalone="no"?>
<!DOCTYPE svg PUBLIC "-//W3C//DTD SVG 1.1//EN"
 "http://www.w3.org/Graphics/SVG/1.1/DTD/svg11.dtd">
<!-- Generated by graphviz version 8.1.0 (20230707.0739)
 -->
<!-- Title: create_tcfs_mount_local_folder Pages: 1 -->
<svg width="437pt" height="40pt"
 viewBox="0.00 0.00 436.50 40.00" xmlns="http://www.w3.org/2000/svg" xmlns:xlink="http://www.w3.org/1999/xlink">
<g id="graph0" class="graph" transform="scale(1 1) rotate(0) translate(4 36)">
<title>create_tcfs_mount_local_folder</title>
<!-- Node1 -->
<g id="Node000001" class="node">
<title>Node1</title>
<g id="a_Node000001"><a xlink:title="Create a temporary folder in HOME/.tcfs.">
<polygon fill="#999999" stroke="#666666" points="428.5,-32 306,-32 306,0 428.5,0 428.5,-32"/>
<text text-anchor="start" x="314" y="-18.5" font-family="Helvetica,sans-Serif" font-size="10.00">create_tcfs_mount_local</text>
<text text-anchor="middle" x="367.25" y="-6.5" font-family="Helvetica,sans-Serif" font-size="10.00">_folder</text>
</a>
</g>
</g>
<!-- Node2 -->
<g id="Node000002" class="node">
<title>Node2</title>
<g id="a_Node000002"><a xlink:href="$tcfs__helper__tools_8c.html#a816c2bcaa3d059abc79cb9b021957dbf" xlink:title=" ">
<polygon fill="white" stroke="#666666" points="270,-26 167.75,-26 167.75,-6 270,-6 270,-26"/>
<text text-anchor="middle" x="218.88" y="-12.5" font-family="Helvetica,sans-Serif" font-size="10.00">handle_local_mount</text>
</a>
</g>
</g>
<!-- Node1&#45;&gt;Node2 -->
<g id="edge7_Node000001_Node000002" class="edge">
<title>Node1&#45;&gt;Node2</title>
<g id="a_edge7_Node000001_Node000002"><a xlink:title=" ">
<path fill="none" stroke="#63b8ff" d="M294.98,-16C286.65,-16 278.3,-16 270.34,-16"/>
<polygon fill="#63b8ff" stroke="#63b8ff" points="294.87,-19.5 304.87,-16 294.87,-12.5 294.87,-19.5"/>
</a>
</g>
</g>
<!-- Node3 -->
<g id="Node000003" class="node">
<title>Node3</title>
<g id="a_Node000003"><a xlink:href="$tcfs__helper__tools_8c.html#a769edcf066efb97f5ae3a81e3507a793" xlink:title="Execute the mount of either a Network FS (for ex NFS), Local FS (for ex a block device),...">
<polygon fill="white" stroke="#666666" points="131.75,-26 73,-26 73,-6 131.75,-6 131.75,-26"/>
<text text-anchor="middle" x="102.38" y="-12.5" font-family="Helvetica,sans-Serif" font-size="10.00">do_mount</text>
</a>
</g>
</g>
<!-- Node2&#45;&gt;Node3 -->
<g id="edge8_Node000002_Node000003" class="edge">
<title>Node2&#45;&gt;Node3</title>
<g id="a_edge8_Node000002_Node000003"><a xlink:title=" ">
<path fill="none" stroke="#63b8ff" d="M156.49,-16C147.95,-16 139.53,-16 132.01,-16"/>
<polygon fill="#63b8ff" stroke="#63b8ff" points="156.32,-19.5 166.32,-16 156.32,-12.5 156.32,-19.5"/>
</a>
</g>
</g>
<!-- Node4 -->
<g id="Node000004" class="node">
<title>Node4</title>
<g id="a_Node000004"><a xlink:href="$user__tcfs_8c.html#a0ddf1224851353fc92bfbff6f499fa97" xlink:title="main function for the TCFS user helper program.">
<polygon fill="white" stroke="#666666" points="37,-26 0,-26 0,-6 37,-6 37,-26"/>
<text text-anchor="middle" x="18.5" y="-12.5" font-family="Helvetica,sans-Serif" font-size="10.00">main</text>
</a>
</g>
</g>
<!-- Node3&#45;&gt;Node4 -->
<g id="edge9_Node000003_Node000004" class="edge">
<title>Node3&#45;&gt;Node4</title>
<g id="a_edge9_Node000003_Node000004"><a xlink:title=" ">
<path fill="none" stroke="#63b8ff" d="M61.94,-16C53.29,-16 44.55,-16 37.27,-16"/>
<polygon fill="#63b8ff" stroke="#63b8ff" points="61.74,-19.5 71.74,-16 61.74,-12.5 61.74,-19.5"/>
</a>
</g>
</g>
</g>
</svg>
