<?xml version="1.0" encoding="UTF-8" standalone="no"?>
<!DOCTYPE svg PUBLIC "-//W3C//DTD SVG 1.1//EN"
 "http://www.w3.org/Graphics/SVG/1.1/DTD/svg11.dtd">
<!-- Generated by graphviz version 8.1.0 (20230707.0739)
 -->
<!-- Title: create_tcfs_mount_local_folder Pages: 1 -->
<svg width="446pt" height="66pt"
 viewBox="0.00 0.00 446.00 66.00" xmlns="http://www.w3.org/2000/svg" xmlns:xlink="http://www.w3.org/1999/xlink">
<g id="graph0" class="graph" transform="scale(1 1) rotate(0) translate(4 62)">
<title>create_tcfs_mount_local_folder</title>
<!-- Node1 -->
<g id="Node000001" class="node">
<title>Node1</title>
<g id="a_Node000001"><a xlink:title="Create a temporary folder in HOME/.tcfs.">
<polygon fill="#999999" stroke="#666666" points="122.5,-45 0,-45 0,-13 122.5,-13 122.5,-45"/>
<text text-anchor="start" x="8" y="-31.5" font-family="Helvetica,sans-Serif" font-size="10.00">create_tcfs_mount_local</text>
<text text-anchor="middle" x="61.25" y="-19.5" font-family="Helvetica,sans-Serif" font-size="10.00">_folder</text>
</a>
</g>
</g>
<!-- Node2 -->
<g id="Node000002" class="node">
<title>Node2</title>
<g id="a_Node000002"><a xlink:href="$tcfs__helper__tools_8c.html#a3644c45d6131fe1528ce36163e299fd9" xlink:title="Creates the .tcfs folder in the user HOME. Then this creates a folder with a random name so that crea...">
<polygon fill="white" stroke="#666666" points="281.75,-39 158.5,-39 158.5,-19 281.75,-19 281.75,-39"/>
<text text-anchor="middle" x="220.12" y="-25.5" font-family="Helvetica,sans-Serif" font-size="10.00">setup_tcfs_mount_folder</text>
</a>
</g>
</g>
<!-- Node1&#45;&gt;Node2 -->
<g id="edge7_Node000001_Node000002" class="edge">
<title>Node1&#45;&gt;Node2</title>
<g id="a_edge7_Node000001_Node000002"><a xlink:title=" ">
<path fill="none" stroke="#63b8ff" d="M122.9,-29C130.84,-29 139.04,-29 147.15,-29"/>
<polygon fill="#63b8ff" stroke="#63b8ff" points="147.12,-32.5 157.12,-29 147.12,-25.5 147.12,-32.5"/>
</a>
</g>
</g>
<!-- Node3 -->
<g id="Node000003" class="node">
<title>Node3</title>
<g id="a_Node000003"><a xlink:href="$tcfs__helper__tools_8c.html#ab3cdcc12b3bc92a382784027c94a2027" xlink:title="Check if a directory already exists. This function is marked as internal and should not be used by th...">
<polygon fill="white" stroke="#666666" points="420.38,-58 335.38,-58 335.38,-38 420.38,-38 420.38,-58"/>
<text text-anchor="middle" x="377.88" y="-44.5" font-family="Helvetica,sans-Serif" font-size="10.00">directory_exists</text>
</a>
</g>
</g>
<!-- Node2&#45;&gt;Node3 -->
<g id="edge8_Node000002_Node000003" class="edge">
<title>Node2&#45;&gt;Node3</title>
<g id="a_edge8_Node000002_Node000003"><a xlink:title=" ">
<path fill="none" stroke="#63b8ff" d="M282.23,-36.45C296.22,-38.16 310.97,-39.96 324.55,-41.62"/>
<polygon fill="#63b8ff" stroke="#63b8ff" points="323.8,-45.17 334.15,-42.91 324.65,-38.22 323.8,-45.17"/>
</a>
</g>
</g>
<!-- Node4 -->
<g id="Node000004" class="node">
<title>Node4</title>
<g id="a_Node000004"><a xlink:href="$tcfs__helper__tools_8c.html#a8ef1473d59fd1cfc680fe1b227604a02" xlink:title="Generate a random string that will be used as a folder name for the mount. This function is marked as...">
<polygon fill="white" stroke="#666666" points="438,-20 317.75,-20 317.75,0 438,0 438,-20"/>
<text text-anchor="middle" x="377.88" y="-6.5" font-family="Helvetica,sans-Serif" font-size="10.00">generate_random_string</text>
</a>
</g>
</g>
<!-- Node2&#45;&gt;Node4 -->
<g id="edge9_Node000002_Node000004" class="edge">
<title>Node2&#45;&gt;Node4</title>
<g id="a_edge9_Node000002_Node000004"><a xlink:title=" ">
<path fill="none" stroke="#63b8ff" d="M282.23,-21.55C290.29,-20.56 298.6,-19.55 306.8,-18.55"/>
<polygon fill="#63b8ff" stroke="#63b8ff" points="306.97,-21.93 316.47,-17.25 306.12,-14.98 306.97,-21.93"/>
</a>
</g>
</g>
</g>
</svg>
