<?xml version="1.0" encoding="UTF-8" standalone="no"?>
<!DOCTYPE svg PUBLIC "-//W3C//DTD SVG 1.1//EN"
 "http://www.w3.org/Graphics/SVG/1.1/DTD/svg11.dtd">
<!-- Generated by graphviz version 8.1.0 (20230707.0739)
 -->
<!-- Title: tcfs_access Pages: 1 -->
<svg width="579pt" height="180pt"
 viewBox="0.00 0.00 579.25 180.00" xmlns="http://www.w3.org/2000/svg" xmlns:xlink="http://www.w3.org/1999/xlink">
<g id="graph0" class="graph" transform="scale(1 1) rotate(0) translate(4 176)">
<title>tcfs_access</title>
<!-- Node1 -->
<g id="Node000001" class="node">
<title>Node1</title>
<g id="a_Node000001"><a xlink:title="Checks file access permissions.">
<polygon fill="#999999" stroke="#666666" points="69.25,-58 0,-58 0,-38 69.25,-38 69.25,-58"/>
<text text-anchor="middle" x="34.62" y="-44.5" font-family="Helvetica,sans-Serif" font-size="10.00">tcfs_access</text>
</a>
</g>
</g>
<!-- Node2 -->
<g id="Node000002" class="node">
<title>Node2</title>
<g id="a_Node000002"><a xlink:href="$crypt-utils_8c.html#ad9b10366ade9f2129ec2613fdc76df80" xlink:title="Encrypts each part of the given path using a specified key.">
<polygon fill="white" stroke="#666666" points="177.5,-96 105.25,-96 105.25,-76 177.5,-76 177.5,-96"/>
<text text-anchor="middle" x="141.38" y="-82.5" font-family="Helvetica,sans-Serif" font-size="10.00">encrypt_path</text>
</a>
</g>
</g>
<!-- Node1&#45;&gt;Node2 -->
<g id="edge17_Node000001_Node000002" class="edge">
<title>Node1&#45;&gt;Node2</title>
<g id="a_edge17_Node000001_Node000002"><a xlink:title=" ">
<path fill="none" stroke="#63b8ff" d="M64.53,-58.48C75.97,-62.64 89.31,-67.48 101.58,-71.93"/>
<polygon fill="#63b8ff" stroke="#63b8ff" points="99.97,-75.43 110.57,-75.55 102.36,-68.85 99.97,-75.43"/>
</a>
</g>
</g>
<!-- Node6 -->
<g id="Node000006" class="node">
<title>Node6</title>
<g id="a_Node000006"><a xlink:href="$tcfs__utils_8c.html#a62b66e43a7ad8b8cf9fcad67f71a7a8b" xlink:title="Logs a formatted message to a file with timestamp.">
<polygon fill="white" stroke="#666666" points="571.25,-96 502.75,-96 502.75,-76 571.25,-76 571.25,-96"/>
<text text-anchor="middle" x="537" y="-82.5" font-family="Helvetica,sans-Serif" font-size="10.00">logMessage</text>
</a>
</g>
</g>
<!-- Node1&#45;&gt;Node6 -->
<g id="edge23_Node000001_Node000006" class="edge">
<title>Node1&#45;&gt;Node6</title>
<g id="a_edge23_Node000001_Node000006"><a xlink:title=" ">
<path fill="none" stroke="#63b8ff" d="M69.62,-50.58C157.63,-57.27 392.87,-75.13 491.5,-82.62"/>
<polygon fill="#63b8ff" stroke="#63b8ff" points="491.05,-86.17 501.28,-83.44 491.58,-79.19 491.05,-86.17"/>
</a>
</g>
</g>
<!-- Node7 -->
<g id="Node000007" class="node">
<title>Node7</title>
<g id="a_Node000007"><a xlink:href="$tcfs__utils_8c.html#ac4ff59963f4a122c9f802c0c2bf2abc8" xlink:title="Prefix the realpath to the fuse path.">
<polygon fill="white" stroke="#666666" points="173.38,-20 109.38,-20 109.38,0 173.38,0 173.38,-20"/>
<text text-anchor="middle" x="141.38" y="-6.5" font-family="Helvetica,sans-Serif" font-size="10.00">prefix_path</text>
</a>
</g>
</g>
<!-- Node1&#45;&gt;Node7 -->
<g id="edge24_Node000001_Node000007" class="edge">
<title>Node1&#45;&gt;Node7</title>
<g id="a_edge24_Node000001_Node000007"><a xlink:title=" ">
<path fill="none" stroke="#63b8ff" d="M64.53,-37.52C75.97,-33.36 89.31,-28.52 101.58,-24.07"/>
<polygon fill="#63b8ff" stroke="#63b8ff" points="102.36,-27.15 110.57,-20.45 99.97,-20.57 102.36,-27.15"/>
</a>
</g>
</g>
<!-- Node3 -->
<g id="Node000003" class="node">
<title>Node3</title>
<g id="a_Node000003"><a xlink:href="$crypt-utils_8c.html#aa4a7facde8c6f63a7225c07e92232b2e" xlink:title=" ">
<polygon fill="white" stroke="#666666" points="353.25,-134 213.5,-134 213.5,-114 353.25,-114 353.25,-134"/>
<text text-anchor="middle" x="283.38" y="-120.5" font-family="Helvetica,sans-Serif" font-size="10.00">encrypt_file_name_with_hex</text>
</a>
</g>
</g>
<!-- Node2&#45;&gt;Node3 -->
<g id="edge18_Node000002_Node000003" class="edge">
<title>Node2&#45;&gt;Node3</title>
<g id="a_edge18_Node000002_Node000003"><a xlink:title=" ">
<path fill="none" stroke="#63b8ff" d="M177.7,-95.59C194.63,-100.18 215.18,-105.76 233.57,-110.75"/>
<polygon fill="#63b8ff" stroke="#63b8ff" points="232.54,-114.37 243.11,-113.61 234.37,-107.62 232.54,-114.37"/>
</a>
</g>
</g>
<!-- Node2&#45;&gt;Node6 -->
<g id="edge22_Node000002_Node000006" class="edge">
<title>Node2&#45;&gt;Node6</title>
<g id="a_edge22_Node000002_Node000006"><a xlink:title=" ">
<path fill="none" stroke="#63b8ff" d="M177.65,-86C249.56,-86 412.94,-86 491.79,-86"/>
<polygon fill="#63b8ff" stroke="#63b8ff" points="491.34,-89.5 501.34,-86 491.34,-82.5 491.34,-89.5"/>
</a>
</g>
</g>
<!-- Node4 -->
<g id="Node000004" class="node">
<title>Node4</title>
<g id="a_Node000004"><a xlink:href="$crypt-utils_8c.html#aa926098a8843cf0ab6bd7eb8b3bbd2e6" xlink:title="Encrypt the *plaintext string using a AES 256 key.">
<polygon fill="white" stroke="#666666" points="466.75,-172 389.25,-172 389.25,-152 466.75,-152 466.75,-172"/>
<text text-anchor="middle" x="428" y="-158.5" font-family="Helvetica,sans-Serif" font-size="10.00">encrypt_string</text>
</a>
</g>
</g>
<!-- Node3&#45;&gt;Node4 -->
<g id="edge19_Node000003_Node000004" class="edge">
<title>Node3&#45;&gt;Node4</title>
<g id="a_edge19_Node000003_Node000004"><a xlink:title=" ">
<path fill="none" stroke="#63b8ff" d="M323.73,-134.48C340.6,-138.98 360.49,-144.28 378.28,-149.02"/>
<polygon fill="#63b8ff" stroke="#63b8ff" points="377.2,-152.62 387.76,-151.81 379,-145.86 377.2,-152.62"/>
</a>
</g>
</g>
<!-- Node5 -->
<g id="Node000005" class="node">
<title>Node5</title>
<g id="a_Node000005"><a xlink:href="$tcfs__utils_8c.html#a819d57d5c053a25772508a943d1bcc48" xlink:title="Convert a string to its hexadecimal representation.">
<polygon fill="white" stroke="#666666" points="465.25,-134 390.75,-134 390.75,-114 465.25,-114 465.25,-134"/>
<text text-anchor="middle" x="428" y="-120.5" font-family="Helvetica,sans-Serif" font-size="10.00">string_to_hex</text>
</a>
</g>
</g>
<!-- Node3&#45;&gt;Node5 -->
<g id="edge20_Node000003_Node000005" class="edge">
<title>Node3&#45;&gt;Node5</title>
<g id="a_edge20_Node000003_Node000005"><a xlink:title=" ">
<path fill="none" stroke="#63b8ff" d="M353.6,-124C362.48,-124 371.41,-124 379.82,-124"/>
<polygon fill="#63b8ff" stroke="#63b8ff" points="379.55,-127.5 389.55,-124 379.55,-120.5 379.55,-127.5"/>
</a>
</g>
</g>
<!-- Node5&#45;&gt;Node6 -->
<g id="edge21_Node000005_Node000006" class="edge">
<title>Node5&#45;&gt;Node6</title>
<g id="a_edge21_Node000005_Node000006"><a xlink:title=" ">
<path fill="none" stroke="#63b8ff" d="M458.52,-113.52C470.22,-109.36 483.84,-104.52 496.37,-100.07"/>
<polygon fill="#63b8ff" stroke="#63b8ff" points="497.32,-103.09 505.57,-96.45 494.98,-96.5 497.32,-103.09"/>
</a>
</g>
</g>
</g>
</svg>
