<?xml version="1.0" encoding="UTF-8" standalone="no"?>
<!DOCTYPE svg PUBLIC "-//W3C//DTD SVG 1.1//EN"
 "http://www.w3.org/Graphics/SVG/1.1/DTD/svg11.dtd">
<!-- Generated by graphviz version 7.1.0 (0)
 -->
<!-- Title: disconnect_db Pages: 1 -->
<svg width="195pt" height="64pt"
 viewBox="0.00 0.00 195.00 64.00" xmlns="http://www.w3.org/2000/svg" xmlns:xlink="http://www.w3.org/1999/xlink">
<g id="graph0" class="graph" transform="scale(1 1) rotate(0) translate(4 60)">
<title>disconnect_db</title>
<!-- Node1 -->
<g id="Node000001" class="node">
<title>Node1</title>
<g id="a_Node000001"><a xlink:title="Free the context of the DB.">
<polygon fill="#999999" stroke="#666666" points="80,-37 0,-37 0,-18 80,-18 80,-37"/>
<text text-anchor="middle" x="40" y="-25" font-family="Helvetica,sans-Serif" font-size="10.00">disconnect_db</text>
</a>
</g>
</g>
<!-- Node2 -->
<g id="Node000002" class="node">
<title>Node2</title>
<g id="a_Node000002"><a xlink:href="$redis_8c.html#ae19d8c90888a6ed078d6e835bb11e67a" xlink:title="Free the hiredis context variable.">
<polygon fill="white" stroke="#666666" points="187,-56 116,-56 116,-37 187,-37 187,-56"/>
<text text-anchor="middle" x="151.5" y="-44" font-family="Helvetica,sans-Serif" font-size="10.00">free_context</text>
</a>
</g>
</g>
<!-- Node1&#45;&gt;Node2 -->
<g id="edge5_Node000001_Node000002" class="edge">
<title>Node1&#45;&gt;Node2</title>
<g id="a_edge5_Node000001_Node000002"><a xlink:title=" ">
<path fill="none" stroke="#63b8ff" d="M80.22,-34.31C88.06,-35.67 96.37,-37.11 104.42,-38.5"/>
<polygon fill="#63b8ff" stroke="#63b8ff" points="103.61,-41.92 114.06,-40.18 104.8,-35.02 103.61,-41.92"/>
</a>
</g>
</g>
<!-- Node3 -->
<g id="Node000003" class="node">
<title>Node3</title>
<g id="a_Node000003"><a xlink:href="$print__utils_8c.html#a491dc14c94ed8cf706bb54880c50b2d0" xlink:title="Format and print data as a message.">
<polygon fill="white" stroke="#666666" points="181,-19 122,-19 122,0 181,0 181,-19"/>
<text text-anchor="middle" x="151.5" y="-7" font-family="Helvetica,sans-Serif" font-size="10.00">print_msg</text>
</a>
</g>
</g>
<!-- Node1&#45;&gt;Node3 -->
<g id="edge6_Node000001_Node000003" class="edge">
<title>Node1&#45;&gt;Node3</title>
<g id="a_edge6_Node000001_Node000003"><a xlink:title=" ">
<path fill="none" stroke="#63b8ff" d="M80.22,-21.05C90.01,-19.44 100.53,-17.71 110.36,-16.1"/>
<polygon fill="#63b8ff" stroke="#63b8ff" points="110.72,-19.59 120.02,-14.51 109.59,-12.68 110.72,-19.59"/>
</a>
</g>
</g>
</g>
</svg>
