<?xml version="1.0" encoding="UTF-8" standalone="no"?>
<!DOCTYPE svg PUBLIC "-//W3C//DTD SVG 1.1//EN"
 "http://www.w3.org/Graphics/SVG/1.1/DTD/svg11.dtd">
<!-- Generated by graphviz version 7.1.0 (0)
 -->
<!-- Title: unregister_user Pages: 1 -->
<svg width="556pt" height="216pt"
 viewBox="0.00 0.00 556.00 216.00" xmlns="http://www.w3.org/2000/svg" xmlns:xlink="http://www.w3.org/1999/xlink">
<g id="graph0" class="graph" transform="scale(1 1) rotate(0) translate(4 212)">
<title>unregister_user</title>
<!-- Node1 -->
<g id="Node000001" class="node">
<title>Node1</title>
<g id="a_Node000001"><a xlink:title="Remove a user from the DB.">
<polygon fill="#999999" stroke="#666666" points="83,-170 0,-170 0,-151 83,-151 83,-170"/>
<text text-anchor="middle" x="41.5" y="-158" font-family="Helvetica,sans-Serif" font-size="10.00">unregister_user</text>
</a>
</g>
</g>
<!-- Node2 -->
<g id="Node000002" class="node">
<title>Node2</title>
<g id="a_Node000002"><a xlink:href="$redis_8c.html#a7b5eb746d92734b57a71ce552363283d" xlink:title="For debugging only. Prints all the keys in the database.">
<polygon fill="white" stroke="#666666" points="320.5,-208 243.5,-208 243.5,-189 320.5,-189 320.5,-208"/>
<text text-anchor="middle" x="282" y="-196" font-family="Helvetica,sans-Serif" font-size="10.00">print_all_keys</text>
</a>
</g>
</g>
<!-- Node1&#45;&gt;Node2 -->
<g id="edge23_Node000001_Node000002" class="edge">
<title>Node1&#45;&gt;Node2</title>
<g id="a_edge23_Node000001_Node000002"><a xlink:title=" ">
<path fill="none" stroke="#63b8ff" d="M83.35,-168.24C94.86,-170.35 107.41,-172.58 119,-174.5 156.85,-180.76 199.8,-187.09 231.97,-191.68"/>
<polygon fill="#63b8ff" stroke="#63b8ff" points="231.41,-195.13 241.8,-193.07 232.39,-188.2 231.41,-195.13"/>
</a>
</g>
</g>
<!-- Node3 -->
<g id="Node000003" class="node">
<title>Node3</title>
<g id="a_Node000003"><a xlink:href="$print__utils_8c.html#a491dc14c94ed8cf706bb54880c50b2d0" xlink:title="Format and print data as a message.">
<polygon fill="white" stroke="#666666" points="548,-132 489,-132 489,-113 548,-113 548,-132"/>
<text text-anchor="middle" x="518.5" y="-120" font-family="Helvetica,sans-Serif" font-size="10.00">print_msg</text>
</a>
</g>
</g>
<!-- Node1&#45;&gt;Node3 -->
<g id="edge25_Node000001_Node000003" class="edge">
<title>Node1&#45;&gt;Node3</title>
<g id="a_edge25_Node000001_Node000003"><a xlink:title=" ">
<path fill="none" stroke="#63b8ff" d="M83.32,-157.86C157.16,-152.99 317.78,-141.94 453,-129.5 460.84,-128.78 469.2,-127.93 477.22,-127.08"/>
<polygon fill="#63b8ff" stroke="#63b8ff" points="477.55,-130.56 487.12,-126 476.8,-123.6 477.55,-130.56"/>
</a>
</g>
</g>
<!-- Node4 -->
<g id="Node000004" class="node">
<title>Node4</title>
<g id="a_Node000004"><a xlink:href="$redis_8c.html#a6b18d7ad2f1e8275106a5b39c0c7d216" xlink:title="Remove a user from the DB using the PID as key.">
<polygon fill="white" stroke="#666666" points="202,-113 119,-113 119,-94 202,-94 202,-113"/>
<text text-anchor="middle" x="160.5" y="-101" font-family="Helvetica,sans-Serif" font-size="10.00">remove_by_pid</text>
</a>
</g>
</g>
<!-- Node1&#45;&gt;Node4 -->
<g id="edge26_Node000001_Node000004" class="edge">
<title>Node1&#45;&gt;Node4</title>
<g id="a_edge26_Node000001_Node000004"><a xlink:title=" ">
<path fill="none" stroke="#63b8ff" d="M62.88,-150.57C81.17,-141.66 108.26,-128.46 129.1,-118.31"/>
<polygon fill="#63b8ff" stroke="#63b8ff" points="130.54,-121.5 137.99,-113.98 127.47,-115.21 130.54,-121.5"/>
</a>
</g>
</g>
<!-- Node2&#45;&gt;Node3 -->
<g id="edge24_Node000002_Node000003" class="edge">
<title>Node2&#45;&gt;Node3</title>
<g id="a_edge24_Node000002_Node000003"><a xlink:title=" ">
<path fill="none" stroke="#63b8ff" d="M320.69,-198.86C356.2,-197.9 410.21,-193.07 453,-174.5 471.26,-166.58 488.63,-152.02 500.73,-140.32"/>
<polygon fill="#63b8ff" stroke="#63b8ff" points="502.93,-143.08 507.49,-133.52 497.96,-138.15 502.93,-143.08"/>
</a>
</g>
</g>
<!-- Node4&#45;&gt;Node3 -->
<g id="edge33_Node000004_Node000003" class="edge">
<title>Node4&#45;&gt;Node3</title>
<g id="a_edge33_Node000004_Node000003"><a xlink:title=" ">
<path fill="none" stroke="#63b8ff" d="M202.34,-105.68C271.22,-109.36 409.65,-116.74 477.78,-120.38"/>
<polygon fill="#63b8ff" stroke="#63b8ff" points="477.19,-123.85 487.36,-120.89 477.56,-116.86 477.19,-123.85"/>
</a>
</g>
</g>
<!-- Node5 -->
<g id="Node000005" class="node">
<title>Node5</title>
<g id="a_Node000005"><a xlink:href="$redis_8c.html#af0bf1bfc99afc940619371e3c76ab4f9" xlink:title="Fetch the user on the DB with key pid.">
<polygon fill="white" stroke="#666666" points="326,-85 238,-85 238,-66 326,-66 326,-85"/>
<text text-anchor="middle" x="282" y="-73" font-family="Helvetica,sans-Serif" font-size="10.00">get_user_by_pid</text>
</a>
</g>
</g>
<!-- Node4&#45;&gt;Node5 -->
<g id="edge27_Node000004_Node000005" class="edge">
<title>Node4&#45;&gt;Node5</title>
<g id="a_edge27_Node000004_Node000005"><a xlink:title=" ">
<path fill="none" stroke="#63b8ff" d="M202.29,-93.94C210.38,-92.05 218.98,-90.03 227.42,-88.05"/>
<polygon fill="#63b8ff" stroke="#63b8ff" points="227.94,-91.53 236.88,-85.84 226.35,-84.71 227.94,-91.53"/>
</a>
</g>
</g>
<!-- Node7 -->
<g id="Node000007" class="node">
<title>Node7</title>
<g id="a_Node000007"><a xlink:href="$print__utils_8c.html#a650ab060ffe5dbc6c1a968a9cae3bded" xlink:title="Format and print data as an error.">
<polygon fill="white" stroke="#666666" points="433.5,-19 381.5,-19 381.5,0 433.5,0 433.5,-19"/>
<text text-anchor="middle" x="407.5" y="-7" font-family="Helvetica,sans-Serif" font-size="10.00">print_err</text>
</a>
</g>
</g>
<!-- Node4&#45;&gt;Node7 -->
<g id="edge32_Node000004_Node000007" class="edge">
<title>Node4&#45;&gt;Node7</title>
<g id="a_edge32_Node000004_Node000007"><a xlink:title=" ">
<path fill="none" stroke="#63b8ff" d="M175.28,-93.68C190.15,-83.46 214.83,-67.56 238,-57.5 281.87,-38.46 335.41,-24.7 370.2,-16.92"/>
<polygon fill="#63b8ff" stroke="#63b8ff" points="370.73,-20.39 379.75,-14.83 369.24,-13.55 370.73,-20.39"/>
</a>
</g>
</g>
<!-- Node5&#45;&gt;Node3 -->
<g id="edge31_Node000005_Node000003" class="edge">
<title>Node5&#45;&gt;Node3</title>
<g id="a_edge31_Node000005_Node000003"><a xlink:title=" ">
<path fill="none" stroke="#63b8ff" d="M326.37,-83.65C360.76,-90.17 410,-99.66 453,-108.5 460.93,-110.13 469.4,-111.93 477.51,-113.68"/>
<polygon fill="#63b8ff" stroke="#63b8ff" points="476.64,-117.07 487.15,-115.77 478.12,-110.23 476.64,-117.07"/>
</a>
</g>
</g>
<!-- Node6 -->
<g id="Node000006" class="node">
<title>Node6</title>
<g id="a_Node000006"><a xlink:href="$redis_8c.html#a8e6e1687d6351741ac3e353d23425f71" xlink:title="Internal function to simplify the casting of a json to a qm_user struct.">
<polygon fill="white" stroke="#666666" points="453,-56 362,-56 362,-37 453,-37 453,-56"/>
<text text-anchor="middle" x="407.5" y="-44" font-family="Helvetica,sans-Serif" font-size="10.00">json_to_qm_user</text>
</a>
</g>
</g>
<!-- Node5&#45;&gt;Node6 -->
<g id="edge28_Node000005_Node000006" class="edge">
<title>Node5&#45;&gt;Node6</title>
<g id="a_edge28_Node000005_Node000006"><a xlink:title=" ">
<path fill="none" stroke="#63b8ff" d="M325.5,-65.52C334.33,-63.45 343.74,-61.24 352.91,-59.08"/>
<polygon fill="#63b8ff" stroke="#63b8ff" points="353.51,-62.54 362.45,-56.84 351.91,-55.72 353.51,-62.54"/>
</a>
</g>
</g>
<!-- Node5&#45;&gt;Node7 -->
<g id="edge30_Node000005_Node000007" class="edge">
<title>Node5&#45;&gt;Node7</title>
<g id="a_edge30_Node000005_Node000007"><a xlink:title=" ">
<path fill="none" stroke="#63b8ff" d="M297.73,-65.55C313.3,-55.29 338.76,-39.16 362,-27.5 364.86,-26.06 367.87,-24.65 370.91,-23.29"/>
<polygon fill="#63b8ff" stroke="#63b8ff" points="372.02,-26.63 379.84,-19.49 369.27,-20.18 372.02,-26.63"/>
</a>
</g>
</g>
<!-- Node6&#45;&gt;Node3 -->
<g id="edge29_Node000006_Node000003" class="edge">
<title>Node6&#45;&gt;Node3</title>
<g id="a_edge29_Node000006_Node000003"><a xlink:title=" ">
<path fill="none" stroke="#63b8ff" d="M428.89,-56.49C436.63,-60.54 445.4,-65.45 453,-70.5 468.85,-81.03 485.54,-94.56 497.97,-105.18"/>
<polygon fill="#63b8ff" stroke="#63b8ff" points="495.57,-107.74 505.42,-111.65 500.16,-102.45 495.57,-107.74"/>
</a>
</g>
</g>
</g>
</svg>
