<?xml version="1.0" encoding="UTF-8" standalone="no"?>
<!DOCTYPE svg PUBLIC "-//W3C//DTD SVG 1.1//EN"
 "http://www.w3.org/Graphics/SVG/1.1/DTD/svg11.dtd">
<!-- Generated by graphviz version 8.1.0 (20230707.0739)
 -->
<!-- Title: decrypt_path_and_filename Pages: 1 -->
<svg width="537pt" height="85pt"
 viewBox="0.00 0.00 537.00 85.00" xmlns="http://www.w3.org/2000/svg" xmlns:xlink="http://www.w3.org/1999/xlink">
<g id="graph0" class="graph" transform="scale(1 1) rotate(0) translate(4 81)">
<title>decrypt_path_and_filename</title>
<!-- Node1 -->
<g id="Node000001" class="node">
<title>Node1</title>
<g id="a_Node000001"><a xlink:title="Decrypts the given encrypted filename with its path using a specified key.">
<polygon fill="#999999" stroke="#666666" points="135.25,-20 0,-20 0,0 135.25,0 135.25,-20"/>
<text text-anchor="middle" x="67.62" y="-6.5" font-family="Helvetica,sans-Serif" font-size="10.00">decrypt_path_and_filename</text>
</a>
</g>
</g>
<!-- Node2 -->
<g id="Node000002" class="node">
<title>Node2</title>
<g id="a_Node000002"><a xlink:href="crypt-utils_8c.html#a3b003481e5c188ac1d6f63e09e6f3a34" target="_top" xlink:title=" ">
<polygon fill="white" stroke="#666666" points="311,-39 171.25,-39 171.25,-19 311,-19 311,-39"/>
<text text-anchor="middle" x="241.12" y="-25.5" font-family="Helvetica,sans-Serif" font-size="10.00">decrypt_file_name_with_hex</text>
</a>
</g>
</g>
<!-- Node1&#45;&gt;Node2 -->
<g id="edge1_Node000001_Node000002" class="edge">
<title>Node1&#45;&gt;Node2</title>
<g id="a_edge1_Node000001_Node000002"><a xlink:title=" ">
<path fill="none" stroke="#63b8ff" d="M135.42,-17.4C143.53,-18.3 151.88,-19.22 160.15,-20.14"/>
<polygon fill="#63b8ff" stroke="#63b8ff" points="159.64,-23.72 169.96,-21.34 160.41,-16.76 159.64,-23.72"/>
</a>
</g>
</g>
<!-- Node4 -->
<g id="Node000004" class="node">
<title>Node4</title>
<g id="a_Node000004"><a xlink:href="tcfs__utils_8c.html#a62b66e43a7ad8b8cf9fcad67f71a7a8b" target="_top" xlink:title="Logs a formatted message to a file with timestamp.">
<polygon fill="white" stroke="#666666" points="529,-39 460.5,-39 460.5,-19 529,-19 529,-39"/>
<text text-anchor="middle" x="494.75" y="-25.5" font-family="Helvetica,sans-Serif" font-size="10.00">logMessage</text>
</a>
</g>
</g>
<!-- Node1&#45;&gt;Node4 -->
<g id="edge6_Node000001_Node000004" class="edge">
<title>Node1&#45;&gt;Node4</title>
<g id="a_edge6_Node000001_Node000004"><a xlink:title=" ">
<path fill="none" stroke="#63b8ff" d="M135.55,-4.7C207.35,-0.24 324.54,3.46 424.5,-10 433.65,-11.23 443.29,-13.34 452.39,-15.72"/>
<polygon fill="#63b8ff" stroke="#63b8ff" points="451.18,-19.29 461.75,-18.59 453.05,-12.54 451.18,-19.29"/>
</a>
</g>
</g>
<!-- Node3 -->
<g id="Node000003" class="node">
<title>Node3</title>
<g id="a_Node000003"><a xlink:href="crypt-utils_8c.html#a22f528907ee4f078e333501b747d5435" target="_top" xlink:title="Decrypt the *ciphertext string using a AES 256 key.">
<polygon fill="white" stroke="#666666" points="424.5,-77 347,-77 347,-57 424.5,-57 424.5,-77"/>
<text text-anchor="middle" x="385.75" y="-63.5" font-family="Helvetica,sans-Serif" font-size="10.00">decrypt_string</text>
</a>
</g>
</g>
<!-- Node2&#45;&gt;Node3 -->
<g id="edge2_Node000002_Node000003" class="edge">
<title>Node2&#45;&gt;Node3</title>
<g id="a_edge2_Node000002_Node000003"><a xlink:title=" ">
<path fill="none" stroke="#63b8ff" d="M281.48,-39.48C298.35,-43.98 318.24,-49.28 336.03,-54.02"/>
<polygon fill="#63b8ff" stroke="#63b8ff" points="334.95,-57.62 345.51,-56.81 336.75,-50.86 334.95,-57.62"/>
</a>
</g>
</g>
<!-- Node5 -->
<g id="Node000005" class="node">
<title>Node5</title>
<g id="a_Node000005"><a xlink:href="tcfs__utils_8c.html#a6de1cb8448198da94080ad32d7e4eabf" target="_top" xlink:title="Convert a hexadecimal string to its ASCII representation.">
<polygon fill="white" stroke="#666666" points="423,-39 348.5,-39 348.5,-19 423,-19 423,-39"/>
<text text-anchor="middle" x="385.75" y="-25.5" font-family="Helvetica,sans-Serif" font-size="10.00">hex_to_string</text>
</a>
</g>
</g>
<!-- Node2&#45;&gt;Node5 -->
<g id="edge4_Node000002_Node000005" class="edge">
<title>Node2&#45;&gt;Node5</title>
<g id="a_edge4_Node000002_Node000005"><a xlink:title=" ">
<path fill="none" stroke="#63b8ff" d="M311.35,-29C320.23,-29 329.16,-29 337.57,-29"/>
<polygon fill="#63b8ff" stroke="#63b8ff" points="337.3,-32.5 347.3,-29 337.3,-25.5 337.3,-32.5"/>
</a>
</g>
</g>
<!-- Node3&#45;&gt;Node4 -->
<g id="edge3_Node000003_Node000004" class="edge">
<title>Node3&#45;&gt;Node4</title>
<g id="a_edge3_Node000003_Node000004"><a xlink:title=" ">
<path fill="none" stroke="#63b8ff" d="M416.27,-56.52C427.97,-52.36 441.59,-47.52 454.12,-43.07"/>
<polygon fill="#63b8ff" stroke="#63b8ff" points="455.07,-46.09 463.32,-39.45 452.73,-39.5 455.07,-46.09"/>
</a>
</g>
</g>
<!-- Node5&#45;&gt;Node4 -->
<g id="edge5_Node000005_Node000004" class="edge">
<title>Node5&#45;&gt;Node4</title>
<g id="a_edge5_Node000005_Node000004"><a xlink:title=" ">
<path fill="none" stroke="#63b8ff" d="M423.27,-29C431.7,-29 440.76,-29 449.48,-29"/>
<polygon fill="#63b8ff" stroke="#63b8ff" points="449.27,-32.5 459.27,-29 449.27,-25.5 449.27,-32.5"/>
</a>
</g>
</g>
</g>
</svg>
