<?xml version="1.0" encoding="UTF-8" standalone="no"?>
<!DOCTYPE svg PUBLIC "-//W3C//DTD SVG 1.1//EN"
 "http://www.w3.org/Graphics/SVG/1.1/DTD/svg11.dtd">
<!-- Generated by graphviz version 8.1.0 (20230707.0739)
 -->
<!-- Title: encrypt_path Pages: 1 -->
<svg width="474pt" height="85pt"
 viewBox="0.00 0.00 474.00 85.00" xmlns="http://www.w3.org/2000/svg" xmlns:xlink="http://www.w3.org/1999/xlink">
<g id="graph0" class="graph" transform="scale(1 1) rotate(0) translate(4 81)">
<title>encrypt_path</title>
<!-- Node1 -->
<g id="Node000001" class="node">
<title>Node1</title>
<g id="a_Node000001"><a xlink:title="Encrypts each part of the given path using a specified key.">
<polygon fill="#999999" stroke="#666666" points="72.25,-20 0,-20 0,0 72.25,0 72.25,-20"/>
<text text-anchor="middle" x="36.12" y="-6.5" font-family="Helvetica,sans-Serif" font-size="10.00">encrypt_path</text>
</a>
</g>
</g>
<!-- Node2 -->
<g id="Node000002" class="node">
<title>Node2</title>
<g id="a_Node000002"><a xlink:href="crypt-utils_8c.html#aa4a7facde8c6f63a7225c07e92232b2e" target="_top" xlink:title=" ">
<polygon fill="white" stroke="#666666" points="248,-39 108.25,-39 108.25,-19 248,-19 248,-39"/>
<text text-anchor="middle" x="178.12" y="-25.5" font-family="Helvetica,sans-Serif" font-size="10.00">encrypt_file_name_with_hex</text>
</a>
</g>
</g>
<!-- Node1&#45;&gt;Node2 -->
<g id="edge1_Node000001_Node000002" class="edge">
<title>Node1&#45;&gt;Node2</title>
<g id="a_edge1_Node000001_Node000002"><a xlink:title=" ">
<path fill="none" stroke="#63b8ff" d="M72.45,-14.79C80.17,-15.84 88.64,-16.99 97.31,-18.17"/>
<polygon fill="#63b8ff" stroke="#63b8ff" points="96.58,-21.74 106.96,-19.61 97.52,-14.8 96.58,-21.74"/>
</a>
</g>
</g>
<!-- Node5 -->
<g id="Node000005" class="node">
<title>Node5</title>
<g id="a_Node000005"><a xlink:href="tcfs__utils_8c.html#a62b66e43a7ad8b8cf9fcad67f71a7a8b" target="_top" xlink:title="Logs a formatted message to a file with timestamp.">
<polygon fill="white" stroke="#666666" points="466,-20 397.5,-20 397.5,0 466,0 466,-20"/>
<text text-anchor="middle" x="431.75" y="-6.5" font-family="Helvetica,sans-Serif" font-size="10.00">logMessage</text>
</a>
</g>
</g>
<!-- Node1&#45;&gt;Node5 -->
<g id="edge5_Node000001_Node000005" class="edge">
<title>Node1&#45;&gt;Node5</title>
<g id="a_edge5_Node000001_Node000005"><a xlink:title=" ">
<path fill="none" stroke="#63b8ff" d="M72.4,-10C144.31,-10 307.69,-10 386.54,-10"/>
<polygon fill="#63b8ff" stroke="#63b8ff" points="386.09,-13.5 396.09,-10 386.09,-6.5 386.09,-13.5"/>
</a>
</g>
</g>
<!-- Node3 -->
<g id="Node000003" class="node">
<title>Node3</title>
<g id="a_Node000003"><a xlink:href="crypt-utils_8c.html#aa926098a8843cf0ab6bd7eb8b3bbd2e6" target="_top" xlink:title="Encrypt the *plaintext string using a AES 256 key.">
<polygon fill="white" stroke="#666666" points="361.5,-77 284,-77 284,-57 361.5,-57 361.5,-77"/>
<text text-anchor="middle" x="322.75" y="-63.5" font-family="Helvetica,sans-Serif" font-size="10.00">encrypt_string</text>
</a>
</g>
</g>
<!-- Node2&#45;&gt;Node3 -->
<g id="edge2_Node000002_Node000003" class="edge">
<title>Node2&#45;&gt;Node3</title>
<g id="a_edge2_Node000002_Node000003"><a xlink:title=" ">
<path fill="none" stroke="#63b8ff" d="M218.48,-39.48C235.35,-43.98 255.24,-49.28 273.03,-54.02"/>
<polygon fill="#63b8ff" stroke="#63b8ff" points="271.95,-57.62 282.51,-56.81 273.75,-50.86 271.95,-57.62"/>
</a>
</g>
</g>
<!-- Node4 -->
<g id="Node000004" class="node">
<title>Node4</title>
<g id="a_Node000004"><a xlink:href="tcfs__utils_8c.html#a819d57d5c053a25772508a943d1bcc48" target="_top" xlink:title="Convert a string to its hexadecimal representation.">
<polygon fill="white" stroke="#666666" points="360,-39 285.5,-39 285.5,-19 360,-19 360,-39"/>
<text text-anchor="middle" x="322.75" y="-25.5" font-family="Helvetica,sans-Serif" font-size="10.00">string_to_hex</text>
</a>
</g>
</g>
<!-- Node2&#45;&gt;Node4 -->
<g id="edge3_Node000002_Node000004" class="edge">
<title>Node2&#45;&gt;Node4</title>
<g id="a_edge3_Node000002_Node000004"><a xlink:title=" ">
<path fill="none" stroke="#63b8ff" d="M248.35,-29C257.23,-29 266.16,-29 274.57,-29"/>
<polygon fill="#63b8ff" stroke="#63b8ff" points="274.3,-32.5 284.3,-29 274.3,-25.5 274.3,-32.5"/>
</a>
</g>
</g>
<!-- Node4&#45;&gt;Node5 -->
<g id="edge4_Node000004_Node000005" class="edge">
<title>Node4&#45;&gt;Node5</title>
<g id="a_edge4_Node000004_Node000005"><a xlink:title=" ">
<path fill="none" stroke="#63b8ff" d="M360.27,-22.51C368.7,-21.02 377.76,-19.41 386.48,-17.86"/>
<polygon fill="#63b8ff" stroke="#63b8ff" points="387.03,-21.14 396.27,-15.95 385.81,-14.25 387.03,-21.14"/>
</a>
</g>
</g>
</g>
</svg>
