<?xml version="1.0" encoding="UTF-8" standalone="no"?>
<!DOCTYPE svg PUBLIC "-//W3C//DTD SVG 1.1//EN"
 "http://www.w3.org/Graphics/SVG/1.1/DTD/svg11.dtd">
<!-- Generated by graphviz version 8.1.0 (20230707.0739)
 -->
<!-- Title: do_crypt Pages: 1 -->
<svg width="156pt" height="66pt"
 viewBox="0.00 0.00 156.25 66.00" xmlns="http://www.w3.org/2000/svg" xmlns:xlink="http://www.w3.org/1999/xlink">
<g id="graph0" class="graph" transform="scale(1 1) rotate(0) translate(4 62)">
<title>do_crypt</title>
<!-- Node1 -->
<g id="Node000001" class="node">
<title>Node1</title>
<g id="a_Node000001"><a xlink:title="High level function interface for performing AES encryption on FILE pointers Uses OpenSSL libcrypto E...">
<polygon fill="#999999" stroke="#666666" points="148.25,-39 94.75,-39 94.75,-19 148.25,-19 148.25,-39"/>
<text text-anchor="middle" x="121.5" y="-25.5" font-family="Helvetica,sans-Serif" font-size="10.00">do_crypt</text>
</a>
</g>
</g>
<!-- Node2 -->
<g id="Node000002" class="node">
<title>Node2</title>
<g id="a_Node000002"><a xlink:href="tcfs_8c.html#a745384a010e20b082db26e16702a0129" target="_top" xlink:title="Reads data from an open file.">
<polygon fill="white" stroke="#666666" points="57.62,-58 1.12,-58 1.12,-38 57.62,-38 57.62,-58"/>
<text text-anchor="middle" x="29.38" y="-44.5" font-family="Helvetica,sans-Serif" font-size="10.00">tcfs_read</text>
</a>
</g>
</g>
<!-- Node1&#45;&gt;Node2 -->
<g id="edge1_Node000001_Node000002" class="edge">
<title>Node1&#45;&gt;Node2</title>
<g id="a_edge1_Node000001_Node000002"><a xlink:title=" ">
<path fill="none" stroke="#63b8ff" d="M83.82,-36.73C75.18,-38.55 66.11,-40.47 57.96,-42.19"/>
<polygon fill="#63b8ff" stroke="#63b8ff" points="84.37,-39.98 93.43,-34.5 82.93,-33.13 84.37,-39.98"/>
</a>
</g>
</g>
<!-- Node3 -->
<g id="Node000003" class="node">
<title>Node3</title>
<g id="a_Node000003"><a xlink:href="tcfs_8c.html#adaba2baa5a036b8f77ec187599498a66" target="_top" xlink:title="Writes data to an open file.">
<polygon fill="white" stroke="#666666" points="58.75,-20 0,-20 0,0 58.75,0 58.75,-20"/>
<text text-anchor="middle" x="29.38" y="-6.5" font-family="Helvetica,sans-Serif" font-size="10.00">tcfs_write</text>
</a>
</g>
</g>
<!-- Node1&#45;&gt;Node3 -->
<g id="edge2_Node000001_Node000003" class="edge">
<title>Node1&#45;&gt;Node3</title>
<g id="a_edge2_Node000001_Node000003"><a xlink:title=" ">
<path fill="none" stroke="#63b8ff" d="M83.94,-21.29C75.71,-19.56 67.09,-17.74 59.23,-16.08"/>
<polygon fill="#63b8ff" stroke="#63b8ff" points="82.93,-24.87 93.43,-23.5 84.37,-18.02 82.93,-24.87"/>
</a>
</g>
</g>
</g>
</svg>
