<?xml version="1.0" encoding="UTF-8" standalone="no"?>
<!DOCTYPE svg PUBLIC "-//W3C//DTD SVG 1.1//EN"
 "http://www.w3.org/Graphics/SVG/1.1/DTD/svg11.dtd">
<!-- Generated by graphviz version 8.1.0 (20230707.0739)
 -->
<!-- Title: encrypt_string Pages: 1 -->
<!--zoomable 978 -->

<svg id="main" version="1.1" xmlns="http://www.w3.org/2000/svg" xmlns:xlink="http://www.w3.org/1999/xlink" xml:space="preserve" onload="init(evt)">
<style type="text/css"><![CDATA[
.node, .edge {opacity: 0.7;}
.node.selected, .edge.selected {opacity: 1;}
.edge:hover path { stroke: red; }
.edge:hover polygon { stroke: red; fill: red; }
]]></style>

<defs>
  <circle id="rim" cx="0" cy="0" r="7"/>
  <circle id="rim2" cx="0" cy="0" r="3.5"/>
  <g id="zoomPlus">
    <use xlink:href="#rim" fill="#404040"><set attributeName="fill" to="#808080" begin="zoomplus.mouseover" end="zoomplus.mouseout"/></use>
    <path d="M-4,0h8M0,-4v8" fill="none" stroke="white" stroke-width="1.5" pointer-events="none"/>
  </g>
  <g id="zoomMin">
    <use xlink:href="#rim" fill="#404040"><set attributeName="fill" to="#808080" begin="zoomminus.mouseover" end="zoomminus.mouseout"/></use>
    <path d="M-4,0h8" fill="none" stroke="white" stroke-width="1.5" pointer-events="none"/>
  </g>
  <g id="arrowUp" transform="translate(30 24)">
    <use xlink:href="#rim"/>
    <path pointer-events="none" fill="none" stroke="white" stroke-width="1.5" d="M0,-3.0v7 M-2.5,-0.5L0,-3.0L2.5,-0.5"/>
  </g>
  <g id="arrowRight" transform="rotate(90) translate(36 -43)">
    <use xlink:href="#rim"/>
    <path pointer-events="none" fill="none" stroke="white" stroke-width="1.5" d="M0,-3.0v7 M-2.5,-0.5L0,-3.0L2.5,-0.5"/>
  </g>
  <g id="arrowDown" transform="rotate(180) translate(-30 -48)">
    <use xlink:href="#rim"/>
    <path pointer-events="none" fill="none" stroke="white" stroke-width="1.5" d="M0,-3.0v7 M-2.5,-0.5L0,-3.0L2.5,-0.5"/>
  </g>
  <g id="arrowLeft" transform="rotate(270) translate(-36 17)">
    <use xlink:href="#rim"/>
    <path pointer-events="none" fill="none" stroke="white" stroke-width="1.5" d="M0,-3.0v7 M-2.5,-0.5L0,-3.0L2.5,-0.5"/>
  </g>
  <g id="resetDef">
    <use xlink:href="#rim2" fill="#404040"><set attributeName="fill" to="#808080" begin="reset.mouseover" end="reset.mouseout"/></use>
  </g>
</defs>
<script type="application/ecmascript">
var viewWidth = 659;
var viewHeight = 978;
var sectionId = 'dynsection-17';
</script>
<script type="application/ecmascript" xlink:href="svg.min.js"/>
<svg id="graph" class="graph">
<g id="viewport">
<title>encrypt_string</title>
<!-- Node1 -->
<g id="Node000001" class="node">
<title>Node1</title>
<g id="a_Node000001"><a xlink:title="Encrypt the *plaintext string using a AES 256 key.">
<polygon fill="#999999" stroke="#666666" points="650.75,-77 573.25,-77 573.25,-57 650.75,-57 650.75,-77"/>
<text text-anchor="middle" x="612" y="-63.5" font-family="Helvetica,sans-Serif" font-size="10.00">encrypt_string</text>
</a>
</g>
</g>
<!-- Node2 -->
<g id="Node000002" class="node">
<title>Node2</title>
<g id="a_Node000002"><a xlink:href="crypt-utils_8c.html#aa4a7facde8c6f63a7225c07e92232b2e" target="_top" xlink:title=" ">
<polygon fill="white" stroke="#666666" points="537.25,-172 397.5,-172 397.5,-152 537.25,-152 537.25,-172"/>
<text text-anchor="middle" x="467.38" y="-158.5" font-family="Helvetica,sans-Serif" font-size="10.00">encrypt_file_name_with_hex</text>
</a>
</g>
</g>
<!-- Node1&#45;&gt;Node2 -->
<g id="edge1_Node000001_Node000002" class="edge">
<title>Node1&#45;&gt;Node2</title>
<g id="a_edge1_Node000001_Node000002"><a xlink:title=" ">
<path fill="none" stroke="#63b8ff" d="M586.64,-83.22C557.23,-102.81 508.63,-135.18 483.89,-151.67"/>
<polygon fill="#63b8ff" stroke="#63b8ff" points="588.08,-85.8 594.47,-77.35 584.2,-79.98 588.08,-85.8"/>
</a>
</g>
</g>
<!-- Node18 -->
<g id="Node000018" class="node">
<title>Node18</title>
<g id="a_Node000018"><a xlink:href="tcfs_8c.html#ad973ad9d6ab7d6276bf85cd8fecd0657" target="_top" xlink:title="Create and open a file.">
<polygon fill="white" stroke="#666666" points="64.75,-20 0,-20 0,0 64.75,0 64.75,-20"/>
<text text-anchor="middle" x="32.38" y="-6.5" font-family="Helvetica,sans-Serif" font-size="10.00">tcfs_create</text>
</a>
</g>
</g>
<!-- Node1&#45;&gt;Node18 -->
<g id="edge34_Node000001_Node000018" class="edge">
<title>Node1&#45;&gt;Node18</title>
<g id="a_edge34_Node000001_Node000018"><a xlink:title=" ">
<path fill="none" stroke="#63b8ff" d="M562.46,-57.33C484.41,-42.32 326.02,-14.11 190.25,-4 150.58,-1.05 140.49,-2.23 100.75,-4 89.14,-4.52 76.43,-5.53 65.21,-6.58"/>
<polygon fill="#63b8ff" stroke="#63b8ff" points="561.44,-60.89 571.93,-59.35 562.77,-54.02 561.44,-60.89"/>
</a>
</g>
</g>
<!-- Node3 -->
<g id="Node000003" class="node">
<title>Node3</title>
<g id="a_Node000003"><a xlink:href="crypt-utils_8c.html#ad9b10366ade9f2129ec2613fdc76df80" target="_top" xlink:title="Encrypts each part of the given path using a specified key.">
<polygon fill="white" stroke="#666666" points="330,-647 257.75,-647 257.75,-627 330,-627 330,-647"/>
<text text-anchor="middle" x="293.88" y="-633.5" font-family="Helvetica,sans-Serif" font-size="10.00">encrypt_path</text>
</a>
</g>
</g>
<!-- Node2&#45;&gt;Node3 -->
<g id="edge2_Node000002_Node000003" class="edge">
<title>Node2&#45;&gt;Node3</title>
<g id="a_edge2_Node000002_Node000003"><a xlink:title=" ">
<path fill="none" stroke="#63b8ff" d="M459.01,-182.39C429.47,-264.21 320.09,-567.15 298.57,-626.77"/>
<polygon fill="#63b8ff" stroke="#63b8ff" points="462.53,-183.96 462.63,-173.36 455.95,-181.58 462.53,-183.96"/>
</a>
</g>
</g>
<!-- Node22 -->
<g id="Node000022" class="node">
<title>Node22</title>
<g id="a_Node000022"><a xlink:href="crypt-utils_8c.html#a5c45db4d3db3ef274fb6356e1a95e644" target="_top" xlink:title="Encrypts the given filename with its path using a specified key.">
<polygon fill="white" stroke="#666666" points="361.5,-172 226.25,-172 226.25,-152 361.5,-152 361.5,-172"/>
<text text-anchor="middle" x="293.88" y="-158.5" font-family="Helvetica,sans-Serif" font-size="10.00">encrypt_path_and_filename</text>
</a>
</g>
</g>
<!-- Node2&#45;&gt;Node22 -->
<g id="edge22_Node000002_Node000022" class="edge">
<title>Node2&#45;&gt;Node22</title>
<g id="a_edge22_Node000002_Node000022"><a xlink:title=" ">
<path fill="none" stroke="#63b8ff" d="M386.12,-162C378.01,-162 369.84,-162 361.89,-162"/>
<polygon fill="#63b8ff" stroke="#63b8ff" points="386.11,-165.5 396.11,-162 386.11,-158.5 386.11,-165.5"/>
</a>
</g>
</g>
<!-- Node4 -->
<g id="Node000004" class="node">
<title>Node4</title>
<g id="a_Node000004"><a xlink:href="tcfs_8c.html#a76af7857833338c73b9cafdce59ca01d" target="_top" xlink:title="Checks file access permissions.">
<polygon fill="white" stroke="#666666" points="180.12,-818 110.88,-818 110.88,-798 180.12,-798 180.12,-818"/>
<text text-anchor="middle" x="145.5" y="-804.5" font-family="Helvetica,sans-Serif" font-size="10.00">tcfs_access</text>
</a>
</g>
</g>
<!-- Node3&#45;&gt;Node4 -->
<g id="edge3_Node000003_Node000004" class="edge">
<title>Node3&#45;&gt;Node4</title>
<g id="a_edge3_Node000003_Node000004"><a xlink:title=" ">
<path fill="none" stroke="#63b8ff" d="M283.85,-657.28C268.71,-689.23 235.38,-751.5 190.25,-789 186.17,-792.39 181.4,-795.27 176.54,-797.68"/>
<polygon fill="#63b8ff" stroke="#63b8ff" points="287.43,-658.88 288.43,-648.33 281.07,-655.95 287.43,-658.88"/>
</a>
</g>
</g>
<!-- Node5 -->
<g id="Node000005" class="node">
<title>Node5</title>
<g id="a_Node000005"><a xlink:href="tcfs_8c.html#adaba2baa5a036b8f77ec187599498a66" target="_top" xlink:title="Writes data to an open file.">
<polygon fill="white" stroke="#666666" points="61.75,-628 3,-628 3,-608 61.75,-608 61.75,-628"/>
<text text-anchor="middle" x="32.38" y="-614.5" font-family="Helvetica,sans-Serif" font-size="10.00">tcfs_write</text>
</a>
</g>
</g>
<!-- Node3&#45;&gt;Node5 -->
<g id="edge21_Node000003_Node000005" class="edge">
<title>Node3&#45;&gt;Node5</title>
<g id="a_edge21_Node000003_Node000005"><a xlink:title=" ">
<path fill="none" stroke="#63b8ff" d="M246.44,-633.6C192.94,-629.68 106.68,-623.37 62.1,-620.1"/>
<polygon fill="#63b8ff" stroke="#63b8ff" points="246.11,-637.16 256.34,-634.4 246.62,-630.18 246.11,-637.16"/>
</a>
</g>
</g>
<!-- Node6 -->
<g id="Node000006" class="node">
<title>Node6</title>
<g id="a_Node000006"><a xlink:href="tcfs_8c.html#a3cb10be0f6147667dc0e757636e9892f" target="_top" xlink:title="Changes the permissions of a file.">
<polygon fill="white" stroke="#666666" points="179,-742 112,-742 112,-722 179,-722 179,-742"/>
<text text-anchor="middle" x="145.5" y="-728.5" font-family="Helvetica,sans-Serif" font-size="10.00">tcfs_chmod</text>
</a>
</g>
</g>
<!-- Node3&#45;&gt;Node6 -->
<g id="edge5_Node000003_Node000006" class="edge">
<title>Node3&#45;&gt;Node6</title>
<g id="a_edge5_Node000003_Node000006"><a xlink:title=" ">
<path fill="none" stroke="#63b8ff" d="M272.54,-654.24C252.5,-670.7 220.55,-695.51 190.25,-713 184.8,-716.15 178.73,-719.1 172.89,-721.7"/>
<polygon fill="#63b8ff" stroke="#63b8ff" points="274.41,-656.41 279.87,-647.32 269.94,-651.02 274.41,-656.41"/>
</a>
</g>
</g>
<!-- Node7 -->
<g id="Node000007" class="node">
<title>Node7</title>
<g id="a_Node000007"><a xlink:href="tcfs_8c.html#afff31b61fa0723502cf85922816f14f9" target="_top" xlink:title="Changes the owner and group of a file.">
<polygon fill="white" stroke="#666666" points="178.62,-704 112.38,-704 112.38,-684 178.62,-684 178.62,-704"/>
<text text-anchor="middle" x="145.5" y="-690.5" font-family="Helvetica,sans-Serif" font-size="10.00">tcfs_chown</text>
</a>
</g>
</g>
<!-- Node3&#45;&gt;Node7 -->
<g id="edge6_Node000003_Node000007" class="edge">
<title>Node3&#45;&gt;Node7</title>
<g id="a_edge6_Node000003_Node000007"><a xlink:title=" ">
<path fill="none" stroke="#63b8ff" d="M255.88,-651.41C230.11,-661.44 196.34,-674.59 173.18,-683.61"/>
<polygon fill="#63b8ff" stroke="#63b8ff" points="256.98,-654.34 265.03,-647.45 254.44,-647.82 256.98,-654.34"/>
</a>
</g>
</g>
<!-- Node8 -->
<g id="Node000008" class="node">
<title>Node8</title>
<g id="a_Node000008"><a xlink:href="tcfs_8c.html#a411eac4511d0eae4ce78a2fd3d22ac8c" target="_top" xlink:title="Gets file attributes.">
<polygon fill="white" stroke="#666666" points="178.25,-666 112.75,-666 112.75,-646 178.25,-646 178.25,-666"/>
<text text-anchor="middle" x="145.5" y="-652.5" font-family="Helvetica,sans-Serif" font-size="10.00">tcfs_getattr</text>
</a>
</g>
</g>
<!-- Node3&#45;&gt;Node8 -->
<g id="edge7_Node000003_Node000008" class="edge">
<title>Node3&#45;&gt;Node8</title>
<g id="a_edge7_Node000003_Node000008"><a xlink:title=" ">
<path fill="none" stroke="#63b8ff" d="M246.6,-643.01C224.48,-645.88 198.54,-649.25 178.61,-651.83"/>
<polygon fill="#63b8ff" stroke="#63b8ff" points="246.98,-646.36 256.44,-641.6 246.07,-639.42 246.98,-646.36"/>
</a>
</g>
</g>
<!-- Node9 -->
<g id="Node000009" class="node">
<title>Node9</title>
<g id="a_Node000009"><a xlink:href="tcfs_8c.html#a682b553345b6d872453d1ace7339bb9e" target="_top" xlink:title="Creates a directory.">
<polygon fill="white" stroke="#666666" points="176.38,-590 114.62,-590 114.62,-570 176.38,-570 176.38,-590"/>
<text text-anchor="middle" x="145.5" y="-576.5" font-family="Helvetica,sans-Serif" font-size="10.00">tcfs_mkdir</text>
</a>
</g>
</g>
<!-- Node3&#45;&gt;Node9 -->
<g id="edge8_Node000003_Node000009" class="edge">
<title>Node3&#45;&gt;Node9</title>
<g id="a_edge8_Node000003_Node000009"><a xlink:title=" ">
<path fill="none" stroke="#63b8ff" d="M255.88,-622.59C230.11,-612.56 196.34,-599.41 173.18,-590.39"/>
<polygon fill="#63b8ff" stroke="#63b8ff" points="254.44,-626.18 265.03,-626.55 256.98,-619.66 254.44,-626.18"/>
</a>
</g>
</g>
<!-- Node10 -->
<g id="Node000010" class="node">
<title>Node10</title>
<g id="a_Node000010"><a xlink:href="tcfs_8c.html#a151f53359474a95c52f5e79d438869bd" target="_top" xlink:title="Creates a regular file or a special file (block or character).">
<polygon fill="white" stroke="#666666" points="179,-552 112,-552 112,-532 179,-532 179,-552"/>
<text text-anchor="middle" x="145.5" y="-538.5" font-family="Helvetica,sans-Serif" font-size="10.00">tcfs_mknod</text>
</a>
</g>
</g>
<!-- Node3&#45;&gt;Node10 -->
<g id="edge9_Node000003_Node000010" class="edge">
<title>Node3&#45;&gt;Node10</title>
<g id="a_edge9_Node000003_Node000010"><a xlink:title=" ">
<path fill="none" stroke="#63b8ff" d="M272.54,-619.76C252.5,-603.3 220.55,-578.49 190.25,-561 184.8,-557.85 178.73,-554.9 172.89,-552.3"/>
<polygon fill="#63b8ff" stroke="#63b8ff" points="269.94,-622.98 279.87,-626.68 274.41,-617.59 269.94,-622.98"/>
</a>
</g>
</g>
<!-- Node11 -->
<g id="Node000011" class="node">
<title>Node11</title>
<g id="a_Node000011"><a xlink:href="tcfs_8c.html#af0c6a7d66189cc1e9fbfafba5255e60d" target="_top" xlink:title="Opens a file.">
<polygon fill="white" stroke="#666666" points="174.88,-514 116.12,-514 116.12,-494 174.88,-494 174.88,-514"/>
<text text-anchor="middle" x="145.5" y="-500.5" font-family="Helvetica,sans-Serif" font-size="10.00">tcfs_open</text>
</a>
</g>
</g>
<!-- Node3&#45;&gt;Node11 -->
<g id="edge10_Node000003_Node000011" class="edge">
<title>Node3&#45;&gt;Node11</title>
<g id="a_edge10_Node000003_Node000011"><a xlink:title=" ">
<path fill="none" stroke="#63b8ff" d="M279.58,-617.7C261.72,-592.96 227.84,-550.05 190.25,-523 185.68,-519.71 180.45,-516.83 175.23,-514.37"/>
<polygon fill="#63b8ff" stroke="#63b8ff" points="277.18,-619.37 285.82,-625.51 282.9,-615.32 277.18,-619.37"/>
</a>
</g>
</g>
<!-- Node12 -->
<g id="Node000012" class="node">
<title>Node12</title>
<g id="a_Node000012"><a xlink:href="tcfs_8c.html#a92ebab5be45b159c2850a47a5072b58d" target="_top" xlink:title="Opens a directory.">
<polygon fill="white" stroke="#666666" points="180.12,-476 110.88,-476 110.88,-456 180.12,-456 180.12,-476"/>
<text text-anchor="middle" x="145.5" y="-462.5" font-family="Helvetica,sans-Serif" font-size="10.00">tcfs_opendir</text>
</a>
</g>
</g>
<!-- Node3&#45;&gt;Node12 -->
<g id="edge11_Node000003_Node000012" class="edge">
<title>Node3&#45;&gt;Node12</title>
<g id="a_edge11_Node000003_Node000012"><a xlink:title=" ">
<path fill="none" stroke="#63b8ff" d="M283.85,-616.72C268.71,-584.77 235.38,-522.5 190.25,-485 186.17,-481.61 181.4,-478.73 176.54,-476.32"/>
<polygon fill="#63b8ff" stroke="#63b8ff" points="281.07,-618.05 288.43,-625.67 287.43,-615.12 281.07,-618.05"/>
</a>
</g>
</g>
<!-- Node13 -->
<g id="Node000013" class="node">
<title>Node13</title>
<g id="a_Node000013"><a xlink:href="tcfs_8c.html#a745384a010e20b082db26e16702a0129" target="_top" xlink:title="Reads data from an open file.">
<polygon fill="white" stroke="#666666" points="60.62,-400 4.12,-400 4.12,-380 60.62,-380 60.62,-400"/>
<text text-anchor="middle" x="32.38" y="-386.5" font-family="Helvetica,sans-Serif" font-size="10.00">tcfs_read</text>
</a>
</g>
</g>
<!-- Node3&#45;&gt;Node13 -->
<g id="edge12_Node000003_Node000013" class="edge">
<title>Node3&#45;&gt;Node13</title>
<g id="a_edge12_Node000003_Node000013"><a xlink:title=" ">
<path fill="none" stroke="#63b8ff" d="M287.08,-616.21C275.26,-577.5 244.78,-494.06 190.25,-447 170.45,-429.91 100.58,-408.58 61.1,-397.49"/>
<polygon fill="#63b8ff" stroke="#63b8ff" points="283.98,-617.08 290.15,-625.69 290.7,-615.11 283.98,-617.08"/>
</a>
</g>
</g>
<!-- Node14 -->
<g id="Node000014" class="node">
<title>Node14</title>
<g id="a_Node000014"><a xlink:href="tcfs_8c.html#a1a713549c892f56a6522e6487c581d69" target="_top" xlink:title="Reads a directory.">
<polygon fill="white" stroke="#666666" points="179,-400 112,-400 112,-380 179,-380 179,-400"/>
<text text-anchor="middle" x="145.5" y="-386.5" font-family="Helvetica,sans-Serif" font-size="10.00">tcfs_readdir</text>
</a>
</g>
</g>
<!-- Node3&#45;&gt;Node14 -->
<g id="edge13_Node000003_Node000014" class="edge">
<title>Node3&#45;&gt;Node14</title>
<g id="a_edge13_Node000003_Node000014"><a xlink:title=" ">
<path fill="none" stroke="#63b8ff" d="M288.08,-616.4C277.26,-573.89 247.35,-475.27 190.25,-414 185.17,-408.55 178.57,-404.05 172.04,-400.48"/>
<polygon fill="#63b8ff" stroke="#63b8ff" points="284.85,-616.95 290.63,-625.83 291.65,-615.29 284.85,-616.95"/>
</a>
</g>
</g>
<!-- Node15 -->
<g id="Node000015" class="node">
<title>Node15</title>
<g id="a_Node000015"><a xlink:href="tcfs_8c.html#acb1e081efcbf61b6f34e8bbdf7af8979" target="_top" xlink:title="Reads the target of a symbolic link.">
<polygon fill="white" stroke="#666666" points="181.25,-970 109.75,-970 109.75,-950 181.25,-950 181.25,-970"/>
<text text-anchor="middle" x="145.5" y="-956.5" font-family="Helvetica,sans-Serif" font-size="10.00">tcfs_readlink</text>
</a>
</g>
</g>
<!-- Node3&#45;&gt;Node15 -->
<g id="edge14_Node000003_Node000015" class="edge">
<title>Node3&#45;&gt;Node15</title>
<g id="a_edge14_Node000003_Node000015"><a xlink:title=" ">
<path fill="none" stroke="#63b8ff" d="M291.48,-658.36C286.85,-712.52 267.54,-856.92 190.25,-941 187.11,-944.41 183.25,-947.24 179.14,-949.58"/>
<polygon fill="#63b8ff" stroke="#63b8ff" points="295.05,-658.65 292.32,-648.41 288.07,-658.12 295.05,-658.65"/>
</a>
</g>
</g>
<!-- Node16 -->
<g id="Node000016" class="node">
<title>Node16</title>
<g id="a_Node000016"><a xlink:href="tcfs_8c.html#a2853593dded66a922afbdc36afb15a50" target="_top" xlink:title="Removes a directory.">
<polygon fill="white" stroke="#666666" points="175.25,-932 115.75,-932 115.75,-912 175.25,-912 175.25,-932"/>
<text text-anchor="middle" x="145.5" y="-918.5" font-family="Helvetica,sans-Serif" font-size="10.00">tcfs_rmdir</text>
</a>
</g>
</g>
<!-- Node3&#45;&gt;Node16 -->
<g id="edge15_Node000003_Node000016" class="edge">
<title>Node3&#45;&gt;Node16</title>
<g id="a_edge15_Node000003_Node000016"><a xlink:title=" ">
<path fill="none" stroke="#63b8ff" d="M290.28,-658.3C283.21,-707.64 259.27,-831.05 190.25,-903 186.12,-907.3 180.86,-910.69 175.42,-913.33"/>
<polygon fill="#63b8ff" stroke="#63b8ff" points="293.88,-658.8 291.73,-648.43 286.94,-657.88 293.88,-658.8"/>
</a>
</g>
</g>
<!-- Node17 -->
<g id="Node000017" class="node">
<title>Node17</title>
<g id="a_Node000017"><a xlink:href="tcfs_8c.html#ad3c328fdcd93c8203e1ce9c785fd3a14" target="_top" xlink:title="Sets extended attributes.">
<polygon fill="white" stroke="#666666" points="180.88,-324 110.12,-324 110.12,-304 180.88,-304 180.88,-324"/>
<text text-anchor="middle" x="145.5" y="-310.5" font-family="Helvetica,sans-Serif" font-size="10.00">tcfs_setxattr</text>
</a>
</g>
</g>
<!-- Node3&#45;&gt;Node17 -->
<g id="edge16_Node000003_Node000017" class="edge">
<title>Node3&#45;&gt;Node17</title>
<g id="a_edge16_Node000003_Node000017"><a xlink:title=" ">
<path fill="none" stroke="#63b8ff" d="M291.48,-615.64C286.85,-561.48 267.54,-417.08 190.25,-333 187.11,-329.59 183.25,-326.76 179.14,-324.42"/>
<polygon fill="#63b8ff" stroke="#63b8ff" points="288.07,-615.88 292.32,-625.59 295.05,-615.35 288.07,-615.88"/>
</a>
</g>
</g>
<!-- Node19 -->
<g id="Node000019" class="node">
<title>Node19</title>
<g id="a_Node000019"><a xlink:href="tcfs_8c.html#a7e7f7a65b4e76cc96505d0c6d62fba9c" target="_top" xlink:title="Truncates or extends the size of a file.">
<polygon fill="white" stroke="#666666" points="182,-894 109,-894 109,-874 182,-874 182,-894"/>
<text text-anchor="middle" x="145.5" y="-880.5" font-family="Helvetica,sans-Serif" font-size="10.00">tcfs_truncate</text>
</a>
</g>
</g>
<!-- Node3&#45;&gt;Node19 -->
<g id="edge18_Node000003_Node000019" class="edge">
<title>Node3&#45;&gt;Node19</title>
<g id="a_edge18_Node000003_Node000019"><a xlink:title=" ">
<path fill="none" stroke="#63b8ff" d="M288.79,-657.91C279.19,-701.88 251.24,-804.81 190.25,-865 186.83,-868.37 182.72,-871.19 178.4,-873.54"/>
<polygon fill="#63b8ff" stroke="#63b8ff" points="292.37,-658.88 290.98,-648.38 285.52,-657.46 292.37,-658.88"/>
</a>
</g>
</g>
<!-- Node20 -->
<g id="Node000020" class="node">
<title>Node20</title>
<g id="a_Node000020"><a xlink:href="tcfs_8c.html#ac6d3a8a626363a6f98de64e585968b09" target="_top" xlink:title="Removes a file.">
<polygon fill="white" stroke="#666666" points="177.12,-856 113.88,-856 113.88,-836 177.12,-836 177.12,-856"/>
<text text-anchor="middle" x="145.5" y="-842.5" font-family="Helvetica,sans-Serif" font-size="10.00">tcfs_unlink</text>
</a>
</g>
</g>
<!-- Node3&#45;&gt;Node20 -->
<g id="edge19_Node000003_Node000020" class="edge">
<title>Node3&#45;&gt;Node20</title>
<g id="a_edge19_Node000003_Node000020"><a xlink:title=" ">
<path fill="none" stroke="#63b8ff" d="M286.81,-657.49C274.53,-695.68 243.31,-778.29 190.25,-827 186.47,-830.47 181.95,-833.38 177.28,-835.78"/>
<polygon fill="#63b8ff" stroke="#63b8ff" points="290.39,-658.73 290.01,-648.15 283.71,-656.66 290.39,-658.73"/>
</a>
</g>
</g>
<!-- Node21 -->
<g id="Node000021" class="node">
<title>Node21</title>
<g id="a_Node000021"><a xlink:href="tcfs_8c.html#aca5dccf989dfc270ca31e1d8b20bb60e" target="_top" xlink:title="Modify the access and modification timestamps of a file in the TCFS file system.">
<polygon fill="white" stroke="#666666" points="181.62,-780 109.38,-780 109.38,-760 181.62,-760 181.62,-780"/>
<text text-anchor="middle" x="145.5" y="-766.5" font-family="Helvetica,sans-Serif" font-size="10.00">tcfs_utimens</text>
</a>
</g>
</g>
<!-- Node3&#45;&gt;Node21 -->
<g id="edge20_Node000003_Node000021" class="edge">
<title>Node3&#45;&gt;Node21</title>
<g id="a_edge20_Node000003_Node000021"><a xlink:title=" ">
<path fill="none" stroke="#63b8ff" d="M279.58,-656.3C261.72,-681.04 227.84,-723.95 190.25,-751 185.68,-754.29 180.45,-757.17 175.23,-759.63"/>
<polygon fill="#63b8ff" stroke="#63b8ff" points="282.9,-658.68 285.82,-648.49 277.18,-654.63 282.9,-658.68"/>
</a>
</g>
</g>
<!-- Node4&#45;&gt;Node5 -->
<g id="edge4_Node000004_Node000005" class="edge">
<title>Node4&#45;&gt;Node5</title>
<g id="a_edge4_Node000004_Node000005"><a xlink:title=" ">
<path fill="none" stroke="#63b8ff" d="M103.38,-791.48C102.46,-790.69 101.58,-789.86 100.75,-789 54.41,-741.04 38.83,-657.41 34.67,-628.33"/>
<polygon fill="#63b8ff" stroke="#63b8ff" points="101.23,-794.93 111.46,-797.68 105.18,-789.15 101.23,-794.93"/>
</a>
</g>
</g>
<!-- Node17&#45;&gt;Node18 -->
<g id="edge17_Node000017_Node000018" class="edge">
<title>Node17&#45;&gt;Node18</title>
<g id="a_edge17_Node000017_Node000018"><a xlink:title=" ">
<path fill="none" stroke="#63b8ff" d="M102.44,-296.87C101.85,-296.27 101.29,-295.64 100.75,-295 64.21,-251.32 40.03,-65.88 34.56,-20.2"/>
<polygon fill="#63b8ff" stroke="#63b8ff" points="100.08,-300.24 110.13,-303.59 104.36,-294.7 100.08,-300.24"/>
</a>
</g>
</g>
<!-- Node22&#45;&gt;Node18 -->
<g id="edge23_Node000022_Node000018" class="edge">
<title>Node22&#45;&gt;Node18</title>
<g id="a_edge23_Node000022_Node000018"><a xlink:title=" ">
<path fill="none" stroke="#63b8ff" d="M283.81,-141.95C269,-111.75 236.54,-55.32 190.25,-29 151.38,-6.89 98.41,-5.24 65.05,-6.95"/>
<polygon fill="#63b8ff" stroke="#63b8ff" points="281.03,-143.24 288.47,-150.79 287.36,-140.25 281.03,-143.24"/>
</a>
</g>
</g>
<!-- Node23 -->
<g id="Node000023" class="node">
<title>Node23</title>
<g id="a_Node000023"><a xlink:href="tcfs_8c.html#a014853840814f4d5225e2e28e129f9e5" target="_top" xlink:title="Synchronizes file contents.">
<polygon fill="white" stroke="#666666" points="176.38,-286 114.62,-286 114.62,-266 176.38,-266 176.38,-286"/>
<text text-anchor="middle" x="145.5" y="-272.5" font-family="Helvetica,sans-Serif" font-size="10.00">tcfs_fsync</text>
</a>
</g>
</g>
<!-- Node22&#45;&gt;Node23 -->
<g id="edge24_Node000022_Node000023" class="edge">
<title>Node22&#45;&gt;Node23</title>
<g id="a_edge24_Node000022_Node000023"><a xlink:title=" ">
<path fill="none" stroke="#63b8ff" d="M276.64,-180.38C257.58,-201.11 224.23,-234.82 190.25,-257 185.4,-260.17 179.93,-263.02 174.54,-265.5"/>
<polygon fill="#63b8ff" stroke="#63b8ff" points="278.78,-183.13 282.9,-173.36 273.59,-178.43 278.78,-183.13"/>
</a>
</g>
</g>
<!-- Node24 -->
<g id="Node000024" class="node">
<title>Node24</title>
<g id="a_Node000024"><a xlink:href="tcfs_8c.html#a6a031c4e3c6dd59051c09789c4666657" target="_top" xlink:title="Get extended attribute data.">
<polygon fill="white" stroke="#666666" points="180.88,-362 110.12,-362 110.12,-342 180.88,-342 180.88,-362"/>
<text text-anchor="middle" x="145.5" y="-348.5" font-family="Helvetica,sans-Serif" font-size="10.00">tcfs_getxattr</text>
</a>
</g>
</g>
<!-- Node22&#45;&gt;Node24 -->
<g id="edge25_Node000022_Node000024" class="edge">
<title>Node22&#45;&gt;Node24</title>
<g id="a_edge25_Node000022_Node000024"><a xlink:title=" ">
<path fill="none" stroke="#63b8ff" d="M285.49,-182.37C271.8,-217.52 239.34,-289.95 190.25,-333 186.39,-336.39 181.83,-339.25 177.14,-341.64"/>
<polygon fill="#63b8ff" stroke="#63b8ff" points="289.01,-183.94 289.27,-173.35 282.46,-181.47 289.01,-183.94"/>
</a>
</g>
</g>
<!-- Node25 -->
<g id="Node000025" class="node">
<title>Node25</title>
<g id="a_Node000025"><a xlink:href="tcfs_8c.html#a271df7bd878f5ed132e1f98487e8aebd" target="_top" xlink:title="Creates a hard link.">
<polygon fill="white" stroke="#666666" points="171.88,-248 119.12,-248 119.12,-228 171.88,-228 171.88,-248"/>
<text text-anchor="middle" x="145.5" y="-234.5" font-family="Helvetica,sans-Serif" font-size="10.00">tcfs_link</text>
</a>
</g>
</g>
<!-- Node22&#45;&gt;Node25 -->
<g id="edge28_Node000022_Node000025" class="edge">
<title>Node22&#45;&gt;Node25</title>
<g id="a_edge28_Node000022_Node000025"><a xlink:title=" ">
<path fill="none" stroke="#63b8ff" d="M266.04,-177.85C245.55,-189.71 216.48,-206.06 190.25,-219 184.31,-221.93 177.81,-224.89 171.68,-227.56"/>
<polygon fill="#63b8ff" stroke="#63b8ff" points="267.48,-180.48 274.36,-172.42 263.95,-174.43 267.48,-180.48"/>
</a>
</g>
</g>
<!-- Node26 -->
<g id="Node000026" class="node">
<title>Node26</title>
<g id="a_Node000026"><a xlink:href="tcfs_8c.html#ae6edcf6a80467925a9a2112172395de1" target="_top" xlink:title="Lists extended attributes.">
<polygon fill="white" stroke="#666666" points="180.5,-210 110.5,-210 110.5,-190 180.5,-190 180.5,-210"/>
<text text-anchor="middle" x="145.5" y="-196.5" font-family="Helvetica,sans-Serif" font-size="10.00">tcfs_listxattr</text>
</a>
</g>
</g>
<!-- Node22&#45;&gt;Node26 -->
<g id="edge29_Node000022_Node000026" class="edge">
<title>Node22&#45;&gt;Node26</title>
<g id="a_edge29_Node000022_Node000026"><a xlink:title=" ">
<path fill="none" stroke="#63b8ff" d="M241.88,-175.24C221.68,-180.48 198.98,-186.37 180.8,-191.09"/>
<polygon fill="#63b8ff" stroke="#63b8ff" points="242.69,-178.38 251.49,-172.48 240.93,-171.61 242.69,-178.38"/>
</a>
</g>
</g>
<!-- Node27 -->
<g id="Node000027" class="node">
<title>Node27</title>
<g id="a_Node000027"><a xlink:href="tcfs_8c.html#a1241e1fcfe6bb4a5d49d8c8d4e737bcd" target="_top" xlink:title="Releases an open file.">
<polygon fill="white" stroke="#666666" points="180.12,-172 110.88,-172 110.88,-152 180.12,-152 180.12,-172"/>
<text text-anchor="middle" x="145.5" y="-158.5" font-family="Helvetica,sans-Serif" font-size="10.00">tcfs_release</text>
</a>
</g>
</g>
<!-- Node22&#45;&gt;Node27 -->
<g id="edge30_Node000022_Node000027" class="edge">
<title>Node22&#45;&gt;Node27</title>
<g id="a_edge30_Node000022_Node000027"><a xlink:title=" ">
<path fill="none" stroke="#63b8ff" d="M215.32,-162C203.05,-162 190.95,-162 180.39,-162"/>
<polygon fill="#63b8ff" stroke="#63b8ff" points="215.11,-165.5 225.11,-162 215.11,-158.5 215.11,-165.5"/>
</a>
</g>
</g>
<!-- Node28 -->
<g id="Node000028" class="node">
<title>Node28</title>
<g id="a_Node000028"><a xlink:href="tcfs_8c.html#acfe2c6a9467bd25a5ba6dc1a65209262" target="_top" xlink:title="Remove an extended attribute.">
<polygon fill="white" stroke="#666666" points="190.25,-134 100.75,-134 100.75,-114 190.25,-114 190.25,-134"/>
<text text-anchor="middle" x="145.5" y="-120.5" font-family="Helvetica,sans-Serif" font-size="10.00">tcfs_removexattr</text>
</a>
</g>
</g>
<!-- Node22&#45;&gt;Node28 -->
<g id="edge31_Node000022_Node000028" class="edge">
<title>Node22&#45;&gt;Node28</title>
<g id="a_edge31_Node000022_Node000028"><a xlink:title=" ">
<path fill="none" stroke="#63b8ff" d="M241.85,-148.75C223.8,-144.07 203.78,-138.87 186.75,-134.45"/>
<polygon fill="#63b8ff" stroke="#63b8ff" points="240.93,-152.39 251.49,-151.52 242.69,-145.62 240.93,-152.39"/>
</a>
</g>
</g>
<!-- Node29 -->
<g id="Node000029" class="node">
<title>Node29</title>
<g id="a_Node000029"><a xlink:href="tcfs_8c.html#aee96b732a1569a607e63bac6fbe5c403" target="_top" xlink:title="Renames a file or a directory.">
<polygon fill="white" stroke="#666666" points="180.5,-96 110.5,-96 110.5,-76 180.5,-76 180.5,-96"/>
<text text-anchor="middle" x="145.5" y="-82.5" font-family="Helvetica,sans-Serif" font-size="10.00">tcfs_rename</text>
</a>
</g>
</g>
<!-- Node22&#45;&gt;Node29 -->
<g id="edge32_Node000022_Node000029" class="edge">
<title>Node22&#45;&gt;Node29</title>
<g id="a_edge32_Node000022_Node000029"><a xlink:title=" ">
<path fill="none" stroke="#63b8ff" d="M266.04,-146.15C245.55,-134.29 216.48,-117.94 190.25,-105 184.31,-102.07 177.81,-99.11 171.68,-96.44"/>
<polygon fill="#63b8ff" stroke="#63b8ff" points="263.95,-149.57 274.36,-151.58 267.48,-143.52 263.95,-149.57"/>
</a>
</g>
</g>
<!-- Node30 -->
<g id="Node000030" class="node">
<title>Node30</title>
<g id="a_Node000030"><a xlink:href="tcfs_8c.html#ac1d223f9b998d5af6bec3947d03be0fc" target="_top" xlink:title="Creates a symbolic link.">
<polygon fill="white" stroke="#666666" points="181.25,-58 109.75,-58 109.75,-38 181.25,-38 181.25,-58"/>
<text text-anchor="middle" x="145.5" y="-44.5" font-family="Helvetica,sans-Serif" font-size="10.00">tcfs_symlink</text>
</a>
</g>
</g>
<!-- Node22&#45;&gt;Node30 -->
<g id="edge33_Node000022_Node000030" class="edge">
<title>Node22&#45;&gt;Node30</title>
<g id="a_edge33_Node000022_Node000030"><a xlink:title=" ">
<path fill="none" stroke="#63b8ff" d="M276.64,-143.62C257.58,-122.89 224.23,-89.18 190.25,-67 185.4,-63.83 179.93,-60.98 174.54,-58.5"/>
<polygon fill="#63b8ff" stroke="#63b8ff" points="273.59,-145.57 282.9,-150.64 278.78,-140.87 273.59,-145.57"/>
</a>
</g>
</g>
<!-- Node24&#45;&gt;Node5 -->
<g id="edge27_Node000024_Node000005" class="edge">
<title>Node24&#45;&gt;Node5</title>
<g id="a_edge27_Node000024_Node000005"><a xlink:title=" ">
<path fill="none" stroke="#63b8ff" d="M102.85,-368.79C102.11,-369.5 101.41,-370.23 100.75,-371 37.61,-443.91 33.1,-570.69 33.19,-607.63"/>
<polygon fill="#63b8ff" stroke="#63b8ff" points="104.72,-371.02 110.67,-362.25 100.55,-365.39 104.72,-371.02"/>
</a>
</g>
</g>
<!-- Node24&#45;&gt;Node13 -->
<g id="edge26_Node000024_Node000013" class="edge">
<title>Node24&#45;&gt;Node13</title>
<g id="a_edge26_Node000024_Node000013"><a xlink:title=" ">
<path fill="none" stroke="#63b8ff" d="M103.76,-365.93C89.5,-370.81 73.83,-376.17 60.9,-380.59"/>
<polygon fill="#63b8ff" stroke="#63b8ff" points="104.51,-369.03 112.84,-362.48 102.25,-362.41 104.51,-369.03"/>
</a>
</g>
</g>
</g>
</svg>

<g id="navigator" transform="translate(0 0)" fill="#404254">
  <rect fill="#f2f5e9" fill-opacity="0.5" stroke="#606060" stroke-width=".5" x="0" y="0" width="60" height="60"/>
  <use id="zoomplus" xlink:href="#zoomPlus" x="17" y="9" onmousedown="handleZoom(evt,'in')"/>
  <use id="zoomminus" xlink:href="#zoomMin" x="42" y="9" onmousedown="handleZoom(evt,'out')"/>
  <use id="reset" xlink:href="#resetDef" x="30" y="36" onmousedown="handleReset()"/>
   <use id="arrowup" xlink:href="#arrowUp" x="0" y="0" onmousedown="handlePan(0,-1)"/>
  <use id="arrowright" xlink:href="#arrowRight" x="0" y="0" onmousedown="handlePan(1,0)"/>
  <use id="arrowdown" xlink:href="#arrowDown" x="0" y="0" onmousedown="handlePan(0,1)"/>
  <use id="arrowleft" xlink:href="#arrowLeft" x="0" y="0" onmousedown="handlePan(-1,0)"/>
</g>
<svg viewBox="0 0 15 15" width="100%" height="30px" preserveAspectRatio="xMaxYMin meet">
 <g id="arrow_out" transform="scale(0.3 0.3)">
  <a xlink:href="crypt-utils_8c_aa926098a8843cf0ab6bd7eb8b3bbd2e6_icgraph_org.svg" target="_base">
   <rect id="button" ry="5" rx="5" y="6" x="6" height="38" width="38"
        fill="#f2f5e9" fill-opacity="0.5" stroke="#606060" stroke-width="1.0"/>
   <path id="arrow"
     d="M 11.500037,31.436501 C 11.940474,20.09759 22.043105,11.32322 32.158766,21.979434 L 37.068811,17.246167 C 37.068811,17.246167 37.088388,32 37.088388,32 L 22.160133,31.978069 C 22.160133,31.978069 26.997745,27.140456 26.997745,27.140456 C 18.528582,18.264221 13.291696,25.230495 11.500037,31.436501 z"
     style="fill:#404040;"/>
  </a>
 </g>
</svg>

<style type='text/css'>
<![CDATA[
[data-mouse-over-selected='false'] { opacity: 0.7; }
[data-mouse-over-selected='true']  { opacity: 1.0; }
]]>
</style>
<script type="application/ecmascript"><![CDATA[
document.addEventListener('DOMContentLoaded', (event) => {
  highlightEdges();
  highlightAdjacentNodes();
});
]]></script>
</svg>
