<?xml version="1.0" encoding="UTF-8" standalone="no"?>
<!DOCTYPE svg PUBLIC "-//W3C//DTD SVG 1.1//EN"
 "http://www.w3.org/Graphics/SVG/1.1/DTD/svg11.dtd">
<!-- Generated by graphviz version 7.1.0 (0)
 -->
<!-- Title: print_err Pages: 1 -->
<svg width="490pt" height="443pt"
 viewBox="0.00 0.00 490.00 443.04" xmlns="http://www.w3.org/2000/svg" xmlns:xlink="http://www.w3.org/1999/xlink">
<g id="graph0" class="graph" transform="scale(1 1) rotate(0) translate(4 439.04)">
<title>print_err</title>
<!-- Node1 -->
<g id="Node000001" class="node">
<title>Node1</title>
<g id="a_Node000001"><a xlink:title="Format and print data as an error.">
<polygon fill="#999999" stroke="#666666" points="482,-226 430,-226 430,-207 482,-207 482,-226"/>
<text text-anchor="middle" x="456" y="-214" font-family="Helvetica,sans-Serif" font-size="10.00">print_err</text>
</a>
</g>
</g>
<!-- Node2 -->
<g id="Node000002" class="node">
<title>Node2</title>
<g id="a_Node000002"><a xlink:href="queue_8c.html#a1874b6e320d1e54d571c89766d046602" target="_top" xlink:title="Dequeue a message from the queue and get is as a void* pointing to a structure that will be either &#160;&#160;...">
<polygon fill="white" stroke="#666666" points="371,-208 318,-208 318,-189 371,-189 371,-208"/>
<text text-anchor="middle" x="344.5" y="-196" font-family="Helvetica,sans-Serif" font-size="10.00">dequeue</text>
</a>
</g>
</g>
<!-- Node1&#45;&gt;Node2 -->
<g id="edge1_Node000001_Node000002" class="edge">
<title>Node1&#45;&gt;Node2</title>
<g id="a_edge1_Node000001_Node000002"><a xlink:title=" ">
<path fill="none" stroke="#63b8ff" d="M418.29,-210.47C402.81,-207.92 385.18,-205.02 371.14,-202.71"/>
<polygon fill="#63b8ff" stroke="#63b8ff" points="417.67,-213.91 428.11,-212.08 418.81,-207 417.67,-213.91"/>
</a>
</g>
</g>
<!-- Node3 -->
<g id="Node000003" class="node">
<title>Node3</title>
<g id="a_Node000003"><a xlink:href="tcfs__daemon__tools_8c.html#a24bb8f1eddd763598165ab8fa40fcdbd" target="_top" xlink:title="Dequeue the latest message from the queue and handle it.">
<polygon fill="white" stroke="#666666" points="259,-208 119,-208 119,-189 259,-189 259,-208"/>
<text text-anchor="middle" x="189" y="-196" font-family="Helvetica,sans-Serif" font-size="10.00">handle_incoming_messages</text>
</a>
</g>
</g>
<!-- Node1&#45;&gt;Node3 -->
<g id="edge12_Node000001_Node000003" class="edge">
<title>Node1&#45;&gt;Node3</title>
<g id="a_edge12_Node000001_Node000003"><a xlink:title=" ">
<path fill="none" stroke="#63b8ff" d="M433.54,-200C422.39,-192.46 408.17,-184.37 394,-180.5 335.35,-164.48 264.03,-177.9 223.14,-188.57"/>
<polygon fill="#63b8ff" stroke="#63b8ff" points="431.42,-202.78 441.59,-205.75 435.48,-197.09 431.42,-202.78"/>
</a>
</g>
</g>
<!-- Node4 -->
<g id="Node000004" class="node">
<title>Node4</title>
<g id="a_Node000004"><a xlink:href="tcfs__daemon_8c.html#ae66f6b31b5ad750f1fe042a706a4e3d4" target="_top" xlink:title="main function of the daemon. This will daemonize the program, spawn a thread to handle messages and h...">
<polygon fill="white" stroke="#666666" points="60.5,-340 22.5,-340 22.5,-321 60.5,-321 60.5,-340"/>
<text text-anchor="middle" x="41.5" y="-328" font-family="Helvetica,sans-Serif" font-size="10.00">main</text>
</a>
</g>
</g>
<!-- Node1&#45;&gt;Node4 -->
<g id="edge20_Node000001_Node000004" class="edge">
<title>Node1&#45;&gt;Node4</title>
<g id="a_edge20_Node000001_Node000004"><a xlink:title=" ">
<path fill="none" stroke="#63b8ff" d="M455.55,-237.56C455.34,-278.2 448.31,-366.9 394,-406.5 284.03,-486.69 106.46,-375.2 56.17,-340.33"/>
<polygon fill="#63b8ff" stroke="#63b8ff" points="459.06,-237.66 455.45,-227.7 452.06,-237.73 459.06,-237.66"/>
</a>
</g>
</g>
<!-- Node5 -->
<g id="Node000005" class="node">
<title>Node5</title>
<g id="a_Node000005"><a xlink:href="queue_8c.html#ac51f5d595a9d7376eb0448116c99e1f4" target="_top" xlink:title="Enqueues a message void* message on the queue.">
<polygon fill="white" stroke="#666666" points="371,-397 318,-397 318,-378 371,-378 371,-397"/>
<text text-anchor="middle" x="344.5" y="-385" font-family="Helvetica,sans-Serif" font-size="10.00">enqueue</text>
</a>
</g>
</g>
<!-- Node1&#45;&gt;Node5 -->
<g id="edge4_Node000001_Node000005" class="edge">
<title>Node1&#45;&gt;Node5</title>
<g id="a_edge4_Node000001_Node000005"><a xlink:title=" ">
<path fill="none" stroke="#63b8ff" d="M451.17,-237.53C444.53,-268.59 428.18,-326.97 394,-363.5 387.84,-370.08 379.48,-375.11 371.43,-378.81"/>
<polygon fill="#63b8ff" stroke="#63b8ff" points="454.57,-238.35 453.08,-227.86 447.71,-236.99 454.57,-238.35"/>
</a>
</g>
</g>
<!-- Node6 -->
<g id="Node000006" class="node">
<title>Node6</title>
<g id="a_Node000006"><a xlink:href="tcfs__daemon__tools_8c.html#ab143feba805d6beda83eb69560c3c923" target="_top" xlink:title="Test if the daemon is working by sending some messages.">
<polygon fill="white" stroke="#666666" points="257.5,-359 120.5,-359 120.5,-340 257.5,-340 257.5,-359"/>
<text text-anchor="middle" x="189" y="-347" font-family="Helvetica,sans-Serif" font-size="10.00">handle_outgoing_messages</text>
</a>
</g>
</g>
<!-- Node1&#45;&gt;Node6 -->
<g id="edge13_Node000001_Node000006" class="edge">
<title>Node1&#45;&gt;Node6</title>
<g id="a_edge13_Node000001_Node000006"><a xlink:title=" ">
<path fill="none" stroke="#63b8ff" d="M445.83,-236.7C435.87,-256.3 418.1,-285.37 394,-301.5 353.63,-328.51 299.89,-340.4 257.7,-345.6"/>
<polygon fill="#63b8ff" stroke="#63b8ff" points="448.93,-238.32 450.12,-227.79 442.63,-235.28 448.93,-238.32"/>
</a>
</g>
</g>
<!-- Node7 -->
<g id="Node000007" class="node">
<title>Node7</title>
<g id="a_Node000007"><a xlink:href="redis_8c.html#a73711c0a9d0060337409d15dc44f5ad1" target="_top" xlink:title="Fetch the user on the DB with key name.">
<polygon fill="white" stroke="#666666" points="394,-245 295,-245 295,-226 394,-226 394,-245"/>
<text text-anchor="middle" x="344.5" y="-233" font-family="Helvetica,sans-Serif" font-size="10.00">get_user_by_name</text>
</a>
</g>
</g>
<!-- Node1&#45;&gt;Node7 -->
<g id="edge7_Node000001_Node000007" class="edge">
<title>Node1&#45;&gt;Node7</title>
<g id="a_edge7_Node000001_Node000007"><a xlink:title=" ">
<path fill="none" stroke="#63b8ff" d="M418.43,-222.84C410.74,-224.18 402.51,-225.61 394.45,-227.01"/>
<polygon fill="#63b8ff" stroke="#63b8ff" points="418.86,-226.32 428.11,-221.17 417.66,-219.43 418.86,-226.32"/>
</a>
</g>
</g>
<!-- Node8 -->
<g id="Node000008" class="node">
<title>Node8</title>
<g id="a_Node000008"><a xlink:href="redis_8c.html#a2678c0575f2b6c944fd261255aeaebff" target="_top" xlink:title="Remove a user from the DB using the name as key.">
<polygon fill="white" stroke="#666666" points="233.5,-264 144.5,-264 144.5,-245 233.5,-245 233.5,-264"/>
<text text-anchor="middle" x="189" y="-252" font-family="Helvetica,sans-Serif" font-size="10.00">remove_by_user</text>
</a>
</g>
</g>
<!-- Node1&#45;&gt;Node8 -->
<g id="edge22_Node000001_Node000008" class="edge">
<title>Node1&#45;&gt;Node8</title>
<g id="a_edge22_Node000001_Node000008"><a xlink:title=" ">
<path fill="none" stroke="#63b8ff" d="M434.87,-233.05C423.59,-241.23 408.85,-250.25 394,-254.5 340.54,-269.79 275.92,-266.33 233.94,-261.36"/>
<polygon fill="#63b8ff" stroke="#63b8ff" points="436.78,-235.99 442.59,-227.13 432.53,-230.43 436.78,-235.99"/>
</a>
</g>
</g>
<!-- Node9 -->
<g id="Node000009" class="node">
<title>Node9</title>
<g id="a_Node000009"><a xlink:href="redis_8c.html#af0bf1bfc99afc940619371e3c76ab4f9" target="_top" xlink:title="Fetch the user on the DB with key pid.">
<polygon fill="white" stroke="#666666" points="388.5,-19 300.5,-19 300.5,0 388.5,0 388.5,-19"/>
<text text-anchor="middle" x="344.5" y="-7" font-family="Helvetica,sans-Serif" font-size="10.00">get_user_by_pid</text>
</a>
</g>
</g>
<!-- Node1&#45;&gt;Node9 -->
<g id="edge9_Node000001_Node000009" class="edge">
<title>Node1&#45;&gt;Node9</title>
<g id="a_edge9_Node000001_Node000009"><a xlink:title=" ">
<path fill="none" stroke="#63b8ff" d="M453.24,-195.64C449.1,-158.75 435.71,-81.39 394,-33.5 388.82,-27.55 381.81,-22.92 374.74,-19.38"/>
<polygon fill="#63b8ff" stroke="#63b8ff" points="449.73,-195.77 454.2,-205.38 456.7,-195.08 449.73,-195.77"/>
</a>
</g>
</g>
<!-- Node10 -->
<g id="Node000010" class="node">
<title>Node10</title>
<g id="a_Node000010"><a xlink:href="redis_8c.html#a6b18d7ad2f1e8275106a5b39c0c7d216" target="_top" xlink:title="Remove a user from the DB using the PID as key.">
<polygon fill="white" stroke="#666666" points="230.5,-38 147.5,-38 147.5,-19 230.5,-19 230.5,-38"/>
<text text-anchor="middle" x="189" y="-26" font-family="Helvetica,sans-Serif" font-size="10.00">remove_by_pid</text>
</a>
</g>
</g>
<!-- Node1&#45;&gt;Node10 -->
<g id="edge21_Node000001_Node000010" class="edge">
<title>Node1&#45;&gt;Node10</title>
<g id="a_edge21_Node000001_Node000010"><a xlink:title=" ">
<path fill="none" stroke="#63b8ff" d="M452.72,-195.14C448,-162.13 434,-99.13 394,-66.5 347.66,-28.69 275.64,-23.94 230.73,-25.27"/>
<polygon fill="#63b8ff" stroke="#63b8ff" points="449.25,-195.57 453.96,-205.05 456.19,-194.7 449.25,-195.57"/>
</a>
</g>
</g>
<!-- Node12 -->
<g id="Node000012" class="node">
<title>Node12</title>
<g id="a_Node000012"><a xlink:href="redis_8c.html#a1f6dc2f98a71a88567fe11fd9e2585ea" target="_top" xlink:title="initialize the context for the Redis DB">
<polygon fill="white" stroke="#666666" points="378,-95 311,-95 311,-76 378,-76 378,-95"/>
<text text-anchor="middle" x="344.5" y="-83" font-family="Helvetica,sans-Serif" font-size="10.00">init_context</text>
</a>
</g>
</g>
<!-- Node1&#45;&gt;Node12 -->
<g id="edge14_Node000001_Node000012" class="edge">
<title>Node1&#45;&gt;Node12</title>
<g id="a_edge14_Node000001_Node000012"><a xlink:title=" ">
<path fill="none" stroke="#63b8ff" d="M448.69,-195.95C440.08,-171.11 422.4,-129.55 394,-104.5 389.46,-100.49 383.97,-97.28 378.34,-94.72"/>
<polygon fill="#63b8ff" stroke="#63b8ff" points="445.28,-196.8 451.72,-205.21 451.93,-194.62 445.28,-196.8"/>
</a>
</g>
</g>
<!-- Node14 -->
<g id="Node000014" class="node">
<title>Node14</title>
<g id="a_Node000014"><a xlink:href="queue_8c.html#a6997b2cacf3d2e49bc848d0274e24b13" target="_top" xlink:title="Initialize the message queue.">
<polygon fill="white" stroke="#666666" points="219.5,-321 158.5,-321 158.5,-302 219.5,-302 219.5,-321"/>
<text text-anchor="middle" x="189" y="-309" font-family="Helvetica,sans-Serif" font-size="10.00">init_queue</text>
</a>
</g>
</g>
<!-- Node1&#45;&gt;Node14 -->
<g id="edge16_Node000001_Node000014" class="edge">
<title>Node1&#45;&gt;Node14</title>
<g id="a_edge16_Node000001_Node000014"><a xlink:title=" ">
<path fill="none" stroke="#63b8ff" d="M440.32,-234.92C429.04,-247.78 412.32,-264.24 394,-273.5 336.93,-302.34 260.92,-309.45 219.68,-311.11"/>
<polygon fill="#63b8ff" stroke="#63b8ff" points="442.8,-237.42 446.55,-227.51 437.44,-232.92 442.8,-237.42"/>
</a>
</g>
</g>
<!-- Node15 -->
<g id="Node000015" class="node">
<title>Node15</title>
<g id="a_Node000015"><a xlink:href="redis_8c.html#ac9878ee09b53700eb08c1f175873c30b" target="_top" xlink:title="Insert a new user in the DB.">
<polygon fill="white" stroke="#666666" points="365,-132 324,-132 324,-113 365,-113 365,-132"/>
<text text-anchor="middle" x="344.5" y="-120" font-family="Helvetica,sans-Serif" font-size="10.00">insert</text>
</a>
</g>
</g>
<!-- Node1&#45;&gt;Node15 -->
<g id="edge18_Node000001_Node000015" class="edge">
<title>Node1&#45;&gt;Node15</title>
<g id="a_edge18_Node000001_Node000015"><a xlink:title=" ">
<path fill="none" stroke="#63b8ff" d="M441.98,-197.81C430.64,-182.56 413.06,-161.19 394,-146.5 385.37,-139.85 374.6,-134.29 365.41,-130.21"/>
<polygon fill="#63b8ff" stroke="#63b8ff" points="438.9,-199.54 447.59,-205.6 444.58,-195.44 438.9,-199.54"/>
</a>
</g>
</g>
<!-- Node2&#45;&gt;Node3 -->
<g id="edge2_Node000002_Node000003" class="edge">
<title>Node2&#45;&gt;Node3</title>
<g id="a_edge2_Node000002_Node000003"><a xlink:title=" ">
<path fill="none" stroke="#63b8ff" d="M306.56,-198.5C292.39,-198.5 275.72,-198.5 259.49,-198.5"/>
<polygon fill="#63b8ff" stroke="#63b8ff" points="306.29,-202 316.29,-198.5 306.29,-195 306.29,-202"/>
</a>
</g>
</g>
<!-- Node3&#45;&gt;Node4 -->
<g id="edge3_Node000003_Node000004" class="edge">
<title>Node3&#45;&gt;Node4</title>
<g id="a_edge3_Node000003_Node000004"><a xlink:title=" ">
<path fill="none" stroke="#63b8ff" d="M154.79,-213.49C142.86,-219.7 129.72,-227.55 119,-236.5 87.99,-262.39 60.46,-302.32 48.64,-320.67"/>
<polygon fill="#63b8ff" stroke="#63b8ff" points="156.13,-216.73 163.52,-209.14 153,-210.47 156.13,-216.73"/>
</a>
</g>
</g>
<!-- Node5&#45;&gt;Node6 -->
<g id="edge5_Node000005_Node000006" class="edge">
<title>Node5&#45;&gt;Node6</title>
<g id="a_edge5_Node000005_Node000006"><a xlink:title=" ">
<path fill="none" stroke="#63b8ff" d="M306.75,-378.4C283.68,-372.69 253.92,-365.32 230.22,-359.46"/>
<polygon fill="#63b8ff" stroke="#63b8ff" points="305.79,-381.77 316.34,-380.78 307.47,-374.98 305.79,-381.77"/>
</a>
</g>
</g>
<!-- Node6&#45;&gt;Node4 -->
<g id="edge6_Node000006_Node000004" class="edge">
<title>Node6&#45;&gt;Node4</title>
<g id="a_edge6_Node000006_Node000004"><a xlink:title=" ">
<path fill="none" stroke="#63b8ff" d="M109.1,-339.2C91.05,-336.84 73.51,-334.55 60.96,-332.91"/>
<polygon fill="#63b8ff" stroke="#63b8ff" points="108.49,-342.65 118.86,-340.47 109.4,-335.71 108.49,-342.65"/>
</a>
</g>
</g>
<!-- Node7&#45;&gt;Node8 -->
<g id="edge8_Node000007_Node000008" class="edge">
<title>Node7&#45;&gt;Node8</title>
<g id="a_edge8_Node000007_Node000008"><a xlink:title=" ">
<path fill="none" stroke="#63b8ff" d="M283.3,-242.95C266.81,-244.99 249.25,-247.17 233.86,-249.07"/>
<polygon fill="#63b8ff" stroke="#63b8ff" points="283.51,-246.45 293.01,-241.75 282.65,-239.5 283.51,-246.45"/>
</a>
</g>
</g>
<!-- Node9&#45;&gt;Node10 -->
<g id="edge10_Node000009_Node000010" class="edge">
<title>Node9&#45;&gt;Node10</title>
<g id="a_edge10_Node000009_Node000010"><a xlink:title=" ">
<path fill="none" stroke="#63b8ff" d="M289.05,-16.24C269.94,-18.6 248.81,-21.22 231,-23.43"/>
<polygon fill="#63b8ff" stroke="#63b8ff" points="289.34,-19.73 298.83,-15.03 288.48,-12.78 289.34,-19.73"/>
</a>
</g>
</g>
<!-- Node11 -->
<g id="Node000011" class="node">
<title>Node11</title>
<g id="a_Node000011"><a xlink:href="user__db_8c.html#a6e2fcf4aa637e61f69b1b601981663cf" target="_top" xlink:title="Remove a user from the DB.">
<polygon fill="white" stroke="#666666" points="83,-38 0,-38 0,-19 83,-19 83,-38"/>
<text text-anchor="middle" x="41.5" y="-26" font-family="Helvetica,sans-Serif" font-size="10.00">unregister_user</text>
</a>
</g>
</g>
<!-- Node10&#45;&gt;Node11 -->
<g id="edge11_Node000010_Node000011" class="edge">
<title>Node10&#45;&gt;Node11</title>
<g id="a_edge11_Node000010_Node000011"><a xlink:title=" ">
<path fill="none" stroke="#63b8ff" d="M136.01,-28.5C118.71,-28.5 99.7,-28.5 83.36,-28.5"/>
<polygon fill="#63b8ff" stroke="#63b8ff" points="135.57,-32 145.57,-28.5 135.57,-25 135.57,-32"/>
</a>
</g>
</g>
<!-- Node13 -->
<g id="Node000013" class="node">
<title>Node13</title>
<g id="a_Node000013"><a xlink:href="user__db_8c.html#a2ae8a82033440194ad80949cd4493971" target="_top" xlink:title="Register or update a user in the db, this relies on the redis.c file.">
<polygon fill="white" stroke="#666666" points="225.5,-114 152.5,-114 152.5,-95 225.5,-95 225.5,-114"/>
<text text-anchor="middle" x="189" y="-102" font-family="Helvetica,sans-Serif" font-size="10.00">register_user</text>
</a>
</g>
</g>
<!-- Node12&#45;&gt;Node13 -->
<g id="edge15_Node000012_Node000013" class="edge">
<title>Node12&#45;&gt;Node13</title>
<g id="a_edge15_Node000012_Node000013"><a xlink:title=" ">
<path fill="none" stroke="#63b8ff" d="M299.23,-90.98C275.93,-93.86 247.73,-97.35 225.82,-100.07"/>
<polygon fill="#63b8ff" stroke="#63b8ff" points="299.57,-94.46 309.07,-89.76 298.71,-87.52 299.57,-94.46"/>
</a>
</g>
</g>
<!-- Node14&#45;&gt;Node4 -->
<g id="edge17_Node000014_Node000004" class="edge">
<title>Node14&#45;&gt;Node4</title>
<g id="a_edge17_Node000014_Node000004"><a xlink:title=" ">
<path fill="none" stroke="#63b8ff" d="M147,-316.85C118.63,-320.56 82.26,-325.31 60.76,-328.12"/>
<polygon fill="#63b8ff" stroke="#63b8ff" points="147.24,-320.35 156.7,-315.59 146.33,-313.41 147.24,-320.35"/>
</a>
</g>
</g>
<!-- Node15&#45;&gt;Node13 -->
<g id="edge19_Node000015_Node000013" class="edge">
<title>Node15&#45;&gt;Node13</title>
<g id="a_edge19_Node000015_Node000013"><a xlink:title=" ">
<path fill="none" stroke="#63b8ff" d="M312.34,-118.85C287.27,-115.91 252.02,-111.77 225.8,-108.7"/>
<polygon fill="#63b8ff" stroke="#63b8ff" points="311.9,-122.32 322.24,-120.01 312.72,-115.37 311.9,-122.32"/>
</a>
</g>
</g>
</g>
</svg>
