<?xml version="1.0" encoding="UTF-8" standalone="no"?>
<!DOCTYPE svg PUBLIC "-//W3C//DTD SVG 1.1//EN"
 "http://www.w3.org/Graphics/SVG/1.1/DTD/svg11.dtd">
<!-- Generated by graphviz version 7.1.0 (0)
 -->
<!-- Title: print_msg Pages: 1 -->
<svg width="275pt" height="177pt"
 viewBox="0.00 0.00 275.00 177.00" xmlns="http://www.w3.org/2000/svg" xmlns:xlink="http://www.w3.org/1999/xlink">

<svg id="main" version="1.1" xmlns="http://www.w3.org/2000/svg" xmlns:xlink="http://www.w3.org/1999/xlink" xml:space="preserve" onload="init(evt)">
<style type="text/css"><![CDATA[
.node, .edge {opacity: 0.7;}
.node.selected, .edge.selected {opacity: 1;}
.edge:hover path { stroke: red; }
.edge:hover polygon { stroke: red; fill: red; }
]]></style>
<script type="application/ecmascript" xlink:href="svg.min.js"/>
<svg id="graph" class="graph">
<g id="graph0" class="graph" transform="scale(1 1) rotate(0) translate(4 173)">
<title>print_msg</title>
<!-- Node1 -->
<g id="Node000001" class="node">
<title>Node1</title>
<g id="a_Node000001"><a xlink:title="Format and print data as a message.">
<polygon fill="#999999" stroke="#666666" points="267,-94 208,-94 208,-75 267,-75 267,-94"/>
<text text-anchor="middle" x="237.5" y="-82" font-family="Helvetica,sans-Serif" font-size="10.00">print_msg</text>
</a>
</g>
</g>
<!-- Node2 -->
<g id="Node000002" class="node">
<title>Node2</title>
<g id="a_Node000002"><a xlink:href="user__db_8c.html#ab57ffd0f0b23a847e766e762906af22e" target="_top" xlink:title="Free the context of the DB.">
<polygon fill="white" stroke="#666666" points="163,-169 83,-169 83,-150 163,-150 163,-169"/>
<text text-anchor="middle" x="123" y="-157" font-family="Helvetica,sans-Serif" font-size="10.00">disconnect_db</text>
</a>
</g>
</g>
<!-- Node1&#45;&gt;Node2 -->
<g id="edge1_Node000001_Node000002" class="edge">
<title>Node1&#45;&gt;Node2</title>
<g id="a_edge1_Node000001_Node000002"><a xlink:title=" ">
<path fill="none" stroke="#63b8ff" d="M219.82,-102.36C207.54,-114.68 189.93,-130.72 172,-141.5 166.89,-144.57 161.17,-147.27 155.5,-149.58"/>
<polygon fill="#63b8ff" stroke="#63b8ff" points="222.25,-104.88 226.69,-95.26 217.22,-100.01 222.25,-104.88"/>
</a>
</g>
</g>
<!-- Node3 -->
<g id="Node000003" class="node">
<title>Node3</title>
<g id="a_Node000003"><a xlink:href="tcfs__daemon_8c.html#a93d1097e4dd3c0735da3da2e89410090" target="_top" xlink:title="Handle the termination if SIGTERM is received.">
<polygon fill="white" stroke="#666666" points="172,-132 74,-132 74,-113 172,-113 172,-132"/>
<text text-anchor="middle" x="123" y="-120" font-family="Helvetica,sans-Serif" font-size="10.00">handle_termination</text>
</a>
</g>
</g>
<!-- Node1&#45;&gt;Node3 -->
<g id="edge2_Node000001_Node000003" class="edge">
<title>Node1&#45;&gt;Node3</title>
<g id="a_edge2_Node000001_Node000003"><a xlink:title=" ">
<path fill="none" stroke="#63b8ff" d="M196.92,-97.87C182.55,-102.72 166.58,-108.12 153.26,-112.62"/>
<polygon fill="#63b8ff" stroke="#63b8ff" points="197.74,-101.29 206.09,-94.77 195.5,-94.65 197.74,-101.29"/>
</a>
</g>
</g>
<!-- Node4 -->
<g id="Node000004" class="node">
<title>Node4</title>
<g id="a_Node000004"><a xlink:href="tcfs__daemon_8c.html#ae66f6b31b5ad750f1fe042a706a4e3d4" target="_top" xlink:title="main function of the daemon. This will daemonize the program, spawn a thread to handle messages and h...">
<polygon fill="white" stroke="#666666" points="38,-113 0,-113 0,-94 38,-94 38,-113"/>
<text text-anchor="middle" x="19" y="-101" font-family="Helvetica,sans-Serif" font-size="10.00">main</text>
</a>
</g>
</g>
<!-- Node1&#45;&gt;Node4 -->
<g id="edge4_Node000001_Node000004" class="edge">
<title>Node1&#45;&gt;Node4</title>
<g id="a_edge4_Node000001_Node000004"><a xlink:title=" ">
<path fill="none" stroke="#63b8ff" d="M196.44,-88.02C149.34,-92.15 73.17,-98.83 38.39,-101.89"/>
<polygon fill="#63b8ff" stroke="#63b8ff" points="196.59,-91.52 206.24,-87.16 195.97,-84.54 196.59,-91.52"/>
</a>
</g>
</g>
<!-- Node5 -->
<g id="Node000005" class="node">
<title>Node5</title>
<g id="a_Node000005"><a xlink:href="user__db_8c.html#a2ae8a82033440194ad80949cd4493971" target="_top" xlink:title="Register or update a user in the db, this relies on the redis.c file.">
<polygon fill="white" stroke="#666666" points="159.5,-56 86.5,-56 86.5,-37 159.5,-37 159.5,-56"/>
<text text-anchor="middle" x="123" y="-44" font-family="Helvetica,sans-Serif" font-size="10.00">register_user</text>
</a>
</g>
</g>
<!-- Node1&#45;&gt;Node5 -->
<g id="edge5_Node000001_Node000005" class="edge">
<title>Node1&#45;&gt;Node5</title>
<g id="a_edge5_Node000001_Node000005"><a xlink:title=" ">
<path fill="none" stroke="#63b8ff" d="M196.92,-71.13C182.55,-66.28 166.58,-60.88 153.26,-56.38"/>
<polygon fill="#63b8ff" stroke="#63b8ff" points="195.5,-74.35 206.09,-74.23 197.74,-67.71 195.5,-74.35"/>
</a>
</g>
</g>
<!-- Node6 -->
<g id="Node000006" class="node">
<title>Node6</title>
<g id="a_Node000006"><a xlink:href="user__db_8c.html#a6e2fcf4aa637e61f69b1b601981663cf" target="_top" xlink:title="Remove a user from the DB.">
<polygon fill="white" stroke="#666666" points="164.5,-19 81.5,-19 81.5,0 164.5,0 164.5,-19"/>
<text text-anchor="middle" x="123" y="-7" font-family="Helvetica,sans-Serif" font-size="10.00">unregister_user</text>
</a>
</g>
</g>
<!-- Node1&#45;&gt;Node6 -->
<g id="edge6_Node000001_Node000006" class="edge">
<title>Node1&#45;&gt;Node6</title>
<g id="a_edge6_Node000001_Node000006"><a xlink:title=" ">
<path fill="none" stroke="#63b8ff" d="M219.28,-66.65C206.97,-54.66 189.54,-39.16 172,-28.5 166.33,-25.06 159.93,-22.02 153.69,-19.43"/>
<polygon fill="#63b8ff" stroke="#63b8ff" points="216.65,-68.98 226.2,-73.58 221.6,-64.03 216.65,-68.98"/>
</a>
</g>
</g>
<!-- Node3&#45;&gt;Node4 -->
<g id="edge3_Node000003_Node000004" class="edge">
<title>Node3&#45;&gt;Node4</title>
<g id="a_edge3_Node000003_Node000004"><a xlink:title=" ">
<path fill="none" stroke="#63b8ff" d="M62.52,-111.42C53.79,-109.79 45.39,-108.23 38.4,-106.93"/>
<polygon fill="#63b8ff" stroke="#63b8ff" points="61.73,-114.83 72.2,-113.22 63.01,-107.95 61.73,-114.83"/>
</a>
</g>
</g>
</g>
</svg>
</svg>

<style type='text/css'>
<![CDATA[
[data-mouse-over-selected='false'] { opacity: 0.7; }
[data-mouse-over-selected='true']  { opacity: 1.0; }
]]>
</style>
<script type="application/ecmascript"><![CDATA[
document.addEventListener('DOMContentLoaded', (event) => {
  highlightEdges();
  highlightAdjacentNodes();
});
]]></script>
</svg>
