<?xml version="1.0" encoding="UTF-8" standalone="no"?>
<!DOCTYPE svg PUBLIC "-//W3C//DTD SVG 1.1//EN"
 "http://www.w3.org/Graphics/SVG/1.1/DTD/svg11.dtd">
<!-- Generated by graphviz version 7.1.0 (0)
 -->
<!-- Title: print_msg Pages: 1 -->
<!--zoomable 652 -->

<svg id="main" version="1.1" xmlns="http://www.w3.org/2000/svg" xmlns:xlink="http://www.w3.org/1999/xlink" xml:space="preserve" onload="init(evt)">
<style type="text/css"><![CDATA[
.node, .edge {opacity: 0.7;}
.node.selected, .edge.selected {opacity: 1;}
.edge:hover path { stroke: red; }
.edge:hover polygon { stroke: red; fill: red; }
]]></style>

<defs>
  <circle id="rim" cx="0" cy="0" r="7"/>
  <circle id="rim2" cx="0" cy="0" r="3.5"/>
  <g id="zoomPlus">
    <use xlink:href="#rim" fill="#404040"><set attributeName="fill" to="#808080" begin="zoomplus.mouseover" end="zoomplus.mouseout"/></use>
    <path d="M-4,0h8M0,-4v8" fill="none" stroke="white" stroke-width="1.5" pointer-events="none"/>
  </g>
  <g id="zoomMin">
    <use xlink:href="#rim" fill="#404040"><set attributeName="fill" to="#808080" begin="zoomminus.mouseover" end="zoomminus.mouseout"/></use>
    <path d="M-4,0h8" fill="none" stroke="white" stroke-width="1.5" pointer-events="none"/>
  </g>
  <g id="arrowUp" transform="translate(30 24)">
    <use xlink:href="#rim"/>
    <path pointer-events="none" fill="none" stroke="white" stroke-width="1.5" d="M0,-3.0v7 M-2.5,-0.5L0,-3.0L2.5,-0.5"/>
  </g>
  <g id="arrowRight" transform="rotate(90) translate(36 -43)">
    <use xlink:href="#rim"/>
    <path pointer-events="none" fill="none" stroke="white" stroke-width="1.5" d="M0,-3.0v7 M-2.5,-0.5L0,-3.0L2.5,-0.5"/>
  </g>
  <g id="arrowDown" transform="rotate(180) translate(-30 -48)">
    <use xlink:href="#rim"/>
    <path pointer-events="none" fill="none" stroke="white" stroke-width="1.5" d="M0,-3.0v7 M-2.5,-0.5L0,-3.0L2.5,-0.5"/>
  </g>
  <g id="arrowLeft" transform="rotate(270) translate(-36 17)">
    <use xlink:href="#rim"/>
    <path pointer-events="none" fill="none" stroke="white" stroke-width="1.5" d="M0,-3.0v7 M-2.5,-0.5L0,-3.0L2.5,-0.5"/>
  </g>
  <g id="resetDef">
    <use xlink:href="#rim2" fill="#404040"><set attributeName="fill" to="#808080" begin="reset.mouseover" end="reset.mouseout"/></use>
  </g>
</defs>
<script type="application/ecmascript">
var viewWidth = 662;
var viewHeight = 652;
var sectionId = 'dynsection-2';
</script>
<script type="application/ecmascript" xlink:href="svg.min.js"/>
<svg id="graph" class="graph">
<g id="viewport">
<title>print_msg</title>
<!-- Node1 -->
<g id="Node000001" class="node">
<title>Node1</title>
<g id="a_Node000001"><a xlink:title="Format and print data as a message.">
<polygon fill="#999999" stroke="#666666" points="654,-323 595,-323 595,-304 654,-304 654,-323"/>
<text text-anchor="middle" x="624.5" y="-311" font-family="Helvetica,sans-Serif" font-size="10.00">print_msg</text>
</a>
</g>
</g>
<!-- Node2 -->
<g id="Node000002" class="node">
<title>Node2</title>
<g id="a_Node000002"><a xlink:href="queue_8c.html#a1874b6e320d1e54d571c89766d046602" target="_top" xlink:title="Dequeue a message from the queue and get is as a void* pointing to a structure that will be either &#160;&#160;...">
<polygon fill="white" stroke="#666666" points="540,-588 487,-588 487,-569 540,-569 540,-588"/>
<text text-anchor="middle" x="513.5" y="-576" font-family="Helvetica,sans-Serif" font-size="10.00">dequeue</text>
</a>
</g>
</g>
<!-- Node1&#45;&gt;Node2 -->
<g id="edge1_Node000001_Node000002" class="edge">
<title>Node1&#45;&gt;Node2</title>
<g id="a_edge1_Node000001_Node000002"><a xlink:title=" ">
<path fill="none" stroke="#63b8ff" d="M623.25,-334.7C621.67,-379.92 612.16,-487.24 559,-554.5 554.1,-560.7 547.15,-565.5 540.19,-569.13"/>
<polygon fill="#63b8ff" stroke="#63b8ff" points="626.75,-335.04 623.49,-324.95 619.75,-334.87 626.75,-335.04"/>
</a>
</g>
</g>
<!-- Node3 -->
<g id="Node000003" class="node">
<title>Node3</title>
<g id="a_Node000003"><a xlink:href="tcfs__daemon__tools_8c.html#a24bb8f1eddd763598165ab8fa40fcdbd" target="_top" xlink:title="Dequeue the latest message from the queue and handle it.">
<polygon fill="white" stroke="#666666" points="432,-550 292,-550 292,-531 432,-531 432,-550"/>
<text text-anchor="middle" x="362" y="-538" font-family="Helvetica,sans-Serif" font-size="10.00">handle_incoming_messages</text>
</a>
</g>
</g>
<!-- Node1&#45;&gt;Node3 -->
<g id="edge13_Node000001_Node000003" class="edge">
<title>Node1&#45;&gt;Node3</title>
<g id="a_edge13_Node000001_Node000003"><a xlink:title=" ">
<path fill="none" stroke="#63b8ff" d="M623.72,-334.53C622.9,-376.46 614.59,-470.38 559,-516.5 524.3,-545.28 473.54,-550.83 432.36,-549.41"/>
<polygon fill="#63b8ff" stroke="#63b8ff" points="627.22,-334.61 623.76,-324.6 620.22,-334.58 627.22,-334.61"/>
</a>
</g>
</g>
<!-- Node4 -->
<g id="Node000004" class="node">
<title>Node4</title>
<g id="a_Node000004"><a xlink:href="tcfs__daemon_8c.html#ae66f6b31b5ad750f1fe042a706a4e3d4" target="_top" xlink:title="main function of the daemon. This will daemonize the program, spawn a thread to handle messages and h...">
<polygon fill="white" stroke="#666666" points="60.5,-511 22.5,-511 22.5,-492 60.5,-492 60.5,-511"/>
<text text-anchor="middle" x="41.5" y="-499" font-family="Helvetica,sans-Serif" font-size="10.00">main</text>
</a>
</g>
</g>
<!-- Node1&#45;&gt;Node4 -->
<g id="edge24_Node000001_Node000004" class="edge">
<title>Node1&#45;&gt;Node4</title>
<g id="a_edge24_Node000001_Node000004"><a xlink:title=" ">
<path fill="none" stroke="#63b8ff" d="M621.99,-334.83C617.25,-395.11 600.41,-564.44 559,-597.5 398.98,-725.25 122.41,-555.11 56.77,-511.31"/>
<polygon fill="#63b8ff" stroke="#63b8ff" points="625.48,-335.17 622.73,-324.93 618.5,-334.64 625.48,-335.17"/>
</a>
</g>
</g>
<!-- Node5 -->
<g id="Node000005" class="node">
<title>Node5</title>
<g id="a_Node000005"><a xlink:href="user__db_8c.html#ab57ffd0f0b23a847e766e762906af22e" target="_top" xlink:title="Free the context of the DB.">
<polygon fill="white" stroke="#666666" points="553.5,-19 473.5,-19 473.5,0 553.5,0 553.5,-19"/>
<text text-anchor="middle" x="513.5" y="-7" font-family="Helvetica,sans-Serif" font-size="10.00">disconnect_db</text>
</a>
</g>
</g>
<!-- Node1&#45;&gt;Node5 -->
<g id="edge4_Node000001_Node000005" class="edge">
<title>Node1&#45;&gt;Node5</title>
<g id="a_edge4_Node000001_Node000005"><a xlink:title=" ">
<path fill="none" stroke="#63b8ff" d="M624.25,-292.36C624.95,-242.13 620.2,-113.79 559,-33.5 554.42,-27.5 547.9,-22.82 541.25,-19.25"/>
<polygon fill="#63b8ff" stroke="#63b8ff" points="620.76,-292.03 624.02,-302.11 627.76,-292.2 620.76,-292.03"/>
</a>
</g>
</g>
<!-- Node6 -->
<g id="Node000006" class="node">
<title>Node6</title>
<g id="a_Node000006"><a xlink:href="queue_8c.html#ac51f5d595a9d7376eb0448116c99e1f4" target="_top" xlink:title="Enqueues a message void* message on the queue.">
<polygon fill="white" stroke="#666666" points="388.5,-436 335.5,-436 335.5,-417 388.5,-417 388.5,-436"/>
<text text-anchor="middle" x="362" y="-424" font-family="Helvetica,sans-Serif" font-size="10.00">enqueue</text>
</a>
</g>
</g>
<!-- Node1&#45;&gt;Node6 -->
<g id="edge5_Node000001_Node000006" class="edge">
<title>Node1&#45;&gt;Node6</title>
<g id="a_edge5_Node000001_Node000006"><a xlink:title=" ">
<path fill="none" stroke="#63b8ff" d="M615.71,-333.94C606.05,-356.18 587.32,-390.79 559,-407.5 505.26,-439.2 428.53,-435.36 388.9,-430.54"/>
<polygon fill="#63b8ff" stroke="#63b8ff" points="618.93,-335.3 619.47,-324.72 612.45,-332.66 618.93,-335.3"/>
</a>
</g>
</g>
<!-- Node7 -->
<g id="Node000007" class="node">
<title>Node7</title>
<g id="a_Node000007"><a xlink:href="tcfs__daemon__tools_8c.html#ab143feba805d6beda83eb69560c3c923" target="_top" xlink:title="Test if the daemon is working by sending some messages.">
<polygon fill="white" stroke="#666666" points="256,-511 119,-511 119,-492 256,-492 256,-511"/>
<text text-anchor="middle" x="187.5" y="-499" font-family="Helvetica,sans-Serif" font-size="10.00">handle_outgoing_messages</text>
</a>
</g>
</g>
<!-- Node1&#45;&gt;Node7 -->
<g id="edge14_Node000001_Node000007" class="edge">
<title>Node1&#45;&gt;Node7</title>
<g id="a_edge14_Node000001_Node000007"><a xlink:title=" ">
<path fill="none" stroke="#63b8ff" d="M620.95,-334.27C615.72,-367.53 600.5,-432.33 559,-465.5 513.76,-501.66 350.23,-504.83 256.24,-503.48"/>
<polygon fill="#63b8ff" stroke="#63b8ff" points="624.37,-335.09 622.3,-324.71 617.44,-334.12 624.37,-335.09"/>
</a>
</g>
</g>
<!-- Node8 -->
<g id="Node000008" class="node">
<title>Node8</title>
<g id="a_Node000008"><a xlink:href="redis_8c.html#a73711c0a9d0060337409d15dc44f5ad1" target="_top" xlink:title="Fetch the user on the DB with key name.">
<polygon fill="white" stroke="#666666" points="411.5,-114 312.5,-114 312.5,-95 411.5,-95 411.5,-114"/>
<text text-anchor="middle" x="362" y="-102" font-family="Helvetica,sans-Serif" font-size="10.00">get_user_by_name</text>
</a>
</g>
</g>
<!-- Node1&#45;&gt;Node8 -->
<g id="edge8_Node000001_Node000008" class="edge">
<title>Node1&#45;&gt;Node8</title>
<g id="a_edge8_Node000001_Node000008"><a xlink:title=" ">
<path fill="none" stroke="#63b8ff" d="M624.39,-292.44C624.95,-248.82 619.22,-148.94 559,-104.5 510.13,-68.44 434.12,-82.66 392.58,-94.58"/>
<polygon fill="#63b8ff" stroke="#63b8ff" points="620.9,-292.23 624.12,-302.32 627.89,-292.42 620.9,-292.23"/>
</a>
</g>
</g>
<!-- Node10 -->
<g id="Node000010" class="node">
<title>Node10</title>
<g id="a_Node000010"><a xlink:href="redis_8c.html#af0bf1bfc99afc940619371e3c76ab4f9" target="_top" xlink:title="Fetch the user on the DB with key pid.">
<polygon fill="white" stroke="#666666" points="406,-171 318,-171 318,-152 406,-152 406,-171"/>
<text text-anchor="middle" x="362" y="-159" font-family="Helvetica,sans-Serif" font-size="10.00">get_user_by_pid</text>
</a>
</g>
</g>
<!-- Node1&#45;&gt;Node10 -->
<g id="edge10_Node000001_Node000010" class="edge">
<title>Node1&#45;&gt;Node10</title>
<g id="a_edge10_Node000001_Node000010"><a xlink:title=" ">
<path fill="none" stroke="#63b8ff" d="M619.44,-292.86C612.52,-263.71 595.51,-211.18 559,-185.5 514.27,-154.04 449.2,-152.47 406.49,-155.75"/>
<polygon fill="#63b8ff" stroke="#63b8ff" points="615.94,-293.27 621.49,-302.3 622.78,-291.78 615.94,-293.27"/>
</a>
</g>
</g>
<!-- Node11 -->
<g id="Node000011" class="node">
<title>Node11</title>
<g id="a_Node000011"><a xlink:href="redis_8c.html#a6b18d7ad2f1e8275106a5b39c0c7d216" target="_top" xlink:title="Remove a user from the DB using the PID as key.">
<polygon fill="white" stroke="#666666" points="229,-190 146,-190 146,-171 229,-171 229,-190"/>
<text text-anchor="middle" x="187.5" y="-178" font-family="Helvetica,sans-Serif" font-size="10.00">remove_by_pid</text>
</a>
</g>
</g>
<!-- Node1&#45;&gt;Node11 -->
<g id="edge29_Node000001_Node000011" class="edge">
<title>Node1&#45;&gt;Node11</title>
<g id="a_edge29_Node000001_Node000011"><a xlink:title=" ">
<path fill="none" stroke="#63b8ff" d="M612.79,-293.96C601.78,-275.91 582.91,-249.93 559,-236.5 503.06,-205.08 313.37,-188.83 229.24,-183.03"/>
<polygon fill="#63b8ff" stroke="#63b8ff" points="609.66,-295.55 617.7,-302.45 615.72,-292.04 609.66,-295.55"/>
</a>
</g>
</g>
<!-- Node12 -->
<g id="Node000012" class="node">
<title>Node12</title>
<g id="a_Node000012"><a xlink:href="user__db_8c.html#a6e2fcf4aa637e61f69b1b601981663cf" target="_top" xlink:title="Remove a user from the DB.">
<polygon fill="white" stroke="#666666" points="83,-190 0,-190 0,-171 83,-171 83,-190"/>
<text text-anchor="middle" x="41.5" y="-178" font-family="Helvetica,sans-Serif" font-size="10.00">unregister_user</text>
</a>
</g>
</g>
<!-- Node1&#45;&gt;Node12 -->
<g id="edge33_Node000001_Node000012" class="edge">
<title>Node1&#45;&gt;Node12</title>
<g id="a_edge33_Node000001_Node000012"><a xlink:title=" ">
<path fill="none" stroke="#63b8ff" d="M620.96,-292.44C614.12,-239.79 593.5,-104.81 559,-78.5 529.62,-56.1 283.68,-4.63 119,-85.5 81.55,-103.89 56.44,-150.23 46.85,-170.62"/>
<polygon fill="#63b8ff" stroke="#63b8ff" points="617.46,-292.68 622.18,-302.17 624.4,-291.81 617.46,-292.68"/>
</a>
</g>
</g>
<!-- Node13 -->
<g id="Node000013" class="node">
<title>Node13</title>
<g id="a_Node000013"><a xlink:href="tcfs__daemon_8c.html#a93d1097e4dd3c0735da3da2e89410090" target="_top" xlink:title="Handle the termination if SIGTERM is received.">
<polygon fill="white" stroke="#666666" points="236.5,-474 138.5,-474 138.5,-455 236.5,-455 236.5,-474"/>
<text text-anchor="middle" x="187.5" y="-462" font-family="Helvetica,sans-Serif" font-size="10.00">handle_termination</text>
</a>
</g>
</g>
<!-- Node1&#45;&gt;Node13 -->
<g id="edge15_Node000001_Node000013" class="edge">
<title>Node1&#45;&gt;Node13</title>
<g id="a_edge15_Node000001_Node000013"><a xlink:title=" ">
<path fill="none" stroke="#63b8ff" d="M618.81,-334.2C611.33,-361.94 593.85,-410.37 559,-433.5 460.18,-499.08 312.34,-486.49 236.76,-474.16"/>
<polygon fill="#63b8ff" stroke="#63b8ff" points="622.11,-335.4 621.13,-324.86 615.32,-333.72 622.11,-335.4"/>
</a>
</g>
</g>
<!-- Node14 -->
<g id="Node000014" class="node">
<title>Node14</title>
<g id="a_Node000014"><a xlink:href="queue_8c.html#a6997b2cacf3d2e49bc848d0274e24b13" target="_top" xlink:title="Initialize the message queue.">
<polygon fill="white" stroke="#666666" points="544,-398 483,-398 483,-379 544,-379 544,-398"/>
<text text-anchor="middle" x="513.5" y="-386" font-family="Helvetica,sans-Serif" font-size="10.00">init_queue</text>
</a>
</g>
</g>
<!-- Node1&#45;&gt;Node14 -->
<g id="edge17_Node000001_Node000014" class="edge">
<title>Node1&#45;&gt;Node14</title>
<g id="a_edge17_Node000001_Node000014"><a xlink:title=" ">
<path fill="none" stroke="#63b8ff" d="M606.19,-331.2C593.84,-343.13 576.4,-358.61 559,-369.5 553.59,-372.89 547.47,-375.94 541.54,-378.55"/>
<polygon fill="#63b8ff" stroke="#63b8ff" points="608.49,-333.85 613.13,-324.32 603.56,-328.87 608.49,-333.85"/>
</a>
</g>
</g>
<!-- Node15 -->
<g id="Node000015" class="node">
<title>Node15</title>
<g id="a_Node000015"><a xlink:href="redis_8c.html#ac9878ee09b53700eb08c1f175873c30b" target="_top" xlink:title="Insert a new user in the DB.">
<polygon fill="white" stroke="#666666" points="382.5,-323 341.5,-323 341.5,-304 382.5,-304 382.5,-323"/>
<text text-anchor="middle" x="362" y="-311" font-family="Helvetica,sans-Serif" font-size="10.00">insert</text>
</a>
</g>
</g>
<!-- Node1&#45;&gt;Node15 -->
<g id="edge19_Node000001_Node000015" class="edge">
<title>Node1&#45;&gt;Node15</title>
<g id="a_edge19_Node000001_Node000015"><a xlink:title=" ">
<path fill="none" stroke="#63b8ff" d="M583.24,-313.5C526.55,-313.5 425.36,-313.5 382.77,-313.5"/>
<polygon fill="#63b8ff" stroke="#63b8ff" points="583.11,-317 593.11,-313.5 583.11,-310 583.11,-317"/>
</a>
</g>
</g>
<!-- Node16 -->
<g id="Node000016" class="node">
<title>Node16</title>
<g id="a_Node000016"><a xlink:href="user__db_8c.html#a2ae8a82033440194ad80949cd4493971" target="_top" xlink:title="Register or update a user in the db, this relies on the redis.c file.">
<polygon fill="white" stroke="#666666" points="224,-285 151,-285 151,-266 224,-266 224,-285"/>
<text text-anchor="middle" x="187.5" y="-273" font-family="Helvetica,sans-Serif" font-size="10.00">register_user</text>
</a>
</g>
</g>
<!-- Node1&#45;&gt;Node16 -->
<g id="edge28_Node000001_Node000016" class="edge">
<title>Node1&#45;&gt;Node16</title>
<g id="a_edge28_Node000001_Node000016"><a xlink:title=" ">
<path fill="none" stroke="#63b8ff" d="M583.35,-309.27C544.62,-305.25 484.33,-299.14 432,-294.5 358.3,-287.97 271.93,-281.51 224.41,-278.07"/>
<polygon fill="#63b8ff" stroke="#63b8ff" points="582.83,-312.73 593.14,-310.29 583.56,-305.77 582.83,-312.73"/>
</a>
</g>
</g>
<!-- Node17 -->
<g id="Node000017" class="node">
<title>Node17</title>
<g id="a_Node000017"><a xlink:href="redis_8c.html#a8e6e1687d6351741ac3e353d23425f71" target="_top" xlink:title="Internal function to simplify the casting of a json to a qm_user struct.">
<polygon fill="white" stroke="#666666" points="559,-133 468,-133 468,-114 559,-114 559,-133"/>
<text text-anchor="middle" x="513.5" y="-121" font-family="Helvetica,sans-Serif" font-size="10.00">json_to_qm_user</text>
</a>
</g>
</g>
<!-- Node1&#45;&gt;Node17 -->
<g id="edge21_Node000001_Node000017" class="edge">
<title>Node1&#45;&gt;Node17</title>
<g id="a_edge21_Node000001_Node000017"><a xlink:title=" ">
<path fill="none" stroke="#63b8ff" d="M620.14,-292.35C613.74,-258.21 596.93,-190.45 559,-147.5 553.89,-141.71 547.03,-137.06 540.23,-133.46"/>
<polygon fill="#63b8ff" stroke="#63b8ff" points="616.69,-292.92 621.84,-302.18 623.58,-291.72 616.69,-292.92"/>
</a>
</g>
</g>
<!-- Node18 -->
<g id="Node000018" class="node">
<title>Node18</title>
<g id="a_Node000018"><a xlink:href="redis_8c.html#a7b5eb746d92734b57a71ce552363283d" target="_top" xlink:title="For debugging only. Prints all the keys in the database.">
<polygon fill="white" stroke="#666666" points="400.5,-247 323.5,-247 323.5,-228 400.5,-228 400.5,-247"/>
<text text-anchor="middle" x="362" y="-235" font-family="Helvetica,sans-Serif" font-size="10.00">print_all_keys</text>
</a>
</g>
</g>
<!-- Node1&#45;&gt;Node18 -->
<g id="edge25_Node000001_Node000018" class="edge">
<title>Node1&#45;&gt;Node18</title>
<g id="a_edge25_Node000001_Node000018"><a xlink:title=" ">
<path fill="none" stroke="#63b8ff" d="M607.2,-295.98C595.1,-284.16 577.55,-269.35 559,-261.5 507.22,-239.6 441.34,-235.91 400.68,-236.08"/>
<polygon fill="#63b8ff" stroke="#63b8ff" points="604.42,-298.15 613.92,-302.83 609.42,-293.24 604.42,-298.15"/>
</a>
</g>
</g>
<!-- Node19 -->
<g id="Node000019" class="node">
<title>Node19</title>
<g id="a_Node000019"><a xlink:href="json__tools_8cpp.html#abe22bc6ace23fc8f7e186a824784765f" target="_top" xlink:title="Cast a qm_user, qm_shared or qm_broad struct to a json string representing the struct.">
<polygon fill="white" stroke="#666666" points="552.5,-361 474.5,-361 474.5,-342 552.5,-342 552.5,-361"/>
<text text-anchor="middle" x="513.5" y="-349" font-family="Helvetica,sans-Serif" font-size="10.00">struct_to_json</text>
</a>
</g>
</g>
<!-- Node1&#45;&gt;Node19 -->
<g id="edge30_Node000001_Node000019" class="edge">
<title>Node1&#45;&gt;Node19</title>
<g id="a_edge30_Node000001_Node000019"><a xlink:title=" ">
<path fill="none" stroke="#63b8ff" d="M584.28,-327.17C570.62,-331.94 555.56,-337.18 542.95,-341.58"/>
<polygon fill="#63b8ff" stroke="#63b8ff" points="585.14,-330.58 593.43,-323.98 582.84,-323.97 585.14,-330.58"/>
</a>
</g>
</g>
<!-- Node2&#45;&gt;Node3 -->
<g id="edge2_Node000002_Node000003" class="edge">
<title>Node2&#45;&gt;Node3</title>
<g id="a_edge2_Node000002_Node000003"><a xlink:title=" ">
<path fill="none" stroke="#63b8ff" d="M475.74,-569.16C453.39,-563.48 424.87,-556.23 402.11,-550.44"/>
<polygon fill="#63b8ff" stroke="#63b8ff" points="474.78,-572.52 485.33,-571.59 476.5,-565.74 474.78,-572.52"/>
</a>
</g>
</g>
<!-- Node3&#45;&gt;Node4 -->
<g id="edge3_Node000003_Node000004" class="edge">
<title>Node3&#45;&gt;Node4</title>
<g id="a_edge3_Node000003_Node000004"><a xlink:title=" ">
<path fill="none" stroke="#63b8ff" d="M280.14,-537.08C232.92,-534.27 172.32,-529.27 119,-520.5 98.88,-517.19 76.27,-511.3 60.88,-506.95"/>
<polygon fill="#63b8ff" stroke="#63b8ff" points="279.84,-540.57 290.02,-537.64 280.24,-533.58 279.84,-540.57"/>
</a>
</g>
</g>
<!-- Node6&#45;&gt;Node7 -->
<g id="edge6_Node000006_Node000007" class="edge">
<title>Node6&#45;&gt;Node7</title>
<g id="a_edge6_Node000006_Node000007"><a xlink:title=" ">
<path fill="none" stroke="#63b8ff" d="M335.93,-442.31C315.16,-454.87 284.52,-472.14 256,-483.5 248.34,-486.55 239.98,-489.25 231.85,-491.57"/>
<polygon fill="#63b8ff" stroke="#63b8ff" points="337.58,-445.41 344.27,-437.2 333.91,-439.44 337.58,-445.41"/>
</a>
</g>
</g>
<!-- Node7&#45;&gt;Node4 -->
<g id="edge7_Node000007_Node000004" class="edge">
<title>Node7&#45;&gt;Node4</title>
<g id="a_edge7_Node000007_Node000004"><a xlink:title=" ">
<path fill="none" stroke="#63b8ff" d="M107.23,-501.5C89.81,-501.5 72.96,-501.5 60.82,-501.5"/>
<polygon fill="#63b8ff" stroke="#63b8ff" points="107.2,-505 117.2,-501.5 107.2,-498 107.2,-505"/>
</a>
</g>
</g>
<!-- Node9 -->
<g id="Node000009" class="node">
<title>Node9</title>
<g id="a_Node000009"><a xlink:href="redis_8c.html#a2678c0575f2b6c944fd261255aeaebff" target="_top" xlink:title="Remove a user from the DB using the name as key.">
<polygon fill="white" stroke="#666666" points="232,-114 143,-114 143,-95 232,-95 232,-114"/>
<text text-anchor="middle" x="187.5" y="-102" font-family="Helvetica,sans-Serif" font-size="10.00">remove_by_user</text>
</a>
</g>
</g>
<!-- Node8&#45;&gt;Node9 -->
<g id="edge9_Node000008_Node000009" class="edge">
<title>Node8&#45;&gt;Node9</title>
<g id="a_edge9_Node000008_Node000009"><a xlink:title=" ">
<path fill="none" stroke="#63b8ff" d="M300.54,-104.5C278.06,-104.5 253,-104.5 232.29,-104.5"/>
<polygon fill="#63b8ff" stroke="#63b8ff" points="300.52,-108 310.52,-104.5 300.52,-101 300.52,-108"/>
</a>
</g>
</g>
<!-- Node10&#45;&gt;Node11 -->
<g id="edge11_Node000010_Node000011" class="edge">
<title>Node10&#45;&gt;Node11</title>
<g id="a_edge11_Node000010_Node000011"><a xlink:title=" ">
<path fill="none" stroke="#63b8ff" d="M306.73,-167.48C281.66,-170.24 252.4,-173.46 229.26,-176.01"/>
<polygon fill="#63b8ff" stroke="#63b8ff" points="306.85,-170.99 316.41,-166.41 306.09,-164.03 306.85,-170.99"/>
</a>
</g>
</g>
<!-- Node11&#45;&gt;Node12 -->
<g id="edge12_Node000011_Node000012" class="edge">
<title>Node11&#45;&gt;Node12</title>
<g id="a_edge12_Node000011_Node000012"><a xlink:title=" ">
<path fill="none" stroke="#63b8ff" d="M134.33,-180.5C117.59,-180.5 99.3,-180.5 83.48,-180.5"/>
<polygon fill="#63b8ff" stroke="#63b8ff" points="134.11,-184 144.11,-180.5 134.11,-177 134.11,-184"/>
</a>
</g>
</g>
<!-- Node13&#45;&gt;Node4 -->
<g id="edge16_Node000013_Node000004" class="edge">
<title>Node13&#45;&gt;Node4</title>
<g id="a_edge16_Node000013_Node000004"><a xlink:title=" ">
<path fill="none" stroke="#63b8ff" d="M136.99,-477.22C110.76,-483.96 80.1,-491.84 60.99,-496.75"/>
<polygon fill="#63b8ff" stroke="#63b8ff" points="137.63,-480.67 146.44,-474.79 135.89,-473.89 137.63,-480.67"/>
</a>
</g>
</g>
<!-- Node14&#45;&gt;Node4 -->
<g id="edge18_Node000014_Node000004" class="edge">
<title>Node14&#45;&gt;Node4</title>
<g id="a_edge18_Node000014_Node000004"><a xlink:title=" ">
<path fill="none" stroke="#63b8ff" d="M471.51,-387.42C397.67,-386.97 238.86,-393 119,-446.5 93.01,-458.1 67.01,-479.34 53.02,-491.76"/>
<polygon fill="#63b8ff" stroke="#63b8ff" points="471.06,-390.91 481.1,-387.52 471.13,-383.91 471.06,-390.91"/>
</a>
</g>
</g>
<!-- Node15&#45;&gt;Node16 -->
<g id="edge20_Node000015_Node000016" class="edge">
<title>Node15&#45;&gt;Node16</title>
<g id="a_edge20_Node000015_Node000016"><a xlink:title=" ">
<path fill="none" stroke="#63b8ff" d="M330.25,-306.73C300.52,-300.18 255.51,-290.26 224.21,-283.37"/>
<polygon fill="#63b8ff" stroke="#63b8ff" points="329.22,-310.08 339.73,-308.82 330.72,-303.25 329.22,-310.08"/>
</a>
</g>
</g>
<!-- Node17&#45;&gt;Node8 -->
<g id="edge22_Node000017_Node000008" class="edge">
<title>Node17&#45;&gt;Node8</title>
<g id="a_edge22_Node000017_Node000008"><a xlink:title=" ">
<path fill="none" stroke="#63b8ff" d="M456.24,-116.35C441.69,-114.5 426.14,-112.52 412,-110.73"/>
<polygon fill="#63b8ff" stroke="#63b8ff" points="455.78,-119.82 466.14,-117.61 456.66,-112.88 455.78,-119.82"/>
</a>
</g>
</g>
<!-- Node17&#45;&gt;Node10 -->
<g id="edge23_Node000017_Node000010" class="edge">
<title>Node17&#45;&gt;Node10</title>
<g id="a_edge23_Node000017_Node000010"><a xlink:title=" ">
<path fill="none" stroke="#63b8ff" d="M462.07,-136.32C442.56,-141.28 420.57,-146.87 402.28,-151.52"/>
<polygon fill="#63b8ff" stroke="#63b8ff" points="462.92,-139.71 471.75,-133.86 461.2,-132.93 462.92,-139.71"/>
</a>
</g>
</g>
<!-- Node18&#45;&gt;Node12 -->
<g id="edge27_Node000018_Node000012" class="edge">
<title>Node18&#45;&gt;Node12</title>
<g id="a_edge27_Node000018_Node000012"><a xlink:title=" ">
<path fill="none" stroke="#63b8ff" d="M311.9,-230.64C262.88,-223.54 185.47,-211.66 119,-198.5 107.09,-196.14 94.21,-193.25 82.48,-190.48"/>
<polygon fill="#63b8ff" stroke="#63b8ff" points="311.23,-234.08 321.63,-232.03 312.23,-227.15 311.23,-234.08"/>
</a>
</g>
</g>
<!-- Node18&#45;&gt;Node16 -->
<g id="edge26_Node000018_Node000016" class="edge">
<title>Node18&#45;&gt;Node16</title>
<g id="a_edge26_Node000018_Node000016"><a xlink:title=" ">
<path fill="none" stroke="#63b8ff" d="M312.03,-248.29C284.17,-254.43 249.88,-261.98 224.5,-267.57"/>
<polygon fill="#63b8ff" stroke="#63b8ff" points="312.65,-251.73 321.67,-246.16 311.15,-244.9 312.65,-251.73"/>
</a>
</g>
</g>
<!-- Node19&#45;&gt;Node6 -->
<g id="edge31_Node000019_Node000006" class="edge">
<title>Node19&#45;&gt;Node6</title>
<g id="a_edge31_Node000019_Node000006"><a xlink:title=" ">
<path fill="none" stroke="#63b8ff" d="M475.96,-365.89C473.25,-367.08 470.57,-368.29 468,-369.5 436.11,-384.55 400.27,-404.75 379.79,-416.62"/>
<polygon fill="#63b8ff" stroke="#63b8ff" points="477.16,-369.18 485.01,-362.07 474.43,-362.74 477.16,-369.18"/>
</a>
</g>
</g>
<!-- Node19&#45;&gt;Node15 -->
<g id="edge32_Node000019_Node000015" class="edge">
<title>Node19&#45;&gt;Node15</title>
<g id="a_edge32_Node000019_Node000015"><a xlink:title=" ">
<path fill="none" stroke="#63b8ff" d="M462.99,-338.92C435.54,-331.94 402.95,-323.65 382.61,-318.49"/>
<polygon fill="#63b8ff" stroke="#63b8ff" points="461.98,-342.27 472.53,-341.34 463.7,-335.49 461.98,-342.27"/>
</a>
</g>
</g>
</g>
</svg>

<g id="navigator" transform="translate(0 0)" fill="#404254">
  <rect fill="#f2f5e9" fill-opacity="0.5" stroke="#606060" stroke-width=".5" x="0" y="0" width="60" height="60"/>
  <use id="zoomplus" xlink:href="#zoomPlus" x="17" y="9" onmousedown="handleZoom(evt,'in')"/>
  <use id="zoomminus" xlink:href="#zoomMin" x="42" y="9" onmousedown="handleZoom(evt,'out')"/>
  <use id="reset" xlink:href="#resetDef" x="30" y="36" onmousedown="handleReset()"/>
   <use id="arrowup" xlink:href="#arrowUp" x="0" y="0" onmousedown="handlePan(0,-1)"/>
  <use id="arrowright" xlink:href="#arrowRight" x="0" y="0" onmousedown="handlePan(1,0)"/>
  <use id="arrowdown" xlink:href="#arrowDown" x="0" y="0" onmousedown="handlePan(0,1)"/>
  <use id="arrowleft" xlink:href="#arrowLeft" x="0" y="0" onmousedown="handlePan(-1,0)"/>
</g>
<svg viewBox="0 0 15 15" width="100%" height="30px" preserveAspectRatio="xMaxYMin meet">
 <g id="arrow_out" transform="scale(0.3 0.3)">
  <a xlink:href="print__utils_8c_a491dc14c94ed8cf706bb54880c50b2d0_icgraph_org.svg" target="_base">
   <rect id="button" ry="5" rx="5" y="6" x="6" height="38" width="38"
        fill="#f2f5e9" fill-opacity="0.5" stroke="#606060" stroke-width="1.0"/>
   <path id="arrow"
     d="M 11.500037,31.436501 C 11.940474,20.09759 22.043105,11.32322 32.158766,21.979434 L 37.068811,17.246167 C 37.068811,17.246167 37.088388,32 37.088388,32 L 22.160133,31.978069 C 22.160133,31.978069 26.997745,27.140456 26.997745,27.140456 C 18.528582,18.264221 13.291696,25.230495 11.500037,31.436501 z"
     style="fill:#404040;"/>
  </a>
 </g>
</svg>

<style type='text/css'>
<![CDATA[
[data-mouse-over-selected='false'] { opacity: 0.7; }
[data-mouse-over-selected='true']  { opacity: 1.0; }
]]>
</style>
<script type="application/ecmascript"><![CDATA[
document.addEventListener('DOMContentLoaded', (event) => {
  highlightEdges();
  highlightAdjacentNodes();
});
]]></script>
</svg>
