<?xml version="1.0" encoding="UTF-8" standalone="no"?>
<!DOCTYPE svg PUBLIC "-//W3C//DTD SVG 1.1//EN"
 "http://www.w3.org/Graphics/SVG/1.1/DTD/svg11.dtd">
<!-- Generated by graphviz version 8.1.0 (20230707.0739)
 -->
<!-- Title: arguments Pages: 1 -->
<svg width="129pt" height="120pt"
 viewBox="0.00 0.00 128.65 120.00" xmlns="http://www.w3.org/2000/svg" xmlns:xlink="http://www.w3.org/1999/xlink">
<g id="graph0" class="graph" transform="scale(1 1) rotate(0) translate(4 116)">
<title>arguments</title>
<!-- Node1 -->
<g id="Node000001" class="node">
<title>Node1</title>
<g id="a_Node000001"><a xlink:title="Structure to store command&#45;line arguments.">
<polygon fill="#999999" stroke="#666666" points="78.28,-20 16.52,-20 16.52,0 78.28,0 78.28,-20"/>
<text text-anchor="middle" x="47.4" y="-6.5" font-family="Helvetica,sans-Serif" font-size="10.00">arguments</text>
</a>
</g>
</g>
<!-- Node2 -->
<g id="Node000002" class="node">
<title>Node2</title>
<g id="a_Node000002"><a xlink:title=" ">
<polygon fill="white" stroke="#666666" points="28.8,-112 0,-112 0,-92 28.8,-92 28.8,-112"/>
<text text-anchor="middle" x="14.4" y="-98.5" font-family="Helvetica,sans-Serif" font-size="10.00">int</text>
</a>
</g>
</g>
<!-- Node2&#45;&gt;Node1 -->
<g id="edge1_Node000001_Node000002" class="edge">
<title>Node2&#45;&gt;Node1</title>
<g id="a_edge1_Node000001_Node000002"><a xlink:title=" ">
<path fill="none" stroke="#9a32cd" stroke-dasharray="5,2" d="M10.77,-81.39C9.32,-68.45 9.26,-51.47 15.65,-38 19.06,-30.81 25.4,-24.81 31.53,-20.31"/>
<polygon fill="#9a32cd" stroke="#9a32cd" points="7.41,-81.55 12.35,-90.92 14.33,-80.51 7.41,-81.55"/>
</a>
</g>
<text text-anchor="middle" x="37.77" y="-52.5" font-family="Helvetica,sans-Serif" font-size="10.00" fill="grey"> operation</text>
</g>
<!-- Node3 -->
<g id="Node000003" class="node">
<title>Node3</title>
<g id="a_Node000003"><a xlink:title=" ">
<polygon fill="white" stroke="#666666" points="101.15,-112 59.65,-112 59.65,-92 101.15,-92 101.15,-112"/>
<text text-anchor="middle" x="80.4" y="-98.5" font-family="Helvetica,sans-Serif" font-size="10.00">char *</text>
</a>
</g>
</g>
<!-- Node3&#45;&gt;Node1 -->
<g id="edge2_Node000001_Node000003" class="edge">
<title>Node3&#45;&gt;Node1</title>
<g id="a_edge2_Node000001_Node000003"><a xlink:title=" ">
<path fill="none" stroke="#9a32cd" stroke-dasharray="5,2" d="M73.84,-81.39C69.59,-68.91 63.86,-52.44 58.4,-38 56.18,-32.13 53.53,-25.61 51.39,-20.45"/>
<polygon fill="#9a32cd" stroke="#9a32cd" points="70.75,-82.2 77.27,-90.55 77.39,-79.96 70.75,-82.2"/>
</a>
</g>
<text text-anchor="middle" x="95.53" y="-64.5" font-family="Helvetica,sans-Serif" font-size="10.00" fill="grey"> destination</text>
<text text-anchor="middle" x="95.53" y="-52.5" font-family="Helvetica,sans-Serif" font-size="10.00" fill="grey">password</text>
<text text-anchor="middle" x="95.53" y="-40.5" font-family="Helvetica,sans-Serif" font-size="10.00" fill="grey">source</text>
</g>
</g>
</svg>
