<?xml version="1.0" encoding="UTF-8" standalone="no"?>
<!DOCTYPE svg PUBLIC "-//W3C//DTD SVG 1.1//EN"
 "http://www.w3.org/Graphics/SVG/1.1/DTD/svg11.dtd">
<!-- Generated by graphviz version 7.1.0 (0)
 -->
<!-- Title: arguments Pages: 1 -->
<svg width="130pt" height="115pt"
 viewBox="0.00 0.00 129.50 115.00" xmlns="http://www.w3.org/2000/svg" xmlns:xlink="http://www.w3.org/1999/xlink">
<g id="graph0" class="graph" transform="scale(1 1) rotate(0) translate(4 111)">
<title>arguments</title>
<!-- Node1 -->
<g id="Node000001" class="node">
<title>Node1</title>
<g id="a_Node000001"><a xlink:title=" ">
<polygon fill="#999999" stroke="#666666" points="78.5,-19 16.5,-19 16.5,0 78.5,0 78.5,-19"/>
<text text-anchor="middle" x="47.5" y="-7" font-family="Helvetica,sans-Serif" font-size="10.00">arguments</text>
</a>
</g>
</g>
<!-- Node2 -->
<g id="Node000002" class="node">
<title>Node2</title>
<g id="a_Node000002"><a xlink:title=" ">
<polygon fill="white" stroke="#bfbfbf" points="29,-107 0,-107 0,-88 29,-88 29,-107"/>
<text text-anchor="middle" x="14.5" y="-95" font-family="Helvetica,sans-Serif" font-size="10.00">int</text>
</a>
</g>
</g>
<!-- Node2&#45;&gt;Node1 -->
<g id="edge1_Node000001_Node000002" class="edge">
<title>Node2&#45;&gt;Node1</title>
<g id="a_edge1_Node000001_Node000002"><a xlink:title=" ">
<path fill="none" stroke="#9a32cd" stroke-dasharray="5,2" d="M10.78,-76.42C9.51,-64.41 9.65,-49.16 15.5,-37 19,-29.72 25.56,-23.74 31.84,-19.31"/>
<polygon fill="#9a32cd" stroke="#9a32cd" points="7.27,-76.63 12.2,-86 14.2,-75.6 7.27,-76.63"/>
</a>
</g>
<text text-anchor="middle" x="37" y="-51" font-family="Helvetica,sans-Serif" font-size="10.00" fill="grey"> operation</text>
</g>
<!-- Node3 -->
<g id="Node000003" class="node">
<title>Node3</title>
<g id="a_Node000003"><a xlink:title=" ">
<polygon fill="white" stroke="#bfbfbf" points="101.5,-107 59.5,-107 59.5,-88 101.5,-88 101.5,-107"/>
<text text-anchor="middle" x="80.5" y="-95" font-family="Helvetica,sans-Serif" font-size="10.00">char *</text>
</a>
</g>
</g>
<!-- Node3&#45;&gt;Node1 -->
<g id="edge2_Node000001_Node000003" class="edge">
<title>Node3&#45;&gt;Node1</title>
<g id="a_edge2_Node000001_Node000003"><a xlink:title=" ">
<path fill="none" stroke="#9a32cd" stroke-dasharray="5,2" d="M73.47,-76.9C69.25,-65.26 63.69,-50.24 58.5,-37 56.17,-31.06 53.42,-24.44 51.25,-19.3"/>
<polygon fill="#9a32cd" stroke="#9a32cd" points="70.13,-77.95 76.81,-86.16 76.71,-75.57 70.13,-77.95"/>
</a>
</g>
<text text-anchor="middle" x="96" y="-62" font-family="Helvetica,sans-Serif" font-size="10.00" fill="grey"> destination</text>
<text text-anchor="middle" x="96" y="-51" font-family="Helvetica,sans-Serif" font-size="10.00" fill="grey">password</text>
<text text-anchor="middle" x="96" y="-40" font-family="Helvetica,sans-Serif" font-size="10.00" fill="grey">source</text>
</g>
</g>
</svg>
