<?xml version="1.0" encoding="UTF-8" standalone="no"?>
<!DOCTYPE svg PUBLIC "-//W3C//DTD SVG 1.1//EN"
 "http://www.w3.org/Graphics/SVG/1.1/DTD/svg11.dtd">
<!-- Generated by graphviz version 7.1.0 (0)
 -->
<!-- Title: qm_shared Pages: 1 -->
<svg width="162pt" height="93pt"
 viewBox="0.00 0.00 161.50 93.00" xmlns="http://www.w3.org/2000/svg" xmlns:xlink="http://www.w3.org/1999/xlink">
<g id="graph0" class="graph" transform="scale(1 1) rotate(0) translate(4 89)">
<title>qm_shared</title>
<!-- Node1 -->
<g id="Node000001" class="node">
<title>Node1</title>
<g id="a_Node000001"><a xlink:title="Represents a shared message. &#160;Contains information about the file descriptor ti which the TCFS module...">
<polygon fill="#999999" stroke="#666666" points="103,-19 38,-19 38,0 103,0 103,-19"/>
<text text-anchor="middle" x="70.5" y="-7" font-family="Helvetica,sans-Serif" font-size="10.00">qm_shared</text>
</a>
</g>
</g>
<!-- Node2 -->
<g id="Node000002" class="node">
<title>Node2</title>
<g id="a_Node000002"><a xlink:title=" ">
<polygon fill="white" stroke="#bfbfbf" points="29,-85 0,-85 0,-66 29,-66 29,-85"/>
<text text-anchor="middle" x="14.5" y="-73" font-family="Helvetica,sans-Serif" font-size="10.00">int</text>
</a>
</g>
</g>
<!-- Node2&#45;&gt;Node1 -->
<g id="edge1_Node000001_Node000002" class="edge">
<title>Node2&#45;&gt;Node1</title>
<g id="a_edge1_Node000001_Node000002"><a xlink:title=" ">
<path fill="none" stroke="#9a32cd" stroke-dasharray="5,2" d="M29.71,-57.12C40.41,-44.89 54.28,-29.04 62.78,-19.32"/>
<polygon fill="#9a32cd" stroke="#9a32cd" points="27.23,-54.63 23.28,-64.46 32.5,-59.24 27.23,-54.63"/>
</a>
</g>
<text text-anchor="middle" x="51.5" y="-40" font-family="Helvetica,sans-Serif" font-size="10.00" fill="grey"> fd</text>
</g>
<!-- Node3 -->
<g id="Node000003" class="node">
<title>Node3</title>
<g id="a_Node000003"><a xlink:title=" ">
<polygon fill="white" stroke="#bfbfbf" points="93.5,-85 47.5,-85 47.5,-66 93.5,-66 93.5,-85"/>
<text text-anchor="middle" x="70.5" y="-73" font-family="Helvetica,sans-Serif" font-size="10.00">char **</text>
</a>
</g>
</g>
<!-- Node3&#45;&gt;Node1 -->
<g id="edge2_Node000001_Node000003" class="edge">
<title>Node3&#45;&gt;Node1</title>
<g id="a_edge2_Node000001_Node000003"><a xlink:title=" ">
<path fill="none" stroke="#9a32cd" stroke-dasharray="5,2" d="M70.5,-54.18C70.5,-42.44 70.5,-28.27 70.5,-19.32"/>
<polygon fill="#9a32cd" stroke="#9a32cd" points="67,-54.09 70.5,-64.09 74,-54.09 67,-54.09"/>
</a>
</g>
<text text-anchor="middle" x="88" y="-40" font-family="Helvetica,sans-Serif" font-size="10.00" fill="grey"> userlist</text>
</g>
<!-- Node4 -->
<g id="Node000004" class="node">
<title>Node4</title>
<g id="a_Node000004"><a xlink:title=" ">
<polygon fill="white" stroke="#bfbfbf" points="153.5,-85 111.5,-85 111.5,-66 153.5,-66 153.5,-85"/>
<text text-anchor="middle" x="132.5" y="-73" font-family="Helvetica,sans-Serif" font-size="10.00">char *</text>
</a>
</g>
</g>
<!-- Node4&#45;&gt;Node1 -->
<g id="edge3_Node000001_Node000004" class="edge">
<title>Node4&#45;&gt;Node1</title>
<g id="a_edge3_Node000001_Node000004"><a xlink:title=" ">
<path fill="none" stroke="#9a32cd" stroke-dasharray="5,2" d="M123.15,-55.84C119.43,-49.45 114.77,-42.52 109.5,-37 102.94,-30.13 94.32,-24.05 86.85,-19.44"/>
<polygon fill="#9a32cd" stroke="#9a32cd" points="119.95,-57.26 127.76,-64.42 126.11,-53.95 119.95,-57.26"/>
</a>
</g>
<text text-anchor="middle" x="135.5" y="-40" font-family="Helvetica,sans-Serif" font-size="10.00" fill="grey"> keypart</text>
</g>
</g>
</svg>
