<?xml version="1.0" encoding="UTF-8" standalone="no"?>
<!DOCTYPE svg PUBLIC "-//W3C//DTD SVG 1.1//EN"
 "http://www.w3.org/Graphics/SVG/1.1/DTD/svg11.dtd">
<!-- Generated by graphviz version 8.1.0 (20230707.0739)
 -->
<!-- Title: string_to_hex Pages: 1 -->
<!--zoomable 978 -->

<svg id="main" version="1.1" xmlns="http://www.w3.org/2000/svg" xmlns:xlink="http://www.w3.org/1999/xlink" xml:space="preserve" onload="init(evt)">
<style type="text/css"><![CDATA[
.node, .edge {opacity: 0.7;}
.node.selected, .edge.selected {opacity: 1;}
.edge:hover path { stroke: red; }
.edge:hover polygon { stroke: red; fill: red; }
]]></style>

<defs>
  <circle id="rim" cx="0" cy="0" r="7"/>
  <circle id="rim2" cx="0" cy="0" r="3.5"/>
  <g id="zoomPlus">
    <use xlink:href="#rim" fill="#404040"><set attributeName="fill" to="#808080" begin="zoomplus.mouseover" end="zoomplus.mouseout"/></use>
    <path d="M-4,0h8M0,-4v8" fill="none" stroke="white" stroke-width="1.5" pointer-events="none"/>
  </g>
  <g id="zoomMin">
    <use xlink:href="#rim" fill="#404040"><set attributeName="fill" to="#808080" begin="zoomminus.mouseover" end="zoomminus.mouseout"/></use>
    <path d="M-4,0h8" fill="none" stroke="white" stroke-width="1.5" pointer-events="none"/>
  </g>
  <g id="arrowUp" transform="translate(30 24)">
    <use xlink:href="#rim"/>
    <path pointer-events="none" fill="none" stroke="white" stroke-width="1.5" d="M0,-3.0v7 M-2.5,-0.5L0,-3.0L2.5,-0.5"/>
  </g>
  <g id="arrowRight" transform="rotate(90) translate(36 -43)">
    <use xlink:href="#rim"/>
    <path pointer-events="none" fill="none" stroke="white" stroke-width="1.5" d="M0,-3.0v7 M-2.5,-0.5L0,-3.0L2.5,-0.5"/>
  </g>
  <g id="arrowDown" transform="rotate(180) translate(-30 -48)">
    <use xlink:href="#rim"/>
    <path pointer-events="none" fill="none" stroke="white" stroke-width="1.5" d="M0,-3.0v7 M-2.5,-0.5L0,-3.0L2.5,-0.5"/>
  </g>
  <g id="arrowLeft" transform="rotate(270) translate(-36 17)">
    <use xlink:href="#rim"/>
    <path pointer-events="none" fill="none" stroke="white" stroke-width="1.5" d="M0,-3.0v7 M-2.5,-0.5L0,-3.0L2.5,-0.5"/>
  </g>
  <g id="resetDef">
    <use xlink:href="#rim2" fill="#404040"><set attributeName="fill" to="#808080" begin="reset.mouseover" end="reset.mouseout"/></use>
  </g>
</defs>
<script type="application/ecmascript">
var viewWidth = 656;
var viewHeight = 978;
var sectionId = 'dynsection-11';
</script>
<script type="application/ecmascript" xlink:href="svg.min.js"/>
<svg id="graph" class="graph">
<g id="viewport">
<title>string_to_hex</title>
<!-- Node1 -->
<g id="Node000001" class="node">
<title>Node1</title>
<g id="a_Node000001"><a xlink:title="Convert a string to its hexadecimal representation.">
<polygon fill="#999999" stroke="#666666" points="647.75,-400 573.25,-400 573.25,-380 647.75,-380 647.75,-400"/>
<text text-anchor="middle" x="610.5" y="-386.5" font-family="Helvetica,sans-Serif" font-size="10.00">string_to_hex</text>
</a>
</g>
</g>
<!-- Node2 -->
<g id="Node000002" class="node">
<title>Node2</title>
<g id="a_Node000002"><a xlink:href="crypt-utils_8c.html#aa4a7facde8c6f63a7225c07e92232b2e" target="_top" xlink:title=" ">
<polygon fill="white" stroke="#666666" points="537.25,-400 397.5,-400 397.5,-380 537.25,-380 537.25,-400"/>
<text text-anchor="middle" x="467.38" y="-386.5" font-family="Helvetica,sans-Serif" font-size="10.00">encrypt_file_name_with_hex</text>
</a>
</g>
</g>
<!-- Node1&#45;&gt;Node2 -->
<g id="edge1_Node000001_Node000002" class="edge">
<title>Node1&#45;&gt;Node2</title>
<g id="a_edge1_Node000001_Node000002"><a xlink:title=" ">
<path fill="none" stroke="#63b8ff" d="M562.05,-390C554.22,-390 545.97,-390 537.73,-390"/>
<polygon fill="#63b8ff" stroke="#63b8ff" points="561.79,-393.5 571.79,-390 561.79,-386.5 561.79,-393.5"/>
</a>
</g>
</g>
<!-- Node3 -->
<g id="Node000003" class="node">
<title>Node3</title>
<g id="a_Node000003"><a xlink:href="crypt-utils_8c.html#ad9b10366ade9f2129ec2613fdc76df80" target="_top" xlink:title="Encrypts each part of the given path using a specified key.">
<polygon fill="white" stroke="#666666" points="330,-647 257.75,-647 257.75,-627 330,-627 330,-647"/>
<text text-anchor="middle" x="293.88" y="-633.5" font-family="Helvetica,sans-Serif" font-size="10.00">encrypt_path</text>
</a>
</g>
</g>
<!-- Node2&#45;&gt;Node3 -->
<g id="edge2_Node000002_Node000003" class="edge">
<title>Node2&#45;&gt;Node3</title>
<g id="a_edge2_Node000002_Node000003"><a xlink:title=" ">
<path fill="none" stroke="#63b8ff" d="M452.95,-409.33C418.57,-458.84 328.2,-589 302.06,-626.66"/>
<polygon fill="#63b8ff" stroke="#63b8ff" points="456.4,-411.51 459.22,-401.3 450.65,-407.52 456.4,-411.51"/>
</a>
</g>
</g>
<!-- Node22 -->
<g id="Node000022" class="node">
<title>Node22</title>
<g id="a_Node000022"><a xlink:href="crypt-utils_8c.html#a5c45db4d3db3ef274fb6356e1a95e644" target="_top" xlink:title="Encrypts the given filename with its path using a specified key.">
<polygon fill="white" stroke="#666666" points="361.5,-191 226.25,-191 226.25,-171 361.5,-171 361.5,-191"/>
<text text-anchor="middle" x="293.88" y="-177.5" font-family="Helvetica,sans-Serif" font-size="10.00">encrypt_path_and_filename</text>
</a>
</g>
</g>
<!-- Node2&#45;&gt;Node22 -->
<g id="edge22_Node000002_Node000022" class="edge">
<title>Node2&#45;&gt;Node22</title>
<g id="a_edge22_Node000002_Node000022"><a xlink:title=" ">
<path fill="none" stroke="#63b8ff" d="M450.99,-371.25C415.86,-328.44 330.71,-224.67 303.43,-191.43"/>
<polygon fill="#63b8ff" stroke="#63b8ff" points="448.82,-373.13 457.87,-378.64 454.23,-368.68 448.82,-373.13"/>
</a>
</g>
</g>
<!-- Node4 -->
<g id="Node000004" class="node">
<title>Node4</title>
<g id="a_Node000004"><a xlink:href="tcfs_8c.html#a76af7857833338c73b9cafdce59ca01d" target="_top" xlink:title="Checks file access permissions.">
<polygon fill="white" stroke="#666666" points="180.12,-666 110.88,-666 110.88,-646 180.12,-646 180.12,-666"/>
<text text-anchor="middle" x="145.5" y="-652.5" font-family="Helvetica,sans-Serif" font-size="10.00">tcfs_access</text>
</a>
</g>
</g>
<!-- Node3&#45;&gt;Node4 -->
<g id="edge3_Node000003_Node000004" class="edge">
<title>Node3&#45;&gt;Node4</title>
<g id="a_edge3_Node000003_Node000004"><a xlink:title=" ">
<path fill="none" stroke="#63b8ff" d="M246.62,-643C225.22,-645.78 200.25,-649.02 180.6,-651.57"/>
<polygon fill="#63b8ff" stroke="#63b8ff" points="246.98,-646.36 256.44,-641.6 246.07,-639.42 246.98,-646.36"/>
</a>
</g>
</g>
<!-- Node5 -->
<g id="Node000005" class="node">
<title>Node5</title>
<g id="a_Node000005"><a xlink:href="tcfs_8c.html#adaba2baa5a036b8f77ec187599498a66" target="_top" xlink:title="Writes data to an open file.">
<polygon fill="white" stroke="#666666" points="61.75,-666 3,-666 3,-646 61.75,-646 61.75,-666"/>
<text text-anchor="middle" x="32.38" y="-652.5" font-family="Helvetica,sans-Serif" font-size="10.00">tcfs_write</text>
</a>
</g>
</g>
<!-- Node3&#45;&gt;Node5 -->
<g id="edge21_Node000003_Node000005" class="edge">
<title>Node3&#45;&gt;Node5</title>
<g id="a_edge21_Node000003_Node000005"><a xlink:title=" ">
<path fill="none" stroke="#63b8ff" d="M261.45,-651.95C241.54,-660.58 214.98,-670.57 190.25,-675 151.1,-682.02 140.15,-680.45 100.75,-675 87.87,-673.22 73.99,-669.61 62.19,-666.01"/>
<polygon fill="#63b8ff" stroke="#63b8ff" points="262.78,-654.74 270.49,-647.47 259.93,-648.35 262.78,-654.74"/>
</a>
</g>
</g>
<!-- Node6 -->
<g id="Node000006" class="node">
<title>Node6</title>
<g id="a_Node000006"><a xlink:href="tcfs_8c.html#a3cb10be0f6147667dc0e757636e9892f" target="_top" xlink:title="Changes the permissions of a file.">
<polygon fill="white" stroke="#666666" points="179,-628 112,-628 112,-608 179,-608 179,-628"/>
<text text-anchor="middle" x="145.5" y="-614.5" font-family="Helvetica,sans-Serif" font-size="10.00">tcfs_chmod</text>
</a>
</g>
</g>
<!-- Node3&#45;&gt;Node6 -->
<g id="edge5_Node000003_Node000006" class="edge">
<title>Node3&#45;&gt;Node6</title>
<g id="a_edge5_Node000003_Node000006"><a xlink:title=" ">
<path fill="none" stroke="#63b8ff" d="M246.68,-631C224.72,-628.15 198.99,-624.81 179.1,-622.23"/>
<polygon fill="#63b8ff" stroke="#63b8ff" points="246.07,-634.58 256.44,-632.4 246.98,-627.64 246.07,-634.58"/>
</a>
</g>
</g>
<!-- Node7 -->
<g id="Node000007" class="node">
<title>Node7</title>
<g id="a_Node000007"><a xlink:href="tcfs_8c.html#afff31b61fa0723502cf85922816f14f9" target="_top" xlink:title="Changes the owner and group of a file.">
<polygon fill="white" stroke="#666666" points="178.62,-590 112.38,-590 112.38,-570 178.62,-570 178.62,-590"/>
<text text-anchor="middle" x="145.5" y="-576.5" font-family="Helvetica,sans-Serif" font-size="10.00">tcfs_chown</text>
</a>
</g>
</g>
<!-- Node3&#45;&gt;Node7 -->
<g id="edge6_Node000003_Node000007" class="edge">
<title>Node3&#45;&gt;Node7</title>
<g id="a_edge6_Node000003_Node000007"><a xlink:title=" ">
<path fill="none" stroke="#63b8ff" d="M255.88,-622.59C230.11,-612.56 196.34,-599.41 173.18,-590.39"/>
<polygon fill="#63b8ff" stroke="#63b8ff" points="254.44,-626.18 265.03,-626.55 256.98,-619.66 254.44,-626.18"/>
</a>
</g>
</g>
<!-- Node8 -->
<g id="Node000008" class="node">
<title>Node8</title>
<g id="a_Node000008"><a xlink:href="tcfs_8c.html#a411eac4511d0eae4ce78a2fd3d22ac8c" target="_top" xlink:title="Gets file attributes.">
<polygon fill="white" stroke="#666666" points="178.25,-552 112.75,-552 112.75,-532 178.25,-532 178.25,-552"/>
<text text-anchor="middle" x="145.5" y="-538.5" font-family="Helvetica,sans-Serif" font-size="10.00">tcfs_getattr</text>
</a>
</g>
</g>
<!-- Node3&#45;&gt;Node8 -->
<g id="edge7_Node000003_Node000008" class="edge">
<title>Node3&#45;&gt;Node8</title>
<g id="a_edge7_Node000003_Node000008"><a xlink:title=" ">
<path fill="none" stroke="#63b8ff" d="M272.54,-619.76C252.5,-603.3 220.55,-578.49 190.25,-561 184.8,-557.85 178.73,-554.9 172.89,-552.3"/>
<polygon fill="#63b8ff" stroke="#63b8ff" points="269.94,-622.98 279.87,-626.68 274.41,-617.59 269.94,-622.98"/>
</a>
</g>
</g>
<!-- Node9 -->
<g id="Node000009" class="node">
<title>Node9</title>
<g id="a_Node000009"><a xlink:href="tcfs_8c.html#a682b553345b6d872453d1ace7339bb9e" target="_top" xlink:title="Creates a directory.">
<polygon fill="white" stroke="#666666" points="176.38,-514 114.62,-514 114.62,-494 176.38,-494 176.38,-514"/>
<text text-anchor="middle" x="145.5" y="-500.5" font-family="Helvetica,sans-Serif" font-size="10.00">tcfs_mkdir</text>
</a>
</g>
</g>
<!-- Node3&#45;&gt;Node9 -->
<g id="edge8_Node000003_Node000009" class="edge">
<title>Node3&#45;&gt;Node9</title>
<g id="a_edge8_Node000003_Node000009"><a xlink:title=" ">
<path fill="none" stroke="#63b8ff" d="M279.58,-617.7C261.72,-592.96 227.84,-550.05 190.25,-523 185.68,-519.71 180.45,-516.83 175.23,-514.37"/>
<polygon fill="#63b8ff" stroke="#63b8ff" points="277.18,-619.37 285.82,-625.51 282.9,-615.32 277.18,-619.37"/>
</a>
</g>
</g>
<!-- Node10 -->
<g id="Node000010" class="node">
<title>Node10</title>
<g id="a_Node000010"><a xlink:href="tcfs_8c.html#a151f53359474a95c52f5e79d438869bd" target="_top" xlink:title="Creates a regular file or a special file (block or character).">
<polygon fill="white" stroke="#666666" points="179,-476 112,-476 112,-456 179,-456 179,-476"/>
<text text-anchor="middle" x="145.5" y="-462.5" font-family="Helvetica,sans-Serif" font-size="10.00">tcfs_mknod</text>
</a>
</g>
</g>
<!-- Node3&#45;&gt;Node10 -->
<g id="edge9_Node000003_Node000010" class="edge">
<title>Node3&#45;&gt;Node10</title>
<g id="a_edge9_Node000003_Node000010"><a xlink:title=" ">
<path fill="none" stroke="#63b8ff" d="M283.85,-616.72C268.71,-584.77 235.38,-522.5 190.25,-485 186.17,-481.61 181.4,-478.73 176.54,-476.32"/>
<polygon fill="#63b8ff" stroke="#63b8ff" points="281.07,-618.05 288.43,-625.67 287.43,-615.12 281.07,-618.05"/>
</a>
</g>
</g>
<!-- Node11 -->
<g id="Node000011" class="node">
<title>Node11</title>
<g id="a_Node000011"><a xlink:href="tcfs_8c.html#af0c6a7d66189cc1e9fbfafba5255e60d" target="_top" xlink:title="Opens a file.">
<polygon fill="white" stroke="#666666" points="174.88,-438 116.12,-438 116.12,-418 174.88,-418 174.88,-438"/>
<text text-anchor="middle" x="145.5" y="-424.5" font-family="Helvetica,sans-Serif" font-size="10.00">tcfs_open</text>
</a>
</g>
</g>
<!-- Node3&#45;&gt;Node11 -->
<g id="edge10_Node000003_Node000011" class="edge">
<title>Node3&#45;&gt;Node11</title>
<g id="a_edge10_Node000003_Node000011"><a xlink:title=" ">
<path fill="none" stroke="#63b8ff" d="M286.81,-616.51C274.53,-578.32 243.31,-495.71 190.25,-447 185.86,-442.97 180.48,-439.7 175.01,-437.09"/>
<polygon fill="#63b8ff" stroke="#63b8ff" points="283.71,-617.34 290.01,-625.85 290.39,-615.27 283.71,-617.34"/>
</a>
</g>
</g>
<!-- Node12 -->
<g id="Node000012" class="node">
<title>Node12</title>
<g id="a_Node000012"><a xlink:href="tcfs_8c.html#a92ebab5be45b159c2850a47a5072b58d" target="_top" xlink:title="Opens a directory.">
<polygon fill="white" stroke="#666666" points="180.12,-970 110.88,-970 110.88,-950 180.12,-950 180.12,-970"/>
<text text-anchor="middle" x="145.5" y="-956.5" font-family="Helvetica,sans-Serif" font-size="10.00">tcfs_opendir</text>
</a>
</g>
</g>
<!-- Node3&#45;&gt;Node12 -->
<g id="edge11_Node000003_Node000012" class="edge">
<title>Node3&#45;&gt;Node12</title>
<g id="a_edge11_Node000003_Node000012"><a xlink:title=" ">
<path fill="none" stroke="#63b8ff" d="M291.48,-658.36C286.85,-712.52 267.54,-856.92 190.25,-941 187.11,-944.41 183.25,-947.24 179.14,-949.58"/>
<polygon fill="#63b8ff" stroke="#63b8ff" points="295.05,-658.65 292.32,-648.41 288.07,-658.12 295.05,-658.65"/>
</a>
</g>
</g>
<!-- Node13 -->
<g id="Node000013" class="node">
<title>Node13</title>
<g id="a_Node000013"><a xlink:href="tcfs_8c.html#a745384a010e20b082db26e16702a0129" target="_top" xlink:title="Reads data from an open file.">
<polygon fill="white" stroke="#666666" points="60.62,-381 4.12,-381 4.12,-361 60.62,-361 60.62,-381"/>
<text text-anchor="middle" x="32.38" y="-367.5" font-family="Helvetica,sans-Serif" font-size="10.00">tcfs_read</text>
</a>
</g>
</g>
<!-- Node3&#45;&gt;Node13 -->
<g id="edge12_Node000003_Node000013" class="edge">
<title>Node3&#45;&gt;Node13</title>
<g id="a_edge12_Node000003_Node000013"><a xlink:title=" ">
<path fill="none" stroke="#63b8ff" d="M289.74,-616.18C281.81,-571.1 256.65,-464.11 190.25,-409 153.16,-378.22 95.09,-371.64 60.98,-370.65"/>
<polygon fill="#63b8ff" stroke="#63b8ff" points="286.43,-616.63 291.5,-625.93 293.34,-615.49 286.43,-616.63"/>
</a>
</g>
</g>
<!-- Node14 -->
<g id="Node000014" class="node">
<title>Node14</title>
<g id="a_Node000014"><a xlink:href="tcfs_8c.html#a1a713549c892f56a6522e6487c581d69" target="_top" xlink:title="Reads a directory.">
<polygon fill="white" stroke="#666666" points="179,-932 112,-932 112,-912 179,-912 179,-932"/>
<text text-anchor="middle" x="145.5" y="-918.5" font-family="Helvetica,sans-Serif" font-size="10.00">tcfs_readdir</text>
</a>
</g>
</g>
<!-- Node3&#45;&gt;Node14 -->
<g id="edge13_Node000003_Node000014" class="edge">
<title>Node3&#45;&gt;Node14</title>
<g id="a_edge13_Node000003_Node000014"><a xlink:title=" ">
<path fill="none" stroke="#63b8ff" d="M290.28,-658.3C283.21,-707.64 259.27,-831.05 190.25,-903 186.93,-906.47 182.86,-909.34 178.56,-911.7"/>
<polygon fill="#63b8ff" stroke="#63b8ff" points="293.88,-658.8 291.73,-648.43 286.94,-657.88 293.88,-658.8"/>
</a>
</g>
</g>
<!-- Node15 -->
<g id="Node000015" class="node">
<title>Node15</title>
<g id="a_Node000015"><a xlink:href="tcfs_8c.html#acb1e081efcbf61b6f34e8bbdf7af8979" target="_top" xlink:title="Reads the target of a symbolic link.">
<polygon fill="white" stroke="#666666" points="181.25,-894 109.75,-894 109.75,-874 181.25,-874 181.25,-894"/>
<text text-anchor="middle" x="145.5" y="-880.5" font-family="Helvetica,sans-Serif" font-size="10.00">tcfs_readlink</text>
</a>
</g>
</g>
<!-- Node3&#45;&gt;Node15 -->
<g id="edge14_Node000003_Node000015" class="edge">
<title>Node3&#45;&gt;Node15</title>
<g id="a_edge14_Node000003_Node000015"><a xlink:title=" ">
<path fill="none" stroke="#63b8ff" d="M288.79,-657.91C279.19,-701.88 251.24,-804.81 190.25,-865 186.83,-868.37 182.72,-871.19 178.4,-873.54"/>
<polygon fill="#63b8ff" stroke="#63b8ff" points="292.37,-658.88 290.98,-648.38 285.52,-657.46 292.37,-658.88"/>
</a>
</g>
</g>
<!-- Node16 -->
<g id="Node000016" class="node">
<title>Node16</title>
<g id="a_Node000016"><a xlink:href="tcfs_8c.html#a2853593dded66a922afbdc36afb15a50" target="_top" xlink:title="Removes a directory.">
<polygon fill="white" stroke="#666666" points="175.25,-856 115.75,-856 115.75,-836 175.25,-836 175.25,-856"/>
<text text-anchor="middle" x="145.5" y="-842.5" font-family="Helvetica,sans-Serif" font-size="10.00">tcfs_rmdir</text>
</a>
</g>
</g>
<!-- Node3&#45;&gt;Node16 -->
<g id="edge15_Node000003_Node000016" class="edge">
<title>Node3&#45;&gt;Node16</title>
<g id="a_edge15_Node000003_Node000016"><a xlink:title=" ">
<path fill="none" stroke="#63b8ff" d="M286.81,-657.49C274.53,-695.68 243.31,-778.29 190.25,-827 185.98,-830.92 180.77,-834.12 175.46,-836.69"/>
<polygon fill="#63b8ff" stroke="#63b8ff" points="290.39,-658.73 290.01,-648.15 283.71,-656.66 290.39,-658.73"/>
</a>
</g>
</g>
<!-- Node17 -->
<g id="Node000017" class="node">
<title>Node17</title>
<g id="a_Node000017"><a xlink:href="tcfs_8c.html#ad3c328fdcd93c8203e1ce9c785fd3a14" target="_top" xlink:title="Sets extended attributes.">
<polygon fill="white" stroke="#666666" points="180.88,-324 110.12,-324 110.12,-304 180.88,-304 180.88,-324"/>
<text text-anchor="middle" x="145.5" y="-310.5" font-family="Helvetica,sans-Serif" font-size="10.00">tcfs_setxattr</text>
</a>
</g>
</g>
<!-- Node3&#45;&gt;Node17 -->
<g id="edge16_Node000003_Node000017" class="edge">
<title>Node3&#45;&gt;Node17</title>
<g id="a_edge16_Node000003_Node000017"><a xlink:title=" ">
<path fill="none" stroke="#63b8ff" d="M291.48,-615.64C286.85,-561.48 267.54,-417.08 190.25,-333 187.11,-329.59 183.25,-326.76 179.14,-324.42"/>
<polygon fill="#63b8ff" stroke="#63b8ff" points="288.07,-615.88 292.32,-625.59 295.05,-615.35 288.07,-615.88"/>
</a>
</g>
</g>
<!-- Node19 -->
<g id="Node000019" class="node">
<title>Node19</title>
<g id="a_Node000019"><a xlink:href="tcfs_8c.html#a7e7f7a65b4e76cc96505d0c6d62fba9c" target="_top" xlink:title="Truncates or extends the size of a file.">
<polygon fill="white" stroke="#666666" points="182,-818 109,-818 109,-798 182,-798 182,-818"/>
<text text-anchor="middle" x="145.5" y="-804.5" font-family="Helvetica,sans-Serif" font-size="10.00">tcfs_truncate</text>
</a>
</g>
</g>
<!-- Node3&#45;&gt;Node19 -->
<g id="edge18_Node000003_Node000019" class="edge">
<title>Node3&#45;&gt;Node19</title>
<g id="a_edge18_Node000003_Node000019"><a xlink:title=" ">
<path fill="none" stroke="#63b8ff" d="M283.85,-657.28C268.71,-689.23 235.38,-751.5 190.25,-789 186.17,-792.39 181.4,-795.27 176.54,-797.68"/>
<polygon fill="#63b8ff" stroke="#63b8ff" points="287.43,-658.88 288.43,-648.33 281.07,-655.95 287.43,-658.88"/>
</a>
</g>
</g>
<!-- Node20 -->
<g id="Node000020" class="node">
<title>Node20</title>
<g id="a_Node000020"><a xlink:href="tcfs_8c.html#ac6d3a8a626363a6f98de64e585968b09" target="_top" xlink:title="Removes a file.">
<polygon fill="white" stroke="#666666" points="177.12,-780 113.88,-780 113.88,-760 177.12,-760 177.12,-780"/>
<text text-anchor="middle" x="145.5" y="-766.5" font-family="Helvetica,sans-Serif" font-size="10.00">tcfs_unlink</text>
</a>
</g>
</g>
<!-- Node3&#45;&gt;Node20 -->
<g id="edge19_Node000003_Node000020" class="edge">
<title>Node3&#45;&gt;Node20</title>
<g id="a_edge19_Node000003_Node000020"><a xlink:title=" ">
<path fill="none" stroke="#63b8ff" d="M279.58,-656.3C261.72,-681.04 227.84,-723.95 190.25,-751 185.68,-754.29 180.45,-757.17 175.23,-759.63"/>
<polygon fill="#63b8ff" stroke="#63b8ff" points="282.9,-658.68 285.82,-648.49 277.18,-654.63 282.9,-658.68"/>
</a>
</g>
</g>
<!-- Node21 -->
<g id="Node000021" class="node">
<title>Node21</title>
<g id="a_Node000021"><a xlink:href="tcfs_8c.html#aca5dccf989dfc270ca31e1d8b20bb60e" target="_top" xlink:title="Modify the access and modification timestamps of a file in the TCFS file system.">
<polygon fill="white" stroke="#666666" points="181.62,-742 109.38,-742 109.38,-722 181.62,-722 181.62,-742"/>
<text text-anchor="middle" x="145.5" y="-728.5" font-family="Helvetica,sans-Serif" font-size="10.00">tcfs_utimens</text>
</a>
</g>
</g>
<!-- Node3&#45;&gt;Node21 -->
<g id="edge20_Node000003_Node000021" class="edge">
<title>Node3&#45;&gt;Node21</title>
<g id="a_edge20_Node000003_Node000021"><a xlink:title=" ">
<path fill="none" stroke="#63b8ff" d="M270.02,-653.83C249.52,-668.68 218.41,-690.6 190.25,-708 182.59,-712.74 173.93,-717.59 166.35,-721.67"/>
<polygon fill="#63b8ff" stroke="#63b8ff" points="271.89,-656.07 277.91,-647.35 267.76,-650.41 271.89,-656.07"/>
</a>
</g>
</g>
<!-- Node4&#45;&gt;Node5 -->
<g id="edge4_Node000004_Node000005" class="edge">
<title>Node4&#45;&gt;Node5</title>
<g id="a_edge4_Node000004_Node000005"><a xlink:title=" ">
<path fill="none" stroke="#63b8ff" d="M99.72,-656C87.08,-656 73.67,-656 62.24,-656"/>
<polygon fill="#63b8ff" stroke="#63b8ff" points="99.56,-659.5 109.56,-656 99.55,-652.5 99.56,-659.5"/>
</a>
</g>
</g>
<!-- Node18 -->
<g id="Node000018" class="node">
<title>Node18</title>
<g id="a_Node000018"><a xlink:href="tcfs_8c.html#ad973ad9d6ab7d6276bf85cd8fecd0657" target="_top" xlink:title="Create and open a file.">
<polygon fill="white" stroke="#666666" points="64.75,-305 0,-305 0,-285 64.75,-285 64.75,-305"/>
<text text-anchor="middle" x="32.38" y="-291.5" font-family="Helvetica,sans-Serif" font-size="10.00">tcfs_create</text>
</a>
</g>
</g>
<!-- Node17&#45;&gt;Node18 -->
<g id="edge17_Node000017_Node000018" class="edge">
<title>Node17&#45;&gt;Node18</title>
<g id="a_edge17_Node000017_Node000018"><a xlink:title=" ">
<path fill="none" stroke="#63b8ff" d="M98.98,-306.22C87.6,-304.27 75.64,-302.23 65.09,-300.42"/>
<polygon fill="#63b8ff" stroke="#63b8ff" points="98.2,-309.8 108.64,-308.04 99.38,-302.91 98.2,-309.8"/>
</a>
</g>
</g>
<!-- Node22&#45;&gt;Node18 -->
<g id="edge23_Node000022_Node000018" class="edge">
<title>Node22&#45;&gt;Node18</title>
<g id="a_edge23_Node000022_Node000018"><a xlink:title=" ">
<path fill="none" stroke="#63b8ff" d="M274.12,-198.57C254.61,-215.9 222.47,-241.93 190.25,-257 149.26,-276.18 97.55,-286.28 64.96,-291.13"/>
<polygon fill="#63b8ff" stroke="#63b8ff" points="276.09,-201.6 281.15,-192.28 271.39,-196.41 276.09,-201.6"/>
</a>
</g>
</g>
<!-- Node23 -->
<g id="Node000023" class="node">
<title>Node23</title>
<g id="a_Node000023"><a xlink:href="tcfs_8c.html#a014853840814f4d5225e2e28e129f9e5" target="_top" xlink:title="Synchronizes file contents.">
<polygon fill="white" stroke="#666666" points="176.38,-248 114.62,-248 114.62,-228 176.38,-228 176.38,-248"/>
<text text-anchor="middle" x="145.5" y="-234.5" font-family="Helvetica,sans-Serif" font-size="10.00">tcfs_fsync</text>
</a>
</g>
</g>
<!-- Node22&#45;&gt;Node23 -->
<g id="edge24_Node000022_Node000023" class="edge">
<title>Node22&#45;&gt;Node23</title>
<g id="a_edge24_Node000022_Node000023"><a xlink:title=" ">
<path fill="none" stroke="#63b8ff" d="M255.88,-195.41C230.11,-205.44 196.34,-218.59 173.18,-227.61"/>
<polygon fill="#63b8ff" stroke="#63b8ff" points="256.98,-198.34 265.03,-191.45 254.44,-191.82 256.98,-198.34"/>
</a>
</g>
</g>
<!-- Node24 -->
<g id="Node000024" class="node">
<title>Node24</title>
<g id="a_Node000024"><a xlink:href="tcfs_8c.html#a6a031c4e3c6dd59051c09789c4666657" target="_top" xlink:title="Get extended attribute data.">
<polygon fill="white" stroke="#666666" points="180.88,-362 110.12,-362 110.12,-342 180.88,-342 180.88,-362"/>
<text text-anchor="middle" x="145.5" y="-348.5" font-family="Helvetica,sans-Serif" font-size="10.00">tcfs_getxattr</text>
</a>
</g>
</g>
<!-- Node22&#45;&gt;Node24 -->
<g id="edge25_Node000022_Node000024" class="edge">
<title>Node22&#45;&gt;Node24</title>
<g id="a_edge25_Node000022_Node000024"><a xlink:title=" ">
<path fill="none" stroke="#63b8ff" d="M283.85,-201.28C268.71,-233.23 235.38,-295.5 190.25,-333 186.17,-336.39 181.4,-339.27 176.54,-341.68"/>
<polygon fill="#63b8ff" stroke="#63b8ff" points="287.43,-202.88 288.43,-192.33 281.07,-199.95 287.43,-202.88"/>
</a>
</g>
</g>
<!-- Node25 -->
<g id="Node000025" class="node">
<title>Node25</title>
<g id="a_Node000025"><a xlink:href="tcfs_8c.html#a271df7bd878f5ed132e1f98487e8aebd" target="_top" xlink:title="Creates a hard link.">
<polygon fill="white" stroke="#666666" points="171.88,-210 119.12,-210 119.12,-190 171.88,-190 171.88,-210"/>
<text text-anchor="middle" x="145.5" y="-196.5" font-family="Helvetica,sans-Serif" font-size="10.00">tcfs_link</text>
</a>
</g>
</g>
<!-- Node22&#45;&gt;Node25 -->
<g id="edge28_Node000022_Node000025" class="edge">
<title>Node22&#45;&gt;Node25</title>
<g id="a_edge28_Node000022_Node000025"><a xlink:title=" ">
<path fill="none" stroke="#63b8ff" d="M215.31,-191.07C199.72,-193.09 184.4,-195.08 172.18,-196.67"/>
<polygon fill="#63b8ff" stroke="#63b8ff" points="215.65,-194.42 225.11,-189.67 214.75,-187.48 215.65,-194.42"/>
</a>
</g>
</g>
<!-- Node26 -->
<g id="Node000026" class="node">
<title>Node26</title>
<g id="a_Node000026"><a xlink:href="tcfs_8c.html#ae6edcf6a80467925a9a2112172395de1" target="_top" xlink:title="Lists extended attributes.">
<polygon fill="white" stroke="#666666" points="180.5,-172 110.5,-172 110.5,-152 180.5,-152 180.5,-172"/>
<text text-anchor="middle" x="145.5" y="-158.5" font-family="Helvetica,sans-Serif" font-size="10.00">tcfs_listxattr</text>
</a>
</g>
</g>
<!-- Node22&#45;&gt;Node26 -->
<g id="edge29_Node000022_Node000026" class="edge">
<title>Node22&#45;&gt;Node26</title>
<g id="a_edge29_Node000022_Node000026"><a xlink:title=" ">
<path fill="none" stroke="#63b8ff" d="M215.43,-170.95C203.27,-169.37 191.28,-167.81 180.78,-166.45"/>
<polygon fill="#63b8ff" stroke="#63b8ff" points="214.75,-174.52 225.11,-172.33 215.65,-167.58 214.75,-174.52"/>
</a>
</g>
</g>
<!-- Node27 -->
<g id="Node000027" class="node">
<title>Node27</title>
<g id="a_Node000027"><a xlink:href="tcfs_8c.html#a1241e1fcfe6bb4a5d49d8c8d4e737bcd" target="_top" xlink:title="Releases an open file.">
<polygon fill="white" stroke="#666666" points="180.12,-134 110.88,-134 110.88,-114 180.12,-114 180.12,-134"/>
<text text-anchor="middle" x="145.5" y="-120.5" font-family="Helvetica,sans-Serif" font-size="10.00">tcfs_release</text>
</a>
</g>
</g>
<!-- Node22&#45;&gt;Node27 -->
<g id="edge30_Node000022_Node000027" class="edge">
<title>Node22&#45;&gt;Node27</title>
<g id="a_edge30_Node000022_Node000027"><a xlink:title=" ">
<path fill="none" stroke="#63b8ff" d="M255.88,-166.59C230.11,-156.56 196.34,-143.41 173.18,-134.39"/>
<polygon fill="#63b8ff" stroke="#63b8ff" points="254.44,-170.18 265.03,-170.55 256.98,-163.66 254.44,-170.18"/>
</a>
</g>
</g>
<!-- Node28 -->
<g id="Node000028" class="node">
<title>Node28</title>
<g id="a_Node000028"><a xlink:href="tcfs_8c.html#acfe2c6a9467bd25a5ba6dc1a65209262" target="_top" xlink:title="Remove an extended attribute.">
<polygon fill="white" stroke="#666666" points="190.25,-96 100.75,-96 100.75,-76 190.25,-76 190.25,-96"/>
<text text-anchor="middle" x="145.5" y="-82.5" font-family="Helvetica,sans-Serif" font-size="10.00">tcfs_removexattr</text>
</a>
</g>
</g>
<!-- Node22&#45;&gt;Node28 -->
<g id="edge31_Node000022_Node000028" class="edge">
<title>Node22&#45;&gt;Node28</title>
<g id="a_edge31_Node000022_Node000028"><a xlink:title=" ">
<path fill="none" stroke="#63b8ff" d="M272.54,-163.76C252.5,-147.3 220.55,-122.49 190.25,-105 184.8,-101.85 178.73,-98.9 172.89,-96.3"/>
<polygon fill="#63b8ff" stroke="#63b8ff" points="269.94,-166.98 279.87,-170.68 274.41,-161.59 269.94,-166.98"/>
</a>
</g>
</g>
<!-- Node29 -->
<g id="Node000029" class="node">
<title>Node29</title>
<g id="a_Node000029"><a xlink:href="tcfs_8c.html#aee96b732a1569a607e63bac6fbe5c403" target="_top" xlink:title="Renames a file or a directory.">
<polygon fill="white" stroke="#666666" points="180.5,-58 110.5,-58 110.5,-38 180.5,-38 180.5,-58"/>
<text text-anchor="middle" x="145.5" y="-44.5" font-family="Helvetica,sans-Serif" font-size="10.00">tcfs_rename</text>
</a>
</g>
</g>
<!-- Node22&#45;&gt;Node29 -->
<g id="edge32_Node000022_Node000029" class="edge">
<title>Node22&#45;&gt;Node29</title>
<g id="a_edge32_Node000022_Node000029"><a xlink:title=" ">
<path fill="none" stroke="#63b8ff" d="M279.58,-161.7C261.72,-136.96 227.84,-94.05 190.25,-67 185.68,-63.71 180.45,-60.83 175.23,-58.37"/>
<polygon fill="#63b8ff" stroke="#63b8ff" points="277.18,-163.37 285.82,-169.51 282.9,-159.32 277.18,-163.37"/>
</a>
</g>
</g>
<!-- Node30 -->
<g id="Node000030" class="node">
<title>Node30</title>
<g id="a_Node000030"><a xlink:href="tcfs_8c.html#ac1d223f9b998d5af6bec3947d03be0fc" target="_top" xlink:title="Creates a symbolic link.">
<polygon fill="white" stroke="#666666" points="181.25,-20 109.75,-20 109.75,0 181.25,0 181.25,-20"/>
<text text-anchor="middle" x="145.5" y="-6.5" font-family="Helvetica,sans-Serif" font-size="10.00">tcfs_symlink</text>
</a>
</g>
</g>
<!-- Node22&#45;&gt;Node30 -->
<g id="edge33_Node000022_Node000030" class="edge">
<title>Node22&#45;&gt;Node30</title>
<g id="a_edge33_Node000022_Node000030"><a xlink:title=" ">
<path fill="none" stroke="#63b8ff" d="M283.85,-160.72C268.71,-128.77 235.38,-66.5 190.25,-29 186.17,-25.61 181.4,-22.73 176.54,-20.32"/>
<polygon fill="#63b8ff" stroke="#63b8ff" points="281.07,-162.05 288.43,-169.67 287.43,-159.12 281.07,-162.05"/>
</a>
</g>
</g>
<!-- Node24&#45;&gt;Node5 -->
<g id="edge27_Node000024_Node000005" class="edge">
<title>Node24&#45;&gt;Node5</title>
<g id="a_edge27_Node000024_Node000005"><a xlink:title=" ">
<path fill="none" stroke="#63b8ff" d="M127.3,-370.53C118.27,-381.11 107.68,-395.03 100.75,-409 58.28,-494.61 39.63,-610.64 34.74,-645.61"/>
<polygon fill="#63b8ff" stroke="#63b8ff" points="129.4,-373.3 133.4,-363.49 124.16,-368.67 129.4,-373.3"/>
</a>
</g>
</g>
<!-- Node24&#45;&gt;Node13 -->
<g id="edge26_Node000024_Node000013" class="edge">
<title>Node24&#45;&gt;Node13</title>
<g id="a_edge26_Node000024_Node000013"><a xlink:title=" ">
<path fill="none" stroke="#63b8ff" d="M99.06,-359.77C86.18,-361.97 72.55,-364.3 61.06,-366.27"/>
<polygon fill="#63b8ff" stroke="#63b8ff" points="99.38,-363.09 108.64,-357.96 98.2,-356.2 99.38,-363.09"/>
</a>
</g>
</g>
</g>
</svg>

<g id="navigator" transform="translate(0 0)" fill="#404254">
  <rect fill="#f2f5e9" fill-opacity="0.5" stroke="#606060" stroke-width=".5" x="0" y="0" width="60" height="60"/>
  <use id="zoomplus" xlink:href="#zoomPlus" x="17" y="9" onmousedown="handleZoom(evt,'in')"/>
  <use id="zoomminus" xlink:href="#zoomMin" x="42" y="9" onmousedown="handleZoom(evt,'out')"/>
  <use id="reset" xlink:href="#resetDef" x="30" y="36" onmousedown="handleReset()"/>
   <use id="arrowup" xlink:href="#arrowUp" x="0" y="0" onmousedown="handlePan(0,-1)"/>
  <use id="arrowright" xlink:href="#arrowRight" x="0" y="0" onmousedown="handlePan(1,0)"/>
  <use id="arrowdown" xlink:href="#arrowDown" x="0" y="0" onmousedown="handlePan(0,1)"/>
  <use id="arrowleft" xlink:href="#arrowLeft" x="0" y="0" onmousedown="handlePan(-1,0)"/>
</g>
<svg viewBox="0 0 15 15" width="100%" height="30px" preserveAspectRatio="xMaxYMin meet">
 <g id="arrow_out" transform="scale(0.3 0.3)">
  <a xlink:href="tcfs__utils_8c_a819d57d5c053a25772508a943d1bcc48_icgraph_org.svg" target="_base">
   <rect id="button" ry="5" rx="5" y="6" x="6" height="38" width="38"
        fill="#f2f5e9" fill-opacity="0.5" stroke="#606060" stroke-width="1.0"/>
   <path id="arrow"
     d="M 11.500037,31.436501 C 11.940474,20.09759 22.043105,11.32322 32.158766,21.979434 L 37.068811,17.246167 C 37.068811,17.246167 37.088388,32 37.088388,32 L 22.160133,31.978069 C 22.160133,31.978069 26.997745,27.140456 26.997745,27.140456 C 18.528582,18.264221 13.291696,25.230495 11.500037,31.436501 z"
     style="fill:#404040;"/>
  </a>
 </g>
</svg>

<style type='text/css'>
<![CDATA[
[data-mouse-over-selected='false'] { opacity: 0.7; }
[data-mouse-over-selected='true']  { opacity: 1.0; }
]]>
</style>
<script type="application/ecmascript"><![CDATA[
document.addEventListener('DOMContentLoaded', (event) => {
  highlightEdges();
  highlightAdjacentNodes();
});
]]></script>
</svg>
