<?xml version="1.0" encoding="UTF-8" standalone="no"?>
<!DOCTYPE svg PUBLIC "-//W3C//DTD SVG 1.1//EN"
 "http://www.w3.org/Graphics/SVG/1.1/DTD/svg11.dtd">
<!-- Generated by graphviz version 7.1.0 (0)
 -->
<!-- Title: daemon/tcfs_daemon.c Pages: 1 -->
<!--zoomable 335 -->

<svg id="main" version="1.1" xmlns="http://www.w3.org/2000/svg" xmlns:xlink="http://www.w3.org/1999/xlink" xml:space="preserve" onload="init(evt)">
<style type="text/css"><![CDATA[
.node, .edge {opacity: 0.7;}
.node.selected, .edge.selected {opacity: 1;}
.edge:hover path { stroke: red; }
.edge:hover polygon { stroke: red; fill: red; }
]]></style>

<defs>
  <circle id="rim" cx="0" cy="0" r="7"/>
  <circle id="rim2" cx="0" cy="0" r="3.5"/>
  <g id="zoomPlus">
    <use xlink:href="#rim" fill="#404040"><set attributeName="fill" to="#808080" begin="zoomplus.mouseover" end="zoomplus.mouseout"/></use>
    <path d="M-4,0h8M0,-4v8" fill="none" stroke="white" stroke-width="1.5" pointer-events="none"/>
  </g>
  <g id="zoomMin">
    <use xlink:href="#rim" fill="#404040"><set attributeName="fill" to="#808080" begin="zoomminus.mouseover" end="zoomminus.mouseout"/></use>
    <path d="M-4,0h8" fill="none" stroke="white" stroke-width="1.5" pointer-events="none"/>
  </g>
  <g id="arrowUp" transform="translate(30 24)">
    <use xlink:href="#rim"/>
    <path pointer-events="none" fill="none" stroke="white" stroke-width="1.5" d="M0,-3.0v7 M-2.5,-0.5L0,-3.0L2.5,-0.5"/>
  </g>
  <g id="arrowRight" transform="rotate(90) translate(36 -43)">
    <use xlink:href="#rim"/>
    <path pointer-events="none" fill="none" stroke="white" stroke-width="1.5" d="M0,-3.0v7 M-2.5,-0.5L0,-3.0L2.5,-0.5"/>
  </g>
  <g id="arrowDown" transform="rotate(180) translate(-30 -48)">
    <use xlink:href="#rim"/>
    <path pointer-events="none" fill="none" stroke="white" stroke-width="1.5" d="M0,-3.0v7 M-2.5,-0.5L0,-3.0L2.5,-0.5"/>
  </g>
  <g id="arrowLeft" transform="rotate(270) translate(-36 17)">
    <use xlink:href="#rim"/>
    <path pointer-events="none" fill="none" stroke="white" stroke-width="1.5" d="M0,-3.0v7 M-2.5,-0.5L0,-3.0L2.5,-0.5"/>
  </g>
  <g id="resetDef">
    <use xlink:href="#rim2" fill="#404040"><set attributeName="fill" to="#808080" begin="reset.mouseover" end="reset.mouseout"/></use>
  </g>
</defs>
<script type="application/ecmascript">
var viewWidth = 915;
var viewHeight = 335;
var sectionId = 'dynsection-0';
</script>
<script type="application/ecmascript" xlink:href="svg.min.js"/>
<svg id="graph" class="graph">
<g id="viewport">
<title>daemon/tcfs_daemon.c</title>
<!-- Node1 -->
<g id="Node000001" class="node">
<title>Node1</title>
<g id="a_Node000001"><a xlink:title="This is the core of the daemon.">
<polygon fill="#999999" stroke="#666666" points="574.2,-327 455.2,-327 455.2,-308 574.2,-308 574.2,-327"/>
<text text-anchor="middle" x="514.7" y="-315" font-family="Helvetica,sans-Serif" font-size="10.00">daemon/tcfs_daemon.c</text>
</a>
</g>
</g>
<!-- Node2 -->
<g id="Node000002" class="node">
<title>Node2</title>
<g id="a_Node000002"><a xlink:href="tcfs__daemon__tools_8h_source.html" target="_top" xlink:title=" ">
<polygon fill="white" stroke="#666666" points="583.2,-272 446.2,-272 446.2,-242 583.2,-242 583.2,-272"/>
<text text-anchor="start" x="454.2" y="-260" font-family="Helvetica,sans-Serif" font-size="10.00">daemon_utils/daemon</text>
<text text-anchor="middle" x="514.7" y="-249" font-family="Helvetica,sans-Serif" font-size="10.00">_tools/tcfs_daemon_tools.h</text>
</a>
</g>
</g>
<!-- Node1&#45;&gt;Node2 -->
<g id="edge1_Node000001_Node000002" class="edge">
<title>Node1&#45;&gt;Node2</title>
<g id="a_edge1_Node000001_Node000002"><a xlink:title=" ">
<path fill="none" stroke="#63b8ff" d="M514.7,-307.87C514.7,-301.4 514.7,-292.2 514.7,-283.45"/>
<polygon fill="#63b8ff" stroke="#63b8ff" points="518.2,-283.63 514.7,-273.63 511.2,-283.63 518.2,-283.63"/>
</a>
</g>
</g>
<!-- Node3 -->
<g id="Node000003" class="node">
<title>Node3</title>
<g id="a_Node000003"><a xlink:href="message__handler_8h_source.html" target="_top" xlink:title=" ">
<polygon fill="white" stroke="#666666" points="448.7,-206 344.7,-206 344.7,-176 448.7,-176 448.7,-206"/>
<text text-anchor="start" x="352.7" y="-194" font-family="Helvetica,sans-Serif" font-size="10.00">../message_handler</text>
<text text-anchor="middle" x="396.7" y="-183" font-family="Helvetica,sans-Serif" font-size="10.00">/message_handler.h</text>
</a>
</g>
</g>
<!-- Node2&#45;&gt;Node3 -->
<g id="edge2_Node000002_Node000003" class="edge">
<title>Node2&#45;&gt;Node3</title>
<g id="a_edge2_Node000002_Node000003"><a xlink:title=" ">
<path fill="none" stroke="#63b8ff" d="M488.22,-241.64C471.98,-232.83 450.95,-221.42 433.15,-211.77"/>
<polygon fill="#63b8ff" stroke="#63b8ff" points="434.89,-208.73 424.43,-207.04 431.55,-214.88 434.89,-208.73"/>
</a>
</g>
</g>
<!-- Node5 -->
<g id="Node000005" class="node">
<title>Node5</title>
<g id="a_Node000005"><a xlink:title=" ">
<polygon fill="#e0e0e0" stroke="#999999" points="166.7,-19 106.7,-19 106.7,0 166.7,0 166.7,-19"/>
<text text-anchor="middle" x="136.7" y="-7" font-family="Helvetica,sans-Serif" font-size="10.00">sys/stat.h</text>
</a>
</g>
</g>
<!-- Node2&#45;&gt;Node5 -->
<g id="edge30_Node000002_Node000005" class="edge">
<title>Node2&#45;&gt;Node5</title>
<g id="a_edge30_Node000002_Node000005"><a xlink:title=" ">
<path fill="none" stroke="#63b8ff" d="M445.83,-253.43C346.47,-248.73 168.7,-236.26 112.7,-206 42.32,-167.96 -31.16,-120.55 14.7,-55 32.77,-29.19 67.46,-18.29 95.25,-13.73"/>
<polygon fill="#63b8ff" stroke="#63b8ff" points="95.37,-17.24 104.78,-12.39 94.39,-10.31 95.37,-17.24"/>
</a>
</g>
</g>
<!-- Node7 -->
<g id="Node000007" class="node">
<title>Node7</title>
<g id="a_Node000007"><a xlink:title=" ">
<polygon fill="#e0e0e0" stroke="#999999" points="524.7,-19 480.7,-19 480.7,0 524.7,0 524.7,-19"/>
<text text-anchor="middle" x="502.7" y="-7" font-family="Helvetica,sans-Serif" font-size="10.00">fcntl.h</text>
</a>
</g>
</g>
<!-- Node2&#45;&gt;Node7 -->
<g id="edge24_Node000002_Node000007" class="edge">
<title>Node2&#45;&gt;Node7</title>
<g id="a_edge24_Node000002_Node000007"><a xlink:title=" ">
<path fill="none" stroke="#63b8ff" d="M509.6,-241.78C506.33,-231.89 502.4,-218.32 500.7,-206 491.94,-142.21 497.26,-65.61 500.61,-30.21"/>
<polygon fill="#63b8ff" stroke="#63b8ff" points="504.05,-30.94 501.57,-20.64 497.09,-30.24 504.05,-30.94"/>
</a>
</g>
</g>
<!-- Node9 -->
<g id="Node000009" class="node">
<title>Node9</title>
<g id="a_Node000009"><a xlink:title=" ">
<polygon fill="#e0e0e0" stroke="#999999" points="594.2,-19 543.2,-19 543.2,0 594.2,0 594.2,-19"/>
<text text-anchor="middle" x="568.7" y="-7" font-family="Helvetica,sans-Serif" font-size="10.00">unistd.h</text>
</a>
</g>
</g>
<!-- Node2&#45;&gt;Node9 -->
<g id="edge32_Node000002_Node000009" class="edge">
<title>Node2&#45;&gt;Node9</title>
<g id="a_edge32_Node000002_Node000009"><a xlink:title=" ">
<path fill="none" stroke="#63b8ff" d="M517.84,-241.74C527.02,-200.03 553.82,-78.19 564.37,-30.23"/>
<polygon fill="#63b8ff" stroke="#63b8ff" points="567.73,-31.25 566.46,-20.73 560.89,-29.74 567.73,-31.25"/>
</a>
</g>
</g>
<!-- Node14 -->
<g id="Node000014" class="node">
<title>Node14</title>
<g id="a_Node000014"><a xlink:title=" ">
<polygon fill="#e0e0e0" stroke="#999999" points="71.7,-74 23.7,-74 23.7,-55 71.7,-55 71.7,-74"/>
<text text-anchor="middle" x="47.7" y="-62" font-family="Helvetica,sans-Serif" font-size="10.00">stdlib.h</text>
</a>
</g>
</g>
<!-- Node2&#45;&gt;Node14 -->
<g id="edge28_Node000002_Node000014" class="edge">
<title>Node2&#45;&gt;Node14</title>
<g id="a_edge28_Node000002_Node000014"><a xlink:title=" ">
<path fill="none" stroke="#63b8ff" d="M445.9,-253.83C377.3,-249.79 269.87,-238.34 182.7,-206 131.03,-186.82 113.05,-182.29 77.7,-140 64.31,-123.97 56.32,-101.19 51.99,-85.05"/>
<polygon fill="#63b8ff" stroke="#63b8ff" points="55.48,-84.59 49.73,-75.69 48.68,-86.23 55.48,-84.59"/>
</a>
</g>
</g>
<!-- Node16 -->
<g id="Node000016" class="node">
<title>Node16</title>
<g id="a_Node000016"><a xlink:href="queue_8h_source.html" target="_top" xlink:title=" ">
<polygon fill="white" stroke="#666666" points="281.2,-200.5 192.2,-200.5 192.2,-181.5 281.2,-181.5 281.2,-200.5"/>
<text text-anchor="middle" x="236.7" y="-188.5" font-family="Helvetica,sans-Serif" font-size="10.00">../queue/queue.h</text>
</a>
</g>
</g>
<!-- Node2&#45;&gt;Node16 -->
<g id="edge17_Node000002_Node000016" class="edge">
<title>Node2&#45;&gt;Node16</title>
<g id="a_edge17_Node000002_Node000016"><a xlink:title=" ">
<path fill="none" stroke="#63b8ff" d="M451.97,-241.56C401.96,-230.05 332.89,-214.14 286.6,-203.49"/>
<polygon fill="#63b8ff" stroke="#63b8ff" points="287.64,-200.14 277.11,-201.3 286.07,-206.96 287.64,-200.14"/>
</a>
</g>
</g>
<!-- Node18 -->
<g id="Node000018" class="node">
<title>Node18</title>
<g id="a_Node000018"><a xlink:title=" ">
<polygon fill="#e0e0e0" stroke="#999999" points="600.2,-200.5 543.2,-200.5 543.2,-181.5 600.2,-181.5 600.2,-200.5"/>
<text text-anchor="middle" x="571.7" y="-188.5" font-family="Helvetica,sans-Serif" font-size="10.00">pthread.h</text>
</a>
</g>
</g>
<!-- Node2&#45;&gt;Node18 -->
<g id="edge25_Node000002_Node000018" class="edge">
<title>Node2&#45;&gt;Node18</title>
<g id="a_edge25_Node000002_Node000018"><a xlink:title=" ">
<path fill="none" stroke="#63b8ff" d="M527.36,-241.8C535.89,-232.21 547.21,-219.5 556.28,-209.32"/>
<polygon fill="#63b8ff" stroke="#63b8ff" points="558.78,-211.77 562.82,-201.97 553.56,-207.11 558.78,-211.77"/>
</a>
</g>
</g>
<!-- Node19 -->
<g id="Node000019" class="node">
<title>Node19</title>
<g id="a_Node000019"><a xlink:title=" ">
<polygon fill="#e0e0e0" stroke="#999999" points="668.7,-200.5 618.7,-200.5 618.7,-181.5 668.7,-181.5 668.7,-200.5"/>
<text text-anchor="middle" x="643.7" y="-188.5" font-family="Helvetica,sans-Serif" font-size="10.00">signal.h</text>
</a>
</g>
</g>
<!-- Node2&#45;&gt;Node19 -->
<g id="edge26_Node000002_Node000019" class="edge">
<title>Node2&#45;&gt;Node19</title>
<g id="a_edge26_Node000002_Node000019"><a xlink:title=" ">
<path fill="none" stroke="#63b8ff" d="M543.66,-241.64C565.13,-230.98 594.26,-216.53 615.55,-205.97"/>
<polygon fill="#63b8ff" stroke="#63b8ff" points="616.83,-209.24 624.24,-201.66 613.72,-202.97 616.83,-209.24"/>
</a>
</g>
</g>
<!-- Node20 -->
<g id="Node000020" class="node">
<title>Node20</title>
<g id="a_Node000020"><a xlink:title=" ">
<polygon fill="#e0e0e0" stroke="#999999" points="742.7,-200.5 686.7,-200.5 686.7,-181.5 742.7,-181.5 742.7,-200.5"/>
<text text-anchor="middle" x="714.7" y="-188.5" font-family="Helvetica,sans-Serif" font-size="10.00">stdbool.h</text>
</a>
</g>
</g>
<!-- Node2&#45;&gt;Node20 -->
<g id="edge27_Node000002_Node000020" class="edge">
<title>Node2&#45;&gt;Node20</title>
<g id="a_edge27_Node000002_Node000020"><a xlink:title=" ">
<path fill="none" stroke="#63b8ff" d="M564.91,-241.51C597.28,-231.94 640.18,-218.84 677.7,-206 678.84,-205.61 680,-205.21 681.16,-204.8"/>
<polygon fill="#63b8ff" stroke="#63b8ff" points="682.07,-208.19 690.27,-201.48 679.68,-201.61 682.07,-208.19"/>
</a>
</g>
</g>
<!-- Node21 -->
<g id="Node000021" class="node">
<title>Node21</title>
<g id="a_Node000021"><a xlink:title=" ">
<polygon fill="#e0e0e0" stroke="#999999" points="834.2,-200.5 761.2,-200.5 761.2,-181.5 834.2,-181.5 834.2,-200.5"/>
<text text-anchor="middle" x="797.7" y="-188.5" font-family="Helvetica,sans-Serif" font-size="10.00">sys/socket.h</text>
</a>
</g>
</g>
<!-- Node2&#45;&gt;Node21 -->
<g id="edge29_Node000002_Node000021" class="edge">
<title>Node2&#45;&gt;Node21</title>
<g id="a_edge29_Node000002_Node000021"><a xlink:title=" ">
<path fill="none" stroke="#63b8ff" d="M583.52,-243.14C631.02,-233.85 695.5,-220.45 751.7,-206 753.98,-205.42 756.31,-204.79 758.65,-204.14"/>
<polygon fill="#63b8ff" stroke="#63b8ff" points="759.5,-207.54 768.14,-201.4 757.56,-200.81 759.5,-207.54"/>
</a>
</g>
</g>
<!-- Node22 -->
<g id="Node000022" class="node">
<title>Node22</title>
<g id="a_Node000022"><a xlink:title=" ">
<polygon fill="#e0e0e0" stroke="#999999" points="906.7,-200.5 852.7,-200.5 852.7,-181.5 906.7,-181.5 906.7,-200.5"/>
<text text-anchor="middle" x="879.7" y="-188.5" font-family="Helvetica,sans-Serif" font-size="10.00">sys/un.h</text>
</a>
</g>
</g>
<!-- Node2&#45;&gt;Node22 -->
<g id="edge31_Node000002_Node000022" class="edge">
<title>Node2&#45;&gt;Node22</title>
<g id="a_edge31_Node000002_Node000022"><a xlink:title=" ">
<path fill="none" stroke="#63b8ff" d="M583.66,-249.98C650.86,-243.07 755.51,-229.54 843.7,-206 845.28,-205.58 846.89,-205.11 848.5,-204.61"/>
<polygon fill="#63b8ff" stroke="#63b8ff" points="849.31,-208.03 857.6,-201.43 847,-201.42 849.31,-208.03"/>
</a>
</g>
</g>
<!-- Node4 -->
<g id="Node000004" class="node">
<title>Node4</title>
<g id="a_Node000004"><a xlink:href="common_8h.html" target="_top" xlink:title="This file contains some common definitions and structs used by the daemon.">
<polygon fill="white" stroke="#666666" points="432.2,-74 361.2,-74 361.2,-55 432.2,-55 432.2,-74"/>
<text text-anchor="middle" x="396.7" y="-62" font-family="Helvetica,sans-Serif" font-size="10.00">../common.h</text>
</a>
</g>
</g>
<!-- Node3&#45;&gt;Node4 -->
<g id="edge3_Node000003_Node000004" class="edge">
<title>Node3&#45;&gt;Node4</title>
<g id="a_edge3_Node000003_Node000004"><a xlink:title=" ">
<path fill="none" stroke="#63b8ff" d="M403.26,-175.92C407.46,-166.09 412.52,-152.54 414.7,-140 417,-126.87 417.25,-123.09 414.7,-110 413.03,-101.42 409.71,-92.39 406.37,-84.73"/>
<polygon fill="#63b8ff" stroke="#63b8ff" points="409.57,-83.31 402.14,-75.76 403.23,-86.3 409.57,-83.31"/>
</a>
</g>
</g>
<!-- Node12 -->
<g id="Node000012" class="node">
<title>Node12</title>
<g id="a_Node000012"><a xlink:href="print__utils_8h_source.html" target="_top" xlink:title=" ">
<polygon fill="white" stroke="#666666" points="246.7,-140 138.7,-140 138.7,-110 246.7,-110 246.7,-140"/>
<text text-anchor="start" x="146.7" y="-128" font-family="Helvetica,sans-Serif" font-size="10.00">../common_utils/print</text>
<text text-anchor="middle" x="192.7" y="-117" font-family="Helvetica,sans-Serif" font-size="10.00">/print_utils.h</text>
</a>
</g>
</g>
<!-- Node3&#45;&gt;Node12 -->
<g id="edge11_Node000003_Node000012" class="edge">
<title>Node3&#45;&gt;Node12</title>
<g id="a_edge11_Node000003_Node000012"><a xlink:title=" ">
<path fill="none" stroke="#63b8ff" d="M350.67,-175.56C320.71,-166.16 281.42,-153.83 249.52,-143.82"/>
<polygon fill="#63b8ff" stroke="#63b8ff" points="250.61,-140.5 240.02,-140.84 248.51,-147.18 250.61,-140.5"/>
</a>
</g>
</g>
<!-- Node4&#45;&gt;Node5 -->
<g id="edge4_Node000004_Node000005" class="edge">
<title>Node4&#45;&gt;Node5</title>
<g id="a_edge4_Node000004_Node000005"><a xlink:title=" ">
<path fill="none" stroke="#63b8ff" d="M361.07,-56.51C319.5,-48.31 248.39,-34.16 177.79,-19.41"/>
<polygon fill="#63b8ff" stroke="#63b8ff" points="178.91,-16.07 168.41,-17.45 177.48,-22.92 178.91,-16.07"/>
</a>
</g>
</g>
<!-- Node6 -->
<g id="Node000006" class="node">
<title>Node6</title>
<g id="a_Node000006"><a xlink:title=" ">
<polygon fill="#e0e0e0" stroke="#999999" points="462.7,-19 394.7,-19 394.7,0 462.7,0 462.7,-19"/>
<text text-anchor="middle" x="428.7" y="-7" font-family="Helvetica,sans-Serif" font-size="10.00">sys/types.h</text>
</a>
</g>
</g>
<!-- Node4&#45;&gt;Node6 -->
<g id="edge5_Node000004_Node000006" class="edge">
<title>Node4&#45;&gt;Node6</title>
<g id="a_edge5_Node000004_Node000006"><a xlink:title=" ">
<path fill="none" stroke="#63b8ff" d="M401.99,-54.75C406.18,-47.81 412.18,-37.86 417.44,-29.16"/>
<polygon fill="#63b8ff" stroke="#63b8ff" points="420.35,-31.11 422.52,-20.74 414.36,-27.49 420.35,-31.11"/>
</a>
</g>
</g>
<!-- Node4&#45;&gt;Node7 -->
<g id="edge6_Node000004_Node000007" class="edge">
<title>Node4&#45;&gt;Node7</title>
<g id="a_edge6_Node000004_Node000007"><a xlink:title=" ">
<path fill="none" stroke="#63b8ff" d="M414.69,-54.51C431.16,-46.27 455.79,-33.96 474.81,-24.45"/>
<polygon fill="#63b8ff" stroke="#63b8ff" points="476.26,-27.64 483.64,-20.03 473.13,-21.38 476.26,-27.64"/>
</a>
</g>
</g>
<!-- Node8 -->
<g id="Node000008" class="node">
<title>Node8</title>
<g id="a_Node000008"><a xlink:title=" ">
<polygon fill="#e0e0e0" stroke="#999999" points="309.2,-19 250.2,-19 250.2,0 309.2,0 309.2,-19"/>
<text text-anchor="middle" x="279.7" y="-7" font-family="Helvetica,sans-Serif" font-size="10.00">mqueue.h</text>
</a>
</g>
</g>
<!-- Node4&#45;&gt;Node8 -->
<g id="edge7_Node000004_Node000008" class="edge">
<title>Node4&#45;&gt;Node8</title>
<g id="a_edge7_Node000004_Node000008"><a xlink:title=" ">
<path fill="none" stroke="#63b8ff" d="M376.86,-54.51C358.43,-46.16 330.73,-33.61 309.61,-24.05"/>
<polygon fill="#63b8ff" stroke="#63b8ff" points="311.19,-20.92 300.64,-19.98 308.3,-27.3 311.19,-20.92"/>
</a>
</g>
</g>
<!-- Node4&#45;&gt;Node9 -->
<g id="edge8_Node000004_Node000009" class="edge">
<title>Node4&#45;&gt;Node9</title>
<g id="a_edge8_Node000004_Node000009"><a xlink:title=" ">
<path fill="none" stroke="#63b8ff" d="M425.88,-54.51C455.2,-45.47 500.48,-31.52 532.17,-21.76"/>
<polygon fill="#63b8ff" stroke="#63b8ff" points="532.79,-25.23 541.32,-18.94 530.73,-18.54 532.79,-25.23"/>
</a>
</g>
</g>
<!-- Node10 -->
<g id="Node000010" class="node">
<title>Node10</title>
<g id="a_Node000010"><a xlink:title=" ">
<polygon fill="#e0e0e0" stroke="#999999" points="376.2,-19 327.2,-19 327.2,0 376.2,0 376.2,-19"/>
<text text-anchor="middle" x="351.7" y="-7" font-family="Helvetica,sans-Serif" font-size="10.00">string.h</text>
</a>
</g>
</g>
<!-- Node4&#45;&gt;Node10 -->
<g id="edge9_Node000004_Node000010" class="edge">
<title>Node4&#45;&gt;Node10</title>
<g id="a_edge9_Node000004_Node000010"><a xlink:title=" ">
<path fill="none" stroke="#63b8ff" d="M389.27,-54.75C383.12,-47.5 374.19,-36.98 366.58,-28.02"/>
<polygon fill="#63b8ff" stroke="#63b8ff" points="369.42,-25.95 360.28,-20.6 364.08,-30.48 369.42,-25.95"/>
</a>
</g>
</g>
<!-- Node11 -->
<g id="Node000011" class="node">
<title>Node11</title>
<g id="a_Node000011"><a xlink:title=" ">
<polygon fill="#e0e0e0" stroke="#999999" points="232.2,-19 185.2,-19 185.2,0 232.2,0 232.2,-19"/>
<text text-anchor="middle" x="208.7" y="-7" font-family="Helvetica,sans-Serif" font-size="10.00">errno.h</text>
</a>
</g>
</g>
<!-- Node4&#45;&gt;Node11 -->
<g id="edge10_Node000004_Node000011" class="edge">
<title>Node4&#45;&gt;Node11</title>
<g id="a_edge10_Node000004_Node000011"><a xlink:title=" ">
<path fill="none" stroke="#63b8ff" d="M364.81,-54.51C331.21,-45.04 278.45,-30.16 243.71,-20.37"/>
<polygon fill="#63b8ff" stroke="#63b8ff" points="244.71,-17.01 234.14,-17.67 242.81,-23.75 244.71,-17.01"/>
</a>
</g>
</g>
<!-- Node12&#45;&gt;Node5 -->
<g id="edge15_Node000012_Node000005" class="edge">
<title>Node12&#45;&gt;Node5</title>
<g id="a_edge15_Node000012_Node000005"><a xlink:title=" ">
<path fill="none" stroke="#63b8ff" d="M185.61,-109.63C175.59,-89.31 157.25,-52.15 146.11,-29.55"/>
<polygon fill="#63b8ff" stroke="#63b8ff" points="149.25,-28.01 141.68,-20.59 142.97,-31.1 149.25,-28.01"/>
</a>
</g>
</g>
<!-- Node12&#45;&gt;Node11 -->
<g id="edge12_Node000012_Node000011" class="edge">
<title>Node12&#45;&gt;Node11</title>
<g id="a_edge12_Node000012_Node000011"><a xlink:title=" ">
<path fill="none" stroke="#63b8ff" d="M239.47,-109.5C267.64,-99.72 299.59,-86.38 307.7,-74 312.34,-66.94 312.29,-62.09 307.7,-55 300.17,-43.35 268.56,-30.39 243.06,-21.47"/>
<polygon fill="#63b8ff" stroke="#63b8ff" points="244.27,-18.18 233.67,-18.28 242.01,-24.81 244.27,-18.18"/>
</a>
</g>
</g>
<!-- Node13 -->
<g id="Node000013" class="node">
<title>Node13</title>
<g id="a_Node000013"><a xlink:title=" ">
<polygon fill="#e0e0e0" stroke="#999999" points="135.7,-74 89.7,-74 89.7,-55 135.7,-55 135.7,-74"/>
<text text-anchor="middle" x="112.7" y="-62" font-family="Helvetica,sans-Serif" font-size="10.00">stdio.h</text>
</a>
</g>
</g>
<!-- Node12&#45;&gt;Node13 -->
<g id="edge13_Node000012_Node000013" class="edge">
<title>Node12&#45;&gt;Node13</title>
<g id="a_edge13_Node000012_Node000013"><a xlink:title=" ">
<path fill="none" stroke="#63b8ff" d="M172.93,-109.54C160.95,-100.78 145.7,-89.63 133.54,-80.73"/>
<polygon fill="#63b8ff" stroke="#63b8ff" points="135.93,-78.15 125.79,-75.07 131.8,-83.8 135.93,-78.15"/>
</a>
</g>
</g>
<!-- Node12&#45;&gt;Node14 -->
<g id="edge14_Node000012_Node000014" class="edge">
<title>Node12&#45;&gt;Node14</title>
<g id="a_edge14_Node000012_Node000014"><a xlink:title=" ">
<path fill="none" stroke="#63b8ff" d="M156.86,-109.54C133.37,-100.06 102.9,-87.77 80.13,-78.58"/>
<polygon fill="#63b8ff" stroke="#63b8ff" points="81.62,-75.41 71.03,-74.91 79,-81.9 81.62,-75.41"/>
</a>
</g>
</g>
<!-- Node15 -->
<g id="Node000015" class="node">
<title>Node15</title>
<g id="a_Node000015"><a xlink:title=" ">
<polygon fill="#e0e0e0" stroke="#999999" points="299.2,-74 192.2,-74 192.2,-55 299.2,-55 299.2,-74"/>
<text text-anchor="middle" x="245.7" y="-62" font-family="Helvetica,sans-Serif" font-size="10.00">systemd/sd&#45;journal.h</text>
</a>
</g>
</g>
<!-- Node12&#45;&gt;Node15 -->
<g id="edge16_Node000012_Node000015" class="edge">
<title>Node12&#45;&gt;Node15</title>
<g id="a_edge16_Node000012_Node000015"><a xlink:title=" ">
<path fill="none" stroke="#63b8ff" d="M205.81,-109.54C213.19,-101.39 222.46,-91.16 230.2,-82.61"/>
<polygon fill="#63b8ff" stroke="#63b8ff" points="232.71,-85.06 236.83,-75.3 227.52,-80.36 232.71,-85.06"/>
</a>
</g>
</g>
<!-- Node16&#45;&gt;Node4 -->
<g id="edge18_Node000016_Node000004" class="edge">
<title>Node16&#45;&gt;Node4</title>
<g id="a_edge18_Node000016_Node000004"><a xlink:title=" ">
<path fill="none" stroke="#63b8ff" d="M281.45,-185.95C313.64,-180.63 355.64,-168.35 380.7,-140 393.97,-125 397.14,-101.68 397.52,-85.13"/>
<polygon fill="#63b8ff" stroke="#63b8ff" points="401.02,-85.52 397.4,-75.56 394.03,-85.6 401.02,-85.52"/>
</a>
</g>
</g>
<!-- Node16&#45;&gt;Node12 -->
<g id="edge21_Node000016_Node000012" class="edge">
<title>Node16&#45;&gt;Node12</title>
<g id="a_edge21_Node000016_Node000012"><a xlink:title=" ">
<path fill="none" stroke="#63b8ff" d="M230.59,-181.1C224.96,-172.92 216.37,-160.42 208.79,-149.4"/>
<polygon fill="#63b8ff" stroke="#63b8ff" points="211.9,-147.74 203.35,-141.48 206.13,-151.7 211.9,-147.74"/>
</a>
</g>
</g>
<!-- Node16&#45;&gt;Node13 -->
<g id="edge22_Node000016_Node000013" class="edge">
<title>Node16&#45;&gt;Node13</title>
<g id="a_edge22_Node000016_Node000013"><a xlink:title=" ">
<path fill="none" stroke="#63b8ff" d="M197.94,-181.08C174.83,-173.79 146.77,-161.14 129.7,-140 117.35,-124.69 113.6,-102.1 112.64,-85.82"/>
<polygon fill="#63b8ff" stroke="#63b8ff" points="116.14,-85.79 112.39,-75.88 109.14,-85.97 116.14,-85.79"/>
</a>
</g>
</g>
<!-- Node16&#45;&gt;Node14 -->
<g id="edge23_Node000016_Node000014" class="edge">
<title>Node16&#45;&gt;Node14</title>
<g id="a_edge23_Node000016_Node000014"><a xlink:title=" ">
<path fill="none" stroke="#63b8ff" d="M202.72,-181.04C176.52,-173.05 140.22,-159.58 112.7,-140 90.7,-124.34 71.19,-99.79 59.42,-83.19"/>
<polygon fill="#63b8ff" stroke="#63b8ff" points="62.54,-81.55 54,-75.28 56.76,-85.51 62.54,-81.55"/>
</a>
</g>
</g>
<!-- Node17 -->
<g id="Node000017" class="node">
<title>Node17</title>
<g id="a_Node000017"><a xlink:href="json__tools_8h_source.html" target="_top" xlink:title=" ">
<polygon fill="white" stroke="#666666" points="372.2,-140 265.2,-140 265.2,-110 372.2,-110 372.2,-140"/>
<text text-anchor="start" x="273.2" y="-128" font-family="Helvetica,sans-Serif" font-size="10.00">../common_utils/json</text>
<text text-anchor="middle" x="318.7" y="-117" font-family="Helvetica,sans-Serif" font-size="10.00">/json_tools.h</text>
</a>
</g>
</g>
<!-- Node16&#45;&gt;Node17 -->
<g id="edge19_Node000016_Node000017" class="edge">
<title>Node16&#45;&gt;Node17</title>
<g id="a_edge19_Node000016_Node000017"><a xlink:title=" ">
<path fill="none" stroke="#63b8ff" d="M248.11,-181.1C259.26,-172.4 276.66,-158.81 291.4,-147.31"/>
<polygon fill="#63b8ff" stroke="#63b8ff" points="293.23,-150.32 298.96,-141.41 288.93,-144.8 293.23,-150.32"/>
</a>
</g>
</g>
<!-- Node17&#45;&gt;Node4 -->
<g id="edge20_Node000017_Node000004" class="edge">
<title>Node17&#45;&gt;Node4</title>
<g id="a_edge20_Node000017_Node000004"><a xlink:title=" ">
<path fill="none" stroke="#63b8ff" d="M337.99,-109.54C349.55,-100.87 364.24,-89.85 376.04,-81"/>
<polygon fill="#63b8ff" stroke="#63b8ff" points="378.03,-83.88 383.93,-75.08 373.83,-78.28 378.03,-83.88"/>
</a>
</g>
</g>
</g>
</svg>

<g id="navigator" transform="translate(0 0)" fill="#404254">
  <rect fill="#f2f5e9" fill-opacity="0.5" stroke="#606060" stroke-width=".5" x="0" y="0" width="60" height="60"/>
  <use id="zoomplus" xlink:href="#zoomPlus" x="17" y="9" onmousedown="handleZoom(evt,'in')"/>
  <use id="zoomminus" xlink:href="#zoomMin" x="42" y="9" onmousedown="handleZoom(evt,'out')"/>
  <use id="reset" xlink:href="#resetDef" x="30" y="36" onmousedown="handleReset()"/>
   <use id="arrowup" xlink:href="#arrowUp" x="0" y="0" onmousedown="handlePan(0,-1)"/>
  <use id="arrowright" xlink:href="#arrowRight" x="0" y="0" onmousedown="handlePan(1,0)"/>
  <use id="arrowdown" xlink:href="#arrowDown" x="0" y="0" onmousedown="handlePan(0,1)"/>
  <use id="arrowleft" xlink:href="#arrowLeft" x="0" y="0" onmousedown="handlePan(-1,0)"/>
</g>
<svg viewBox="0 0 15 15" width="100%" height="30px" preserveAspectRatio="xMaxYMin meet">
 <g id="arrow_out" transform="scale(0.3 0.3)">
  <a xlink:href="tcfs__daemon_8c__incl_org.svg" target="_base">
   <rect id="button" ry="5" rx="5" y="6" x="6" height="38" width="38"
        fill="#f2f5e9" fill-opacity="0.5" stroke="#606060" stroke-width="1.0"/>
   <path id="arrow"
     d="M 11.500037,31.436501 C 11.940474,20.09759 22.043105,11.32322 32.158766,21.979434 L 37.068811,17.246167 C 37.068811,17.246167 37.088388,32 37.088388,32 L 22.160133,31.978069 C 22.160133,31.978069 26.997745,27.140456 26.997745,27.140456 C 18.528582,18.264221 13.291696,25.230495 11.500037,31.436501 z"
     style="fill:#404040;"/>
  </a>
 </g>
</svg>

<style type='text/css'>
<![CDATA[
[data-mouse-over-selected='false'] { opacity: 0.7; }
[data-mouse-over-selected='true']  { opacity: 1.0; }
]]>
</style>
<script type="application/ecmascript"><![CDATA[
document.addEventListener('DOMContentLoaded', (event) => {
  highlightEdges();
  highlightAdjacentNodes();
});
]]></script>
</svg>
