<?xml version="1.0" encoding="UTF-8" standalone="no"?>
<!DOCTYPE svg PUBLIC "-//W3C//DTD SVG 1.1//EN"
 "http://www.w3.org/Graphics/SVG/1.1/DTD/svg11.dtd">
<!-- Generated by graphviz version 7.1.0 (0)
 -->
<!-- Title: daemon/tcfs_daemon.c Pages: 1 -->
<svg width="958pt" height="335pt"
 viewBox="0.00 0.00 957.50 335.00" xmlns="http://www.w3.org/2000/svg" xmlns:xlink="http://www.w3.org/1999/xlink">
<g id="graph0" class="graph" transform="scale(1 1) rotate(0) translate(4 331)">
<title>daemon/tcfs_daemon.c</title>
<!-- Node1 -->
<g id="Node000001" class="node">
<title>Node1</title>
<g id="a_Node000001"><a xlink:title="This is the core of the daemon.">
<polygon fill="#999999" stroke="#666666" points="617,-327 498,-327 498,-308 617,-308 617,-327"/>
<text text-anchor="middle" x="557.5" y="-315" font-family="Helvetica,sans-Serif" font-size="10.00">daemon/tcfs_daemon.c</text>
</a>
</g>
</g>
<!-- Node2 -->
<g id="Node000002" class="node">
<title>Node2</title>
<g id="a_Node000002"><a xlink:href="tcfs__daemon__tools_8h_source.html" target="_top" xlink:title=" ">
<polygon fill="white" stroke="#666666" points="626,-272 489,-272 489,-242 626,-242 626,-272"/>
<text text-anchor="start" x="497" y="-260" font-family="Helvetica,sans-Serif" font-size="10.00">daemon_utils/daemon</text>
<text text-anchor="middle" x="557.5" y="-249" font-family="Helvetica,sans-Serif" font-size="10.00">_tools/tcfs_daemon_tools.h</text>
</a>
</g>
</g>
<!-- Node1&#45;&gt;Node2 -->
<g id="edge1_Node000001_Node000002" class="edge">
<title>Node1&#45;&gt;Node2</title>
<g id="a_edge1_Node000001_Node000002"><a xlink:title=" ">
<path fill="none" stroke="#63b8ff" d="M557.5,-307.87C557.5,-301.4 557.5,-292.2 557.5,-283.45"/>
<polygon fill="#63b8ff" stroke="#63b8ff" points="561,-283.63 557.5,-273.63 554,-283.63 561,-283.63"/>
</a>
</g>
</g>
<!-- Node3 -->
<g id="Node000003" class="node">
<title>Node3</title>
<g id="a_Node000003"><a xlink:title=" ">
<polygon fill="#e0e0e0" stroke="#999999" points="125.5,-74 77.5,-74 77.5,-55 125.5,-55 125.5,-74"/>
<text text-anchor="middle" x="101.5" y="-62" font-family="Helvetica,sans-Serif" font-size="10.00">stdlib.h</text>
</a>
</g>
</g>
<!-- Node2&#45;&gt;Node3 -->
<g id="edge2_Node000002_Node000003" class="edge">
<title>Node2&#45;&gt;Node3</title>
<g id="a_edge2_Node000002_Node000003"><a xlink:title=" ">
<path fill="none" stroke="#63b8ff" d="M488.62,-251.8C421.62,-246.24 317.63,-233.68 231.5,-206 169.81,-186.17 135.4,-195.22 101.5,-140 91.46,-123.65 93.06,-101.23 96.17,-85.27"/>
<polygon fill="#63b8ff" stroke="#63b8ff" points="99.57,-86.1 98.46,-75.56 92.76,-84.49 99.57,-86.1"/>
</a>
</g>
</g>
<!-- Node4 -->
<g id="Node000004" class="node">
<title>Node4</title>
<g id="a_Node000004"><a xlink:title=" ">
<polygon fill="#e0e0e0" stroke="#999999" points="51,-19 0,-19 0,0 51,0 51,-19"/>
<text text-anchor="middle" x="25.5" y="-7" font-family="Helvetica,sans-Serif" font-size="10.00">unistd.h</text>
</a>
</g>
</g>
<!-- Node2&#45;&gt;Node4 -->
<g id="edge3_Node000002_Node000004" class="edge">
<title>Node2&#45;&gt;Node4</title>
<g id="a_edge3_Node000002_Node000004"><a xlink:title=" ">
<path fill="none" stroke="#63b8ff" d="M488.87,-254.97C384.09,-252.24 190.31,-242.29 132.5,-206 67.9,-165.45 39.34,-71.42 29.62,-30.32"/>
<polygon fill="#63b8ff" stroke="#63b8ff" points="33.06,-29.66 27.48,-20.66 26.23,-31.18 33.06,-29.66"/>
</a>
</g>
</g>
<!-- Node5 -->
<g id="Node000005" class="node">
<title>Node5</title>
<g id="a_Node000005"><a xlink:title=" ">
<polygon fill="#e0e0e0" stroke="#999999" points="424.5,-19 380.5,-19 380.5,0 424.5,0 424.5,-19"/>
<text text-anchor="middle" x="402.5" y="-7" font-family="Helvetica,sans-Serif" font-size="10.00">fcntl.h</text>
</a>
</g>
</g>
<!-- Node2&#45;&gt;Node5 -->
<g id="edge4_Node000002_Node000005" class="edge">
<title>Node2&#45;&gt;Node5</title>
<g id="a_edge4_Node000002_Node000005"><a xlink:title=" ">
<path fill="none" stroke="#63b8ff" d="M553.36,-241.51C542.81,-206.47 512.2,-115.57 462.5,-55 453.02,-43.45 439.92,-33.28 428.37,-25.59"/>
<polygon fill="#63b8ff" stroke="#63b8ff" points="430.36,-22.7 420.04,-20.3 426.61,-28.61 430.36,-22.7"/>
</a>
</g>
</g>
<!-- Node6 -->
<g id="Node000006" class="node">
<title>Node6</title>
<g id="a_Node000006"><a xlink:title=" ">
<polygon fill="#e0e0e0" stroke="#999999" points="641.5,-200.5 585.5,-200.5 585.5,-181.5 641.5,-181.5 641.5,-200.5"/>
<text text-anchor="middle" x="613.5" y="-188.5" font-family="Helvetica,sans-Serif" font-size="10.00">stdbool.h</text>
</a>
</g>
</g>
<!-- Node2&#45;&gt;Node6 -->
<g id="edge5_Node000002_Node000006" class="edge">
<title>Node2&#45;&gt;Node6</title>
<g id="a_edge5_Node000002_Node000006"><a xlink:title=" ">
<path fill="none" stroke="#63b8ff" d="M569.93,-241.8C578.32,-232.21 589.44,-219.5 598.35,-209.32"/>
<polygon fill="#63b8ff" stroke="#63b8ff" points="600.81,-211.81 604.76,-201.98 595.55,-207.2 600.81,-211.81"/>
</a>
</g>
</g>
<!-- Node7 -->
<g id="Node000007" class="node">
<title>Node7</title>
<g id="a_Node000007"><a xlink:title=" ">
<polygon fill="#e0e0e0" stroke="#999999" points="733,-200.5 660,-200.5 660,-181.5 733,-181.5 733,-200.5"/>
<text text-anchor="middle" x="696.5" y="-188.5" font-family="Helvetica,sans-Serif" font-size="10.00">sys/socket.h</text>
</a>
</g>
</g>
<!-- Node2&#45;&gt;Node7 -->
<g id="edge6_Node000002_Node000007" class="edge">
<title>Node2&#45;&gt;Node7</title>
<g id="a_edge6_Node000002_Node000007"><a xlink:title=" ">
<path fill="none" stroke="#63b8ff" d="M588.69,-241.64C612.05,-230.88 643.8,-216.27 666.79,-205.68"/>
<polygon fill="#63b8ff" stroke="#63b8ff" points="667.99,-208.98 675.61,-201.62 665.06,-202.62 667.99,-208.98"/>
</a>
</g>
</g>
<!-- Node8 -->
<g id="Node000008" class="node">
<title>Node8</title>
<g id="a_Node000008"><a xlink:title=" ">
<polygon fill="#e0e0e0" stroke="#999999" points="805.5,-200.5 751.5,-200.5 751.5,-181.5 805.5,-181.5 805.5,-200.5"/>
<text text-anchor="middle" x="778.5" y="-188.5" font-family="Helvetica,sans-Serif" font-size="10.00">sys/un.h</text>
</a>
</g>
</g>
<!-- Node2&#45;&gt;Node8 -->
<g id="edge7_Node000002_Node000008" class="edge">
<title>Node2&#45;&gt;Node8</title>
<g id="a_edge7_Node000002_Node000008"><a xlink:title=" ">
<path fill="none" stroke="#63b8ff" d="M617.55,-241.5C653.98,-232.28 701.25,-219.55 742.5,-206 743.65,-205.62 744.81,-205.23 745.98,-204.83"/>
<polygon fill="#63b8ff" stroke="#63b8ff" points="746.94,-208.2 755.13,-201.48 744.53,-201.63 746.94,-208.2"/>
</a>
</g>
</g>
<!-- Node9 -->
<g id="Node000009" class="node">
<title>Node9</title>
<g id="a_Node000009"><a xlink:title=" ">
<polygon fill="#e0e0e0" stroke="#999999" points="511.5,-19 451.5,-19 451.5,0 511.5,0 511.5,-19"/>
<text text-anchor="middle" x="481.5" y="-7" font-family="Helvetica,sans-Serif" font-size="10.00">sys/stat.h</text>
</a>
</g>
</g>
<!-- Node2&#45;&gt;Node9 -->
<g id="edge8_Node000002_Node000009" class="edge">
<title>Node2&#45;&gt;Node9</title>
<g id="a_edge8_Node000002_Node000009"><a xlink:title=" ">
<path fill="none" stroke="#63b8ff" d="M559.19,-241.56C562.54,-207 567.05,-117.76 533.5,-55 527.22,-43.25 516.46,-33.25 506.35,-25.73"/>
<polygon fill="#63b8ff" stroke="#63b8ff" points="508.49,-22.95 498.28,-20.16 504.52,-28.72 508.49,-22.95"/>
</a>
</g>
</g>
<!-- Node10 -->
<g id="Node000010" class="node">
<title>Node10</title>
<g id="a_Node000010"><a xlink:title=" ">
<polygon fill="#e0e0e0" stroke="#999999" points="881,-200.5 824,-200.5 824,-181.5 881,-181.5 881,-200.5"/>
<text text-anchor="middle" x="852.5" y="-188.5" font-family="Helvetica,sans-Serif" font-size="10.00">pthread.h</text>
</a>
</g>
</g>
<!-- Node2&#45;&gt;Node10 -->
<g id="edge9_Node000002_Node000010" class="edge">
<title>Node2&#45;&gt;Node10</title>
<g id="a_edge9_Node000002_Node000010"><a xlink:title=" ">
<path fill="none" stroke="#63b8ff" d="M626.38,-245.69C678.54,-237.14 751.68,-223.56 814.5,-206 816.11,-205.55 817.74,-205.06 819.39,-204.55"/>
<polygon fill="#63b8ff" stroke="#63b8ff" points="820.41,-207.9 828.76,-201.38 818.16,-201.27 820.41,-207.9"/>
</a>
</g>
</g>
<!-- Node11 -->
<g id="Node000011" class="node">
<title>Node11</title>
<g id="a_Node000011"><a xlink:title=" ">
<polygon fill="#e0e0e0" stroke="#999999" points="949.5,-200.5 899.5,-200.5 899.5,-181.5 949.5,-181.5 949.5,-200.5"/>
<text text-anchor="middle" x="924.5" y="-188.5" font-family="Helvetica,sans-Serif" font-size="10.00">signal.h</text>
</a>
</g>
</g>
<!-- Node2&#45;&gt;Node11 -->
<g id="edge10_Node000002_Node000011" class="edge">
<title>Node2&#45;&gt;Node11</title>
<g id="a_edge10_Node000002_Node000011"><a xlink:title=" ">
<path fill="none" stroke="#63b8ff" d="M626.43,-250.55C694.49,-244.02 801.05,-230.74 890.5,-206 891.85,-205.63 893.22,-205.21 894.59,-204.77"/>
<polygon fill="#63b8ff" stroke="#63b8ff" points="895.39,-208.21 903.58,-201.49 892.99,-201.63 895.39,-208.21"/>
</a>
</g>
</g>
<!-- Node12 -->
<g id="Node000012" class="node">
<title>Node12</title>
<g id="a_Node000012"><a xlink:href="queue_8h_source.html" target="_top" xlink:title=" ">
<polygon fill="white" stroke="#666666" points="329,-200.5 240,-200.5 240,-181.5 329,-181.5 329,-200.5"/>
<text text-anchor="middle" x="284.5" y="-188.5" font-family="Helvetica,sans-Serif" font-size="10.00">../queue/queue.h</text>
</a>
</g>
</g>
<!-- Node2&#45;&gt;Node12 -->
<g id="edge11_Node000002_Node000012" class="edge">
<title>Node2&#45;&gt;Node12</title>
<g id="a_edge11_Node000002_Node000012"><a xlink:title=" ">
<path fill="none" stroke="#63b8ff" d="M495.89,-241.56C446.89,-230.07 379.24,-214.21 333.79,-203.55"/>
<polygon fill="#63b8ff" stroke="#63b8ff" points="334.74,-200.18 324.21,-201.31 333.14,-207 334.74,-200.18"/>
</a>
</g>
</g>
<!-- Node22 -->
<g id="Node000022" class="node">
<title>Node22</title>
<g id="a_Node000022"><a xlink:href="message__handler_8h_source.html" target="_top" xlink:title=" ">
<polygon fill="white" stroke="#666666" points="475.5,-206 371.5,-206 371.5,-176 475.5,-176 475.5,-206"/>
<text text-anchor="start" x="379.5" y="-194" font-family="Helvetica,sans-Serif" font-size="10.00">../message_handler</text>
<text text-anchor="middle" x="423.5" y="-183" font-family="Helvetica,sans-Serif" font-size="10.00">/message_handler.h</text>
</a>
</g>
</g>
<!-- Node2&#45;&gt;Node22 -->
<g id="edge30_Node000002_Node000022" class="edge">
<title>Node2&#45;&gt;Node22</title>
<g id="a_edge30_Node000002_Node000022"><a xlink:title=" ">
<path fill="none" stroke="#63b8ff" d="M527.43,-241.64C508.63,-232.66 484.21,-220.99 463.75,-211.23"/>
<polygon fill="#63b8ff" stroke="#63b8ff" points="465.37,-208.12 454.84,-206.97 462.35,-214.44 465.37,-208.12"/>
</a>
</g>
</g>
<!-- Node12&#45;&gt;Node3 -->
<g id="edge29_Node000012_Node000003" class="edge">
<title>Node12&#45;&gt;Node3</title>
<g id="a_edge29_Node000012_Node000003"><a xlink:title=" ">
<path fill="none" stroke="#63b8ff" d="M239.66,-188.03C202.68,-183.99 151.44,-172.4 120.5,-140 106.54,-125.38 102.45,-102 101.43,-85.33"/>
<polygon fill="#63b8ff" stroke="#63b8ff" points="104.94,-85.56 101.18,-75.66 97.94,-85.74 104.94,-85.56"/>
</a>
</g>
</g>
<!-- Node13 -->
<g id="Node000013" class="node">
<title>Node13</title>
<g id="a_Node000013"><a xlink:href="common_8h_source.html" target="_top" xlink:title=" ">
<polygon fill="white" stroke="#666666" points="225,-74 154,-74 154,-55 225,-55 225,-74"/>
<text text-anchor="middle" x="189.5" y="-62" font-family="Helvetica,sans-Serif" font-size="10.00">../common.h</text>
</a>
</g>
</g>
<!-- Node12&#45;&gt;Node13 -->
<g id="edge12_Node000012_Node000013" class="edge">
<title>Node12&#45;&gt;Node13</title>
<g id="a_edge12_Node000012_Node000013"><a xlink:title=" ">
<path fill="none" stroke="#63b8ff" d="M281.87,-181.34C276.85,-165.82 264.77,-132.8 246.5,-110 237.42,-98.68 224.92,-88.5 213.94,-80.75"/>
<polygon fill="#63b8ff" stroke="#63b8ff" points="215.92,-77.87 205.67,-75.2 212.02,-83.68 215.92,-77.87"/>
</a>
</g>
</g>
<!-- Node18 -->
<g id="Node000018" class="node">
<title>Node18</title>
<g id="a_Node000018"><a xlink:href="print__utils_8h_source.html" target="_top" xlink:title=" ">
<polygon fill="white" stroke="#666666" points="477.5,-140 369.5,-140 369.5,-110 477.5,-110 477.5,-140"/>
<text text-anchor="start" x="377.5" y="-128" font-family="Helvetica,sans-Serif" font-size="10.00">../common_utils/print</text>
<text text-anchor="middle" x="423.5" y="-117" font-family="Helvetica,sans-Serif" font-size="10.00">/print_utils.h</text>
</a>
</g>
</g>
<!-- Node12&#45;&gt;Node18 -->
<g id="edge20_Node000012_Node000018" class="edge">
<title>Node12&#45;&gt;Node18</title>
<g id="a_edge20_Node000012_Node000018"><a xlink:title=" ">
<path fill="none" stroke="#63b8ff" d="M303.83,-181.1C323.89,-171.86 355.9,-157.13 381.76,-145.22"/>
<polygon fill="#63b8ff" stroke="#63b8ff" points="383.06,-148.47 390.68,-141.11 380.13,-142.11 383.06,-148.47"/>
</a>
</g>
</g>
<!-- Node20 -->
<g id="Node000020" class="node">
<title>Node20</title>
<g id="a_Node000020"><a xlink:title=" ">
<polygon fill="#e0e0e0" stroke="#999999" points="289.5,-74 243.5,-74 243.5,-55 289.5,-55 289.5,-74"/>
<text text-anchor="middle" x="266.5" y="-62" font-family="Helvetica,sans-Serif" font-size="10.00">stdio.h</text>
</a>
</g>
</g>
<!-- Node12&#45;&gt;Node20 -->
<g id="edge28_Node000012_Node000020" class="edge">
<title>Node12&#45;&gt;Node20</title>
<g id="a_edge28_Node000012_Node000020"><a xlink:title=" ">
<path fill="none" stroke="#63b8ff" d="M284.58,-181.05C284.58,-166.17 283.96,-135.5 279.5,-110 278.04,-101.68 275.59,-92.69 273.21,-84.99"/>
<polygon fill="#63b8ff" stroke="#63b8ff" points="276.59,-84.08 270.15,-75.67 269.94,-86.26 276.59,-84.08"/>
</a>
</g>
</g>
<!-- Node21 -->
<g id="Node000021" class="node">
<title>Node21</title>
<g id="a_Node000021"><a xlink:href="json__tools_8h_source.html" target="_top" xlink:title=" ">
<polygon fill="white" stroke="#666666" points="237,-140 130,-140 130,-110 237,-110 237,-140"/>
<text text-anchor="start" x="138" y="-128" font-family="Helvetica,sans-Serif" font-size="10.00">../common_utils/json</text>
<text text-anchor="middle" x="183.5" y="-117" font-family="Helvetica,sans-Serif" font-size="10.00">/json_tools.h</text>
</a>
</g>
</g>
<!-- Node12&#45;&gt;Node21 -->
<g id="edge26_Node000012_Node000021" class="edge">
<title>Node12&#45;&gt;Node21</title>
<g id="a_edge26_Node000012_Node000021"><a xlink:title=" ">
<path fill="none" stroke="#63b8ff" d="M270.46,-181.1C256.4,-172.19 234.27,-158.17 215.85,-146.5"/>
<polygon fill="#63b8ff" stroke="#63b8ff" points="217.95,-143.68 207.63,-141.29 214.2,-149.6 217.95,-143.68"/>
</a>
</g>
</g>
<!-- Node13&#45;&gt;Node4 -->
<g id="edge17_Node000013_Node000004" class="edge">
<title>Node13&#45;&gt;Node4</title>
<g id="a_edge17_Node000013_Node000004"><a xlink:title=" ">
<path fill="none" stroke="#63b8ff" d="M161.68,-54.51C134.29,-45.66 92.3,-32.09 62.19,-22.36"/>
<polygon fill="#63b8ff" stroke="#63b8ff" points="63.32,-19.05 52.73,-19.3 61.17,-25.71 63.32,-19.05"/>
</a>
</g>
</g>
<!-- Node13&#45;&gt;Node5 -->
<g id="edge15_Node000013_Node000005" class="edge">
<title>Node13&#45;&gt;Node5</title>
<g id="a_edge15_Node000013_Node000005"><a xlink:title=" ">
<path fill="none" stroke="#63b8ff" d="M225.15,-54.63C265.27,-44.65 329.94,-28.56 369.11,-18.81"/>
<polygon fill="#63b8ff" stroke="#63b8ff" points="369.82,-22.24 378.68,-16.43 368.13,-15.44 369.82,-22.24"/>
</a>
</g>
</g>
<!-- Node13&#45;&gt;Node9 -->
<g id="edge13_Node000013_Node000009" class="edge">
<title>Node13&#45;&gt;Node9</title>
<g id="a_edge13_Node000013_Node000009"><a xlink:title=" ">
<path fill="none" stroke="#63b8ff" d="M225.36,-56.7C228.45,-56.12 231.53,-55.55 234.5,-55 306.7,-41.68 390.86,-26.62 439.96,-17.87"/>
<polygon fill="#63b8ff" stroke="#63b8ff" points="440.34,-21.36 449.57,-16.16 439.12,-14.47 440.34,-21.36"/>
</a>
</g>
</g>
<!-- Node14 -->
<g id="Node000014" class="node">
<title>Node14</title>
<g id="a_Node000014"><a xlink:title=" ">
<polygon fill="#e0e0e0" stroke="#999999" points="204.5,-19 136.5,-19 136.5,0 204.5,0 204.5,-19"/>
<text text-anchor="middle" x="170.5" y="-7" font-family="Helvetica,sans-Serif" font-size="10.00">sys/types.h</text>
</a>
</g>
</g>
<!-- Node13&#45;&gt;Node14 -->
<g id="edge14_Node000013_Node000014" class="edge">
<title>Node13&#45;&gt;Node14</title>
<g id="a_edge14_Node000013_Node000014"><a xlink:title=" ">
<path fill="none" stroke="#63b8ff" d="M186.36,-54.75C183.96,-48.04 180.54,-38.52 177.5,-30.02"/>
<polygon fill="#63b8ff" stroke="#63b8ff" points="180.89,-29.1 174.22,-20.87 174.3,-31.46 180.89,-29.1"/>
</a>
</g>
</g>
<!-- Node15 -->
<g id="Node000015" class="node">
<title>Node15</title>
<g id="a_Node000015"><a xlink:title=" ">
<polygon fill="#e0e0e0" stroke="#999999" points="282,-19 223,-19 223,0 282,0 282,-19"/>
<text text-anchor="middle" x="252.5" y="-7" font-family="Helvetica,sans-Serif" font-size="10.00">mqueue.h</text>
</a>
</g>
</g>
<!-- Node13&#45;&gt;Node15 -->
<g id="edge16_Node000013_Node000015" class="edge">
<title>Node13&#45;&gt;Node15</title>
<g id="a_edge16_Node000013_Node000015"><a xlink:title=" ">
<path fill="none" stroke="#63b8ff" d="M200.19,-54.51C209.2,-46.93 222.33,-35.88 233.18,-26.75"/>
<polygon fill="#63b8ff" stroke="#63b8ff" points="235.41,-29.45 240.81,-20.33 230.91,-24.09 235.41,-29.45"/>
</a>
</g>
</g>
<!-- Node16 -->
<g id="Node000016" class="node">
<title>Node16</title>
<g id="a_Node000016"><a xlink:title=" ">
<polygon fill="#e0e0e0" stroke="#999999" points="118,-19 69,-19 69,0 118,0 118,-19"/>
<text text-anchor="middle" x="93.5" y="-7" font-family="Helvetica,sans-Serif" font-size="10.00">string.h</text>
</a>
</g>
</g>
<!-- Node13&#45;&gt;Node16 -->
<g id="edge18_Node000013_Node000016" class="edge">
<title>Node13&#45;&gt;Node16</title>
<g id="a_edge18_Node000013_Node000016"><a xlink:title=" ">
<path fill="none" stroke="#63b8ff" d="M173.21,-54.51C158.51,-46.39 136.61,-34.3 119.48,-24.85"/>
<polygon fill="#63b8ff" stroke="#63b8ff" points="121.32,-21.86 110.87,-20.09 117.93,-27.99 121.32,-21.86"/>
</a>
</g>
</g>
<!-- Node17 -->
<g id="Node000017" class="node">
<title>Node17</title>
<g id="a_Node000017"><a xlink:title=" ">
<polygon fill="#e0e0e0" stroke="#999999" points="347,-19 300,-19 300,0 347,0 347,-19"/>
<text text-anchor="middle" x="323.5" y="-7" font-family="Helvetica,sans-Serif" font-size="10.00">errno.h</text>
</a>
</g>
</g>
<!-- Node13&#45;&gt;Node17 -->
<g id="edge19_Node000013_Node000017" class="edge">
<title>Node13&#45;&gt;Node17</title>
<g id="a_edge19_Node000013_Node000017"><a xlink:title=" ">
<path fill="none" stroke="#63b8ff" d="M212.23,-54.51C233.73,-46.01 266.23,-33.15 290.57,-23.53"/>
<polygon fill="#63b8ff" stroke="#63b8ff" points="291.69,-26.85 299.7,-19.91 289.11,-20.34 291.69,-26.85"/>
</a>
</g>
</g>
<!-- Node18&#45;&gt;Node3 -->
<g id="edge25_Node000018_Node000003" class="edge">
<title>Node18&#45;&gt;Node3</title>
<g id="a_edge25_Node000018_Node000003"><a xlink:title=" ">
<path fill="none" stroke="#63b8ff" d="M369.18,-114.56C312.92,-104.71 222.48,-88.69 144.5,-74 142.01,-73.53 139.44,-73.04 136.85,-72.54"/>
<polygon fill="#63b8ff" stroke="#63b8ff" points="137.56,-69.11 127.08,-70.63 136.22,-75.98 137.56,-69.11"/>
</a>
</g>
</g>
<!-- Node18&#45;&gt;Node9 -->
<g id="edge24_Node000018_Node000009" class="edge">
<title>Node18&#45;&gt;Node9</title>
<g id="a_edge24_Node000018_Node000009"><a xlink:title=" ">
<path fill="none" stroke="#63b8ff" d="M437.02,-109.69C445.36,-100.19 455.73,-87.11 462.5,-74 469.7,-60.05 474.62,-42.94 477.65,-30"/>
<polygon fill="#63b8ff" stroke="#63b8ff" points="480.99,-31.09 479.67,-20.58 474.15,-29.63 480.99,-31.09"/>
</a>
</g>
</g>
<!-- Node18&#45;&gt;Node17 -->
<g id="edge22_Node000018_Node000017" class="edge">
<title>Node18&#45;&gt;Node17</title>
<g id="a_edge22_Node000018_Node000017"><a xlink:title=" ">
<path fill="none" stroke="#63b8ff" d="M384.19,-109.59C367.43,-101.56 349.11,-89.9 337.5,-74 328.32,-61.42 324.97,-43.97 323.83,-30.54"/>
<polygon fill="#63b8ff" stroke="#63b8ff" points="327.33,-30.53 323.37,-20.7 320.34,-30.86 327.33,-30.53"/>
</a>
</g>
</g>
<!-- Node19 -->
<g id="Node000019" class="node">
<title>Node19</title>
<g id="a_Node000019"><a xlink:title=" ">
<polygon fill="#e0e0e0" stroke="#999999" points="453,-74 346,-74 346,-55 453,-55 453,-74"/>
<text text-anchor="middle" x="399.5" y="-62" font-family="Helvetica,sans-Serif" font-size="10.00">systemd/sd&#45;journal.h</text>
</a>
</g>
</g>
<!-- Node18&#45;&gt;Node19 -->
<g id="edge21_Node000018_Node000019" class="edge">
<title>Node18&#45;&gt;Node19</title>
<g id="a_edge21_Node000018_Node000019"><a xlink:title=" ">
<path fill="none" stroke="#63b8ff" d="M417.57,-109.54C414.47,-102 410.65,-92.67 407.31,-84.55"/>
<polygon fill="#63b8ff" stroke="#63b8ff" points="410.67,-83.5 403.63,-75.58 404.19,-86.16 410.67,-83.5"/>
</a>
</g>
</g>
<!-- Node18&#45;&gt;Node20 -->
<g id="edge23_Node000018_Node000020" class="edge">
<title>Node18&#45;&gt;Node20</title>
<g id="a_edge23_Node000018_Node000020"><a xlink:title=" ">
<path fill="none" stroke="#63b8ff" d="M384.69,-109.54C358.86,-99.92 325.25,-87.39 300.48,-78.16"/>
<polygon fill="#63b8ff" stroke="#63b8ff" points="301.79,-74.92 291.2,-74.7 299.35,-81.48 301.79,-74.92"/>
</a>
</g>
</g>
<!-- Node21&#45;&gt;Node13 -->
<g id="edge27_Node000021_Node000013" class="edge">
<title>Node21&#45;&gt;Node13</title>
<g id="a_edge27_Node000021_Node000013"><a xlink:title=" ">
<path fill="none" stroke="#63b8ff" d="M184.98,-109.54C185.73,-102.26 186.65,-93.31 187.46,-85.39"/>
<polygon fill="#63b8ff" stroke="#63b8ff" points="190.92,-85.99 188.46,-75.68 183.95,-85.27 190.92,-85.99"/>
</a>
</g>
</g>
<!-- Node22&#45;&gt;Node13 -->
<g id="edge31_Node000022_Node000013" class="edge">
<title>Node22&#45;&gt;Node13</title>
<g id="a_edge31_Node000022_Node000013"><a xlink:title=" ">
<path fill="none" stroke="#63b8ff" d="M396.66,-175.72C351.54,-151.71 261.02,-103.55 216.08,-79.64"/>
<polygon fill="#63b8ff" stroke="#63b8ff" points="218,-76.7 207.53,-75.09 214.71,-82.88 218,-76.7"/>
</a>
</g>
</g>
<!-- Node22&#45;&gt;Node18 -->
<g id="edge32_Node000022_Node000018" class="edge">
<title>Node22&#45;&gt;Node18</title>
<g id="a_edge32_Node000022_Node000018"><a xlink:title=" ">
<path fill="none" stroke="#63b8ff" d="M423.5,-175.8C423.5,-168.67 423.5,-159.82 423.5,-151.56"/>
<polygon fill="#63b8ff" stroke="#63b8ff" points="427,-151.68 423.5,-141.68 420,-151.68 427,-151.68"/>
</a>
</g>
</g>
</g>
</svg>
