<?xml version="1.0" encoding="UTF-8" standalone="no"?>
<!DOCTYPE svg PUBLIC "-//W3C//DTD SVG 1.1//EN"
 "http://www.w3.org/Graphics/SVG/1.1/DTD/svg11.dtd">
<!-- Generated by graphviz version 8.1.0 (20230707.0739)
 -->
<!-- Title: tcfs_write Pages: 1 -->
<!--zoomable 285 -->

<svg id="main" version="1.1" xmlns="http://www.w3.org/2000/svg" xmlns:xlink="http://www.w3.org/1999/xlink" xml:space="preserve" onload="init(evt)">
<style type="text/css"><![CDATA[
.node, .edge {opacity: 0.7;}
.node.selected, .edge.selected {opacity: 1;}
.edge:hover path { stroke: red; }
.edge:hover polygon { stroke: red; fill: red; }
]]></style>

<defs>
  <circle id="rim" cx="0" cy="0" r="7"/>
  <circle id="rim2" cx="0" cy="0" r="3.5"/>
  <g id="zoomPlus">
    <use xlink:href="#rim" fill="#404040"><set attributeName="fill" to="#808080" begin="zoomplus.mouseover" end="zoomplus.mouseout"/></use>
    <path d="M-4,0h8M0,-4v8" fill="none" stroke="white" stroke-width="1.5" pointer-events="none"/>
  </g>
  <g id="zoomMin">
    <use xlink:href="#rim" fill="#404040"><set attributeName="fill" to="#808080" begin="zoomminus.mouseover" end="zoomminus.mouseout"/></use>
    <path d="M-4,0h8" fill="none" stroke="white" stroke-width="1.5" pointer-events="none"/>
  </g>
  <g id="arrowUp" transform="translate(30 24)">
    <use xlink:href="#rim"/>
    <path pointer-events="none" fill="none" stroke="white" stroke-width="1.5" d="M0,-3.0v7 M-2.5,-0.5L0,-3.0L2.5,-0.5"/>
  </g>
  <g id="arrowRight" transform="rotate(90) translate(36 -43)">
    <use xlink:href="#rim"/>
    <path pointer-events="none" fill="none" stroke="white" stroke-width="1.5" d="M0,-3.0v7 M-2.5,-0.5L0,-3.0L2.5,-0.5"/>
  </g>
  <g id="arrowDown" transform="rotate(180) translate(-30 -48)">
    <use xlink:href="#rim"/>
    <path pointer-events="none" fill="none" stroke="white" stroke-width="1.5" d="M0,-3.0v7 M-2.5,-0.5L0,-3.0L2.5,-0.5"/>
  </g>
  <g id="arrowLeft" transform="rotate(270) translate(-36 17)">
    <use xlink:href="#rim"/>
    <path pointer-events="none" fill="none" stroke="white" stroke-width="1.5" d="M0,-3.0v7 M-2.5,-0.5L0,-3.0L2.5,-0.5"/>
  </g>
  <g id="resetDef">
    <use xlink:href="#rim2" fill="#404040"><set attributeName="fill" to="#808080" begin="reset.mouseover" end="reset.mouseout"/></use>
  </g>
</defs>
<script type="application/ecmascript">
var viewWidth = 739;
var viewHeight = 285;
var sectionId = 'dynsection-32';
</script>
<script type="application/ecmascript" xlink:href="svg.min.js"/>
<svg id="graph" class="graph">
<g id="viewport">
<title>tcfs_write</title>
<!-- Node1 -->
<g id="Node000001" class="node">
<title>Node1</title>
<g id="a_Node000001"><a xlink:title="Writes data to an open file.">
<polygon fill="#999999" stroke="#666666" points="58.75,-154.05 0,-154.05 0,-134.05 58.75,-134.05 58.75,-154.05"/>
<text text-anchor="middle" x="29.38" y="-140.55" font-family="Helvetica,sans-Serif" font-size="10.00">tcfs_write</text>
</a>
</g>
</g>
<!-- Node2 -->
<g id="Node000002" class="node">
<title>Node2</title>
<g id="a_Node000002"><a xlink:href="crypt-utils_8c.html#a22f528907ee4f078e333501b747d5435" target="_top" xlink:title="Decrypt the *ciphertext string using a AES 256 key.">
<polygon fill="white" stroke="#666666" points="481.38,-249.05 403.88,-249.05 403.88,-229.05 481.38,-229.05 481.38,-249.05"/>
<text text-anchor="middle" x="442.62" y="-235.55" font-family="Helvetica,sans-Serif" font-size="10.00">decrypt_string</text>
</a>
</g>
</g>
<!-- Node1&#45;&gt;Node2 -->
<g id="edge1_Node000001_Node000002" class="edge">
<title>Node1&#45;&gt;Node2</title>
<g id="a_edge1_Node000001_Node000002"><a xlink:title=" ">
<path fill="none" stroke="#63b8ff" d="M38.27,-154.33C49.31,-167.91 70.72,-191.45 94.75,-203.05 192.3,-250.16 322.94,-249 392.76,-244.03"/>
<polygon fill="#63b8ff" stroke="#63b8ff" points="392.73,-247.47 402.43,-243.21 392.19,-240.49 392.73,-247.47"/>
</a>
</g>
</g>
<!-- Node3 -->
<g id="Node000003" class="node">
<title>Node3</title>
<g id="a_Node000003"><a xlink:href="tcfs__utils_8c.html#a62b66e43a7ad8b8cf9fcad67f71a7a8b" target="_top" xlink:title="Logs a formatted message to a file with timestamp.">
<polygon fill="white" stroke="#666666" points="730.5,-173.05 662,-173.05 662,-153.05 730.5,-153.05 730.5,-173.05"/>
<text text-anchor="middle" x="696.25" y="-159.55" font-family="Helvetica,sans-Serif" font-size="10.00">logMessage</text>
</a>
</g>
</g>
<!-- Node1&#45;&gt;Node3 -->
<g id="edge11_Node000001_Node000003" class="edge">
<title>Node1&#45;&gt;Node3</title>
<g id="a_edge11_Node000001_Node000003"><a xlink:title=" ">
<path fill="none" stroke="#63b8ff" d="M35.35,-154.43C44.51,-172.43 65.8,-209.4 94.75,-229.05 160.9,-273.95 188.17,-277.05 268.12,-277.05 268.12,-277.05 268.12,-277.05 443.62,-277.05 526.51,-277.05 553.98,-279.09 626,-238.05 650.04,-224.35 670.51,-199.47 682.82,-182.14"/>
<polygon fill="#63b8ff" stroke="#63b8ff" points="686.04,-184.64 688.8,-174.41 680.26,-180.69 686.04,-184.64"/>
</a>
</g>
</g>
<!-- Node4 -->
<g id="Node000004" class="node">
<title>Node4</title>
<g id="a_Node000004"><a xlink:href="crypt-utils_8c.html#a94b5b388b3f00982ccee72b192077e76" target="_top" xlink:title="High level function interface for performing AES encryption on FILE pointers Uses OpenSSL libcrypto E...">
<polygon fill="white" stroke="#666666" points="156.88,-59.05 103.38,-59.05 103.38,-39.05 156.88,-39.05 156.88,-59.05"/>
<text text-anchor="middle" x="130.12" y="-45.55" font-family="Helvetica,sans-Serif" font-size="10.00">do_crypt</text>
</a>
</g>
</g>
<!-- Node1&#45;&gt;Node4 -->
<g id="edge3_Node000001_Node000004" class="edge">
<title>Node1&#45;&gt;Node4</title>
<g id="a_edge3_Node000001_Node000004"><a xlink:title=" ">
<path fill="none" stroke="#63b8ff" d="M37.3,-133.67C48.14,-117.99 70.41,-88 94.75,-68.05 95.97,-67.05 97.25,-66.08 98.57,-65.13"/>
<polygon fill="#63b8ff" stroke="#63b8ff" points="100.08,-67.68 106.62,-59.35 96.31,-61.78 100.08,-67.68"/>
</a>
</g>
</g>
<!-- Node5 -->
<g id="Node000005" class="node">
<title>Node5</title>
<g id="a_Node000005"><a xlink:href="crypt-utils_8c.html#ad9b10366ade9f2129ec2613fdc76df80" target="_top" xlink:title="Encrypts each part of the given path using a specified key.">
<polygon fill="white" stroke="#666666" points="305.25,-211.05 233,-211.05 233,-191.05 305.25,-191.05 305.25,-211.05"/>
<text text-anchor="middle" x="269.12" y="-197.55" font-family="Helvetica,sans-Serif" font-size="10.00">encrypt_path</text>
</a>
</g>
</g>
<!-- Node1&#45;&gt;Node5 -->
<g id="edge4_Node000001_Node000005" class="edge">
<title>Node1&#45;&gt;Node5</title>
<g id="a_edge4_Node000001_Node000005"><a xlink:title=" ">
<path fill="none" stroke="#63b8ff" d="M43.86,-154.33C56.34,-163.27 75.79,-175.74 94.75,-182.05 136.41,-195.91 186.5,-200.16 222.1,-201.25"/>
<polygon fill="#63b8ff" stroke="#63b8ff" points="221.58,-204.76 231.66,-201.49 221.74,-197.76 221.58,-204.76"/>
</a>
</g>
</g>
<!-- Node9 -->
<g id="Node000009" class="node">
<title>Node9</title>
<g id="a_Node000009"><a xlink:href="tcfs_8c.html#a996d4e078d075e74e800288e6c92fd59" target="_top" xlink:title="Get the size of a file in the TCFS file system.">
<polygon fill="white" stroke="#666666" points="156.12,-21.05 104.12,-21.05 104.12,-1.05 156.12,-1.05 156.12,-21.05"/>
<text text-anchor="middle" x="130.12" y="-7.55" font-family="Helvetica,sans-Serif" font-size="10.00">file_size</text>
</a>
</g>
</g>
<!-- Node1&#45;&gt;Node9 -->
<g id="edge10_Node000001_Node000009" class="edge">
<title>Node1&#45;&gt;Node9</title>
<g id="a_edge10_Node000001_Node000009"><a xlink:title=" ">
<path fill="none" stroke="#63b8ff" d="M33.99,-133.7C41.97,-112.08 62.94,-61.57 94.75,-30.05 95.57,-29.23 96.44,-28.44 97.34,-27.68"/>
<polygon fill="#63b8ff" stroke="#63b8ff" points="98.95,-30.11 105.07,-21.46 94.89,-24.41 98.95,-30.11"/>
</a>
</g>
</g>
<!-- Node10 -->
<g id="Node000010" class="node">
<title>Node10</title>
<g id="a_Node000010"><a xlink:href="tcfs__utils_8c.html#ac4ff59963f4a122c9f802c0c2bf2abc8" target="_top" xlink:title="Prefix the realpath to the fuse path.">
<polygon fill="white" stroke="#666666" points="301.12,-135.05 237.12,-135.05 237.12,-115.05 301.12,-115.05 301.12,-135.05"/>
<text text-anchor="middle" x="269.12" y="-121.55" font-family="Helvetica,sans-Serif" font-size="10.00">prefix_path</text>
</a>
</g>
</g>
<!-- Node1&#45;&gt;Node10 -->
<g id="edge12_Node000001_Node000010" class="edge">
<title>Node1&#45;&gt;Node10</title>
<g id="a_edge12_Node000001_Node000010"><a xlink:title=" ">
<path fill="none" stroke="#63b8ff" d="M59.05,-141.76C100.65,-138.43 177.97,-132.25 226.03,-128.41"/>
<polygon fill="#63b8ff" stroke="#63b8ff" points="226.01,-131.85 235.7,-127.56 225.46,-124.87 226.01,-131.85"/>
</a>
</g>
</g>
<!-- Node11 -->
<g id="Node000011" class="node">
<title>Node11</title>
<g id="a_Node000011"><a xlink:href="tcfs_8c.html#a76af7857833338c73b9cafdce59ca01d" target="_top" xlink:title="Checks file access permissions.">
<polygon fill="white" stroke="#666666" points="164.75,-173.05 95.5,-173.05 95.5,-153.05 164.75,-153.05 164.75,-173.05"/>
<text text-anchor="middle" x="130.12" y="-159.55" font-family="Helvetica,sans-Serif" font-size="10.00">tcfs_access</text>
</a>
</g>
</g>
<!-- Node1&#45;&gt;Node11 -->
<g id="edge13_Node000001_Node000011" class="edge">
<title>Node1&#45;&gt;Node11</title>
<g id="a_edge13_Node000001_Node000011"><a xlink:title=" ">
<path fill="none" stroke="#63b8ff" d="M59.2,-149.6C67.13,-151.12 75.91,-152.81 84.51,-154.46"/>
<polygon fill="#63b8ff" stroke="#63b8ff" points="83.72,-158.07 94.2,-156.52 85.05,-151.2 83.72,-158.07"/>
</a>
</g>
</g>
<!-- Node12 -->
<g id="Node000012" class="node">
<title>Node12</title>
<g id="a_Node000012"><a xlink:href="tcfs_8c.html#a6a031c4e3c6dd59051c09789c4666657" target="_top" xlink:title="Get extended attribute data.">
<polygon fill="white" stroke="#666666" points="165.5,-97.05 94.75,-97.05 94.75,-77.05 165.5,-77.05 165.5,-97.05"/>
<text text-anchor="middle" x="130.12" y="-83.55" font-family="Helvetica,sans-Serif" font-size="10.00">tcfs_getxattr</text>
</a>
</g>
</g>
<!-- Node1&#45;&gt;Node12 -->
<g id="edge17_Node000001_Node000012" class="edge">
<title>Node1&#45;&gt;Node12</title>
<g id="a_edge17_Node000001_Node000012"><a xlink:title=" ">
<path fill="none" stroke="#63b8ff" d="M48.49,-133.59C63.38,-125 84.72,-112.68 101.71,-102.87"/>
<polygon fill="#63b8ff" stroke="#63b8ff" points="103.22,-105.47 110.13,-97.44 99.72,-99.41 103.22,-105.47"/>
</a>
</g>
</g>
<!-- Node2&#45;&gt;Node3 -->
<g id="edge2_Node000002_Node000003" class="edge">
<title>Node2&#45;&gt;Node3</title>
<g id="a_edge2_Node000002_Node000003"><a xlink:title=" ">
<path fill="none" stroke="#63b8ff" d="M481.73,-239.59C519.65,-238.88 578.84,-234.29 626,-215.05 645.41,-207.13 664.22,-192.41 677.33,-180.64"/>
<polygon fill="#63b8ff" stroke="#63b8ff" points="679.13,-183.82 684.07,-174.44 674.36,-178.69 679.13,-183.82"/>
</a>
</g>
</g>
<!-- Node5&#45;&gt;Node3 -->
<g id="edge9_Node000005_Node000003" class="edge">
<title>Node5&#45;&gt;Node3</title>
<g id="a_edge9_Node000005_Node000003"><a xlink:title=" ">
<path fill="none" stroke="#63b8ff" d="M305.64,-200.21C369.84,-198.34 509.39,-192.7 626,-177.05 634.11,-175.96 642.71,-174.49 650.97,-172.9"/>
<polygon fill="#63b8ff" stroke="#63b8ff" points="651.47,-176.18 660.59,-170.78 650.1,-169.31 651.47,-176.18"/>
</a>
</g>
</g>
<!-- Node6 -->
<g id="Node000006" class="node">
<title>Node6</title>
<g id="a_Node000006"><a xlink:href="crypt-utils_8c.html#aa4a7facde8c6f63a7225c07e92232b2e" target="_top" xlink:title=" ">
<polygon fill="white" stroke="#666666" points="512.5,-116.05 372.75,-116.05 372.75,-96.05 512.5,-96.05 512.5,-116.05"/>
<text text-anchor="middle" x="442.62" y="-102.55" font-family="Helvetica,sans-Serif" font-size="10.00">encrypt_file_name_with_hex</text>
</a>
</g>
</g>
<!-- Node5&#45;&gt;Node6 -->
<g id="edge5_Node000005_Node000006" class="edge">
<title>Node5&#45;&gt;Node6</title>
<g id="a_edge5_Node000005_Node000006"><a xlink:title=" ">
<path fill="none" stroke="#63b8ff" d="M288.8,-190.7C318.88,-174.04 378.22,-141.17 413.45,-121.65"/>
<polygon fill="#63b8ff" stroke="#63b8ff" points="414.66,-124.44 421.71,-116.53 411.26,-118.31 414.66,-124.44"/>
</a>
</g>
</g>
<!-- Node7 -->
<g id="Node000007" class="node">
<title>Node7</title>
<g id="a_Node000007"><a xlink:href="crypt-utils_8c.html#aa926098a8843cf0ab6bd7eb8b3bbd2e6" target="_top" xlink:title="Encrypt the *plaintext string using a AES 256 key.">
<polygon fill="white" stroke="#666666" points="626,-135.05 548.5,-135.05 548.5,-115.05 626,-115.05 626,-135.05"/>
<text text-anchor="middle" x="587.25" y="-121.55" font-family="Helvetica,sans-Serif" font-size="10.00">encrypt_string</text>
</a>
</g>
</g>
<!-- Node6&#45;&gt;Node7 -->
<g id="edge6_Node000006_Node000007" class="edge">
<title>Node6&#45;&gt;Node7</title>
<g id="a_edge6_Node000006_Node000007"><a xlink:title=" ">
<path fill="none" stroke="#63b8ff" d="M512.85,-115.27C521.15,-116.38 529.48,-117.49 537.4,-118.54"/>
<polygon fill="#63b8ff" stroke="#63b8ff" points="536.91,-122.14 547.28,-119.99 537.83,-115.2 536.91,-122.14"/>
</a>
</g>
</g>
<!-- Node8 -->
<g id="Node000008" class="node">
<title>Node8</title>
<g id="a_Node000008"><a xlink:href="tcfs__utils_8c.html#a819d57d5c053a25772508a943d1bcc48" target="_top" xlink:title="Convert a string to its hexadecimal representation.">
<polygon fill="white" stroke="#666666" points="624.5,-97.05 550,-97.05 550,-77.05 624.5,-77.05 624.5,-97.05"/>
<text text-anchor="middle" x="587.25" y="-83.55" font-family="Helvetica,sans-Serif" font-size="10.00">string_to_hex</text>
</a>
</g>
</g>
<!-- Node6&#45;&gt;Node8 -->
<g id="edge7_Node000006_Node000008" class="edge">
<title>Node6&#45;&gt;Node8</title>
<g id="a_edge7_Node000006_Node000008"><a xlink:title=" ">
<path fill="none" stroke="#63b8ff" d="M512.85,-96.83C521.73,-95.64 530.66,-94.45 539.07,-93.33"/>
<polygon fill="#63b8ff" stroke="#63b8ff" points="539.35,-96.69 548.8,-91.9 538.43,-89.76 539.35,-96.69"/>
</a>
</g>
</g>
<!-- Node8&#45;&gt;Node3 -->
<g id="edge8_Node000008_Node000003" class="edge">
<title>Node8&#45;&gt;Node3</title>
<g id="a_edge8_Node000008_Node000003"><a xlink:title=" ">
<path fill="none" stroke="#63b8ff" d="M611.06,-97.5C616.1,-100.09 621.33,-103 626,-106.05 644.19,-117.9 663.11,-133.76 676.57,-145.73"/>
<polygon fill="#63b8ff" stroke="#63b8ff" points="673.8,-147.85 683.56,-151.97 678.5,-142.66 673.8,-147.85"/>
</a>
</g>
</g>
<!-- Node11&#45;&gt;Node3 -->
<g id="edge15_Node000011_Node000003" class="edge">
<title>Node11&#45;&gt;Node3</title>
<g id="a_edge15_Node000011_Node000003"><a xlink:title=" ">
<path fill="none" stroke="#63b8ff" d="M165.14,-163.05C262.35,-163.05 541.33,-163.05 650.6,-163.05"/>
<polygon fill="#63b8ff" stroke="#63b8ff" points="650.54,-166.55 660.54,-163.05 650.54,-159.55 650.54,-166.55"/>
</a>
</g>
</g>
<!-- Node11&#45;&gt;Node5 -->
<g id="edge14_Node000011_Node000005" class="edge">
<title>Node11&#45;&gt;Node5</title>
<g id="a_edge14_Node000011_Node000005"><a xlink:title=" ">
<path fill="none" stroke="#63b8ff" d="M164.99,-172.44C182.29,-177.24 203.6,-183.15 222.34,-188.35"/>
<polygon fill="#63b8ff" stroke="#63b8ff" points="221.17,-191.93 231.74,-191.23 223.04,-185.19 221.17,-191.93"/>
</a>
</g>
</g>
<!-- Node11&#45;&gt;Node10 -->
<g id="edge16_Node000011_Node000010" class="edge">
<title>Node11&#45;&gt;Node10</title>
<g id="a_edge16_Node000011_Node000010"><a xlink:title=" ">
<path fill="none" stroke="#63b8ff" d="M164.99,-153.66C183.58,-148.5 206.78,-142.06 226.47,-136.6"/>
<polygon fill="#63b8ff" stroke="#63b8ff" points="227.29,-139.73 235.99,-133.68 225.42,-132.98 227.29,-139.73"/>
</a>
</g>
</g>
<!-- Node12&#45;&gt;Node3 -->
<g id="edge21_Node000012_Node000003" class="edge">
<title>Node12&#45;&gt;Node3</title>
<g id="a_edge21_Node000012_Node000003"><a xlink:title=" ">
<path fill="none" stroke="#63b8ff" d="M152.7,-76.64C225.66,-43.09 467.45,54.62 626,-42.05 662.69,-64.42 681.8,-113.96 690.06,-142.22"/>
<polygon fill="#63b8ff" stroke="#63b8ff" points="686.87,-142.84 692.88,-151.57 693.63,-141 686.87,-142.84"/>
</a>
</g>
</g>
<!-- Node12&#45;&gt;Node10 -->
<g id="edge22_Node000012_Node000010" class="edge">
<title>Node12&#45;&gt;Node10</title>
<g id="a_edge22_Node000012_Node000010"><a xlink:title=" ">
<path fill="none" stroke="#63b8ff" d="M165.7,-96.64C184.16,-101.76 207.01,-108.1 226.45,-113.49"/>
<polygon fill="#63b8ff" stroke="#63b8ff" points="225.27,-117.07 235.84,-116.37 227.14,-110.33 225.27,-117.07"/>
</a>
</g>
</g>
<!-- Node13 -->
<g id="Node000013" class="node">
<title>Node13</title>
<g id="a_Node000013"><a xlink:href="crypt-utils_8c.html#a5c45db4d3db3ef274fb6356e1a95e644" target="_top" xlink:title="Encrypts the given filename with its path using a specified key.">
<polygon fill="white" stroke="#666666" points="336.75,-97.05 201.5,-97.05 201.5,-77.05 336.75,-77.05 336.75,-97.05"/>
<text text-anchor="middle" x="269.12" y="-83.55" font-family="Helvetica,sans-Serif" font-size="10.00">encrypt_path_and_filename</text>
</a>
</g>
</g>
<!-- Node12&#45;&gt;Node13 -->
<g id="edge18_Node000012_Node000013" class="edge">
<title>Node12&#45;&gt;Node13</title>
<g id="a_edge18_Node000012_Node000013"><a xlink:title=" ">
<path fill="none" stroke="#63b8ff" d="M165.7,-87.05C173.33,-87.05 181.72,-87.05 190.31,-87.05"/>
<polygon fill="#63b8ff" stroke="#63b8ff" points="190.25,-90.55 200.25,-87.05 190.25,-83.55 190.25,-90.55"/>
</a>
</g>
</g>
<!-- Node13&#45;&gt;Node3 -->
<g id="edge20_Node000013_Node000003" class="edge">
<title>Node13&#45;&gt;Node3</title>
<g id="a_edge20_Node000013_Node000003"><a xlink:title=" ">
<path fill="none" stroke="#63b8ff" d="M297.93,-76.67C360.53,-55.11 515.7,-11.96 626,-68.05 656.64,-83.63 676.94,-119.84 687.24,-142.78"/>
<polygon fill="#63b8ff" stroke="#63b8ff" points="684.38,-143.98 691.5,-151.83 690.82,-141.25 684.38,-143.98"/>
</a>
</g>
</g>
<!-- Node13&#45;&gt;Node6 -->
<g id="edge19_Node000013_Node000006" class="edge">
<title>Node13&#45;&gt;Node6</title>
<g id="a_edge19_Node000013_Node000006"><a xlink:title=" ">
<path fill="none" stroke="#63b8ff" d="M336.92,-94.45C345.03,-95.35 353.38,-96.27 361.65,-97.19"/>
<polygon fill="#63b8ff" stroke="#63b8ff" points="361.14,-100.76 371.46,-98.39 361.91,-93.81 361.14,-100.76"/>
</a>
</g>
</g>
</g>
</svg>

<g id="navigator" transform="translate(0 0)" fill="#404254">
  <rect fill="#f2f5e9" fill-opacity="0.5" stroke="#606060" stroke-width=".5" x="0" y="0" width="60" height="60"/>
  <use id="zoomplus" xlink:href="#zoomPlus" x="17" y="9" onmousedown="handleZoom(evt,'in')"/>
  <use id="zoomminus" xlink:href="#zoomMin" x="42" y="9" onmousedown="handleZoom(evt,'out')"/>
  <use id="reset" xlink:href="#resetDef" x="30" y="36" onmousedown="handleReset()"/>
   <use id="arrowup" xlink:href="#arrowUp" x="0" y="0" onmousedown="handlePan(0,-1)"/>
  <use id="arrowright" xlink:href="#arrowRight" x="0" y="0" onmousedown="handlePan(1,0)"/>
  <use id="arrowdown" xlink:href="#arrowDown" x="0" y="0" onmousedown="handlePan(0,1)"/>
  <use id="arrowleft" xlink:href="#arrowLeft" x="0" y="0" onmousedown="handlePan(-1,0)"/>
</g>
<svg viewBox="0 0 15 15" width="100%" height="30px" preserveAspectRatio="xMaxYMin meet">
 <g id="arrow_out" transform="scale(0.3 0.3)">
  <a xlink:href="tcfs_8c_adaba2baa5a036b8f77ec187599498a66_cgraph_org.svg" target="_base">
   <rect id="button" ry="5" rx="5" y="6" x="6" height="38" width="38"
        fill="#f2f5e9" fill-opacity="0.5" stroke="#606060" stroke-width="1.0"/>
   <path id="arrow"
     d="M 11.500037,31.436501 C 11.940474,20.09759 22.043105,11.32322 32.158766,21.979434 L 37.068811,17.246167 C 37.068811,17.246167 37.088388,32 37.088388,32 L 22.160133,31.978069 C 22.160133,31.978069 26.997745,27.140456 26.997745,27.140456 C 18.528582,18.264221 13.291696,25.230495 11.500037,31.436501 z"
     style="fill:#404040;"/>
  </a>
 </g>
</svg>

<style type='text/css'>
<![CDATA[
[data-mouse-over-selected='false'] { opacity: 0.7; }
[data-mouse-over-selected='true']  { opacity: 1.0; }
]]>
</style>
<script type="application/ecmascript"><![CDATA[
document.addEventListener('DOMContentLoaded', (event) => {
  highlightEdges();
  highlightAdjacentNodes();
});
]]></script>
</svg>
