<?xml version="1.0" encoding="UTF-8" standalone="no"?>
<!DOCTYPE svg PUBLIC "-//W3C//DTD SVG 1.1//EN"
 "http://www.w3.org/Graphics/SVG/1.1/DTD/svg11.dtd">
<!-- Generated by graphviz version 8.1.0 (20230707.0739)
 -->
<!-- Title: tcfs_statfs Pages: 1 -->
<svg width="175pt" height="66pt"
 viewBox="0.00 0.00 175.00 66.00" xmlns="http://www.w3.org/2000/svg" xmlns:xlink="http://www.w3.org/1999/xlink">
<g id="graph0" class="graph" transform="scale(1 1) rotate(0) translate(4 62)">
<title>tcfs_statfs</title>
<!-- Node1 -->
<g id="Node000001" class="node">
<title>Node1</title>
<g id="a_Node000001"><a xlink:title="Get file system statistics.">
<polygon fill="#999999" stroke="#666666" points="62.5,-39 0,-39 0,-19 62.5,-19 62.5,-39"/>
<text text-anchor="middle" x="31.25" y="-25.5" font-family="Helvetica,sans-Serif" font-size="10.00">tcfs_statfs</text>
</a>
</g>
</g>
<!-- Node2 -->
<g id="Node000002" class="node">
<title>Node2</title>
<g id="a_Node000002"><a xlink:href="tcfs__utils_8c.html#a62b66e43a7ad8b8cf9fcad67f71a7a8b" target="_top" xlink:title="Logs a formatted message to a file with timestamp.">
<polygon fill="white" stroke="#666666" points="167,-58 98.5,-58 98.5,-38 167,-38 167,-58"/>
<text text-anchor="middle" x="132.75" y="-44.5" font-family="Helvetica,sans-Serif" font-size="10.00">logMessage</text>
</a>
</g>
</g>
<!-- Node1&#45;&gt;Node2 -->
<g id="edge1_Node000001_Node000002" class="edge">
<title>Node1&#45;&gt;Node2</title>
<g id="a_edge1_Node000001_Node000002"><a xlink:title=" ">
<path fill="none" stroke="#63b8ff" d="M62.92,-34.86C70.7,-36.34 79.21,-37.97 87.52,-39.55"/>
<polygon fill="#63b8ff" stroke="#63b8ff" points="86.76,-43.16 97.24,-41.6 88.08,-36.29 86.76,-43.16"/>
</a>
</g>
</g>
<!-- Node3 -->
<g id="Node000003" class="node">
<title>Node3</title>
<g id="a_Node000003"><a xlink:href="tcfs__utils_8c.html#ac4ff59963f4a122c9f802c0c2bf2abc8" target="_top" xlink:title="Prefix the realpath to the fuse path.">
<polygon fill="white" stroke="#666666" points="164.75,-20 100.75,-20 100.75,0 164.75,0 164.75,-20"/>
<text text-anchor="middle" x="132.75" y="-6.5" font-family="Helvetica,sans-Serif" font-size="10.00">prefix_path</text>
</a>
</g>
</g>
<!-- Node1&#45;&gt;Node3 -->
<g id="edge2_Node000001_Node000003" class="edge">
<title>Node1&#45;&gt;Node3</title>
<g id="a_edge2_Node000001_Node000003"><a xlink:title=" ">
<path fill="none" stroke="#63b8ff" d="M62.92,-23.14C71.36,-21.53 80.67,-19.75 89.64,-18.04"/>
<polygon fill="#63b8ff" stroke="#63b8ff" points="90.16,-21.31 99.33,-16 88.85,-14.44 90.16,-21.31"/>
</a>
</g>
</g>
</g>
</svg>
