<?xml version="1.0" encoding="UTF-8" standalone="no"?>
<!DOCTYPE svg PUBLIC "-//W3C//DTD SVG 1.1//EN"
 "http://www.w3.org/Graphics/SVG/1.1/DTD/svg11.dtd">
<!-- Generated by graphviz version 8.1.0 (20230707.0739)
 -->
<!-- Title: tcfs_rmdir Pages: 1 -->
<!--zoomable 180 -->

<svg id="main" version="1.1" xmlns="http://www.w3.org/2000/svg" xmlns:xlink="http://www.w3.org/1999/xlink" xml:space="preserve" onload="init(evt)">
<style type="text/css"><![CDATA[
.node, .edge {opacity: 0.7;}
.node.selected, .edge.selected {opacity: 1;}
.edge:hover path { stroke: red; }
.edge:hover polygon { stroke: red; fill: red; }
]]></style>

<defs>
  <circle id="rim" cx="0" cy="0" r="7"/>
  <circle id="rim2" cx="0" cy="0" r="3.5"/>
  <g id="zoomPlus">
    <use xlink:href="#rim" fill="#404040"><set attributeName="fill" to="#808080" begin="zoomplus.mouseover" end="zoomplus.mouseout"/></use>
    <path d="M-4,0h8M0,-4v8" fill="none" stroke="white" stroke-width="1.5" pointer-events="none"/>
  </g>
  <g id="zoomMin">
    <use xlink:href="#rim" fill="#404040"><set attributeName="fill" to="#808080" begin="zoomminus.mouseover" end="zoomminus.mouseout"/></use>
    <path d="M-4,0h8" fill="none" stroke="white" stroke-width="1.5" pointer-events="none"/>
  </g>
  <g id="arrowUp" transform="translate(30 24)">
    <use xlink:href="#rim"/>
    <path pointer-events="none" fill="none" stroke="white" stroke-width="1.5" d="M0,-3.0v7 M-2.5,-0.5L0,-3.0L2.5,-0.5"/>
  </g>
  <g id="arrowRight" transform="rotate(90) translate(36 -43)">
    <use xlink:href="#rim"/>
    <path pointer-events="none" fill="none" stroke="white" stroke-width="1.5" d="M0,-3.0v7 M-2.5,-0.5L0,-3.0L2.5,-0.5"/>
  </g>
  <g id="arrowDown" transform="rotate(180) translate(-30 -48)">
    <use xlink:href="#rim"/>
    <path pointer-events="none" fill="none" stroke="white" stroke-width="1.5" d="M0,-3.0v7 M-2.5,-0.5L0,-3.0L2.5,-0.5"/>
  </g>
  <g id="arrowLeft" transform="rotate(270) translate(-36 17)">
    <use xlink:href="#rim"/>
    <path pointer-events="none" fill="none" stroke="white" stroke-width="1.5" d="M0,-3.0v7 M-2.5,-0.5L0,-3.0L2.5,-0.5"/>
  </g>
  <g id="resetDef">
    <use xlink:href="#rim2" fill="#404040"><set attributeName="fill" to="#808080" begin="reset.mouseover" end="reset.mouseout"/></use>
  </g>
</defs>
<script type="application/ecmascript">
var viewWidth = 570;
var viewHeight = 180;
var sectionId = 'dynsection-24';
</script>
<script type="application/ecmascript" xlink:href="svg.min.js"/>
<svg id="graph" class="graph">
<g id="viewport">
<title>tcfs_rmdir</title>
<!-- Node1 -->
<g id="Node000001" class="node">
<title>Node1</title>
<g id="a_Node000001"><a xlink:title="Removes a directory.">
<polygon fill="#999999" stroke="#666666" points="59.5,-58 0,-58 0,-38 59.5,-38 59.5,-58"/>
<text text-anchor="middle" x="29.75" y="-44.5" font-family="Helvetica,sans-Serif" font-size="10.00">tcfs_rmdir</text>
</a>
</g>
</g>
<!-- Node2 -->
<g id="Node000002" class="node">
<title>Node2</title>
<g id="a_Node000002"><a xlink:href="crypt-utils_8c.html#ad9b10366ade9f2129ec2613fdc76df80" target="_top" xlink:title="Encrypts each part of the given path using a specified key.">
<polygon fill="white" stroke="#666666" points="167.75,-96 95.5,-96 95.5,-76 167.75,-76 167.75,-96"/>
<text text-anchor="middle" x="131.62" y="-82.5" font-family="Helvetica,sans-Serif" font-size="10.00">encrypt_path</text>
</a>
</g>
</g>
<!-- Node1&#45;&gt;Node2 -->
<g id="edge1_Node000001_Node000002" class="edge">
<title>Node1&#45;&gt;Node2</title>
<g id="a_edge1_Node000001_Node000002"><a xlink:title=" ">
<path fill="none" stroke="#63b8ff" d="M58.31,-58.48C69,-62.55 81.43,-67.28 92.93,-71.66"/>
<polygon fill="#63b8ff" stroke="#63b8ff" points="91.57,-75.27 102.16,-75.55 94.06,-68.72 91.57,-75.27"/>
</a>
</g>
</g>
<!-- Node6 -->
<g id="Node000006" class="node">
<title>Node6</title>
<g id="a_Node000006"><a xlink:href="tcfs__utils_8c.html#a62b66e43a7ad8b8cf9fcad67f71a7a8b" target="_top" xlink:title="Logs a formatted message to a file with timestamp.">
<polygon fill="white" stroke="#666666" points="561.5,-96 493,-96 493,-76 561.5,-76 561.5,-96"/>
<text text-anchor="middle" x="527.25" y="-82.5" font-family="Helvetica,sans-Serif" font-size="10.00">logMessage</text>
</a>
</g>
</g>
<!-- Node1&#45;&gt;Node6 -->
<g id="edge7_Node000001_Node000006" class="edge">
<title>Node1&#45;&gt;Node6</title>
<g id="a_edge7_Node000001_Node000006"><a xlink:title=" ">
<path fill="none" stroke="#63b8ff" d="M59.9,-50.24C143.09,-56.62 382.08,-74.94 481.76,-82.59"/>
<polygon fill="#63b8ff" stroke="#63b8ff" points="481.41,-86.15 491.65,-83.42 481.94,-79.17 481.41,-86.15"/>
</a>
</g>
</g>
<!-- Node7 -->
<g id="Node000007" class="node">
<title>Node7</title>
<g id="a_Node000007"><a xlink:href="tcfs__utils_8c.html#ac4ff59963f4a122c9f802c0c2bf2abc8" target="_top" xlink:title="Prefix the realpath to the fuse path.">
<polygon fill="white" stroke="#666666" points="163.62,-20 99.62,-20 99.62,0 163.62,0 163.62,-20"/>
<text text-anchor="middle" x="131.62" y="-6.5" font-family="Helvetica,sans-Serif" font-size="10.00">prefix_path</text>
</a>
</g>
</g>
<!-- Node1&#45;&gt;Node7 -->
<g id="edge8_Node000001_Node000007" class="edge">
<title>Node1&#45;&gt;Node7</title>
<g id="a_edge8_Node000001_Node000007"><a xlink:title=" ">
<path fill="none" stroke="#63b8ff" d="M58.31,-37.52C69,-33.45 81.43,-28.72 92.93,-24.34"/>
<polygon fill="#63b8ff" stroke="#63b8ff" points="94.06,-27.28 102.16,-20.45 91.57,-20.73 94.06,-27.28"/>
</a>
</g>
</g>
<!-- Node3 -->
<g id="Node000003" class="node">
<title>Node3</title>
<g id="a_Node000003"><a xlink:href="crypt-utils_8c.html#aa4a7facde8c6f63a7225c07e92232b2e" target="_top" xlink:title=" ">
<polygon fill="white" stroke="#666666" points="343.5,-134 203.75,-134 203.75,-114 343.5,-114 343.5,-134"/>
<text text-anchor="middle" x="273.62" y="-120.5" font-family="Helvetica,sans-Serif" font-size="10.00">encrypt_file_name_with_hex</text>
</a>
</g>
</g>
<!-- Node2&#45;&gt;Node3 -->
<g id="edge2_Node000002_Node000003" class="edge">
<title>Node2&#45;&gt;Node3</title>
<g id="a_edge2_Node000002_Node000003"><a xlink:title=" ">
<path fill="none" stroke="#63b8ff" d="M167.95,-95.59C184.88,-100.18 205.43,-105.76 223.82,-110.75"/>
<polygon fill="#63b8ff" stroke="#63b8ff" points="222.79,-114.37 233.36,-113.61 224.62,-107.62 222.79,-114.37"/>
</a>
</g>
</g>
<!-- Node2&#45;&gt;Node6 -->
<g id="edge6_Node000002_Node000006" class="edge">
<title>Node2&#45;&gt;Node6</title>
<g id="a_edge6_Node000002_Node000006"><a xlink:title=" ">
<path fill="none" stroke="#63b8ff" d="M167.9,-86C239.81,-86 403.19,-86 482.04,-86"/>
<polygon fill="#63b8ff" stroke="#63b8ff" points="481.59,-89.5 491.59,-86 481.59,-82.5 481.59,-89.5"/>
</a>
</g>
</g>
<!-- Node4 -->
<g id="Node000004" class="node">
<title>Node4</title>
<g id="a_Node000004"><a xlink:href="crypt-utils_8c.html#aa926098a8843cf0ab6bd7eb8b3bbd2e6" target="_top" xlink:title="Encrypt the *plaintext string using a AES 256 key.">
<polygon fill="white" stroke="#666666" points="457,-172 379.5,-172 379.5,-152 457,-152 457,-172"/>
<text text-anchor="middle" x="418.25" y="-158.5" font-family="Helvetica,sans-Serif" font-size="10.00">encrypt_string</text>
</a>
</g>
</g>
<!-- Node3&#45;&gt;Node4 -->
<g id="edge3_Node000003_Node000004" class="edge">
<title>Node3&#45;&gt;Node4</title>
<g id="a_edge3_Node000003_Node000004"><a xlink:title=" ">
<path fill="none" stroke="#63b8ff" d="M313.98,-134.48C330.85,-138.98 350.74,-144.28 368.53,-149.02"/>
<polygon fill="#63b8ff" stroke="#63b8ff" points="367.45,-152.62 378.01,-151.81 369.25,-145.86 367.45,-152.62"/>
</a>
</g>
</g>
<!-- Node5 -->
<g id="Node000005" class="node">
<title>Node5</title>
<g id="a_Node000005"><a xlink:href="tcfs__utils_8c.html#a819d57d5c053a25772508a943d1bcc48" target="_top" xlink:title="Convert a string to its hexadecimal representation.">
<polygon fill="white" stroke="#666666" points="455.5,-134 381,-134 381,-114 455.5,-114 455.5,-134"/>
<text text-anchor="middle" x="418.25" y="-120.5" font-family="Helvetica,sans-Serif" font-size="10.00">string_to_hex</text>
</a>
</g>
</g>
<!-- Node3&#45;&gt;Node5 -->
<g id="edge4_Node000003_Node000005" class="edge">
<title>Node3&#45;&gt;Node5</title>
<g id="a_edge4_Node000003_Node000005"><a xlink:title=" ">
<path fill="none" stroke="#63b8ff" d="M343.85,-124C352.73,-124 361.66,-124 370.07,-124"/>
<polygon fill="#63b8ff" stroke="#63b8ff" points="369.8,-127.5 379.8,-124 369.8,-120.5 369.8,-127.5"/>
</a>
</g>
</g>
<!-- Node5&#45;&gt;Node6 -->
<g id="edge5_Node000005_Node000006" class="edge">
<title>Node5&#45;&gt;Node6</title>
<g id="a_edge5_Node000005_Node000006"><a xlink:title=" ">
<path fill="none" stroke="#63b8ff" d="M448.77,-113.52C460.47,-109.36 474.09,-104.52 486.62,-100.07"/>
<polygon fill="#63b8ff" stroke="#63b8ff" points="487.57,-103.09 495.82,-96.45 485.23,-96.5 487.57,-103.09"/>
</a>
</g>
</g>
</g>
</svg>

<g id="navigator" transform="translate(0 0)" fill="#404254">
  <rect fill="#f2f5e9" fill-opacity="0.5" stroke="#606060" stroke-width=".5" x="0" y="0" width="60" height="60"/>
  <use id="zoomplus" xlink:href="#zoomPlus" x="17" y="9" onmousedown="handleZoom(evt,'in')"/>
  <use id="zoomminus" xlink:href="#zoomMin" x="42" y="9" onmousedown="handleZoom(evt,'out')"/>
  <use id="reset" xlink:href="#resetDef" x="30" y="36" onmousedown="handleReset()"/>
   <use id="arrowup" xlink:href="#arrowUp" x="0" y="0" onmousedown="handlePan(0,-1)"/>
  <use id="arrowright" xlink:href="#arrowRight" x="0" y="0" onmousedown="handlePan(1,0)"/>
  <use id="arrowdown" xlink:href="#arrowDown" x="0" y="0" onmousedown="handlePan(0,1)"/>
  <use id="arrowleft" xlink:href="#arrowLeft" x="0" y="0" onmousedown="handlePan(-1,0)"/>
</g>
<svg viewBox="0 0 15 15" width="100%" height="30px" preserveAspectRatio="xMaxYMin meet">
 <g id="arrow_out" transform="scale(0.3 0.3)">
  <a xlink:href="tcfs_8c_a2853593dded66a922afbdc36afb15a50_cgraph_org.svg" target="_base">
   <rect id="button" ry="5" rx="5" y="6" x="6" height="38" width="38"
        fill="#f2f5e9" fill-opacity="0.5" stroke="#606060" stroke-width="1.0"/>
   <path id="arrow"
     d="M 11.500037,31.436501 C 11.940474,20.09759 22.043105,11.32322 32.158766,21.979434 L 37.068811,17.246167 C 37.068811,17.246167 37.088388,32 37.088388,32 L 22.160133,31.978069 C 22.160133,31.978069 26.997745,27.140456 26.997745,27.140456 C 18.528582,18.264221 13.291696,25.230495 11.500037,31.436501 z"
     style="fill:#404040;"/>
  </a>
 </g>
</svg>

<style type='text/css'>
<![CDATA[
[data-mouse-over-selected='false'] { opacity: 0.7; }
[data-mouse-over-selected='true']  { opacity: 1.0; }
]]>
</style>
<script type="application/ecmascript"><![CDATA[
document.addEventListener('DOMContentLoaded', (event) => {
  highlightEdges();
  highlightAdjacentNodes();
});
]]></script>
</svg>
