<?xml version="1.0" encoding="UTF-8" standalone="no"?>
<!DOCTYPE svg PUBLIC "-//W3C//DTD SVG 1.1//EN"
 "http://www.w3.org/Graphics/SVG/1.1/DTD/svg11.dtd">
<!-- Generated by graphviz version 8.1.0 (20230707.0739)
 -->
<!-- Title: tcfs_create Pages: 1 -->
<!--zoomable 433 -->

<svg id="main" version="1.1" xmlns="http://www.w3.org/2000/svg" xmlns:xlink="http://www.w3.org/1999/xlink" xml:space="preserve" onload="init(evt)">
<style type="text/css"><![CDATA[
.node, .edge {opacity: 0.7;}
.node.selected, .edge.selected {opacity: 1;}
.edge:hover path { stroke: red; }
.edge:hover polygon { stroke: red; fill: red; }
]]></style>

<defs>
  <circle id="rim" cx="0" cy="0" r="7"/>
  <circle id="rim2" cx="0" cy="0" r="3.5"/>
  <g id="zoomPlus">
    <use xlink:href="#rim" fill="#404040"><set attributeName="fill" to="#808080" begin="zoomplus.mouseover" end="zoomplus.mouseout"/></use>
    <path d="M-4,0h8M0,-4v8" fill="none" stroke="white" stroke-width="1.5" pointer-events="none"/>
  </g>
  <g id="zoomMin">
    <use xlink:href="#rim" fill="#404040"><set attributeName="fill" to="#808080" begin="zoomminus.mouseover" end="zoomminus.mouseout"/></use>
    <path d="M-4,0h8" fill="none" stroke="white" stroke-width="1.5" pointer-events="none"/>
  </g>
  <g id="arrowUp" transform="translate(30 24)">
    <use xlink:href="#rim"/>
    <path pointer-events="none" fill="none" stroke="white" stroke-width="1.5" d="M0,-3.0v7 M-2.5,-0.5L0,-3.0L2.5,-0.5"/>
  </g>
  <g id="arrowRight" transform="rotate(90) translate(36 -43)">
    <use xlink:href="#rim"/>
    <path pointer-events="none" fill="none" stroke="white" stroke-width="1.5" d="M0,-3.0v7 M-2.5,-0.5L0,-3.0L2.5,-0.5"/>
  </g>
  <g id="arrowDown" transform="rotate(180) translate(-30 -48)">
    <use xlink:href="#rim"/>
    <path pointer-events="none" fill="none" stroke="white" stroke-width="1.5" d="M0,-3.0v7 M-2.5,-0.5L0,-3.0L2.5,-0.5"/>
  </g>
  <g id="arrowLeft" transform="rotate(270) translate(-36 17)">
    <use xlink:href="#rim"/>
    <path pointer-events="none" fill="none" stroke="white" stroke-width="1.5" d="M0,-3.0v7 M-2.5,-0.5L0,-3.0L2.5,-0.5"/>
  </g>
  <g id="resetDef">
    <use xlink:href="#rim2" fill="#404040"><set attributeName="fill" to="#808080" begin="reset.mouseover" end="reset.mouseout"/></use>
  </g>
</defs>
<script type="application/ecmascript">
var viewWidth = 748;
var viewHeight = 433;
var sectionId = 'dynsection-7';
</script>
<script type="application/ecmascript" xlink:href="svg.min.js"/>
<svg id="graph" class="graph">
<g id="viewport">
<title>tcfs_create</title>
<!-- Node1 -->
<g id="Node000001" class="node">
<title>Node1</title>
<g id="a_Node000001"><a xlink:title="Create and open a file.">
<polygon fill="#999999" stroke="#666666" points="64.75,-210 0,-210 0,-190 64.75,-190 64.75,-210"/>
<text text-anchor="middle" x="32.38" y="-196.5" font-family="Helvetica,sans-Serif" font-size="10.00">tcfs_create</text>
</a>
</g>
</g>
<!-- Node2 -->
<g id="Node000002" class="node">
<title>Node2</title>
<g id="a_Node000002"><a xlink:href="crypt-utils_8c.html#a5c45db4d3db3ef274fb6356e1a95e644" target="_top" xlink:title="Encrypts the given filename with its path using a specified key.">
<polygon fill="white" stroke="#666666" points="346.5,-362 211.25,-362 211.25,-342 346.5,-342 346.5,-362"/>
<text text-anchor="middle" x="278.88" y="-348.5" font-family="Helvetica,sans-Serif" font-size="10.00">encrypt_path_and_filename</text>
</a>
</g>
</g>
<!-- Node1&#45;&gt;Node2 -->
<g id="edge1_Node000001_Node000002" class="edge">
<title>Node1&#45;&gt;Node2</title>
<g id="a_edge1_Node000001_Node000002"><a xlink:title=" ">
<path fill="none" stroke="#63b8ff" d="M35.47,-210.43C41.09,-235.41 58.98,-298.78 100.75,-328 129.43,-348.07 167.22,-355.11 200.53,-356.71"/>
<polygon fill="#63b8ff" stroke="#63b8ff" points="200.06,-360.23 210.17,-357.05 200.28,-353.23 200.06,-360.23"/>
</a>
</g>
</g>
<!-- Node4 -->
<g id="Node000004" class="node">
<title>Node4</title>
<g id="a_Node000004"><a xlink:href="crypt-utils_8c.html#aa926098a8843cf0ab6bd7eb8b3bbd2e6" target="_top" xlink:title="Encrypt the *plaintext string using a AES 256 key.">
<polygon fill="white" stroke="#666666" points="635.75,-400 558.25,-400 558.25,-380 635.75,-380 635.75,-400"/>
<text text-anchor="middle" x="597" y="-386.5" font-family="Helvetica,sans-Serif" font-size="10.00">encrypt_string</text>
</a>
</g>
</g>
<!-- Node1&#45;&gt;Node4 -->
<g id="edge7_Node000001_Node000004" class="edge">
<title>Node1&#45;&gt;Node4</title>
<g id="a_edge7_Node000001_Node000004"><a xlink:title=" ">
<path fill="none" stroke="#63b8ff" d="M34.48,-210.4C38.08,-238.78 52.25,-317.95 100.75,-355 234.15,-456.89 451.19,-424.02 547.42,-402.45"/>
<polygon fill="#63b8ff" stroke="#63b8ff" points="548.03,-405.67 556.99,-400.01 546.46,-398.85 548.03,-405.67"/>
</a>
</g>
</g>
<!-- Node6 -->
<g id="Node000006" class="node">
<title>Node6</title>
<g id="a_Node000006"><a xlink:href="tcfs__utils_8c.html#a62b66e43a7ad8b8cf9fcad67f71a7a8b" target="_top" xlink:title="Logs a formatted message to a file with timestamp.">
<polygon fill="white" stroke="#666666" points="740.25,-248 671.75,-248 671.75,-228 740.25,-228 740.25,-248"/>
<text text-anchor="middle" x="706" y="-234.5" font-family="Helvetica,sans-Serif" font-size="10.00">logMessage</text>
</a>
</g>
</g>
<!-- Node1&#45;&gt;Node6 -->
<g id="edge16_Node000001_Node000006" class="edge">
<title>Node1&#45;&gt;Node6</title>
<g id="a_edge16_Node000001_Node000006"><a xlink:title=" ">
<path fill="none" stroke="#63b8ff" d="M47.14,-210.46C75.78,-231.5 144.69,-278.34 211.25,-295 303.19,-318.01 542.58,-271.33 635.75,-254 643.85,-252.49 652.43,-250.68 660.69,-248.83"/>
<polygon fill="#63b8ff" stroke="#63b8ff" points="661.34,-252.05 670.31,-246.4 659.78,-245.22 661.34,-252.05"/>
</a>
</g>
</g>
<!-- Node7 -->
<g id="Node000007" class="node">
<title>Node7</title>
<g id="a_Node000007"><a xlink:href="crypt-utils_8c.html#a8845f5705eaafda836aac91d5881876f" target="_top" xlink:title="Generate a new AES 256 key for a file.">
<polygon fill="white" stroke="#666666" points="175.25,-210 100.75,-210 100.75,-190 175.25,-190 175.25,-210"/>
<text text-anchor="middle" x="138" y="-196.5" font-family="Helvetica,sans-Serif" font-size="10.00">generate_key</text>
</a>
</g>
</g>
<!-- Node1&#45;&gt;Node7 -->
<g id="edge8_Node000001_Node000007" class="edge">
<title>Node1&#45;&gt;Node7</title>
<g id="a_edge8_Node000001_Node000007"><a xlink:title=" ">
<path fill="none" stroke="#63b8ff" d="M65.03,-200C72.81,-200 81.31,-200 89.65,-200"/>
<polygon fill="#63b8ff" stroke="#63b8ff" points="89.46,-203.5 99.46,-200 89.46,-196.5 89.46,-203.5"/>
</a>
</g>
</g>
<!-- Node10 -->
<g id="Node000010" class="node">
<title>Node10</title>
<g id="a_Node000010"><a xlink:href="crypt-utils_8c.html#a36c2342a7c47b8f41bf628bf473b1c97" target="_top" xlink:title="Check if a given key is valid.">
<polygon fill="white" stroke="#666666" points="313.88,-134 243.88,-134 243.88,-114 313.88,-114 313.88,-134"/>
<text text-anchor="middle" x="278.88" y="-120.5" font-family="Helvetica,sans-Serif" font-size="10.00">is_valid_key</text>
</a>
</g>
</g>
<!-- Node1&#45;&gt;Node10 -->
<g id="edge15_Node000001_Node000010" class="edge">
<title>Node1&#45;&gt;Node10</title>
<g id="a_edge15_Node000001_Node000010"><a xlink:title=" ">
<path fill="none" stroke="#63b8ff" d="M64.84,-190.22C107.86,-176.85 185.23,-152.8 233.95,-137.66"/>
<polygon fill="#63b8ff" stroke="#63b8ff" points="234.67,-140.78 243.18,-134.47 232.59,-134.1 234.67,-140.78"/>
</a>
</g>
</g>
<!-- Node12 -->
<g id="Node000012" class="node">
<title>Node12</title>
<g id="a_Node000012"><a xlink:href="tcfs__utils_8c.html#ac4ff59963f4a122c9f802c0c2bf2abc8" target="_top" xlink:title="Prefix the realpath to the fuse path.">
<polygon fill="white" stroke="#666666" points="310.88,-20 246.88,-20 246.88,0 310.88,0 310.88,-20"/>
<text text-anchor="middle" x="278.88" y="-6.5" font-family="Helvetica,sans-Serif" font-size="10.00">prefix_path</text>
</a>
</g>
</g>
<!-- Node1&#45;&gt;Node12 -->
<g id="edge17_Node000001_Node000012" class="edge">
<title>Node1&#45;&gt;Node12</title>
<g id="a_edge17_Node000001_Node000012"><a xlink:title=" ">
<path fill="none" stroke="#63b8ff" d="M35.22,-189.61C40.44,-163.35 57.83,-93.87 100.75,-58 138.99,-26.04 196.63,-15.21 235.69,-11.63"/>
<polygon fill="#63b8ff" stroke="#63b8ff" points="235.73,-15.06 245.42,-10.78 235.18,-8.08 235.73,-15.06"/>
</a>
</g>
</g>
<!-- Node13 -->
<g id="Node000013" class="node">
<title>Node13</title>
<g id="a_Node000013"><a xlink:href="tcfs_8c.html#ad3c328fdcd93c8203e1ce9c785fd3a14" target="_top" xlink:title="Sets extended attributes.">
<polygon fill="white" stroke="#666666" points="173.38,-87 102.62,-87 102.62,-67 173.38,-67 173.38,-87"/>
<text text-anchor="middle" x="138" y="-73.5" font-family="Helvetica,sans-Serif" font-size="10.00">tcfs_setxattr</text>
</a>
</g>
</g>
<!-- Node1&#45;&gt;Node13 -->
<g id="edge18_Node000001_Node000013" class="edge">
<title>Node1&#45;&gt;Node13</title>
<g id="a_edge18_Node000001_Node000013"><a xlink:title=" ">
<path fill="none" stroke="#63b8ff" d="M42.21,-189.51C59.72,-168.73 99.05,-122.04 121.15,-95.81"/>
<polygon fill="#63b8ff" stroke="#63b8ff" points="124.42,-98.36 128.19,-88.46 119.07,-93.85 124.42,-98.36"/>
</a>
</g>
</g>
<!-- Node3 -->
<g id="Node000003" class="node">
<title>Node3</title>
<g id="a_Node000003"><a xlink:href="crypt-utils_8c.html#aa4a7facde8c6f63a7225c07e92232b2e" target="_top" xlink:title=" ">
<polygon fill="white" stroke="#666666" points="522.25,-324 382.5,-324 382.5,-304 522.25,-304 522.25,-324"/>
<text text-anchor="middle" x="452.38" y="-310.5" font-family="Helvetica,sans-Serif" font-size="10.00">encrypt_file_name_with_hex</text>
</a>
</g>
</g>
<!-- Node2&#45;&gt;Node3 -->
<g id="edge2_Node000002_Node000003" class="edge">
<title>Node2&#45;&gt;Node3</title>
<g id="a_edge2_Node000002_Node000003"><a xlink:title=" ">
<path fill="none" stroke="#63b8ff" d="M327.19,-341.52C347.72,-336.97 371.95,-331.6 393.53,-326.82"/>
<polygon fill="#63b8ff" stroke="#63b8ff" points="394.21,-330.03 403.21,-324.45 392.69,-323.2 394.21,-330.03"/>
</a>
</g>
</g>
<!-- Node2&#45;&gt;Node6 -->
<g id="edge6_Node000002_Node000006" class="edge">
<title>Node2&#45;&gt;Node6</title>
<g id="a_edge6_Node000002_Node000006"><a xlink:title=" ">
<path fill="none" stroke="#63b8ff" d="M332.2,-362.46C405.09,-374.22 539.08,-385.45 635.75,-333 665.81,-316.69 686.19,-281.02 696.68,-258.33"/>
<polygon fill="#63b8ff" stroke="#63b8ff" points="700.24,-259.94 701.04,-249.38 693.82,-257.14 700.24,-259.94"/>
</a>
</g>
</g>
<!-- Node3&#45;&gt;Node4 -->
<g id="edge3_Node000003_Node000004" class="edge">
<title>Node3&#45;&gt;Node4</title>
<g id="a_edge3_Node000003_Node000004"><a xlink:title=" ">
<path fill="none" stroke="#63b8ff" d="M472.91,-324.41C497.23,-337.37 539,-359.63 567.05,-374.57"/>
<polygon fill="#63b8ff" stroke="#63b8ff" points="565.23,-378.1 575.7,-379.72 568.52,-371.93 565.23,-378.1"/>
</a>
</g>
</g>
<!-- Node5 -->
<g id="Node000005" class="node">
<title>Node5</title>
<g id="a_Node000005"><a xlink:href="tcfs__utils_8c.html#a819d57d5c053a25772508a943d1bcc48" target="_top" xlink:title="Convert a string to its hexadecimal representation.">
<polygon fill="white" stroke="#666666" points="634.25,-324 559.75,-324 559.75,-304 634.25,-304 634.25,-324"/>
<text text-anchor="middle" x="597" y="-310.5" font-family="Helvetica,sans-Serif" font-size="10.00">string_to_hex</text>
</a>
</g>
</g>
<!-- Node3&#45;&gt;Node5 -->
<g id="edge4_Node000003_Node000005" class="edge">
<title>Node3&#45;&gt;Node5</title>
<g id="a_edge4_Node000003_Node000005"><a xlink:title=" ">
<path fill="none" stroke="#63b8ff" d="M522.6,-314C531.48,-314 540.41,-314 548.82,-314"/>
<polygon fill="#63b8ff" stroke="#63b8ff" points="548.55,-317.5 558.55,-314 548.55,-310.5 548.55,-317.5"/>
</a>
</g>
</g>
<!-- Node5&#45;&gt;Node6 -->
<g id="edge5_Node000005_Node000006" class="edge">
<title>Node5&#45;&gt;Node6</title>
<g id="a_edge5_Node000005_Node000006"><a xlink:title=" ">
<path fill="none" stroke="#63b8ff" d="M615.1,-303.52C621.63,-299.42 629.11,-294.6 635.75,-290 651.92,-278.81 669.65,-265.48 683.12,-255.12"/>
<polygon fill="#63b8ff" stroke="#63b8ff" points="684.93,-257.37 690.69,-248.48 680.64,-251.83 684.93,-257.37"/>
</a>
</g>
</g>
<!-- Node7&#45;&gt;Node6 -->
<g id="edge12_Node000007_Node000006" class="edge">
<title>Node7&#45;&gt;Node6</title>
<g id="a_edge12_Node000007_Node000006"><a xlink:title=" ">
<path fill="none" stroke="#63b8ff" d="M172.5,-210.44C184.59,-213.77 198.42,-217.09 211.25,-219 375.65,-243.48 574.03,-241.79 660.78,-239.52"/>
<polygon fill="#63b8ff" stroke="#63b8ff" points="660.64,-243 670.54,-239.22 660.44,-236 660.64,-243"/>
</a>
</g>
</g>
<!-- Node8 -->
<g id="Node000008" class="node">
<title>Node8</title>
<g id="a_Node000008"><a xlink:href="crypt-utils_8c.html#a53b5762e00daafcc3644c03e2fd9b2c4" target="_top" xlink:title="Force new entropy in /dev/urandom.">
<polygon fill="white" stroke="#666666" points="313.5,-286 244.25,-286 244.25,-266 313.5,-266 313.5,-286"/>
<text text-anchor="middle" x="278.88" y="-272.5" font-family="Helvetica,sans-Serif" font-size="10.00">add_entropy</text>
</a>
</g>
</g>
<!-- Node7&#45;&gt;Node8 -->
<g id="edge9_Node000007_Node000008" class="edge">
<title>Node7&#45;&gt;Node8</title>
<g id="a_edge9_Node000007_Node000008"><a xlink:title=" ">
<path fill="none" stroke="#63b8ff" d="M151.09,-210.33C164.91,-221.73 188.55,-240.04 211.25,-252 218.28,-255.7 226.01,-259.07 233.63,-262.02"/>
<polygon fill="#63b8ff" stroke="#63b8ff" points="232.29,-265.63 242.89,-265.8 234.71,-259.06 232.29,-265.63"/>
</a>
</g>
</g>
<!-- Node9 -->
<g id="Node000009" class="node">
<title>Node9</title>
<g id="a_Node000009"><a xlink:href="crypt-utils_8c.html#aa377df016f593aa771013264acc9b86b" target="_top" xlink:title="Verify if there is enough entropy in the system to generate a key.">
<polygon fill="white" stroke="#666666" points="318.75,-210 239,-210 239,-190 318.75,-190 318.75,-210"/>
<text text-anchor="middle" x="278.88" y="-196.5" font-family="Helvetica,sans-Serif" font-size="10.00">check_entropy</text>
</a>
</g>
</g>
<!-- Node7&#45;&gt;Node9 -->
<g id="edge10_Node000007_Node000009" class="edge">
<title>Node7&#45;&gt;Node9</title>
<g id="a_edge10_Node000007_Node000009"><a xlink:title=" ">
<path fill="none" stroke="#63b8ff" d="M175.49,-200C191.59,-200 210.78,-200 228.16,-200"/>
<polygon fill="#63b8ff" stroke="#63b8ff" points="227.71,-203.5 237.71,-200 227.71,-196.5 227.71,-203.5"/>
</a>
</g>
</g>
<!-- Node7&#45;&gt;Node10 -->
<g id="edge11_Node000007_Node000010" class="edge">
<title>Node7&#45;&gt;Node10</title>
<g id="a_edge11_Node000007_Node000010"><a xlink:title=" ">
<path fill="none" stroke="#63b8ff" d="M151.09,-189.67C164.91,-178.27 188.55,-159.96 211.25,-148 218.2,-144.34 225.84,-141.01 233.39,-138.07"/>
<polygon fill="#63b8ff" stroke="#63b8ff" points="234.38,-141.07 242.54,-134.32 231.95,-134.5 234.38,-141.07"/>
</a>
</g>
</g>
<!-- Node11 -->
<g id="Node000011" class="node">
<title>Node11</title>
<g id="a_Node000011"><a xlink:href="tcfs__utils_8c.html#a8c1c24299a2b01f6157b051cb56ebc52" target="_top" xlink:title="Print the value of an AES key.">
<polygon fill="white" stroke="#666666" points="490.75,-186 414,-186 414,-166 490.75,-166 490.75,-186"/>
<text text-anchor="middle" x="452.38" y="-172.5" font-family="Helvetica,sans-Serif" font-size="10.00">print_aes_key</text>
</a>
</g>
</g>
<!-- Node7&#45;&gt;Node11 -->
<g id="edge13_Node000007_Node000011" class="edge">
<title>Node7&#45;&gt;Node11</title>
<g id="a_edge13_Node000007_Node000011"><a xlink:title=" ">
<path fill="none" stroke="#63b8ff" d="M172.12,-189.53C184.29,-186.16 198.28,-182.81 211.25,-181 277.15,-171.78 354.19,-172.11 402.88,-173.67"/>
<polygon fill="#63b8ff" stroke="#63b8ff" points="402.61,-177.2 412.72,-174.05 402.85,-170.2 402.61,-177.2"/>
</a>
</g>
</g>
<!-- Node11&#45;&gt;Node6 -->
<g id="edge14_Node000011_Node000006" class="edge">
<title>Node11&#45;&gt;Node6</title>
<g id="a_edge14_Node000011_Node000006"><a xlink:title=" ">
<path fill="none" stroke="#63b8ff" d="M491.05,-185.28C536.55,-196.49 612.96,-215.32 661.09,-227.18"/>
<polygon fill="#63b8ff" stroke="#63b8ff" points="659.96,-230.75 670.5,-229.75 661.63,-223.96 659.96,-230.75"/>
</a>
</g>
</g>
<!-- Node13&#45;&gt;Node6 -->
<g id="edge22_Node000013_Node000006" class="edge">
<title>Node13&#45;&gt;Node6</title>
<g id="a_edge22_Node000013_Node000006"><a xlink:title=" ">
<path fill="none" stroke="#63b8ff" d="M173.81,-71.2C185.66,-69.48 199,-67.84 211.25,-67 350.28,-57.42 391.08,-59.92 522.25,-107 575.38,-126.07 590.54,-130.2 635.75,-164 657.07,-179.94 677.38,-202.89 690.43,-218.99"/>
<polygon fill="#63b8ff" stroke="#63b8ff" points="688.27,-220.91 697.22,-226.58 693.76,-216.56 688.27,-220.91"/>
</a>
</g>
</g>
<!-- Node13&#45;&gt;Node12 -->
<g id="edge23_Node000013_Node000012" class="edge">
<title>Node13&#45;&gt;Node12</title>
<g id="a_edge23_Node000013_Node000012"><a xlink:title=" ">
<path fill="none" stroke="#63b8ff" d="M154.59,-66.53C168.91,-57.21 190.92,-43.6 211.25,-34 219.23,-30.23 227.98,-26.69 236.43,-23.54"/>
<polygon fill="#63b8ff" stroke="#63b8ff" points="237.3,-26.59 245.53,-19.91 234.93,-20 237.3,-26.59"/>
</a>
</g>
</g>
<!-- Node14 -->
<g id="Node000014" class="node">
<title>Node14</title>
<g id="a_Node000014"><a xlink:href="crypt-utils_8c.html#ad9b10366ade9f2129ec2613fdc76df80" target="_top" xlink:title="Encrypts each part of the given path using a specified key.">
<polygon fill="white" stroke="#666666" points="315,-96 242.75,-96 242.75,-76 315,-76 315,-96"/>
<text text-anchor="middle" x="278.88" y="-82.5" font-family="Helvetica,sans-Serif" font-size="10.00">encrypt_path</text>
</a>
</g>
</g>
<!-- Node13&#45;&gt;Node14 -->
<g id="edge19_Node000013_Node000014" class="edge">
<title>Node13&#45;&gt;Node14</title>
<g id="a_edge19_Node000013_Node000014"><a xlink:title=" ">
<path fill="none" stroke="#63b8ff" d="M173.69,-79.25C191.28,-80.39 212.89,-81.79 231.85,-83.02"/>
<polygon fill="#63b8ff" stroke="#63b8ff" points="231.46,-86.56 241.67,-83.72 231.91,-79.58 231.46,-86.56"/>
</a>
</g>
</g>
<!-- Node14&#45;&gt;Node3 -->
<g id="edge20_Node000014_Node000003" class="edge">
<title>Node14&#45;&gt;Node3</title>
<g id="a_edge20_Node000014_Node000003"><a xlink:title=" ">
<path fill="none" stroke="#63b8ff" d="M315.37,-89.92C326.41,-92.66 337.93,-97.26 346.5,-105 378.49,-133.86 363.66,-156.26 382.5,-195 400.14,-231.28 424.5,-271.52 439.03,-294.68"/>
<polygon fill="#63b8ff" stroke="#63b8ff" points="436.47,-296.19 444.78,-302.77 442.39,-292.45 436.47,-296.19"/>
</a>
</g>
</g>
<!-- Node14&#45;&gt;Node6 -->
<g id="edge21_Node000014_Node000006" class="edge">
<title>Node14&#45;&gt;Node6</title>
<g id="a_edge21_Node000014_Node000006"><a xlink:title=" ">
<path fill="none" stroke="#63b8ff" d="M315.32,-94.09C380.6,-109.68 523.4,-146.97 635.75,-199 650.52,-205.84 666.38,-214.65 679.19,-222.17"/>
<polygon fill="#63b8ff" stroke="#63b8ff" points="676.94,-225.5 687.32,-227.61 680.52,-219.49 676.94,-225.5"/>
</a>
</g>
</g>
</g>
</svg>

<g id="navigator" transform="translate(0 0)" fill="#404254">
  <rect fill="#f2f5e9" fill-opacity="0.5" stroke="#606060" stroke-width=".5" x="0" y="0" width="60" height="60"/>
  <use id="zoomplus" xlink:href="#zoomPlus" x="17" y="9" onmousedown="handleZoom(evt,'in')"/>
  <use id="zoomminus" xlink:href="#zoomMin" x="42" y="9" onmousedown="handleZoom(evt,'out')"/>
  <use id="reset" xlink:href="#resetDef" x="30" y="36" onmousedown="handleReset()"/>
   <use id="arrowup" xlink:href="#arrowUp" x="0" y="0" onmousedown="handlePan(0,-1)"/>
  <use id="arrowright" xlink:href="#arrowRight" x="0" y="0" onmousedown="handlePan(1,0)"/>
  <use id="arrowdown" xlink:href="#arrowDown" x="0" y="0" onmousedown="handlePan(0,1)"/>
  <use id="arrowleft" xlink:href="#arrowLeft" x="0" y="0" onmousedown="handlePan(-1,0)"/>
</g>
<svg viewBox="0 0 15 15" width="100%" height="30px" preserveAspectRatio="xMaxYMin meet">
 <g id="arrow_out" transform="scale(0.3 0.3)">
  <a xlink:href="tcfs_8c_ad973ad9d6ab7d6276bf85cd8fecd0657_cgraph_org.svg" target="_base">
   <rect id="button" ry="5" rx="5" y="6" x="6" height="38" width="38"
        fill="#f2f5e9" fill-opacity="0.5" stroke="#606060" stroke-width="1.0"/>
   <path id="arrow"
     d="M 11.500037,31.436501 C 11.940474,20.09759 22.043105,11.32322 32.158766,21.979434 L 37.068811,17.246167 C 37.068811,17.246167 37.088388,32 37.088388,32 L 22.160133,31.978069 C 22.160133,31.978069 26.997745,27.140456 26.997745,27.140456 C 18.528582,18.264221 13.291696,25.230495 11.500037,31.436501 z"
     style="fill:#404040;"/>
  </a>
 </g>
</svg>

<style type='text/css'>
<![CDATA[
[data-mouse-over-selected='false'] { opacity: 0.7; }
[data-mouse-over-selected='true']  { opacity: 1.0; }
]]>
</style>
<script type="application/ecmascript"><![CDATA[
document.addEventListener('DOMContentLoaded', (event) => {
  highlightEdges();
  highlightAdjacentNodes();
});
]]></script>
</svg>
