<?xml version="1.0" encoding="UTF-8" standalone="no"?>
<!DOCTYPE svg PUBLIC "-//W3C//DTD SVG 1.1//EN"
 "http://www.w3.org/Graphics/SVG/1.1/DTD/svg11.dtd">
<!-- Generated by graphviz version 8.1.0 (20230707.0739)
 -->
<!-- Title: do_mount Pages: 1 -->
<svg width="689pt" height="154pt"
 viewBox="0.00 0.00 688.75 154.00" xmlns="http://www.w3.org/2000/svg" xmlns:xlink="http://www.w3.org/1999/xlink">
<g id="graph0" class="graph" transform="scale(1 1) rotate(0) translate(4 150)">
<title>do_mount</title>
<!-- Node1 -->
<g id="Node000001" class="node">
<title>Node1</title>
<g id="a_Node000001"><a xlink:title="Execute the mount of either a Network FS (for ex NFS), Local FS (for ex a block device),...">
<polygon fill="#999999" stroke="#666666" points="58.75,-108 0,-108 0,-88 58.75,-88 58.75,-108"/>
<text text-anchor="middle" x="29.38" y="-94.5" font-family="Helvetica,sans-Serif" font-size="10.00">do_mount</text>
</a>
</g>
</g>
<!-- Node2 -->
<g id="Node000002" class="node">
<title>Node2</title>
<g id="a_Node000002"><a xlink:href="tcfs__helper__tools_8c.html#afaed41fa1136b829eb00a7de26a3739b" target="_top" xlink:title=" ">
<polygon fill="white" stroke="#666666" points="203.75,-146 97.75,-146 97.75,-126 203.75,-126 203.75,-146"/>
<text text-anchor="middle" x="150.75" y="-132.5" font-family="Helvetica,sans-Serif" font-size="10.00">handle_folder_mount</text>
</a>
</g>
</g>
<!-- Node1&#45;&gt;Node2 -->
<g id="edge1_Node000001_Node000002" class="edge">
<title>Node1&#45;&gt;Node2</title>
<g id="a_edge1_Node000001_Node000002"><a xlink:title=" ">
<path fill="none" stroke="#63b8ff" d="M58.97,-107.1C73.34,-111.68 91.05,-117.31 107,-122.39"/>
<polygon fill="#63b8ff" stroke="#63b8ff" points="105.58,-125.93 116.17,-125.63 107.71,-119.26 105.58,-125.93"/>
</a>
</g>
</g>
<!-- Node6 -->
<g id="Node000006" class="node">
<title>Node6</title>
<g id="a_Node000006"><a xlink:href="tcfs__helper__tools_8c.html#a816c2bcaa3d059abc79cb9b021957dbf" target="_top" xlink:title=" ">
<polygon fill="white" stroke="#666666" points="201.88,-108 99.62,-108 99.62,-88 201.88,-88 201.88,-108"/>
<text text-anchor="middle" x="150.75" y="-94.5" font-family="Helvetica,sans-Serif" font-size="10.00">handle_local_mount</text>
</a>
</g>
</g>
<!-- Node1&#45;&gt;Node6 -->
<g id="edge5_Node000001_Node000006" class="edge">
<title>Node1&#45;&gt;Node6</title>
<g id="a_edge5_Node000001_Node000006"><a xlink:title=" ">
<path fill="none" stroke="#63b8ff" d="M58.97,-98C67.98,-98 78.3,-98 88.68,-98"/>
<polygon fill="#63b8ff" stroke="#63b8ff" points="88.46,-101.5 98.46,-98 88.46,-94.5 88.46,-101.5"/>
</a>
</g>
</g>
<!-- Node11 -->
<g id="Node000011" class="node">
<title>Node11</title>
<g id="a_Node000011"><a xlink:href="tcfs__helper__tools_8c.html#aa5b1203d82818e149ae3ad3fd3840a40" target="_top" xlink:title=" ">
<polygon fill="white" stroke="#666666" points="206.75,-70 94.75,-70 94.75,-50 206.75,-50 206.75,-70"/>
<text text-anchor="middle" x="150.75" y="-56.5" font-family="Helvetica,sans-Serif" font-size="10.00">handle_remote_mount</text>
</a>
</g>
</g>
<!-- Node1&#45;&gt;Node11 -->
<g id="edge12_Node000001_Node000011" class="edge">
<title>Node1&#45;&gt;Node11</title>
<g id="a_edge12_Node000001_Node000011"><a xlink:title=" ">
<path fill="none" stroke="#63b8ff" d="M58.97,-88.9C73.34,-84.32 91.05,-78.69 107,-73.61"/>
<polygon fill="#63b8ff" stroke="#63b8ff" points="107.71,-76.74 116.17,-70.37 105.58,-70.07 107.71,-76.74"/>
</a>
</g>
</g>
<!-- Node3 -->
<g id="Node000003" class="node">
<title>Node3</title>
<g id="a_Node000003"><a xlink:href="tcfs__helper__tools_8c.html#ae1746adb62f9476a6d8166b62faa7a91" target="_top" xlink:title=" ">
<polygon fill="white" stroke="#666666" points="348,-146 260,-146 260,-126 348,-126 348,-146"/>
<text text-anchor="middle" x="304" y="-132.5" font-family="Helvetica,sans-Serif" font-size="10.00">get_source_dest</text>
</a>
</g>
</g>
<!-- Node2&#45;&gt;Node3 -->
<g id="edge2_Node000002_Node000003" class="edge">
<title>Node2&#45;&gt;Node3</title>
<g id="a_edge2_Node000002_Node000003"><a xlink:title=" ">
<path fill="none" stroke="#63b8ff" d="M204.23,-136C218.64,-136 234.3,-136 248.8,-136"/>
<polygon fill="#63b8ff" stroke="#63b8ff" points="248.64,-139.5 258.64,-136 248.64,-132.5 248.64,-139.5"/>
</a>
</g>
</g>
<!-- Node4 -->
<g id="Node000004" class="node">
<title>Node4</title>
<g id="a_Node000004"><a xlink:href="tcfs__helper__tools_8c.html#a26931b8bdf24be94e03f4d77e991d063" target="_top" xlink:title=" ">
<polygon fill="white" stroke="#666666" points="351,-108 257,-108 257,-88 351,-88 351,-108"/>
<text text-anchor="middle" x="304" y="-94.5" font-family="Helvetica,sans-Serif" font-size="10.00">mount_tcfs_folder</text>
</a>
</g>
</g>
<!-- Node2&#45;&gt;Node4 -->
<g id="edge3_Node000002_Node000004" class="edge">
<title>Node2&#45;&gt;Node4</title>
<g id="a_edge3_Node000002_Node000004"><a xlink:title=" ">
<path fill="none" stroke="#63b8ff" d="M193.48,-125.52C211.25,-121.05 232.17,-115.79 250.94,-111.08"/>
<polygon fill="#63b8ff" stroke="#63b8ff" points="251.56,-114.28 260.41,-108.45 249.85,-107.49 251.56,-114.28"/>
</a>
</g>
</g>
<!-- Node5 -->
<g id="Node000005" class="node">
<title>Node5</title>
<g id="a_Node000005"><a xlink:href="tcfs__helper__tools_8c.html#a1bef5d2cdd74c07b3ae025c6424dfbd5" target="_top" xlink:title="fetch the password of the current user. This function is marked as internal and should not be used by...">
<polygon fill="white" stroke="#666666" points="490.75,-108 435,-108 435,-88 490.75,-88 490.75,-108"/>
<text text-anchor="middle" x="462.88" y="-94.5" font-family="Helvetica,sans-Serif" font-size="10.00">get_pass</text>
</a>
</g>
</g>
<!-- Node4&#45;&gt;Node5 -->
<g id="edge4_Node000004_Node000005" class="edge">
<title>Node4&#45;&gt;Node5</title>
<g id="a_edge4_Node000004_Node000005"><a xlink:title=" ">
<path fill="none" stroke="#63b8ff" d="M351.22,-98C374.31,-98 401.91,-98 423.76,-98"/>
<polygon fill="#63b8ff" stroke="#63b8ff" points="423.62,-101.5 433.62,-98 423.62,-94.5 423.62,-101.5"/>
</a>
</g>
</g>
<!-- Node6&#45;&gt;Node3 -->
<g id="edge10_Node000006_Node000003" class="edge">
<title>Node6&#45;&gt;Node3</title>
<g id="a_edge10_Node000006_Node000003"><a xlink:title=" ">
<path fill="none" stroke="#63b8ff" d="M193.48,-108.48C211.25,-112.95 232.17,-118.21 250.94,-122.92"/>
<polygon fill="#63b8ff" stroke="#63b8ff" points="249.85,-126.51 260.41,-125.55 251.56,-119.72 249.85,-126.51"/>
</a>
</g>
</g>
<!-- Node6&#45;&gt;Node4 -->
<g id="edge11_Node000006_Node000004" class="edge">
<title>Node6&#45;&gt;Node4</title>
<g id="a_edge11_Node000006_Node000004"><a xlink:title=" ">
<path fill="none" stroke="#63b8ff" d="M202.11,-98C216.15,-98 231.5,-98 245.9,-98"/>
<polygon fill="#63b8ff" stroke="#63b8ff" points="245.68,-101.5 255.68,-98 245.68,-94.5 245.68,-101.5"/>
</a>
</g>
</g>
<!-- Node7 -->
<g id="Node000007" class="node">
<title>Node7</title>
<g id="a_Node000007"><a xlink:href="tcfs__helper__tools_8c.html#ae930b52ef70f640efde8bda574b6b234" target="_top" xlink:title="Create a temporary folder in HOME/.tcfs.">
<polygon fill="white" stroke="#666666" points="365.25,-70 242.75,-70 242.75,-38 365.25,-38 365.25,-70"/>
<text text-anchor="start" x="250.75" y="-56.5" font-family="Helvetica,sans-Serif" font-size="10.00">create_tcfs_mount_local</text>
<text text-anchor="middle" x="304" y="-44.5" font-family="Helvetica,sans-Serif" font-size="10.00">_folder</text>
</a>
</g>
</g>
<!-- Node6&#45;&gt;Node7 -->
<g id="edge6_Node000006_Node000007" class="edge">
<title>Node6&#45;&gt;Node7</title>
<g id="a_edge6_Node000006_Node000007"><a xlink:title=" ">
<path fill="none" stroke="#63b8ff" d="M187.59,-87.57C202.13,-83.34 219.42,-78.31 236.13,-73.45"/>
<polygon fill="#63b8ff" stroke="#63b8ff" points="236.8,-76.61 245.42,-70.46 234.84,-69.89 236.8,-76.61"/>
</a>
</g>
</g>
<!-- Node8 -->
<g id="Node000008" class="node">
<title>Node8</title>
<g id="a_Node000008"><a xlink:href="tcfs__helper__tools_8c.html#a3644c45d6131fe1528ce36163e299fd9" target="_top" xlink:title="Creates the .tcfs folder in the user HOME. Then this creates a folder with a random name so that crea...">
<polygon fill="white" stroke="#666666" points="524.5,-64 401.25,-64 401.25,-44 524.5,-44 524.5,-64"/>
<text text-anchor="middle" x="462.88" y="-50.5" font-family="Helvetica,sans-Serif" font-size="10.00">setup_tcfs_mount_folder</text>
</a>
</g>
</g>
<!-- Node7&#45;&gt;Node8 -->
<g id="edge7_Node000007_Node000008" class="edge">
<title>Node7&#45;&gt;Node8</title>
<g id="a_edge7_Node000007_Node000008"><a xlink:title=" ">
<path fill="none" stroke="#63b8ff" d="M365.65,-54C373.59,-54 381.79,-54 389.9,-54"/>
<polygon fill="#63b8ff" stroke="#63b8ff" points="389.87,-57.5 399.87,-54 389.87,-50.5 389.87,-57.5"/>
</a>
</g>
</g>
<!-- Node9 -->
<g id="Node000009" class="node">
<title>Node9</title>
<g id="a_Node000009"><a xlink:href="tcfs__helper__tools_8c.html#ab3cdcc12b3bc92a382784027c94a2027" target="_top" xlink:title="Check if a directory already exists. This function is marked as internal and should not be used by th...">
<polygon fill="white" stroke="#666666" points="663.12,-83 578.12,-83 578.12,-63 663.12,-63 663.12,-83"/>
<text text-anchor="middle" x="620.62" y="-69.5" font-family="Helvetica,sans-Serif" font-size="10.00">directory_exists</text>
</a>
</g>
</g>
<!-- Node8&#45;&gt;Node9 -->
<g id="edge8_Node000008_Node000009" class="edge">
<title>Node8&#45;&gt;Node9</title>
<g id="a_edge8_Node000008_Node000009"><a xlink:title=" ">
<path fill="none" stroke="#63b8ff" d="M524.98,-61.45C538.97,-63.16 553.72,-64.96 567.3,-66.62"/>
<polygon fill="#63b8ff" stroke="#63b8ff" points="566.55,-70.17 576.9,-67.91 567.4,-63.22 566.55,-70.17"/>
</a>
</g>
</g>
<!-- Node10 -->
<g id="Node000010" class="node">
<title>Node10</title>
<g id="a_Node000010"><a xlink:href="tcfs__helper__tools_8c.html#a8ef1473d59fd1cfc680fe1b227604a02" target="_top" xlink:title="Generate a random string that will be used as a folder name for the mount. This function is marked as...">
<polygon fill="white" stroke="#666666" points="680.75,-45 560.5,-45 560.5,-25 680.75,-25 680.75,-45"/>
<text text-anchor="middle" x="620.62" y="-31.5" font-family="Helvetica,sans-Serif" font-size="10.00">generate_random_string</text>
</a>
</g>
</g>
<!-- Node8&#45;&gt;Node10 -->
<g id="edge9_Node000008_Node000010" class="edge">
<title>Node8&#45;&gt;Node10</title>
<g id="a_edge9_Node000008_Node000010"><a xlink:title=" ">
<path fill="none" stroke="#63b8ff" d="M524.98,-46.55C533.04,-45.56 541.35,-44.55 549.55,-43.55"/>
<polygon fill="#63b8ff" stroke="#63b8ff" points="549.72,-46.93 559.22,-42.25 548.87,-39.98 549.72,-46.93"/>
</a>
</g>
</g>
<!-- Node11&#45;&gt;Node4 -->
<g id="edge14_Node000011_Node000004" class="edge">
<title>Node11&#45;&gt;Node4</title>
<g id="a_edge14_Node000011_Node000004"><a xlink:title=" ">
<path fill="none" stroke="#63b8ff" d="M193.48,-70.48C211.25,-74.95 232.17,-80.21 250.94,-84.92"/>
<polygon fill="#63b8ff" stroke="#63b8ff" points="249.85,-88.51 260.41,-87.55 251.56,-81.72 249.85,-88.51"/>
</a>
</g>
</g>
<!-- Node12 -->
<g id="Node000012" class="node">
<title>Node12</title>
<g id="a_Node000012"><a xlink:href="tcfs__helper__tools_8c.html#acfa06becac8f67e9f278cfcbf91cc51b" target="_top" xlink:title=" ">
<polygon fill="white" stroke="#666666" points="355.88,-20 252.12,-20 252.12,0 355.88,0 355.88,-20"/>
<text text-anchor="middle" x="304" y="-6.5" font-family="Helvetica,sans-Serif" font-size="10.00">clearKeyboardBuffer</text>
</a>
</g>
</g>
<!-- Node11&#45;&gt;Node12 -->
<g id="edge13_Node000011_Node000012" class="edge">
<title>Node11&#45;&gt;Node12</title>
<g id="a_edge13_Node000011_Node000012"><a xlink:title=" ">
<path fill="none" stroke="#63b8ff" d="M181.61,-49.64C199.34,-43.53 222.29,-35.71 242.75,-29 248.02,-27.27 253.56,-25.48 259.06,-23.73"/>
<polygon fill="#63b8ff" stroke="#63b8ff" points="260.02,-26.78 268.49,-20.42 257.9,-20.11 260.02,-26.78"/>
</a>
</g>
</g>
</g>
</svg>
