<?xml version="1.0" encoding="UTF-8" standalone="no"?>
<!DOCTYPE svg PUBLIC "-//W3C//DTD SVG 1.1//EN"
 "http://www.w3.org/Graphics/SVG/1.1/DTD/svg11.dtd">
<!-- Generated by graphviz version 8.1.0 (20230707.0739)
 -->
<!-- Title: get_encrypted_key Pages: 1 -->
<svg width="214pt" height="66pt"
 viewBox="0.00 0.00 214.00 66.00" xmlns="http://www.w3.org/2000/svg" xmlns:xlink="http://www.w3.org/1999/xlink">
<g id="graph0" class="graph" transform="scale(1 1) rotate(0) translate(4 62)">
<title>get_encrypted_key</title>
<!-- Node1 -->
<g id="Node000001" class="node">
<title>Node1</title>
<g id="a_Node000001"><a xlink:title="Get the xattr value describing the key of a file.">
<polygon fill="#999999" stroke="#666666" points="98.5,-39 0,-39 0,-19 98.5,-19 98.5,-39"/>
<text text-anchor="middle" x="49.25" y="-25.5" font-family="Helvetica,sans-Serif" font-size="10.00">get_encrypted_key</text>
</a>
</g>
</g>
<!-- Node2 -->
<g id="Node000002" class="node">
<title>Node2</title>
<g id="a_Node000002"><a xlink:href="tcfs__utils_8c.html#a71e44dc105c7af8349bc3e7eb9edf2b0" target="_top" xlink:title="Check if a file is encrypted by TCFS.">
<polygon fill="white" stroke="#666666" points="206,-58 134.5,-58 134.5,-38 206,-38 206,-58"/>
<text text-anchor="middle" x="170.25" y="-44.5" font-family="Helvetica,sans-Serif" font-size="10.00">is_encrypted</text>
</a>
</g>
</g>
<!-- Node1&#45;&gt;Node2 -->
<g id="edge1_Node000001_Node000002" class="edge">
<title>Node1&#45;&gt;Node2</title>
<g id="a_edge1_Node000001_Node000002"><a xlink:title=" ">
<path fill="none" stroke="#63b8ff" d="M99,-36.78C107.11,-38.08 115.51,-39.42 123.55,-40.7"/>
<polygon fill="#63b8ff" stroke="#63b8ff" points="122.81,-44.29 133.23,-42.41 123.91,-37.38 122.81,-44.29"/>
</a>
</g>
</g>
<!-- Node3 -->
<g id="Node000003" class="node">
<title>Node3</title>
<g id="a_Node000003"><a xlink:href="tcfs__utils_8c.html#a62b66e43a7ad8b8cf9fcad67f71a7a8b" target="_top" xlink:title="Logs a formatted message to a file with timestamp.">
<polygon fill="white" stroke="#666666" points="204.5,-20 136,-20 136,0 204.5,0 204.5,-20"/>
<text text-anchor="middle" x="170.25" y="-6.5" font-family="Helvetica,sans-Serif" font-size="10.00">logMessage</text>
</a>
</g>
</g>
<!-- Node1&#45;&gt;Node3 -->
<g id="edge2_Node000001_Node000003" class="edge">
<title>Node1&#45;&gt;Node3</title>
<g id="a_edge2_Node000001_Node000003"><a xlink:title=" ">
<path fill="none" stroke="#63b8ff" d="M99,-21.22C107.56,-19.85 116.44,-18.43 124.88,-17.08"/>
<polygon fill="#63b8ff" stroke="#63b8ff" points="125.34,-20.4 134.67,-15.36 124.24,-13.48 125.34,-20.4"/>
</a>
</g>
</g>
</g>
</svg>
