<?xml version="1.0" encoding="UTF-8" standalone="no"?>
<!DOCTYPE svg PUBLIC "-//W3C//DTD SVG 1.1//EN"
 "http://www.w3.org/Graphics/SVG/1.1/DTD/svg11.dtd">
<!-- Generated by graphviz version 8.1.0 (20230707.0739)
 -->
<!-- Title: hex_to_string Pages: 1 -->
<svg width="533pt" height="104pt"
 viewBox="0.00 0.00 532.50 104.00" xmlns="http://www.w3.org/2000/svg" xmlns:xlink="http://www.w3.org/1999/xlink">
<g id="graph0" class="graph" transform="scale(1 1) rotate(0) translate(4 100)">
<title>hex_to_string</title>
<!-- Node1 -->
<g id="Node000001" class="node">
<title>Node1</title>
<g id="a_Node000001"><a xlink:title="Convert a hexadecimal string to its ASCII representation.">
<polygon fill="#999999" stroke="#666666" points="524.5,-58 450,-58 450,-38 524.5,-38 524.5,-58"/>
<text text-anchor="middle" x="487.25" y="-44.5" font-family="Helvetica,sans-Serif" font-size="10.00">hex_to_string</text>
</a>
</g>
</g>
<!-- Node2 -->
<g id="Node000002" class="node">
<title>Node2</title>
<g id="a_Node000002"><a xlink:href="crypt-utils_8c.html#a3b003481e5c188ac1d6f63e09e6f3a34" target="_top" xlink:title=" ">
<polygon fill="white" stroke="#666666" points="414,-58 274.25,-58 274.25,-38 414,-38 414,-58"/>
<text text-anchor="middle" x="344.12" y="-44.5" font-family="Helvetica,sans-Serif" font-size="10.00">decrypt_file_name_with_hex</text>
</a>
</g>
</g>
<!-- Node1&#45;&gt;Node2 -->
<g id="edge1_Node000001_Node000002" class="edge">
<title>Node1&#45;&gt;Node2</title>
<g id="a_edge1_Node000001_Node000002"><a xlink:title=" ">
<path fill="none" stroke="#63b8ff" d="M438.8,-48C430.97,-48 422.72,-48 414.48,-48"/>
<polygon fill="#63b8ff" stroke="#63b8ff" points="438.54,-51.5 448.54,-48 438.54,-44.5 438.54,-51.5"/>
</a>
</g>
</g>
<!-- Node3 -->
<g id="Node000003" class="node">
<title>Node3</title>
<g id="a_Node000003"><a xlink:href="crypt-utils_8c.html#a1899c23a523d11ed1cb5601eabdb023d" target="_top" xlink:title="Decrypts each part of the given encrypted path using a specified key.">
<polygon fill="white" stroke="#666666" points="206.75,-96 134.5,-96 134.5,-76 206.75,-76 206.75,-96"/>
<text text-anchor="middle" x="170.62" y="-82.5" font-family="Helvetica,sans-Serif" font-size="10.00">decrypt_path</text>
</a>
</g>
</g>
<!-- Node2&#45;&gt;Node3 -->
<g id="edge2_Node000002_Node000003" class="edge">
<title>Node2&#45;&gt;Node3</title>
<g id="a_edge2_Node000002_Node000003"><a xlink:title=" ">
<path fill="none" stroke="#63b8ff" d="M285.34,-60.8C259.41,-66.55 229.66,-73.14 207.09,-78.14"/>
<polygon fill="#63b8ff" stroke="#63b8ff" points="285.8,-64.06 294.81,-58.48 284.29,-57.23 285.8,-64.06"/>
</a>
</g>
</g>
<!-- Node4 -->
<g id="Node000004" class="node">
<title>Node4</title>
<g id="a_Node000004"><a xlink:href="tcfs_8c.html#a1a713549c892f56a6522e6487c581d69" target="_top" xlink:title="Reads a directory.">
<polygon fill="white" stroke="#666666" points="67,-77 0,-77 0,-57 67,-57 67,-77"/>
<text text-anchor="middle" x="33.5" y="-63.5" font-family="Helvetica,sans-Serif" font-size="10.00">tcfs_readdir</text>
</a>
</g>
</g>
<!-- Node2&#45;&gt;Node4 -->
<g id="edge5_Node000002_Node000004" class="edge">
<title>Node2&#45;&gt;Node4</title>
<g id="a_edge5_Node000002_Node000004"><a xlink:title=" ">
<path fill="none" stroke="#63b8ff" d="M263.03,-52.93C199.27,-56.86 113.32,-62.15 67.13,-64.99"/>
<polygon fill="#63b8ff" stroke="#63b8ff" points="263.1,-56.37 272.86,-52.26 262.67,-49.39 263.1,-56.37"/>
</a>
</g>
</g>
<!-- Node5 -->
<g id="Node000005" class="node">
<title>Node5</title>
<g id="a_Node000005"><a xlink:href="crypt-utils_8c.html#a373f8aedbcd8b6ce22fe7bdfeb2961c2" target="_top" xlink:title="Decrypts the given encrypted filename with its path using a specified key.">
<polygon fill="white" stroke="#666666" points="238.25,-20 103,-20 103,0 238.25,0 238.25,-20"/>
<text text-anchor="middle" x="170.62" y="-6.5" font-family="Helvetica,sans-Serif" font-size="10.00">decrypt_path_and_filename</text>
</a>
</g>
</g>
<!-- Node2&#45;&gt;Node5 -->
<g id="edge4_Node000002_Node000005" class="edge">
<title>Node2&#45;&gt;Node5</title>
<g id="a_edge4_Node000002_Node000005"><a xlink:title=" ">
<path fill="none" stroke="#63b8ff" d="M285.12,-35.15C263.52,-30.36 239.29,-24.99 218.79,-20.45"/>
<polygon fill="#63b8ff" stroke="#63b8ff" points="284.29,-38.77 294.81,-37.52 285.8,-31.94 284.29,-38.77"/>
</a>
</g>
</g>
<!-- Node3&#45;&gt;Node4 -->
<g id="edge3_Node000003_Node000004" class="edge">
<title>Node3&#45;&gt;Node4</title>
<g id="a_edge3_Node000003_Node000004"><a xlink:title=" ">
<path fill="none" stroke="#63b8ff" d="M123.33,-79.49C104.96,-76.91 84.25,-73.99 67.45,-71.63"/>
<polygon fill="#63b8ff" stroke="#63b8ff" points="122.73,-83.08 133.12,-81.01 123.71,-76.15 122.73,-83.08"/>
</a>
</g>
</g>
</g>
</svg>
