<?xml version="1.0" encoding="UTF-8" standalone="no"?>
<!DOCTYPE svg PUBLIC "-//W3C//DTD SVG 1.1//EN"
 "http://www.w3.org/Graphics/SVG/1.1/DTD/svg11.dtd">
<!-- Generated by graphviz version 8.1.0 (20230707.0739)
 -->
<!-- Title: user/old_stuff/tcfs_helper_tools.c Pages: 1 -->
<svg width="617pt" height="152pt"
 viewBox="0.00 0.00 617.00 152.00" xmlns="http://www.w3.org/2000/svg" xmlns:xlink="http://www.w3.org/1999/xlink">
<g id="graph0" class="graph" transform="scale(1 1) rotate(0) translate(4 148)">
<title>user/old_stuff/tcfs_helper_tools.c</title>
<!-- Node1 -->
<g id="Node000001" class="node">
<title>Node1</title>
<g id="a_Node000001"><a xlink:title="This file contains the logic and implementation of functions needed to perform the operations request...">
<polygon fill="#999999" stroke="#666666" points="336.75,-144 242.75,-144 242.75,-112 336.75,-112 336.75,-144"/>
<text text-anchor="start" x="250.75" y="-130.5" font-family="Helvetica,sans-Serif" font-size="10.00">user/old_stuff/tcfs</text>
<text text-anchor="middle" x="289.75" y="-118.5" font-family="Helvetica,sans-Serif" font-size="10.00">_helper_tools.c</text>
</a>
</g>
</g>
<!-- Node2 -->
<g id="Node000002" class="node">
<title>Node2</title>
<g id="a_Node000002"><a xlink:href="tcfs__helper__tools_8h.html" target="_top" xlink:title=" ">
<polygon fill="white" stroke="#666666" points="339,-76 240.5,-76 240.5,-56 339,-56 339,-76"/>
<text text-anchor="middle" x="289.75" y="-62.5" font-family="Helvetica,sans-Serif" font-size="10.00">tcfs_helper_tools.h</text>
</a>
</g>
</g>
<!-- Node1&#45;&gt;Node2 -->
<g id="edge1_Node000001_Node000002" class="edge">
<title>Node1&#45;&gt;Node2</title>
<g id="a_edge1_Node000001_Node000002"><a xlink:title=" ">
<path fill="none" stroke="#63b8ff" d="M289.75,-111.55C289.75,-104.17 289.75,-95.24 289.75,-87.32"/>
<polygon fill="#63b8ff" stroke="#63b8ff" points="293.25,-87.41 289.75,-77.41 286.25,-87.41 293.25,-87.41"/>
</a>
</g>
</g>
<!-- Node3 -->
<g id="Node000003" class="node">
<title>Node3</title>
<g id="a_Node000003"><a xlink:title=" ">
<polygon fill="#e0e0e0" stroke="#999999" points="47.5,-20 0,-20 0,0 47.5,0 47.5,-20"/>
<text text-anchor="middle" x="23.75" y="-6.5" font-family="Helvetica,sans-Serif" font-size="10.00">limits.h</text>
</a>
</g>
</g>
<!-- Node2&#45;&gt;Node3 -->
<g id="edge2_Node000002_Node000003" class="edge">
<title>Node2&#45;&gt;Node3</title>
<g id="a_edge2_Node000002_Node000003"><a xlink:title=" ">
<path fill="none" stroke="#63b8ff" d="M240.19,-56.72C194.97,-48.88 126.09,-36.25 58.24,-20.46"/>
<polygon fill="#63b8ff" stroke="#63b8ff" points="59.34,-16.88 48.81,-18 57.74,-23.7 59.34,-16.88"/>
</a>
</g>
</g>
<!-- Node4 -->
<g id="Node000004" class="node">
<title>Node4</title>
<g id="a_Node000004"><a xlink:title=" ">
<polygon fill="#e0e0e0" stroke="#999999" points="110.38,-20 65.12,-20 65.12,0 110.38,0 110.38,-20"/>
<text text-anchor="middle" x="87.75" y="-6.5" font-family="Helvetica,sans-Serif" font-size="10.00">stdio.h</text>
</a>
</g>
</g>
<!-- Node2&#45;&gt;Node4 -->
<g id="edge3_Node000002_Node000004" class="edge">
<title>Node2&#45;&gt;Node4</title>
<g id="a_edge3_Node000002_Node000004"><a xlink:title=" ">
<path fill="none" stroke="#63b8ff" d="M252.65,-55.53C220.2,-47.17 171.54,-34.5 121.18,-20.63"/>
<polygon fill="#63b8ff" stroke="#63b8ff" points="122.33,-17.04 111.75,-17.75 120.46,-23.79 122.33,-17.04"/>
</a>
</g>
</g>
<!-- Node5 -->
<g id="Node000005" class="node">
<title>Node5</title>
<g id="a_Node000005"><a xlink:title=" ">
<polygon fill="#e0e0e0" stroke="#999999" points="175.5,-20 128,-20 128,0 175.5,0 175.5,-20"/>
<text text-anchor="middle" x="151.75" y="-6.5" font-family="Helvetica,sans-Serif" font-size="10.00">stdlib.h</text>
</a>
</g>
</g>
<!-- Node2&#45;&gt;Node5 -->
<g id="edge4_Node000002_Node000005" class="edge">
<title>Node2&#45;&gt;Node5</title>
<g id="a_edge4_Node000002_Node000005"><a xlink:title=" ">
<path fill="none" stroke="#63b8ff" d="M265.71,-55.59C243.68,-46.97 210.83,-34.12 186.05,-24.42"/>
<polygon fill="#63b8ff" stroke="#63b8ff" points="187.56,-20.86 176.98,-20.48 185.01,-27.38 187.56,-20.86"/>
</a>
</g>
</g>
<!-- Node6 -->
<g id="Node000006" class="node">
<title>Node6</title>
<g id="a_Node000006"><a xlink:title=" ">
<polygon fill="#e0e0e0" stroke="#999999" points="241.88,-20 193.62,-20 193.62,0 241.88,0 241.88,-20"/>
<text text-anchor="middle" x="217.75" y="-6.5" font-family="Helvetica,sans-Serif" font-size="10.00">string.h</text>
</a>
</g>
</g>
<!-- Node2&#45;&gt;Node6 -->
<g id="edge5_Node000002_Node000006" class="edge">
<title>Node2&#45;&gt;Node6</title>
<g id="a_edge5_Node000002_Node000006"><a xlink:title=" ">
<path fill="none" stroke="#63b8ff" d="M277.21,-55.59C266.57,-47.62 251.1,-36.02 238.61,-26.64"/>
<polygon fill="#63b8ff" stroke="#63b8ff" points="241.25,-23.5 231.15,-20.3 237.05,-29.1 241.25,-23.5"/>
</a>
</g>
</g>
<!-- Node7 -->
<g id="Node000007" class="node">
<title>Node7</title>
<g id="a_Node000007"><a xlink:title=" ">
<polygon fill="#e0e0e0" stroke="#999999" points="319.5,-20 260,-20 260,0 319.5,0 319.5,-20"/>
<text text-anchor="middle" x="289.75" y="-6.5" font-family="Helvetica,sans-Serif" font-size="10.00">sys/stat.h</text>
</a>
</g>
</g>
<!-- Node2&#45;&gt;Node7 -->
<g id="edge6_Node000002_Node000007" class="edge">
<title>Node2&#45;&gt;Node7</title>
<g id="a_edge6_Node000002_Node000007"><a xlink:title=" ">
<path fill="none" stroke="#63b8ff" d="M289.75,-55.59C289.75,-48.86 289.75,-39.53 289.75,-31.15"/>
<polygon fill="#63b8ff" stroke="#63b8ff" points="293.25,-31.3 289.75,-21.3 286.25,-31.3 293.25,-31.3"/>
</a>
</g>
</g>
<!-- Node8 -->
<g id="Node000008" class="node">
<title>Node8</title>
<g id="a_Node000008"><a xlink:title=" ">
<polygon fill="#e0e0e0" stroke="#999999" points="404.25,-20 337.25,-20 337.25,0 404.25,0 404.25,-20"/>
<text text-anchor="middle" x="370.75" y="-6.5" font-family="Helvetica,sans-Serif" font-size="10.00">sys/types.h</text>
</a>
</g>
</g>
<!-- Node2&#45;&gt;Node8 -->
<g id="edge7_Node000002_Node000008" class="edge">
<title>Node2&#45;&gt;Node8</title>
<g id="a_edge7_Node000002_Node000008"><a xlink:title=" ">
<path fill="none" stroke="#63b8ff" d="M303.86,-55.59C315.86,-47.59 333.35,-35.93 347.43,-26.54"/>
<polygon fill="#63b8ff" stroke="#63b8ff" points="349.15,-28.94 355.53,-20.48 345.27,-23.11 349.15,-28.94"/>
</a>
</g>
</g>
<!-- Node9 -->
<g id="Node000009" class="node">
<title>Node9</title>
<g id="a_Node000009"><a xlink:title=" ">
<polygon fill="#e0e0e0" stroke="#999999" points="479,-20 422.5,-20 422.5,0 479,0 479,-20"/>
<text text-anchor="middle" x="450.75" y="-6.5" font-family="Helvetica,sans-Serif" font-size="10.00">termios.h</text>
</a>
</g>
</g>
<!-- Node2&#45;&gt;Node9 -->
<g id="edge8_Node000002_Node000009" class="edge">
<title>Node2&#45;&gt;Node9</title>
<g id="a_edge8_Node000002_Node000009"><a xlink:title=" ">
<path fill="none" stroke="#63b8ff" d="M317.79,-55.59C343.95,-46.82 383.2,-33.66 412.28,-23.9"/>
<polygon fill="#63b8ff" stroke="#63b8ff" points="413.12,-26.98 421.49,-20.48 410.89,-20.34 413.12,-26.98"/>
</a>
</g>
</g>
<!-- Node10 -->
<g id="Node000010" class="node">
<title>Node10</title>
<g id="a_Node000010"><a xlink:title=" ">
<polygon fill="#e0e0e0" stroke="#999999" points="540.25,-20 497.25,-20 497.25,0 540.25,0 540.25,-20"/>
<text text-anchor="middle" x="518.75" y="-6.5" font-family="Helvetica,sans-Serif" font-size="10.00">time.h</text>
</a>
</g>
</g>
<!-- Node2&#45;&gt;Node10 -->
<g id="edge9_Node000002_Node000010" class="edge">
<title>Node2&#45;&gt;Node10</title>
<g id="a_edge9_Node000002_Node000010"><a xlink:title=" ">
<path fill="none" stroke="#63b8ff" d="M334.76,-55.56C372.73,-47.43 428.74,-35.01 486.38,-20.24"/>
<polygon fill="#63b8ff" stroke="#63b8ff" points="486.97,-23.44 495.78,-17.55 485.22,-16.66 486.97,-23.44"/>
</a>
</g>
</g>
<!-- Node11 -->
<g id="Node000011" class="node">
<title>Node11</title>
<g id="a_Node000011"><a xlink:title=" ">
<polygon fill="#e0e0e0" stroke="#999999" points="609,-20 558.5,-20 558.5,0 609,0 609,-20"/>
<text text-anchor="middle" x="583.75" y="-6.5" font-family="Helvetica,sans-Serif" font-size="10.00">unistd.h</text>
</a>
</g>
</g>
<!-- Node2&#45;&gt;Node11 -->
<g id="edge10_Node000002_Node000011" class="edge">
<title>Node2&#45;&gt;Node11</title>
<g id="a_edge10_Node000002_Node000011"><a xlink:title=" ">
<path fill="none" stroke="#63b8ff" d="M339.36,-57.73C389.61,-50.08 469.77,-37.07 547.71,-20.3"/>
<polygon fill="#63b8ff" stroke="#63b8ff" points="548.16,-23.57 557.19,-18.02 546.67,-16.73 548.16,-23.57"/>
</a>
</g>
</g>
</g>
</svg>
