<?xml version="1.0" encoding="UTF-8" standalone="no"?>
<!DOCTYPE svg PUBLIC "-//W3C//DTD SVG 1.1//EN"
 "http://www.w3.org/Graphics/SVG/1.1/DTD/svg11.dtd">
<!-- Generated by graphviz version 8.1.0 (20230707.0739)
 -->
<!-- Title: tcfs_truncate Pages: 1 -->
<svg width="583pt" height="180pt"
 viewBox="0.00 0.00 583.00 180.00" xmlns="http://www.w3.org/2000/svg" xmlns:xlink="http://www.w3.org/1999/xlink">
<g id="graph0" class="graph" transform="scale(1 1) rotate(0) translate(4 176)">
<title>tcfs_truncate</title>
<!-- Node1 -->
<g id="Node000001" class="node">
<title>Node1</title>
<g id="a_Node000001"><a xlink:title="Truncates or extends the size of a file.">
<polygon fill="#999999" stroke="#666666" points="73,-58 0,-58 0,-38 73,-38 73,-58"/>
<text text-anchor="middle" x="36.5" y="-44.5" font-family="Helvetica,sans-Serif" font-size="10.00">tcfs_truncate</text>
</a>
</g>
</g>
<!-- Node2 -->
<g id="Node000002" class="node">
<title>Node2</title>
<g id="a_Node000002"><a xlink:href="crypt-utils_8c.html#ad9b10366ade9f2129ec2613fdc76df80" target="_top" xlink:title="Encrypts each part of the given path using a specified key.">
<polygon fill="white" stroke="#666666" points="181.25,-96 109,-96 109,-76 181.25,-76 181.25,-96"/>
<text text-anchor="middle" x="145.12" y="-82.5" font-family="Helvetica,sans-Serif" font-size="10.00">encrypt_path</text>
</a>
</g>
</g>
<!-- Node1&#45;&gt;Node2 -->
<g id="edge1_Node000001_Node000002" class="edge">
<title>Node1&#45;&gt;Node2</title>
<g id="a_edge1_Node000001_Node000002"><a xlink:title=" ">
<path fill="none" stroke="#63b8ff" d="M66.92,-58.48C78.57,-62.64 92.15,-67.48 104.63,-71.93"/>
<polygon fill="#63b8ff" stroke="#63b8ff" points="103.21,-75.49 113.8,-75.55 105.56,-68.9 103.21,-75.49"/>
</a>
</g>
</g>
<!-- Node6 -->
<g id="Node000006" class="node">
<title>Node6</title>
<g id="a_Node000006"><a xlink:href="tcfs__utils_8c.html#a62b66e43a7ad8b8cf9fcad67f71a7a8b" target="_top" xlink:title="Logs a formatted message to a file with timestamp.">
<polygon fill="white" stroke="#666666" points="575,-96 506.5,-96 506.5,-76 575,-76 575,-96"/>
<text text-anchor="middle" x="540.75" y="-82.5" font-family="Helvetica,sans-Serif" font-size="10.00">logMessage</text>
</a>
</g>
</g>
<!-- Node1&#45;&gt;Node6 -->
<g id="edge7_Node000001_Node000006" class="edge">
<title>Node1&#45;&gt;Node6</title>
<g id="a_edge7_Node000001_Node000006"><a xlink:title=" ">
<path fill="none" stroke="#63b8ff" d="M73.22,-50.7C162.88,-57.49 397.28,-75.22 495.47,-82.65"/>
<polygon fill="#63b8ff" stroke="#63b8ff" points="494.97,-86.2 505.2,-83.46 495.49,-79.22 494.97,-86.2"/>
</a>
</g>
</g>
<!-- Node7 -->
<g id="Node000007" class="node">
<title>Node7</title>
<g id="a_Node000007"><a xlink:href="tcfs__utils_8c.html#ac4ff59963f4a122c9f802c0c2bf2abc8" target="_top" xlink:title="Prefix the realpath to the fuse path.">
<polygon fill="white" stroke="#666666" points="177.12,-20 113.12,-20 113.12,0 177.12,0 177.12,-20"/>
<text text-anchor="middle" x="145.12" y="-6.5" font-family="Helvetica,sans-Serif" font-size="10.00">prefix_path</text>
</a>
</g>
</g>
<!-- Node1&#45;&gt;Node7 -->
<g id="edge8_Node000001_Node000007" class="edge">
<title>Node1&#45;&gt;Node7</title>
<g id="a_edge8_Node000001_Node000007"><a xlink:title=" ">
<path fill="none" stroke="#63b8ff" d="M66.92,-37.52C78.57,-33.36 92.15,-28.52 104.63,-24.07"/>
<polygon fill="#63b8ff" stroke="#63b8ff" points="105.56,-27.1 113.8,-20.45 103.21,-20.51 105.56,-27.1"/>
</a>
</g>
</g>
<!-- Node3 -->
<g id="Node000003" class="node">
<title>Node3</title>
<g id="a_Node000003"><a xlink:href="crypt-utils_8c.html#aa4a7facde8c6f63a7225c07e92232b2e" target="_top" xlink:title=" ">
<polygon fill="white" stroke="#666666" points="357,-134 217.25,-134 217.25,-114 357,-114 357,-134"/>
<text text-anchor="middle" x="287.12" y="-120.5" font-family="Helvetica,sans-Serif" font-size="10.00">encrypt_file_name_with_hex</text>
</a>
</g>
</g>
<!-- Node2&#45;&gt;Node3 -->
<g id="edge2_Node000002_Node000003" class="edge">
<title>Node2&#45;&gt;Node3</title>
<g id="a_edge2_Node000002_Node000003"><a xlink:title=" ">
<path fill="none" stroke="#63b8ff" d="M181.45,-95.59C198.38,-100.18 218.93,-105.76 237.32,-110.75"/>
<polygon fill="#63b8ff" stroke="#63b8ff" points="236.29,-114.37 246.86,-113.61 238.12,-107.62 236.29,-114.37"/>
</a>
</g>
</g>
<!-- Node2&#45;&gt;Node6 -->
<g id="edge6_Node000002_Node000006" class="edge">
<title>Node2&#45;&gt;Node6</title>
<g id="a_edge6_Node000002_Node000006"><a xlink:title=" ">
<path fill="none" stroke="#63b8ff" d="M181.4,-86C253.31,-86 416.69,-86 495.54,-86"/>
<polygon fill="#63b8ff" stroke="#63b8ff" points="495.09,-89.5 505.09,-86 495.09,-82.5 495.09,-89.5"/>
</a>
</g>
</g>
<!-- Node4 -->
<g id="Node000004" class="node">
<title>Node4</title>
<g id="a_Node000004"><a xlink:href="crypt-utils_8c.html#aa926098a8843cf0ab6bd7eb8b3bbd2e6" target="_top" xlink:title="Encrypt the *plaintext string using a AES 256 key.">
<polygon fill="white" stroke="#666666" points="470.5,-172 393,-172 393,-152 470.5,-152 470.5,-172"/>
<text text-anchor="middle" x="431.75" y="-158.5" font-family="Helvetica,sans-Serif" font-size="10.00">encrypt_string</text>
</a>
</g>
</g>
<!-- Node3&#45;&gt;Node4 -->
<g id="edge3_Node000003_Node000004" class="edge">
<title>Node3&#45;&gt;Node4</title>
<g id="a_edge3_Node000003_Node000004"><a xlink:title=" ">
<path fill="none" stroke="#63b8ff" d="M327.48,-134.48C344.35,-138.98 364.24,-144.28 382.03,-149.02"/>
<polygon fill="#63b8ff" stroke="#63b8ff" points="380.95,-152.62 391.51,-151.81 382.75,-145.86 380.95,-152.62"/>
</a>
</g>
</g>
<!-- Node5 -->
<g id="Node000005" class="node">
<title>Node5</title>
<g id="a_Node000005"><a xlink:href="tcfs__utils_8c.html#a819d57d5c053a25772508a943d1bcc48" target="_top" xlink:title="Convert a string to its hexadecimal representation.">
<polygon fill="white" stroke="#666666" points="469,-134 394.5,-134 394.5,-114 469,-114 469,-134"/>
<text text-anchor="middle" x="431.75" y="-120.5" font-family="Helvetica,sans-Serif" font-size="10.00">string_to_hex</text>
</a>
</g>
</g>
<!-- Node3&#45;&gt;Node5 -->
<g id="edge4_Node000003_Node000005" class="edge">
<title>Node3&#45;&gt;Node5</title>
<g id="a_edge4_Node000003_Node000005"><a xlink:title=" ">
<path fill="none" stroke="#63b8ff" d="M357.35,-124C366.23,-124 375.16,-124 383.57,-124"/>
<polygon fill="#63b8ff" stroke="#63b8ff" points="383.3,-127.5 393.3,-124 383.3,-120.5 383.3,-127.5"/>
</a>
</g>
</g>
<!-- Node5&#45;&gt;Node6 -->
<g id="edge5_Node000005_Node000006" class="edge">
<title>Node5&#45;&gt;Node6</title>
<g id="a_edge5_Node000005_Node000006"><a xlink:title=" ">
<path fill="none" stroke="#63b8ff" d="M462.27,-113.52C473.97,-109.36 487.59,-104.52 500.12,-100.07"/>
<polygon fill="#63b8ff" stroke="#63b8ff" points="501.07,-103.09 509.32,-96.45 498.73,-96.5 501.07,-103.09"/>
</a>
</g>
</g>
</g>
</svg>
