<?xml version="1.0" encoding="UTF-8" standalone="no"?>
<!DOCTYPE svg PUBLIC "-//W3C//DTD SVG 1.1//EN"
 "http://www.w3.org/Graphics/SVG/1.1/DTD/svg11.dtd">
<!-- Generated by graphviz version 8.1.0 (20230707.0739)
 -->
<!-- Title: tcfs_fsync Pages: 1 -->
<svg width="635pt" height="180pt"
 viewBox="0.00 0.00 634.75 180.00" xmlns="http://www.w3.org/2000/svg" xmlns:xlink="http://www.w3.org/1999/xlink">
<g id="graph0" class="graph" transform="scale(1 1) rotate(0) translate(4 176)">
<title>tcfs_fsync</title>
<!-- Node1 -->
<g id="Node000001" class="node">
<title>Node1</title>
<g id="a_Node000001"><a xlink:title="Synchronizes file contents.">
<polygon fill="#999999" stroke="#666666" points="61.75,-58 0,-58 0,-38 61.75,-38 61.75,-58"/>
<text text-anchor="middle" x="30.88" y="-44.5" font-family="Helvetica,sans-Serif" font-size="10.00">tcfs_fsync</text>
</a>
</g>
</g>
<!-- Node2 -->
<g id="Node000002" class="node">
<title>Node2</title>
<g id="a_Node000002"><a xlink:href="crypt-utils_8c.html#a5c45db4d3db3ef274fb6356e1a95e644" target="_top" xlink:title="Encrypts the given filename with its path using a specified key.">
<polygon fill="white" stroke="#666666" points="233,-96 97.75,-96 97.75,-76 233,-76 233,-96"/>
<text text-anchor="middle" x="165.38" y="-82.5" font-family="Helvetica,sans-Serif" font-size="10.00">encrypt_path_and_filename</text>
</a>
</g>
</g>
<!-- Node1&#45;&gt;Node2 -->
<g id="edge1_Node000001_Node000002" class="edge">
<title>Node1&#45;&gt;Node2</title>
<g id="a_edge1_Node000001_Node000002"><a xlink:title=" ">
<path fill="none" stroke="#63b8ff" d="M61.94,-56.62C78.28,-61.31 98.86,-67.21 117.27,-72.49"/>
<polygon fill="#63b8ff" stroke="#63b8ff" points="116.24,-76.12 126.82,-75.52 118.17,-69.39 116.24,-76.12"/>
</a>
</g>
</g>
<!-- Node6 -->
<g id="Node000006" class="node">
<title>Node6</title>
<g id="a_Node000006"><a xlink:href="tcfs__utils_8c.html#a62b66e43a7ad8b8cf9fcad67f71a7a8b" target="_top" xlink:title="Logs a formatted message to a file with timestamp.">
<polygon fill="white" stroke="#666666" points="626.75,-96 558.25,-96 558.25,-76 626.75,-76 626.75,-96"/>
<text text-anchor="middle" x="592.5" y="-82.5" font-family="Helvetica,sans-Serif" font-size="10.00">logMessage</text>
</a>
</g>
</g>
<!-- Node1&#45;&gt;Node6 -->
<g id="edge7_Node000001_Node000006" class="edge">
<title>Node1&#45;&gt;Node6</title>
<g id="a_edge7_Node000001_Node000006"><a xlink:title=" ">
<path fill="none" stroke="#63b8ff" d="M61.96,-50.04C154.81,-56.35 437.17,-75.52 547.07,-82.98"/>
<polygon fill="#63b8ff" stroke="#63b8ff" points="546.55,-86.52 556.77,-83.71 547.03,-79.54 546.55,-86.52"/>
</a>
</g>
</g>
<!-- Node7 -->
<g id="Node000007" class="node">
<title>Node7</title>
<g id="a_Node000007"><a xlink:href="tcfs__utils_8c.html#ac4ff59963f4a122c9f802c0c2bf2abc8" target="_top" xlink:title="Prefix the realpath to the fuse path.">
<polygon fill="white" stroke="#666666" points="197.38,-20 133.38,-20 133.38,0 197.38,0 197.38,-20"/>
<text text-anchor="middle" x="165.38" y="-6.5" font-family="Helvetica,sans-Serif" font-size="10.00">prefix_path</text>
</a>
</g>
</g>
<!-- Node1&#45;&gt;Node7 -->
<g id="edge8_Node000001_Node000007" class="edge">
<title>Node1&#45;&gt;Node7</title>
<g id="a_edge8_Node000001_Node000007"><a xlink:title=" ">
<path fill="none" stroke="#63b8ff" d="M61.94,-39.38C79.85,-34.24 102.85,-27.64 122.52,-22"/>
<polygon fill="#63b8ff" stroke="#63b8ff" points="123.4,-25.11 132.05,-18.99 121.47,-18.38 123.4,-25.11"/>
</a>
</g>
</g>
<!-- Node3 -->
<g id="Node000003" class="node">
<title>Node3</title>
<g id="a_Node000003"><a xlink:href="crypt-utils_8c.html#aa4a7facde8c6f63a7225c07e92232b2e" target="_top" xlink:title=" ">
<polygon fill="white" stroke="#666666" points="408.75,-134 269,-134 269,-114 408.75,-114 408.75,-134"/>
<text text-anchor="middle" x="338.88" y="-120.5" font-family="Helvetica,sans-Serif" font-size="10.00">encrypt_file_name_with_hex</text>
</a>
</g>
</g>
<!-- Node2&#45;&gt;Node3 -->
<g id="edge2_Node000002_Node000003" class="edge">
<title>Node2&#45;&gt;Node3</title>
<g id="a_edge2_Node000002_Node000003"><a xlink:title=" ">
<path fill="none" stroke="#63b8ff" d="M213.69,-96.48C234.22,-101.03 258.45,-106.4 280.03,-111.18"/>
<polygon fill="#63b8ff" stroke="#63b8ff" points="279.19,-114.8 289.71,-113.55 280.71,-107.97 279.19,-114.8"/>
</a>
</g>
</g>
<!-- Node2&#45;&gt;Node6 -->
<g id="edge6_Node000002_Node000006" class="edge">
<title>Node2&#45;&gt;Node6</title>
<g id="a_edge6_Node000002_Node000006"><a xlink:title=" ">
<path fill="none" stroke="#63b8ff" d="M233.27,-86C320.9,-86 472.17,-86 546.97,-86"/>
<polygon fill="#63b8ff" stroke="#63b8ff" points="546.87,-89.5 556.87,-86 546.87,-82.5 546.87,-89.5"/>
</a>
</g>
</g>
<!-- Node4 -->
<g id="Node000004" class="node">
<title>Node4</title>
<g id="a_Node000004"><a xlink:href="crypt-utils_8c.html#aa926098a8843cf0ab6bd7eb8b3bbd2e6" target="_top" xlink:title="Encrypt the *plaintext string using a AES 256 key.">
<polygon fill="white" stroke="#666666" points="522.25,-172 444.75,-172 444.75,-152 522.25,-152 522.25,-172"/>
<text text-anchor="middle" x="483.5" y="-158.5" font-family="Helvetica,sans-Serif" font-size="10.00">encrypt_string</text>
</a>
</g>
</g>
<!-- Node3&#45;&gt;Node4 -->
<g id="edge3_Node000003_Node000004" class="edge">
<title>Node3&#45;&gt;Node4</title>
<g id="a_edge3_Node000003_Node000004"><a xlink:title=" ">
<path fill="none" stroke="#63b8ff" d="M379.23,-134.48C396.1,-138.98 415.99,-144.28 433.78,-149.02"/>
<polygon fill="#63b8ff" stroke="#63b8ff" points="432.7,-152.62 443.26,-151.81 434.5,-145.86 432.7,-152.62"/>
</a>
</g>
</g>
<!-- Node5 -->
<g id="Node000005" class="node">
<title>Node5</title>
<g id="a_Node000005"><a xlink:href="tcfs__utils_8c.html#a819d57d5c053a25772508a943d1bcc48" target="_top" xlink:title="Convert a string to its hexadecimal representation.">
<polygon fill="white" stroke="#666666" points="520.75,-134 446.25,-134 446.25,-114 520.75,-114 520.75,-134"/>
<text text-anchor="middle" x="483.5" y="-120.5" font-family="Helvetica,sans-Serif" font-size="10.00">string_to_hex</text>
</a>
</g>
</g>
<!-- Node3&#45;&gt;Node5 -->
<g id="edge4_Node000003_Node000005" class="edge">
<title>Node3&#45;&gt;Node5</title>
<g id="a_edge4_Node000003_Node000005"><a xlink:title=" ">
<path fill="none" stroke="#63b8ff" d="M409.1,-124C417.98,-124 426.91,-124 435.32,-124"/>
<polygon fill="#63b8ff" stroke="#63b8ff" points="435.05,-127.5 445.05,-124 435.05,-120.5 435.05,-127.5"/>
</a>
</g>
</g>
<!-- Node5&#45;&gt;Node6 -->
<g id="edge5_Node000005_Node000006" class="edge">
<title>Node5&#45;&gt;Node6</title>
<g id="a_edge5_Node000005_Node000006"><a xlink:title=" ">
<path fill="none" stroke="#63b8ff" d="M514.02,-113.52C525.72,-109.36 539.34,-104.52 551.87,-100.07"/>
<polygon fill="#63b8ff" stroke="#63b8ff" points="552.82,-103.09 561.07,-96.45 550.48,-96.5 552.82,-103.09"/>
</a>
</g>
</g>
</g>
</svg>
