<?xml version="1.0" encoding="UTF-8" standalone="no"?>
<!DOCTYPE svg PUBLIC "-//W3C//DTD SVG 1.1//EN"
 "http://www.w3.org/Graphics/SVG/1.1/DTD/svg11.dtd">
<!-- Generated by graphviz version 8.1.0 (20230707.0739)
 -->
<!-- Title: prefix_path Pages: 1 -->
<svg width="298pt" height="1004pt"
 viewBox="0.00 0.00 298.25 1003.62" xmlns="http://www.w3.org/2000/svg" xmlns:xlink="http://www.w3.org/1999/xlink">
<g id="graph0" class="graph" transform="scale(1 1) rotate(0) translate(4 999.62)">
<title>prefix_path</title>
<!-- Node1 -->
<g id="Node000001" class="node">
<title>Node1</title>
<g id="a_Node000001"><a xlink:title="Prefix the realpath to the fuse path.">
<polygon fill="#999999" stroke="#666666" points="290.25,-514 226.25,-514 226.25,-494 290.25,-494 290.25,-514"/>
<text text-anchor="middle" x="258.25" y="-500.5" font-family="Helvetica,sans-Serif" font-size="10.00">prefix_path</text>
</a>
</g>
</g>
<!-- Node2 -->
<g id="Node000002" class="node">
<title>Node2</title>
<g id="a_Node000002"><a xlink:href="tcfs_8c.html#a76af7857833338c73b9cafdce59ca01d" target="_top" xlink:title="Checks file access permissions.">
<polygon fill="white" stroke="#666666" points="180.12,-970 110.88,-970 110.88,-950 180.12,-950 180.12,-970"/>
<text text-anchor="middle" x="145.5" y="-956.5" font-family="Helvetica,sans-Serif" font-size="10.00">tcfs_access</text>
</a>
</g>
</g>
<!-- Node1&#45;&gt;Node2 -->
<g id="edge1_Node000001_Node000002" class="edge">
<title>Node1&#45;&gt;Node2</title>
<g id="a_edge1_Node000001_Node000002"><a xlink:title=" ">
<path fill="none" stroke="#63b8ff" d="M256.65,-525.3C254.03,-603.64 241.4,-874.64 190.25,-941 187.62,-944.41 184.26,-947.22 180.56,-949.53"/>
<polygon fill="#63b8ff" stroke="#63b8ff" points="260.17,-525.55 256.98,-515.44 253.18,-525.33 260.17,-525.55"/>
</a>
</g>
</g>
<!-- Node3 -->
<g id="Node000003" class="node">
<title>Node3</title>
<g id="a_Node000003"><a xlink:href="tcfs_8c.html#adaba2baa5a036b8f77ec187599498a66" target="_top" xlink:title="Writes data to an open file.">
<polygon fill="white" stroke="#666666" points="61.75,-970 3,-970 3,-950 61.75,-950 61.75,-970"/>
<text text-anchor="middle" x="32.38" y="-956.5" font-family="Helvetica,sans-Serif" font-size="10.00">tcfs_write</text>
</a>
</g>
</g>
<!-- Node1&#45;&gt;Node3 -->
<g id="edge31_Node000001_Node000003" class="edge">
<title>Node1&#45;&gt;Node3</title>
<g id="a_edge31_Node000001_Node000003"><a xlink:title=" ">
<path fill="none" stroke="#63b8ff" d="M257.74,-525.22C259.18,-609.49 259.61,-918.74 190.25,-979 151.32,-1012.83 84.96,-986.72 52.46,-970.47"/>
<polygon fill="#63b8ff" stroke="#63b8ff" points="261.22,-525.41 257.53,-515.48 254.22,-525.55 261.22,-525.41"/>
</a>
</g>
</g>
<!-- Node4 -->
<g id="Node000004" class="node">
<title>Node4</title>
<g id="a_Node000004"><a xlink:href="tcfs_8c.html#a3cb10be0f6147667dc0e757636e9892f" target="_top" xlink:title="Changes the permissions of a file.">
<polygon fill="white" stroke="#666666" points="179,-932 112,-932 112,-912 179,-912 179,-932"/>
<text text-anchor="middle" x="145.5" y="-918.5" font-family="Helvetica,sans-Serif" font-size="10.00">tcfs_chmod</text>
</a>
</g>
</g>
<!-- Node1&#45;&gt;Node4 -->
<g id="edge3_Node000001_Node000004" class="edge">
<title>Node1&#45;&gt;Node4</title>
<g id="a_edge3_Node000001_Node000004"><a xlink:title=" ">
<path fill="none" stroke="#63b8ff" d="M256.32,-524.86C252.69,-598.19 237.18,-842.99 190.25,-903 187.29,-906.78 183.43,-909.83 179.22,-912.27"/>
<polygon fill="#63b8ff" stroke="#63b8ff" points="259.85,-525.42 256.82,-515.26 252.86,-525.09 259.85,-525.42"/>
</a>
</g>
</g>
<!-- Node5 -->
<g id="Node000005" class="node">
<title>Node5</title>
<g id="a_Node000005"><a xlink:href="tcfs_8c.html#afff31b61fa0723502cf85922816f14f9" target="_top" xlink:title="Changes the owner and group of a file.">
<polygon fill="white" stroke="#666666" points="178.62,-894 112.38,-894 112.38,-874 178.62,-874 178.62,-894"/>
<text text-anchor="middle" x="145.5" y="-880.5" font-family="Helvetica,sans-Serif" font-size="10.00">tcfs_chown</text>
</a>
</g>
</g>
<!-- Node1&#45;&gt;Node5 -->
<g id="edge4_Node000001_Node000005" class="edge">
<title>Node1&#45;&gt;Node5</title>
<g id="a_edge4_Node000001_Node000005"><a xlink:title=" ">
<path fill="none" stroke="#63b8ff" d="M255.9,-525.06C251.11,-593.98 232.85,-811.48 190.25,-865 187.16,-868.89 183.11,-872 178.73,-874.48"/>
<polygon fill="#63b8ff" stroke="#63b8ff" points="259.45,-525.53 256.62,-515.32 252.46,-525.06 259.45,-525.53"/>
</a>
</g>
</g>
<!-- Node6 -->
<g id="Node000006" class="node">
<title>Node6</title>
<g id="a_Node000006"><a xlink:href="tcfs_8c.html#ad973ad9d6ab7d6276bf85cd8fecd0657" target="_top" xlink:title="Create and open a file.">
<polygon fill="white" stroke="#666666" points="64.75,-457 0,-457 0,-437 64.75,-437 64.75,-457"/>
<text text-anchor="middle" x="32.38" y="-443.5" font-family="Helvetica,sans-Serif" font-size="10.00">tcfs_create</text>
</a>
</g>
</g>
<!-- Node1&#45;&gt;Node6 -->
<g id="edge5_Node000001_Node000006" class="edge">
<title>Node1&#45;&gt;Node6</title>
<g id="a_edge5_Node000001_Node000006"><a xlink:title=" ">
<path fill="none" stroke="#63b8ff" d="M255.59,-482.94C250.37,-422.74 232.09,-252.14 190.25,-219 159.07,-194.3 132.61,-195.19 100.75,-219 64.3,-246.24 40.66,-395.7 34.8,-436.63"/>
<polygon fill="#63b8ff" stroke="#63b8ff" points="252.17,-483.05 256.49,-492.73 259.15,-482.47 252.17,-483.05"/>
</a>
</g>
</g>
<!-- Node7 -->
<g id="Node000007" class="node">
<title>Node7</title>
<g id="a_Node000007"><a xlink:href="tcfs_8c.html#a014853840814f4d5225e2e28e129f9e5" target="_top" xlink:title="Synchronizes file contents.">
<polygon fill="white" stroke="#666666" points="176.38,-818 114.62,-818 114.62,-798 176.38,-798 176.38,-818"/>
<text text-anchor="middle" x="145.5" y="-804.5" font-family="Helvetica,sans-Serif" font-size="10.00">tcfs_fsync</text>
</a>
</g>
</g>
<!-- Node1&#45;&gt;Node7 -->
<g id="edge6_Node000001_Node000007" class="edge">
<title>Node1&#45;&gt;Node7</title>
<g id="a_edge6_Node000001_Node000007"><a xlink:title=" ">
<path fill="none" stroke="#63b8ff" d="M254.76,-525.06C247.44,-583.88 224.33,-748.21 190.25,-789 186.64,-793.32 181.86,-796.69 176.79,-799.3"/>
<polygon fill="#63b8ff" stroke="#63b8ff" points="258.35,-525.55 256.08,-515.2 251.4,-524.7 258.35,-525.55"/>
</a>
</g>
</g>
<!-- Node8 -->
<g id="Node000008" class="node">
<title>Node8</title>
<g id="a_Node000008"><a xlink:href="tcfs_8c.html#a411eac4511d0eae4ce78a2fd3d22ac8c" target="_top" xlink:title="Gets file attributes.">
<polygon fill="white" stroke="#666666" points="178.25,-780 112.75,-780 112.75,-760 178.25,-760 178.25,-780"/>
<text text-anchor="middle" x="145.5" y="-766.5" font-family="Helvetica,sans-Serif" font-size="10.00">tcfs_getattr</text>
</a>
</g>
</g>
<!-- Node1&#45;&gt;Node8 -->
<g id="edge7_Node000001_Node000008" class="edge">
<title>Node1&#45;&gt;Node8</title>
<g id="a_edge7_Node000001_Node000008"><a xlink:title=" ">
<path fill="none" stroke="#63b8ff" d="M256.74,-525.31C254.59,-570.72 243.78,-678.37 190.25,-746 185.84,-751.57 179.77,-756.03 173.55,-759.53"/>
<polygon fill="#63b8ff" stroke="#63b8ff" points="260.26,-525.59 257.13,-515.47 253.27,-525.34 260.26,-525.59"/>
</a>
</g>
</g>
<!-- Node9 -->
<g id="Node000009" class="node">
<title>Node9</title>
<g id="a_Node000009"><a xlink:href="tcfs_8c.html#a6a031c4e3c6dd59051c09789c4666657" target="_top" xlink:title="Get extended attribute data.">
<polygon fill="white" stroke="#666666" points="180.88,-856 110.12,-856 110.12,-836 180.88,-836 180.88,-856"/>
<text text-anchor="middle" x="145.5" y="-842.5" font-family="Helvetica,sans-Serif" font-size="10.00">tcfs_getxattr</text>
</a>
</g>
</g>
<!-- Node1&#45;&gt;Node9 -->
<g id="edge8_Node000001_Node000009" class="edge">
<title>Node1&#45;&gt;Node9</title>
<g id="a_edge8_Node000001_Node000009"><a xlink:title=" ">
<path fill="none" stroke="#63b8ff" d="M255.41,-524.89C249.43,-588.73 228.61,-779.83 190.25,-827 187.43,-830.47 183.85,-833.32 179.96,-835.66"/>
<polygon fill="#63b8ff" stroke="#63b8ff" points="258.97,-525.48 256.39,-515.2 251.99,-524.84 258.97,-525.48"/>
</a>
</g>
</g>
<!-- Node10 -->
<g id="Node000010" class="node">
<title>Node10</title>
<g id="a_Node000010"><a xlink:href="tcfs_8c.html#a745384a010e20b082db26e16702a0129" target="_top" xlink:title="Reads data from an open file.">
<polygon fill="white" stroke="#666666" points="60.62,-799 4.12,-799 4.12,-779 60.62,-779 60.62,-799"/>
<text text-anchor="middle" x="32.38" y="-785.5" font-family="Helvetica,sans-Serif" font-size="10.00">tcfs_read</text>
</a>
</g>
</g>
<!-- Node1&#45;&gt;Node10 -->
<g id="edge17_Node000001_Node000010" class="edge">
<title>Node1&#45;&gt;Node10</title>
<g id="a_edge17_Node000001_Node000010"><a xlink:title=" ">
<path fill="none" stroke="#63b8ff" d="M256.15,-525C252.91,-566.19 240.17,-658.3 190.25,-713 161.12,-744.92 139.52,-731.91 100.75,-751 83.28,-759.6 63.99,-770.65 50.54,-778.61"/>
<polygon fill="#63b8ff" stroke="#63b8ff" points="259.7,-525.38 256.87,-515.17 252.71,-524.91 259.7,-525.38"/>
</a>
</g>
</g>
<!-- Node11 -->
<g id="Node000011" class="node">
<title>Node11</title>
<g id="a_Node000011"><a xlink:href="tcfs_8c.html#a271df7bd878f5ed132e1f98487e8aebd" target="_top" xlink:title="Creates a hard link.">
<polygon fill="white" stroke="#666666" points="171.88,-666 119.12,-666 119.12,-646 171.88,-646 171.88,-666"/>
<text text-anchor="middle" x="145.5" y="-652.5" font-family="Helvetica,sans-Serif" font-size="10.00">tcfs_link</text>
</a>
</g>
</g>
<!-- Node1&#45;&gt;Node11 -->
<g id="edge11_Node000001_Node000011" class="edge">
<title>Node1&#45;&gt;Node11</title>
<g id="a_edge11_Node000001_Node000011"><a xlink:title=" ">
<path fill="none" stroke="#63b8ff" d="M251.63,-524.94C242.93,-553.71 223.62,-605.48 190.25,-637 185.19,-641.78 178.74,-645.46 172.36,-648.26"/>
<polygon fill="#63b8ff" stroke="#63b8ff" points="255.24,-526.05 254.63,-515.47 248.51,-524.12 255.24,-526.05"/>
</a>
</g>
</g>
<!-- Node12 -->
<g id="Node000012" class="node">
<title>Node12</title>
<g id="a_Node000012"><a xlink:href="tcfs_8c.html#ae6edcf6a80467925a9a2112172395de1" target="_top" xlink:title="Lists extended attributes.">
<polygon fill="white" stroke="#666666" points="180.5,-628 110.5,-628 110.5,-608 180.5,-608 180.5,-628"/>
<text text-anchor="middle" x="145.5" y="-614.5" font-family="Helvetica,sans-Serif" font-size="10.00">tcfs_listxattr</text>
</a>
</g>
</g>
<!-- Node1&#45;&gt;Node12 -->
<g id="edge12_Node000001_Node000012" class="edge">
<title>Node1&#45;&gt;Node12</title>
<g id="a_edge12_Node000001_Node000012"><a xlink:title=" ">
<path fill="none" stroke="#63b8ff" d="M247.51,-523.8C236.26,-544.89 215.96,-578.08 190.25,-599 186.14,-602.35 181.35,-605.21 176.48,-607.61"/>
<polygon fill="#63b8ff" stroke="#63b8ff" points="250.95,-525.75 252.42,-515.26 244.73,-522.55 250.95,-525.75"/>
</a>
</g>
</g>
<!-- Node13 -->
<g id="Node000013" class="node">
<title>Node13</title>
<g id="a_Node000013"><a xlink:href="tcfs_8c.html#a682b553345b6d872453d1ace7339bb9e" target="_top" xlink:title="Creates a directory.">
<polygon fill="white" stroke="#666666" points="176.38,-590 114.62,-590 114.62,-570 176.38,-570 176.38,-590"/>
<text text-anchor="middle" x="145.5" y="-576.5" font-family="Helvetica,sans-Serif" font-size="10.00">tcfs_mkdir</text>
</a>
</g>
</g>
<!-- Node1&#45;&gt;Node13 -->
<g id="edge13_Node000001_Node000013" class="edge">
<title>Node1&#45;&gt;Node13</title>
<g id="a_edge13_Node000001_Node000013"><a xlink:title=" ">
<path fill="none" stroke="#63b8ff" d="M239.47,-521.68C226.59,-533.83 208.32,-549.74 190.25,-561 185.19,-564.15 179.52,-567.04 173.97,-569.55"/>
<polygon fill="#63b8ff" stroke="#63b8ff" points="241.33,-524.79 246.11,-515.33 236.48,-519.74 241.33,-524.79"/>
</a>
</g>
</g>
<!-- Node14 -->
<g id="Node000014" class="node">
<title>Node14</title>
<g id="a_Node000014"><a xlink:href="tcfs_8c.html#a151f53359474a95c52f5e79d438869bd" target="_top" xlink:title="Creates a regular file or a special file (block or character).">
<polygon fill="white" stroke="#666666" points="179,-552 112,-552 112,-532 179,-532 179,-552"/>
<text text-anchor="middle" x="145.5" y="-538.5" font-family="Helvetica,sans-Serif" font-size="10.00">tcfs_mknod</text>
</a>
</g>
</g>
<!-- Node1&#45;&gt;Node14 -->
<g id="edge14_Node000001_Node000014" class="edge">
<title>Node1&#45;&gt;Node14</title>
<g id="a_edge14_Node000001_Node000014"><a xlink:title=" ">
<path fill="none" stroke="#63b8ff" d="M216.51,-517.98C203.43,-522.47 189.17,-527.36 176.96,-531.55"/>
<polygon fill="#63b8ff" stroke="#63b8ff" points="217.37,-521.04 225.69,-514.48 215.1,-514.42 217.37,-521.04"/>
</a>
</g>
</g>
<!-- Node15 -->
<g id="Node000015" class="node">
<title>Node15</title>
<g id="a_Node000015"><a xlink:href="tcfs_8c.html#af0c6a7d66189cc1e9fbfafba5255e60d" target="_top" xlink:title="Opens a file.">
<polygon fill="white" stroke="#666666" points="174.88,-514 116.12,-514 116.12,-494 174.88,-494 174.88,-514"/>
<text text-anchor="middle" x="145.5" y="-500.5" font-family="Helvetica,sans-Serif" font-size="10.00">tcfs_open</text>
</a>
</g>
</g>
<!-- Node1&#45;&gt;Node15 -->
<g id="edge15_Node000001_Node000015" class="edge">
<title>Node1&#45;&gt;Node15</title>
<g id="a_edge15_Node000001_Node000015"><a xlink:title=" ">
<path fill="none" stroke="#63b8ff" d="M215.01,-504C201.77,-504 187.46,-504 175.36,-504"/>
<polygon fill="#63b8ff" stroke="#63b8ff" points="214.81,-507.5 224.81,-504 214.81,-500.5 214.81,-507.5"/>
</a>
</g>
</g>
<!-- Node16 -->
<g id="Node000016" class="node">
<title>Node16</title>
<g id="a_Node000016"><a xlink:href="tcfs_8c.html#a92ebab5be45b159c2850a47a5072b58d" target="_top" xlink:title="Opens a directory.">
<polygon fill="white" stroke="#666666" points="180.12,-476 110.88,-476 110.88,-456 180.12,-456 180.12,-476"/>
<text text-anchor="middle" x="145.5" y="-462.5" font-family="Helvetica,sans-Serif" font-size="10.00">tcfs_opendir</text>
</a>
</g>
</g>
<!-- Node1&#45;&gt;Node16 -->
<g id="edge16_Node000001_Node000016" class="edge">
<title>Node1&#45;&gt;Node16</title>
<g id="a_edge16_Node000001_Node000016"><a xlink:title=" ">
<path fill="none" stroke="#63b8ff" d="M216.51,-490.02C203.43,-485.53 189.17,-480.64 176.96,-476.45"/>
<polygon fill="#63b8ff" stroke="#63b8ff" points="215.1,-493.58 225.69,-493.52 217.37,-486.96 215.1,-493.58"/>
</a>
</g>
</g>
<!-- Node17 -->
<g id="Node000017" class="node">
<title>Node17</title>
<g id="a_Node000017"><a xlink:href="tcfs_8c.html#a1a713549c892f56a6522e6487c581d69" target="_top" xlink:title="Reads a directory.">
<polygon fill="white" stroke="#666666" points="179,-438 112,-438 112,-418 179,-418 179,-438"/>
<text text-anchor="middle" x="145.5" y="-424.5" font-family="Helvetica,sans-Serif" font-size="10.00">tcfs_readdir</text>
</a>
</g>
</g>
<!-- Node1&#45;&gt;Node17 -->
<g id="edge18_Node000001_Node000017" class="edge">
<title>Node1&#45;&gt;Node17</title>
<g id="a_edge18_Node000001_Node000017"><a xlink:title=" ">
<path fill="none" stroke="#63b8ff" d="M239.47,-486.32C226.59,-474.17 208.32,-458.26 190.25,-447 185.19,-443.85 179.52,-440.96 173.97,-438.45"/>
<polygon fill="#63b8ff" stroke="#63b8ff" points="236.48,-488.26 246.11,-492.67 241.33,-483.21 236.48,-488.26"/>
</a>
</g>
</g>
<!-- Node18 -->
<g id="Node000018" class="node">
<title>Node18</title>
<g id="a_Node000018"><a xlink:href="tcfs_8c.html#acb1e081efcbf61b6f34e8bbdf7af8979" target="_top" xlink:title="Reads the target of a symbolic link.">
<polygon fill="white" stroke="#666666" points="181.25,-400 109.75,-400 109.75,-380 181.25,-380 181.25,-400"/>
<text text-anchor="middle" x="145.5" y="-386.5" font-family="Helvetica,sans-Serif" font-size="10.00">tcfs_readlink</text>
</a>
</g>
</g>
<!-- Node1&#45;&gt;Node18 -->
<g id="edge19_Node000001_Node000018" class="edge">
<title>Node1&#45;&gt;Node18</title>
<g id="a_edge19_Node000001_Node000018"><a xlink:title=" ">
<path fill="none" stroke="#63b8ff" d="M247.51,-484.2C236.26,-463.11 215.96,-429.92 190.25,-409 186.14,-405.65 181.35,-402.79 176.48,-400.39"/>
<polygon fill="#63b8ff" stroke="#63b8ff" points="244.73,-485.45 252.42,-492.74 250.95,-482.25 244.73,-485.45"/>
</a>
</g>
</g>
<!-- Node19 -->
<g id="Node000019" class="node">
<title>Node19</title>
<g id="a_Node000019"><a xlink:href="tcfs_8c.html#a1241e1fcfe6bb4a5d49d8c8d4e737bcd" target="_top" xlink:title="Releases an open file.">
<polygon fill="white" stroke="#666666" points="180.12,-362 110.88,-362 110.88,-342 180.12,-342 180.12,-362"/>
<text text-anchor="middle" x="145.5" y="-348.5" font-family="Helvetica,sans-Serif" font-size="10.00">tcfs_release</text>
</a>
</g>
</g>
<!-- Node1&#45;&gt;Node19 -->
<g id="edge20_Node000001_Node000019" class="edge">
<title>Node1&#45;&gt;Node19</title>
<g id="a_edge20_Node000001_Node000019"><a xlink:title=" ">
<path fill="none" stroke="#63b8ff" d="M251.63,-483.06C242.93,-454.29 223.62,-402.52 190.25,-371 186.64,-367.59 182.32,-364.73 177.82,-362.36"/>
<polygon fill="#63b8ff" stroke="#63b8ff" points="248.51,-483.88 254.63,-492.53 255.24,-481.95 248.51,-483.88"/>
</a>
</g>
</g>
<!-- Node20 -->
<g id="Node000020" class="node">
<title>Node20</title>
<g id="a_Node000020"><a xlink:href="tcfs_8c.html#acfe2c6a9467bd25a5ba6dc1a65209262" target="_top" xlink:title="Remove an extended attribute.">
<polygon fill="white" stroke="#666666" points="190.25,-324 100.75,-324 100.75,-304 190.25,-304 190.25,-324"/>
<text text-anchor="middle" x="145.5" y="-310.5" font-family="Helvetica,sans-Serif" font-size="10.00">tcfs_removexattr</text>
</a>
</g>
</g>
<!-- Node1&#45;&gt;Node20 -->
<g id="edge21_Node000001_Node000020" class="edge">
<title>Node1&#45;&gt;Node20</title>
<g id="a_edge21_Node000001_Node000020"><a xlink:title=" ">
<path fill="none" stroke="#63b8ff" d="M254.37,-483.22C248.45,-447.97 231.81,-376.1 190.25,-333 186.92,-329.54 182.85,-326.68 178.55,-324.31"/>
<polygon fill="#63b8ff" stroke="#63b8ff" points="251,-483.33 255.98,-492.68 257.91,-482.26 251,-483.33"/>
</a>
</g>
</g>
<!-- Node21 -->
<g id="Node000021" class="node">
<title>Node21</title>
<g id="a_Node000021"><a xlink:href="tcfs_8c.html#aee96b732a1569a607e63bac6fbe5c403" target="_top" xlink:title="Renames a file or a directory.">
<polygon fill="white" stroke="#666666" points="180.5,-286 110.5,-286 110.5,-266 180.5,-266 180.5,-286"/>
<text text-anchor="middle" x="145.5" y="-272.5" font-family="Helvetica,sans-Serif" font-size="10.00">tcfs_rename</text>
</a>
</g>
</g>
<!-- Node1&#45;&gt;Node21 -->
<g id="edge22_Node000001_Node000021" class="edge">
<title>Node1&#45;&gt;Node21</title>
<g id="a_edge22_Node000001_Node000021"><a xlink:title=" ">
<path fill="none" stroke="#63b8ff" d="M256.11,-483.03C252.8,-441.91 239.95,-349.9 190.25,-295 187.14,-291.56 183.29,-288.72 179.19,-286.38"/>
<polygon fill="#63b8ff" stroke="#63b8ff" points="252.68,-483.11 256.85,-492.85 259.66,-482.64 252.68,-483.11"/>
</a>
</g>
</g>
<!-- Node22 -->
<g id="Node000022" class="node">
<title>Node22</title>
<g id="a_Node000022"><a xlink:href="tcfs_8c.html#a2853593dded66a922afbdc36afb15a50" target="_top" xlink:title="Removes a directory.">
<polygon fill="white" stroke="#666666" points="175.25,-248 115.75,-248 115.75,-228 175.25,-228 175.25,-248"/>
<text text-anchor="middle" x="145.5" y="-234.5" font-family="Helvetica,sans-Serif" font-size="10.00">tcfs_rmdir</text>
</a>
</g>
</g>
<!-- Node1&#45;&gt;Node22 -->
<g id="edge23_Node000001_Node000022" class="edge">
<title>Node1&#45;&gt;Node22</title>
<g id="a_edge23_Node000001_Node000022"><a xlink:title=" ">
<path fill="none" stroke="#63b8ff" d="M257.37,-482.8C256.51,-436.26 248.14,-323.95 190.25,-257 186.24,-252.36 180.9,-248.82 175.32,-246.13"/>
<polygon fill="#63b8ff" stroke="#63b8ff" points="253.87,-482.65 257.45,-492.63 260.87,-482.6 253.87,-482.65"/>
</a>
</g>
</g>
<!-- Node23 -->
<g id="Node000023" class="node">
<title>Node23</title>
<g id="a_Node000023"><a xlink:href="tcfs_8c.html#ad3c328fdcd93c8203e1ce9c785fd3a14" target="_top" xlink:title="Sets extended attributes.">
<polygon fill="white" stroke="#666666" points="180.88,-704 110.12,-704 110.12,-684 180.88,-684 180.88,-704"/>
<text text-anchor="middle" x="145.5" y="-690.5" font-family="Helvetica,sans-Serif" font-size="10.00">tcfs_setxattr</text>
</a>
</g>
</g>
<!-- Node1&#45;&gt;Node23 -->
<g id="edge24_Node000001_Node000023" class="edge">
<title>Node1&#45;&gt;Node23</title>
<g id="a_edge24_Node000001_Node000023"><a xlink:title=" ">
<path fill="none" stroke="#63b8ff" d="M254.37,-524.78C248.45,-560.03 231.81,-631.9 190.25,-675 186.92,-678.46 182.85,-681.32 178.55,-683.69"/>
<polygon fill="#63b8ff" stroke="#63b8ff" points="257.91,-525.74 255.98,-515.32 251,-524.67 257.91,-525.74"/>
</a>
</g>
</g>
<!-- Node24 -->
<g id="Node000024" class="node">
<title>Node24</title>
<g id="a_Node000024"><a xlink:href="tcfs_8c.html#ae14ebf4581d4cbc45737ae75af82a887" target="_top" xlink:title="Get file system statistics.">
<polygon fill="white" stroke="#666666" points="176.75,-172 114.25,-172 114.25,-152 176.75,-152 176.75,-172"/>
<text text-anchor="middle" x="145.5" y="-158.5" font-family="Helvetica,sans-Serif" font-size="10.00">tcfs_statfs</text>
</a>
</g>
</g>
<!-- Node1&#45;&gt;Node24 -->
<g id="edge26_Node000001_Node000024" class="edge">
<title>Node1&#45;&gt;Node24</title>
<g id="a_edge26_Node000001_Node000024"><a xlink:title=" ">
<path fill="none" stroke="#63b8ff" d="M255.09,-482.77C248.32,-419.55 225.79,-233.89 190.25,-186 186.02,-180.3 180.01,-175.78 173.79,-172.28"/>
<polygon fill="#63b8ff" stroke="#63b8ff" points="251.72,-483.13 256.24,-492.71 258.68,-482.4 251.72,-483.13"/>
</a>
</g>
</g>
<!-- Node25 -->
<g id="Node000025" class="node">
<title>Node25</title>
<g id="a_Node000025"><a xlink:href="tcfs_8c.html#ac1d223f9b998d5af6bec3947d03be0fc" target="_top" xlink:title="Creates a symbolic link.">
<polygon fill="white" stroke="#666666" points="181.25,-134 109.75,-134 109.75,-114 181.25,-114 181.25,-134"/>
<text text-anchor="middle" x="145.5" y="-120.5" font-family="Helvetica,sans-Serif" font-size="10.00">tcfs_symlink</text>
</a>
</g>
</g>
<!-- Node1&#45;&gt;Node25 -->
<g id="edge27_Node000001_Node000025" class="edge">
<title>Node1&#45;&gt;Node25</title>
<g id="a_edge27_Node000001_Node000025"><a xlink:title=" ">
<path fill="none" stroke="#63b8ff" d="M255.9,-482.94C251.11,-414.02 232.85,-196.52 190.25,-143 187.47,-139.5 183.91,-136.63 180.03,-134.29"/>
<polygon fill="#63b8ff" stroke="#63b8ff" points="252.46,-482.94 256.62,-492.68 259.45,-482.47 252.46,-482.94"/>
</a>
</g>
</g>
<!-- Node26 -->
<g id="Node000026" class="node">
<title>Node26</title>
<g id="a_Node000026"><a xlink:href="tcfs_8c.html#a7e7f7a65b4e76cc96505d0c6d62fba9c" target="_top" xlink:title="Truncates or extends the size of a file.">
<polygon fill="white" stroke="#666666" points="182,-96 109,-96 109,-76 182,-76 182,-96"/>
<text text-anchor="middle" x="145.5" y="-82.5" font-family="Helvetica,sans-Serif" font-size="10.00">tcfs_truncate</text>
</a>
</g>
</g>
<!-- Node1&#45;&gt;Node26 -->
<g id="edge28_Node000001_Node000026" class="edge">
<title>Node1&#45;&gt;Node26</title>
<g id="a_edge28_Node000001_Node000026"><a xlink:title=" ">
<path fill="none" stroke="#63b8ff" d="M256.32,-483.14C252.69,-409.81 237.18,-165.01 190.25,-105 187.5,-101.48 183.96,-98.6 180.09,-96.24"/>
<polygon fill="#63b8ff" stroke="#63b8ff" points="252.86,-482.91 256.82,-492.74 259.85,-482.58 252.86,-482.91"/>
</a>
</g>
</g>
<!-- Node27 -->
<g id="Node000027" class="node">
<title>Node27</title>
<g id="a_Node000027"><a xlink:href="tcfs_8c.html#ac6d3a8a626363a6f98de64e585968b09" target="_top" xlink:title="Removes a file.">
<polygon fill="white" stroke="#666666" points="177.12,-58 113.88,-58 113.88,-38 177.12,-38 177.12,-58"/>
<text text-anchor="middle" x="145.5" y="-44.5" font-family="Helvetica,sans-Serif" font-size="10.00">tcfs_unlink</text>
</a>
</g>
</g>
<!-- Node1&#45;&gt;Node27 -->
<g id="edge29_Node000001_Node000027" class="edge">
<title>Node1&#45;&gt;Node27</title>
<g id="a_edge29_Node000001_Node000027"><a xlink:title=" ">
<path fill="none" stroke="#63b8ff" d="M256.65,-482.7C254.03,-404.36 241.4,-133.36 190.25,-67 186.91,-62.67 182.39,-59.31 177.51,-56.71"/>
<polygon fill="#63b8ff" stroke="#63b8ff" points="253.18,-482.67 256.98,-492.56 260.17,-482.45 253.18,-482.67"/>
</a>
</g>
</g>
<!-- Node28 -->
<g id="Node000028" class="node">
<title>Node28</title>
<g id="a_Node000028"><a xlink:href="tcfs_8c.html#aca5dccf989dfc270ca31e1d8b20bb60e" target="_top" xlink:title="Modify the access and modification timestamps of a file in the TCFS file system.">
<polygon fill="white" stroke="#666666" points="181.62,-20 109.38,-20 109.38,0 181.62,0 181.62,-20"/>
<text text-anchor="middle" x="145.5" y="-6.5" font-family="Helvetica,sans-Serif" font-size="10.00">tcfs_utimens</text>
</a>
</g>
</g>
<!-- Node1&#45;&gt;Node28 -->
<g id="edge30_Node000001_Node000028" class="edge">
<title>Node1&#45;&gt;Node28</title>
<g id="a_edge30_Node000001_Node000028"><a xlink:title=" ">
<path fill="none" stroke="#63b8ff" d="M256.94,-483.01C255.35,-400.83 245.78,-101.96 190.25,-29 187.64,-25.57 184.29,-22.76 180.6,-20.44"/>
<polygon fill="#63b8ff" stroke="#63b8ff" points="253.46,-482.95 257.13,-492.89 260.46,-482.83 253.46,-482.95"/>
</a>
</g>
</g>
<!-- Node2&#45;&gt;Node3 -->
<g id="edge2_Node000002_Node000003" class="edge">
<title>Node2&#45;&gt;Node3</title>
<g id="a_edge2_Node000002_Node000003"><a xlink:title=" ">
<path fill="none" stroke="#63b8ff" d="M99.72,-960C87.08,-960 73.67,-960 62.24,-960"/>
<polygon fill="#63b8ff" stroke="#63b8ff" points="99.56,-963.5 109.56,-960 99.55,-956.5 99.56,-963.5"/>
</a>
</g>
</g>
<!-- Node9&#45;&gt;Node3 -->
<g id="edge10_Node000009_Node000003" class="edge">
<title>Node9&#45;&gt;Node3</title>
<g id="a_edge10_Node000009_Node000003"><a xlink:title=" ">
<path fill="none" stroke="#63b8ff" d="M105.21,-861.73C103.66,-862.76 102.16,-863.85 100.75,-865 70.61,-889.47 47.78,-930.67 38.25,-949.74"/>
<polygon fill="#63b8ff" stroke="#63b8ff" points="106.59,-864.4 113.53,-856.4 103.11,-858.32 106.59,-864.4"/>
</a>
</g>
</g>
<!-- Node9&#45;&gt;Node10 -->
<g id="edge9_Node000009_Node000010" class="edge">
<title>Node9&#45;&gt;Node10</title>
<g id="a_edge9_Node000009_Node000010"><a xlink:title=" ">
<path fill="none" stroke="#63b8ff" d="M109.37,-831.13C106.43,-829.77 103.53,-828.38 100.75,-827 83.32,-818.33 64.02,-807.29 50.56,-799.35"/>
<polygon fill="#63b8ff" stroke="#63b8ff" points="107.75,-834.69 118.31,-835.59 110.62,-828.3 107.75,-834.69"/>
</a>
</g>
</g>
<!-- Node23&#45;&gt;Node6 -->
<g id="edge25_Node000023_Node000006" class="edge">
<title>Node23&#45;&gt;Node6</title>
<g id="a_edge25_Node000023_Node000006"><a xlink:title=" ">
<path fill="none" stroke="#63b8ff" d="M102.87,-677.19C102.13,-676.49 101.42,-675.76 100.75,-675 41.68,-608.22 34.33,-491.82 33.47,-457.07"/>
<polygon fill="#63b8ff" stroke="#63b8ff" points="100.6,-680.61 110.74,-683.69 104.74,-674.96 100.6,-680.61"/>
</a>
</g>
</g>
</g>
</svg>
