<?xml version="1.0" encoding="UTF-8" standalone="no"?>
<!DOCTYPE svg PUBLIC "-//W3C//DTD SVG 1.1//EN"
 "http://www.w3.org/Graphics/SVG/1.1/DTD/svg11.dtd">
<!-- Generated by graphviz version 8.1.0 (20230707.0739)
 -->
<!-- Title: handle_local_mount Pages: 1 -->
<svg width="278pt" height="28pt"
 viewBox="0.00 0.00 278.00 28.00" xmlns="http://www.w3.org/2000/svg" xmlns:xlink="http://www.w3.org/1999/xlink">
<g id="graph0" class="graph" transform="scale(1 1) rotate(0) translate(4 24)">
<title>handle_local_mount</title>
<!-- Node1 -->
<g id="Node000001" class="node">
<title>Node1</title>
<g id="a_Node000001"><a xlink:title=" ">
<polygon fill="#999999" stroke="#666666" points="270,-20 167.75,-20 167.75,0 270,0 270,-20"/>
<text text-anchor="middle" x="218.88" y="-6.5" font-family="Helvetica,sans-Serif" font-size="10.00">handle_local_mount</text>
</a>
</g>
</g>
<!-- Node2 -->
<g id="Node000002" class="node">
<title>Node2</title>
<g id="a_Node000002"><a xlink:href="tcfs__helper__tools_8c.html#a769edcf066efb97f5ae3a81e3507a793" target="_top" xlink:title="Execute the mount of either a Network FS (for ex NFS), Local FS (for ex a block device),...">
<polygon fill="white" stroke="#666666" points="131.75,-20 73,-20 73,0 131.75,0 131.75,-20"/>
<text text-anchor="middle" x="102.38" y="-6.5" font-family="Helvetica,sans-Serif" font-size="10.00">do_mount</text>
</a>
</g>
</g>
<!-- Node1&#45;&gt;Node2 -->
<g id="edge1_Node000001_Node000002" class="edge">
<title>Node1&#45;&gt;Node2</title>
<g id="a_edge1_Node000001_Node000002"><a xlink:title=" ">
<path fill="none" stroke="#63b8ff" d="M156.49,-10C147.95,-10 139.53,-10 132.01,-10"/>
<polygon fill="#63b8ff" stroke="#63b8ff" points="156.32,-13.5 166.32,-10 156.32,-6.5 156.32,-13.5"/>
</a>
</g>
</g>
<!-- Node3 -->
<g id="Node000003" class="node">
<title>Node3</title>
<g id="a_Node000003"><a xlink:href="user__tcfs_8c.html#a0ddf1224851353fc92bfbff6f499fa97" target="_top" xlink:title="main function for the TCFS user helper program.">
<polygon fill="white" stroke="#666666" points="37,-20 0,-20 0,0 37,0 37,-20"/>
<text text-anchor="middle" x="18.5" y="-6.5" font-family="Helvetica,sans-Serif" font-size="10.00">main</text>
</a>
</g>
</g>
<!-- Node2&#45;&gt;Node3 -->
<g id="edge2_Node000002_Node000003" class="edge">
<title>Node2&#45;&gt;Node3</title>
<g id="a_edge2_Node000002_Node000003"><a xlink:title=" ">
<path fill="none" stroke="#63b8ff" d="M61.94,-10C53.29,-10 44.55,-10 37.27,-10"/>
<polygon fill="#63b8ff" stroke="#63b8ff" points="61.74,-13.5 71.74,-10 61.74,-6.5 61.74,-13.5"/>
</a>
</g>
</g>
</g>
</svg>
