<?xml version="1.0" encoding="UTF-8" standalone="no"?>
<!DOCTYPE svg PUBLIC "-//W3C//DTD SVG 1.1//EN"
 "http://www.w3.org/Graphics/SVG/1.1/DTD/svg11.dtd">
<!-- Generated by graphviz version 8.1.0 (20230707.0739)
 -->
<!-- Title: tcfs_removexattr Pages: 1 -->
<svg width="663pt" height="180pt"
 viewBox="0.00 0.00 662.50 180.00" xmlns="http://www.w3.org/2000/svg" xmlns:xlink="http://www.w3.org/1999/xlink">
<g id="graph0" class="graph" transform="scale(1 1) rotate(0) translate(4 176)">
<title>tcfs_removexattr</title>
<!-- Node1 -->
<g id="Node000001" class="node">
<title>Node1</title>
<g id="a_Node000001"><a xlink:title="Remove an extended attribute.">
<polygon fill="#999999" stroke="#666666" points="89.5,-58 0,-58 0,-38 89.5,-38 89.5,-58"/>
<text text-anchor="middle" x="44.75" y="-44.5" font-family="Helvetica,sans-Serif" font-size="10.00">tcfs_removexattr</text>
</a>
</g>
</g>
<!-- Node2 -->
<g id="Node000002" class="node">
<title>Node2</title>
<g id="a_Node000002"><a xlink:href="crypt-utils_8c.html#a5c45db4d3db3ef274fb6356e1a95e644" target="_top" xlink:title="Encrypts the given filename with its path using a specified key.">
<polygon fill="white" stroke="#666666" points="260.75,-96 125.5,-96 125.5,-76 260.75,-76 260.75,-96"/>
<text text-anchor="middle" x="193.12" y="-82.5" font-family="Helvetica,sans-Serif" font-size="10.00">encrypt_path_and_filename</text>
</a>
</g>
</g>
<!-- Node1&#45;&gt;Node2 -->
<g id="edge1_Node000001_Node000002" class="edge">
<title>Node1&#45;&gt;Node2</title>
<g id="a_edge1_Node000001_Node000002"><a xlink:title=" ">
<path fill="none" stroke="#63b8ff" d="M86.14,-58.48C103.17,-62.91 123.2,-68.11 141.24,-72.79"/>
<polygon fill="#63b8ff" stroke="#63b8ff" points="140.31,-76.42 150.87,-75.55 142.07,-69.65 140.31,-76.42"/>
</a>
</g>
</g>
<!-- Node6 -->
<g id="Node000006" class="node">
<title>Node6</title>
<g id="a_Node000006"><a xlink:href="tcfs__utils_8c.html#a62b66e43a7ad8b8cf9fcad67f71a7a8b" target="_top" xlink:title="Logs a formatted message to a file with timestamp.">
<polygon fill="white" stroke="#666666" points="654.5,-96 586,-96 586,-76 654.5,-76 654.5,-96"/>
<text text-anchor="middle" x="620.25" y="-82.5" font-family="Helvetica,sans-Serif" font-size="10.00">logMessage</text>
</a>
</g>
</g>
<!-- Node1&#45;&gt;Node6 -->
<g id="edge7_Node000001_Node000006" class="edge">
<title>Node1&#45;&gt;Node6</title>
<g id="a_edge7_Node000001_Node000006"><a xlink:title=" ">
<path fill="none" stroke="#63b8ff" d="M89.8,-50.92C196.58,-57.99 468.27,-76 575.12,-83.08"/>
<polygon fill="#63b8ff" stroke="#63b8ff" points="574.63,-86.62 584.83,-83.79 575.09,-79.63 574.63,-86.62"/>
</a>
</g>
</g>
<!-- Node7 -->
<g id="Node000007" class="node">
<title>Node7</title>
<g id="a_Node000007"><a xlink:href="tcfs__utils_8c.html#ac4ff59963f4a122c9f802c0c2bf2abc8" target="_top" xlink:title="Prefix the realpath to the fuse path.">
<polygon fill="white" stroke="#666666" points="225.12,-20 161.12,-20 161.12,0 225.12,0 225.12,-20"/>
<text text-anchor="middle" x="193.12" y="-6.5" font-family="Helvetica,sans-Serif" font-size="10.00">prefix_path</text>
</a>
</g>
</g>
<!-- Node1&#45;&gt;Node7 -->
<g id="edge8_Node000001_Node000007" class="edge">
<title>Node1&#45;&gt;Node7</title>
<g id="a_edge8_Node000001_Node000007"><a xlink:title=" ">
<path fill="none" stroke="#63b8ff" d="M86.14,-37.52C106.08,-32.34 130.11,-26.1 150.25,-20.87"/>
<polygon fill="#63b8ff" stroke="#63b8ff" points="150.89,-24.06 159.69,-18.16 149.13,-17.29 150.89,-24.06"/>
</a>
</g>
</g>
<!-- Node3 -->
<g id="Node000003" class="node">
<title>Node3</title>
<g id="a_Node000003"><a xlink:href="crypt-utils_8c.html#aa4a7facde8c6f63a7225c07e92232b2e" target="_top" xlink:title=" ">
<polygon fill="white" stroke="#666666" points="436.5,-134 296.75,-134 296.75,-114 436.5,-114 436.5,-134"/>
<text text-anchor="middle" x="366.62" y="-120.5" font-family="Helvetica,sans-Serif" font-size="10.00">encrypt_file_name_with_hex</text>
</a>
</g>
</g>
<!-- Node2&#45;&gt;Node3 -->
<g id="edge2_Node000002_Node000003" class="edge">
<title>Node2&#45;&gt;Node3</title>
<g id="a_edge2_Node000002_Node000003"><a xlink:title=" ">
<path fill="none" stroke="#63b8ff" d="M241.44,-96.48C261.97,-101.03 286.2,-106.4 307.78,-111.18"/>
<polygon fill="#63b8ff" stroke="#63b8ff" points="306.94,-114.8 317.46,-113.55 308.46,-107.97 306.94,-114.8"/>
</a>
</g>
</g>
<!-- Node2&#45;&gt;Node6 -->
<g id="edge6_Node000002_Node000006" class="edge">
<title>Node2&#45;&gt;Node6</title>
<g id="a_edge6_Node000002_Node000006"><a xlink:title=" ">
<path fill="none" stroke="#63b8ff" d="M261.02,-86C348.65,-86 499.92,-86 574.72,-86"/>
<polygon fill="#63b8ff" stroke="#63b8ff" points="574.62,-89.5 584.62,-86 574.62,-82.5 574.62,-89.5"/>
</a>
</g>
</g>
<!-- Node4 -->
<g id="Node000004" class="node">
<title>Node4</title>
<g id="a_Node000004"><a xlink:href="crypt-utils_8c.html#aa926098a8843cf0ab6bd7eb8b3bbd2e6" target="_top" xlink:title="Encrypt the *plaintext string using a AES 256 key.">
<polygon fill="white" stroke="#666666" points="550,-172 472.5,-172 472.5,-152 550,-152 550,-172"/>
<text text-anchor="middle" x="511.25" y="-158.5" font-family="Helvetica,sans-Serif" font-size="10.00">encrypt_string</text>
</a>
</g>
</g>
<!-- Node3&#45;&gt;Node4 -->
<g id="edge3_Node000003_Node000004" class="edge">
<title>Node3&#45;&gt;Node4</title>
<g id="a_edge3_Node000003_Node000004"><a xlink:title=" ">
<path fill="none" stroke="#63b8ff" d="M406.98,-134.48C423.85,-138.98 443.74,-144.28 461.53,-149.02"/>
<polygon fill="#63b8ff" stroke="#63b8ff" points="460.45,-152.62 471.01,-151.81 462.25,-145.86 460.45,-152.62"/>
</a>
</g>
</g>
<!-- Node5 -->
<g id="Node000005" class="node">
<title>Node5</title>
<g id="a_Node000005"><a xlink:href="tcfs__utils_8c.html#a819d57d5c053a25772508a943d1bcc48" target="_top" xlink:title="Convert a string to its hexadecimal representation.">
<polygon fill="white" stroke="#666666" points="548.5,-134 474,-134 474,-114 548.5,-114 548.5,-134"/>
<text text-anchor="middle" x="511.25" y="-120.5" font-family="Helvetica,sans-Serif" font-size="10.00">string_to_hex</text>
</a>
</g>
</g>
<!-- Node3&#45;&gt;Node5 -->
<g id="edge4_Node000003_Node000005" class="edge">
<title>Node3&#45;&gt;Node5</title>
<g id="a_edge4_Node000003_Node000005"><a xlink:title=" ">
<path fill="none" stroke="#63b8ff" d="M436.85,-124C445.73,-124 454.66,-124 463.07,-124"/>
<polygon fill="#63b8ff" stroke="#63b8ff" points="462.8,-127.5 472.8,-124 462.8,-120.5 462.8,-127.5"/>
</a>
</g>
</g>
<!-- Node5&#45;&gt;Node6 -->
<g id="edge5_Node000005_Node000006" class="edge">
<title>Node5&#45;&gt;Node6</title>
<g id="a_edge5_Node000005_Node000006"><a xlink:title=" ">
<path fill="none" stroke="#63b8ff" d="M541.77,-113.52C553.47,-109.36 567.09,-104.52 579.62,-100.07"/>
<polygon fill="#63b8ff" stroke="#63b8ff" points="580.57,-103.09 588.82,-96.45 578.23,-96.5 580.57,-103.09"/>
</a>
</g>
</g>
</g>
</svg>
