<?xml version="1.0" encoding="UTF-8" standalone="no"?>
<!DOCTYPE svg PUBLIC "-//W3C//DTD SVG 1.1//EN"
 "http://www.w3.org/Graphics/SVG/1.1/DTD/svg11.dtd">
<!-- Generated by graphviz version 8.1.0 (20230707.0739)
 -->
<!-- Title: userspace&#45;module/tcfs.c Pages: 1 -->
<svg width="1776pt" height="220pt"
 viewBox="0.00 0.00 1775.75 220.00" xmlns="http://www.w3.org/2000/svg" xmlns:xlink="http://www.w3.org/1999/xlink">
<g id="graph0" class="graph" transform="scale(1 1) rotate(0) translate(4 216)">
<title>userspace&#45;module/tcfs.c</title>
<!-- Node1 -->
<g id="Node000001" class="node">
<title>Node1</title>
<g id="a_Node000001"><a xlink:title=" ">
<polygon fill="#999999" stroke="#666666" points="1218.88,-212 1095.63,-212 1095.63,-192 1218.88,-192 1218.88,-212"/>
<text text-anchor="middle" x="1157.25" y="-198.5" font-family="Helvetica,sans-Serif" font-size="10.00">userspace&#45;module/tcfs.c</text>
</a>
</g>
</g>
<!-- Node2 -->
<g id="Node000002" class="node">
<title>Node2</title>
<g id="a_Node000002"><a xlink:href="crypt-utils_8h.html" target="_top" xlink:title="Header file for crypt&#45;utils.c, which provides functions for encryption and decryption using AES&#45;256,...">
<polygon fill="white" stroke="#666666" points="654.5,-156 550,-156 550,-124 654.5,-124 654.5,-156"/>
<text text-anchor="start" x="558" y="-142.5" font-family="Helvetica,sans-Serif" font-size="10.00">utils/crypt&#45;utils/crypt</text>
<text text-anchor="middle" x="602.25" y="-130.5" font-family="Helvetica,sans-Serif" font-size="10.00">&#45;utils.h</text>
</a>
</g>
</g>
<!-- Node1&#45;&gt;Node2 -->
<g id="edge1_Node000001_Node000002" class="edge">
<title>Node1&#45;&gt;Node2</title>
<g id="a_edge1_Node000001_Node000002"><a xlink:title=" ">
<path fill="none" stroke="#63b8ff" d="M1095.2,-194.29C988.82,-182.79 772.75,-159.43 665.53,-147.84"/>
<polygon fill="#63b8ff" stroke="#63b8ff" points="666.2,-144.28 655.88,-146.69 665.45,-151.24 666.2,-144.28"/>
</a>
</g>
</g>
<!-- Node5 -->
<g id="Node000005" class="node">
<title>Node5</title>
<g id="a_Node000005"><a xlink:title=" ">
<polygon fill="#e0e0e0" stroke="#999999" points="539.88,-20 494.63,-20 494.63,0 539.88,0 539.88,-20"/>
<text text-anchor="middle" x="517.25" y="-6.5" font-family="Helvetica,sans-Serif" font-size="10.00">stdio.h</text>
</a>
</g>
</g>
<!-- Node1&#45;&gt;Node5 -->
<g id="edge32_Node000001_Node000005" class="edge">
<title>Node1&#45;&gt;Node5</title>
<g id="a_edge32_Node000001_Node000005"><a xlink:title=" ">
<path fill="none" stroke="#63b8ff" d="M1095.33,-200.38C883.67,-197.98 196.97,-187.79 103.25,-156 53.39,-139.09 30.55,-134.71 6.25,-88 -0.31,-75.38 -3.35,-66.49 6.25,-56 38.46,-20.83 374.51,-13.01 483.4,-11.39"/>
<polygon fill="#63b8ff" stroke="#63b8ff" points="483.42,-14.88 493.37,-11.24 483.33,-7.88 483.42,-14.88"/>
</a>
</g>
</g>
<!-- Node7 -->
<g id="Node000007" class="node">
<title>Node7</title>
<g id="a_Node000007"><a xlink:title=" ">
<polygon fill="#e0e0e0" stroke="#999999" points="713.38,-20 665.13,-20 665.13,0 713.38,0 713.38,-20"/>
<text text-anchor="middle" x="689.25" y="-6.5" font-family="Helvetica,sans-Serif" font-size="10.00">string.h</text>
</a>
</g>
</g>
<!-- Node1&#45;&gt;Node7 -->
<g id="edge33_Node000001_Node000007" class="edge">
<title>Node1&#45;&gt;Node7</title>
<g id="a_edge33_Node000001_Node000007"><a xlink:title=" ">
<path fill="none" stroke="#63b8ff" d="M1095.26,-199.68C867.85,-194.2 88.92,-169.57 17.25,-88 7.87,-77.32 7.54,-66.39 17.25,-56 18.63,-54.53 516.41,-22.19 654.24,-13.27"/>
<polygon fill="#63b8ff" stroke="#63b8ff" points="654.24,-16.71 664,-12.57 653.79,-9.72 654.24,-16.71"/>
</a>
</g>
</g>
<!-- Node9 -->
<g id="Node000009" class="node">
<title>Node9</title>
<g id="a_Node000009"><a xlink:title=" ">
<polygon fill="#e0e0e0" stroke="#999999" points="885.5,-20 835,-20 835,0 885.5,0 885.5,-20"/>
<text text-anchor="middle" x="860.25" y="-6.5" font-family="Helvetica,sans-Serif" font-size="10.00">unistd.h</text>
</a>
</g>
</g>
<!-- Node1&#45;&gt;Node9 -->
<g id="edge38_Node000001_Node000009" class="edge">
<title>Node1&#45;&gt;Node9</title>
<g id="a_edge38_Node000001_Node000009"><a xlink:title=" ">
<path fill="none" stroke="#63b8ff" d="M1132.6,-191.52C1113.71,-183.6 1087.53,-171.18 1067.25,-156 1018.67,-119.62 1024.39,-90.21 974.25,-56 950.32,-39.67 919.6,-27.98 896.08,-20.62"/>
<polygon fill="#63b8ff" stroke="#63b8ff" points="897.42,-17.06 886.83,-17.54 895.4,-23.77 897.42,-17.06"/>
</a>
</g>
</g>
<!-- Node15 -->
<g id="Node000015" class="node">
<title>Node15</title>
<g id="a_Node000015"><a xlink:href="tcfs__utils_8h.html" target="_top" xlink:title="Header file containing utility functions used by TCFS (Transparent Cryptographic Filesystem)">
<polygon fill="white" stroke="#666666" points="965.38,-88 881.13,-88 881.13,-56 965.38,-56 965.38,-88"/>
<text text-anchor="start" x="889.13" y="-74.5" font-family="Helvetica,sans-Serif" font-size="10.00">../tcfs_utils/tcfs</text>
<text text-anchor="middle" x="923.25" y="-62.5" font-family="Helvetica,sans-Serif" font-size="10.00">_utils.h</text>
</a>
</g>
</g>
<!-- Node1&#45;&gt;Node15 -->
<g id="edge23_Node000001_Node000015" class="edge">
<title>Node1&#45;&gt;Node15</title>
<g id="a_edge23_Node000001_Node000015"><a xlink:title=" ">
<path fill="none" stroke="#63b8ff" d="M1095.4,-196.4C1058.88,-191.14 1013.29,-179.91 979.25,-156 958.71,-141.57 943.52,-116.99 934.18,-98.32"/>
<polygon fill="#63b8ff" stroke="#63b8ff" points="936.92,-96.93 929.48,-89.39 930.6,-99.93 936.92,-96.93"/>
</a>
</g>
</g>
<!-- Node16 -->
<g id="Node000016" class="node">
<title>Node16</title>
<g id="a_Node000016"><a xlink:title=" ">
<polygon fill="#e0e0e0" stroke="#999999" points="1023.25,-20 977.25,-20 977.25,0 1023.25,0 1023.25,-20"/>
<text text-anchor="middle" x="1000.25" y="-6.5" font-family="Helvetica,sans-Serif" font-size="10.00">errno.h</text>
</a>
</g>
</g>
<!-- Node1&#45;&gt;Node16 -->
<g id="edge26_Node000001_Node000016" class="edge">
<title>Node1&#45;&gt;Node16</title>
<g id="a_edge26_Node000001_Node000016"><a xlink:title=" ">
<path fill="none" stroke="#63b8ff" d="M1141.82,-191.54C1128.98,-183.19 1110.69,-170.18 1097.25,-156 1059.03,-115.66 1025.78,-58.67 1010,-29.61"/>
<polygon fill="#63b8ff" stroke="#63b8ff" points="1012.8,-28.42 1005,-21.25 1006.62,-31.72 1012.8,-28.42"/>
</a>
</g>
</g>
<!-- Node17 -->
<g id="Node000017" class="node">
<title>Node17</title>
<g id="a_Node000017"><a xlink:title=" ">
<polygon fill="#e0e0e0" stroke="#999999" points="1083.38,-20 1041.13,-20 1041.13,0 1083.38,0 1083.38,-20"/>
<text text-anchor="middle" x="1062.25" y="-6.5" font-family="Helvetica,sans-Serif" font-size="10.00">pwd.h</text>
</a>
</g>
</g>
<!-- Node1&#45;&gt;Node17 -->
<g id="edge31_Node000001_Node000017" class="edge">
<title>Node1&#45;&gt;Node17</title>
<g id="a_edge31_Node000001_Node000017"><a xlink:title=" ">
<path fill="none" stroke="#63b8ff" d="M1147.24,-191.82C1138.37,-183.26 1125.59,-169.77 1117.25,-156 1092.12,-114.51 1075.12,-59.59 1067.26,-30.71"/>
<polygon fill="#63b8ff" stroke="#63b8ff" points="1070.46,-30.13 1064.53,-21.35 1063.69,-31.91 1070.46,-30.13"/>
</a>
</g>
</g>
<!-- Node18 -->
<g id="Node000018" class="node">
<title>Node18</title>
<g id="a_Node000018"><a xlink:title=" ">
<polygon fill="#e0e0e0" stroke="#999999" points="1163.5,-20 1101,-20 1101,0 1163.5,0 1163.5,-20"/>
<text text-anchor="middle" x="1132.25" y="-6.5" font-family="Helvetica,sans-Serif" font-size="10.00">sys/xattr.h</text>
</a>
</g>
</g>
<!-- Node1&#45;&gt;Node18 -->
<g id="edge36_Node000001_Node000018" class="edge">
<title>Node1&#45;&gt;Node18</title>
<g id="a_edge36_Node000001_Node000018"><a xlink:title=" ">
<path fill="none" stroke="#63b8ff" d="M1148.47,-191.52C1141.19,-182.96 1131.39,-169.66 1127.25,-156 1114.22,-112.97 1121.8,-59.45 1127.57,-30.99"/>
<polygon fill="#63b8ff" stroke="#63b8ff" points="1131.17,-31.95 1129.88,-21.43 1124.33,-30.46 1131.17,-31.95"/>
</a>
</g>
</g>
<!-- Node20 -->
<g id="Node000020" class="node">
<title>Node20</title>
<g id="a_Node000020"><a xlink:title=" ">
<polygon fill="#e0e0e0" stroke="#999999" points="1178.75,-150 1135.75,-150 1135.75,-130 1178.75,-130 1178.75,-150"/>
<text text-anchor="middle" x="1157.25" y="-136.5" font-family="Helvetica,sans-Serif" font-size="10.00">argp.h</text>
</a>
</g>
</g>
<!-- Node1&#45;&gt;Node20 -->
<g id="edge24_Node000001_Node000020" class="edge">
<title>Node1&#45;&gt;Node20</title>
<g id="a_edge24_Node000001_Node000020"><a xlink:title=" ">
<path fill="none" stroke="#63b8ff" d="M1157.25,-191.62C1157.25,-183.48 1157.25,-171.39 1157.25,-161.07"/>
<polygon fill="#63b8ff" stroke="#63b8ff" points="1160.75,-161.11 1157.25,-151.11 1153.75,-161.11 1160.75,-161.11"/>
</a>
</g>
</g>
<!-- Node21 -->
<g id="Node000021" class="node">
<title>Node21</title>
<g id="a_Node000021"><a xlink:title=" ">
<polygon fill="#e0e0e0" stroke="#999999" points="1245.38,-150 1197.13,-150 1197.13,-130 1245.38,-130 1245.38,-150"/>
<text text-anchor="middle" x="1221.25" y="-136.5" font-family="Helvetica,sans-Serif" font-size="10.00">dirent.h</text>
</a>
</g>
</g>
<!-- Node1&#45;&gt;Node21 -->
<g id="edge25_Node000001_Node000021" class="edge">
<title>Node1&#45;&gt;Node21</title>
<g id="a_edge25_Node000001_Node000021"><a xlink:title=" ">
<path fill="none" stroke="#63b8ff" d="M1167.25,-191.62C1176.99,-182.5 1191.98,-168.45 1203.7,-157.46"/>
<polygon fill="#63b8ff" stroke="#63b8ff" points="1205.63,-160.51 1210.53,-151.11 1200.84,-155.4 1205.63,-160.51"/>
</a>
</g>
</g>
<!-- Node22 -->
<g id="Node000022" class="node">
<title>Node22</title>
<g id="a_Node000022"><a xlink:title=" ">
<polygon fill="#e0e0e0" stroke="#999999" points="1306.75,-150 1263.75,-150 1263.75,-130 1306.75,-130 1306.75,-150"/>
<text text-anchor="middle" x="1285.25" y="-136.5" font-family="Helvetica,sans-Serif" font-size="10.00">fcntl.h</text>
</a>
</g>
</g>
<!-- Node1&#45;&gt;Node22 -->
<g id="edge27_Node000001_Node000022" class="edge">
<title>Node1&#45;&gt;Node22</title>
<g id="a_edge27_Node000001_Node000022"><a xlink:title=" ">
<path fill="none" stroke="#63b8ff" d="M1177.74,-191.62C1197.4,-182.58 1227.92,-168.48 1254.25,-156 1254.84,-155.72 1255.44,-155.44 1256.04,-155.15"/>
<polygon fill="#63b8ff" stroke="#63b8ff" points="1257.42,-157.89 1264.93,-150.41 1254.4,-151.58 1257.42,-157.89"/>
</a>
</g>
</g>
<!-- Node23 -->
<g id="Node000023" class="node">
<title>Node23</title>
<g id="a_Node000023"><a xlink:title=" ">
<polygon fill="#e0e0e0" stroke="#999999" points="1395.25,-150 1325.25,-150 1325.25,-130 1395.25,-130 1395.25,-150"/>
<text text-anchor="middle" x="1360.25" y="-136.5" font-family="Helvetica,sans-Serif" font-size="10.00">fuse3/fuse.h</text>
</a>
</g>
</g>
<!-- Node1&#45;&gt;Node23 -->
<g id="edge28_Node000001_Node000023" class="edge">
<title>Node1&#45;&gt;Node23</title>
<g id="a_edge28_Node000001_Node000023"><a xlink:title=" ">
<path fill="none" stroke="#63b8ff" d="M1192.78,-191.52C1225.1,-182.76 1274.08,-169.15 1316.25,-156 1318.51,-155.3 1320.82,-154.56 1323.15,-153.8"/>
<polygon fill="#63b8ff" stroke="#63b8ff" points="1323.94,-156.9 1332.33,-150.43 1321.74,-150.25 1323.94,-156.9"/>
</a>
</g>
</g>
<!-- Node24 -->
<g id="Node000024" class="node">
<title>Node24</title>
<g id="a_Node000024"><a xlink:title=" ">
<polygon fill="#e0e0e0" stroke="#999999" points="1461,-150 1413.5,-150 1413.5,-130 1461,-130 1461,-150"/>
<text text-anchor="middle" x="1437.25" y="-136.5" font-family="Helvetica,sans-Serif" font-size="10.00">limits.h</text>
</a>
</g>
</g>
<!-- Node1&#45;&gt;Node24 -->
<g id="edge29_Node000001_Node000024" class="edge">
<title>Node1&#45;&gt;Node24</title>
<g id="a_edge29_Node000001_Node000024"><a xlink:title=" ">
<path fill="none" stroke="#63b8ff" d="M1219.17,-194.02C1269.76,-187.3 1342.69,-175.27 1404.25,-156 1405.75,-155.53 1407.28,-155.01 1408.8,-154.45"/>
<polygon fill="#63b8ff" stroke="#63b8ff" points="1409.79,-157.42 1417.72,-150.39 1407.14,-150.94 1409.79,-157.42"/>
</a>
</g>
</g>
<!-- Node25 -->
<g id="Node000025" class="node">
<title>Node25</title>
<g id="a_Node000025"><a xlink:title=" ">
<polygon fill="#e0e0e0" stroke="#999999" points="1549.63,-150 1478.88,-150 1478.88,-130 1549.63,-130 1549.63,-150"/>
<text text-anchor="middle" x="1514.25" y="-136.5" font-family="Helvetica,sans-Serif" font-size="10.00">linux/limits.h</text>
</a>
</g>
</g>
<!-- Node1&#45;&gt;Node25 -->
<g id="edge30_Node000001_Node000025" class="edge">
<title>Node1&#45;&gt;Node25</title>
<g id="a_edge30_Node000001_Node000025"><a xlink:title=" ">
<path fill="none" stroke="#63b8ff" d="M1219.36,-195.5C1282.98,-189.08 1384.44,-176.61 1470.25,-156 1473.1,-155.32 1476.02,-154.53 1478.94,-153.67"/>
<polygon fill="#63b8ff" stroke="#63b8ff" points="1479.88,-156.73 1488.36,-150.38 1477.77,-150.06 1479.88,-156.73"/>
</a>
</g>
</g>
<!-- Node26 -->
<g id="Node000026" class="node">
<title>Node26</title>
<g id="a_Node000026"><a xlink:title=" ">
<polygon fill="#e0e0e0" stroke="#999999" points="1627,-150 1567.5,-150 1567.5,-130 1627,-130 1627,-150"/>
<text text-anchor="middle" x="1597.25" y="-136.5" font-family="Helvetica,sans-Serif" font-size="10.00">sys/stat.h</text>
</a>
</g>
</g>
<!-- Node1&#45;&gt;Node26 -->
<g id="edge34_Node000001_Node000026" class="edge">
<title>Node1&#45;&gt;Node26</title>
<g id="a_edge34_Node000001_Node000026"><a xlink:title=" ">
<path fill="none" stroke="#63b8ff" d="M1219.25,-198.94C1298.78,-195.19 1440.52,-184.75 1558.25,-156 1560.6,-155.43 1563,-154.75 1565.39,-154"/>
<polygon fill="#63b8ff" stroke="#63b8ff" points="1566.41,-157.01 1574.7,-150.41 1564.11,-150.4 1566.41,-157.01"/>
</a>
</g>
</g>
<!-- Node27 -->
<g id="Node000027" class="node">
<title>Node27</title>
<g id="a_Node000027"><a xlink:title=" ">
<polygon fill="#e0e0e0" stroke="#999999" points="1707.13,-150 1645.38,-150 1645.38,-130 1707.13,-130 1707.13,-150"/>
<text text-anchor="middle" x="1676.25" y="-136.5" font-family="Helvetica,sans-Serif" font-size="10.00">sys/time.h</text>
</a>
</g>
</g>
<!-- Node1&#45;&gt;Node27 -->
<g id="edge35_Node000001_Node000027" class="edge">
<title>Node1&#45;&gt;Node27</title>
<g id="a_edge35_Node000001_Node000027"><a xlink:title=" ">
<path fill="none" stroke="#63b8ff" d="M1219.33,-200.39C1311.46,-198.32 1489.33,-189.82 1636.25,-156 1638.75,-155.42 1641.31,-154.73 1643.86,-153.96"/>
<polygon fill="#63b8ff" stroke="#63b8ff" points="1644.8,-157 1653.15,-150.48 1642.56,-150.37 1644.8,-157"/>
</a>
</g>
</g>
<!-- Node28 -->
<g id="Node000028" class="node">
<title>Node28</title>
<g id="a_Node000028"><a xlink:title=" ">
<polygon fill="#e0e0e0" stroke="#999999" points="1767.75,-150 1724.75,-150 1724.75,-130 1767.75,-130 1767.75,-150"/>
<text text-anchor="middle" x="1746.25" y="-136.5" font-family="Helvetica,sans-Serif" font-size="10.00">time.h</text>
</a>
</g>
</g>
<!-- Node1&#45;&gt;Node28 -->
<g id="edge37_Node000001_Node000028" class="edge">
<title>Node1&#45;&gt;Node28</title>
<g id="a_edge37_Node000001_Node000028"><a xlink:title=" ">
<path fill="none" stroke="#63b8ff" d="M1219.35,-198.98C1344.78,-194.43 1624.23,-181.67 1716.25,-156 1717.58,-155.63 1718.91,-155.2 1720.25,-154.73"/>
<polygon fill="#63b8ff" stroke="#63b8ff" points="1721.41,-157.61 1729.2,-150.44 1718.64,-151.18 1721.41,-157.61"/>
</a>
</g>
</g>
<!-- Node3 -->
<g id="Node000003" class="node">
<title>Node3</title>
<g id="a_Node000003"><a xlink:title=" ">
<polygon fill="#e0e0e0" stroke="#999999" points="593.38,-82 545.13,-82 545.13,-62 593.38,-62 593.38,-82"/>
<text text-anchor="middle" x="569.25" y="-68.5" font-family="Helvetica,sans-Serif" font-size="10.00">ctype.h</text>
</a>
</g>
</g>
<!-- Node2&#45;&gt;Node3 -->
<g id="edge2_Node000002_Node000003" class="edge">
<title>Node2&#45;&gt;Node3</title>
<g id="a_edge2_Node000002_Node000003"><a xlink:title=" ">
<path fill="none" stroke="#63b8ff" d="M594.6,-123.69C589.9,-114.3 583.84,-102.18 578.83,-92.15"/>
<polygon fill="#63b8ff" stroke="#63b8ff" points="581.51,-90.7 573.91,-83.32 575.25,-93.83 581.51,-90.7"/>
</a>
</g>
</g>
<!-- Node4 -->
<g id="Node000004" class="node">
<title>Node4</title>
<g id="a_Node000004"><a xlink:title=" ">
<polygon fill="#e0e0e0" stroke="#999999" points="661.13,-82 611.38,-82 611.38,-62 661.13,-62 661.13,-82"/>
<text text-anchor="middle" x="636.25" y="-68.5" font-family="Helvetica,sans-Serif" font-size="10.00">libgen.h</text>
</a>
</g>
</g>
<!-- Node2&#45;&gt;Node4 -->
<g id="edge3_Node000002_Node000004" class="edge">
<title>Node2&#45;&gt;Node4</title>
<g id="a_edge3_Node000002_Node000004"><a xlink:title=" ">
<path fill="none" stroke="#63b8ff" d="M610.14,-123.69C615.03,-114.2 621.35,-101.92 626.55,-91.83"/>
<polygon fill="#63b8ff" stroke="#63b8ff" points="629.99,-93.81 631.45,-83.32 623.76,-90.6 629.99,-93.81"/>
</a>
</g>
</g>
<!-- Node2&#45;&gt;Node5 -->
<g id="edge4_Node000002_Node000005" class="edge">
<title>Node2&#45;&gt;Node5</title>
<g id="a_edge4_Node000002_Node000005"><a xlink:title=" ">
<path fill="none" stroke="#63b8ff" d="M574.53,-123.66C561.09,-114.88 545.82,-102.68 536.25,-88 525,-70.73 520.41,-47.34 518.54,-30.88"/>
<polygon fill="#63b8ff" stroke="#63b8ff" points="521.97,-30.96 517.6,-21.31 515,-31.58 521.97,-30.96"/>
</a>
</g>
</g>
<!-- Node6 -->
<g id="Node000006" class="node">
<title>Node6</title>
<g id="a_Node000006"><a xlink:title=" ">
<polygon fill="#e0e0e0" stroke="#999999" points="817,-20 769.5,-20 769.5,0 817,0 817,-20"/>
<text text-anchor="middle" x="793.25" y="-6.5" font-family="Helvetica,sans-Serif" font-size="10.00">stdlib.h</text>
</a>
</g>
</g>
<!-- Node2&#45;&gt;Node6 -->
<g id="edge5_Node000002_Node000006" class="edge">
<title>Node2&#45;&gt;Node6</title>
<g id="a_edge5_Node000002_Node000006"><a xlink:title=" ">
<path fill="none" stroke="#63b8ff" d="M654.55,-132.46C705.92,-124.83 779.03,-110.34 796.25,-88 808.67,-71.9 805.29,-47.79 800.49,-30.85"/>
<polygon fill="#63b8ff" stroke="#63b8ff" points="803.53,-29.88 797.12,-21.45 796.87,-32.04 803.53,-29.88"/>
</a>
</g>
</g>
<!-- Node2&#45;&gt;Node7 -->
<g id="edge6_Node000002_Node000007" class="edge">
<title>Node2&#45;&gt;Node7</title>
<g id="a_edge6_Node000002_Node000007"><a xlink:title=" ">
<path fill="none" stroke="#63b8ff" d="M631.16,-123.62C644.93,-114.9 660.48,-102.77 670.25,-88 681.63,-70.81 686.2,-47.4 688.03,-30.92"/>
<polygon fill="#63b8ff" stroke="#63b8ff" points="691.57,-31.6 688.94,-21.33 684.6,-31 691.57,-31.6"/>
</a>
</g>
</g>
<!-- Node8 -->
<g id="Node000008" class="node">
<title>Node8</title>
<g id="a_Node000008"><a xlink:title=" ">
<polygon fill="#e0e0e0" stroke="#999999" points="787.25,-82 717.25,-82 717.25,-62 787.25,-62 787.25,-82"/>
<text text-anchor="middle" x="752.25" y="-68.5" font-family="Helvetica,sans-Serif" font-size="10.00">sys/mman.h</text>
</a>
</g>
</g>
<!-- Node2&#45;&gt;Node8 -->
<g id="edge7_Node000002_Node000008" class="edge">
<title>Node2&#45;&gt;Node8</title>
<g id="a_edge7_Node000002_Node000008"><a xlink:title=" ">
<path fill="none" stroke="#63b8ff" d="M637.42,-123.53C662.73,-112.39 696.56,-97.51 720.94,-86.78"/>
<polygon fill="#63b8ff" stroke="#63b8ff" points="722.01,-89.69 729.75,-82.46 719.19,-83.28 722.01,-89.69"/>
</a>
</g>
</g>
<!-- Node2&#45;&gt;Node9 -->
<g id="edge8_Node000002_Node000009" class="edge">
<title>Node2&#45;&gt;Node9</title>
<g id="a_edge8_Node000002_Node000009"><a xlink:title=" ">
<path fill="none" stroke="#63b8ff" d="M654.81,-137.75C701.14,-134.19 768.38,-122.78 815.25,-88 834.53,-73.69 846.96,-48.47 853.77,-30.81"/>
<polygon fill="#63b8ff" stroke="#63b8ff" points="857.39,-32.07 857.45,-21.48 850.8,-29.73 857.39,-32.07"/>
</a>
</g>
</g>
<!-- Node10 -->
<g id="Node000010" class="node">
<title>Node10</title>
<g id="a_Node000010"><a xlink:title=" ">
<polygon fill="#e0e0e0" stroke="#999999" points="102.63,-82 25.88,-82 25.88,-62 102.63,-62 102.63,-82"/>
<text text-anchor="middle" x="64.25" y="-68.5" font-family="Helvetica,sans-Serif" font-size="10.00">openssl/aes.h</text>
</a>
</g>
</g>
<!-- Node2&#45;&gt;Node10 -->
<g id="edge9_Node000002_Node000010" class="edge">
<title>Node2&#45;&gt;Node10</title>
<g id="a_edge9_Node000002_Node000010"><a xlink:title=" ">
<path fill="none" stroke="#63b8ff" d="M549.75,-137.08C459.33,-133 268.75,-120.95 111.25,-88 107.82,-87.28 104.27,-86.41 100.75,-85.45"/>
<polygon fill="#63b8ff" stroke="#63b8ff" points="101.93,-81.85 91.35,-82.38 99.95,-88.56 101.93,-81.85"/>
</a>
</g>
</g>
<!-- Node11 -->
<g id="Node000011" class="node">
<title>Node11</title>
<g id="a_Node000011"><a xlink:title=" ">
<polygon fill="#e0e0e0" stroke="#999999" points="194.13,-82 120.38,-82 120.38,-62 194.13,-62 194.13,-82"/>
<text text-anchor="middle" x="157.25" y="-68.5" font-family="Helvetica,sans-Serif" font-size="10.00">openssl/bio.h</text>
</a>
</g>
</g>
<!-- Node2&#45;&gt;Node11 -->
<g id="edge10_Node000002_Node000011" class="edge">
<title>Node2&#45;&gt;Node11</title>
<g id="a_edge10_Node000002_Node000011"><a xlink:title=" ">
<path fill="none" stroke="#63b8ff" d="M549.59,-135.57C472.54,-129.82 324.94,-115.99 202.25,-88 199.24,-87.31 196.15,-86.51 193.06,-85.63"/>
<polygon fill="#63b8ff" stroke="#63b8ff" points="194.3,-82.04 183.71,-82.44 192.24,-88.73 194.3,-82.04"/>
</a>
</g>
</g>
<!-- Node12 -->
<g id="Node000012" class="node">
<title>Node12</title>
<g id="a_Node000012"><a xlink:title=" ">
<polygon fill="#e0e0e0" stroke="#999999" points="296.75,-82 211.75,-82 211.75,-62 296.75,-62 296.75,-82"/>
<text text-anchor="middle" x="254.25" y="-68.5" font-family="Helvetica,sans-Serif" font-size="10.00">openssl/buffer.h</text>
</a>
</g>
</g>
<!-- Node2&#45;&gt;Node12 -->
<g id="edge11_Node000002_Node000012" class="edge">
<title>Node2&#45;&gt;Node12</title>
<g id="a_edge11_Node000002_Node000012"><a xlink:title=" ">
<path fill="none" stroke="#63b8ff" d="M549.51,-131.71C490.03,-123.07 390.62,-107.37 306.25,-88 302.66,-87.18 298.96,-86.25 295.25,-85.28"/>
<polygon fill="#63b8ff" stroke="#63b8ff" points="296.47,-81.71 285.9,-82.45 294.62,-88.46 296.47,-81.71"/>
</a>
</g>
</g>
<!-- Node13 -->
<g id="Node000013" class="node">
<title>Node13</title>
<g id="a_Node000013"><a xlink:title=" ">
<polygon fill="#e0e0e0" stroke="#999999" points="391.63,-82 314.88,-82 314.88,-62 391.63,-62 391.63,-82"/>
<text text-anchor="middle" x="353.25" y="-68.5" font-family="Helvetica,sans-Serif" font-size="10.00">openssl/evp.h</text>
</a>
</g>
</g>
<!-- Node2&#45;&gt;Node13 -->
<g id="edge12_Node000002_Node000013" class="edge">
<title>Node2&#45;&gt;Node13</title>
<g id="a_edge12_Node000002_Node000013"><a xlink:title=" ">
<path fill="none" stroke="#63b8ff" d="M549.7,-126.67C508.79,-116.85 450.68,-102.4 400.25,-88 397.66,-87.26 394.99,-86.47 392.31,-85.67"/>
<polygon fill="#63b8ff" stroke="#63b8ff" points="393.59,-82.09 383,-82.48 391.52,-88.78 393.59,-82.09"/>
</a>
</g>
</g>
<!-- Node14 -->
<g id="Node000014" class="node">
<title>Node14</title>
<g id="a_Node000014"><a xlink:title=" ">
<polygon fill="#e0e0e0" stroke="#999999" points="489.13,-82 409.38,-82 409.38,-62 489.13,-62 489.13,-82"/>
<text text-anchor="middle" x="449.25" y="-68.5" font-family="Helvetica,sans-Serif" font-size="10.00">openssl/rand.h</text>
</a>
</g>
</g>
<!-- Node2&#45;&gt;Node14 -->
<g id="edge13_Node000002_Node000014" class="edge">
<title>Node2&#45;&gt;Node14</title>
<g id="a_edge13_Node000002_Node000014"><a xlink:title=" ">
<path fill="none" stroke="#63b8ff" d="M566.38,-123.53C540.57,-112.39 506.06,-97.51 481.2,-86.78"/>
<polygon fill="#63b8ff" stroke="#63b8ff" points="482.75,-83.21 472.18,-82.46 479.98,-89.63 482.75,-83.21"/>
</a>
</g>
</g>
<!-- Node2&#45;&gt;Node15 -->
<g id="edge14_Node000002_Node000015" class="edge">
<title>Node2&#45;&gt;Node15</title>
<g id="a_edge14_Node000002_Node000015"><a xlink:title=" ">
<path fill="none" stroke="#63b8ff" d="M654.78,-130.04C708.41,-120.61 793.97,-104.84 867.25,-88 868.22,-87.78 869.19,-87.55 870.17,-87.32"/>
<polygon fill="#63b8ff" stroke="#63b8ff" points="870.95,-90.49 879.83,-84.7 869.29,-83.69 870.95,-90.49"/>
</a>
</g>
</g>
<!-- Node15&#45;&gt;Node5 -->
<g id="edge17_Node000015_Node000005" class="edge">
<title>Node15&#45;&gt;Node5</title>
<g id="a_edge17_Node000015_Node000005"><a xlink:title=" ">
<path fill="none" stroke="#63b8ff" d="M880.95,-64.75C799.82,-52.76 623.87,-26.76 550.47,-15.91"/>
<polygon fill="#63b8ff" stroke="#63b8ff" points="551.4,-12.36 541,-14.36 550.38,-19.29 551.4,-12.36"/>
</a>
</g>
</g>
<!-- Node15&#45;&gt;Node6 -->
<g id="edge18_Node000015_Node000006" class="edge">
<title>Node15&#45;&gt;Node6</title>
<g id="a_edge18_Node000015_Node000006"><a xlink:title=" ">
<path fill="none" stroke="#63b8ff" d="M889.78,-55.55C869.27,-46.09 843.25,-34.08 823.4,-24.91"/>
<polygon fill="#63b8ff" stroke="#63b8ff" points="825.18,-21.42 814.64,-20.41 822.25,-27.78 825.18,-21.42"/>
</a>
</g>
</g>
<!-- Node15&#45;&gt;Node7 -->
<g id="edge19_Node000015_Node000007" class="edge">
<title>Node15&#45;&gt;Node7</title>
<g id="a_edge19_Node000015_Node000007"><a xlink:title=" ">
<path fill="none" stroke="#63b8ff" d="M880.88,-60.13C836.02,-48.63 766.06,-30.69 724.23,-19.97"/>
<polygon fill="#63b8ff" stroke="#63b8ff" points="725.29,-16.37 714.73,-17.28 723.55,-23.15 725.29,-16.37"/>
</a>
</g>
</g>
<!-- Node15&#45;&gt;Node9 -->
<g id="edge21_Node000015_Node000009" class="edge">
<title>Node15&#45;&gt;Node9</title>
<g id="a_edge21_Node000015_Node000009"><a xlink:title=" ">
<path fill="none" stroke="#63b8ff" d="M907.03,-55.55C898.1,-47.04 887,-36.48 877.86,-27.77"/>
<polygon fill="#63b8ff" stroke="#63b8ff" points="880.79,-25.77 871.13,-21.41 875.96,-30.84 880.79,-25.77"/>
</a>
</g>
</g>
<!-- Node15&#45;&gt;Node16 -->
<g id="edge15_Node000015_Node000016" class="edge">
<title>Node15&#45;&gt;Node16</title>
<g id="a_edge15_Node000015_Node000016"><a xlink:title=" ">
<path fill="none" stroke="#63b8ff" d="M943.08,-55.55C954.33,-46.78 968.39,-35.83 979.75,-26.97"/>
<polygon fill="#63b8ff" stroke="#63b8ff" points="981.44,-29.32 987.18,-20.41 977.14,-23.79 981.44,-29.32"/>
</a>
</g>
</g>
<!-- Node15&#45;&gt;Node17 -->
<g id="edge16_Node000015_Node000017" class="edge">
<title>Node15&#45;&gt;Node17</title>
<g id="a_edge16_Node000015_Node000017"><a xlink:title=" ">
<path fill="none" stroke="#63b8ff" d="M959.05,-55.55C981.31,-45.94 1009.65,-33.71 1031,-24.49"/>
<polygon fill="#63b8ff" stroke="#63b8ff" points="1032.07,-27.41 1039.87,-20.23 1029.3,-20.98 1032.07,-27.41"/>
</a>
</g>
</g>
<!-- Node15&#45;&gt;Node18 -->
<g id="edge20_Node000015_Node000018" class="edge">
<title>Node15&#45;&gt;Node18</title>
<g id="a_edge20_Node000015_Node000018"><a xlink:title=" ">
<path fill="none" stroke="#63b8ff" d="M965.8,-58.79C1002.19,-48.34 1054.27,-33.39 1090.45,-23"/>
<polygon fill="#63b8ff" stroke="#63b8ff" points="1091.02,-26.19 1099.66,-20.07 1089.09,-19.46 1091.02,-26.19"/>
</a>
</g>
</g>
<!-- Node19 -->
<g id="Node000019" class="node">
<title>Node19</title>
<g id="a_Node000019"><a xlink:title=" ">
<polygon fill="#e0e0e0" stroke="#999999" points="959.13,-20 903.38,-20 903.38,0 959.13,0 959.13,-20"/>
<text text-anchor="middle" x="931.25" y="-6.5" font-family="Helvetica,sans-Serif" font-size="10.00">stdbool.h</text>
</a>
</g>
</g>
<!-- Node15&#45;&gt;Node19 -->
<g id="edge22_Node000015_Node000019" class="edge">
<title>Node15&#45;&gt;Node19</title>
<g id="a_edge22_Node000015_Node000019"><a xlink:title=" ">
<path fill="none" stroke="#63b8ff" d="M925.31,-55.55C926.31,-48.08 927.52,-39.03 928.58,-31.04"/>
<polygon fill="#63b8ff" stroke="#63b8ff" points="932.15,-31.78 930,-21.41 925.21,-30.86 932.15,-31.78"/>
</a>
</g>
</g>
</g>
</svg>
