<?xml version="1.0" encoding="UTF-8" standalone="no"?>
<!DOCTYPE svg PUBLIC "-//W3C//DTD SVG 1.1//EN"
 "http://www.w3.org/Graphics/SVG/1.1/DTD/svg11.dtd">
<!-- Generated by graphviz version 8.1.0 (20230707.0739)
 -->
<!-- Title: get_source_dest Pages: 1 -->
<svg width="406pt" height="66pt"
 viewBox="0.00 0.00 405.75 66.00" xmlns="http://www.w3.org/2000/svg" xmlns:xlink="http://www.w3.org/1999/xlink">

<svg id="main" version="1.1" xmlns="http://www.w3.org/2000/svg" xmlns:xlink="http://www.w3.org/1999/xlink" xml:space="preserve" onload="init(evt)">
<style type="text/css"><![CDATA[
.node, .edge {opacity: 0.7;}
.node.selected, .edge.selected {opacity: 1;}
.edge:hover path { stroke: red; }
.edge:hover polygon { stroke: red; fill: red; }
]]></style>
<script type="application/ecmascript" xlink:href="svg.min.js"/>
<svg id="graph" class="graph">
<g id="graph0" class="graph" transform="scale(1 1) rotate(0) translate(4 62)">
<title>get_source_dest</title>
<!-- Node1 -->
<g id="Node000001" class="node">
<title>Node1</title>
<g id="a_Node000001"><a xlink:title=" ">
<polygon fill="#999999" stroke="#666666" points="397.75,-39 309.75,-39 309.75,-19 397.75,-19 397.75,-39"/>
<text text-anchor="middle" x="353.75" y="-25.5" font-family="Helvetica,sans-Serif" font-size="10.00">get_source_dest</text>
</a>
</g>
</g>
<!-- Node2 -->
<g id="Node000002" class="node">
<title>Node2</title>
<g id="a_Node000002"><a xlink:href="tcfs__helper__tools_8c.html#afaed41fa1136b829eb00a7de26a3739b" target="_top" xlink:title=" ">
<polygon fill="white" stroke="#666666" points="273.75,-58 167.75,-58 167.75,-38 273.75,-38 273.75,-58"/>
<text text-anchor="middle" x="220.75" y="-44.5" font-family="Helvetica,sans-Serif" font-size="10.00">handle_folder_mount</text>
</a>
</g>
</g>
<!-- Node1&#45;&gt;Node2 -->
<g id="edge1_Node000001_Node000002" class="edge">
<title>Node1&#45;&gt;Node2</title>
<g id="a_edge1_Node000001_Node000002"><a xlink:title=" ">
<path fill="none" stroke="#63b8ff" d="M298.63,-36.85C290.51,-38.03 282.16,-39.24 274.08,-40.41"/>
<polygon fill="#63b8ff" stroke="#63b8ff" points="299.1,-40.17 308.49,-35.27 298.09,-33.25 299.1,-40.17"/>
</a>
</g>
</g>
<!-- Node5 -->
<g id="Node000005" class="node">
<title>Node5</title>
<g id="a_Node000005"><a xlink:href="tcfs__helper__tools_8c.html#a816c2bcaa3d059abc79cb9b021957dbf" target="_top" xlink:title=" ">
<polygon fill="white" stroke="#666666" points="271.88,-20 169.62,-20 169.62,0 271.88,0 271.88,-20"/>
<text text-anchor="middle" x="220.75" y="-6.5" font-family="Helvetica,sans-Serif" font-size="10.00">handle_local_mount</text>
</a>
</g>
</g>
<!-- Node1&#45;&gt;Node5 -->
<g id="edge4_Node000001_Node000005" class="edge">
<title>Node1&#45;&gt;Node5</title>
<g id="a_edge4_Node000001_Node000005"><a xlink:title=" ">
<path fill="none" stroke="#63b8ff" d="M298.63,-21.15C289.89,-19.88 280.88,-18.58 272.23,-17.32"/>
<polygon fill="#63b8ff" stroke="#63b8ff" points="298.09,-24.75 308.49,-22.73 299.1,-17.83 298.09,-24.75"/>
</a>
</g>
</g>
<!-- Node3 -->
<g id="Node000003" class="node">
<title>Node3</title>
<g id="a_Node000003"><a xlink:href="tcfs__helper__tools_8c.html#a769edcf066efb97f5ae3a81e3507a793" target="_top" xlink:title="Execute the mount of either a Network FS (for ex NFS), Local FS (for ex a block device),...">
<polygon fill="white" stroke="#666666" points="131.75,-39 73,-39 73,-19 131.75,-19 131.75,-39"/>
<text text-anchor="middle" x="102.38" y="-25.5" font-family="Helvetica,sans-Serif" font-size="10.00">do_mount</text>
</a>
</g>
</g>
<!-- Node2&#45;&gt;Node3 -->
<g id="edge2_Node000002_Node000003" class="edge">
<title>Node2&#45;&gt;Node3</title>
<g id="a_edge2_Node000002_Node000003"><a xlink:title=" ">
<path fill="none" stroke="#63b8ff" d="M156.57,-37.68C148.08,-36.3 139.73,-34.93 132.25,-33.71"/>
<polygon fill="#63b8ff" stroke="#63b8ff" points="155.92,-41.29 166.35,-39.44 157.04,-34.38 155.92,-41.29"/>
</a>
</g>
</g>
<!-- Node4 -->
<g id="Node000004" class="node">
<title>Node4</title>
<g id="a_Node000004"><a xlink:href="user__tcfs_8c.html#a0ddf1224851353fc92bfbff6f499fa97" target="_top" xlink:title="main function for the TCFS user helper program.">
<polygon fill="white" stroke="#666666" points="37,-39 0,-39 0,-19 37,-19 37,-39"/>
<text text-anchor="middle" x="18.5" y="-25.5" font-family="Helvetica,sans-Serif" font-size="10.00">main</text>
</a>
</g>
</g>
<!-- Node3&#45;&gt;Node4 -->
<g id="edge3_Node000003_Node000004" class="edge">
<title>Node3&#45;&gt;Node4</title>
<g id="a_edge3_Node000003_Node000004"><a xlink:title=" ">
<path fill="none" stroke="#63b8ff" d="M61.94,-29C53.29,-29 44.55,-29 37.27,-29"/>
<polygon fill="#63b8ff" stroke="#63b8ff" points="61.74,-32.5 71.74,-29 61.74,-25.5 61.74,-32.5"/>
</a>
</g>
</g>
<!-- Node5&#45;&gt;Node3 -->
<g id="edge5_Node000005_Node000003" class="edge">
<title>Node5&#45;&gt;Node3</title>
<g id="a_edge5_Node000005_Node000003"><a xlink:title=" ">
<path fill="none" stroke="#63b8ff" d="M158.54,-19.99C149.29,-21.5 140.14,-23 132.04,-24.32"/>
<polygon fill="#63b8ff" stroke="#63b8ff" points="159.08,-23.29 168.38,-18.22 157.95,-16.38 159.08,-23.29"/>
</a>
</g>
</g>
</g>
</svg>
</svg>

<style type='text/css'>
<![CDATA[
[data-mouse-over-selected='false'] { opacity: 0.7; }
[data-mouse-over-selected='true']  { opacity: 1.0; }
]]>
</style>
<script type="application/ecmascript"><![CDATA[
document.addEventListener('DOMContentLoaded', (event) => {
  highlightEdges();
  highlightAdjacentNodes();
});
]]></script>
</svg>
