<?xml version="1.0" encoding="UTF-8" standalone="no"?>
<!DOCTYPE svg PUBLIC "-//W3C//DTD SVG 1.1//EN"
 "http://www.w3.org/Graphics/SVG/1.1/DTD/svg11.dtd">
<!-- Generated by graphviz version 8.1.0 (20230707.0739)
 -->
<!-- Title: tcfs_symlink Pages: 1 -->
<svg width="645pt" height="180pt"
 viewBox="0.00 0.00 644.50 180.00" xmlns="http://www.w3.org/2000/svg" xmlns:xlink="http://www.w3.org/1999/xlink">
<g id="graph0" class="graph" transform="scale(1 1) rotate(0) translate(4 176)">
<title>tcfs_symlink</title>
<!-- Node1 -->
<g id="Node000001" class="node">
<title>Node1</title>
<g id="a_Node000001"><a xlink:title="Creates a symbolic link.">
<polygon fill="#999999" stroke="#666666" points="71.5,-58 0,-58 0,-38 71.5,-38 71.5,-58"/>
<text text-anchor="middle" x="35.75" y="-44.5" font-family="Helvetica,sans-Serif" font-size="10.00">tcfs_symlink</text>
</a>
</g>
</g>
<!-- Node2 -->
<g id="Node000002" class="node">
<title>Node2</title>
<g id="a_Node000002"><a xlink:href="crypt-utils_8c.html#a5c45db4d3db3ef274fb6356e1a95e644" target="_top" xlink:title="Encrypts the given filename with its path using a specified key.">
<polygon fill="white" stroke="#666666" points="242.75,-96 107.5,-96 107.5,-76 242.75,-76 242.75,-96"/>
<text text-anchor="middle" x="175.12" y="-82.5" font-family="Helvetica,sans-Serif" font-size="10.00">encrypt_path_and_filename</text>
</a>
</g>
</g>
<!-- Node1&#45;&gt;Node2 -->
<g id="edge1_Node000001_Node000002" class="edge">
<title>Node1&#45;&gt;Node2</title>
<g id="a_edge1_Node000001_Node000002"><a xlink:title=" ">
<path fill="none" stroke="#63b8ff" d="M71.77,-57.69C88.17,-62.22 107.98,-67.7 125.78,-72.63"/>
<polygon fill="#63b8ff" stroke="#63b8ff" points="124.7,-76.24 135.27,-75.53 126.57,-69.49 124.7,-76.24"/>
</a>
</g>
</g>
<!-- Node6 -->
<g id="Node000006" class="node">
<title>Node6</title>
<g id="a_Node000006"><a xlink:href="tcfs__utils_8c.html#a62b66e43a7ad8b8cf9fcad67f71a7a8b" target="_top" xlink:title="Logs a formatted message to a file with timestamp.">
<polygon fill="white" stroke="#666666" points="636.5,-96 568,-96 568,-76 636.5,-76 636.5,-96"/>
<text text-anchor="middle" x="602.25" y="-82.5" font-family="Helvetica,sans-Serif" font-size="10.00">logMessage</text>
</a>
</g>
</g>
<!-- Node1&#45;&gt;Node6 -->
<g id="edge7_Node000001_Node000006" class="edge">
<title>Node1&#45;&gt;Node6</title>
<g id="a_edge7_Node000001_Node000006"><a xlink:title=" ">
<path fill="none" stroke="#63b8ff" d="M71.64,-50.35C169.72,-56.95 447.87,-75.67 556.76,-83.01"/>
<polygon fill="#63b8ff" stroke="#63b8ff" points="556.46,-86.56 566.67,-83.74 556.93,-79.58 556.46,-86.56"/>
</a>
</g>
</g>
<!-- Node7 -->
<g id="Node000007" class="node">
<title>Node7</title>
<g id="a_Node000007"><a xlink:href="tcfs__utils_8c.html#ac4ff59963f4a122c9f802c0c2bf2abc8" target="_top" xlink:title="Prefix the realpath to the fuse path.">
<polygon fill="white" stroke="#666666" points="207.12,-20 143.12,-20 143.12,0 207.12,0 207.12,-20"/>
<text text-anchor="middle" x="175.12" y="-6.5" font-family="Helvetica,sans-Serif" font-size="10.00">prefix_path</text>
</a>
</g>
</g>
<!-- Node1&#45;&gt;Node7 -->
<g id="edge8_Node000001_Node000007" class="edge">
<title>Node1&#45;&gt;Node7</title>
<g id="a_edge8_Node000001_Node000007"><a xlink:title=" ">
<path fill="none" stroke="#63b8ff" d="M71.77,-38.31C90.28,-33.19 113.13,-26.87 132.54,-21.5"/>
<polygon fill="#63b8ff" stroke="#63b8ff" points="133.21,-24.67 141.92,-18.63 131.35,-17.93 133.21,-24.67"/>
</a>
</g>
</g>
<!-- Node3 -->
<g id="Node000003" class="node">
<title>Node3</title>
<g id="a_Node000003"><a xlink:href="crypt-utils_8c.html#aa4a7facde8c6f63a7225c07e92232b2e" target="_top" xlink:title=" ">
<polygon fill="white" stroke="#666666" points="418.5,-134 278.75,-134 278.75,-114 418.5,-114 418.5,-134"/>
<text text-anchor="middle" x="348.62" y="-120.5" font-family="Helvetica,sans-Serif" font-size="10.00">encrypt_file_name_with_hex</text>
</a>
</g>
</g>
<!-- Node2&#45;&gt;Node3 -->
<g id="edge2_Node000002_Node000003" class="edge">
<title>Node2&#45;&gt;Node3</title>
<g id="a_edge2_Node000002_Node000003"><a xlink:title=" ">
<path fill="none" stroke="#63b8ff" d="M223.44,-96.48C243.97,-101.03 268.2,-106.4 289.78,-111.18"/>
<polygon fill="#63b8ff" stroke="#63b8ff" points="288.94,-114.8 299.46,-113.55 290.46,-107.97 288.94,-114.8"/>
</a>
</g>
</g>
<!-- Node2&#45;&gt;Node6 -->
<g id="edge6_Node000002_Node000006" class="edge">
<title>Node2&#45;&gt;Node6</title>
<g id="a_edge6_Node000002_Node000006"><a xlink:title=" ">
<path fill="none" stroke="#63b8ff" d="M243.02,-86C330.65,-86 481.92,-86 556.72,-86"/>
<polygon fill="#63b8ff" stroke="#63b8ff" points="556.62,-89.5 566.62,-86 556.62,-82.5 556.62,-89.5"/>
</a>
</g>
</g>
<!-- Node4 -->
<g id="Node000004" class="node">
<title>Node4</title>
<g id="a_Node000004"><a xlink:href="crypt-utils_8c.html#aa926098a8843cf0ab6bd7eb8b3bbd2e6" target="_top" xlink:title="Encrypt the *plaintext string using a AES 256 key.">
<polygon fill="white" stroke="#666666" points="532,-172 454.5,-172 454.5,-152 532,-152 532,-172"/>
<text text-anchor="middle" x="493.25" y="-158.5" font-family="Helvetica,sans-Serif" font-size="10.00">encrypt_string</text>
</a>
</g>
</g>
<!-- Node3&#45;&gt;Node4 -->
<g id="edge3_Node000003_Node000004" class="edge">
<title>Node3&#45;&gt;Node4</title>
<g id="a_edge3_Node000003_Node000004"><a xlink:title=" ">
<path fill="none" stroke="#63b8ff" d="M388.98,-134.48C405.85,-138.98 425.74,-144.28 443.53,-149.02"/>
<polygon fill="#63b8ff" stroke="#63b8ff" points="442.45,-152.62 453.01,-151.81 444.25,-145.86 442.45,-152.62"/>
</a>
</g>
</g>
<!-- Node5 -->
<g id="Node000005" class="node">
<title>Node5</title>
<g id="a_Node000005"><a xlink:href="tcfs__utils_8c.html#a819d57d5c053a25772508a943d1bcc48" target="_top" xlink:title="Convert a string to its hexadecimal representation.">
<polygon fill="white" stroke="#666666" points="530.5,-134 456,-134 456,-114 530.5,-114 530.5,-134"/>
<text text-anchor="middle" x="493.25" y="-120.5" font-family="Helvetica,sans-Serif" font-size="10.00">string_to_hex</text>
</a>
</g>
</g>
<!-- Node3&#45;&gt;Node5 -->
<g id="edge4_Node000003_Node000005" class="edge">
<title>Node3&#45;&gt;Node5</title>
<g id="a_edge4_Node000003_Node000005"><a xlink:title=" ">
<path fill="none" stroke="#63b8ff" d="M418.85,-124C427.73,-124 436.66,-124 445.07,-124"/>
<polygon fill="#63b8ff" stroke="#63b8ff" points="444.8,-127.5 454.8,-124 444.8,-120.5 444.8,-127.5"/>
</a>
</g>
</g>
<!-- Node5&#45;&gt;Node6 -->
<g id="edge5_Node000005_Node000006" class="edge">
<title>Node5&#45;&gt;Node6</title>
<g id="a_edge5_Node000005_Node000006"><a xlink:title=" ">
<path fill="none" stroke="#63b8ff" d="M523.77,-113.52C535.47,-109.36 549.09,-104.52 561.62,-100.07"/>
<polygon fill="#63b8ff" stroke="#63b8ff" points="562.57,-103.09 570.82,-96.45 560.23,-96.5 562.57,-103.09"/>
</a>
</g>
</g>
</g>
</svg>
