<?xml version="1.0" encoding="UTF-8" standalone="no"?>
<!DOCTYPE svg PUBLIC "-//W3C//DTD SVG 1.1//EN"
 "http://www.w3.org/Graphics/SVG/1.1/DTD/svg11.dtd">
<!-- Generated by graphviz version 8.1.0 (20230707.0739)
 -->
<!-- Title: tcfs_readdir Pages: 1 -->
<svg width="577pt" height="214pt"
 viewBox="0.00 0.00 577.00 213.79" xmlns="http://www.w3.org/2000/svg" xmlns:xlink="http://www.w3.org/1999/xlink">
<g id="graph0" class="graph" transform="scale(1 1) rotate(0) translate(4 209.79)">
<title>tcfs_readdir</title>
<!-- Node1 -->
<g id="Node000001" class="node">
<title>Node1</title>
<g id="a_Node000001"><a xlink:title="Reads a directory.">
<polygon fill="#999999" stroke="#666666" points="67,-113.53 0,-113.53 0,-93.53 67,-93.53 67,-113.53"/>
<text text-anchor="middle" x="33.5" y="-100.03" font-family="Helvetica,sans-Serif" font-size="10.00">tcfs_readdir</text>
</a>
</g>
</g>
<!-- Node2 -->
<g id="Node000002" class="node">
<title>Node2</title>
<g id="a_Node000002"><a xlink:href="crypt-utils_8c.html#a3b003481e5c188ac1d6f63e09e6f3a34" target="_top" xlink:title=" ">
<polygon fill="white" stroke="#666666" points="351,-151.53 211.25,-151.53 211.25,-131.53 351,-131.53 351,-151.53"/>
<text text-anchor="middle" x="281.12" y="-138.03" font-family="Helvetica,sans-Serif" font-size="10.00">decrypt_file_name_with_hex</text>
</a>
</g>
</g>
<!-- Node1&#45;&gt;Node2 -->
<g id="edge1_Node000001_Node000002" class="edge">
<title>Node1&#45;&gt;Node2</title>
<g id="a_edge1_Node000001_Node000002"><a xlink:title=" ">
<path fill="none" stroke="#63b8ff" d="M67.34,-113.81C78.56,-117.01 91.24,-120.28 103,-122.53 134.52,-128.55 169.59,-132.81 200.15,-135.75"/>
<polygon fill="#63b8ff" stroke="#63b8ff" points="199.48,-139.29 209.76,-136.73 200.13,-132.32 199.48,-139.29"/>
</a>
</g>
</g>
<!-- Node4 -->
<g id="Node000004" class="node">
<title>Node4</title>
<g id="a_Node000004"><a xlink:href="tcfs__utils_8c.html#a62b66e43a7ad8b8cf9fcad67f71a7a8b" target="_top" xlink:title="Logs a formatted message to a file with timestamp.">
<polygon fill="white" stroke="#666666" points="569,-132.53 500.5,-132.53 500.5,-112.53 569,-112.53 569,-132.53"/>
<text text-anchor="middle" x="534.75" y="-119.03" font-family="Helvetica,sans-Serif" font-size="10.00">logMessage</text>
</a>
</g>
</g>
<!-- Node1&#45;&gt;Node4 -->
<g id="edge15_Node000001_Node000004" class="edge">
<title>Node1&#45;&gt;Node4</title>
<g id="a_edge15_Node000001_Node000004"><a xlink:title=" ">
<path fill="none" stroke="#63b8ff" d="M49.89,-113.88C63.36,-122.49 83.73,-134.44 103,-141.53 223.83,-185.95 258.89,-185.8 387,-198.53 421.28,-201.93 432.99,-212.44 464.5,-198.53 490.4,-187.09 510.79,-160.64 522.56,-142.18"/>
<polygon fill="#63b8ff" stroke="#63b8ff" points="526,-144.26 528.19,-133.89 520.01,-140.63 526,-144.26"/>
</a>
</g>
</g>
<!-- Node6 -->
<g id="Node000006" class="node">
<title>Node6</title>
<g id="a_Node000006"><a xlink:href="crypt-utils_8c.html#a1899c23a523d11ed1cb5601eabdb023d" target="_top" xlink:title="Decrypts each part of the given encrypted path using a specified key.">
<polygon fill="white" stroke="#666666" points="175.25,-113.53 103,-113.53 103,-93.53 175.25,-93.53 175.25,-113.53"/>
<text text-anchor="middle" x="139.12" y="-100.03" font-family="Helvetica,sans-Serif" font-size="10.00">decrypt_path</text>
</a>
</g>
</g>
<!-- Node1&#45;&gt;Node6 -->
<g id="edge6_Node000001_Node000006" class="edge">
<title>Node1&#45;&gt;Node6</title>
<g id="a_edge6_Node000001_Node000006"><a xlink:title=" ">
<path fill="none" stroke="#63b8ff" d="M67.29,-103.53C75.12,-103.53 83.63,-103.53 91.94,-103.53"/>
<polygon fill="#63b8ff" stroke="#63b8ff" points="91.68,-107.03 101.68,-103.53 91.68,-100.03 91.68,-107.03"/>
</a>
</g>
</g>
<!-- Node7 -->
<g id="Node000007" class="node">
<title>Node7</title>
<g id="a_Node000007"><a xlink:href="crypt-utils_8c.html#ad9b10366ade9f2129ec2613fdc76df80" target="_top" xlink:title="Encrypts each part of the given path using a specified key.">
<polygon fill="white" stroke="#666666" points="175.25,-75.53 103,-75.53 103,-55.53 175.25,-55.53 175.25,-75.53"/>
<text text-anchor="middle" x="139.12" y="-62.03" font-family="Helvetica,sans-Serif" font-size="10.00">encrypt_path</text>
</a>
</g>
</g>
<!-- Node1&#45;&gt;Node7 -->
<g id="edge9_Node000001_Node000007" class="edge">
<title>Node1&#45;&gt;Node7</title>
<g id="a_edge9_Node000001_Node000007"><a xlink:title=" ">
<path fill="none" stroke="#63b8ff" d="M63.09,-93.04C74.3,-88.93 87.35,-84.15 99.38,-79.73"/>
<polygon fill="#63b8ff" stroke="#63b8ff" points="100.44,-82.7 108.63,-75.98 98.03,-76.13 100.44,-82.7"/>
</a>
</g>
</g>
<!-- Node11 -->
<g id="Node000011" class="node">
<title>Node11</title>
<g id="a_Node000011"><a xlink:href="tcfs__utils_8c.html#ac4ff59963f4a122c9f802c0c2bf2abc8" target="_top" xlink:title="Prefix the realpath to the fuse path.">
<polygon fill="white" stroke="#666666" points="171.12,-37.53 107.12,-37.53 107.12,-17.53 171.12,-17.53 171.12,-37.53"/>
<text text-anchor="middle" x="139.12" y="-24.03" font-family="Helvetica,sans-Serif" font-size="10.00">prefix_path</text>
</a>
</g>
</g>
<!-- Node1&#45;&gt;Node11 -->
<g id="edge16_Node000001_Node000011" class="edge">
<title>Node1&#45;&gt;Node11</title>
<g id="a_edge16_Node000001_Node000011"><a xlink:title=" ">
<path fill="none" stroke="#63b8ff" d="M45.59,-93.11C58.7,-81.09 81.47,-61.09 103,-46.53 104.68,-45.39 106.43,-44.26 108.22,-43.16"/>
<polygon fill="#63b8ff" stroke="#63b8ff" points="109.39,-45.95 116.29,-37.91 105.88,-39.9 109.39,-45.95"/>
</a>
</g>
</g>
<!-- Node3 -->
<g id="Node000003" class="node">
<title>Node3</title>
<g id="a_Node000003"><a xlink:href="crypt-utils_8c.html#a22f528907ee4f078e333501b747d5435" target="_top" xlink:title="Decrypt the *ciphertext string using a AES 256 key.">
<polygon fill="white" stroke="#666666" points="464.5,-189.53 387,-189.53 387,-169.53 464.5,-169.53 464.5,-189.53"/>
<text text-anchor="middle" x="425.75" y="-176.03" font-family="Helvetica,sans-Serif" font-size="10.00">decrypt_string</text>
</a>
</g>
</g>
<!-- Node2&#45;&gt;Node3 -->
<g id="edge2_Node000002_Node000003" class="edge">
<title>Node2&#45;&gt;Node3</title>
<g id="a_edge2_Node000002_Node000003"><a xlink:title=" ">
<path fill="none" stroke="#63b8ff" d="M321.48,-152.01C338.35,-156.51 358.24,-161.81 376.03,-166.55"/>
<polygon fill="#63b8ff" stroke="#63b8ff" points="374.95,-170.15 385.51,-169.34 376.75,-163.38 374.95,-170.15"/>
</a>
</g>
</g>
<!-- Node5 -->
<g id="Node000005" class="node">
<title>Node5</title>
<g id="a_Node000005"><a xlink:href="tcfs__utils_8c.html#a6de1cb8448198da94080ad32d7e4eabf" target="_top" xlink:title="Convert a hexadecimal string to its ASCII representation.">
<polygon fill="white" stroke="#666666" points="463,-151.53 388.5,-151.53 388.5,-131.53 463,-131.53 463,-151.53"/>
<text text-anchor="middle" x="425.75" y="-138.03" font-family="Helvetica,sans-Serif" font-size="10.00">hex_to_string</text>
</a>
</g>
</g>
<!-- Node2&#45;&gt;Node5 -->
<g id="edge4_Node000002_Node000005" class="edge">
<title>Node2&#45;&gt;Node5</title>
<g id="a_edge4_Node000002_Node000005"><a xlink:title=" ">
<path fill="none" stroke="#63b8ff" d="M351.35,-141.53C360.23,-141.53 369.16,-141.53 377.57,-141.53"/>
<polygon fill="#63b8ff" stroke="#63b8ff" points="377.3,-145.03 387.3,-141.53 377.3,-138.03 377.3,-145.03"/>
</a>
</g>
</g>
<!-- Node3&#45;&gt;Node4 -->
<g id="edge3_Node000003_Node000004" class="edge">
<title>Node3&#45;&gt;Node4</title>
<g id="a_edge3_Node000003_Node000004"><a xlink:title=" ">
<path fill="none" stroke="#63b8ff" d="M447.59,-169.2C453.11,-166.43 459.04,-163.39 464.5,-160.53 478.2,-153.32 493.27,-145.09 505.85,-138.13"/>
<polygon fill="#63b8ff" stroke="#63b8ff" points="507.29,-140.78 514.33,-132.87 503.89,-134.66 507.29,-140.78"/>
</a>
</g>
</g>
<!-- Node5&#45;&gt;Node4 -->
<g id="edge5_Node000005_Node000004" class="edge">
<title>Node5&#45;&gt;Node4</title>
<g id="a_edge5_Node000005_Node000004"><a xlink:title=" ">
<path fill="none" stroke="#63b8ff" d="M463.27,-135.04C471.7,-133.54 480.76,-131.94 489.48,-130.39"/>
<polygon fill="#63b8ff" stroke="#63b8ff" points="490.03,-133.67 499.27,-128.47 488.81,-126.77 490.03,-133.67"/>
</a>
</g>
</g>
<!-- Node6&#45;&gt;Node2 -->
<g id="edge7_Node000006_Node000002" class="edge">
<title>Node6&#45;&gt;Node2</title>
<g id="a_edge7_Node000006_Node000002"><a xlink:title=" ">
<path fill="none" stroke="#63b8ff" d="M175.45,-113.11C192.38,-117.71 212.93,-123.29 231.32,-128.28"/>
<polygon fill="#63b8ff" stroke="#63b8ff" points="230.29,-131.9 240.86,-131.14 232.12,-125.14 230.29,-131.9"/>
</a>
</g>
</g>
<!-- Node6&#45;&gt;Node4 -->
<g id="edge8_Node000006_Node000004" class="edge">
<title>Node6&#45;&gt;Node4</title>
<g id="a_edge8_Node000006_Node000004"><a xlink:title=" ">
<path fill="none" stroke="#63b8ff" d="M175.4,-105.23C247.31,-108.7 410.69,-116.59 489.54,-120.39"/>
<polygon fill="#63b8ff" stroke="#63b8ff" points="488.93,-123.91 499.09,-120.9 489.27,-116.92 488.93,-123.91"/>
</a>
</g>
</g>
<!-- Node7&#45;&gt;Node4 -->
<g id="edge14_Node000007_Node000004" class="edge">
<title>Node7&#45;&gt;Node4</title>
<g id="a_edge14_Node000007_Node000004"><a xlink:title=" ">
<path fill="none" stroke="#63b8ff" d="M171.14,-55.04C242.16,-31.81 414.29,19.72 464.5,-8.53 500,-28.5 519.4,-74.83 528.08,-101.88"/>
<polygon fill="#63b8ff" stroke="#63b8ff" points="524.93,-102.58 531.15,-111.16 531.64,-100.58 524.93,-102.58"/>
</a>
</g>
</g>
<!-- Node8 -->
<g id="Node000008" class="node">
<title>Node8</title>
<g id="a_Node000008"><a xlink:href="crypt-utils_8c.html#aa4a7facde8c6f63a7225c07e92232b2e" target="_top" xlink:title=" ">
<polygon fill="white" stroke="#666666" points="351,-75.53 211.25,-75.53 211.25,-55.53 351,-55.53 351,-75.53"/>
<text text-anchor="middle" x="281.12" y="-62.03" font-family="Helvetica,sans-Serif" font-size="10.00">encrypt_file_name_with_hex</text>
</a>
</g>
</g>
<!-- Node7&#45;&gt;Node8 -->
<g id="edge10_Node000007_Node000008" class="edge">
<title>Node7&#45;&gt;Node8</title>
<g id="a_edge10_Node000007_Node000008"><a xlink:title=" ">
<path fill="none" stroke="#63b8ff" d="M175.45,-65.53C183.08,-65.53 191.45,-65.53 200.03,-65.53"/>
<polygon fill="#63b8ff" stroke="#63b8ff" points="199.96,-69.03 209.96,-65.53 199.96,-62.03 199.96,-69.03"/>
</a>
</g>
</g>
<!-- Node9 -->
<g id="Node000009" class="node">
<title>Node9</title>
<g id="a_Node000009"><a xlink:href="crypt-utils_8c.html#aa926098a8843cf0ab6bd7eb8b3bbd2e6" target="_top" xlink:title="Encrypt the *plaintext string using a AES 256 key.">
<polygon fill="white" stroke="#666666" points="464.5,-37.53 387,-37.53 387,-17.53 464.5,-17.53 464.5,-37.53"/>
<text text-anchor="middle" x="425.75" y="-24.03" font-family="Helvetica,sans-Serif" font-size="10.00">encrypt_string</text>
</a>
</g>
</g>
<!-- Node8&#45;&gt;Node9 -->
<g id="edge11_Node000008_Node000009" class="edge">
<title>Node8&#45;&gt;Node9</title>
<g id="a_edge11_Node000008_Node000009"><a xlink:title=" ">
<path fill="none" stroke="#63b8ff" d="M321.48,-55.04C338.35,-50.54 358.24,-45.25 376.03,-40.51"/>
<polygon fill="#63b8ff" stroke="#63b8ff" points="376.75,-43.67 385.51,-37.71 374.95,-36.91 376.75,-43.67"/>
</a>
</g>
</g>
<!-- Node10 -->
<g id="Node000010" class="node">
<title>Node10</title>
<g id="a_Node000010"><a xlink:href="tcfs__utils_8c.html#a819d57d5c053a25772508a943d1bcc48" target="_top" xlink:title="Convert a string to its hexadecimal representation.">
<polygon fill="white" stroke="#666666" points="463,-75.53 388.5,-75.53 388.5,-55.53 463,-55.53 463,-75.53"/>
<text text-anchor="middle" x="425.75" y="-62.03" font-family="Helvetica,sans-Serif" font-size="10.00">string_to_hex</text>
</a>
</g>
</g>
<!-- Node8&#45;&gt;Node10 -->
<g id="edge12_Node000008_Node000010" class="edge">
<title>Node8&#45;&gt;Node10</title>
<g id="a_edge12_Node000008_Node000010"><a xlink:title=" ">
<path fill="none" stroke="#63b8ff" d="M351.35,-65.53C360.23,-65.53 369.16,-65.53 377.57,-65.53"/>
<polygon fill="#63b8ff" stroke="#63b8ff" points="377.3,-69.03 387.3,-65.53 377.3,-62.03 377.3,-69.03"/>
</a>
</g>
</g>
<!-- Node10&#45;&gt;Node4 -->
<g id="edge13_Node000010_Node000004" class="edge">
<title>Node10&#45;&gt;Node4</title>
<g id="a_edge13_Node000010_Node000004"><a xlink:title=" ">
<path fill="none" stroke="#63b8ff" d="M446.38,-75.98C462.67,-84.66 486.07,-97.13 504.56,-106.98"/>
<polygon fill="#63b8ff" stroke="#63b8ff" points="502.78,-110.52 513.25,-112.14 506.07,-104.35 502.78,-110.52"/>
</a>
</g>
</g>
</g>
</svg>
