<?xml version="1.0" encoding="UTF-8" standalone="no"?>
<!DOCTYPE svg PUBLIC "-//W3C//DTD SVG 1.1//EN"
 "http://www.w3.org/Graphics/SVG/1.1/DTD/svg11.dtd">
<!-- Generated by graphviz version 8.1.0 (20230707.0739)
 -->
<!-- Title: user/old_stuff/tcfs_helper_tools.h Pages: 1 -->
<svg width="617pt" height="96pt"
 viewBox="0.00 0.00 617.00 96.00" xmlns="http://www.w3.org/2000/svg" xmlns:xlink="http://www.w3.org/1999/xlink">
<g id="graph0" class="graph" transform="scale(1 1) rotate(0) translate(4 92)">
<title>user/old_stuff/tcfs_helper_tools.h</title>
<!-- Node1 -->
<g id="Node000001" class="node">
<title>Node1</title>
<g id="a_Node000001"><a xlink:title=" ">
<polygon fill="#999999" stroke="#666666" points="336.75,-88 242.75,-88 242.75,-56 336.75,-56 336.75,-88"/>
<text text-anchor="start" x="250.75" y="-74.5" font-family="Helvetica,sans-Serif" font-size="10.00">user/old_stuff/tcfs</text>
<text text-anchor="middle" x="289.75" y="-62.5" font-family="Helvetica,sans-Serif" font-size="10.00">_helper_tools.h</text>
</a>
</g>
</g>
<!-- Node2 -->
<g id="Node000002" class="node">
<title>Node2</title>
<g id="a_Node000002"><a xlink:title=" ">
<polygon fill="#e0e0e0" stroke="#999999" points="47.5,-20 0,-20 0,0 47.5,0 47.5,-20"/>
<text text-anchor="middle" x="23.75" y="-6.5" font-family="Helvetica,sans-Serif" font-size="10.00">limits.h</text>
</a>
</g>
</g>
<!-- Node1&#45;&gt;Node2 -->
<g id="edge1_Node000001_Node000002" class="edge">
<title>Node1&#45;&gt;Node2</title>
<g id="a_edge1_Node000001_Node000002"><a xlink:title=" ">
<path fill="none" stroke="#63b8ff" d="M242.5,-61.56C197.41,-52.37 127.36,-37.58 58.43,-20.57"/>
<polygon fill="#63b8ff" stroke="#63b8ff" points="59.37,-16.95 48.82,-17.94 57.68,-23.75 59.37,-16.95"/>
</a>
</g>
</g>
<!-- Node3 -->
<g id="Node000003" class="node">
<title>Node3</title>
<g id="a_Node000003"><a xlink:title=" ">
<polygon fill="#e0e0e0" stroke="#999999" points="110.38,-20 65.12,-20 65.12,0 110.38,0 110.38,-20"/>
<text text-anchor="middle" x="87.75" y="-6.5" font-family="Helvetica,sans-Serif" font-size="10.00">stdio.h</text>
</a>
</g>
</g>
<!-- Node1&#45;&gt;Node3 -->
<g id="edge2_Node000001_Node000003" class="edge">
<title>Node1&#45;&gt;Node3</title>
<g id="a_edge2_Node000001_Node000003"><a xlink:title=" ">
<path fill="none" stroke="#63b8ff" d="M242.39,-56.93C205.2,-45.89 154.33,-30.78 121.26,-20.95"/>
<polygon fill="#63b8ff" stroke="#63b8ff" points="122.36,-17.33 111.78,-17.84 120.37,-24.04 122.36,-17.33"/>
</a>
</g>
</g>
<!-- Node4 -->
<g id="Node000004" class="node">
<title>Node4</title>
<g id="a_Node000004"><a xlink:title=" ">
<polygon fill="#e0e0e0" stroke="#999999" points="175.5,-20 128,-20 128,0 175.5,0 175.5,-20"/>
<text text-anchor="middle" x="151.75" y="-6.5" font-family="Helvetica,sans-Serif" font-size="10.00">stdlib.h</text>
</a>
</g>
</g>
<!-- Node1&#45;&gt;Node4 -->
<g id="edge3_Node000001_Node000004" class="edge">
<title>Node1&#45;&gt;Node4</title>
<g id="a_edge3_Node000001_Node000004"><a xlink:title=" ">
<path fill="none" stroke="#63b8ff" d="M254.21,-55.55C232.35,-46.04 204.57,-33.97 183.46,-24.79"/>
<polygon fill="#63b8ff" stroke="#63b8ff" points="184.95,-21.19 174.39,-20.41 182.16,-27.61 184.95,-21.19"/>
</a>
</g>
</g>
<!-- Node5 -->
<g id="Node000005" class="node">
<title>Node5</title>
<g id="a_Node000005"><a xlink:title=" ">
<polygon fill="#e0e0e0" stroke="#999999" points="241.88,-20 193.62,-20 193.62,0 241.88,0 241.88,-20"/>
<text text-anchor="middle" x="217.75" y="-6.5" font-family="Helvetica,sans-Serif" font-size="10.00">string.h</text>
</a>
</g>
</g>
<!-- Node1&#45;&gt;Node5 -->
<g id="edge4_Node000001_Node000005" class="edge">
<title>Node1&#45;&gt;Node5</title>
<g id="a_edge4_Node000001_Node000005"><a xlink:title=" ">
<path fill="none" stroke="#63b8ff" d="M271.21,-55.55C260.79,-46.87 247.8,-36.04 237.24,-27.24"/>
<polygon fill="#63b8ff" stroke="#63b8ff" points="239.96,-24.12 230.04,-20.41 235.48,-29.5 239.96,-24.12"/>
</a>
</g>
</g>
<!-- Node6 -->
<g id="Node000006" class="node">
<title>Node6</title>
<g id="a_Node000006"><a xlink:title=" ">
<polygon fill="#e0e0e0" stroke="#999999" points="319.5,-20 260,-20 260,0 319.5,0 319.5,-20"/>
<text text-anchor="middle" x="289.75" y="-6.5" font-family="Helvetica,sans-Serif" font-size="10.00">sys/stat.h</text>
</a>
</g>
</g>
<!-- Node1&#45;&gt;Node6 -->
<g id="edge5_Node000001_Node000006" class="edge">
<title>Node1&#45;&gt;Node6</title>
<g id="a_edge5_Node000001_Node000006"><a xlink:title=" ">
<path fill="none" stroke="#63b8ff" d="M289.75,-55.55C289.75,-48.17 289.75,-39.24 289.75,-31.32"/>
<polygon fill="#63b8ff" stroke="#63b8ff" points="293.25,-31.41 289.75,-21.41 286.25,-31.41 293.25,-31.41"/>
</a>
</g>
</g>
<!-- Node7 -->
<g id="Node000007" class="node">
<title>Node7</title>
<g id="a_Node000007"><a xlink:title=" ">
<polygon fill="#e0e0e0" stroke="#999999" points="404.25,-20 337.25,-20 337.25,0 404.25,0 404.25,-20"/>
<text text-anchor="middle" x="370.75" y="-6.5" font-family="Helvetica,sans-Serif" font-size="10.00">sys/types.h</text>
</a>
</g>
</g>
<!-- Node1&#45;&gt;Node7 -->
<g id="edge6_Node000001_Node000007" class="edge">
<title>Node1&#45;&gt;Node7</title>
<g id="a_edge6_Node000001_Node000007"><a xlink:title=" ">
<path fill="none" stroke="#63b8ff" d="M310.61,-55.55C322.56,-46.69 337.53,-35.61 349.54,-26.71"/>
<polygon fill="#63b8ff" stroke="#63b8ff" points="351.1,-29.17 357.05,-20.41 346.93,-23.55 351.1,-29.17"/>
</a>
</g>
</g>
<!-- Node8 -->
<g id="Node000008" class="node">
<title>Node8</title>
<g id="a_Node000008"><a xlink:title=" ">
<polygon fill="#e0e0e0" stroke="#999999" points="479,-20 422.5,-20 422.5,0 479,0 479,-20"/>
<text text-anchor="middle" x="450.75" y="-6.5" font-family="Helvetica,sans-Serif" font-size="10.00">termios.h</text>
</a>
</g>
</g>
<!-- Node1&#45;&gt;Node8 -->
<g id="edge7_Node000001_Node000008" class="edge">
<title>Node1&#45;&gt;Node8</title>
<g id="a_edge7_Node000001_Node000008"><a xlink:title=" ">
<path fill="none" stroke="#63b8ff" d="M331.21,-55.55C357.3,-45.83 390.6,-33.41 415.43,-24.16"/>
<polygon fill="#63b8ff" stroke="#63b8ff" points="416.36,-27.18 424.51,-20.41 413.91,-20.62 416.36,-27.18"/>
</a>
</g>
</g>
<!-- Node9 -->
<g id="Node000009" class="node">
<title>Node9</title>
<g id="a_Node000009"><a xlink:title=" ">
<polygon fill="#e0e0e0" stroke="#999999" points="540.25,-20 497.25,-20 497.25,0 540.25,0 540.25,-20"/>
<text text-anchor="middle" x="518.75" y="-6.5" font-family="Helvetica,sans-Serif" font-size="10.00">time.h</text>
</a>
</g>
</g>
<!-- Node1&#45;&gt;Node9 -->
<g id="edge8_Node000001_Node000009" class="edge">
<title>Node1&#45;&gt;Node9</title>
<g id="a_edge8_Node000001_Node000009"><a xlink:title=" ">
<path fill="none" stroke="#63b8ff" d="M337.06,-59.24C374.89,-49.75 429.53,-35.82 486.16,-20.37"/>
<polygon fill="#63b8ff" stroke="#63b8ff" points="487.04,-23.49 495.76,-17.47 485.19,-16.74 487.04,-23.49"/>
</a>
</g>
</g>
<!-- Node10 -->
<g id="Node000010" class="node">
<title>Node10</title>
<g id="a_Node000010"><a xlink:title=" ">
<polygon fill="#e0e0e0" stroke="#999999" points="609,-20 558.5,-20 558.5,0 609,0 609,-20"/>
<text text-anchor="middle" x="583.75" y="-6.5" font-family="Helvetica,sans-Serif" font-size="10.00">unistd.h</text>
</a>
</g>
</g>
<!-- Node1&#45;&gt;Node10 -->
<g id="edge9_Node000001_Node000010" class="edge">
<title>Node1&#45;&gt;Node10</title>
<g id="a_edge9_Node000001_Node000010"><a xlink:title=" ">
<path fill="none" stroke="#63b8ff" d="M336.91,-62.7C386.91,-53.69 468.4,-38.41 547.53,-20.4"/>
<polygon fill="#63b8ff" stroke="#63b8ff" points="548.21,-23.61 557.17,-17.96 546.65,-16.79 548.21,-23.61"/>
</a>
</g>
</g>
</g>
</svg>
