<?xml version="1.0" encoding="UTF-8" standalone="no"?>
<!DOCTYPE svg PUBLIC "-//W3C//DTD SVG 1.1//EN"
 "http://www.w3.org/Graphics/SVG/1.1/DTD/svg11.dtd">
<!-- Generated by graphviz version 8.1.0 (20230707.0739)
 -->
<!-- Title: tcfs_utimens Pages: 1 -->
<svg width="582pt" height="180pt"
 viewBox="0.00 0.00 582.25 180.00" xmlns="http://www.w3.org/2000/svg" xmlns:xlink="http://www.w3.org/1999/xlink">
<g id="graph0" class="graph" transform="scale(1 1) rotate(0) translate(4 176)">
<title>tcfs_utimens</title>
<!-- Node1 -->
<g id="Node000001" class="node">
<title>Node1</title>
<g id="a_Node000001"><a xlink:title="Modify the access and modification timestamps of a file in the TCFS file system.">
<polygon fill="#999999" stroke="#666666" points="72.25,-58 0,-58 0,-38 72.25,-38 72.25,-58"/>
<text text-anchor="middle" x="36.12" y="-44.5" font-family="Helvetica,sans-Serif" font-size="10.00">tcfs_utimens</text>
</a>
</g>
</g>
<!-- Node2 -->
<g id="Node000002" class="node">
<title>Node2</title>
<g id="a_Node000002"><a xlink:href="crypt-utils_8c.html#ad9b10366ade9f2129ec2613fdc76df80" target="_top" xlink:title="Encrypts each part of the given path using a specified key.">
<polygon fill="white" stroke="#666666" points="180.5,-96 108.25,-96 108.25,-76 180.5,-76 180.5,-96"/>
<text text-anchor="middle" x="144.38" y="-82.5" font-family="Helvetica,sans-Serif" font-size="10.00">encrypt_path</text>
</a>
</g>
</g>
<!-- Node1&#45;&gt;Node2 -->
<g id="edge1_Node000001_Node000002" class="edge">
<title>Node1&#45;&gt;Node2</title>
<g id="a_edge1_Node000001_Node000002"><a xlink:title=" ">
<path fill="none" stroke="#63b8ff" d="M66.44,-58.48C78.05,-62.64 91.58,-67.48 104.02,-71.93"/>
<polygon fill="#63b8ff" stroke="#63b8ff" points="102.56,-75.48 113.16,-75.55 104.92,-68.89 102.56,-75.48"/>
</a>
</g>
</g>
<!-- Node6 -->
<g id="Node000006" class="node">
<title>Node6</title>
<g id="a_Node000006"><a xlink:href="tcfs__utils_8c.html#a62b66e43a7ad8b8cf9fcad67f71a7a8b" target="_top" xlink:title="Logs a formatted message to a file with timestamp.">
<polygon fill="white" stroke="#666666" points="574.25,-96 505.75,-96 505.75,-76 574.25,-76 574.25,-96"/>
<text text-anchor="middle" x="540" y="-82.5" font-family="Helvetica,sans-Serif" font-size="10.00">logMessage</text>
</a>
</g>
</g>
<!-- Node1&#45;&gt;Node6 -->
<g id="edge7_Node000001_Node000006" class="edge">
<title>Node1&#45;&gt;Node6</title>
<g id="a_edge7_Node000001_Node000006"><a xlink:title=" ">
<path fill="none" stroke="#63b8ff" d="M72.42,-50.67C161.68,-57.43 396.34,-75.2 494.66,-82.64"/>
<polygon fill="#63b8ff" stroke="#63b8ff" points="494.17,-86.19 504.4,-83.46 494.7,-79.21 494.17,-86.19"/>
</a>
</g>
</g>
<!-- Node7 -->
<g id="Node000007" class="node">
<title>Node7</title>
<g id="a_Node000007"><a xlink:href="tcfs__utils_8c.html#ac4ff59963f4a122c9f802c0c2bf2abc8" target="_top" xlink:title="Prefix the realpath to the fuse path.">
<polygon fill="white" stroke="#666666" points="176.38,-20 112.38,-20 112.38,0 176.38,0 176.38,-20"/>
<text text-anchor="middle" x="144.38" y="-6.5" font-family="Helvetica,sans-Serif" font-size="10.00">prefix_path</text>
</a>
</g>
</g>
<!-- Node1&#45;&gt;Node7 -->
<g id="edge8_Node000001_Node000007" class="edge">
<title>Node1&#45;&gt;Node7</title>
<g id="a_edge8_Node000001_Node000007"><a xlink:title=" ">
<path fill="none" stroke="#63b8ff" d="M66.44,-37.52C78.05,-33.36 91.58,-28.52 104.02,-24.07"/>
<polygon fill="#63b8ff" stroke="#63b8ff" points="104.92,-27.11 113.16,-20.45 102.56,-20.52 104.92,-27.11"/>
</a>
</g>
</g>
<!-- Node3 -->
<g id="Node000003" class="node">
<title>Node3</title>
<g id="a_Node000003"><a xlink:href="crypt-utils_8c.html#aa4a7facde8c6f63a7225c07e92232b2e" target="_top" xlink:title=" ">
<polygon fill="white" stroke="#666666" points="356.25,-134 216.5,-134 216.5,-114 356.25,-114 356.25,-134"/>
<text text-anchor="middle" x="286.38" y="-120.5" font-family="Helvetica,sans-Serif" font-size="10.00">encrypt_file_name_with_hex</text>
</a>
</g>
</g>
<!-- Node2&#45;&gt;Node3 -->
<g id="edge2_Node000002_Node000003" class="edge">
<title>Node2&#45;&gt;Node3</title>
<g id="a_edge2_Node000002_Node000003"><a xlink:title=" ">
<path fill="none" stroke="#63b8ff" d="M180.7,-95.59C197.63,-100.18 218.18,-105.76 236.57,-110.75"/>
<polygon fill="#63b8ff" stroke="#63b8ff" points="235.54,-114.37 246.11,-113.61 237.37,-107.62 235.54,-114.37"/>
</a>
</g>
</g>
<!-- Node2&#45;&gt;Node6 -->
<g id="edge6_Node000002_Node000006" class="edge">
<title>Node2&#45;&gt;Node6</title>
<g id="a_edge6_Node000002_Node000006"><a xlink:title=" ">
<path fill="none" stroke="#63b8ff" d="M180.65,-86C252.56,-86 415.94,-86 494.79,-86"/>
<polygon fill="#63b8ff" stroke="#63b8ff" points="494.34,-89.5 504.34,-86 494.34,-82.5 494.34,-89.5"/>
</a>
</g>
</g>
<!-- Node4 -->
<g id="Node000004" class="node">
<title>Node4</title>
<g id="a_Node000004"><a xlink:href="crypt-utils_8c.html#aa926098a8843cf0ab6bd7eb8b3bbd2e6" target="_top" xlink:title="Encrypt the *plaintext string using a AES 256 key.">
<polygon fill="white" stroke="#666666" points="469.75,-172 392.25,-172 392.25,-152 469.75,-152 469.75,-172"/>
<text text-anchor="middle" x="431" y="-158.5" font-family="Helvetica,sans-Serif" font-size="10.00">encrypt_string</text>
</a>
</g>
</g>
<!-- Node3&#45;&gt;Node4 -->
<g id="edge3_Node000003_Node000004" class="edge">
<title>Node3&#45;&gt;Node4</title>
<g id="a_edge3_Node000003_Node000004"><a xlink:title=" ">
<path fill="none" stroke="#63b8ff" d="M326.73,-134.48C343.6,-138.98 363.49,-144.28 381.28,-149.02"/>
<polygon fill="#63b8ff" stroke="#63b8ff" points="380.2,-152.62 390.76,-151.81 382,-145.86 380.2,-152.62"/>
</a>
</g>
</g>
<!-- Node5 -->
<g id="Node000005" class="node">
<title>Node5</title>
<g id="a_Node000005"><a xlink:href="tcfs__utils_8c.html#a819d57d5c053a25772508a943d1bcc48" target="_top" xlink:title="Convert a string to its hexadecimal representation.">
<polygon fill="white" stroke="#666666" points="468.25,-134 393.75,-134 393.75,-114 468.25,-114 468.25,-134"/>
<text text-anchor="middle" x="431" y="-120.5" font-family="Helvetica,sans-Serif" font-size="10.00">string_to_hex</text>
</a>
</g>
</g>
<!-- Node3&#45;&gt;Node5 -->
<g id="edge4_Node000003_Node000005" class="edge">
<title>Node3&#45;&gt;Node5</title>
<g id="a_edge4_Node000003_Node000005"><a xlink:title=" ">
<path fill="none" stroke="#63b8ff" d="M356.6,-124C365.48,-124 374.41,-124 382.82,-124"/>
<polygon fill="#63b8ff" stroke="#63b8ff" points="382.55,-127.5 392.55,-124 382.55,-120.5 382.55,-127.5"/>
</a>
</g>
</g>
<!-- Node5&#45;&gt;Node6 -->
<g id="edge5_Node000005_Node000006" class="edge">
<title>Node5&#45;&gt;Node6</title>
<g id="a_edge5_Node000005_Node000006"><a xlink:title=" ">
<path fill="none" stroke="#63b8ff" d="M461.52,-113.52C473.22,-109.36 486.84,-104.52 499.37,-100.07"/>
<polygon fill="#63b8ff" stroke="#63b8ff" points="500.32,-103.09 508.57,-96.45 497.98,-96.5 500.32,-103.09"/>
</a>
</g>
</g>
</g>
</svg>
