<?xml version="1.0" encoding="UTF-8" standalone="no"?>
<!DOCTYPE svg PUBLIC "-//W3C//DTD SVG 1.1//EN"
 "http://www.w3.org/Graphics/SVG/1.1/DTD/svg11.dtd">
<!-- Generated by graphviz version 8.1.0 (20230707.0739)
 -->
<!-- Title: userspace&#45;module/utils/tcfs_utils/tcfs_utils.c Pages: 1 -->
<svg width="1160pt" height="220pt"
 viewBox="0.00 0.00 1159.50 220.00" xmlns="http://www.w3.org/2000/svg" xmlns:xlink="http://www.w3.org/1999/xlink">
<g id="graph0" class="graph" transform="scale(1 1) rotate(0) translate(4 216)">
<title>userspace&#45;module/utils/tcfs_utils/tcfs_utils.c</title>
<!-- Node1 -->
<g id="Node000001" class="node">
<title>Node1</title>
<g id="a_Node000001"><a xlink:title="This file contains an assortment of functions used by tcfs.c.">
<polygon fill="#999999" stroke="#666666" points="485.88,-212 369.38,-212 369.38,-180 485.88,-180 485.88,-212"/>
<text text-anchor="start" x="377.38" y="-198.5" font-family="Helvetica,sans-Serif" font-size="10.00">userspace&#45;module/utils</text>
<text text-anchor="middle" x="427.62" y="-186.5" font-family="Helvetica,sans-Serif" font-size="10.00">/tcfs_utils/tcfs_utils.c</text>
</a>
</g>
</g>
<!-- Node2 -->
<g id="Node000002" class="node">
<title>Node2</title>
<g id="a_Node000002"><a xlink:href="tcfs__utils_8h.html" target="_top" xlink:title="Header file containing utility functions used by TCFS (Transparent Cryptographic Filesystem)">
<polygon fill="white" stroke="#666666" points="329.62,-76 265.62,-76 265.62,-56 329.62,-56 329.62,-76"/>
<text text-anchor="middle" x="297.62" y="-62.5" font-family="Helvetica,sans-Serif" font-size="10.00">tcfs_utils.h</text>
</a>
</g>
</g>
<!-- Node1&#45;&gt;Node2 -->
<g id="edge1_Node000001_Node000002" class="edge">
<title>Node1&#45;&gt;Node2</title>
<g id="a_edge1_Node000001_Node000002"><a xlink:title=" ">
<path fill="none" stroke="#63b8ff" d="M411.94,-179.56C387.43,-155.43 340.22,-108.94 314.81,-83.92"/>
<polygon fill="#63b8ff" stroke="#63b8ff" points="317.68,-81.85 308.1,-77.33 312.77,-86.84 317.68,-81.85"/>
</a>
</g>
</g>
<!-- Node11 -->
<g id="Node000011" class="node">
<title>Node11</title>
<g id="a_Node000011"><a xlink:href="crypt-utils_8h.html" target="_top" xlink:title="Header file for crypt&#45;utils.c, which provides functions for encryption and decryption using AES&#45;256,...">
<polygon fill="white" stroke="#666666" points="569.88,-144 477.38,-144 477.38,-112 569.88,-112 569.88,-144"/>
<text text-anchor="start" x="485.38" y="-130.5" font-family="Helvetica,sans-Serif" font-size="10.00">../crypt&#45;utils/crypt</text>
<text text-anchor="middle" x="523.62" y="-118.5" font-family="Helvetica,sans-Serif" font-size="10.00">&#45;utils.h</text>
</a>
</g>
</g>
<!-- Node1&#45;&gt;Node11 -->
<g id="edge10_Node000001_Node000011" class="edge">
<title>Node1&#45;&gt;Node11</title>
<g id="a_edge10_Node000001_Node000011"><a xlink:title=" ">
<path fill="none" stroke="#63b8ff" d="M449.89,-179.69C462.52,-171.01 478.53,-160 492.4,-150.47"/>
<polygon fill="#63b8ff" stroke="#63b8ff" points="493.89,-153 500.15,-144.45 489.92,-147.23 493.89,-153"/>
</a>
</g>
</g>
<!-- Node3 -->
<g id="Node000003" class="node">
<title>Node3</title>
<g id="a_Node000003"><a xlink:title=" ">
<polygon fill="#e0e0e0" stroke="#999999" points="109.62,-20 63.62,-20 63.62,0 109.62,0 109.62,-20"/>
<text text-anchor="middle" x="86.62" y="-6.5" font-family="Helvetica,sans-Serif" font-size="10.00">errno.h</text>
</a>
</g>
</g>
<!-- Node2&#45;&gt;Node3 -->
<g id="edge2_Node000002_Node000003" class="edge">
<title>Node2&#45;&gt;Node3</title>
<g id="a_edge2_Node000002_Node000003"><a xlink:title=" ">
<path fill="none" stroke="#63b8ff" d="M265.22,-57.14C231.41,-48.88 176.62,-35.31 120.51,-20.45"/>
<polygon fill="#63b8ff" stroke="#63b8ff" points="121.59,-16.85 111.02,-17.66 119.79,-23.61 121.59,-16.85"/>
</a>
</g>
</g>
<!-- Node4 -->
<g id="Node000004" class="node">
<title>Node4</title>
<g id="a_Node000004"><a xlink:title=" ">
<polygon fill="#e0e0e0" stroke="#999999" points="169.75,-20 127.5,-20 127.5,0 169.75,0 169.75,-20"/>
<text text-anchor="middle" x="148.62" y="-6.5" font-family="Helvetica,sans-Serif" font-size="10.00">pwd.h</text>
</a>
</g>
</g>
<!-- Node2&#45;&gt;Node4 -->
<g id="edge3_Node000002_Node000004" class="edge">
<title>Node2&#45;&gt;Node4</title>
<g id="a_edge3_Node000002_Node000004"><a xlink:title=" ">
<path fill="none" stroke="#63b8ff" d="M271.67,-55.59C246.2,-46.36 207.33,-32.28 180.11,-22.41"/>
<polygon fill="#63b8ff" stroke="#63b8ff" points="181.54,-18.84 170.94,-18.73 179.15,-25.42 181.54,-18.84"/>
</a>
</g>
</g>
<!-- Node5 -->
<g id="Node000005" class="node">
<title>Node5</title>
<g id="a_Node000005"><a xlink:title=" ">
<polygon fill="#e0e0e0" stroke="#999999" points="45.25,-20 0,-20 0,0 45.25,0 45.25,-20"/>
<text text-anchor="middle" x="22.62" y="-6.5" font-family="Helvetica,sans-Serif" font-size="10.00">stdio.h</text>
</a>
</g>
</g>
<!-- Node2&#45;&gt;Node5 -->
<g id="edge4_Node000002_Node000005" class="edge">
<title>Node2&#45;&gt;Node5</title>
<g id="a_edge4_Node000002_Node000005"><a xlink:title=" ">
<path fill="none" stroke="#63b8ff" d="M265.2,-59.96C220.35,-52.78 136.66,-38.63 55.97,-20.14"/>
<polygon fill="#63b8ff" stroke="#63b8ff" points="57.16,-16.59 46.63,-17.74 55.58,-23.41 57.16,-16.59"/>
</a>
</g>
</g>
<!-- Node6 -->
<g id="Node000006" class="node">
<title>Node6</title>
<g id="a_Node000006"><a xlink:title=" ">
<polygon fill="#e0e0e0" stroke="#999999" points="389.38,-20 341.88,-20 341.88,0 389.38,0 389.38,-20"/>
<text text-anchor="middle" x="365.62" y="-6.5" font-family="Helvetica,sans-Serif" font-size="10.00">stdlib.h</text>
</a>
</g>
</g>
<!-- Node2&#45;&gt;Node6 -->
<g id="edge5_Node000002_Node000006" class="edge">
<title>Node2&#45;&gt;Node6</title>
<g id="a_edge5_Node000002_Node000006"><a xlink:title=" ">
<path fill="none" stroke="#63b8ff" d="M309.47,-55.59C319.42,-47.7 333.84,-36.24 345.58,-26.92"/>
<polygon fill="#63b8ff" stroke="#63b8ff" points="347.26,-29.26 352.92,-20.3 342.91,-23.78 347.26,-29.26"/>
</a>
</g>
</g>
<!-- Node7 -->
<g id="Node000007" class="node">
<title>Node7</title>
<g id="a_Node000007"><a xlink:title=" ">
<polygon fill="#e0e0e0" stroke="#999999" points="455.75,-20 407.5,-20 407.5,0 455.75,0 455.75,-20"/>
<text text-anchor="middle" x="431.62" y="-6.5" font-family="Helvetica,sans-Serif" font-size="10.00">string.h</text>
</a>
</g>
</g>
<!-- Node2&#45;&gt;Node7 -->
<g id="edge6_Node000002_Node000007" class="edge">
<title>Node2&#45;&gt;Node7</title>
<g id="a_edge6_Node000002_Node000007"><a xlink:title=" ">
<path fill="none" stroke="#63b8ff" d="M320.97,-55.59C342.26,-47.01 373.97,-34.23 398,-24.55"/>
<polygon fill="#63b8ff" stroke="#63b8ff" points="399.13,-27.46 407.1,-20.48 396.52,-20.97 399.13,-27.46"/>
</a>
</g>
</g>
<!-- Node8 -->
<g id="Node000008" class="node">
<title>Node8</title>
<g id="a_Node000008"><a xlink:title=" ">
<polygon fill="#e0e0e0" stroke="#999999" points="249.88,-20 187.38,-20 187.38,0 249.88,0 249.88,-20"/>
<text text-anchor="middle" x="218.62" y="-6.5" font-family="Helvetica,sans-Serif" font-size="10.00">sys/xattr.h</text>
</a>
</g>
</g>
<!-- Node2&#45;&gt;Node8 -->
<g id="edge7_Node000002_Node000008" class="edge">
<title>Node2&#45;&gt;Node8</title>
<g id="a_edge7_Node000002_Node000008"><a xlink:title=" ">
<path fill="none" stroke="#63b8ff" d="M283.86,-55.59C272.15,-47.59 255.1,-35.93 241.37,-26.54"/>
<polygon fill="#63b8ff" stroke="#63b8ff" points="243.72,-23.23 233.49,-20.48 239.77,-29.01 243.72,-23.23"/>
</a>
</g>
</g>
<!-- Node9 -->
<g id="Node000009" class="node">
<title>Node9</title>
<g id="a_Node000009"><a xlink:title=" ">
<polygon fill="#e0e0e0" stroke="#999999" points="523.88,-20 473.38,-20 473.38,0 523.88,0 523.88,-20"/>
<text text-anchor="middle" x="498.62" y="-6.5" font-family="Helvetica,sans-Serif" font-size="10.00">unistd.h</text>
</a>
</g>
</g>
<!-- Node2&#45;&gt;Node9 -->
<g id="edge8_Node000002_Node000009" class="edge">
<title>Node2&#45;&gt;Node9</title>
<g id="a_edge8_Node000002_Node000009"><a xlink:title=" ">
<path fill="none" stroke="#63b8ff" d="M329.92,-56.32C366.18,-46.58 424.87,-30.82 462.59,-20.68"/>
<polygon fill="#63b8ff" stroke="#63b8ff" points="463.36,-23.83 472.11,-17.86 461.54,-17.07 463.36,-23.83"/>
</a>
</g>
</g>
<!-- Node10 -->
<g id="Node000010" class="node">
<title>Node10</title>
<g id="a_Node000010"><a xlink:title=" ">
<polygon fill="#e0e0e0" stroke="#999999" points="323.5,-20 267.75,-20 267.75,0 323.5,0 323.5,-20"/>
<text text-anchor="middle" x="295.62" y="-6.5" font-family="Helvetica,sans-Serif" font-size="10.00">stdbool.h</text>
</a>
</g>
</g>
<!-- Node2&#45;&gt;Node10 -->
<g id="edge9_Node000002_Node000010" class="edge">
<title>Node2&#45;&gt;Node10</title>
<g id="a_edge9_Node000002_Node000010"><a xlink:title=" ">
<path fill="none" stroke="#63b8ff" d="M297.28,-55.59C297.03,-48.86 296.68,-39.53 296.37,-31.15"/>
<polygon fill="#63b8ff" stroke="#63b8ff" points="299.84,-31.16 295.97,-21.3 292.84,-31.42 299.84,-31.16"/>
</a>
</g>
</g>
<!-- Node11&#45;&gt;Node2 -->
<g id="edge23_Node000011_Node000002" class="edge">
<title>Node11&#45;&gt;Node2</title>
<g id="a_edge23_Node000011_Node000002"><a xlink:title=" ">
<path fill="none" stroke="#63b8ff" d="M477.07,-114.64C436.91,-103.98 379.39,-88.71 340.38,-78.35"/>
<polygon fill="#63b8ff" stroke="#63b8ff" points="341.46,-74.75 330.9,-75.57 339.67,-81.52 341.46,-74.75"/>
</a>
</g>
</g>
<!-- Node11&#45;&gt;Node5 -->
<g id="edge13_Node000011_Node000005" class="edge">
<title>Node11&#45;&gt;Node5</title>
<g id="a_edge13_Node000011_Node000005"><a xlink:title=" ">
<path fill="none" stroke="#63b8ff" d="M477.08,-119.3C423.61,-110.17 333.37,-93.94 256.62,-76 169.18,-55.56 146,-45.78 56.09,-20.42"/>
<polygon fill="#63b8ff" stroke="#63b8ff" points="57.27,-16.83 46.69,-17.5 55.38,-23.57 57.27,-16.83"/>
</a>
</g>
</g>
<!-- Node11&#45;&gt;Node6 -->
<g id="edge14_Node000011_Node000006" class="edge">
<title>Node11&#45;&gt;Node6</title>
<g id="a_edge14_Node000011_Node000006"><a xlink:title=" ">
<path fill="none" stroke="#63b8ff" d="M493.25,-111.58C475.8,-102.19 453.8,-89.44 435.62,-76 415.75,-61.3 395.29,-41.68 381.66,-27.86"/>
<polygon fill="#63b8ff" stroke="#63b8ff" points="384.6,-25.83 375.12,-21.09 379.58,-30.71 384.6,-25.83"/>
</a>
</g>
</g>
<!-- Node11&#45;&gt;Node7 -->
<g id="edge15_Node000011_Node000007" class="edge">
<title>Node11&#45;&gt;Node7</title>
<g id="a_edge15_Node000011_Node000007"><a xlink:title=" ">
<path fill="none" stroke="#63b8ff" d="M492.5,-111.66C477.88,-103.02 461.35,-90.94 450.62,-76 441.08,-62.7 436.3,-44.65 433.92,-30.94"/>
<polygon fill="#63b8ff" stroke="#63b8ff" points="437.27,-30.64 432.39,-21.24 430.34,-31.63 437.27,-30.64"/>
</a>
</g>
</g>
<!-- Node11&#45;&gt;Node9 -->
<g id="edge17_Node000011_Node000009" class="edge">
<title>Node11&#45;&gt;Node9</title>
<g id="a_edge17_Node000011_Node000009"><a xlink:title=" ">
<path fill="none" stroke="#63b8ff" d="M492.99,-111.67C479.52,-103.17 465.09,-91.21 457.62,-76 449.07,-58.58 463.47,-39.97 477.51,-27.15"/>
<polygon fill="#63b8ff" stroke="#63b8ff" points="479.19,-29.46 484.55,-20.32 474.66,-24.12 479.19,-29.46"/>
</a>
</g>
</g>
<!-- Node12 -->
<g id="Node000012" class="node">
<title>Node12</title>
<g id="a_Node000012"><a xlink:title=" ">
<polygon fill="#e0e0e0" stroke="#999999" points="514.75,-76 466.5,-76 466.5,-56 514.75,-56 514.75,-76"/>
<text text-anchor="middle" x="490.62" y="-62.5" font-family="Helvetica,sans-Serif" font-size="10.00">ctype.h</text>
</a>
</g>
</g>
<!-- Node11&#45;&gt;Node12 -->
<g id="edge11_Node000011_Node000012" class="edge">
<title>Node11&#45;&gt;Node12</title>
<g id="a_edge11_Node000011_Node000012"><a xlink:title=" ">
<path fill="none" stroke="#63b8ff" d="M515.13,-111.55C510.83,-103.74 505.58,-94.19 501.04,-85.94"/>
<polygon fill="#63b8ff" stroke="#63b8ff" points="503.69,-84.48 495.8,-77.41 497.55,-87.86 503.69,-84.48"/>
</a>
</g>
</g>
<!-- Node13 -->
<g id="Node000013" class="node">
<title>Node13</title>
<g id="a_Node000013"><a xlink:title=" ">
<polygon fill="#e0e0e0" stroke="#999999" points="582.5,-76 532.75,-76 532.75,-56 582.5,-56 582.5,-76"/>
<text text-anchor="middle" x="557.62" y="-62.5" font-family="Helvetica,sans-Serif" font-size="10.00">libgen.h</text>
</a>
</g>
</g>
<!-- Node11&#45;&gt;Node13 -->
<g id="edge12_Node000011_Node000013" class="edge">
<title>Node11&#45;&gt;Node13</title>
<g id="a_edge12_Node000011_Node000013"><a xlink:title=" ">
<path fill="none" stroke="#63b8ff" d="M532.38,-111.55C536.81,-103.74 542.22,-94.19 546.89,-85.94"/>
<polygon fill="#63b8ff" stroke="#63b8ff" points="550.41,-87.83 552.29,-77.41 544.32,-84.38 550.41,-87.83"/>
</a>
</g>
</g>
<!-- Node14 -->
<g id="Node000014" class="node">
<title>Node14</title>
<g id="a_Node000014"><a xlink:title=" ">
<polygon fill="#e0e0e0" stroke="#999999" points="670.62,-76 600.62,-76 600.62,-56 670.62,-56 670.62,-76"/>
<text text-anchor="middle" x="635.62" y="-62.5" font-family="Helvetica,sans-Serif" font-size="10.00">sys/mman.h</text>
</a>
</g>
</g>
<!-- Node11&#45;&gt;Node14 -->
<g id="edge16_Node000011_Node000014" class="edge">
<title>Node11&#45;&gt;Node14</title>
<g id="a_edge16_Node000011_Node000014"><a xlink:title=" ">
<path fill="none" stroke="#63b8ff" d="M552.47,-111.55C569.81,-102.26 591.73,-90.52 608.71,-81.42"/>
<polygon fill="#63b8ff" stroke="#63b8ff" points="609.9,-84.22 617.06,-76.41 606.6,-78.05 609.9,-84.22"/>
</a>
</g>
</g>
<!-- Node15 -->
<g id="Node000015" class="node">
<title>Node15</title>
<g id="a_Node000015"><a xlink:title=" ">
<polygon fill="#e0e0e0" stroke="#999999" points="765,-76 688.25,-76 688.25,-56 765,-56 765,-76"/>
<text text-anchor="middle" x="726.62" y="-62.5" font-family="Helvetica,sans-Serif" font-size="10.00">openssl/aes.h</text>
</a>
</g>
</g>
<!-- Node11&#45;&gt;Node15 -->
<g id="edge18_Node000011_Node000015" class="edge">
<title>Node11&#45;&gt;Node15</title>
<g id="a_edge18_Node000011_Node000015"><a xlink:title=" ">
<path fill="none" stroke="#63b8ff" d="M570.2,-113.23C604.53,-103.09 650.85,-89.4 684.16,-79.55"/>
<polygon fill="#63b8ff" stroke="#63b8ff" points="684.89,-82.69 693.49,-76.5 682.91,-75.98 684.89,-82.69"/>
</a>
</g>
</g>
<!-- Node16 -->
<g id="Node000016" class="node">
<title>Node16</title>
<g id="a_Node000016"><a xlink:title=" ">
<polygon fill="#e0e0e0" stroke="#999999" points="856.5,-76 782.75,-76 782.75,-56 856.5,-56 856.5,-76"/>
<text text-anchor="middle" x="819.62" y="-62.5" font-family="Helvetica,sans-Serif" font-size="10.00">openssl/bio.h</text>
</a>
</g>
</g>
<!-- Node11&#45;&gt;Node16 -->
<g id="edge19_Node000011_Node000016" class="edge">
<title>Node11&#45;&gt;Node16</title>
<g id="a_edge19_Node000011_Node000016"><a xlink:title=" ">
<path fill="none" stroke="#63b8ff" d="M570.2,-117.56C625.3,-106.39 716.54,-87.9 772.07,-76.64"/>
<polygon fill="#63b8ff" stroke="#63b8ff" points="772.57,-79.91 781.67,-74.49 771.18,-73.05 772.57,-79.91"/>
</a>
</g>
</g>
<!-- Node17 -->
<g id="Node000017" class="node">
<title>Node17</title>
<g id="a_Node000017"><a xlink:title=" ">
<polygon fill="#e0e0e0" stroke="#999999" points="959.12,-76 874.12,-76 874.12,-56 959.12,-56 959.12,-76"/>
<text text-anchor="middle" x="916.62" y="-62.5" font-family="Helvetica,sans-Serif" font-size="10.00">openssl/buffer.h</text>
</a>
</g>
</g>
<!-- Node11&#45;&gt;Node17 -->
<g id="edge20_Node000011_Node000017" class="edge">
<title>Node11&#45;&gt;Node17</title>
<g id="a_edge20_Node000011_Node000017"><a xlink:title=" ">
<path fill="none" stroke="#63b8ff" d="M570.15,-120.46C633.95,-111.41 752.45,-94.28 863.11,-76.38"/>
<polygon fill="#63b8ff" stroke="#63b8ff" points="863.48,-79.7 872.79,-74.65 862.35,-72.79 863.48,-79.7"/>
</a>
</g>
</g>
<!-- Node18 -->
<g id="Node000018" class="node">
<title>Node18</title>
<g id="a_Node000018"><a xlink:title=" ">
<polygon fill="#e0e0e0" stroke="#999999" points="1054,-76 977.25,-76 977.25,-56 1054,-56 1054,-76"/>
<text text-anchor="middle" x="1015.62" y="-62.5" font-family="Helvetica,sans-Serif" font-size="10.00">openssl/evp.h</text>
</a>
</g>
</g>
<!-- Node11&#45;&gt;Node18 -->
<g id="edge21_Node000011_Node000018" class="edge">
<title>Node11&#45;&gt;Node18</title>
<g id="a_edge21_Node000011_Node000018"><a xlink:title=" ">
<path fill="none" stroke="#63b8ff" d="M570.22,-122.82C649.5,-115.46 815.88,-98.91 966.15,-76.29"/>
<polygon fill="#63b8ff" stroke="#63b8ff" points="966.58,-79.61 975.94,-74.65 965.52,-72.69 966.58,-79.61"/>
</a>
</g>
</g>
<!-- Node19 -->
<g id="Node000019" class="node">
<title>Node19</title>
<g id="a_Node000019"><a xlink:title=" ">
<polygon fill="#e0e0e0" stroke="#999999" points="1151.5,-76 1071.75,-76 1071.75,-56 1151.5,-56 1151.5,-76"/>
<text text-anchor="middle" x="1111.62" y="-62.5" font-family="Helvetica,sans-Serif" font-size="10.00">openssl/rand.h</text>
</a>
</g>
</g>
<!-- Node11&#45;&gt;Node19 -->
<g id="edge22_Node000011_Node000019" class="edge">
<title>Node11&#45;&gt;Node19</title>
<g id="a_edge22_Node000011_Node000019"><a xlink:title=" ">
<path fill="none" stroke="#63b8ff" d="M570.29,-123.96C662.15,-117.69 873.08,-101.8 1060.41,-76.2"/>
<polygon fill="#63b8ff" stroke="#63b8ff" points="1060.87,-79.53 1070.29,-74.7 1059.91,-72.6 1060.87,-79.53"/>
</a>
</g>
</g>
</g>
</svg>
