<?xml version="1.0" encoding="UTF-8" standalone="no"?>
<!DOCTYPE svg PUBLIC "-//W3C//DTD SVG 1.1//EN"
 "http://www.w3.org/Graphics/SVG/1.1/DTD/svg11.dtd">
<!-- Generated by graphviz version 8.1.0 (20230707.0739)
 -->
<!-- Title: user/old_stuff/tcfs_helper_tools.h Pages: 1 -->
<svg width="216pt" height="108pt"
 viewBox="0.00 0.00 216.12 108.00" xmlns="http://www.w3.org/2000/svg" xmlns:xlink="http://www.w3.org/1999/xlink">
<g id="graph0" class="graph" transform="scale(1 1) rotate(0) translate(4 104)">
<title>user/old_stuff/tcfs_helper_tools.h</title>
<!-- Node1 -->
<g id="Node000001" class="node">
<title>Node1</title>
<g id="a_Node000001"><a xlink:title=" ">
<polygon fill="#999999" stroke="#666666" points="150,-100 56,-100 56,-68 150,-68 150,-100"/>
<text text-anchor="start" x="64" y="-86.5" font-family="Helvetica,sans-Serif" font-size="10.00">user/old_stuff/tcfs</text>
<text text-anchor="middle" x="103" y="-74.5" font-family="Helvetica,sans-Serif" font-size="10.00">_helper_tools.h</text>
</a>
</g>
</g>
<!-- Node2 -->
<g id="Node000002" class="node">
<title>Node2</title>
<g id="a_Node000002"><a xlink:href="tcfs__helper__tools_8c.html" target="_top" xlink:title="This file contains the logic and implementation of functions needed to perform the operations request...">
<polygon fill="white" stroke="#666666" points="94,-32 0,-32 0,0 94,0 94,-32"/>
<text text-anchor="start" x="8" y="-18.5" font-family="Helvetica,sans-Serif" font-size="10.00">user/old_stuff/tcfs</text>
<text text-anchor="middle" x="47" y="-6.5" font-family="Helvetica,sans-Serif" font-size="10.00">_helper_tools.c</text>
</a>
</g>
</g>
<!-- Node1&#45;&gt;Node2 -->
<g id="edge1_Node000001_Node000002" class="edge">
<title>Node1&#45;&gt;Node2</title>
<g id="a_edge1_Node000001_Node000002"><a xlink:title=" ">
<path fill="none" stroke="#63b8ff" d="M83,-59.43C75.32,-50.38 66.76,-40.29 59.92,-32.22"/>
<polygon fill="#63b8ff" stroke="#63b8ff" points="80.87,-61.33 90.01,-66.69 86.21,-56.8 80.87,-61.33"/>
</a>
</g>
</g>
<!-- Node3 -->
<g id="Node000003" class="node">
<title>Node3</title>
<g id="a_Node000003"><a xlink:href="user__tcfs_8c.html" target="_top" xlink:title="Help the user that wants to use TCFS.">
<polygon fill="white" stroke="#666666" points="208.12,-32 111.88,-32 111.88,0 208.12,0 208.12,-32"/>
<text text-anchor="start" x="119.88" y="-18.5" font-family="Helvetica,sans-Serif" font-size="10.00">user/old_stuff/user</text>
<text text-anchor="middle" x="160" y="-6.5" font-family="Helvetica,sans-Serif" font-size="10.00">_tcfs.c</text>
</a>
</g>
</g>
<!-- Node1&#45;&gt;Node3 -->
<g id="edge2_Node000001_Node000003" class="edge">
<title>Node1&#45;&gt;Node3</title>
<g id="a_edge2_Node000001_Node000003"><a xlink:title=" ">
<path fill="none" stroke="#63b8ff" d="M123.36,-59.43C131.17,-50.38 139.89,-40.29 146.85,-32.22"/>
<polygon fill="#63b8ff" stroke="#63b8ff" points="120.11,-56.84 116.22,-66.69 125.41,-61.41 120.11,-56.84"/>
</a>
</g>
</g>
</g>
</svg>
