<?xml version="1.0" encoding="UTF-8" standalone="no"?>
<!DOCTYPE svg PUBLIC "-//W3C//DTD SVG 1.1//EN"
 "http://www.w3.org/Graphics/SVG/1.1/DTD/svg11.dtd">
<!-- Generated by graphviz version 8.1.0 (20230707.0739)
 -->
<!-- Title: handle_local_mount Pages: 1 -->
<svg width="584pt" height="129pt"
 viewBox="0.00 0.00 584.25 129.00" xmlns="http://www.w3.org/2000/svg" xmlns:xlink="http://www.w3.org/1999/xlink">
<g id="graph0" class="graph" transform="scale(1 1) rotate(0) translate(4 125)">
<title>handle_local_mount</title>
<!-- Node1 -->
<g id="Node000001" class="node">
<title>Node1</title>
<g id="a_Node000001"><a xlink:title=" ">
<polygon fill="#999999" stroke="#666666" points="102.25,-58 0,-58 0,-38 102.25,-38 102.25,-58"/>
<text text-anchor="middle" x="51.12" y="-44.5" font-family="Helvetica,sans-Serif" font-size="10.00">handle_local_mount</text>
</a>
</g>
</g>
<!-- Node2 -->
<g id="Node000002" class="node">
<title>Node2</title>
<g id="a_Node000002"><a xlink:href="tcfs__helper__tools_8c.html#ae930b52ef70f640efde8bda574b6b234" target="_top" xlink:title="Create a temporary folder in HOME/.tcfs.">
<polygon fill="white" stroke="#666666" points="260.75,-108 138.25,-108 138.25,-76 260.75,-76 260.75,-108"/>
<text text-anchor="start" x="146.25" y="-94.5" font-family="Helvetica,sans-Serif" font-size="10.00">create_tcfs_mount_local</text>
<text text-anchor="middle" x="199.5" y="-82.5" font-family="Helvetica,sans-Serif" font-size="10.00">_folder</text>
</a>
</g>
</g>
<!-- Node1&#45;&gt;Node2 -->
<g id="edge1_Node000001_Node000002" class="edge">
<title>Node1&#45;&gt;Node2</title>
<g id="a_edge1_Node000001_Node000002"><a xlink:title=" ">
<path fill="none" stroke="#63b8ff" d="M86.81,-58.43C100.75,-62.62 117.3,-67.59 133.32,-72.41"/>
<polygon fill="#63b8ff" stroke="#63b8ff" points="132.16,-76.01 142.75,-75.54 134.18,-69.31 132.16,-76.01"/>
</a>
</g>
</g>
<!-- Node6 -->
<g id="Node000006" class="node">
<title>Node6</title>
<g id="a_Node000006"><a xlink:href="tcfs__helper__tools_8c.html#ae1746adb62f9476a6d8166b62faa7a91" target="_top" xlink:title=" ">
<polygon fill="white" stroke="#666666" points="243.5,-58 155.5,-58 155.5,-38 243.5,-38 243.5,-58"/>
<text text-anchor="middle" x="199.5" y="-44.5" font-family="Helvetica,sans-Serif" font-size="10.00">get_source_dest</text>
</a>
</g>
</g>
<!-- Node1&#45;&gt;Node6 -->
<g id="edge5_Node000001_Node000006" class="edge">
<title>Node1&#45;&gt;Node6</title>
<g id="a_edge5_Node000001_Node000006"><a xlink:title=" ">
<path fill="none" stroke="#63b8ff" d="M102.5,-48C116.07,-48 130.81,-48 144.57,-48"/>
<polygon fill="#63b8ff" stroke="#63b8ff" points="144.35,-51.5 154.35,-48 144.35,-44.5 144.35,-51.5"/>
</a>
</g>
</g>
<!-- Node7 -->
<g id="Node000007" class="node">
<title>Node7</title>
<g id="a_Node000007"><a xlink:href="tcfs__helper__tools_8c.html#a26931b8bdf24be94e03f4d77e991d063" target="_top" xlink:title=" ">
<polygon fill="white" stroke="#666666" points="246.5,-20 152.5,-20 152.5,0 246.5,0 246.5,-20"/>
<text text-anchor="middle" x="199.5" y="-6.5" font-family="Helvetica,sans-Serif" font-size="10.00">mount_tcfs_folder</text>
</a>
</g>
</g>
<!-- Node1&#45;&gt;Node7 -->
<g id="edge6_Node000001_Node000007" class="edge">
<title>Node1&#45;&gt;Node7</title>
<g id="a_edge6_Node000001_Node000007"><a xlink:title=" ">
<path fill="none" stroke="#63b8ff" d="M92.51,-37.52C109.55,-33.09 129.58,-27.89 147.61,-23.21"/>
<polygon fill="#63b8ff" stroke="#63b8ff" points="148.45,-26.35 157.25,-20.45 146.69,-19.58 148.45,-26.35"/>
</a>
</g>
</g>
<!-- Node3 -->
<g id="Node000003" class="node">
<title>Node3</title>
<g id="a_Node000003"><a xlink:href="tcfs__helper__tools_8c.html#a3644c45d6131fe1528ce36163e299fd9" target="_top" xlink:title="Creates the .tcfs folder in the user HOME. Then this creates a folder with a random name so that crea...">
<polygon fill="white" stroke="#666666" points="420,-102 296.75,-102 296.75,-82 420,-82 420,-102"/>
<text text-anchor="middle" x="358.38" y="-88.5" font-family="Helvetica,sans-Serif" font-size="10.00">setup_tcfs_mount_folder</text>
</a>
</g>
</g>
<!-- Node2&#45;&gt;Node3 -->
<g id="edge2_Node000002_Node000003" class="edge">
<title>Node2&#45;&gt;Node3</title>
<g id="a_edge2_Node000002_Node000003"><a xlink:title=" ">
<path fill="none" stroke="#63b8ff" d="M261.15,-92C269.09,-92 277.29,-92 285.4,-92"/>
<polygon fill="#63b8ff" stroke="#63b8ff" points="285.37,-95.5 295.37,-92 285.37,-88.5 285.37,-95.5"/>
</a>
</g>
</g>
<!-- Node4 -->
<g id="Node000004" class="node">
<title>Node4</title>
<g id="a_Node000004"><a xlink:href="tcfs__helper__tools_8c.html#ab3cdcc12b3bc92a382784027c94a2027" target="_top" xlink:title="Check if a directory already exists. This function is marked as internal and should not be used by th...">
<polygon fill="white" stroke="#666666" points="558.62,-121 473.62,-121 473.62,-101 558.62,-101 558.62,-121"/>
<text text-anchor="middle" x="516.12" y="-107.5" font-family="Helvetica,sans-Serif" font-size="10.00">directory_exists</text>
</a>
</g>
</g>
<!-- Node3&#45;&gt;Node4 -->
<g id="edge3_Node000003_Node000004" class="edge">
<title>Node3&#45;&gt;Node4</title>
<g id="a_edge3_Node000003_Node000004"><a xlink:title=" ">
<path fill="none" stroke="#63b8ff" d="M420.48,-99.45C434.47,-101.16 449.22,-102.96 462.8,-104.62"/>
<polygon fill="#63b8ff" stroke="#63b8ff" points="462.05,-108.17 472.4,-105.91 462.9,-101.22 462.05,-108.17"/>
</a>
</g>
</g>
<!-- Node5 -->
<g id="Node000005" class="node">
<title>Node5</title>
<g id="a_Node000005"><a xlink:href="tcfs__helper__tools_8c.html#a8ef1473d59fd1cfc680fe1b227604a02" target="_top" xlink:title="Generate a random string that will be used as a folder name for the mount. This function is marked as...">
<polygon fill="white" stroke="#666666" points="576.25,-83 456,-83 456,-63 576.25,-63 576.25,-83"/>
<text text-anchor="middle" x="516.12" y="-69.5" font-family="Helvetica,sans-Serif" font-size="10.00">generate_random_string</text>
</a>
</g>
</g>
<!-- Node3&#45;&gt;Node5 -->
<g id="edge4_Node000003_Node000005" class="edge">
<title>Node3&#45;&gt;Node5</title>
<g id="a_edge4_Node000003_Node000005"><a xlink:title=" ">
<path fill="none" stroke="#63b8ff" d="M420.48,-84.55C428.54,-83.56 436.85,-82.55 445.05,-81.55"/>
<polygon fill="#63b8ff" stroke="#63b8ff" points="445.22,-84.93 454.72,-80.25 444.37,-77.98 445.22,-84.93"/>
</a>
</g>
</g>
<!-- Node8 -->
<g id="Node000008" class="node">
<title>Node8</title>
<g id="a_Node000008"><a xlink:href="tcfs__helper__tools_8c.html#a1bef5d2cdd74c07b3ae025c6424dfbd5" target="_top" xlink:title="fetch the password of the current user. This function is marked as internal and should not be used by...">
<polygon fill="white" stroke="#666666" points="386.25,-20 330.5,-20 330.5,0 386.25,0 386.25,-20"/>
<text text-anchor="middle" x="358.38" y="-6.5" font-family="Helvetica,sans-Serif" font-size="10.00">get_pass</text>
</a>
</g>
</g>
<!-- Node7&#45;&gt;Node8 -->
<g id="edge7_Node000007_Node000008" class="edge">
<title>Node7&#45;&gt;Node8</title>
<g id="a_edge7_Node000007_Node000008"><a xlink:title=" ">
<path fill="none" stroke="#63b8ff" d="M246.72,-10C269.81,-10 297.41,-10 319.26,-10"/>
<polygon fill="#63b8ff" stroke="#63b8ff" points="319.12,-13.5 329.12,-10 319.12,-6.5 319.12,-13.5"/>
</a>
</g>
</g>
</g>
</svg>
