<?xml version="1.0" encoding="UTF-8" standalone="no"?>
<!DOCTYPE svg PUBLIC "-//W3C//DTD SVG 1.1//EN"
 "http://www.w3.org/Graphics/SVG/1.1/DTD/svg11.dtd">
<!-- Generated by graphviz version 8.1.0 (20230707.0739)
 -->
<!-- Title: tcfs_mkdir Pages: 1 -->
<svg width="572pt" height="180pt"
 viewBox="0.00 0.00 571.75 180.00" xmlns="http://www.w3.org/2000/svg" xmlns:xlink="http://www.w3.org/1999/xlink">
<g id="graph0" class="graph" transform="scale(1 1) rotate(0) translate(4 176)">
<title>tcfs_mkdir</title>
<!-- Node1 -->
<g id="Node000001" class="node">
<title>Node1</title>
<g id="a_Node000001"><a xlink:title="Creates a directory.">
<polygon fill="#999999" stroke="#666666" points="61.75,-58 0,-58 0,-38 61.75,-38 61.75,-58"/>
<text text-anchor="middle" x="30.88" y="-44.5" font-family="Helvetica,sans-Serif" font-size="10.00">tcfs_mkdir</text>
</a>
</g>
</g>
<!-- Node2 -->
<g id="Node000002" class="node">
<title>Node2</title>
<g id="a_Node000002"><a xlink:href="crypt-utils_8c.html#ad9b10366ade9f2129ec2613fdc76df80" target="_top" xlink:title="Encrypts each part of the given path using a specified key.">
<polygon fill="white" stroke="#666666" points="170,-96 97.75,-96 97.75,-76 170,-76 170,-96"/>
<text text-anchor="middle" x="133.88" y="-82.5" font-family="Helvetica,sans-Serif" font-size="10.00">encrypt_path</text>
</a>
</g>
</g>
<!-- Node1&#45;&gt;Node2 -->
<g id="edge1_Node000001_Node000002" class="edge">
<title>Node1&#45;&gt;Node2</title>
<g id="a_edge1_Node000001_Node000002"><a xlink:title=" ">
<path fill="none" stroke="#63b8ff" d="M59.74,-58.48C70.67,-62.6 83.38,-67.38 95.11,-71.79"/>
<polygon fill="#63b8ff" stroke="#63b8ff" points="93.51,-75.3 104.1,-75.55 95.97,-68.75 93.51,-75.3"/>
</a>
</g>
</g>
<!-- Node6 -->
<g id="Node000006" class="node">
<title>Node6</title>
<g id="a_Node000006"><a xlink:href="tcfs__utils_8c.html#a62b66e43a7ad8b8cf9fcad67f71a7a8b" target="_top" xlink:title="Logs a formatted message to a file with timestamp.">
<polygon fill="white" stroke="#666666" points="563.75,-96 495.25,-96 495.25,-76 563.75,-76 563.75,-96"/>
<text text-anchor="middle" x="529.5" y="-82.5" font-family="Helvetica,sans-Serif" font-size="10.00">logMessage</text>
</a>
</g>
</g>
<!-- Node1&#45;&gt;Node6 -->
<g id="edge7_Node000001_Node000006" class="edge">
<title>Node1&#45;&gt;Node6</title>
<g id="a_edge7_Node000001_Node000006"><a xlink:title=" ">
<path fill="none" stroke="#63b8ff" d="M62.19,-50.32C146.65,-56.78 384.9,-75.01 484.19,-82.61"/>
<polygon fill="#63b8ff" stroke="#63b8ff" points="483.8,-86.17 494.04,-83.44 484.33,-79.19 483.8,-86.17"/>
</a>
</g>
</g>
<!-- Node7 -->
<g id="Node000007" class="node">
<title>Node7</title>
<g id="a_Node000007"><a xlink:href="tcfs__utils_8c.html#ac4ff59963f4a122c9f802c0c2bf2abc8" target="_top" xlink:title="Prefix the realpath to the fuse path.">
<polygon fill="white" stroke="#666666" points="165.88,-20 101.88,-20 101.88,0 165.88,0 165.88,-20"/>
<text text-anchor="middle" x="133.88" y="-6.5" font-family="Helvetica,sans-Serif" font-size="10.00">prefix_path</text>
</a>
</g>
</g>
<!-- Node1&#45;&gt;Node7 -->
<g id="edge8_Node000001_Node000007" class="edge">
<title>Node1&#45;&gt;Node7</title>
<g id="a_edge8_Node000001_Node000007"><a xlink:title=" ">
<path fill="none" stroke="#63b8ff" d="M59.74,-37.52C70.67,-33.4 83.38,-28.62 95.11,-24.21"/>
<polygon fill="#63b8ff" stroke="#63b8ff" points="95.97,-27.25 104.1,-20.45 93.51,-20.7 95.97,-27.25"/>
</a>
</g>
</g>
<!-- Node3 -->
<g id="Node000003" class="node">
<title>Node3</title>
<g id="a_Node000003"><a xlink:href="crypt-utils_8c.html#aa4a7facde8c6f63a7225c07e92232b2e" target="_top" xlink:title=" ">
<polygon fill="white" stroke="#666666" points="345.75,-134 206,-134 206,-114 345.75,-114 345.75,-134"/>
<text text-anchor="middle" x="275.88" y="-120.5" font-family="Helvetica,sans-Serif" font-size="10.00">encrypt_file_name_with_hex</text>
</a>
</g>
</g>
<!-- Node2&#45;&gt;Node3 -->
<g id="edge2_Node000002_Node000003" class="edge">
<title>Node2&#45;&gt;Node3</title>
<g id="a_edge2_Node000002_Node000003"><a xlink:title=" ">
<path fill="none" stroke="#63b8ff" d="M170.2,-95.59C187.13,-100.18 207.68,-105.76 226.07,-110.75"/>
<polygon fill="#63b8ff" stroke="#63b8ff" points="225.04,-114.37 235.61,-113.61 226.87,-107.62 225.04,-114.37"/>
</a>
</g>
</g>
<!-- Node2&#45;&gt;Node6 -->
<g id="edge6_Node000002_Node000006" class="edge">
<title>Node2&#45;&gt;Node6</title>
<g id="a_edge6_Node000002_Node000006"><a xlink:title=" ">
<path fill="none" stroke="#63b8ff" d="M170.15,-86C242.06,-86 405.44,-86 484.29,-86"/>
<polygon fill="#63b8ff" stroke="#63b8ff" points="483.84,-89.5 493.84,-86 483.84,-82.5 483.84,-89.5"/>
</a>
</g>
</g>
<!-- Node4 -->
<g id="Node000004" class="node">
<title>Node4</title>
<g id="a_Node000004"><a xlink:href="crypt-utils_8c.html#aa926098a8843cf0ab6bd7eb8b3bbd2e6" target="_top" xlink:title="Encrypt the *plaintext string using a AES 256 key.">
<polygon fill="white" stroke="#666666" points="459.25,-172 381.75,-172 381.75,-152 459.25,-152 459.25,-172"/>
<text text-anchor="middle" x="420.5" y="-158.5" font-family="Helvetica,sans-Serif" font-size="10.00">encrypt_string</text>
</a>
</g>
</g>
<!-- Node3&#45;&gt;Node4 -->
<g id="edge3_Node000003_Node000004" class="edge">
<title>Node3&#45;&gt;Node4</title>
<g id="a_edge3_Node000003_Node000004"><a xlink:title=" ">
<path fill="none" stroke="#63b8ff" d="M316.23,-134.48C333.1,-138.98 352.99,-144.28 370.78,-149.02"/>
<polygon fill="#63b8ff" stroke="#63b8ff" points="369.7,-152.62 380.26,-151.81 371.5,-145.86 369.7,-152.62"/>
</a>
</g>
</g>
<!-- Node5 -->
<g id="Node000005" class="node">
<title>Node5</title>
<g id="a_Node000005"><a xlink:href="tcfs__utils_8c.html#a819d57d5c053a25772508a943d1bcc48" target="_top" xlink:title="Convert a string to its hexadecimal representation.">
<polygon fill="white" stroke="#666666" points="457.75,-134 383.25,-134 383.25,-114 457.75,-114 457.75,-134"/>
<text text-anchor="middle" x="420.5" y="-120.5" font-family="Helvetica,sans-Serif" font-size="10.00">string_to_hex</text>
</a>
</g>
</g>
<!-- Node3&#45;&gt;Node5 -->
<g id="edge4_Node000003_Node000005" class="edge">
<title>Node3&#45;&gt;Node5</title>
<g id="a_edge4_Node000003_Node000005"><a xlink:title=" ">
<path fill="none" stroke="#63b8ff" d="M346.1,-124C354.98,-124 363.91,-124 372.32,-124"/>
<polygon fill="#63b8ff" stroke="#63b8ff" points="372.05,-127.5 382.05,-124 372.05,-120.5 372.05,-127.5"/>
</a>
</g>
</g>
<!-- Node5&#45;&gt;Node6 -->
<g id="edge5_Node000005_Node000006" class="edge">
<title>Node5&#45;&gt;Node6</title>
<g id="a_edge5_Node000005_Node000006"><a xlink:title=" ">
<path fill="none" stroke="#63b8ff" d="M451.02,-113.52C462.72,-109.36 476.34,-104.52 488.87,-100.07"/>
<polygon fill="#63b8ff" stroke="#63b8ff" points="489.82,-103.09 498.07,-96.45 487.48,-96.5 489.82,-103.09"/>
</a>
</g>
</g>
</g>
</svg>
