<?xml version="1.0" encoding="UTF-8" standalone="no"?>
<!DOCTYPE svg PUBLIC "-//W3C//DTD SVG 1.1//EN"
 "http://www.w3.org/Graphics/SVG/1.1/DTD/svg11.dtd">
<!-- Generated by graphviz version 8.1.0 (20230707.0739)
 -->
<!-- Title: userspace&#45;module/utils/tcfs_utils/tcfs_utils.h Pages: 1 -->
<svg width="401pt" height="176pt"
 viewBox="0.00 0.00 400.88 176.00" xmlns="http://www.w3.org/2000/svg" xmlns:xlink="http://www.w3.org/1999/xlink">
<g id="graph0" class="graph" transform="scale(1 1) rotate(0) translate(4 172)">
<title>userspace&#45;module/utils/tcfs_utils/tcfs_utils.h</title>
<!-- Node1 -->
<g id="Node000001" class="node">
<title>Node1</title>
<g id="a_Node000001"><a xlink:title="Header file containing utility functions used by TCFS (Transparent Cryptographic Filesystem)">
<polygon fill="#999999" stroke="#666666" points="257.88,-168 141.38,-168 141.38,-136 257.88,-136 257.88,-168"/>
<text text-anchor="start" x="149.38" y="-154.5" font-family="Helvetica,sans-Serif" font-size="10.00">userspace&#45;module/utils</text>
<text text-anchor="middle" x="199.62" y="-142.5" font-family="Helvetica,sans-Serif" font-size="10.00">/tcfs_utils/tcfs_utils.h</text>
</a>
</g>
</g>
<!-- Node2 -->
<g id="Node000002" class="node">
<title>Node2</title>
<g id="a_Node000002"><a xlink:href="tcfs_8c.html" target="_top" xlink:title=" ">
<polygon fill="white" stroke="#666666" points="123.25,-26 0,-26 0,-6 123.25,-6 123.25,-26"/>
<text text-anchor="middle" x="61.62" y="-12.5" font-family="Helvetica,sans-Serif" font-size="10.00">userspace&#45;module/tcfs.c</text>
</a>
</g>
</g>
<!-- Node1&#45;&gt;Node2 -->
<g id="edge1_Node000001_Node000002" class="edge">
<title>Node1&#45;&gt;Node2</title>
<g id="a_edge1_Node000001_Node000002"><a xlink:title=" ">
<path fill="none" stroke="#63b8ff" d="M168.37,-129.35C156.7,-120.73 143.63,-110.4 132.62,-100 106.71,-75.52 80.57,-42.23 68.51,-26.28"/>
<polygon fill="#63b8ff" stroke="#63b8ff" points="165.8,-132.54 175.95,-135.58 169.91,-126.88 165.8,-132.54"/>
</a>
</g>
</g>
<!-- Node3 -->
<g id="Node000003" class="node">
<title>Node3</title>
<g id="a_Node000003"><a xlink:href="crypt-utils_8h.html" target="_top" xlink:title="Header file for crypt&#45;utils.c, which provides functions for encryption and decryption using AES&#45;256,...">
<polygon fill="white" stroke="#666666" points="257.88,-100 141.38,-100 141.38,-68 257.88,-68 257.88,-100"/>
<text text-anchor="start" x="149.38" y="-86.5" font-family="Helvetica,sans-Serif" font-size="10.00">userspace&#45;module/utils</text>
<text text-anchor="middle" x="199.62" y="-74.5" font-family="Helvetica,sans-Serif" font-size="10.00">/crypt&#45;utils/crypt&#45;utils.h</text>
</a>
</g>
</g>
<!-- Node1&#45;&gt;Node3 -->
<g id="edge2_Node000001_Node000003" class="edge">
<title>Node1&#45;&gt;Node3</title>
<g id="a_edge2_Node000001_Node000003"><a xlink:title=" ">
<path fill="none" stroke="#63b8ff" d="M199.62,-124.89C199.62,-116.52 199.62,-107.54 199.62,-100.22"/>
<polygon fill="#63b8ff" stroke="#63b8ff" points="196.13,-124.69 199.62,-134.69 203.13,-124.69 196.13,-124.69"/>
</a>
</g>
</g>
<!-- Node5 -->
<g id="Node000005" class="node">
<title>Node5</title>
<g id="a_Node000005"><a xlink:href="tcfs__utils_8c.html" target="_top" xlink:title="This file contains an assortment of functions used by tcfs.c.">
<polygon fill="white" stroke="#666666" points="392.88,-32 276.38,-32 276.38,0 392.88,0 392.88,-32"/>
<text text-anchor="start" x="284.38" y="-18.5" font-family="Helvetica,sans-Serif" font-size="10.00">userspace&#45;module/utils</text>
<text text-anchor="middle" x="334.62" y="-6.5" font-family="Helvetica,sans-Serif" font-size="10.00">/tcfs_utils/tcfs_utils.c</text>
</a>
</g>
</g>
<!-- Node1&#45;&gt;Node5 -->
<g id="edge6_Node000001_Node000005" class="edge">
<title>Node1&#45;&gt;Node5</title>
<g id="a_edge6_Node000001_Node000005"><a xlink:title=" ">
<path fill="none" stroke="#63b8ff" d="M231,-129.48C242.68,-120.87 255.73,-110.52 266.62,-100 289.01,-78.4 311.13,-49.66 323.8,-32.29"/>
<polygon fill="#63b8ff" stroke="#63b8ff" points="229.46,-127 223.4,-135.69 233.56,-132.67 229.46,-127"/>
</a>
</g>
</g>
<!-- Node3&#45;&gt;Node2 -->
<g id="edge3_Node000003_Node000002" class="edge">
<title>Node3&#45;&gt;Node2</title>
<g id="a_edge3_Node000003_Node000002"><a xlink:title=" ">
<path fill="none" stroke="#63b8ff" d="M157.53,-62.87C132.22,-50.76 101.19,-35.92 81.41,-26.46"/>
<polygon fill="#63b8ff" stroke="#63b8ff" points="155.74,-66.37 166.27,-67.53 158.76,-60.05 155.74,-66.37"/>
</a>
</g>
</g>
<!-- Node4 -->
<g id="Node000004" class="node">
<title>Node4</title>
<g id="a_Node000004"><a xlink:href="crypt-utils_8c.html" target="_top" xlink:title="Implementation file for cryptographic utility functions.">
<polygon fill="white" stroke="#666666" points="257.88,-32 141.38,-32 141.38,0 257.88,0 257.88,-32"/>
<text text-anchor="start" x="149.38" y="-18.5" font-family="Helvetica,sans-Serif" font-size="10.00">userspace&#45;module/utils</text>
<text text-anchor="middle" x="199.62" y="-6.5" font-family="Helvetica,sans-Serif" font-size="10.00">/crypt&#45;utils/crypt&#45;utils.c</text>
</a>
</g>
</g>
<!-- Node3&#45;&gt;Node4 -->
<g id="edge4_Node000003_Node000004" class="edge">
<title>Node3&#45;&gt;Node4</title>
<g id="a_edge4_Node000003_Node000004"><a xlink:title=" ">
<path fill="none" stroke="#63b8ff" d="M199.62,-56.89C199.62,-48.52 199.62,-39.54 199.62,-32.22"/>
<polygon fill="#63b8ff" stroke="#63b8ff" points="196.13,-56.69 199.62,-66.69 203.13,-56.69 196.13,-56.69"/>
</a>
</g>
</g>
<!-- Node3&#45;&gt;Node5 -->
<g id="edge5_Node000003_Node000005" class="edge">
<title>Node3&#45;&gt;Node5</title>
<g id="a_edge5_Node000003_Node000005"><a xlink:title=" ">
<path fill="none" stroke="#63b8ff" d="M241.06,-62.74C261.07,-52.96 284.67,-41.42 303.17,-32.38"/>
<polygon fill="#63b8ff" stroke="#63b8ff" points="239.72,-59.99 232.28,-67.53 242.8,-66.28 239.72,-59.99"/>
</a>
</g>
</g>
</g>
</svg>
