<?xml version="1.0" encoding="UTF-8" standalone="no"?>
<!DOCTYPE svg PUBLIC "-//W3C//DTD SVG 1.1//EN"
 "http://www.w3.org/Graphics/SVG/1.1/DTD/svg11.dtd">
<!-- Generated by graphviz version 8.1.0 (20230707.0739)
 -->
<!-- Title: tcfs_chown Pages: 1 -->
<svg width="576pt" height="180pt"
 viewBox="0.00 0.00 576.25 180.00" xmlns="http://www.w3.org/2000/svg" xmlns:xlink="http://www.w3.org/1999/xlink">
<g id="graph0" class="graph" transform="scale(1 1) rotate(0) translate(4 176)">
<title>tcfs_chown</title>
<!-- Node1 -->
<g id="Node000001" class="node">
<title>Node1</title>
<g id="a_Node000001"><a xlink:title="Changes the owner and group of a file.">
<polygon fill="#999999" stroke="#666666" points="66.25,-58 0,-58 0,-38 66.25,-38 66.25,-58"/>
<text text-anchor="middle" x="33.12" y="-44.5" font-family="Helvetica,sans-Serif" font-size="10.00">tcfs_chown</text>
</a>
</g>
</g>
<!-- Node2 -->
<g id="Node000002" class="node">
<title>Node2</title>
<g id="a_Node000002"><a xlink:href="crypt-utils_8c.html#ad9b10366ade9f2129ec2613fdc76df80" target="_top" xlink:title="Encrypts each part of the given path using a specified key.">
<polygon fill="white" stroke="#666666" points="174.5,-96 102.25,-96 102.25,-76 174.5,-76 174.5,-96"/>
<text text-anchor="middle" x="138.38" y="-82.5" font-family="Helvetica,sans-Serif" font-size="10.00">encrypt_path</text>
</a>
</g>
</g>
<!-- Node1&#45;&gt;Node2 -->
<g id="edge1_Node000001_Node000002" class="edge">
<title>Node1&#45;&gt;Node2</title>
<g id="a_edge1_Node000001_Node000002"><a xlink:title=" ">
<path fill="none" stroke="#63b8ff" d="M62.61,-58.48C73.78,-62.6 86.78,-67.38 98.77,-71.79"/>
<polygon fill="#63b8ff" stroke="#63b8ff" points="97.39,-75.38 107.98,-75.55 99.81,-68.81 97.39,-75.38"/>
</a>
</g>
</g>
<!-- Node6 -->
<g id="Node000006" class="node">
<title>Node6</title>
<g id="a_Node000006"><a xlink:href="tcfs__utils_8c.html#a62b66e43a7ad8b8cf9fcad67f71a7a8b" target="_top" xlink:title="Logs a formatted message to a file with timestamp.">
<polygon fill="white" stroke="#666666" points="568.25,-96 499.75,-96 499.75,-76 568.25,-76 568.25,-96"/>
<text text-anchor="middle" x="534" y="-82.5" font-family="Helvetica,sans-Serif" font-size="10.00">logMessage</text>
</a>
</g>
</g>
<!-- Node1&#45;&gt;Node6 -->
<g id="edge7_Node000001_Node000006" class="edge">
<title>Node1&#45;&gt;Node6</title>
<g id="a_edge7_Node000001_Node000006"><a xlink:title=" ">
<path fill="none" stroke="#63b8ff" d="M66.47,-50.46C152.96,-57.05 389.67,-75.08 488.61,-82.62"/>
<polygon fill="#63b8ff" stroke="#63b8ff" points="488.18,-86.17 498.42,-83.44 488.71,-79.19 488.18,-86.17"/>
</a>
</g>
</g>
<!-- Node7 -->
<g id="Node000007" class="node">
<title>Node7</title>
<g id="a_Node000007"><a xlink:href="tcfs__utils_8c.html#ac4ff59963f4a122c9f802c0c2bf2abc8" target="_top" xlink:title="Prefix the realpath to the fuse path.">
<polygon fill="white" stroke="#666666" points="170.38,-20 106.38,-20 106.38,0 170.38,0 170.38,-20"/>
<text text-anchor="middle" x="138.38" y="-6.5" font-family="Helvetica,sans-Serif" font-size="10.00">prefix_path</text>
</a>
</g>
</g>
<!-- Node1&#45;&gt;Node7 -->
<g id="edge8_Node000001_Node000007" class="edge">
<title>Node1&#45;&gt;Node7</title>
<g id="a_edge8_Node000001_Node000007"><a xlink:title=" ">
<path fill="none" stroke="#63b8ff" d="M62.61,-37.52C73.78,-33.4 86.78,-28.62 98.77,-24.21"/>
<polygon fill="#63b8ff" stroke="#63b8ff" points="99.81,-27.19 107.98,-20.45 97.39,-20.62 99.81,-27.19"/>
</a>
</g>
</g>
<!-- Node3 -->
<g id="Node000003" class="node">
<title>Node3</title>
<g id="a_Node000003"><a xlink:href="crypt-utils_8c.html#aa4a7facde8c6f63a7225c07e92232b2e" target="_top" xlink:title=" ">
<polygon fill="white" stroke="#666666" points="350.25,-134 210.5,-134 210.5,-114 350.25,-114 350.25,-134"/>
<text text-anchor="middle" x="280.38" y="-120.5" font-family="Helvetica,sans-Serif" font-size="10.00">encrypt_file_name_with_hex</text>
</a>
</g>
</g>
<!-- Node2&#45;&gt;Node3 -->
<g id="edge2_Node000002_Node000003" class="edge">
<title>Node2&#45;&gt;Node3</title>
<g id="a_edge2_Node000002_Node000003"><a xlink:title=" ">
<path fill="none" stroke="#63b8ff" d="M174.7,-95.59C191.63,-100.18 212.18,-105.76 230.57,-110.75"/>
<polygon fill="#63b8ff" stroke="#63b8ff" points="229.54,-114.37 240.11,-113.61 231.37,-107.62 229.54,-114.37"/>
</a>
</g>
</g>
<!-- Node2&#45;&gt;Node6 -->
<g id="edge6_Node000002_Node000006" class="edge">
<title>Node2&#45;&gt;Node6</title>
<g id="a_edge6_Node000002_Node000006"><a xlink:title=" ">
<path fill="none" stroke="#63b8ff" d="M174.65,-86C246.56,-86 409.94,-86 488.79,-86"/>
<polygon fill="#63b8ff" stroke="#63b8ff" points="488.34,-89.5 498.34,-86 488.34,-82.5 488.34,-89.5"/>
</a>
</g>
</g>
<!-- Node4 -->
<g id="Node000004" class="node">
<title>Node4</title>
<g id="a_Node000004"><a xlink:href="crypt-utils_8c.html#aa926098a8843cf0ab6bd7eb8b3bbd2e6" target="_top" xlink:title="Encrypt the *plaintext string using a AES 256 key.">
<polygon fill="white" stroke="#666666" points="463.75,-172 386.25,-172 386.25,-152 463.75,-152 463.75,-172"/>
<text text-anchor="middle" x="425" y="-158.5" font-family="Helvetica,sans-Serif" font-size="10.00">encrypt_string</text>
</a>
</g>
</g>
<!-- Node3&#45;&gt;Node4 -->
<g id="edge3_Node000003_Node000004" class="edge">
<title>Node3&#45;&gt;Node4</title>
<g id="a_edge3_Node000003_Node000004"><a xlink:title=" ">
<path fill="none" stroke="#63b8ff" d="M320.73,-134.48C337.6,-138.98 357.49,-144.28 375.28,-149.02"/>
<polygon fill="#63b8ff" stroke="#63b8ff" points="374.2,-152.62 384.76,-151.81 376,-145.86 374.2,-152.62"/>
</a>
</g>
</g>
<!-- Node5 -->
<g id="Node000005" class="node">
<title>Node5</title>
<g id="a_Node000005"><a xlink:href="tcfs__utils_8c.html#a819d57d5c053a25772508a943d1bcc48" target="_top" xlink:title="Convert a string to its hexadecimal representation.">
<polygon fill="white" stroke="#666666" points="462.25,-134 387.75,-134 387.75,-114 462.25,-114 462.25,-134"/>
<text text-anchor="middle" x="425" y="-120.5" font-family="Helvetica,sans-Serif" font-size="10.00">string_to_hex</text>
</a>
</g>
</g>
<!-- Node3&#45;&gt;Node5 -->
<g id="edge4_Node000003_Node000005" class="edge">
<title>Node3&#45;&gt;Node5</title>
<g id="a_edge4_Node000003_Node000005"><a xlink:title=" ">
<path fill="none" stroke="#63b8ff" d="M350.6,-124C359.48,-124 368.41,-124 376.82,-124"/>
<polygon fill="#63b8ff" stroke="#63b8ff" points="376.55,-127.5 386.55,-124 376.55,-120.5 376.55,-127.5"/>
</a>
</g>
</g>
<!-- Node5&#45;&gt;Node6 -->
<g id="edge5_Node000005_Node000006" class="edge">
<title>Node5&#45;&gt;Node6</title>
<g id="a_edge5_Node000005_Node000006"><a xlink:title=" ">
<path fill="none" stroke="#63b8ff" d="M455.52,-113.52C467.22,-109.36 480.84,-104.52 493.37,-100.07"/>
<polygon fill="#63b8ff" stroke="#63b8ff" points="494.32,-103.09 502.57,-96.45 491.98,-96.5 494.32,-103.09"/>
</a>
</g>
</g>
</g>
</svg>
