<?xml version="1.0" encoding="UTF-8" standalone="no"?>
<!DOCTYPE svg PUBLIC "-//W3C//DTD SVG 1.1//EN"
 "http://www.w3.org/Graphics/SVG/1.1/DTD/svg11.dtd">
<!-- Generated by graphviz version 8.1.0 (20230707.0739)
 -->
<!-- Title: user/old_stuff/user_tcfs.c Pages: 1 -->
<svg width="617pt" height="152pt"
 viewBox="0.00 0.00 617.12 152.00" xmlns="http://www.w3.org/2000/svg" xmlns:xlink="http://www.w3.org/1999/xlink">
<g id="graph0" class="graph" transform="scale(1 1) rotate(0) translate(4 148)">
<title>user/old_stuff/user_tcfs.c</title>
<!-- Node1 -->
<g id="Node000001" class="node">
<title>Node1</title>
<g id="a_Node000001"><a xlink:title="Help the user that wants to use TCFS.">
<polygon fill="#999999" stroke="#666666" points="229.75,-144 133.5,-144 133.5,-112 229.75,-112 229.75,-144"/>
<text text-anchor="start" x="141.5" y="-130.5" font-family="Helvetica,sans-Serif" font-size="10.00">user/old_stuff/user</text>
<text text-anchor="middle" x="181.62" y="-118.5" font-family="Helvetica,sans-Serif" font-size="10.00">_tcfs.c</text>
</a>
</g>
</g>
<!-- Node2 -->
<g id="Node000002" class="node">
<title>Node2</title>
<g id="a_Node000002"><a xlink:href="tcfs__helper__tools_8h.html" target="_top" xlink:title=" ">
<polygon fill="white" stroke="#666666" points="269.88,-76 171.38,-76 171.38,-56 269.88,-56 269.88,-76"/>
<text text-anchor="middle" x="220.62" y="-62.5" font-family="Helvetica,sans-Serif" font-size="10.00">tcfs_helper_tools.h</text>
</a>
</g>
</g>
<!-- Node1&#45;&gt;Node2 -->
<g id="edge1_Node000001_Node000002" class="edge">
<title>Node1&#45;&gt;Node2</title>
<g id="a_edge1_Node000001_Node000002"><a xlink:title=" ">
<path fill="none" stroke="#63b8ff" d="M191.67,-111.55C196.86,-103.56 203.23,-93.76 208.67,-85.39"/>
<polygon fill="#63b8ff" stroke="#63b8ff" points="211.99,-87.7 214.51,-77.41 206.13,-83.88 211.99,-87.7"/>
</a>
</g>
</g>
<!-- Node4 -->
<g id="Node000004" class="node">
<title>Node4</title>
<g id="a_Node000004"><a xlink:title=" ">
<polygon fill="#e0e0e0" stroke="#999999" points="45.25,-20 0,-20 0,0 45.25,0 45.25,-20"/>
<text text-anchor="middle" x="22.62" y="-6.5" font-family="Helvetica,sans-Serif" font-size="10.00">stdio.h</text>
</a>
</g>
</g>
<!-- Node1&#45;&gt;Node4 -->
<g id="edge12_Node000001_Node000004" class="edge">
<title>Node1&#45;&gt;Node4</title>
<g id="a_edge12_Node000001_Node000004"><a xlink:title=" ">
<path fill="none" stroke="#63b8ff" d="M160.51,-111.6C130.2,-89.48 74.63,-48.94 44.11,-26.68"/>
<polygon fill="#63b8ff" stroke="#63b8ff" points="46.64,-23.46 36.5,-20.39 42.52,-29.11 46.64,-23.46"/>
</a>
</g>
</g>
<!-- Node5 -->
<g id="Node000005" class="node">
<title>Node5</title>
<g id="a_Node000005"><a xlink:title=" ">
<polygon fill="#e0e0e0" stroke="#999999" points="110.38,-20 62.88,-20 62.88,0 110.38,0 110.38,-20"/>
<text text-anchor="middle" x="86.62" y="-6.5" font-family="Helvetica,sans-Serif" font-size="10.00">stdlib.h</text>
</a>
</g>
</g>
<!-- Node1&#45;&gt;Node5 -->
<g id="edge13_Node000001_Node000005" class="edge">
<title>Node1&#45;&gt;Node5</title>
<g id="a_edge13_Node000001_Node000005"><a xlink:title=" ">
<path fill="none" stroke="#63b8ff" d="M169.21,-111.84C151.7,-90.46 119.83,-51.55 101.22,-28.82"/>
<polygon fill="#63b8ff" stroke="#63b8ff" points="103.4,-26.96 94.35,-21.44 97.98,-31.39 103.4,-26.96"/>
</a>
</g>
</g>
<!-- Node12 -->
<g id="Node000012" class="node">
<title>Node12</title>
<g id="a_Node000012"><a xlink:title=" ">
<polygon fill="#e0e0e0" stroke="#999999" points="331.12,-76 288.12,-76 288.12,-56 331.12,-56 331.12,-76"/>
<text text-anchor="middle" x="309.62" y="-62.5" font-family="Helvetica,sans-Serif" font-size="10.00">argp.h</text>
</a>
</g>
</g>
<!-- Node1&#45;&gt;Node12 -->
<g id="edge11_Node000001_Node000012" class="edge">
<title>Node1&#45;&gt;Node12</title>
<g id="a_edge11_Node000001_Node000012"><a xlink:title=" ">
<path fill="none" stroke="#63b8ff" d="M214.59,-111.55C234.68,-102.13 260.16,-90.19 279.67,-81.04"/>
<polygon fill="#63b8ff" stroke="#63b8ff" points="280.99,-83.82 288.55,-76.41 278.01,-77.48 280.99,-83.82"/>
</a>
</g>
</g>
<!-- Node3 -->
<g id="Node000003" class="node">
<title>Node3</title>
<g id="a_Node000003"><a xlink:title=" ">
<polygon fill="#e0e0e0" stroke="#999999" points="244.38,-20 196.88,-20 196.88,0 244.38,0 244.38,-20"/>
<text text-anchor="middle" x="220.62" y="-6.5" font-family="Helvetica,sans-Serif" font-size="10.00">limits.h</text>
</a>
</g>
</g>
<!-- Node2&#45;&gt;Node3 -->
<g id="edge2_Node000002_Node000003" class="edge">
<title>Node2&#45;&gt;Node3</title>
<g id="a_edge2_Node000002_Node000003"><a xlink:title=" ">
<path fill="none" stroke="#63b8ff" d="M220.62,-55.59C220.62,-48.86 220.62,-39.53 220.62,-31.15"/>
<polygon fill="#63b8ff" stroke="#63b8ff" points="224.13,-31.3 220.62,-21.3 217.13,-31.3 224.13,-31.3"/>
</a>
</g>
</g>
<!-- Node2&#45;&gt;Node4 -->
<g id="edge3_Node000002_Node000004" class="edge">
<title>Node2&#45;&gt;Node4</title>
<g id="a_edge3_Node000002_Node000004"><a xlink:title=" ">
<path fill="none" stroke="#63b8ff" d="M184.74,-55.54C153.13,-47.17 105.58,-34.46 56.19,-20.69"/>
<polygon fill="#63b8ff" stroke="#63b8ff" points="57.21,-17.06 46.63,-17.73 55.32,-23.8 57.21,-17.06"/>
</a>
</g>
</g>
<!-- Node2&#45;&gt;Node5 -->
<g id="edge4_Node000002_Node000005" class="edge">
<title>Node2&#45;&gt;Node5</title>
<g id="a_edge4_Node000002_Node000005"><a xlink:title=" ">
<path fill="none" stroke="#63b8ff" d="M197.28,-55.59C175.99,-47.01 144.28,-34.23 120.25,-24.55"/>
<polygon fill="#63b8ff" stroke="#63b8ff" points="121.73,-20.97 111.15,-20.48 119.12,-27.46 121.73,-20.97"/>
</a>
</g>
</g>
<!-- Node6 -->
<g id="Node000006" class="node">
<title>Node6</title>
<g id="a_Node000006"><a xlink:title=" ">
<polygon fill="#e0e0e0" stroke="#999999" points="310.75,-20 262.5,-20 262.5,0 310.75,0 310.75,-20"/>
<text text-anchor="middle" x="286.62" y="-6.5" font-family="Helvetica,sans-Serif" font-size="10.00">string.h</text>
</a>
</g>
</g>
<!-- Node2&#45;&gt;Node6 -->
<g id="edge5_Node000002_Node000006" class="edge">
<title>Node2&#45;&gt;Node6</title>
<g id="a_edge5_Node000002_Node000006"><a xlink:title=" ">
<path fill="none" stroke="#63b8ff" d="M232.12,-55.59C241.68,-47.77 255.5,-36.46 266.83,-27.19"/>
<polygon fill="#63b8ff" stroke="#63b8ff" points="268.74,-29.34 274.26,-20.3 264.3,-23.92 268.74,-29.34"/>
</a>
</g>
</g>
<!-- Node7 -->
<g id="Node000007" class="node">
<title>Node7</title>
<g id="a_Node000007"><a xlink:title=" ">
<polygon fill="#e0e0e0" stroke="#999999" points="388.38,-20 328.88,-20 328.88,0 388.38,0 388.38,-20"/>
<text text-anchor="middle" x="358.62" y="-6.5" font-family="Helvetica,sans-Serif" font-size="10.00">sys/stat.h</text>
</a>
</g>
</g>
<!-- Node2&#45;&gt;Node7 -->
<g id="edge6_Node000002_Node000007" class="edge">
<title>Node2&#45;&gt;Node7</title>
<g id="a_edge6_Node000002_Node000007"><a xlink:title=" ">
<path fill="none" stroke="#63b8ff" d="M244.66,-55.59C266.69,-46.97 299.55,-34.12 324.33,-24.42"/>
<polygon fill="#63b8ff" stroke="#63b8ff" points="325.36,-27.38 333.4,-20.48 322.81,-20.86 325.36,-27.38"/>
</a>
</g>
</g>
<!-- Node8 -->
<g id="Node000008" class="node">
<title>Node8</title>
<g id="a_Node000008"><a xlink:title=" ">
<polygon fill="#e0e0e0" stroke="#999999" points="473.12,-20 406.12,-20 406.12,0 473.12,0 473.12,-20"/>
<text text-anchor="middle" x="439.62" y="-6.5" font-family="Helvetica,sans-Serif" font-size="10.00">sys/types.h</text>
</a>
</g>
</g>
<!-- Node2&#45;&gt;Node8 -->
<g id="edge7_Node000002_Node000008" class="edge">
<title>Node2&#45;&gt;Node8</title>
<g id="a_edge7_Node000002_Node000008"><a xlink:title=" ">
<path fill="none" stroke="#63b8ff" d="M259.02,-55.53C297.12,-46.14 355.44,-31.76 395.43,-21.9"/>
<polygon fill="#63b8ff" stroke="#63b8ff" points="396.07,-25.1 404.94,-19.3 394.4,-18.3 396.07,-25.1"/>
</a>
</g>
</g>
<!-- Node9 -->
<g id="Node000009" class="node">
<title>Node9</title>
<g id="a_Node000009"><a xlink:title=" ">
<polygon fill="#e0e0e0" stroke="#999999" points="547.88,-20 491.38,-20 491.38,0 547.88,0 547.88,-20"/>
<text text-anchor="middle" x="519.62" y="-6.5" font-family="Helvetica,sans-Serif" font-size="10.00">termios.h</text>
</a>
</g>
</g>
<!-- Node2&#45;&gt;Node9 -->
<g id="edge8_Node000002_Node000009" class="edge">
<title>Node2&#45;&gt;Node9</title>
<g id="a_edge8_Node000002_Node000009"><a xlink:title=" ">
<path fill="none" stroke="#63b8ff" d="M270.29,-56.89C330.16,-47.04 428.35,-30.66 480.33,-20.34"/>
<polygon fill="#63b8ff" stroke="#63b8ff" points="480.88,-23.59 489.99,-18.17 479.49,-16.73 480.88,-23.59"/>
</a>
</g>
</g>
<!-- Node10 -->
<g id="Node000010" class="node">
<title>Node10</title>
<g id="a_Node000010"><a xlink:title=" ">
<polygon fill="#e0e0e0" stroke="#999999" points="609.12,-20 566.12,-20 566.12,0 609.12,0 609.12,-20"/>
<text text-anchor="middle" x="587.62" y="-6.5" font-family="Helvetica,sans-Serif" font-size="10.00">time.h</text>
</a>
</g>
</g>
<!-- Node2&#45;&gt;Node10 -->
<g id="edge9_Node000002_Node000010" class="edge">
<title>Node2&#45;&gt;Node10</title>
<g id="a_edge9_Node000002_Node000010"><a xlink:title=" ">
<path fill="none" stroke="#63b8ff" d="M270.19,-57.36C273.38,-56.89 276.55,-56.43 279.62,-56 399.19,-39.11 433.25,-45.03 555.22,-20"/>
<polygon fill="#63b8ff" stroke="#63b8ff" points="555.64,-23.28 564.71,-17.81 554.21,-16.42 555.64,-23.28"/>
</a>
</g>
</g>
<!-- Node11 -->
<g id="Node000011" class="node">
<title>Node11</title>
<g id="a_Node000011"><a xlink:title=" ">
<polygon fill="#e0e0e0" stroke="#999999" points="178.88,-20 128.38,-20 128.38,0 178.88,0 178.88,-20"/>
<text text-anchor="middle" x="153.62" y="-6.5" font-family="Helvetica,sans-Serif" font-size="10.00">unistd.h</text>
</a>
</g>
</g>
<!-- Node2&#45;&gt;Node11 -->
<g id="edge10_Node000002_Node000011" class="edge">
<title>Node2&#45;&gt;Node11</title>
<g id="a_edge10_Node000002_Node000011"><a xlink:title=" ">
<path fill="none" stroke="#63b8ff" d="M208.95,-55.59C199.25,-47.77 185.22,-36.46 173.72,-27.19"/>
<polygon fill="#63b8ff" stroke="#63b8ff" points="176.14,-23.85 166.16,-20.3 171.75,-29.3 176.14,-23.85"/>
</a>
</g>
</g>
</g>
</svg>
