<?xml version="1.0" encoding="UTF-8" standalone="no"?>
<!DOCTYPE svg PUBLIC "-//W3C//DTD SVG 1.1//EN"
 "http://www.w3.org/Graphics/SVG/1.1/DTD/svg11.dtd">
<!-- Generated by graphviz version 7.1.0 (0)
 -->
<!-- Title: daemon/daemon_utils/common_utils/db/user_db.c Pages: 1 -->
<svg width="705pt" height="324pt"
 viewBox="0.00 0.00 704.50 324.00" xmlns="http://www.w3.org/2000/svg" xmlns:xlink="http://www.w3.org/1999/xlink">
<g id="graph0" class="graph" transform="scale(1 1) rotate(0) translate(4 320)">
<title>daemon/daemon_utils/common_utils/db/user_db.c</title>
<!-- Node1 -->
<g id="Node000001" class="node">
<title>Node1</title>
<g id="a_Node000001"><a xlink:title="This file contains the functions to interact with the database.">
<polygon fill="#999999" stroke="#666666" points="463.5,-316 323.5,-316 323.5,-286 463.5,-286 463.5,-316"/>
<text text-anchor="start" x="331.5" y="-304" font-family="Helvetica,sans-Serif" font-size="10.00">daemon/daemon_utils</text>
<text text-anchor="middle" x="393.5" y="-293" font-family="Helvetica,sans-Serif" font-size="10.00">/common_utils/db/user_db.c</text>
</a>
</g>
</g>
<!-- Node2 -->
<g id="Node000002" class="node">
<title>Node2</title>
<g id="a_Node000002"><a xlink:href="user__db_8h_source.html" target="_top" xlink:title=" ">
<polygon fill="white" stroke="#666666" points="460,-250 401,-250 401,-231 460,-231 460,-250"/>
<text text-anchor="middle" x="430.5" y="-238" font-family="Helvetica,sans-Serif" font-size="10.00">user_db.h</text>
</a>
</g>
</g>
<!-- Node1&#45;&gt;Node2 -->
<g id="edge1_Node000001_Node000002" class="edge">
<title>Node1&#45;&gt;Node2</title>
<g id="a_edge1_Node000001_Node000002"><a xlink:title=" ">
<path fill="none" stroke="#63b8ff" d="M402.65,-285.54C407.58,-277.74 413.72,-268.03 418.98,-259.71"/>
<polygon fill="#63b8ff" stroke="#63b8ff" points="421.82,-261.78 424.2,-251.45 415.9,-258.03 421.82,-261.78"/>
</a>
</g>
</g>
<!-- Node17 -->
<g id="Node000017" class="node">
<title>Node17</title>
<g id="a_Node000017"><a xlink:href="redis_8h_source.html" target="_top" xlink:title=" ">
<polygon fill="white" stroke="#666666" points="371.5,-195 325.5,-195 325.5,-176 371.5,-176 371.5,-195"/>
<text text-anchor="middle" x="348.5" y="-183" font-family="Helvetica,sans-Serif" font-size="10.00">redis.h</text>
</a>
</g>
</g>
<!-- Node1&#45;&gt;Node17 -->
<g id="edge21_Node000001_Node000017" class="edge">
<title>Node1&#45;&gt;Node17</title>
<g id="a_edge21_Node000001_Node000017"><a xlink:title=" ">
<path fill="none" stroke="#63b8ff" d="M387.8,-285.63C379.78,-265.4 365.15,-228.49 356.18,-205.86"/>
<polygon fill="#63b8ff" stroke="#63b8ff" points="359.46,-204.64 352.52,-196.64 352.95,-207.22 359.46,-204.64"/>
</a>
</g>
</g>
<!-- Node3 -->
<g id="Node000003" class="node">
<title>Node3</title>
<g id="a_Node000003"><a xlink:href="queue_8h_source.html" target="_top" xlink:title=" ">
<polygon fill="white" stroke="#666666" points="502.5,-195 404.5,-195 404.5,-176 502.5,-176 502.5,-195"/>
<text text-anchor="middle" x="453.5" y="-183" font-family="Helvetica,sans-Serif" font-size="10.00">../../queue/queue.h</text>
</a>
</g>
</g>
<!-- Node2&#45;&gt;Node3 -->
<g id="edge2_Node000002_Node000003" class="edge">
<title>Node2&#45;&gt;Node3</title>
<g id="a_edge2_Node000002_Node000003"><a xlink:title=" ">
<path fill="none" stroke="#63b8ff" d="M434.3,-230.75C437.24,-223.96 441.44,-214.3 445.15,-205.73"/>
<polygon fill="#63b8ff" stroke="#63b8ff" points="448.25,-207.4 449.02,-196.83 441.83,-204.61 448.25,-207.4"/>
</a>
</g>
</g>
<!-- Node4 -->
<g id="Node000004" class="node">
<title>Node4</title>
<g id="a_Node000004"><a xlink:href="common_8h.html" target="_top" xlink:title="This file contains some common definitions and structs used by the daemon.">
<polygon fill="white" stroke="#666666" points="325,-74 254,-74 254,-55 325,-55 325,-74"/>
<text text-anchor="middle" x="289.5" y="-62" font-family="Helvetica,sans-Serif" font-size="10.00">../common.h</text>
</a>
</g>
</g>
<!-- Node3&#45;&gt;Node4 -->
<g id="edge3_Node000003_Node000004" class="edge">
<title>Node3&#45;&gt;Node4</title>
<g id="a_edge3_Node000003_Node000004"><a xlink:title=" ">
<path fill="none" stroke="#63b8ff" d="M404.19,-176.17C378.89,-169.81 348.97,-158.8 327.5,-140 310.8,-125.37 300.49,-101.65 294.9,-84.9"/>
<polygon fill="#63b8ff" stroke="#63b8ff" points="298.34,-84.17 292.08,-75.63 291.64,-86.21 298.34,-84.17"/>
</a>
</g>
</g>
<!-- Node12 -->
<g id="Node000012" class="node">
<title>Node12</title>
<g id="a_Node000012"><a xlink:href="json__tools_8h_source.html" target="_top" xlink:title=" ">
<polygon fill="white" stroke="#666666" points="444,-140 337,-140 337,-110 444,-110 444,-140"/>
<text text-anchor="start" x="345" y="-128" font-family="Helvetica,sans-Serif" font-size="10.00">../common_utils/json</text>
<text text-anchor="middle" x="390.5" y="-117" font-family="Helvetica,sans-Serif" font-size="10.00">/json_tools.h</text>
</a>
</g>
</g>
<!-- Node3&#45;&gt;Node12 -->
<g id="edge11_Node000003_Node000012" class="edge">
<title>Node3&#45;&gt;Node12</title>
<g id="a_edge11_Node000003_Node000012"><a xlink:title=" ">
<path fill="none" stroke="#63b8ff" d="M443.93,-175.62C436.08,-168.32 424.62,-157.68 414.32,-148.12"/>
<polygon fill="#63b8ff" stroke="#63b8ff" points="416.87,-145.71 407.16,-141.47 412.11,-150.84 416.87,-145.71"/>
</a>
</g>
</g>
<!-- Node13 -->
<g id="Node000013" class="node">
<title>Node13</title>
<g id="a_Node000013"><a xlink:href="print__utils_8h_source.html" target="_top" xlink:title=" ">
<polygon fill="white" stroke="#666666" points="570.5,-140 462.5,-140 462.5,-110 570.5,-110 570.5,-140"/>
<text text-anchor="start" x="470.5" y="-128" font-family="Helvetica,sans-Serif" font-size="10.00">../common_utils/print</text>
<text text-anchor="middle" x="516.5" y="-117" font-family="Helvetica,sans-Serif" font-size="10.00">/print_utils.h</text>
</a>
</g>
</g>
<!-- Node3&#45;&gt;Node13 -->
<g id="edge13_Node000003_Node000013" class="edge">
<title>Node3&#45;&gt;Node13</title>
<g id="a_edge13_Node000003_Node000013"><a xlink:title=" ">
<path fill="none" stroke="#63b8ff" d="M463.07,-175.62C470.92,-168.32 482.38,-157.68 492.68,-148.12"/>
<polygon fill="#63b8ff" stroke="#63b8ff" points="494.89,-150.84 499.84,-141.47 490.13,-145.71 494.89,-150.84"/>
</a>
</g>
</g>
<!-- Node14 -->
<g id="Node000014" class="node">
<title>Node14</title>
<g id="a_Node000014"><a xlink:title=" ">
<polygon fill="#e0e0e0" stroke="#999999" points="630.5,-74 584.5,-74 584.5,-55 630.5,-55 630.5,-74"/>
<text text-anchor="middle" x="607.5" y="-62" font-family="Helvetica,sans-Serif" font-size="10.00">stdio.h</text>
</a>
</g>
</g>
<!-- Node3&#45;&gt;Node14 -->
<g id="edge19_Node000003_Node000014" class="edge">
<title>Node3&#45;&gt;Node14</title>
<g id="a_edge19_Node000003_Node000014"><a xlink:title=" ">
<path fill="none" stroke="#63b8ff" d="M502.76,-177.34C528.51,-171.3 558.87,-160.22 579.5,-140 594.44,-125.36 601.5,-101.97 604.78,-85.31"/>
<polygon fill="#63b8ff" stroke="#63b8ff" points="608.2,-86.07 606.37,-75.63 601.29,-84.93 608.2,-86.07"/>
</a>
</g>
</g>
<!-- Node15 -->
<g id="Node000015" class="node">
<title>Node15</title>
<g id="a_Node000015"><a xlink:title=" ">
<polygon fill="#e0e0e0" stroke="#999999" points="696.5,-74 648.5,-74 648.5,-55 696.5,-55 696.5,-74"/>
<text text-anchor="middle" x="672.5" y="-62" font-family="Helvetica,sans-Serif" font-size="10.00">stdlib.h</text>
</a>
</g>
</g>
<!-- Node3&#45;&gt;Node15 -->
<g id="edge20_Node000003_Node000015" class="edge">
<title>Node3&#45;&gt;Node15</title>
<g id="a_edge20_Node000003_Node000015"><a xlink:title=" ">
<path fill="none" stroke="#63b8ff" d="M502.83,-176.55C533.22,-170.06 572.07,-158.8 602.5,-140 626.48,-125.19 647.65,-100.08 660.27,-83.15"/>
<polygon fill="#63b8ff" stroke="#63b8ff" points="662.77,-85.66 665.78,-75.5 657.09,-81.57 662.77,-85.66"/>
</a>
</g>
</g>
<!-- Node5 -->
<g id="Node000005" class="node">
<title>Node5</title>
<g id="a_Node000005"><a xlink:title=" ">
<polygon fill="#e0e0e0" stroke="#999999" points="422.5,-19 362.5,-19 362.5,0 422.5,0 422.5,-19"/>
<text text-anchor="middle" x="392.5" y="-7" font-family="Helvetica,sans-Serif" font-size="10.00">sys/stat.h</text>
</a>
</g>
</g>
<!-- Node4&#45;&gt;Node5 -->
<g id="edge4_Node000004_Node000005" class="edge">
<title>Node4&#45;&gt;Node5</title>
<g id="a_edge4_Node000004_Node000005"><a xlink:title=" ">
<path fill="none" stroke="#63b8ff" d="M306.97,-54.51C322.9,-46.31 346.69,-34.07 365.14,-24.58"/>
<polygon fill="#63b8ff" stroke="#63b8ff" points="366.65,-27.74 373.94,-20.05 363.45,-21.51 366.65,-27.74"/>
</a>
</g>
</g>
<!-- Node6 -->
<g id="Node000006" class="node">
<title>Node6</title>
<g id="a_Node000006"><a xlink:title=" ">
<polygon fill="#e0e0e0" stroke="#999999" points="135.5,-19 67.5,-19 67.5,0 135.5,0 135.5,-19"/>
<text text-anchor="middle" x="101.5" y="-7" font-family="Helvetica,sans-Serif" font-size="10.00">sys/types.h</text>
</a>
</g>
</g>
<!-- Node4&#45;&gt;Node6 -->
<g id="edge5_Node000004_Node000006" class="edge">
<title>Node4&#45;&gt;Node6</title>
<g id="a_edge5_Node000004_Node000006"><a xlink:title=" ">
<path fill="none" stroke="#63b8ff" d="M257.61,-54.51C226.32,-45.69 178.41,-32.18 143.92,-22.46"/>
<polygon fill="#63b8ff" stroke="#63b8ff" points="145.27,-19.2 134.69,-19.86 143.37,-25.94 145.27,-19.2"/>
</a>
</g>
</g>
<!-- Node7 -->
<g id="Node000007" class="node">
<title>Node7</title>
<g id="a_Node000007"><a xlink:title=" ">
<polygon fill="#e0e0e0" stroke="#999999" points="197.5,-19 153.5,-19 153.5,0 197.5,0 197.5,-19"/>
<text text-anchor="middle" x="175.5" y="-7" font-family="Helvetica,sans-Serif" font-size="10.00">fcntl.h</text>
</a>
</g>
</g>
<!-- Node4&#45;&gt;Node7 -->
<g id="edge6_Node000004_Node000007" class="edge">
<title>Node4&#45;&gt;Node7</title>
<g id="a_edge6_Node000004_Node000007"><a xlink:title=" ">
<path fill="none" stroke="#63b8ff" d="M270.16,-54.51C252.28,-46.2 225.46,-33.73 204.93,-24.18"/>
<polygon fill="#63b8ff" stroke="#63b8ff" points="206.47,-21.04 195.93,-20 203.52,-27.39 206.47,-21.04"/>
</a>
</g>
</g>
<!-- Node8 -->
<g id="Node000008" class="node">
<title>Node8</title>
<g id="a_Node000008"><a xlink:title=" ">
<polygon fill="#e0e0e0" stroke="#999999" points="275,-19 216,-19 216,0 275,0 275,-19"/>
<text text-anchor="middle" x="245.5" y="-7" font-family="Helvetica,sans-Serif" font-size="10.00">mqueue.h</text>
</a>
</g>
</g>
<!-- Node4&#45;&gt;Node8 -->
<g id="edge7_Node000004_Node000008" class="edge">
<title>Node4&#45;&gt;Node8</title>
<g id="a_edge7_Node000004_Node000008"><a xlink:title=" ">
<path fill="none" stroke="#63b8ff" d="M282.23,-54.75C276.22,-47.5 267.49,-36.98 260.04,-28.02"/>
<polygon fill="#63b8ff" stroke="#63b8ff" points="262.97,-26.07 253.89,-20.61 257.58,-30.54 262.97,-26.07"/>
</a>
</g>
</g>
<!-- Node9 -->
<g id="Node000009" class="node">
<title>Node9</title>
<g id="a_Node000009"><a xlink:title=" ">
<polygon fill="#e0e0e0" stroke="#999999" points="344,-19 293,-19 293,0 344,0 344,-19"/>
<text text-anchor="middle" x="318.5" y="-7" font-family="Helvetica,sans-Serif" font-size="10.00">unistd.h</text>
</a>
</g>
</g>
<!-- Node4&#45;&gt;Node9 -->
<g id="edge8_Node000004_Node000009" class="edge">
<title>Node4&#45;&gt;Node9</title>
<g id="a_edge8_Node000004_Node000009"><a xlink:title=" ">
<path fill="none" stroke="#63b8ff" d="M294.29,-54.75C298.04,-47.88 303.41,-38.08 308.13,-29.45"/>
<polygon fill="#63b8ff" stroke="#63b8ff" points="311.15,-31.22 312.88,-20.77 305.01,-27.86 311.15,-31.22"/>
</a>
</g>
</g>
<!-- Node10 -->
<g id="Node000010" class="node">
<title>Node10</title>
<g id="a_Node000010"><a xlink:title=" ">
<polygon fill="#e0e0e0" stroke="#999999" points="49,-19 0,-19 0,0 49,0 49,-19"/>
<text text-anchor="middle" x="24.5" y="-7" font-family="Helvetica,sans-Serif" font-size="10.00">string.h</text>
</a>
</g>
</g>
<!-- Node4&#45;&gt;Node10 -->
<g id="edge9_Node000004_Node000010" class="edge">
<title>Node4&#45;&gt;Node10</title>
<g id="a_edge9_Node000004_Node000010"><a xlink:title=" ">
<path fill="none" stroke="#63b8ff" d="M253.76,-57.24C210.39,-49.51 134.8,-35.6 60.32,-19.3"/>
<polygon fill="#63b8ff" stroke="#63b8ff" points="61.34,-15.94 50.82,-17.2 59.83,-22.78 61.34,-15.94"/>
</a>
</g>
</g>
<!-- Node11 -->
<g id="Node000011" class="node">
<title>Node11</title>
<g id="a_Node000011"><a xlink:title=" ">
<polygon fill="#e0e0e0" stroke="#999999" points="488,-19 441,-19 441,0 488,0 488,-19"/>
<text text-anchor="middle" x="464.5" y="-7" font-family="Helvetica,sans-Serif" font-size="10.00">errno.h</text>
</a>
</g>
</g>
<!-- Node4&#45;&gt;Node11 -->
<g id="edge10_Node000004_Node000011" class="edge">
<title>Node4&#45;&gt;Node11</title>
<g id="a_edge10_Node000004_Node000011"><a xlink:title=" ">
<path fill="none" stroke="#63b8ff" d="M319.19,-54.51C349.8,-45.24 397.52,-30.79 429.84,-21"/>
<polygon fill="#63b8ff" stroke="#63b8ff" points="430.58,-24.43 439.14,-18.18 428.55,-17.73 430.58,-24.43"/>
</a>
</g>
</g>
<!-- Node12&#45;&gt;Node4 -->
<g id="edge12_Node000012_Node000004" class="edge">
<title>Node12&#45;&gt;Node4</title>
<g id="a_edge12_Node000012_Node000004"><a xlink:title=" ">
<path fill="none" stroke="#63b8ff" d="M365.53,-109.54C350.06,-100.58 330.25,-89.1 314.73,-80.11"/>
<polygon fill="#63b8ff" stroke="#63b8ff" points="316.49,-77.09 306.08,-75.1 312.98,-83.15 316.49,-77.09"/>
</a>
</g>
</g>
<!-- Node13&#45;&gt;Node5 -->
<g id="edge17_Node000013_Node000005" class="edge">
<title>Node13&#45;&gt;Node5</title>
<g id="a_edge17_Node000013_Node000005"><a xlink:title=" ">
<path fill="none" stroke="#63b8ff" d="M491.1,-109.56C476.11,-100.4 457.26,-87.72 442.5,-74 427.76,-60.3 413.84,-42.01 404.45,-28.59"/>
<polygon fill="#63b8ff" stroke="#63b8ff" points="407.58,-26.97 399.06,-20.67 401.8,-30.91 407.58,-26.97"/>
</a>
</g>
</g>
<!-- Node13&#45;&gt;Node11 -->
<g id="edge14_Node000013_Node000011" class="edge">
<title>Node13&#45;&gt;Node11</title>
<g id="a_edge14_Node000013_Node000011"><a xlink:title=" ">
<path fill="none" stroke="#63b8ff" d="M486.12,-109.63C472.26,-101.33 457.24,-89.44 449.5,-74 442.43,-59.9 447.49,-42.36 453.57,-29.29"/>
<polygon fill="#63b8ff" stroke="#63b8ff" points="456.64,-30.97 458.2,-20.49 450.45,-27.71 456.64,-30.97"/>
</a>
</g>
</g>
<!-- Node13&#45;&gt;Node14 -->
<g id="edge15_Node000013_Node000014" class="edge">
<title>Node13&#45;&gt;Node14</title>
<g id="a_edge15_Node000013_Node000014"><a xlink:title=" ">
<path fill="none" stroke="#63b8ff" d="M538.99,-109.54C552.8,-100.66 570.44,-89.32 584.37,-80.37"/>
<polygon fill="#63b8ff" stroke="#63b8ff" points="585.95,-83.52 592.47,-75.16 582.16,-77.63 585.95,-83.52"/>
</a>
</g>
</g>
<!-- Node13&#45;&gt;Node15 -->
<g id="edge16_Node000013_Node000015" class="edge">
<title>Node13&#45;&gt;Node15</title>
<g id="a_edge16_Node000013_Node000015"><a xlink:title=" ">
<path fill="none" stroke="#63b8ff" d="M555.06,-109.54C580.57,-99.97 613.71,-87.55 638.28,-78.33"/>
<polygon fill="#63b8ff" stroke="#63b8ff" points="639.36,-81.67 647.49,-74.88 636.9,-75.11 639.36,-81.67"/>
</a>
</g>
</g>
<!-- Node16 -->
<g id="Node000016" class="node">
<title>Node16</title>
<g id="a_Node000016"><a xlink:title=" ">
<polygon fill="#e0e0e0" stroke="#999999" points="566,-74 459,-74 459,-55 566,-55 566,-74"/>
<text text-anchor="middle" x="512.5" y="-62" font-family="Helvetica,sans-Serif" font-size="10.00">systemd/sd&#45;journal.h</text>
</a>
</g>
</g>
<!-- Node13&#45;&gt;Node16 -->
<g id="edge18_Node000013_Node000016" class="edge">
<title>Node13&#45;&gt;Node16</title>
<g id="a_edge18_Node000013_Node000016"><a xlink:title=" ">
<path fill="none" stroke="#63b8ff" d="M515.51,-109.54C515.01,-102.26 514.4,-93.31 513.86,-85.39"/>
<polygon fill="#63b8ff" stroke="#63b8ff" points="517.37,-85.42 513.2,-75.69 510.39,-85.9 517.37,-85.42"/>
</a>
</g>
</g>
<!-- Node17&#45;&gt;Node4 -->
<g id="edge22_Node000017_Node000004" class="edge">
<title>Node17&#45;&gt;Node4</title>
<g id="a_edge22_Node000017_Node000004"><a xlink:title=" ">
<path fill="none" stroke="#63b8ff" d="M331.64,-175.65C319.02,-168.03 302.6,-155.78 294.5,-140 285.81,-123.07 285.44,-101.07 286.71,-85.37"/>
<polygon fill="#63b8ff" stroke="#63b8ff" points="290.14,-86.19 287.78,-75.86 283.18,-85.4 290.14,-86.19"/>
</a>
</g>
</g>
</g>
</svg>
