<?xml version="1.0" encoding="UTF-8" standalone="no"?>
<!DOCTYPE svg PUBLIC "-//W3C//DTD SVG 1.1//EN"
 "http://www.w3.org/Graphics/SVG/1.1/DTD/svg11.dtd">
<!-- Generated by graphviz version 8.1.0 (20230707.0739)
 -->
<!-- Title: main Pages: 1 -->
<!--zoomable 154 -->

<svg id="main" version="1.1" xmlns="http://www.w3.org/2000/svg" xmlns:xlink="http://www.w3.org/1999/xlink" xml:space="preserve" onload="init(evt)">
<style type="text/css"><![CDATA[
.node, .edge {opacity: 0.7;}
.node.selected, .edge.selected {opacity: 1;}
.edge:hover path { stroke: red; }
.edge:hover polygon { stroke: red; fill: red; }
]]></style>

<defs>
  <circle id="rim" cx="0" cy="0" r="7"/>
  <circle id="rim2" cx="0" cy="0" r="3.5"/>
  <g id="zoomPlus">
    <use xlink:href="#rim" fill="#404040"><set attributeName="fill" to="#808080" begin="zoomplus.mouseover" end="zoomplus.mouseout"/></use>
    <path d="M-4,0h8M0,-4v8" fill="none" stroke="white" stroke-width="1.5" pointer-events="none"/>
  </g>
  <g id="zoomMin">
    <use xlink:href="#rim" fill="#404040"><set attributeName="fill" to="#808080" begin="zoomminus.mouseover" end="zoomminus.mouseout"/></use>
    <path d="M-4,0h8" fill="none" stroke="white" stroke-width="1.5" pointer-events="none"/>
  </g>
  <g id="arrowUp" transform="translate(30 24)">
    <use xlink:href="#rim"/>
    <path pointer-events="none" fill="none" stroke="white" stroke-width="1.5" d="M0,-3.0v7 M-2.5,-0.5L0,-3.0L2.5,-0.5"/>
  </g>
  <g id="arrowRight" transform="rotate(90) translate(36 -43)">
    <use xlink:href="#rim"/>
    <path pointer-events="none" fill="none" stroke="white" stroke-width="1.5" d="M0,-3.0v7 M-2.5,-0.5L0,-3.0L2.5,-0.5"/>
  </g>
  <g id="arrowDown" transform="rotate(180) translate(-30 -48)">
    <use xlink:href="#rim"/>
    <path pointer-events="none" fill="none" stroke="white" stroke-width="1.5" d="M0,-3.0v7 M-2.5,-0.5L0,-3.0L2.5,-0.5"/>
  </g>
  <g id="arrowLeft" transform="rotate(270) translate(-36 17)">
    <use xlink:href="#rim"/>
    <path pointer-events="none" fill="none" stroke="white" stroke-width="1.5" d="M0,-3.0v7 M-2.5,-0.5L0,-3.0L2.5,-0.5"/>
  </g>
  <g id="resetDef">
    <use xlink:href="#rim2" fill="#404040"><set attributeName="fill" to="#808080" begin="reset.mouseover" end="reset.mouseout"/></use>
  </g>
</defs>
<script type="application/ecmascript">
var viewWidth = 786;
var viewHeight = 154;
var sectionId = 'dynsection-1';
</script>
<script type="application/ecmascript" xlink:href="svg.min.js"/>
<svg id="graph" class="graph">
<g id="viewport">
<title>main</title>
<!-- Node1 -->
<g id="Node000001" class="node">
<title>Node1</title>
<g id="a_Node000001"><a xlink:title="main function for the TCFS user helper program.">
<polygon fill="#999999" stroke="#666666" points="37,-89 0,-89 0,-69 37,-69 37,-89"/>
<text text-anchor="middle" x="18.5" y="-75.5" font-family="Helvetica,sans-Serif" font-size="10.00">main</text>
</a>
</g>
</g>
<!-- Node2 -->
<g id="Node000002" class="node">
<title>Node2</title>
<g id="a_Node000002"><a xlink:href="tcfs__helper__tools_8c.html#a769edcf066efb97f5ae3a81e3507a793" target="_top" xlink:title="Execute the mount of either a Network FS (for ex NFS), Local FS (for ex a block device),...">
<polygon fill="white" stroke="#666666" points="143.75,-108 85,-108 85,-88 143.75,-88 143.75,-108"/>
<text text-anchor="middle" x="114.38" y="-94.5" font-family="Helvetica,sans-Serif" font-size="10.00">do_mount</text>
</a>
</g>
</g>
<!-- Node1&#45;&gt;Node2 -->
<g id="edge1_Node000001_Node000002" class="edge">
<title>Node1&#45;&gt;Node2</title>
<g id="a_edge1_Node000001_Node000002"><a xlink:title=" ">
<path fill="none" stroke="#63b8ff" d="M37.16,-82.57C47.61,-84.69 61.3,-87.46 74.18,-90.07"/>
<polygon fill="#63b8ff" stroke="#63b8ff" points="73.23,-93.65 83.73,-92.2 74.62,-86.79 73.23,-93.65"/>
</a>
</g>
</g>
<!-- Node14 -->
<g id="Node000014" class="node">
<title>Node14</title>
<g id="a_Node000014"><a xlink:href="tcfs__helper__tools_8c.html#abe60a9bd3f55341eb2496670553f9d26" target="_top" xlink:title=" ">
<polygon fill="white" stroke="#666666" points="155.75,-70 73,-70 73,-50 155.75,-50 155.75,-70"/>
<text text-anchor="middle" x="114.38" y="-56.5" font-family="Helvetica,sans-Serif" font-size="10.00">setup_tcfs_env</text>
</a>
</g>
</g>
<!-- Node1&#45;&gt;Node14 -->
<g id="edge16_Node000001_Node000014" class="edge">
<title>Node1&#45;&gt;Node14</title>
<g id="a_edge16_Node000001_Node000014"><a xlink:title=" ">
<path fill="none" stroke="#63b8ff" d="M37.16,-75.43C44.41,-73.96 53.22,-72.18 62.23,-70.35"/>
<polygon fill="#63b8ff" stroke="#63b8ff" points="62.72,-73.62 71.83,-68.21 61.33,-66.76 62.72,-73.62"/>
</a>
</g>
</g>
<!-- Node3 -->
<g id="Node000003" class="node">
<title>Node3</title>
<g id="a_Node000003"><a xlink:href="tcfs__helper__tools_8c.html#afaed41fa1136b829eb00a7de26a3739b" target="_top" xlink:title=" ">
<polygon fill="white" stroke="#666666" points="300.75,-146 194.75,-146 194.75,-126 300.75,-126 300.75,-146"/>
<text text-anchor="middle" x="247.75" y="-132.5" font-family="Helvetica,sans-Serif" font-size="10.00">handle_folder_mount</text>
</a>
</g>
</g>
<!-- Node2&#45;&gt;Node3 -->
<g id="edge2_Node000002_Node000003" class="edge">
<title>Node2&#45;&gt;Node3</title>
<g id="a_edge2_Node000002_Node000003"><a xlink:title=" ">
<path fill="none" stroke="#63b8ff" d="M144.21,-106.34C160.57,-111.07 181.45,-117.11 200.09,-122.5"/>
<polygon fill="#63b8ff" stroke="#63b8ff" points="198.89,-126.09 209.47,-125.51 200.83,-119.36 198.89,-126.09"/>
</a>
</g>
</g>
<!-- Node7 -->
<g id="Node000007" class="node">
<title>Node7</title>
<g id="a_Node000007"><a xlink:href="tcfs__helper__tools_8c.html#a816c2bcaa3d059abc79cb9b021957dbf" target="_top" xlink:title=" ">
<polygon fill="white" stroke="#666666" points="298.88,-108 196.62,-108 196.62,-88 298.88,-88 298.88,-108"/>
<text text-anchor="middle" x="247.75" y="-94.5" font-family="Helvetica,sans-Serif" font-size="10.00">handle_local_mount</text>
</a>
</g>
</g>
<!-- Node2&#45;&gt;Node7 -->
<g id="edge6_Node000002_Node000007" class="edge">
<title>Node2&#45;&gt;Node7</title>
<g id="a_edge6_Node000002_Node000007"><a xlink:title=" ">
<path fill="none" stroke="#63b8ff" d="M144.21,-98C156.36,-98 171.01,-98 185.39,-98"/>
<polygon fill="#63b8ff" stroke="#63b8ff" points="185.28,-101.5 195.28,-98 185.28,-94.5 185.28,-101.5"/>
</a>
</g>
</g>
<!-- Node12 -->
<g id="Node000012" class="node">
<title>Node12</title>
<g id="a_Node000012"><a xlink:href="tcfs__helper__tools_8c.html#aa5b1203d82818e149ae3ad3fd3840a40" target="_top" xlink:title=" ">
<polygon fill="white" stroke="#666666" points="303.75,-70 191.75,-70 191.75,-50 303.75,-50 303.75,-70"/>
<text text-anchor="middle" x="247.75" y="-56.5" font-family="Helvetica,sans-Serif" font-size="10.00">handle_remote_mount</text>
</a>
</g>
</g>
<!-- Node2&#45;&gt;Node12 -->
<g id="edge13_Node000002_Node000012" class="edge">
<title>Node2&#45;&gt;Node12</title>
<g id="a_edge13_Node000002_Node000012"><a xlink:title=" ">
<path fill="none" stroke="#63b8ff" d="M144.21,-89.66C160.57,-84.93 181.45,-78.89 200.09,-73.5"/>
<polygon fill="#63b8ff" stroke="#63b8ff" points="200.83,-76.64 209.47,-70.49 198.89,-69.91 200.83,-76.64"/>
</a>
</g>
</g>
<!-- Node4 -->
<g id="Node000004" class="node">
<title>Node4</title>
<g id="a_Node000004"><a xlink:href="tcfs__helper__tools_8c.html#ae1746adb62f9476a6d8166b62faa7a91" target="_top" xlink:title=" ">
<polygon fill="white" stroke="#666666" points="445,-146 357,-146 357,-126 445,-126 445,-146"/>
<text text-anchor="middle" x="401" y="-132.5" font-family="Helvetica,sans-Serif" font-size="10.00">get_source_dest</text>
</a>
</g>
</g>
<!-- Node3&#45;&gt;Node4 -->
<g id="edge3_Node000003_Node000004" class="edge">
<title>Node3&#45;&gt;Node4</title>
<g id="a_edge3_Node000003_Node000004"><a xlink:title=" ">
<path fill="none" stroke="#63b8ff" d="M301.23,-136C315.64,-136 331.3,-136 345.8,-136"/>
<polygon fill="#63b8ff" stroke="#63b8ff" points="345.64,-139.5 355.64,-136 345.64,-132.5 345.64,-139.5"/>
</a>
</g>
</g>
<!-- Node5 -->
<g id="Node000005" class="node">
<title>Node5</title>
<g id="a_Node000005"><a xlink:href="tcfs__helper__tools_8c.html#a26931b8bdf24be94e03f4d77e991d063" target="_top" xlink:title=" ">
<polygon fill="white" stroke="#666666" points="448,-108 354,-108 354,-88 448,-88 448,-108"/>
<text text-anchor="middle" x="401" y="-94.5" font-family="Helvetica,sans-Serif" font-size="10.00">mount_tcfs_folder</text>
</a>
</g>
</g>
<!-- Node3&#45;&gt;Node5 -->
<g id="edge4_Node000003_Node000005" class="edge">
<title>Node3&#45;&gt;Node5</title>
<g id="a_edge4_Node000003_Node000005"><a xlink:title=" ">
<path fill="none" stroke="#63b8ff" d="M290.48,-125.52C308.25,-121.05 329.17,-115.79 347.94,-111.08"/>
<polygon fill="#63b8ff" stroke="#63b8ff" points="348.56,-114.28 357.41,-108.45 346.85,-107.49 348.56,-114.28"/>
</a>
</g>
</g>
<!-- Node6 -->
<g id="Node000006" class="node">
<title>Node6</title>
<g id="a_Node000006"><a xlink:href="tcfs__helper__tools_8c.html#a1bef5d2cdd74c07b3ae025c6424dfbd5" target="_top" xlink:title="fetch the password of the current user. This function is marked as internal and should not be used by...">
<polygon fill="white" stroke="#666666" points="587.75,-108 532,-108 532,-88 587.75,-88 587.75,-108"/>
<text text-anchor="middle" x="559.88" y="-94.5" font-family="Helvetica,sans-Serif" font-size="10.00">get_pass</text>
</a>
</g>
</g>
<!-- Node5&#45;&gt;Node6 -->
<g id="edge5_Node000005_Node000006" class="edge">
<title>Node5&#45;&gt;Node6</title>
<g id="a_edge5_Node000005_Node000006"><a xlink:title=" ">
<path fill="none" stroke="#63b8ff" d="M448.22,-98C471.31,-98 498.91,-98 520.76,-98"/>
<polygon fill="#63b8ff" stroke="#63b8ff" points="520.62,-101.5 530.62,-98 520.62,-94.5 520.62,-101.5"/>
</a>
</g>
</g>
<!-- Node7&#45;&gt;Node4 -->
<g id="edge11_Node000007_Node000004" class="edge">
<title>Node7&#45;&gt;Node4</title>
<g id="a_edge11_Node000007_Node000004"><a xlink:title=" ">
<path fill="none" stroke="#63b8ff" d="M290.48,-108.48C308.25,-112.95 329.17,-118.21 347.94,-122.92"/>
<polygon fill="#63b8ff" stroke="#63b8ff" points="346.85,-126.51 357.41,-125.55 348.56,-119.72 346.85,-126.51"/>
</a>
</g>
</g>
<!-- Node7&#45;&gt;Node5 -->
<g id="edge12_Node000007_Node000005" class="edge">
<title>Node7&#45;&gt;Node5</title>
<g id="a_edge12_Node000007_Node000005"><a xlink:title=" ">
<path fill="none" stroke="#63b8ff" d="M299.11,-98C313.15,-98 328.5,-98 342.9,-98"/>
<polygon fill="#63b8ff" stroke="#63b8ff" points="342.68,-101.5 352.68,-98 342.68,-94.5 342.68,-101.5"/>
</a>
</g>
</g>
<!-- Node8 -->
<g id="Node000008" class="node">
<title>Node8</title>
<g id="a_Node000008"><a xlink:href="tcfs__helper__tools_8c.html#ae930b52ef70f640efde8bda574b6b234" target="_top" xlink:title="Create a temporary folder in HOME/.tcfs.">
<polygon fill="white" stroke="#666666" points="462.25,-70 339.75,-70 339.75,-38 462.25,-38 462.25,-70"/>
<text text-anchor="start" x="347.75" y="-56.5" font-family="Helvetica,sans-Serif" font-size="10.00">create_tcfs_mount_local</text>
<text text-anchor="middle" x="401" y="-44.5" font-family="Helvetica,sans-Serif" font-size="10.00">_folder</text>
</a>
</g>
</g>
<!-- Node7&#45;&gt;Node8 -->
<g id="edge7_Node000007_Node000008" class="edge">
<title>Node7&#45;&gt;Node8</title>
<g id="a_edge7_Node000007_Node000008"><a xlink:title=" ">
<path fill="none" stroke="#63b8ff" d="M284.59,-87.57C299.13,-83.34 316.42,-78.31 333.13,-73.45"/>
<polygon fill="#63b8ff" stroke="#63b8ff" points="333.8,-76.61 342.42,-70.46 331.84,-69.89 333.8,-76.61"/>
</a>
</g>
</g>
<!-- Node9 -->
<g id="Node000009" class="node">
<title>Node9</title>
<g id="a_Node000009"><a xlink:href="tcfs__helper__tools_8c.html#a3644c45d6131fe1528ce36163e299fd9" target="_top" xlink:title="Creates the .tcfs folder in the user HOME. Then this creates a folder with a random name so that crea...">
<polygon fill="white" stroke="#666666" points="621.5,-64 498.25,-64 498.25,-44 621.5,-44 621.5,-64"/>
<text text-anchor="middle" x="559.88" y="-50.5" font-family="Helvetica,sans-Serif" font-size="10.00">setup_tcfs_mount_folder</text>
</a>
</g>
</g>
<!-- Node8&#45;&gt;Node9 -->
<g id="edge8_Node000008_Node000009" class="edge">
<title>Node8&#45;&gt;Node9</title>
<g id="a_edge8_Node000008_Node000009"><a xlink:title=" ">
<path fill="none" stroke="#63b8ff" d="M462.65,-54C470.59,-54 478.79,-54 486.9,-54"/>
<polygon fill="#63b8ff" stroke="#63b8ff" points="486.87,-57.5 496.87,-54 486.87,-50.5 486.87,-57.5"/>
</a>
</g>
</g>
<!-- Node10 -->
<g id="Node000010" class="node">
<title>Node10</title>
<g id="a_Node000010"><a xlink:href="tcfs__helper__tools_8c.html#ab3cdcc12b3bc92a382784027c94a2027" target="_top" xlink:title="Check if a directory already exists. This function is marked as internal and should not be used by th...">
<polygon fill="white" stroke="#666666" points="760.12,-83 675.12,-83 675.12,-63 760.12,-63 760.12,-83"/>
<text text-anchor="middle" x="717.62" y="-69.5" font-family="Helvetica,sans-Serif" font-size="10.00">directory_exists</text>
</a>
</g>
</g>
<!-- Node9&#45;&gt;Node10 -->
<g id="edge9_Node000009_Node000010" class="edge">
<title>Node9&#45;&gt;Node10</title>
<g id="a_edge9_Node000009_Node000010"><a xlink:title=" ">
<path fill="none" stroke="#63b8ff" d="M621.98,-61.45C635.97,-63.16 650.72,-64.96 664.3,-66.62"/>
<polygon fill="#63b8ff" stroke="#63b8ff" points="663.55,-70.17 673.9,-67.91 664.4,-63.22 663.55,-70.17"/>
</a>
</g>
</g>
<!-- Node11 -->
<g id="Node000011" class="node">
<title>Node11</title>
<g id="a_Node000011"><a xlink:href="tcfs__helper__tools_8c.html#a8ef1473d59fd1cfc680fe1b227604a02" target="_top" xlink:title="Generate a random string that will be used as a folder name for the mount. This function is marked as...">
<polygon fill="white" stroke="#666666" points="777.75,-45 657.5,-45 657.5,-25 777.75,-25 777.75,-45"/>
<text text-anchor="middle" x="717.62" y="-31.5" font-family="Helvetica,sans-Serif" font-size="10.00">generate_random_string</text>
</a>
</g>
</g>
<!-- Node9&#45;&gt;Node11 -->
<g id="edge10_Node000009_Node000011" class="edge">
<title>Node9&#45;&gt;Node11</title>
<g id="a_edge10_Node000009_Node000011"><a xlink:title=" ">
<path fill="none" stroke="#63b8ff" d="M621.98,-46.55C630.04,-45.56 638.35,-44.55 646.55,-43.55"/>
<polygon fill="#63b8ff" stroke="#63b8ff" points="646.72,-46.93 656.22,-42.25 645.87,-39.98 646.72,-46.93"/>
</a>
</g>
</g>
<!-- Node12&#45;&gt;Node5 -->
<g id="edge15_Node000012_Node000005" class="edge">
<title>Node12&#45;&gt;Node5</title>
<g id="a_edge15_Node000012_Node000005"><a xlink:title=" ">
<path fill="none" stroke="#63b8ff" d="M290.48,-70.48C308.25,-74.95 329.17,-80.21 347.94,-84.92"/>
<polygon fill="#63b8ff" stroke="#63b8ff" points="346.85,-88.51 357.41,-87.55 348.56,-81.72 346.85,-88.51"/>
</a>
</g>
</g>
<!-- Node13 -->
<g id="Node000013" class="node">
<title>Node13</title>
<g id="a_Node000013"><a xlink:href="tcfs__helper__tools_8c.html#acfa06becac8f67e9f278cfcbf91cc51b" target="_top" xlink:title=" ">
<polygon fill="white" stroke="#666666" points="452.88,-20 349.12,-20 349.12,0 452.88,0 452.88,-20"/>
<text text-anchor="middle" x="401" y="-6.5" font-family="Helvetica,sans-Serif" font-size="10.00">clearKeyboardBuffer</text>
</a>
</g>
</g>
<!-- Node12&#45;&gt;Node13 -->
<g id="edge14_Node000012_Node000013" class="edge">
<title>Node12&#45;&gt;Node13</title>
<g id="a_edge14_Node000012_Node000013"><a xlink:title=" ">
<path fill="none" stroke="#63b8ff" d="M278.61,-49.64C296.34,-43.53 319.29,-35.71 339.75,-29 345.02,-27.27 350.56,-25.48 356.06,-23.73"/>
<polygon fill="#63b8ff" stroke="#63b8ff" points="357.02,-26.78 365.49,-20.42 354.9,-20.11 357.02,-26.78"/>
</a>
</g>
</g>
</g>
</svg>

<g id="navigator" transform="translate(0 0)" fill="#404254">
  <rect fill="#f2f5e9" fill-opacity="0.5" stroke="#606060" stroke-width=".5" x="0" y="0" width="60" height="60"/>
  <use id="zoomplus" xlink:href="#zoomPlus" x="17" y="9" onmousedown="handleZoom(evt,'in')"/>
  <use id="zoomminus" xlink:href="#zoomMin" x="42" y="9" onmousedown="handleZoom(evt,'out')"/>
  <use id="reset" xlink:href="#resetDef" x="30" y="36" onmousedown="handleReset()"/>
   <use id="arrowup" xlink:href="#arrowUp" x="0" y="0" onmousedown="handlePan(0,-1)"/>
  <use id="arrowright" xlink:href="#arrowRight" x="0" y="0" onmousedown="handlePan(1,0)"/>
  <use id="arrowdown" xlink:href="#arrowDown" x="0" y="0" onmousedown="handlePan(0,1)"/>
  <use id="arrowleft" xlink:href="#arrowLeft" x="0" y="0" onmousedown="handlePan(-1,0)"/>
</g>
<svg viewBox="0 0 15 15" width="100%" height="30px" preserveAspectRatio="xMaxYMin meet">
 <g id="arrow_out" transform="scale(0.3 0.3)">
  <a xlink:href="user__tcfs_8c_a0ddf1224851353fc92bfbff6f499fa97_cgraph_org.svg" target="_base">
   <rect id="button" ry="5" rx="5" y="6" x="6" height="38" width="38"
        fill="#f2f5e9" fill-opacity="0.5" stroke="#606060" stroke-width="1.0"/>
   <path id="arrow"
     d="M 11.500037,31.436501 C 11.940474,20.09759 22.043105,11.32322 32.158766,21.979434 L 37.068811,17.246167 C 37.068811,17.246167 37.088388,32 37.088388,32 L 22.160133,31.978069 C 22.160133,31.978069 26.997745,27.140456 26.997745,27.140456 C 18.528582,18.264221 13.291696,25.230495 11.500037,31.436501 z"
     style="fill:#404040;"/>
  </a>
 </g>
</svg>

<style type='text/css'>
<![CDATA[
[data-mouse-over-selected='false'] { opacity: 0.7; }
[data-mouse-over-selected='true']  { opacity: 1.0; }
]]>
</style>
<script type="application/ecmascript"><![CDATA[
document.addEventListener('DOMContentLoaded', (event) => {
  highlightEdges();
  highlightAdjacentNodes();
});
]]></script>
</svg>
