<?xml version="1.0" encoding="UTF-8" standalone="no"?>
<!DOCTYPE svg PUBLIC "-//W3C//DTD SVG 1.1//EN"
 "http://www.w3.org/Graphics/SVG/1.1/DTD/svg11.dtd">
<!-- Generated by graphviz version 7.1.0 (0)
 -->
<!-- Title: unregister_user Pages: 1 -->
<svg width="581pt" height="216pt"
 viewBox="0.00 0.00 581.00 216.00" xmlns="http://www.w3.org/2000/svg" xmlns:xlink="http://www.w3.org/1999/xlink">
<g id="graph0" class="graph" transform="scale(1 1) rotate(0) translate(4 212)">
<title>unregister_user</title>
<!-- Node1 -->
<g id="Node000001" class="node">
<title>Node1</title>
<g id="a_Node000001"><a xlink:title="Remove a user from the DB.">
<polygon fill="#999999" stroke="#666666" points="83,-170 0,-170 0,-151 83,-151 83,-170"/>
<text text-anchor="middle" x="41.5" y="-158" font-family="Helvetica,sans-Serif" font-size="10.00">unregister_user</text>
</a>
</g>
</g>
<!-- Node2 -->
<g id="Node000002" class="node">
<title>Node2</title>
<g id="a_Node000002"><a xlink:href="redis_8c.html#a7b5eb746d92734b57a71ce552363283d" target="_top" xlink:title="For debugging only. Prints all the keys in the database.">
<polygon fill="white" stroke="#666666" points="320.5,-208 243.5,-208 243.5,-189 320.5,-189 320.5,-208"/>
<text text-anchor="middle" x="282" y="-196" font-family="Helvetica,sans-Serif" font-size="10.00">print_all_keys</text>
</a>
</g>
</g>
<!-- Node1&#45;&gt;Node2 -->
<g id="edge1_Node000001_Node000002" class="edge">
<title>Node1&#45;&gt;Node2</title>
<g id="a_edge1_Node000001_Node000002"><a xlink:title=" ">
<path fill="none" stroke="#63b8ff" d="M83.35,-168.24C94.86,-170.35 107.41,-172.58 119,-174.5 156.85,-180.76 199.8,-187.09 231.97,-191.68"/>
<polygon fill="#63b8ff" stroke="#63b8ff" points="231.41,-195.13 241.8,-193.07 232.39,-188.2 231.41,-195.13"/>
</a>
</g>
</g>
<!-- Node3 -->
<g id="Node000003" class="node">
<title>Node3</title>
<g id="a_Node000003"><a xlink:href="print__utils_8c.html#a491dc14c94ed8cf706bb54880c50b2d0" target="_top" xlink:title="Format and print data as a message.">
<polygon fill="white" stroke="#666666" points="560.5,-132 501.5,-132 501.5,-113 560.5,-113 560.5,-132"/>
<text text-anchor="middle" x="531" y="-120" font-family="Helvetica,sans-Serif" font-size="10.00">print_msg</text>
</a>
</g>
</g>
<!-- Node1&#45;&gt;Node3 -->
<g id="edge3_Node000001_Node000003" class="edge">
<title>Node1&#45;&gt;Node3</title>
<g id="a_edge3_Node000001_Node000003"><a xlink:title=" ">
<path fill="none" stroke="#63b8ff" d="M83.3,-157.63C157.1,-152.38 317.67,-140.76 453,-129.5 464.94,-128.51 477.91,-127.36 489.75,-126.28"/>
<polygon fill="#63b8ff" stroke="#63b8ff" points="489.98,-129.77 499.62,-125.37 489.34,-122.8 489.98,-129.77"/>
</a>
</g>
</g>
<!-- Node4 -->
<g id="Node000004" class="node">
<title>Node4</title>
<g id="a_Node000004"><a xlink:href="redis_8c.html#a6b18d7ad2f1e8275106a5b39c0c7d216" target="_top" xlink:title="Remove a user from the DB using the PID as key.">
<polygon fill="white" stroke="#666666" points="202,-113 119,-113 119,-94 202,-94 202,-113"/>
<text text-anchor="middle" x="160.5" y="-101" font-family="Helvetica,sans-Serif" font-size="10.00">remove_by_pid</text>
</a>
</g>
</g>
<!-- Node1&#45;&gt;Node4 -->
<g id="edge4_Node000001_Node000004" class="edge">
<title>Node1&#45;&gt;Node4</title>
<g id="a_edge4_Node000001_Node000004"><a xlink:title=" ">
<path fill="none" stroke="#63b8ff" d="M62.88,-150.57C81.17,-141.66 108.26,-128.46 129.1,-118.31"/>
<polygon fill="#63b8ff" stroke="#63b8ff" points="130.54,-121.5 137.99,-113.98 127.47,-115.21 130.54,-121.5"/>
</a>
</g>
</g>
<!-- Node2&#45;&gt;Node3 -->
<g id="edge2_Node000002_Node000003" class="edge">
<title>Node2&#45;&gt;Node3</title>
<g id="a_edge2_Node000002_Node000003"><a xlink:title=" ">
<path fill="none" stroke="#63b8ff" d="M320.69,-198.01C355.97,-196.45 409.6,-191.19 453,-174.5 474.24,-166.33 495.46,-151.37 510.23,-139.59"/>
<polygon fill="#63b8ff" stroke="#63b8ff" points="512.28,-142.43 517.77,-133.37 507.82,-137.03 512.28,-142.43"/>
</a>
</g>
</g>
<!-- Node4&#45;&gt;Node3 -->
<g id="edge12_Node000004_Node000003" class="edge">
<title>Node4&#45;&gt;Node3</title>
<g id="a_edge12_Node000004_Node000003"><a xlink:title=" ">
<path fill="none" stroke="#63b8ff" d="M202.34,-105.61C273.38,-109.27 418.83,-116.77 489.57,-120.42"/>
<polygon fill="#63b8ff" stroke="#63b8ff" points="489.39,-123.91 499.56,-120.93 489.75,-116.92 489.39,-123.91"/>
</a>
</g>
</g>
<!-- Node5 -->
<g id="Node000005" class="node">
<title>Node5</title>
<g id="a_Node000005"><a xlink:href="redis_8c.html#af0bf1bfc99afc940619371e3c76ab4f9" target="_top" xlink:title="Fetch the user on the DB with key pid.">
<polygon fill="white" stroke="#666666" points="326,-85 238,-85 238,-66 326,-66 326,-85"/>
<text text-anchor="middle" x="282" y="-73" font-family="Helvetica,sans-Serif" font-size="10.00">get_user_by_pid</text>
</a>
</g>
</g>
<!-- Node4&#45;&gt;Node5 -->
<g id="edge5_Node000004_Node000005" class="edge">
<title>Node4&#45;&gt;Node5</title>
<g id="a_edge5_Node000004_Node000005"><a xlink:title=" ">
<path fill="none" stroke="#63b8ff" d="M202.29,-93.94C210.38,-92.05 218.98,-90.03 227.42,-88.05"/>
<polygon fill="#63b8ff" stroke="#63b8ff" points="227.94,-91.53 236.88,-85.84 226.35,-84.71 227.94,-91.53"/>
</a>
</g>
</g>
<!-- Node8 -->
<g id="Node000008" class="node">
<title>Node8</title>
<g id="a_Node000008"><a xlink:href="print__utils_8c.html#a650ab060ffe5dbc6c1a968a9cae3bded" target="_top" xlink:title="Format and print data as an error.">
<polygon fill="white" stroke="#666666" points="433.5,-19 381.5,-19 381.5,0 433.5,0 433.5,-19"/>
<text text-anchor="middle" x="407.5" y="-7" font-family="Helvetica,sans-Serif" font-size="10.00">print_err</text>
</a>
</g>
</g>
<!-- Node4&#45;&gt;Node8 -->
<g id="edge11_Node000004_Node000008" class="edge">
<title>Node4&#45;&gt;Node8</title>
<g id="a_edge11_Node000004_Node000008"><a xlink:title=" ">
<path fill="none" stroke="#63b8ff" d="M175.28,-93.68C190.15,-83.46 214.83,-67.56 238,-57.5 281.87,-38.46 335.41,-24.7 370.2,-16.92"/>
<polygon fill="#63b8ff" stroke="#63b8ff" points="370.73,-20.39 379.75,-14.83 369.24,-13.55 370.73,-20.39"/>
</a>
</g>
</g>
<!-- Node5&#45;&gt;Node3 -->
<g id="edge10_Node000005_Node000003" class="edge">
<title>Node5&#45;&gt;Node3</title>
<g id="a_edge10_Node000005_Node000003"><a xlink:title=" ">
<path fill="none" stroke="#63b8ff" d="M326.31,-83.74C372.51,-92.53 445.09,-106.34 489.99,-114.89"/>
<polygon fill="#63b8ff" stroke="#63b8ff" points="489.08,-118.28 499.56,-116.71 490.39,-111.4 489.08,-118.28"/>
</a>
</g>
</g>
<!-- Node6 -->
<g id="Node000006" class="node">
<title>Node6</title>
<g id="a_Node000006"><a xlink:href="redis_8c.html#a8e6e1687d6351741ac3e353d23425f71" target="_top" xlink:title="Internal function to simplify the casting of a json to a qm_user struct.">
<polygon fill="white" stroke="#666666" points="453,-56 362,-56 362,-37 453,-37 453,-56"/>
<text text-anchor="middle" x="407.5" y="-44" font-family="Helvetica,sans-Serif" font-size="10.00">json_to_qm_user</text>
</a>
</g>
</g>
<!-- Node5&#45;&gt;Node6 -->
<g id="edge6_Node000005_Node000006" class="edge">
<title>Node5&#45;&gt;Node6</title>
<g id="a_edge6_Node000005_Node000006"><a xlink:title=" ">
<path fill="none" stroke="#63b8ff" d="M325.5,-65.52C334.33,-63.45 343.74,-61.24 352.91,-59.08"/>
<polygon fill="#63b8ff" stroke="#63b8ff" points="353.51,-62.54 362.45,-56.84 351.91,-55.72 353.51,-62.54"/>
</a>
</g>
</g>
<!-- Node5&#45;&gt;Node8 -->
<g id="edge9_Node000005_Node000008" class="edge">
<title>Node5&#45;&gt;Node8</title>
<g id="a_edge9_Node000005_Node000008"><a xlink:title=" ">
<path fill="none" stroke="#63b8ff" d="M298.39,-65.51C314.07,-55.53 339.24,-40.07 362,-28.5 365.05,-26.95 368.25,-25.42 371.48,-23.93"/>
<polygon fill="#63b8ff" stroke="#63b8ff" points="372.64,-27.24 380.36,-19.99 369.8,-20.84 372.64,-27.24"/>
</a>
</g>
</g>
<!-- Node6&#45;&gt;Node3 -->
<g id="edge7_Node000006_Node000003" class="edge">
<title>Node6&#45;&gt;Node3</title>
<g id="a_edge7_Node000006_Node000003"><a xlink:title=" ">
<path fill="none" stroke="#63b8ff" d="M427.79,-56.37C435.7,-60.55 444.89,-65.59 453,-70.5 471.68,-81.81 492.13,-95.69 507.26,-106.27"/>
<polygon fill="#63b8ff" stroke="#63b8ff" points="504.93,-108.91 515.12,-111.81 508.96,-103.19 504.93,-108.91"/>
</a>
</g>
</g>
<!-- Node7 -->
<g id="Node000007" class="node">
<title>Node7</title>
<g id="a_Node000007"><a xlink:href="json__tools_8cpp.html#a513edf914a6a6141c7892d193d0c1f52" target="_top" xlink:title="Cast a json string to a struct.">
<polygon fill="white" stroke="#666666" points="573,-56 489,-56 489,-37 573,-37 573,-56"/>
<text text-anchor="middle" x="531" y="-44" font-family="Helvetica,sans-Serif" font-size="10.00">string_to_struct</text>
</a>
</g>
</g>
<!-- Node6&#45;&gt;Node7 -->
<g id="edge8_Node000006_Node000007" class="edge">
<title>Node6&#45;&gt;Node7</title>
<g id="a_edge8_Node000006_Node000007"><a xlink:title=" ">
<path fill="none" stroke="#63b8ff" d="M453.4,-46.5C461.12,-46.5 469.21,-46.5 477.11,-46.5"/>
<polygon fill="#63b8ff" stroke="#63b8ff" points="476.99,-50 486.99,-46.5 476.99,-43 476.99,-50"/>
</a>
</g>
</g>
</g>
</svg>
