<?xml version="1.0" encoding="UTF-8" standalone="no"?>
<!DOCTYPE svg PUBLIC "-//W3C//DTD SVG 1.1//EN"
 "http://www.w3.org/Graphics/SVG/1.1/DTD/svg11.dtd">
<!-- Generated by graphviz version 7.1.0 (0)
 -->
<!-- Title: register_user Pages: 1 -->
<svg width="393pt" height="179pt"
 viewBox="0.00 0.00 393.00 179.00" xmlns="http://www.w3.org/2000/svg" xmlns:xlink="http://www.w3.org/1999/xlink">

<svg id="main" version="1.1" xmlns="http://www.w3.org/2000/svg" xmlns:xlink="http://www.w3.org/1999/xlink" xml:space="preserve" onload="init(evt)">
<style type="text/css"><![CDATA[
.node, .edge {opacity: 0.7;}
.node.selected, .edge.selected {opacity: 1;}
.edge:hover path { stroke: red; }
.edge:hover polygon { stroke: red; fill: red; }
]]></style>
<script type="application/ecmascript" xlink:href="svg.min.js"/>
<svg id="graph" class="graph">
<g id="graph0" class="graph" transform="scale(1 1) rotate(0) translate(4 175)">
<title>register_user</title>
<!-- Node1 -->
<g id="Node000001" class="node">
<title>Node1</title>
<g id="a_Node000001"><a xlink:title="Register or update a user in the db, this relies on the redis.c file.">
<polygon fill="#999999" stroke="#666666" points="73,-76 0,-76 0,-57 73,-57 73,-76"/>
<text text-anchor="middle" x="36.5" y="-64" font-family="Helvetica,sans-Serif" font-size="10.00">register_user</text>
</a>
</g>
</g>
<!-- Node2 -->
<g id="Node000002" class="node">
<title>Node2</title>
<g id="a_Node000002"><a xlink:href="redis_8c.html#a1f6dc2f98a71a88567fe11fd9e2585ea" target="_top" xlink:title="initialize the context for the Redis DB">
<polygon fill="white" stroke="#666666" points="176,-161 109,-161 109,-142 176,-142 176,-161"/>
<text text-anchor="middle" x="142.5" y="-149" font-family="Helvetica,sans-Serif" font-size="10.00">init_context</text>
</a>
</g>
</g>
<!-- Node1&#45;&gt;Node2 -->
<g id="edge1_Node000001_Node000002" class="edge">
<title>Node1&#45;&gt;Node2</title>
<g id="a_edge1_Node000001_Node000002"><a xlink:title=" ">
<path fill="none" stroke="#63b8ff" d="M49.43,-76.25C66.81,-90.46 99.35,-117.05 120.72,-134.52"/>
<polygon fill="#63b8ff" stroke="#63b8ff" points="118.26,-137.03 128.22,-140.64 122.69,-131.61 118.26,-137.03"/>
</a>
</g>
</g>
<!-- Node4 -->
<g id="Node000004" class="node">
<title>Node4</title>
<g id="a_Node000004"><a xlink:href="redis_8c.html#ac9878ee09b53700eb08c1f175873c30b" target="_top" xlink:title="Insert a new user in the DB.">
<polygon fill="white" stroke="#666666" points="163,-114 122,-114 122,-95 163,-95 163,-114"/>
<text text-anchor="middle" x="142.5" y="-102" font-family="Helvetica,sans-Serif" font-size="10.00">insert</text>
</a>
</g>
</g>
<!-- Node1&#45;&gt;Node4 -->
<g id="edge3_Node000001_Node000004" class="edge">
<title>Node1&#45;&gt;Node4</title>
<g id="a_edge3_Node000001_Node000004"><a xlink:title=" ">
<path fill="none" stroke="#63b8ff" d="M64.82,-76.48C79.02,-81.67 96.41,-88.02 111.04,-93.37"/>
<polygon fill="#63b8ff" stroke="#63b8ff" points="109.57,-96.56 120.16,-96.7 111.97,-89.98 109.57,-96.56"/>
</a>
</g>
</g>
<!-- Node5 -->
<g id="Node000005" class="node">
<title>Node5</title>
<g id="a_Node000005"><a xlink:href="print__utils_8c.html#a491dc14c94ed8cf706bb54880c50b2d0" target="_top" xlink:title="Format and print data as a message.">
<polygon fill="white" stroke="#666666" points="385,-76 326,-76 326,-57 385,-57 385,-76"/>
<text text-anchor="middle" x="355.5" y="-64" font-family="Helvetica,sans-Serif" font-size="10.00">print_msg</text>
</a>
</g>
</g>
<!-- Node1&#45;&gt;Node5 -->
<g id="edge10_Node000001_Node000005" class="edge">
<title>Node1&#45;&gt;Node5</title>
<g id="a_edge10_Node000001_Node000005"><a xlink:title=" ">
<path fill="none" stroke="#63b8ff" d="M73.25,-66.5C132.88,-66.5 252.23,-66.5 314.55,-66.5"/>
<polygon fill="#63b8ff" stroke="#63b8ff" points="314.34,-70 324.34,-66.5 314.34,-63 314.34,-70"/>
</a>
</g>
</g>
<!-- Node7 -->
<g id="Node000007" class="node">
<title>Node7</title>
<g id="a_Node000007"><a xlink:href="redis_8c.html#a7b5eb746d92734b57a71ce552363283d" target="_top" xlink:title="For debugging only. Prints all the keys in the database.">
<polygon fill="white" stroke="#666666" points="289.5,-19 212.5,-19 212.5,0 289.5,0 289.5,-19"/>
<text text-anchor="middle" x="251" y="-7" font-family="Helvetica,sans-Serif" font-size="10.00">print_all_keys</text>
</a>
</g>
</g>
<!-- Node1&#45;&gt;Node7 -->
<g id="edge8_Node000001_Node000007" class="edge">
<title>Node1&#45;&gt;Node7</title>
<g id="a_edge8_Node000001_Node000007"><a xlink:title=" ">
<path fill="none" stroke="#63b8ff" d="M55.49,-56.58C69.64,-49.18 90.06,-39.37 109,-33.5 138.89,-24.24 173.51,-18.28 200.97,-14.62"/>
<polygon fill="#63b8ff" stroke="#63b8ff" points="201.28,-18.11 210.76,-13.37 200.4,-11.16 201.28,-18.11"/>
</a>
</g>
</g>
<!-- Node3 -->
<g id="Node000003" class="node">
<title>Node3</title>
<g id="a_Node000003"><a xlink:href="print__utils_8c.html#a650ab060ffe5dbc6c1a968a9cae3bded" target="_top" xlink:title="Format and print data as an error.">
<polygon fill="white" stroke="#666666" points="277,-171 225,-171 225,-152 277,-152 277,-171"/>
<text text-anchor="middle" x="251" y="-159" font-family="Helvetica,sans-Serif" font-size="10.00">print_err</text>
</a>
</g>
</g>
<!-- Node2&#45;&gt;Node3 -->
<g id="edge2_Node000002_Node000003" class="edge">
<title>Node2&#45;&gt;Node3</title>
<g id="a_edge2_Node000002_Node000003"><a xlink:title=" ">
<path fill="none" stroke="#63b8ff" d="M176.32,-154.58C187.97,-155.68 201.14,-156.91 213.1,-158.04"/>
<polygon fill="#63b8ff" stroke="#63b8ff" points="212.76,-161.52 223.05,-158.97 213.42,-154.55 212.76,-161.52"/>
</a>
</g>
</g>
<!-- Node4&#45;&gt;Node3 -->
<g id="edge4_Node000004_Node000003" class="edge">
<title>Node4&#45;&gt;Node3</title>
<g id="a_edge4_Node000004_Node000003"><a xlink:title=" ">
<path fill="none" stroke="#63b8ff" d="M162.05,-114.43C178.47,-123.22 202.68,-136.17 221.54,-146.27"/>
<polygon fill="#63b8ff" stroke="#63b8ff" points="219.86,-149.34 230.33,-150.97 223.16,-143.17 219.86,-149.34"/>
</a>
</g>
</g>
<!-- Node4&#45;&gt;Node5 -->
<g id="edge5_Node000004_Node000005" class="edge">
<title>Node4&#45;&gt;Node5</title>
<g id="a_edge5_Node000004_Node000005"><a xlink:title=" ">
<path fill="none" stroke="#63b8ff" d="M163.37,-107.75C191.95,-111.7 246.08,-116.48 290,-104.5 305.67,-100.23 321.42,-91.07 333.43,-82.81"/>
<polygon fill="#63b8ff" stroke="#63b8ff" points="335.27,-85.8 341.33,-77.1 331.17,-80.12 335.27,-85.8"/>
</a>
</g>
</g>
<!-- Node6 -->
<g id="Node000006" class="node">
<title>Node6</title>
<g id="a_Node000006"><a xlink:href="json__tools_8cpp.html#abe22bc6ace23fc8f7e186a824784765f" target="_top" xlink:title="Cast a qm_user, qm_shared or qm_broad struct to a json string representing the struct.">
<polygon fill="white" stroke="#666666" points="290,-95 212,-95 212,-76 290,-76 290,-95"/>
<text text-anchor="middle" x="251" y="-83" font-family="Helvetica,sans-Serif" font-size="10.00">struct_to_json</text>
</a>
</g>
</g>
<!-- Node4&#45;&gt;Node6 -->
<g id="edge6_Node000004_Node000006" class="edge">
<title>Node4&#45;&gt;Node6</title>
<g id="a_edge6_Node000004_Node000006"><a xlink:title=" ">
<path fill="none" stroke="#63b8ff" d="M163.03,-101.02C173.64,-99.12 187.27,-96.69 200.58,-94.32"/>
<polygon fill="#63b8ff" stroke="#63b8ff" points="200.89,-97.82 210.12,-92.61 199.66,-90.93 200.89,-97.82"/>
</a>
</g>
</g>
<!-- Node6&#45;&gt;Node5 -->
<g id="edge7_Node000006_Node000005" class="edge">
<title>Node6&#45;&gt;Node5</title>
<g id="a_edge7_Node000006_Node000005"><a xlink:title=" ">
<path fill="none" stroke="#63b8ff" d="M290.46,-78.37C298.32,-76.91 306.61,-75.38 314.53,-73.91"/>
<polygon fill="#63b8ff" stroke="#63b8ff" points="315.07,-77.37 324.27,-72.1 313.8,-70.49 315.07,-77.37"/>
</a>
</g>
</g>
<!-- Node7&#45;&gt;Node5 -->
<g id="edge9_Node000007_Node000005" class="edge">
<title>Node7&#45;&gt;Node5</title>
<g id="a_edge9_Node000007_Node000005"><a xlink:title=" ">
<path fill="none" stroke="#63b8ff" d="M269.85,-19.43C285.58,-28.17 308.74,-41.05 326.86,-51.13"/>
<polygon fill="#63b8ff" stroke="#63b8ff" points="325.09,-54.15 335.53,-55.95 328.49,-48.03 325.09,-54.15"/>
</a>
</g>
</g>
</g>
</svg>
</svg>

<style type='text/css'>
<![CDATA[
[data-mouse-over-selected='false'] { opacity: 0.7; }
[data-mouse-over-selected='true']  { opacity: 1.0; }
]]>
</style>
<script type="application/ecmascript"><![CDATA[
document.addEventListener('DOMContentLoaded', (event) => {
  highlightEdges();
  highlightAdjacentNodes();
});
]]></script>
</svg>
