<?xml version="1.0" encoding="UTF-8" standalone="no"?>
<!DOCTYPE svg PUBLIC "-//W3C//DTD SVG 1.1//EN"
 "http://www.w3.org/Graphics/SVG/1.1/DTD/svg11.dtd">
<!-- Generated by graphviz version 7.1.0 (0)
 -->
<!-- Title: register_user Pages: 1 -->
<svg width="289pt" height="140pt"
 viewBox="0.00 0.00 289.00 140.00" xmlns="http://www.w3.org/2000/svg" xmlns:xlink="http://www.w3.org/1999/xlink">

<svg id="main" version="1.1" xmlns="http://www.w3.org/2000/svg" xmlns:xlink="http://www.w3.org/1999/xlink" xml:space="preserve" onload="init(evt)">
<style type="text/css"><![CDATA[
.node, .edge {opacity: 0.7;}
.node.selected, .edge.selected {opacity: 1;}
.edge:hover path { stroke: red; }
.edge:hover polygon { stroke: red; fill: red; }
]]></style>
<script type="application/ecmascript" xlink:href="svg.min.js"/>
<svg id="graph" class="graph">
<g id="graph0" class="graph" transform="scale(1 1) rotate(0) translate(4 136)">
<title>register_user</title>
<!-- Node1 -->
<g id="Node000001" class="node">
<title>Node1</title>
<g id="a_Node000001"><a xlink:title="Register or update a user in the db, this relies on the redis.c file.">
<polygon fill="#999999" stroke="#666666" points="73,-76 0,-76 0,-57 73,-57 73,-76"/>
<text text-anchor="middle" x="36.5" y="-64" font-family="Helvetica,sans-Serif" font-size="10.00">register_user</text>
</a>
</g>
</g>
<!-- Node2 -->
<g id="Node000002" class="node">
<title>Node2</title>
<g id="a_Node000002"><a xlink:href="redis_8c.html#a1f6dc2f98a71a88567fe11fd9e2585ea" target="_top" xlink:title="initialize the context for the Redis DB">
<polygon fill="white" stroke="#666666" points="181,-132 114,-132 114,-113 181,-113 181,-132"/>
<text text-anchor="middle" x="147.5" y="-120" font-family="Helvetica,sans-Serif" font-size="10.00">init_context</text>
</a>
</g>
</g>
<!-- Node1&#45;&gt;Node2 -->
<g id="edge1_Node000001_Node000002" class="edge">
<title>Node1&#45;&gt;Node2</title>
<g id="a_edge1_Node000001_Node000002"><a xlink:title=" ">
<path fill="none" stroke="#63b8ff" d="M55.61,-76.39C70,-84.18 90.68,-95.24 109,-104.5 110.98,-105.5 113.03,-106.52 115.1,-107.54"/>
<polygon fill="#63b8ff" stroke="#63b8ff" points="113.52,-110.67 124.04,-111.9 116.58,-104.37 113.52,-110.67"/>
</a>
</g>
</g>
<!-- Node4 -->
<g id="Node000004" class="node">
<title>Node4</title>
<g id="a_Node000004"><a xlink:href="redis_8c.html#ac9878ee09b53700eb08c1f175873c30b" target="_top" xlink:title="Insert a new user in the DB.">
<polygon fill="white" stroke="#666666" points="168,-95 127,-95 127,-76 168,-76 168,-95"/>
<text text-anchor="middle" x="147.5" y="-83" font-family="Helvetica,sans-Serif" font-size="10.00">insert</text>
</a>
</g>
</g>
<!-- Node1&#45;&gt;Node4 -->
<g id="edge3_Node000001_Node000004" class="edge">
<title>Node1&#45;&gt;Node4</title>
<g id="a_edge3_Node000001_Node000004"><a xlink:title=" ">
<path fill="none" stroke="#63b8ff" d="M73.49,-72.77C87.07,-75.14 102.39,-77.81 115.47,-80.09"/>
<polygon fill="#63b8ff" stroke="#63b8ff" points="114.81,-83.53 125.26,-81.8 116.01,-76.63 114.81,-83.53"/>
</a>
</g>
</g>
<!-- Node5 -->
<g id="Node000005" class="node">
<title>Node5</title>
<g id="a_Node000005"><a xlink:href="print__utils_8c.html#a491dc14c94ed8cf706bb54880c50b2d0" target="_top" xlink:title="Format and print data as a message.">
<polygon fill="white" stroke="#666666" points="281,-57 222,-57 222,-38 281,-38 281,-57"/>
<text text-anchor="middle" x="251.5" y="-45" font-family="Helvetica,sans-Serif" font-size="10.00">print_msg</text>
</a>
</g>
</g>
<!-- Node1&#45;&gt;Node5 -->
<g id="edge8_Node000001_Node000005" class="edge">
<title>Node1&#45;&gt;Node5</title>
<g id="a_edge8_Node000001_Node000005"><a xlink:title=" ">
<path fill="none" stroke="#63b8ff" d="M73.15,-63.32C111.01,-59.94 170.73,-54.62 210.26,-51.09"/>
<polygon fill="#63b8ff" stroke="#63b8ff" points="210.42,-54.59 220.07,-50.21 209.8,-47.62 210.42,-54.59"/>
</a>
</g>
</g>
<!-- Node6 -->
<g id="Node000006" class="node">
<title>Node6</title>
<g id="a_Node000006"><a xlink:href="redis_8c.html#a7b5eb746d92734b57a71ce552363283d" target="_top" xlink:title="For debugging only. Prints all the keys in the database.">
<polygon fill="white" stroke="#666666" points="186,-19 109,-19 109,0 186,0 186,-19"/>
<text text-anchor="middle" x="147.5" y="-7" font-family="Helvetica,sans-Serif" font-size="10.00">print_all_keys</text>
</a>
</g>
</g>
<!-- Node1&#45;&gt;Node6 -->
<g id="edge6_Node000001_Node000006" class="edge">
<title>Node1&#45;&gt;Node6</title>
<g id="a_edge6_Node000001_Node000006"><a xlink:title=" ">
<path fill="none" stroke="#63b8ff" d="M56.49,-56.57C73.37,-47.74 98.3,-34.71 117.64,-24.59"/>
<polygon fill="#63b8ff" stroke="#63b8ff" points="119.15,-27.75 126.39,-20.02 115.91,-21.55 119.15,-27.75"/>
</a>
</g>
</g>
<!-- Node3 -->
<g id="Node000003" class="node">
<title>Node3</title>
<g id="a_Node000003"><a xlink:href="print__utils_8c.html#a650ab060ffe5dbc6c1a968a9cae3bded" target="_top" xlink:title="Format and print data as an error.">
<polygon fill="white" stroke="#666666" points="277.5,-113 225.5,-113 225.5,-94 277.5,-94 277.5,-113"/>
<text text-anchor="middle" x="251.5" y="-101" font-family="Helvetica,sans-Serif" font-size="10.00">print_err</text>
</a>
</g>
</g>
<!-- Node2&#45;&gt;Node3 -->
<g id="edge2_Node000002_Node000003" class="edge">
<title>Node2&#45;&gt;Node3</title>
<g id="a_edge2_Node000002_Node000003"><a xlink:title=" ">
<path fill="none" stroke="#63b8ff" d="M181.33,-116.38C191.77,-114.44 203.37,-112.28 214.05,-110.29"/>
<polygon fill="#63b8ff" stroke="#63b8ff" points="214.49,-113.77 223.68,-108.5 213.21,-106.89 214.49,-113.77"/>
</a>
</g>
</g>
<!-- Node4&#45;&gt;Node3 -->
<g id="edge4_Node000004_Node000003" class="edge">
<title>Node4&#45;&gt;Node3</title>
<g id="a_edge4_Node000004_Node000003"><a xlink:title=" ">
<path fill="none" stroke="#63b8ff" d="M168.17,-88.97C181.08,-91.25 198.38,-94.3 213.78,-97.02"/>
<polygon fill="#63b8ff" stroke="#63b8ff" points="213.14,-100.46 223.6,-98.75 214.36,-93.57 213.14,-100.46"/>
</a>
</g>
</g>
<!-- Node4&#45;&gt;Node5 -->
<g id="edge5_Node000004_Node000005" class="edge">
<title>Node4&#45;&gt;Node5</title>
<g id="a_edge5_Node000004_Node000005"><a xlink:title=" ">
<path fill="none" stroke="#63b8ff" d="M168.17,-78.17C180.93,-73.42 197.97,-67.07 213.23,-61.38"/>
<polygon fill="#63b8ff" stroke="#63b8ff" points="214.38,-64.69 222.53,-57.92 211.94,-58.13 214.38,-64.69"/>
</a>
</g>
</g>
<!-- Node6&#45;&gt;Node5 -->
<g id="edge7_Node000006_Node000005" class="edge">
<title>Node6&#45;&gt;Node5</title>
<g id="a_edge7_Node000006_Node000005"><a xlink:title=" ">
<path fill="none" stroke="#63b8ff" d="M175.3,-19.48C186.89,-23.8 200.66,-28.93 213.23,-33.62"/>
<polygon fill="#63b8ff" stroke="#63b8ff" points="211.87,-36.84 222.46,-37.05 214.31,-30.28 211.87,-36.84"/>
</a>
</g>
</g>
</g>
</svg>
</svg>

<style type='text/css'>
<![CDATA[
[data-mouse-over-selected='false'] { opacity: 0.7; }
[data-mouse-over-selected='true']  { opacity: 1.0; }
]]>
</style>
<script type="application/ecmascript"><![CDATA[
document.addEventListener('DOMContentLoaded', (event) => {
  highlightEdges();
  highlightAdjacentNodes();
});
]]></script>
</svg>
